G04*
G04 #@! TF.GenerationSoftware,Altium Limited,Altium Designer,26.3.0 (6)*
G04*
G04 Layer_Color=16711935*
%FSLAX25Y25*%
%MOIN*%
G70*
G04*
G04 #@! TF.SameCoordinates,43FAFAD0-F00B-4845-84B4-E7B8A36DC7EF*
G04*
G04*
G04 #@! TF.FilePolarity,Negative*
G04*
G01*
G75*
%ADD27R,0.05315X0.16535*%
%ADD58R,0.16535X0.05315*%
%ADD120C,0.06784*%
%ADD121C,0.06902*%
G04:AMPARAMS|DCode=122|XSize=67.84mil|YSize=67.84mil|CornerRadius=18.96mil|HoleSize=0mil|Usage=FLASHONLY|Rotation=0.000|XOffset=0mil|YOffset=0mil|HoleType=Round|Shape=RoundedRectangle|*
%AMROUNDEDRECTD122*
21,1,0.06784,0.02992,0,0,0.0*
21,1,0.02992,0.06784,0,0,0.0*
1,1,0.03792,0.01496,-0.01496*
1,1,0.03792,-0.01496,-0.01496*
1,1,0.03792,-0.01496,0.01496*
1,1,0.03792,0.01496,0.01496*
%
%ADD122ROUNDEDRECTD122*%
%ADD123R,0.06902X0.06902*%
G04:AMPARAMS|DCode=124|XSize=67.84mil|YSize=67.84mil|CornerRadius=18.96mil|HoleSize=0mil|Usage=FLASHONLY|Rotation=270.000|XOffset=0mil|YOffset=0mil|HoleType=Round|Shape=RoundedRectangle|*
%AMROUNDEDRECTD124*
21,1,0.06784,0.02992,0,0,270.0*
21,1,0.02992,0.06784,0,0,270.0*
1,1,0.03792,-0.01496,-0.01496*
1,1,0.03792,-0.01496,0.01496*
1,1,0.03792,0.01496,0.01496*
1,1,0.03792,0.01496,-0.01496*
%
%ADD124ROUNDEDRECTD124*%
%ADD125C,0.02769*%
D27*
X479244Y363500D02*
D03*
X457000D02*
D03*
X519744D02*
D03*
X497500D02*
D03*
X414256D02*
D03*
X436500D02*
D03*
D58*
X544213Y368122D02*
D03*
Y345878D02*
D03*
X544000Y277000D02*
D03*
Y254756D02*
D03*
D120*
X381000Y193351D02*
D03*
X331000D02*
D03*
X341000D02*
D03*
X351000D02*
D03*
X303500Y333500D02*
D03*
X332500Y366500D02*
D03*
X342500D02*
D03*
X322500D02*
D03*
X312500D02*
D03*
X303500Y263500D02*
D03*
Y343500D02*
D03*
X321000Y193351D02*
D03*
X303500Y273500D02*
D03*
Y283500D02*
D03*
X362500Y366500D02*
D03*
X352500D02*
D03*
X392500D02*
D03*
X382500D02*
D03*
X372500D02*
D03*
X303500Y293500D02*
D03*
Y313500D02*
D03*
Y323500D02*
D03*
Y303500D02*
D03*
X401000Y193351D02*
D03*
X391000D02*
D03*
X371000D02*
D03*
X361000D02*
D03*
D121*
X547500Y206000D02*
D03*
Y231500D02*
D03*
D122*
X311000Y193351D02*
D03*
X402500Y366500D02*
D03*
D123*
X547500Y241500D02*
D03*
Y216000D02*
D03*
D124*
X303500Y353500D02*
D03*
D125*
X407039Y231945D02*
D03*
X410976D02*
D03*
X407039Y228008D02*
D03*
X410976D02*
D03*
X407039Y224071D02*
D03*
X410976D02*
D03*
X338642Y230189D02*
D03*
Y234126D02*
D03*
X342579Y230189D02*
D03*
Y234126D02*
D03*
X346516Y230189D02*
D03*
Y234126D02*
D03*
M02*
