G04*
G04 #@! TF.GenerationSoftware,Altium Limited,Altium Designer,26.3.0 (6)*
G04*
G04 Layer_Physical_Order=3*
G04 Layer_Color=16440176*
%FSLAX25Y25*%
%MOIN*%
G70*
G04*
G04 #@! TF.SameCoordinates,43FAFAD0-F00B-4845-84B4-E7B8A36DC7EF*
G04*
G04*
G04 #@! TF.FilePolarity,Positive*
G04*
G01*
G75*
%ADD131C,0.05984*%
%ADD136C,0.02000*%
%ADD138C,0.03500*%
G36*
X554000Y185000D02*
X298000D01*
Y373000D01*
X554000D01*
Y185000D01*
D02*
G37*
%LPC*%
G36*
X549898Y370000D02*
X549102D01*
X548367Y369695D01*
X548077Y369405D01*
X547750Y369172D01*
X547423Y369405D01*
X547133Y369695D01*
X546398Y370000D01*
X545602D01*
X544867Y369695D01*
X544577Y369405D01*
X544250Y369172D01*
X543923Y369405D01*
X543633Y369695D01*
X542898Y370000D01*
X542102D01*
X541367Y369695D01*
X541077Y369405D01*
X540750Y369172D01*
X540423Y369405D01*
X540133Y369695D01*
X539398Y370000D01*
X538602D01*
X537867Y369695D01*
X537304Y369133D01*
X537000Y368398D01*
Y367602D01*
X537304Y366867D01*
X537867Y366304D01*
X538602Y366000D01*
X539398D01*
X540133Y366304D01*
X540423Y366595D01*
X540750Y366828D01*
X541077Y366595D01*
X541367Y366304D01*
X542102Y366000D01*
X542898D01*
X543633Y366304D01*
X543923Y366595D01*
X544250Y366828D01*
X544577Y366595D01*
X544867Y366304D01*
X545602Y366000D01*
X546398D01*
X547133Y366304D01*
X547423Y366595D01*
X547750Y366828D01*
X548077Y366595D01*
X548367Y366304D01*
X549102Y366000D01*
X549898D01*
X550633Y366304D01*
X551195Y366867D01*
X551500Y367602D01*
Y368398D01*
X551195Y369133D01*
X550633Y369695D01*
X549898Y370000D01*
D02*
G37*
G36*
X444804Y370883D02*
X444008D01*
X443273Y370579D01*
X442711Y370016D01*
X442406Y369281D01*
Y368485D01*
X442711Y367750D01*
X443273Y367188D01*
X444008Y366883D01*
X444804D01*
X445539Y367188D01*
X446102Y367750D01*
X446406Y368485D01*
Y369281D01*
X446102Y370016D01*
X445539Y370579D01*
X444804Y370883D01*
D02*
G37*
G36*
X393026Y370492D02*
X391974D01*
X390959Y370220D01*
X390049Y369694D01*
X389305Y368951D01*
X388780Y368041D01*
X388508Y367026D01*
Y365974D01*
X388780Y364959D01*
X389305Y364049D01*
X390049Y363305D01*
X390959Y362780D01*
X391974Y362508D01*
X393026D01*
X394041Y362780D01*
X394951Y363305D01*
X395694Y364049D01*
X396220Y364959D01*
X396492Y365974D01*
Y367026D01*
X396220Y368041D01*
X395694Y368951D01*
X394951Y369694D01*
X394041Y370220D01*
X393026Y370492D01*
D02*
G37*
G36*
X383026D02*
X381974D01*
X380959Y370220D01*
X380049Y369694D01*
X379306Y368951D01*
X378780Y368041D01*
X378508Y367026D01*
Y365974D01*
X378780Y364959D01*
X379306Y364049D01*
X380049Y363305D01*
X380959Y362780D01*
X381974Y362508D01*
X383026D01*
X384041Y362780D01*
X384951Y363305D01*
X385695Y364049D01*
X386220Y364959D01*
X386492Y365974D01*
Y367026D01*
X386220Y368041D01*
X385695Y368951D01*
X384951Y369694D01*
X384041Y370220D01*
X383026Y370492D01*
D02*
G37*
G36*
X373026D02*
X371974D01*
X370959Y370220D01*
X370049Y369694D01*
X369305Y368951D01*
X368780Y368041D01*
X368508Y367026D01*
Y365974D01*
X368780Y364959D01*
X369305Y364049D01*
X370049Y363305D01*
X370959Y362780D01*
X371974Y362508D01*
X373026D01*
X374041Y362780D01*
X374951Y363305D01*
X375694Y364049D01*
X376220Y364959D01*
X376492Y365974D01*
Y367026D01*
X376220Y368041D01*
X375694Y368951D01*
X374951Y369694D01*
X374041Y370220D01*
X373026Y370492D01*
D02*
G37*
G36*
X363026D02*
X361974D01*
X360959Y370220D01*
X360049Y369694D01*
X359306Y368951D01*
X358780Y368041D01*
X358508Y367026D01*
Y365974D01*
X358780Y364959D01*
X359306Y364049D01*
X360049Y363305D01*
X360959Y362780D01*
X361974Y362508D01*
X363026D01*
X364041Y362780D01*
X364951Y363305D01*
X365694Y364049D01*
X366220Y364959D01*
X366492Y365974D01*
Y367026D01*
X366220Y368041D01*
X365694Y368951D01*
X364951Y369694D01*
X364041Y370220D01*
X363026Y370492D01*
D02*
G37*
G36*
X353026D02*
X351974D01*
X350959Y370220D01*
X350049Y369694D01*
X349306Y368951D01*
X348780Y368041D01*
X348508Y367026D01*
Y365974D01*
X348780Y364959D01*
X349306Y364049D01*
X350049Y363305D01*
X350959Y362780D01*
X351974Y362508D01*
X353026D01*
X354041Y362780D01*
X354951Y363305D01*
X355695Y364049D01*
X356220Y364959D01*
X356492Y365974D01*
Y367026D01*
X356220Y368041D01*
X355695Y368951D01*
X354951Y369694D01*
X354041Y370220D01*
X353026Y370492D01*
D02*
G37*
G36*
X343026D02*
X341974D01*
X340959Y370220D01*
X340049Y369694D01*
X339305Y368951D01*
X338780Y368041D01*
X338508Y367026D01*
Y365974D01*
X338780Y364959D01*
X339305Y364049D01*
X340049Y363305D01*
X340959Y362780D01*
X341974Y362508D01*
X343026D01*
X344041Y362780D01*
X344951Y363305D01*
X345694Y364049D01*
X346220Y364959D01*
X346492Y365974D01*
Y367026D01*
X346220Y368041D01*
X345694Y368951D01*
X344951Y369694D01*
X344041Y370220D01*
X343026Y370492D01*
D02*
G37*
G36*
X333026D02*
X331974D01*
X330959Y370220D01*
X330049Y369694D01*
X329306Y368951D01*
X328780Y368041D01*
X328508Y367026D01*
Y365974D01*
X328780Y364959D01*
X329306Y364049D01*
X330049Y363305D01*
X330959Y362780D01*
X331974Y362508D01*
X333026D01*
X334041Y362780D01*
X334951Y363305D01*
X335695Y364049D01*
X336220Y364959D01*
X336492Y365974D01*
Y367026D01*
X336220Y368041D01*
X335695Y368951D01*
X334951Y369694D01*
X334041Y370220D01*
X333026Y370492D01*
D02*
G37*
G36*
X323026D02*
X321974D01*
X320959Y370220D01*
X320049Y369694D01*
X319305Y368951D01*
X318780Y368041D01*
X318508Y367026D01*
Y365974D01*
X318780Y364959D01*
X319305Y364049D01*
X320049Y363305D01*
X320959Y362780D01*
X321974Y362508D01*
X323026D01*
X324041Y362780D01*
X324951Y363305D01*
X325694Y364049D01*
X326220Y364959D01*
X326492Y365974D01*
Y367026D01*
X326220Y368041D01*
X325694Y368951D01*
X324951Y369694D01*
X324041Y370220D01*
X323026Y370492D01*
D02*
G37*
G36*
X313026D02*
X311974D01*
X310959Y370220D01*
X310049Y369694D01*
X309306Y368951D01*
X308780Y368041D01*
X308508Y367026D01*
Y365974D01*
X308780Y364959D01*
X309306Y364049D01*
X310049Y363305D01*
X310959Y362780D01*
X311974Y362508D01*
X313026D01*
X314041Y362780D01*
X314951Y363305D01*
X315694Y364049D01*
X316220Y364959D01*
X316492Y365974D01*
Y367026D01*
X316220Y368041D01*
X315694Y368951D01*
X314951Y369694D01*
X314041Y370220D01*
X313026Y370492D01*
D02*
G37*
G36*
X403996Y370541D02*
X401004D01*
X400030Y370347D01*
X399204Y369796D01*
X398653Y368970D01*
X398459Y367996D01*
Y365004D01*
X398653Y364030D01*
X399204Y363204D01*
X400030Y362653D01*
X401004Y362459D01*
X403996D01*
X404970Y362653D01*
X405796Y363204D01*
X406347Y364030D01*
X406541Y365004D01*
Y367996D01*
X406347Y368970D01*
X405796Y369796D01*
X404970Y370347D01*
X403996Y370541D01*
D02*
G37*
G36*
X479398Y371500D02*
X478602D01*
X477867Y371196D01*
X477305Y370633D01*
X477000Y369898D01*
Y369102D01*
X477305Y368367D01*
X477595Y368077D01*
X477828Y367750D01*
X477595Y367423D01*
X477305Y367133D01*
X477000Y366398D01*
Y365602D01*
X477305Y364867D01*
X477595Y364577D01*
X477828Y364250D01*
X477595Y363923D01*
X477305Y363633D01*
X477000Y362898D01*
Y362102D01*
X477305Y361367D01*
X477867Y360805D01*
X477999Y360750D01*
Y360250D01*
X477867Y360195D01*
X477305Y359633D01*
X477000Y358898D01*
Y358102D01*
X477305Y357367D01*
X477867Y356804D01*
X478602Y356500D01*
X479398D01*
X480133Y356804D01*
X480695Y357367D01*
X481000Y358102D01*
Y358898D01*
X480695Y359633D01*
X480133Y360195D01*
X480001Y360250D01*
Y360750D01*
X480133Y360805D01*
X480695Y361367D01*
X481000Y362102D01*
Y362898D01*
X480695Y363633D01*
X480405Y363923D01*
X480172Y364250D01*
X480405Y364577D01*
X480695Y364867D01*
X481000Y365602D01*
Y366398D01*
X480695Y367133D01*
X480405Y367423D01*
X480172Y367750D01*
X480405Y368077D01*
X480695Y368367D01*
X481000Y369102D01*
Y369898D01*
X480695Y370633D01*
X480133Y371196D01*
X479398Y371500D01*
D02*
G37*
G36*
X436898Y371000D02*
X436102D01*
X435367Y370695D01*
X434804Y370133D01*
X434500Y369398D01*
Y368602D01*
X434804Y367867D01*
X435172Y367500D01*
X434804Y367133D01*
X434500Y366398D01*
Y365602D01*
X434804Y364867D01*
X435367Y364304D01*
X435499Y364250D01*
Y363750D01*
X435367Y363696D01*
X434804Y363133D01*
X434500Y362398D01*
Y361602D01*
X434804Y360867D01*
X435095Y360577D01*
X435328Y360250D01*
X435095Y359923D01*
X434804Y359633D01*
X434500Y358898D01*
Y358102D01*
X434804Y357367D01*
X435367Y356804D01*
X436102Y356500D01*
X436898D01*
X437633Y356804D01*
X438196Y357367D01*
X438500Y358102D01*
Y358898D01*
X438196Y359633D01*
X437905Y359923D01*
X437672Y360250D01*
X437905Y360577D01*
X438196Y360867D01*
X438500Y361602D01*
Y362398D01*
X438196Y363133D01*
X437633Y363696D01*
X437501Y363750D01*
Y364250D01*
X437633Y364304D01*
X438196Y364867D01*
X438500Y365602D01*
Y366398D01*
X438196Y367133D01*
X437828Y367500D01*
X438196Y367867D01*
X438500Y368602D01*
Y369398D01*
X438196Y370133D01*
X437633Y370695D01*
X436898Y371000D01*
D02*
G37*
G36*
X519898Y370500D02*
X519102D01*
X518367Y370196D01*
X517804Y369633D01*
X517500Y368898D01*
Y368102D01*
X517804Y367367D01*
X518095Y367077D01*
X518328Y366750D01*
X518095Y366423D01*
X517804Y366133D01*
X517500Y365398D01*
Y364602D01*
X517804Y363867D01*
X518095Y363577D01*
X518328Y363250D01*
X518095Y362923D01*
X517804Y362633D01*
X517500Y361898D01*
Y361102D01*
X517804Y360367D01*
X518095Y360077D01*
X518328Y359750D01*
X518095Y359423D01*
X517804Y359133D01*
X517500Y358398D01*
Y357602D01*
X517804Y356867D01*
X518367Y356305D01*
X519102Y356000D01*
X519898D01*
X520633Y356305D01*
X521196Y356867D01*
X521500Y357602D01*
Y358398D01*
X521196Y359133D01*
X520905Y359423D01*
X520672Y359750D01*
X520905Y360077D01*
X521196Y360367D01*
X521500Y361102D01*
Y361898D01*
X521196Y362633D01*
X520905Y362923D01*
X520672Y363250D01*
X520905Y363577D01*
X521196Y363867D01*
X521500Y364602D01*
Y365398D01*
X521196Y366133D01*
X520905Y366423D01*
X520672Y366750D01*
X520905Y367077D01*
X521196Y367367D01*
X521500Y368102D01*
Y368898D01*
X521196Y369633D01*
X520633Y370196D01*
X519898Y370500D01*
D02*
G37*
G36*
X497898D02*
X497102D01*
X496367Y370196D01*
X495805Y369633D01*
X495500Y368898D01*
Y368102D01*
X495805Y367367D01*
X496095Y367077D01*
X496328Y366750D01*
X496095Y366423D01*
X495805Y366133D01*
X495500Y365398D01*
Y364602D01*
X495805Y363867D01*
X496095Y363577D01*
X496328Y363250D01*
X496095Y362923D01*
X495805Y362633D01*
X495500Y361898D01*
Y361102D01*
X495805Y360367D01*
X496095Y360077D01*
X496328Y359750D01*
X496095Y359423D01*
X495805Y359133D01*
X495500Y358398D01*
Y357602D01*
X495805Y356867D01*
X496367Y356305D01*
X497102Y356000D01*
X497898D01*
X498633Y356305D01*
X499195Y356867D01*
X499500Y357602D01*
Y358398D01*
X499195Y359133D01*
X498905Y359423D01*
X498672Y359750D01*
X498905Y360077D01*
X499195Y360367D01*
X499500Y361102D01*
Y361898D01*
X499195Y362633D01*
X498905Y362923D01*
X498672Y363250D01*
X498905Y363577D01*
X499195Y363867D01*
X499500Y364602D01*
Y365398D01*
X499195Y366133D01*
X498905Y366423D01*
X498672Y366750D01*
X498905Y367077D01*
X499195Y367367D01*
X499500Y368102D01*
Y368898D01*
X499195Y369633D01*
X498633Y370196D01*
X497898Y370500D01*
D02*
G37*
G36*
X457398Y371500D02*
X456602D01*
X455867Y371196D01*
X455304Y370633D01*
X455000Y369898D01*
Y369102D01*
X455304Y368367D01*
X455595Y368077D01*
X455828Y367750D01*
X455595Y367423D01*
X455304Y367133D01*
X455000Y366398D01*
Y365602D01*
X455304Y364867D01*
X455867Y364304D01*
X455999Y364250D01*
Y363750D01*
X455867Y363696D01*
X455304Y363133D01*
X455000Y362398D01*
Y361602D01*
X455304Y360867D01*
X455867Y360304D01*
X455999Y360250D01*
Y359750D01*
X455867Y359696D01*
X455304Y359133D01*
X455000Y358398D01*
Y357602D01*
X455304Y356867D01*
X455867Y356305D01*
X456602Y356000D01*
X457398D01*
X458133Y356305D01*
X458696Y356867D01*
X459000Y357602D01*
Y358398D01*
X458696Y359133D01*
X458133Y359696D01*
X458001Y359750D01*
Y360250D01*
X458133Y360304D01*
X458696Y360867D01*
X459000Y361602D01*
Y362398D01*
X458696Y363133D01*
X458133Y363696D01*
X458001Y363750D01*
Y364250D01*
X458133Y364304D01*
X458696Y364867D01*
X459000Y365602D01*
Y366398D01*
X458696Y367133D01*
X458405Y367423D01*
X458172Y367750D01*
X458405Y368077D01*
X458696Y368367D01*
X459000Y369102D01*
Y369898D01*
X458696Y370633D01*
X458133Y371196D01*
X457398Y371500D01*
D02*
G37*
G36*
X414898Y371000D02*
X414102D01*
X413367Y370695D01*
X412805Y370133D01*
X412500Y369398D01*
Y368602D01*
X412805Y367867D01*
X413367Y367304D01*
X413499Y367250D01*
Y366750D01*
X413367Y366695D01*
X412805Y366133D01*
X412500Y365398D01*
Y364602D01*
X412805Y363867D01*
X413095Y363577D01*
X413328Y363250D01*
X413095Y362923D01*
X412805Y362633D01*
X412500Y361898D01*
Y361102D01*
X412805Y360367D01*
X413095Y360077D01*
X413328Y359750D01*
X413095Y359423D01*
X412805Y359133D01*
X412500Y358398D01*
Y357602D01*
X412805Y356867D01*
X413367Y356305D01*
X414102Y356000D01*
X414898D01*
X415633Y356305D01*
X416195Y356867D01*
X416500Y357602D01*
Y358398D01*
X416195Y359133D01*
X415905Y359423D01*
X415672Y359750D01*
X415905Y360077D01*
X416195Y360367D01*
X416500Y361102D01*
Y361898D01*
X416195Y362633D01*
X415905Y362923D01*
X415672Y363250D01*
X415905Y363577D01*
X416195Y363867D01*
X416500Y364602D01*
Y365398D01*
X416195Y366133D01*
X415633Y366695D01*
X415501Y366750D01*
Y367250D01*
X415633Y367304D01*
X416195Y367867D01*
X416500Y368602D01*
Y369398D01*
X416195Y370133D01*
X415633Y370695D01*
X414898Y371000D01*
D02*
G37*
G36*
X410898Y353500D02*
X410102D01*
X409367Y353196D01*
X408805Y352633D01*
X408500Y351898D01*
Y351102D01*
X408805Y350367D01*
X409367Y349804D01*
X410102Y349500D01*
X410898D01*
X411633Y349804D01*
X412195Y350367D01*
X412500Y351102D01*
Y351898D01*
X412195Y352633D01*
X411633Y353196D01*
X410898Y353500D01*
D02*
G37*
G36*
X304996Y357541D02*
X302004D01*
X301030Y357347D01*
X300204Y356796D01*
X299653Y355970D01*
X299459Y354996D01*
Y352004D01*
X299653Y351030D01*
X300204Y350204D01*
X301030Y349653D01*
X302004Y349459D01*
X304996D01*
X305970Y349653D01*
X306796Y350204D01*
X307347Y351030D01*
X307541Y352004D01*
Y354996D01*
X307347Y355970D01*
X306796Y356796D01*
X305970Y357347D01*
X304996Y357541D01*
D02*
G37*
G36*
X453898Y353000D02*
X453102D01*
X452367Y352695D01*
X451804Y352133D01*
X451500Y351398D01*
Y350602D01*
X451804Y349867D01*
X452367Y349305D01*
X453102Y349000D01*
X453898D01*
X454633Y349305D01*
X455196Y349867D01*
X455500Y350602D01*
Y351398D01*
X455196Y352133D01*
X454633Y352695D01*
X453898Y353000D01*
D02*
G37*
G36*
X418898Y351500D02*
X418102D01*
X417367Y351196D01*
X416805Y350633D01*
X416500Y349898D01*
Y349102D01*
X416805Y348367D01*
X417367Y347804D01*
X418102Y347500D01*
X418898D01*
X419633Y347804D01*
X420195Y348367D01*
X420500Y349102D01*
Y349898D01*
X420195Y350633D01*
X419633Y351196D01*
X418898Y351500D01*
D02*
G37*
G36*
X374898Y350709D02*
X374102D01*
X373367Y350404D01*
X372804Y349842D01*
X372500Y349107D01*
Y348311D01*
X372804Y347576D01*
X373367Y347013D01*
X374102Y346709D01*
X374898D01*
X375633Y347013D01*
X376196Y347576D01*
X376500Y348311D01*
Y349107D01*
X376196Y349842D01*
X375633Y350404D01*
X374898Y350709D01*
D02*
G37*
G36*
X549898Y347500D02*
X549102D01*
X548367Y347196D01*
X548077Y346905D01*
X547750Y346672D01*
X547423Y346905D01*
X547133Y347196D01*
X546398Y347500D01*
X545602D01*
X544867Y347196D01*
X544577Y346905D01*
X544250Y346672D01*
X543923Y346905D01*
X543633Y347196D01*
X542898Y347500D01*
X542102D01*
X541367Y347196D01*
X541077Y346905D01*
X540750Y346672D01*
X540423Y346905D01*
X540133Y347196D01*
X539398Y347500D01*
X538602D01*
X537867Y347196D01*
X537304Y346633D01*
X537000Y345898D01*
Y345102D01*
X537304Y344367D01*
X537867Y343805D01*
X538602Y343500D01*
X539398D01*
X540133Y343805D01*
X540423Y344095D01*
X540750Y344328D01*
X541077Y344095D01*
X541367Y343805D01*
X542102Y343500D01*
X542898D01*
X543633Y343805D01*
X543923Y344095D01*
X544250Y344328D01*
X544577Y344095D01*
X544867Y343805D01*
X545602Y343500D01*
X546398D01*
X547133Y343805D01*
X547423Y344095D01*
X547750Y344328D01*
X548077Y344095D01*
X548367Y343805D01*
X549102Y343500D01*
X549898D01*
X550633Y343805D01*
X551195Y344367D01*
X551500Y345102D01*
Y345898D01*
X551195Y346633D01*
X550633Y347196D01*
X549898Y347500D01*
D02*
G37*
G36*
X502398Y346000D02*
X501602D01*
X500867Y345695D01*
X500305Y345133D01*
X500000Y344398D01*
Y343602D01*
X500305Y342867D01*
X500867Y342304D01*
X501602Y342000D01*
X502398D01*
X503133Y342304D01*
X503695Y342867D01*
X504000Y343602D01*
Y344398D01*
X503695Y345133D01*
X503133Y345695D01*
X502398Y346000D01*
D02*
G37*
G36*
X439398D02*
X438602D01*
X437867Y345695D01*
X437304Y345133D01*
X437000Y344398D01*
Y343602D01*
X437304Y342867D01*
X437867Y342304D01*
X438602Y342000D01*
X439398D01*
X440133Y342304D01*
X440695Y342867D01*
X441000Y343602D01*
Y344398D01*
X440695Y345133D01*
X440133Y345695D01*
X439398Y346000D01*
D02*
G37*
G36*
X357398Y345000D02*
X356602D01*
X355867Y344695D01*
X355305Y344133D01*
X355000Y343398D01*
Y342602D01*
X355305Y341867D01*
X355867Y341304D01*
X356602Y341000D01*
X357398D01*
X358133Y341304D01*
X358696Y341867D01*
X359000Y342602D01*
Y343398D01*
X358696Y344133D01*
X358133Y344695D01*
X357398Y345000D01*
D02*
G37*
G36*
X393898Y341000D02*
X393102D01*
X392367Y340696D01*
X391805Y340133D01*
X391687Y339849D01*
X391133Y339696D01*
X390398Y340000D01*
X389602D01*
X388867Y339696D01*
X388304Y339133D01*
X388000Y338398D01*
Y338201D01*
X387584Y337923D01*
X387398Y338000D01*
X386602D01*
X385867Y337696D01*
X385304Y337133D01*
X385000Y336398D01*
Y335602D01*
X385097Y335369D01*
X384714Y334986D01*
X384506Y335072D01*
X383710D01*
X382975Y334768D01*
X382413Y334205D01*
X382108Y333470D01*
Y332675D01*
X382413Y331940D01*
X382975Y331377D01*
X383710Y331072D01*
X384506D01*
X385241Y331377D01*
X385804Y331940D01*
X386108Y332675D01*
Y333470D01*
X386011Y333703D01*
X386394Y334086D01*
X386602Y334000D01*
X387398D01*
X388133Y334304D01*
X388696Y334867D01*
X389000Y335602D01*
Y335799D01*
X389416Y336077D01*
X389602Y336000D01*
X390398D01*
X391133Y336304D01*
X391695Y336867D01*
X391813Y337151D01*
X392367Y337304D01*
X393102Y337000D01*
X393898D01*
X394633Y337304D01*
X395196Y337867D01*
X395500Y338602D01*
Y339398D01*
X395196Y340133D01*
X394633Y340696D01*
X393898Y341000D01*
D02*
G37*
G36*
X304026Y347492D02*
X302974D01*
X301959Y347220D01*
X301049Y346694D01*
X300306Y345951D01*
X299780Y345041D01*
X299508Y344026D01*
Y342974D01*
X299780Y341959D01*
X300306Y341049D01*
X301049Y340305D01*
X301959Y339780D01*
X302974Y339508D01*
X304026D01*
X305041Y339780D01*
X305951Y340305D01*
X306695Y341049D01*
X307220Y341959D01*
X307492Y342974D01*
Y344026D01*
X307220Y345041D01*
X306695Y345951D01*
X305951Y346694D01*
X305041Y347220D01*
X304026Y347492D01*
D02*
G37*
G36*
X437898Y339500D02*
X437102D01*
X436367Y339195D01*
X435805Y338633D01*
X435500Y337898D01*
Y337102D01*
X435805Y336367D01*
X436367Y335805D01*
X437102Y335500D01*
X437898D01*
X438633Y335805D01*
X439195Y336367D01*
X439500Y337102D01*
Y337898D01*
X439195Y338633D01*
X438633Y339195D01*
X437898Y339500D01*
D02*
G37*
G36*
X452898Y338000D02*
X452102D01*
X451367Y337696D01*
X450805Y337133D01*
X450500Y336398D01*
Y335602D01*
X450805Y334867D01*
X451367Y334304D01*
X452102Y334000D01*
X452898D01*
X453633Y334304D01*
X454195Y334867D01*
X454500Y335602D01*
Y336398D01*
X454195Y337133D01*
X453633Y337696D01*
X452898Y338000D01*
D02*
G37*
G36*
X370961Y337913D02*
X370165D01*
X369430Y337609D01*
X368867Y337046D01*
X368563Y336311D01*
Y335516D01*
X368867Y334781D01*
X369430Y334218D01*
X370165Y333913D01*
X370961D01*
X371696Y334218D01*
X372258Y334781D01*
X372563Y335516D01*
Y336311D01*
X372258Y337046D01*
X371696Y337609D01*
X370961Y337913D01*
D02*
G37*
G36*
X429898Y335000D02*
X429102D01*
X428367Y334696D01*
X427805Y334133D01*
X427500Y333398D01*
Y332602D01*
X427805Y331867D01*
X428367Y331305D01*
X429102Y331000D01*
X429898D01*
X430633Y331305D01*
X431195Y331867D01*
X431500Y332602D01*
Y333398D01*
X431195Y334133D01*
X430633Y334696D01*
X429898Y335000D01*
D02*
G37*
G36*
X460898Y334000D02*
X460102D01*
X459367Y333696D01*
X458805Y333133D01*
X458500Y332398D01*
Y331602D01*
X458805Y330867D01*
X459367Y330305D01*
X460102Y330000D01*
X460898D01*
X461633Y330305D01*
X462195Y330867D01*
X462500Y331602D01*
Y332398D01*
X462195Y333133D01*
X461633Y333696D01*
X460898Y334000D01*
D02*
G37*
G36*
X304026Y337492D02*
X302974D01*
X301959Y337220D01*
X301049Y336695D01*
X300306Y335951D01*
X299780Y335041D01*
X299508Y334026D01*
Y332974D01*
X299780Y331959D01*
X300306Y331049D01*
X301049Y330306D01*
X301959Y329780D01*
X302974Y329508D01*
X304026D01*
X305041Y329780D01*
X305951Y330306D01*
X306695Y331049D01*
X307220Y331959D01*
X307492Y332974D01*
Y334026D01*
X307220Y335041D01*
X306695Y335951D01*
X305951Y336695D01*
X305041Y337220D01*
X304026Y337492D01*
D02*
G37*
G36*
X438080Y331598D02*
X437284D01*
X436549Y331294D01*
X435986Y330731D01*
X435682Y329996D01*
Y329200D01*
X435986Y328465D01*
X436549Y327903D01*
X437284Y327598D01*
X438080D01*
X438815Y327903D01*
X439377Y328465D01*
X439682Y329200D01*
Y329996D01*
X439377Y330731D01*
X438815Y331294D01*
X438080Y331598D01*
D02*
G37*
G36*
X317398Y331000D02*
X316602D01*
X315867Y330696D01*
X315304Y330133D01*
X315000Y329398D01*
Y328602D01*
X315304Y327867D01*
X315867Y327305D01*
X316602Y327000D01*
X317398D01*
X318133Y327305D01*
X318695Y327867D01*
X319000Y328602D01*
Y329398D01*
X318695Y330133D01*
X318133Y330696D01*
X317398Y331000D01*
D02*
G37*
G36*
X496398Y328000D02*
X495602D01*
X494867Y327695D01*
X494305Y327133D01*
X494000Y326398D01*
Y326032D01*
X493500Y325698D01*
X493215Y325817D01*
X492419D01*
X491684Y325512D01*
X491121Y324950D01*
X490817Y324215D01*
Y323419D01*
X491121Y322684D01*
X491684Y322121D01*
X492419Y321817D01*
X493215D01*
X493950Y322121D01*
X494512Y322684D01*
X494817Y323419D01*
Y323784D01*
X495317Y324118D01*
X495602Y324000D01*
X496398D01*
X497133Y324305D01*
X497695Y324867D01*
X498000Y325602D01*
Y326398D01*
X497695Y327133D01*
X497133Y327695D01*
X496398Y328000D01*
D02*
G37*
G36*
X482398Y329000D02*
X481602D01*
X480867Y328696D01*
X480304Y328133D01*
X480000Y327398D01*
Y326602D01*
X480304Y325867D01*
X480867Y325305D01*
X481602Y325000D01*
X482398D01*
X483133Y325305D01*
X483696Y325867D01*
X484000Y326602D01*
Y327398D01*
X483696Y328133D01*
X483133Y328696D01*
X482398Y329000D01*
D02*
G37*
G36*
X353898Y328500D02*
X353102D01*
X352367Y328196D01*
X351804Y327633D01*
X351500Y326898D01*
Y326102D01*
X351804Y325367D01*
X352367Y324804D01*
X353102Y324500D01*
X353898D01*
X354633Y324804D01*
X355195Y325367D01*
X355500Y326102D01*
Y326898D01*
X355195Y327633D01*
X354633Y328196D01*
X353898Y328500D01*
D02*
G37*
G36*
X369398Y326500D02*
X368602D01*
X367867Y326196D01*
X367304Y325633D01*
X367000Y324898D01*
Y324102D01*
X367304Y323367D01*
X367867Y322804D01*
X368602Y322500D01*
X369398D01*
X370133Y322804D01*
X370695Y323367D01*
X371000Y324102D01*
Y324898D01*
X370695Y325633D01*
X370133Y326196D01*
X369398Y326500D01*
D02*
G37*
G36*
X349898Y325500D02*
X349102D01*
X348367Y325196D01*
X347804Y324633D01*
X347500Y323898D01*
Y323102D01*
X347804Y322367D01*
X348367Y321804D01*
X349102Y321500D01*
X349898D01*
X350633Y321804D01*
X351196Y322367D01*
X351500Y323102D01*
Y323898D01*
X351196Y324633D01*
X350633Y325196D01*
X349898Y325500D01*
D02*
G37*
G36*
X410898Y324000D02*
X410102D01*
X409367Y323695D01*
X408805Y323133D01*
X408500Y322398D01*
Y321602D01*
X408805Y320867D01*
X409367Y320304D01*
X410102Y320000D01*
X410898D01*
X411633Y320304D01*
X412195Y320867D01*
X412500Y321602D01*
Y322398D01*
X412195Y323133D01*
X411633Y323695D01*
X410898Y324000D01*
D02*
G37*
G36*
X304026Y327492D02*
X302974D01*
X301959Y327220D01*
X301049Y326694D01*
X300306Y325951D01*
X299780Y325041D01*
X299508Y324026D01*
Y322974D01*
X299780Y321959D01*
X300306Y321049D01*
X301049Y320305D01*
X301959Y319780D01*
X302974Y319508D01*
X304026D01*
X305041Y319780D01*
X305951Y320305D01*
X306695Y321049D01*
X307220Y321959D01*
X307492Y322974D01*
Y324026D01*
X307220Y325041D01*
X306695Y325951D01*
X305951Y326694D01*
X305041Y327220D01*
X304026Y327492D01*
D02*
G37*
G36*
X514898Y323000D02*
X514102D01*
X513367Y322695D01*
X512805Y322133D01*
X512500Y321398D01*
Y320602D01*
X512805Y319867D01*
X513367Y319304D01*
X514102Y319000D01*
X514898D01*
X515633Y319304D01*
X516195Y319867D01*
X516500Y320602D01*
Y321398D01*
X516195Y322133D01*
X515633Y322695D01*
X514898Y323000D01*
D02*
G37*
G36*
X324898Y322500D02*
X324102D01*
X323367Y322196D01*
X322804Y321633D01*
X322500Y320898D01*
Y320102D01*
X322804Y319367D01*
X323367Y318805D01*
X324102Y318500D01*
X324898D01*
X325633Y318805D01*
X326196Y319367D01*
X326500Y320102D01*
Y320898D01*
X326196Y321633D01*
X325633Y322196D01*
X324898Y322500D01*
D02*
G37*
G36*
X475406Y321209D02*
X474610D01*
X473875Y320904D01*
X473312Y320342D01*
X473008Y319606D01*
Y318811D01*
X473312Y318076D01*
X473875Y317513D01*
X474610Y317209D01*
X475406D01*
X476141Y317513D01*
X476703Y318076D01*
X477008Y318811D01*
Y319606D01*
X476703Y320342D01*
X476141Y320904D01*
X475406Y321209D01*
D02*
G37*
G36*
X359398Y319500D02*
X358602D01*
X357867Y319196D01*
X357305Y318633D01*
X357000Y317898D01*
Y317102D01*
X357305Y316367D01*
X357867Y315805D01*
X358602Y315500D01*
X359398D01*
X360133Y315805D01*
X360696Y316367D01*
X361000Y317102D01*
Y317898D01*
X360696Y318633D01*
X360133Y319196D01*
X359398Y319500D01*
D02*
G37*
G36*
X438080Y318244D02*
X437284D01*
X436549Y317939D01*
X435986Y317377D01*
X435682Y316641D01*
Y315846D01*
X435986Y315111D01*
X436549Y314548D01*
X437284Y314244D01*
X438080D01*
X438815Y314548D01*
X439377Y315111D01*
X439682Y315846D01*
Y316641D01*
X439377Y317377D01*
X438815Y317939D01*
X438080Y318244D01*
D02*
G37*
G36*
X344621Y315777D02*
X343825D01*
X343090Y315473D01*
X342527Y314910D01*
X342223Y314175D01*
X341723Y313865D01*
X341398Y314000D01*
X340602D01*
X339867Y313696D01*
X339304Y313133D01*
X339000Y312398D01*
Y311602D01*
X339304Y310867D01*
X339867Y310304D01*
X340602Y310000D01*
X341398D01*
X342133Y310304D01*
X342695Y310867D01*
X343000Y311602D01*
X343500Y311912D01*
X343825Y311777D01*
X344621D01*
X345356Y312082D01*
X345918Y312644D01*
X346223Y313379D01*
Y314175D01*
X345918Y314910D01*
X345356Y315473D01*
X344621Y315777D01*
D02*
G37*
G36*
X479870Y315901D02*
X479074D01*
X478339Y315597D01*
X477777Y315034D01*
X477472Y314299D01*
Y313504D01*
X477777Y312768D01*
X478339Y312206D01*
X479074Y311901D01*
X479870D01*
X480605Y312206D01*
X481168Y312768D01*
X481472Y313504D01*
Y314299D01*
X481168Y315034D01*
X480605Y315597D01*
X479870Y315901D01*
D02*
G37*
G36*
X494080Y315744D02*
X493284D01*
X492549Y315439D01*
X491986Y314877D01*
X491682Y314142D01*
Y313346D01*
X491986Y312611D01*
X492549Y312048D01*
X493284Y311744D01*
X494080D01*
X494815Y312048D01*
X495377Y312611D01*
X495682Y313346D01*
Y314142D01*
X495377Y314877D01*
X494815Y315439D01*
X494080Y315744D01*
D02*
G37*
G36*
X384362Y314036D02*
X383567D01*
X382832Y313731D01*
X382269Y313168D01*
X381964Y312433D01*
Y311638D01*
X382269Y310903D01*
X382832Y310340D01*
X383567Y310035D01*
X384362D01*
X385097Y310340D01*
X385660Y310903D01*
X385964Y311638D01*
Y312433D01*
X385660Y313168D01*
X385097Y313731D01*
X384362Y314036D01*
D02*
G37*
G36*
X304026Y317492D02*
X302974D01*
X301959Y317220D01*
X301049Y316694D01*
X300306Y315951D01*
X299780Y315041D01*
X299508Y314026D01*
Y312974D01*
X299780Y311959D01*
X300306Y311049D01*
X301049Y310306D01*
X301959Y309780D01*
X302974Y309508D01*
X304026D01*
X305041Y309780D01*
X305951Y310306D01*
X306695Y311049D01*
X307220Y311959D01*
X307492Y312974D01*
Y314026D01*
X307220Y315041D01*
X306695Y315951D01*
X305951Y316694D01*
X305041Y317220D01*
X304026Y317492D01*
D02*
G37*
G36*
X488406Y309709D02*
X487610D01*
X486875Y309404D01*
X486508Y309037D01*
X486141Y309404D01*
X485406Y309709D01*
X484610D01*
X483875Y309404D01*
X483312Y308842D01*
X483008Y308106D01*
Y307311D01*
X483312Y306576D01*
X483429Y306459D01*
X483312Y306342D01*
X483008Y305607D01*
Y304811D01*
X483312Y304076D01*
X483875Y303513D01*
X484610Y303209D01*
X485406D01*
X486141Y303513D01*
X486508Y303880D01*
X486875Y303513D01*
X487610Y303209D01*
X488406D01*
X489141Y303513D01*
X489703Y304076D01*
X490008Y304811D01*
Y305607D01*
X489703Y306342D01*
X489586Y306459D01*
X489703Y306576D01*
X490008Y307311D01*
Y308106D01*
X489703Y308842D01*
X489141Y309404D01*
X488406Y309709D01*
D02*
G37*
G36*
X523398Y313000D02*
X522602D01*
X521867Y312696D01*
X521305Y312133D01*
X521000Y311398D01*
Y310602D01*
X521305Y309867D01*
X521867Y309304D01*
X522602Y309000D01*
X523398D01*
X524133Y309304D01*
X524695Y309867D01*
X525000Y310602D01*
Y311398D01*
X524695Y312133D01*
X524133Y312696D01*
X523398Y313000D01*
D02*
G37*
G36*
X387898Y310500D02*
X387102D01*
X386367Y310195D01*
X385805Y309633D01*
X385500Y308898D01*
Y308102D01*
X385805Y307367D01*
X386367Y306804D01*
X387102Y306500D01*
X387898D01*
X388633Y306804D01*
X389195Y307367D01*
X389500Y308102D01*
Y308898D01*
X389195Y309633D01*
X388633Y310195D01*
X387898Y310500D01*
D02*
G37*
G36*
X411398Y311500D02*
X410602D01*
X409867Y311195D01*
X409305Y310633D01*
X409000Y309898D01*
Y309102D01*
X409305Y308367D01*
X409867Y307804D01*
X410020Y307741D01*
Y307200D01*
X409867Y307137D01*
X409305Y306574D01*
X409000Y305839D01*
Y305043D01*
X409305Y304308D01*
X409867Y303745D01*
X410602Y303441D01*
X411398D01*
X412133Y303745D01*
X412696Y304308D01*
X413000Y305043D01*
Y305839D01*
X412696Y306574D01*
X412133Y307137D01*
X411980Y307200D01*
Y307741D01*
X412133Y307804D01*
X412696Y308367D01*
X413000Y309102D01*
Y309898D01*
X412696Y310633D01*
X412133Y311195D01*
X411398Y311500D01*
D02*
G37*
G36*
X340898Y309500D02*
X340102D01*
X339367Y309195D01*
X338805Y308633D01*
X338500Y307898D01*
Y307102D01*
X338805Y306367D01*
X339367Y305804D01*
X340005Y305540D01*
X340144Y305199D01*
X340172Y305000D01*
X339805Y304633D01*
X339500Y303898D01*
Y303102D01*
X339805Y302367D01*
X340367Y301804D01*
X341102Y301500D01*
X341898D01*
X342633Y301804D01*
X343196Y302367D01*
X343500Y303102D01*
Y303898D01*
X343196Y304633D01*
X342633Y305195D01*
X341995Y305460D01*
X341856Y305801D01*
X341828Y306000D01*
X342196Y306367D01*
X342500Y307102D01*
Y307898D01*
X342196Y308633D01*
X341633Y309195D01*
X340898Y309500D01*
D02*
G37*
G36*
X445835Y305063D02*
X445039D01*
X444304Y304759D01*
X443742Y304196D01*
X443437Y303461D01*
Y302665D01*
X443742Y301930D01*
X444304Y301367D01*
X445039Y301063D01*
X445835D01*
X446570Y301367D01*
X447132Y301930D01*
X447437Y302665D01*
Y303461D01*
X447132Y304196D01*
X446570Y304759D01*
X445835Y305063D01*
D02*
G37*
G36*
X369898Y305000D02*
X369102D01*
X368367Y304696D01*
X367805Y304133D01*
X367500Y303398D01*
Y302602D01*
X367805Y301867D01*
X368367Y301305D01*
X369102Y301000D01*
X369898D01*
X370633Y301305D01*
X371196Y301867D01*
X371500Y302602D01*
Y303398D01*
X371196Y304133D01*
X370633Y304696D01*
X369898Y305000D01*
D02*
G37*
G36*
X304026Y307492D02*
X302974D01*
X301959Y307220D01*
X301049Y306695D01*
X300306Y305951D01*
X299780Y305041D01*
X299508Y304026D01*
Y302974D01*
X299780Y301959D01*
X300306Y301049D01*
X301049Y300306D01*
X301959Y299780D01*
X302974Y299508D01*
X304026D01*
X305041Y299780D01*
X305951Y300306D01*
X306695Y301049D01*
X307220Y301959D01*
X307492Y302974D01*
Y304026D01*
X307220Y305041D01*
X306695Y305951D01*
X305951Y306695D01*
X305041Y307220D01*
X304026Y307492D01*
D02*
G37*
G36*
X360666Y303268D02*
X359870D01*
X359135Y302963D01*
X358572Y302401D01*
X358268Y301666D01*
Y300870D01*
X358572Y300135D01*
X359135Y299572D01*
X359870Y299268D01*
X360666D01*
X361401Y299572D01*
X361963Y300135D01*
X362268Y300870D01*
Y301666D01*
X361963Y302401D01*
X361401Y302963D01*
X360666Y303268D01*
D02*
G37*
G36*
X324380Y303000D02*
X323584D01*
X322849Y302695D01*
X322287Y302133D01*
X321982Y301398D01*
Y300602D01*
X322287Y299867D01*
X322849Y299305D01*
X323584Y299000D01*
X324380D01*
X325115Y299305D01*
X325678Y299867D01*
X325982Y300602D01*
Y301398D01*
X325678Y302133D01*
X325115Y302695D01*
X324380Y303000D01*
D02*
G37*
G36*
X392398Y302500D02*
X391602D01*
X390867Y302196D01*
X390304Y301633D01*
X390000Y300898D01*
Y300102D01*
X390304Y299367D01*
X390867Y298804D01*
X391602Y298500D01*
X392398D01*
X393133Y298804D01*
X393695Y299367D01*
X394000Y300102D01*
Y300898D01*
X393695Y301633D01*
X393133Y302196D01*
X392398Y302500D01*
D02*
G37*
G36*
X384898D02*
X384102D01*
X383367Y302196D01*
X382804Y301633D01*
X382500Y300898D01*
Y300102D01*
X382804Y299367D01*
X383367Y298804D01*
X384102Y298500D01*
X384898D01*
X385633Y298804D01*
X386195Y299367D01*
X386500Y300102D01*
Y300898D01*
X386195Y301633D01*
X385633Y302196D01*
X384898Y302500D01*
D02*
G37*
G36*
X498398Y302000D02*
X497602D01*
X496867Y301695D01*
X496305Y301133D01*
X496000Y300398D01*
Y299602D01*
X496305Y298867D01*
X496867Y298305D01*
X497602Y298000D01*
X498398D01*
X499133Y298305D01*
X499695Y298867D01*
X500000Y299602D01*
Y300398D01*
X499695Y301133D01*
X499133Y301695D01*
X498398Y302000D01*
D02*
G37*
G36*
X475406Y301709D02*
X474610D01*
X473875Y301404D01*
X473312Y300842D01*
X473008Y300107D01*
Y299311D01*
X473312Y298576D01*
X473875Y298013D01*
X474610Y297709D01*
X475406D01*
X476141Y298013D01*
X476703Y298576D01*
X477008Y299311D01*
Y300107D01*
X476703Y300842D01*
X476141Y301404D01*
X475406Y301709D01*
D02*
G37*
G36*
X480080Y300744D02*
X479284D01*
X478549Y300439D01*
X477986Y299877D01*
X477682Y299142D01*
Y298346D01*
X477986Y297611D01*
X478549Y297048D01*
X479284Y296744D01*
X480080D01*
X480815Y297048D01*
X481377Y297611D01*
X481682Y298346D01*
Y299142D01*
X481377Y299877D01*
X480815Y300439D01*
X480080Y300744D01*
D02*
G37*
G36*
X493398Y300500D02*
X492602D01*
X491867Y300196D01*
X491304Y299633D01*
X491000Y298898D01*
Y298102D01*
X491304Y297367D01*
X491867Y296804D01*
X492602Y296500D01*
X493398D01*
X494133Y296804D01*
X494696Y297367D01*
X495000Y298102D01*
Y298898D01*
X494696Y299633D01*
X494133Y300196D01*
X493398Y300500D01*
D02*
G37*
G36*
X332398Y298500D02*
X331602D01*
X330867Y298196D01*
X330305Y297633D01*
X330000Y296898D01*
Y296102D01*
X330305Y295367D01*
X330867Y294805D01*
X331602Y294500D01*
X332398D01*
X333133Y294805D01*
X333696Y295367D01*
X334000Y296102D01*
Y296898D01*
X333696Y297633D01*
X333133Y298196D01*
X332398Y298500D01*
D02*
G37*
G36*
X399398Y297272D02*
X398602D01*
X397867Y296967D01*
X397305Y296405D01*
X397000Y295670D01*
Y294874D01*
X397041Y294775D01*
X396658Y294392D01*
X396398Y294500D01*
X395602D01*
X394867Y294196D01*
X394304Y293633D01*
X394000Y292898D01*
Y292102D01*
X394304Y291367D01*
X394867Y290805D01*
X395602Y290500D01*
X396398D01*
X397133Y290805D01*
X397695Y291367D01*
X398000Y292102D01*
Y292898D01*
X397959Y292997D01*
X398342Y293380D01*
X398602Y293272D01*
X399398D01*
X400133Y293576D01*
X400696Y294139D01*
X401000Y294874D01*
Y295670D01*
X400696Y296405D01*
X400133Y296967D01*
X399398Y297272D01*
D02*
G37*
G36*
X370566Y297020D02*
X369771D01*
X369036Y296716D01*
X368473Y296153D01*
X368169Y295418D01*
Y294622D01*
X368473Y293887D01*
X369036Y293324D01*
X369771Y293020D01*
X370566D01*
X371302Y293324D01*
X371864Y293887D01*
X372169Y294622D01*
Y295418D01*
X371864Y296153D01*
X371302Y296716D01*
X370566Y297020D01*
D02*
G37*
G36*
X342398Y299000D02*
X341602D01*
X340867Y298695D01*
X340304Y298133D01*
X340000Y297398D01*
Y296602D01*
X340304Y295867D01*
X340867Y295304D01*
X341602Y295000D01*
X342398D01*
X342773Y295155D01*
X343155Y294773D01*
X343000Y294398D01*
Y293602D01*
X343304Y292867D01*
X343867Y292304D01*
X344602Y292000D01*
X345398D01*
X346133Y292304D01*
X346695Y292867D01*
X347000Y293602D01*
Y294398D01*
X346695Y295133D01*
X346133Y295695D01*
X345398Y296000D01*
X344602D01*
X344228Y295845D01*
X343845Y296228D01*
X344000Y296602D01*
Y297398D01*
X343695Y298133D01*
X343133Y298695D01*
X342398Y299000D01*
D02*
G37*
G36*
X479138Y294500D02*
X478342D01*
X477607Y294196D01*
X477044Y293633D01*
X476740Y292898D01*
Y292102D01*
X477044Y291367D01*
X477607Y290805D01*
X478342Y290500D01*
X479138D01*
X479873Y290805D01*
X480435Y291367D01*
X480740Y292102D01*
Y292898D01*
X480435Y293633D01*
X479873Y294196D01*
X479138Y294500D01*
D02*
G37*
G36*
X304026Y297492D02*
X302974D01*
X301959Y297220D01*
X301049Y296694D01*
X300306Y295951D01*
X299780Y295041D01*
X299508Y294026D01*
Y292974D01*
X299780Y291959D01*
X300306Y291049D01*
X301049Y290305D01*
X301959Y289780D01*
X302974Y289508D01*
X304026D01*
X305041Y289780D01*
X305951Y290305D01*
X306695Y291049D01*
X307220Y291959D01*
X307492Y292974D01*
Y294026D01*
X307220Y295041D01*
X306695Y295951D01*
X305951Y296694D01*
X305041Y297220D01*
X304026Y297492D01*
D02*
G37*
G36*
X423898Y293000D02*
X423102D01*
X422367Y292695D01*
X421805Y292133D01*
X421500Y291398D01*
Y290602D01*
X421805Y289867D01*
X422367Y289304D01*
X423102Y289000D01*
X423898D01*
X424633Y289304D01*
X425196Y289867D01*
X425500Y290602D01*
Y291398D01*
X425196Y292133D01*
X424633Y292695D01*
X423898Y293000D01*
D02*
G37*
G36*
X318898Y292744D02*
X318102D01*
X317367Y292440D01*
X316805Y291877D01*
X316500Y291142D01*
Y290346D01*
X316805Y289611D01*
X317367Y289049D01*
X318102Y288744D01*
X318898D01*
X319633Y289049D01*
X320196Y289611D01*
X320500Y290346D01*
Y291142D01*
X320196Y291877D01*
X319633Y292440D01*
X318898Y292744D01*
D02*
G37*
G36*
X312398D02*
X311602D01*
X310867Y292440D01*
X310304Y291877D01*
X310000Y291142D01*
Y290346D01*
X310304Y289611D01*
X310867Y289049D01*
X311602Y288744D01*
X312398D01*
X313133Y289049D01*
X313696Y289611D01*
X314000Y290346D01*
Y291142D01*
X313696Y291877D01*
X313133Y292440D01*
X312398Y292744D01*
D02*
G37*
G36*
X368398Y292000D02*
X367602D01*
X366867Y291695D01*
X366304Y291133D01*
X366000Y290398D01*
Y289602D01*
X366304Y288867D01*
X366867Y288304D01*
X367602Y288000D01*
X368398D01*
X369133Y288304D01*
X369695Y288867D01*
X370000Y289602D01*
Y290398D01*
X369695Y291133D01*
X369133Y291695D01*
X368398Y292000D01*
D02*
G37*
G36*
X327398Y291500D02*
X326602D01*
X325867Y291196D01*
X325305Y290633D01*
X325000Y289898D01*
Y289102D01*
X325305Y288367D01*
X325867Y287805D01*
X326602Y287500D01*
X327398D01*
X328133Y287805D01*
X328696Y288367D01*
X329000Y289102D01*
Y289898D01*
X328696Y290633D01*
X328133Y291196D01*
X327398Y291500D01*
D02*
G37*
G36*
X365366Y287609D02*
X364571D01*
X363836Y287304D01*
X363273Y286742D01*
X362968Y286007D01*
Y285211D01*
X363273Y284476D01*
X363836Y283913D01*
X364571Y283609D01*
X365366D01*
X366101Y283913D01*
X366664Y284476D01*
X366968Y285211D01*
Y286007D01*
X366664Y286742D01*
X366101Y287304D01*
X365366Y287609D01*
D02*
G37*
G36*
X435898Y287500D02*
X435102D01*
X434367Y287195D01*
X433805Y286633D01*
X433500Y285898D01*
Y285102D01*
X433805Y284367D01*
X434367Y283804D01*
X435102Y283500D01*
X435898D01*
X436633Y283804D01*
X437195Y284367D01*
X437500Y285102D01*
Y285898D01*
X437195Y286633D01*
X436633Y287195D01*
X435898Y287500D01*
D02*
G37*
G36*
X461363Y286854D02*
X460568D01*
X459833Y286549D01*
X459270Y285986D01*
X458965Y285251D01*
Y284456D01*
X459270Y283721D01*
X459833Y283158D01*
X460568Y282854D01*
X461363D01*
X462099Y283158D01*
X462661Y283721D01*
X462965Y284456D01*
Y285251D01*
X462661Y285986D01*
X462099Y286549D01*
X461363Y286854D01*
D02*
G37*
G36*
X449898Y284890D02*
X449102D01*
X448367Y284585D01*
X447804Y284023D01*
X447500Y283288D01*
Y282492D01*
X447804Y281757D01*
X448367Y281194D01*
X449102Y280890D01*
X449898D01*
X450633Y281194D01*
X451195Y281757D01*
X451500Y282492D01*
Y283288D01*
X451195Y284023D01*
X450633Y284585D01*
X449898Y284890D01*
D02*
G37*
G36*
X304026Y287492D02*
X302974D01*
X301959Y287220D01*
X301049Y286695D01*
X300306Y285951D01*
X299780Y285041D01*
X299508Y284026D01*
Y282974D01*
X299780Y281959D01*
X300306Y281049D01*
X301049Y280306D01*
X301959Y279780D01*
X302974Y279508D01*
X304026D01*
X305041Y279780D01*
X305951Y280306D01*
X306695Y281049D01*
X307220Y281959D01*
X307492Y282974D01*
Y284026D01*
X307220Y285041D01*
X306695Y285951D01*
X305951Y286695D01*
X305041Y287220D01*
X304026Y287492D01*
D02*
G37*
G36*
X549398Y279000D02*
X548602D01*
X547867Y278696D01*
X547577Y278405D01*
X547250Y278172D01*
X546923Y278405D01*
X546633Y278696D01*
X545898Y279000D01*
X545102D01*
X544367Y278696D01*
X544077Y278405D01*
X543750Y278172D01*
X543423Y278405D01*
X543133Y278696D01*
X542398Y279000D01*
X541602D01*
X540867Y278696D01*
X540577Y278405D01*
X540250Y278172D01*
X539923Y278405D01*
X539633Y278696D01*
X538898Y279000D01*
X538102D01*
X537367Y278696D01*
X536804Y278133D01*
X536500Y277398D01*
Y276602D01*
X536804Y275867D01*
X537367Y275305D01*
X538102Y275000D01*
X538898D01*
X539633Y275305D01*
X539923Y275595D01*
X540250Y275828D01*
X540577Y275595D01*
X540867Y275305D01*
X541602Y275000D01*
X542398D01*
X543133Y275305D01*
X543423Y275595D01*
X543750Y275828D01*
X544077Y275595D01*
X544367Y275305D01*
X545102Y275000D01*
X545898D01*
X546633Y275305D01*
X546923Y275595D01*
X547250Y275828D01*
X547577Y275595D01*
X547867Y275305D01*
X548602Y275000D01*
X549398D01*
X550133Y275305D01*
X550696Y275867D01*
X551000Y276602D01*
Y277398D01*
X550696Y278133D01*
X550133Y278696D01*
X549398Y279000D01*
D02*
G37*
G36*
X363398Y282000D02*
X362602D01*
X361867Y281696D01*
X361304Y281133D01*
X361000Y280398D01*
Y279602D01*
X361304Y278867D01*
X361867Y278305D01*
X362602Y278000D01*
X363398D01*
X364133Y278305D01*
X364696Y278867D01*
X365000Y279602D01*
Y280398D01*
X364696Y281133D01*
X364133Y281696D01*
X363398Y282000D01*
D02*
G37*
G36*
X499898Y281500D02*
X499102D01*
X498367Y281195D01*
X497804Y280633D01*
X497500Y279898D01*
Y279102D01*
X497804Y278367D01*
X498367Y277804D01*
X499102Y277500D01*
X499898D01*
X500633Y277804D01*
X501195Y278367D01*
X501500Y279102D01*
Y279898D01*
X501195Y280633D01*
X500633Y281195D01*
X499898Y281500D01*
D02*
G37*
G36*
X485898D02*
X485102D01*
X484367Y281195D01*
X483805Y280633D01*
X483500Y279898D01*
Y279102D01*
X483805Y278367D01*
X484367Y277804D01*
X485102Y277500D01*
X485898D01*
X486633Y277804D01*
X487195Y278367D01*
X487500Y279102D01*
Y279898D01*
X487195Y280633D01*
X486633Y281195D01*
X485898Y281500D01*
D02*
G37*
G36*
X493307Y281410D02*
X492512D01*
X491777Y281105D01*
X491214Y280542D01*
X490910Y279807D01*
Y279012D01*
X491214Y278277D01*
X491777Y277714D01*
X492512Y277410D01*
X493307D01*
X494042Y277714D01*
X494605Y278277D01*
X494910Y279012D01*
Y279807D01*
X494605Y280542D01*
X494042Y281105D01*
X493307Y281410D01*
D02*
G37*
G36*
X463382Y280091D02*
X462587D01*
X461852Y279787D01*
X461289Y279224D01*
X460985Y278489D01*
Y277693D01*
X461289Y276958D01*
X461852Y276396D01*
X462587Y276091D01*
X463382D01*
X464118Y276396D01*
X464680Y276958D01*
X464985Y277693D01*
Y278489D01*
X464680Y279224D01*
X464118Y279787D01*
X463382Y280091D01*
D02*
G37*
G36*
X469898Y279500D02*
X469102D01*
X468367Y279195D01*
X467804Y278633D01*
X467500Y277898D01*
Y277102D01*
X467804Y276367D01*
X468367Y275804D01*
X469102Y275500D01*
X469898D01*
X470633Y275804D01*
X471196Y276367D01*
X471500Y277102D01*
Y277898D01*
X471196Y278633D01*
X470633Y279195D01*
X469898Y279500D01*
D02*
G37*
G36*
X419898Y279000D02*
X419102D01*
X418367Y278696D01*
X417804Y278133D01*
X417500Y277398D01*
Y276602D01*
X417804Y275867D01*
X418367Y275305D01*
X419102Y275000D01*
X419898D01*
X420633Y275305D01*
X421196Y275867D01*
X421500Y276602D01*
Y277398D01*
X421196Y278133D01*
X420633Y278696D01*
X419898Y279000D01*
D02*
G37*
G36*
X477898Y276502D02*
X477102D01*
X476367Y276198D01*
X475805Y275635D01*
X475500Y274900D01*
Y274104D01*
X475805Y273369D01*
X476367Y272807D01*
X477102Y272502D01*
X477898D01*
X478633Y272807D01*
X479195Y273369D01*
X479500Y274104D01*
Y274900D01*
X479195Y275635D01*
X478633Y276198D01*
X477898Y276502D01*
D02*
G37*
G36*
X506398Y276500D02*
X505602D01*
X504867Y276196D01*
X504305Y275633D01*
X504000Y274898D01*
Y274102D01*
X504305Y273367D01*
X504867Y272804D01*
X505602Y272500D01*
X506398D01*
X507133Y272804D01*
X507695Y273367D01*
X508000Y274102D01*
Y274898D01*
X507695Y275633D01*
X507133Y276196D01*
X506398Y276500D01*
D02*
G37*
G36*
X373898Y272480D02*
X373102D01*
X372367Y272175D01*
X371804Y271613D01*
X371500Y270878D01*
Y270082D01*
X371804Y269347D01*
X372367Y268784D01*
X373102Y268480D01*
X373898D01*
X374633Y268784D01*
X375196Y269347D01*
X375500Y270082D01*
Y270878D01*
X375196Y271613D01*
X374633Y272175D01*
X373898Y272480D01*
D02*
G37*
G36*
X381032Y272445D02*
X380236D01*
X379501Y272140D01*
X378939Y271577D01*
X378634Y270842D01*
Y270047D01*
X378939Y269312D01*
X379501Y268749D01*
X380236Y268444D01*
X381032D01*
X381767Y268749D01*
X382330Y269312D01*
X382634Y270047D01*
Y270842D01*
X382330Y271577D01*
X381767Y272140D01*
X381032Y272445D01*
D02*
G37*
G36*
X432039Y268917D02*
X431244D01*
X430508Y268612D01*
X430212Y268316D01*
X430034Y268494D01*
X429299Y268799D01*
X428503D01*
X427768Y268494D01*
X427330Y268056D01*
X426774Y268612D01*
X426039Y268917D01*
X425244D01*
X424508Y268612D01*
X423946Y268050D01*
X423641Y267315D01*
Y266519D01*
X423946Y265784D01*
X424508Y265221D01*
X425244Y264917D01*
X426039D01*
X426774Y265221D01*
X427212Y265659D01*
X427768Y265103D01*
X428503Y264799D01*
X429299D01*
X430034Y265103D01*
X430330Y265399D01*
X430508Y265221D01*
X431244Y264917D01*
X432039D01*
X432774Y265221D01*
X433337Y265784D01*
X433641Y266519D01*
Y267315D01*
X433337Y268050D01*
X432774Y268612D01*
X432039Y268917D01*
D02*
G37*
G36*
X506620Y271774D02*
X505824D01*
X505089Y271469D01*
X504527Y270906D01*
X504222Y270171D01*
Y269376D01*
X504527Y268640D01*
X505089Y268078D01*
X505824Y267774D01*
X506620D01*
X507355Y268078D01*
X507918Y268640D01*
X508222Y269376D01*
Y270171D01*
X507918Y270906D01*
X507355Y271469D01*
X506620Y271774D01*
D02*
G37*
G36*
X400580Y271495D02*
X399784D01*
X399049Y271190D01*
X398486Y270628D01*
X398182Y269893D01*
Y269097D01*
X398486Y268362D01*
X399049Y267799D01*
X399784Y267495D01*
X400580D01*
X401315Y267799D01*
X401877Y268362D01*
X402182Y269097D01*
Y269893D01*
X401877Y270628D01*
X401315Y271190D01*
X400580Y271495D01*
D02*
G37*
G36*
X411523Y272500D02*
X410728D01*
X409993Y272196D01*
X409430Y271633D01*
X409126Y270898D01*
Y270102D01*
X409430Y269367D01*
X409993Y268805D01*
X410728Y268500D01*
X411523D01*
X412258Y268805D01*
X412821Y269367D01*
X412933Y269637D01*
X413433Y269538D01*
Y268846D01*
X413737Y268111D01*
X414300Y267548D01*
X415035Y267244D01*
X415831D01*
X416566Y267548D01*
X417129Y268111D01*
X417433Y268846D01*
Y269641D01*
X417129Y270377D01*
X416566Y270939D01*
X415831Y271244D01*
X415035D01*
X414300Y270939D01*
X413737Y270377D01*
X413626Y270106D01*
X413126Y270206D01*
Y270898D01*
X412821Y271633D01*
X412258Y272196D01*
X411523Y272500D01*
D02*
G37*
G36*
X322398Y271000D02*
X321602D01*
X320867Y270695D01*
X320304Y270133D01*
X320000Y269398D01*
Y268602D01*
X320304Y267867D01*
X320867Y267304D01*
X321602Y267000D01*
X322398D01*
X323133Y267304D01*
X323695Y267867D01*
X324000Y268602D01*
Y269398D01*
X323695Y270133D01*
X323133Y270695D01*
X322398Y271000D01*
D02*
G37*
G36*
X385580Y270995D02*
X384784D01*
X384049Y270690D01*
X383486Y270128D01*
X383182Y269393D01*
Y268597D01*
X383486Y267862D01*
X384049Y267299D01*
X384784Y266995D01*
X385580D01*
X386315Y267299D01*
X386877Y267862D01*
X387182Y268597D01*
Y269393D01*
X386877Y270128D01*
X386315Y270690D01*
X385580Y270995D01*
D02*
G37*
G36*
X470898Y265000D02*
X470102D01*
X469367Y264696D01*
X468805Y264133D01*
X468500Y263398D01*
Y262602D01*
X468805Y261867D01*
X469367Y261304D01*
X470102Y261000D01*
X470898D01*
X471633Y261304D01*
X472195Y261867D01*
X472500Y262602D01*
Y263398D01*
X472195Y264133D01*
X471633Y264696D01*
X470898Y265000D01*
D02*
G37*
G36*
X462898Y264000D02*
X462102D01*
X461367Y263696D01*
X460805Y263133D01*
X460500Y262398D01*
Y261602D01*
X460805Y260867D01*
X461367Y260304D01*
X462102Y260000D01*
X462898D01*
X463633Y260304D01*
X464195Y260867D01*
X464500Y261602D01*
Y262398D01*
X464195Y263133D01*
X463633Y263696D01*
X462898Y264000D01*
D02*
G37*
G36*
X304026Y267492D02*
X302974D01*
X301959Y267220D01*
X301049Y266694D01*
X300306Y265951D01*
X299780Y265041D01*
X299508Y264026D01*
Y262974D01*
X299780Y261959D01*
X300306Y261049D01*
X301049Y260306D01*
X301959Y259780D01*
X302974Y259508D01*
X304026D01*
X305041Y259780D01*
X305951Y260306D01*
X306695Y261049D01*
X307220Y261959D01*
X307492Y262974D01*
Y264026D01*
X307220Y265041D01*
X306695Y265951D01*
X305951Y266694D01*
X305041Y267220D01*
X304026Y267492D01*
D02*
G37*
G36*
X448398Y262500D02*
X447602D01*
X446867Y262195D01*
X446305Y261633D01*
X446000Y260898D01*
Y260102D01*
X446305Y259367D01*
X446867Y258804D01*
X447602Y258500D01*
X448398D01*
X449133Y258804D01*
X449695Y259367D01*
X450000Y260102D01*
Y260898D01*
X449695Y261633D01*
X449133Y262195D01*
X448398Y262500D01*
D02*
G37*
G36*
X549398Y256500D02*
X548602D01*
X547867Y256195D01*
X547577Y255905D01*
X547250Y255672D01*
X546923Y255905D01*
X546633Y256195D01*
X545898Y256500D01*
X545102D01*
X544367Y256195D01*
X544077Y255905D01*
X543750Y255672D01*
X543423Y255905D01*
X543133Y256195D01*
X542398Y256500D01*
X541602D01*
X540867Y256195D01*
X540577Y255905D01*
X540250Y255672D01*
X539923Y255905D01*
X539633Y256195D01*
X538898Y256500D01*
X538102D01*
X537367Y256195D01*
X536804Y255633D01*
X536500Y254898D01*
Y254102D01*
X536804Y253367D01*
X537367Y252804D01*
X538102Y252500D01*
X538898D01*
X539633Y252804D01*
X539923Y253095D01*
X540250Y253328D01*
X540577Y253095D01*
X540867Y252804D01*
X541602Y252500D01*
X542398D01*
X543133Y252804D01*
X543423Y253095D01*
X543750Y253328D01*
X544077Y253095D01*
X544367Y252804D01*
X545102Y252500D01*
X545898D01*
X546633Y252804D01*
X546923Y253095D01*
X547250Y253328D01*
X547577Y253095D01*
X547867Y252804D01*
X548602Y252500D01*
X549398D01*
X550133Y252804D01*
X550696Y253367D01*
X551000Y254102D01*
Y254898D01*
X550696Y255633D01*
X550133Y256195D01*
X549398Y256500D01*
D02*
G37*
G36*
X410398Y259500D02*
X409602D01*
X408867Y259195D01*
X408305Y258633D01*
X408000Y257898D01*
Y257102D01*
X408305Y256367D01*
X408867Y255804D01*
X409602Y255500D01*
X410398D01*
X411133Y255804D01*
X411695Y256367D01*
X412000Y257102D01*
Y257898D01*
X411695Y258633D01*
X411133Y259195D01*
X410398Y259500D01*
D02*
G37*
G36*
X375398D02*
X374602D01*
X373867Y259195D01*
X373305Y258633D01*
X373000Y257898D01*
Y257102D01*
X373305Y256367D01*
X373867Y255804D01*
X374602Y255500D01*
X375398D01*
X376133Y255804D01*
X376695Y256367D01*
X377000Y257102D01*
Y257898D01*
X376695Y258633D01*
X376133Y259195D01*
X375398Y259500D01*
D02*
G37*
G36*
X354380Y259482D02*
X353584D01*
X352849Y259178D01*
X352287Y258615D01*
X351982Y257880D01*
Y257084D01*
X352287Y256349D01*
X352849Y255787D01*
X353584Y255482D01*
X354380D01*
X355115Y255787D01*
X355678Y256349D01*
X355982Y257084D01*
Y257880D01*
X355678Y258615D01*
X355115Y259178D01*
X354380Y259482D01*
D02*
G37*
G36*
X462898Y259000D02*
X462102D01*
X461367Y258696D01*
X460805Y258133D01*
X460500Y257398D01*
Y256602D01*
X460805Y255867D01*
X461367Y255305D01*
X462102Y255000D01*
X462898D01*
X463633Y255305D01*
X464195Y255867D01*
X464500Y256602D01*
Y257398D01*
X464195Y258133D01*
X463633Y258696D01*
X462898Y259000D01*
D02*
G37*
G36*
X344898D02*
X344102D01*
X343367Y258696D01*
X342805Y258133D01*
X342500Y257398D01*
Y256602D01*
X342805Y255867D01*
X343367Y255305D01*
X344102Y255000D01*
X344898D01*
X345633Y255305D01*
X346196Y255867D01*
X346500Y256602D01*
Y257398D01*
X346196Y258133D01*
X345633Y258696D01*
X344898Y259000D01*
D02*
G37*
G36*
X464898Y254000D02*
X464102D01*
X463367Y253696D01*
X462805Y253133D01*
X462500Y252398D01*
Y251602D01*
X462805Y250867D01*
X463367Y250305D01*
X464102Y250000D01*
X464898D01*
X465633Y250305D01*
X466195Y250867D01*
X466500Y251602D01*
Y252398D01*
X466195Y253133D01*
X465633Y253696D01*
X464898Y254000D01*
D02*
G37*
G36*
X341398D02*
X340602D01*
X339867Y253696D01*
X339304Y253133D01*
X339000Y252398D01*
Y251602D01*
X339304Y250867D01*
X339867Y250305D01*
X340602Y250000D01*
X341398D01*
X342133Y250305D01*
X342695Y250867D01*
X343000Y251602D01*
Y252398D01*
X342695Y253133D01*
X342133Y253696D01*
X341398Y254000D01*
D02*
G37*
G36*
X473666Y253268D02*
X472870D01*
X472135Y252963D01*
X471572Y252401D01*
X471268Y251666D01*
Y250870D01*
X471572Y250135D01*
X472135Y249572D01*
X472870Y249268D01*
X473666D01*
X474401Y249572D01*
X474963Y250135D01*
X475268Y250870D01*
Y251666D01*
X474963Y252401D01*
X474401Y252963D01*
X473666Y253268D01*
D02*
G37*
G36*
X483898Y253000D02*
X483102D01*
X482367Y252695D01*
X481805Y252133D01*
X481500Y251398D01*
Y250602D01*
X481805Y249867D01*
X482367Y249305D01*
X483102Y249000D01*
X483898D01*
X484633Y249305D01*
X485195Y249867D01*
X485500Y250602D01*
Y251398D01*
X485195Y252133D01*
X484633Y252695D01*
X483898Y253000D01*
D02*
G37*
G36*
X439398Y249500D02*
X438602D01*
X437867Y249196D01*
X437304Y248633D01*
X437000Y247898D01*
Y247102D01*
X437304Y246367D01*
X437867Y245805D01*
X438602Y245500D01*
X439398D01*
X440133Y245805D01*
X440695Y246367D01*
X441000Y247102D01*
Y247898D01*
X440695Y248633D01*
X440133Y249196D01*
X439398Y249500D01*
D02*
G37*
G36*
X453398Y249465D02*
X452602D01*
X451867Y249160D01*
X451304Y248597D01*
X451000Y247862D01*
Y247067D01*
X451304Y246332D01*
X451867Y245769D01*
X452602Y245464D01*
X453398D01*
X454133Y245769D01*
X454696Y246332D01*
X455000Y247067D01*
Y247862D01*
X454696Y248597D01*
X454133Y249160D01*
X453398Y249465D01*
D02*
G37*
G36*
X322949Y248949D02*
X322153D01*
X321418Y248644D01*
X320856Y248082D01*
X320551Y247347D01*
Y246551D01*
X320856Y245816D01*
X321418Y245253D01*
X322153Y244949D01*
X322949D01*
X323684Y245253D01*
X324247Y245816D01*
X324551Y246551D01*
Y247347D01*
X324247Y248082D01*
X323684Y248644D01*
X322949Y248949D01*
D02*
G37*
G36*
X477398Y248500D02*
X476602D01*
X475867Y248196D01*
X475305Y247633D01*
X475000Y246898D01*
Y246102D01*
X475305Y245367D01*
X475867Y244805D01*
X476602Y244500D01*
X477398D01*
X478133Y244805D01*
X478695Y245367D01*
X479000Y246102D01*
Y246898D01*
X478695Y247633D01*
X478133Y248196D01*
X477398Y248500D01*
D02*
G37*
G36*
X382898Y246500D02*
X382102D01*
X381367Y246196D01*
X380804Y245633D01*
X380500Y244898D01*
Y244102D01*
X380804Y243367D01*
X381367Y242805D01*
X382102Y242500D01*
X382898D01*
X383633Y242805D01*
X384195Y243367D01*
X384500Y244102D01*
Y244898D01*
X384195Y245633D01*
X383633Y246196D01*
X382898Y246500D01*
D02*
G37*
G36*
X366398D02*
X365602D01*
X364867Y246196D01*
X364304Y245633D01*
X364000Y244898D01*
Y244102D01*
X364304Y243367D01*
X364867Y242805D01*
X365602Y242500D01*
X366398D01*
X367133Y242805D01*
X367695Y243367D01*
X368000Y244102D01*
Y244898D01*
X367695Y245633D01*
X367133Y246196D01*
X366398Y246500D01*
D02*
G37*
G36*
X346898Y246000D02*
X346102D01*
X345367Y245695D01*
X344805Y245133D01*
X344500Y244398D01*
Y243602D01*
X344805Y242867D01*
X345367Y242304D01*
X346102Y242000D01*
X346898D01*
X347633Y242304D01*
X348196Y242867D01*
X348500Y243602D01*
Y244398D01*
X348196Y245133D01*
X347633Y245695D01*
X346898Y246000D01*
D02*
G37*
G36*
X414398Y245000D02*
X413602D01*
X412867Y244695D01*
X412304Y244133D01*
X412000Y243398D01*
Y242602D01*
X412304Y241867D01*
X412867Y241304D01*
X413602Y241000D01*
X414398D01*
X415133Y241304D01*
X415695Y241867D01*
X416000Y242602D01*
Y243398D01*
X415695Y244133D01*
X415133Y244695D01*
X414398Y245000D01*
D02*
G37*
G36*
X439898Y244000D02*
X439102D01*
X438367Y243695D01*
X437805Y243133D01*
X437500Y242398D01*
Y241602D01*
X437805Y240867D01*
X438367Y240304D01*
X439102Y240000D01*
X439898D01*
X440633Y240304D01*
X441195Y240867D01*
X441500Y241602D01*
Y242398D01*
X441195Y243133D01*
X440633Y243695D01*
X439898Y244000D01*
D02*
G37*
G36*
X315898Y243500D02*
X315102D01*
X314367Y243196D01*
X313805Y242633D01*
X313500Y241898D01*
Y241102D01*
X313805Y240367D01*
X314367Y239805D01*
X315102Y239500D01*
X315898D01*
X316633Y239805D01*
X317196Y240367D01*
X317500Y241102D01*
Y241898D01*
X317196Y242633D01*
X316633Y243196D01*
X315898Y243500D01*
D02*
G37*
G36*
X430898Y241500D02*
X430102D01*
X429367Y241196D01*
X428804Y240633D01*
X428500Y239898D01*
Y239102D01*
X428804Y238367D01*
X429367Y237805D01*
X430102Y237500D01*
X430898D01*
X431633Y237805D01*
X432196Y238367D01*
X432500Y239102D01*
Y239898D01*
X432196Y240633D01*
X431633Y241196D01*
X430898Y241500D01*
D02*
G37*
G36*
X551551Y245551D02*
X543449D01*
Y237449D01*
X551551D01*
Y245551D01*
D02*
G37*
G36*
X346910Y236110D02*
X346121D01*
X345392Y235808D01*
X344834Y235250D01*
X344797Y235162D01*
X344297D01*
X344261Y235250D01*
X343703Y235808D01*
X342973Y236110D01*
X342184D01*
X341455Y235808D01*
X340897Y235250D01*
X340860Y235162D01*
X340360D01*
X340324Y235250D01*
X339766Y235808D01*
X339036Y236110D01*
X338247D01*
X337518Y235808D01*
X336960Y235250D01*
X336658Y234521D01*
Y233731D01*
X336960Y233002D01*
X337518Y232444D01*
X337606Y232407D01*
Y231908D01*
X337518Y231871D01*
X336960Y231313D01*
X336658Y230584D01*
Y229794D01*
X336960Y229065D01*
X337518Y228507D01*
X338247Y228205D01*
X339036D01*
X339766Y228507D01*
X340324Y229065D01*
X340360Y229153D01*
X340860D01*
X340897Y229065D01*
X341455Y228507D01*
X342184Y228205D01*
X342973D01*
X343703Y228507D01*
X344261Y229065D01*
X344297Y229153D01*
X344797D01*
X344834Y229065D01*
X345392Y228507D01*
X346121Y228205D01*
X346910D01*
X347640Y228507D01*
X348198Y229065D01*
X348500Y229794D01*
Y230584D01*
X348198Y231313D01*
X347640Y231871D01*
X347552Y231908D01*
Y232407D01*
X347640Y232444D01*
X348198Y233002D01*
X348500Y233731D01*
Y234521D01*
X348198Y235250D01*
X347640Y235808D01*
X346910Y236110D01*
D02*
G37*
G36*
X484398Y238500D02*
X483602D01*
X482867Y238195D01*
X482304Y237633D01*
X482000Y236898D01*
Y236102D01*
X482304Y235367D01*
X482867Y234805D01*
X483602Y234500D01*
X484398D01*
X485133Y234805D01*
X485696Y235367D01*
X486000Y236102D01*
Y236898D01*
X485696Y237633D01*
X485133Y238195D01*
X484398Y238500D01*
D02*
G37*
G36*
X439898D02*
X439102D01*
X438367Y238195D01*
X437805Y237633D01*
X437500Y236898D01*
Y236102D01*
X437805Y235367D01*
X438367Y234805D01*
X439102Y234500D01*
X439898D01*
X440633Y234805D01*
X441195Y235367D01*
X441500Y236102D01*
Y236898D01*
X441195Y237633D01*
X440633Y238195D01*
X439898Y238500D01*
D02*
G37*
G36*
X469398Y238000D02*
X468602D01*
X467867Y237696D01*
X467305Y237133D01*
X467000Y236398D01*
Y235602D01*
X467305Y234867D01*
X467867Y234304D01*
X468602Y234000D01*
X469398D01*
X470133Y234304D01*
X470695Y234867D01*
X471000Y235602D01*
Y236398D01*
X470695Y237133D01*
X470133Y237696D01*
X469398Y238000D01*
D02*
G37*
G36*
X411371Y233929D02*
X410582D01*
X409852Y233627D01*
X409294Y233069D01*
X409258Y232981D01*
X408758D01*
X408721Y233069D01*
X408163Y233627D01*
X407434Y233929D01*
X406645D01*
X405915Y233627D01*
X405357Y233069D01*
X405055Y232340D01*
Y231550D01*
X405357Y230821D01*
X405915Y230263D01*
X406003Y230226D01*
Y229726D01*
X405915Y229690D01*
X405357Y229132D01*
X405055Y228403D01*
Y227613D01*
X405357Y226884D01*
X405915Y226326D01*
X406003Y226289D01*
Y225789D01*
X405915Y225753D01*
X405357Y225195D01*
X405055Y224466D01*
Y223676D01*
X405357Y222947D01*
X405915Y222389D01*
X406645Y222087D01*
X407434D01*
X408163Y222389D01*
X408721Y222947D01*
X408758Y223035D01*
X409258D01*
X409294Y222947D01*
X409852Y222389D01*
X410582Y222087D01*
X411371D01*
X412100Y222389D01*
X412659Y222947D01*
X412961Y223676D01*
Y224466D01*
X412659Y225195D01*
X412100Y225753D01*
X412013Y225789D01*
Y226289D01*
X412100Y226326D01*
X412659Y226884D01*
X412961Y227613D01*
Y228403D01*
X412659Y229132D01*
X412100Y229690D01*
X412013Y229726D01*
Y230226D01*
X412100Y230263D01*
X412659Y230821D01*
X412961Y231550D01*
Y232340D01*
X412659Y233069D01*
X412100Y233627D01*
X411371Y233929D01*
D02*
G37*
G36*
X425512Y236587D02*
X424716D01*
X423981Y236282D01*
X423419Y235719D01*
X423114Y234984D01*
Y234189D01*
X423419Y233454D01*
X423981Y232891D01*
X424716Y232587D01*
X425512D01*
X426247Y232891D01*
X426810Y233454D01*
X427114Y234189D01*
Y234984D01*
X426810Y235719D01*
X426247Y236282D01*
X425512Y236587D01*
D02*
G37*
G36*
X475398Y238500D02*
X474602D01*
X473867Y238195D01*
X473305Y237633D01*
X473000Y236898D01*
Y236102D01*
X473305Y235367D01*
X473151Y234813D01*
X472867Y234696D01*
X472304Y234133D01*
X472000Y233398D01*
Y232602D01*
X471608Y232241D01*
X471277Y232379D01*
X470481D01*
X469746Y232074D01*
X469183Y231512D01*
X468879Y230777D01*
Y229981D01*
X469183Y229246D01*
X469746Y228683D01*
X470481Y228379D01*
X471277D01*
X472012Y228683D01*
X472574Y229246D01*
X472879Y229981D01*
Y230777D01*
X473270Y231137D01*
X473602Y231000D01*
X474398D01*
X475133Y231305D01*
X475696Y231867D01*
X476000Y232602D01*
Y233398D01*
X475696Y234133D01*
X475849Y234687D01*
X476133Y234805D01*
X476695Y235367D01*
X477000Y236102D01*
Y236898D01*
X476695Y237633D01*
X476133Y238195D01*
X475398Y238500D01*
D02*
G37*
G36*
X448898Y236000D02*
X448102D01*
X447367Y235696D01*
X446805Y235133D01*
X446500Y234398D01*
Y233602D01*
X446805Y232867D01*
X447367Y232305D01*
X448102Y232000D01*
X448898D01*
X449633Y232305D01*
X450196Y232867D01*
X450500Y233602D01*
Y234398D01*
X450196Y235133D01*
X449633Y235696D01*
X448898Y236000D01*
D02*
G37*
G36*
X439398Y232500D02*
X438602D01*
X437867Y232195D01*
X437304Y231633D01*
X437000Y230898D01*
Y230102D01*
X437304Y229367D01*
X437867Y228804D01*
X438602Y228500D01*
X439398D01*
X440133Y228804D01*
X440695Y229367D01*
X441000Y230102D01*
Y230898D01*
X440695Y231633D01*
X440133Y232195D01*
X439398Y232500D01*
D02*
G37*
G36*
X548033Y235551D02*
X546967D01*
X545936Y235275D01*
X545013Y234742D01*
X544258Y233987D01*
X543725Y233064D01*
X543449Y232033D01*
Y230967D01*
X543725Y229936D01*
X544258Y229012D01*
X545013Y228258D01*
X545936Y227725D01*
X546967Y227449D01*
X548033D01*
X549064Y227725D01*
X549988Y228258D01*
X550742Y229012D01*
X551275Y229936D01*
X551551Y230967D01*
Y232033D01*
X551275Y233064D01*
X550742Y233987D01*
X549988Y234742D01*
X549064Y235275D01*
X548033Y235551D01*
D02*
G37*
G36*
X522943Y230937D02*
X522147D01*
X521412Y230632D01*
X520849Y230069D01*
X520545Y229334D01*
Y228539D01*
X520849Y227804D01*
X521412Y227241D01*
X522147Y226937D01*
X522943D01*
X523678Y227241D01*
X524240Y227804D01*
X524545Y228539D01*
Y229334D01*
X524240Y230069D01*
X523678Y230632D01*
X522943Y230937D01*
D02*
G37*
G36*
X323398Y230000D02*
X322602D01*
X321867Y229696D01*
X321304Y229133D01*
X321000Y228398D01*
Y227602D01*
X321304Y226867D01*
X321867Y226305D01*
X322602Y226000D01*
X323398D01*
X324133Y226305D01*
X324695Y226867D01*
X325000Y227602D01*
Y228398D01*
X324695Y229133D01*
X324133Y229696D01*
X323398Y230000D01*
D02*
G37*
G36*
X496398Y227000D02*
X495602D01*
X494867Y226695D01*
X494305Y226133D01*
X494000Y225398D01*
Y224602D01*
X494305Y223867D01*
X494867Y223305D01*
X495602Y223000D01*
X496398D01*
X497133Y223305D01*
X497695Y223867D01*
X498000Y224602D01*
Y225398D01*
X497695Y226133D01*
X497133Y226695D01*
X496398Y227000D01*
D02*
G37*
G36*
X430398Y224000D02*
X429602D01*
X428867Y223695D01*
X428304Y223133D01*
X428000Y222398D01*
Y221602D01*
X428304Y220867D01*
X428867Y220304D01*
X429602Y220000D01*
X430398D01*
X431133Y220304D01*
X431696Y220867D01*
X432000Y221602D01*
Y222398D01*
X431696Y223133D01*
X431133Y223695D01*
X430398Y224000D01*
D02*
G37*
G36*
X512807Y222539D02*
X512012D01*
X511277Y222235D01*
X510714Y221672D01*
X510410Y220937D01*
Y220141D01*
X510714Y219406D01*
X511277Y218844D01*
X512012Y218539D01*
X512807D01*
X513543Y218844D01*
X514105Y219406D01*
X514410Y220141D01*
Y220937D01*
X514105Y221672D01*
X513543Y222235D01*
X512807Y222539D01*
D02*
G37*
G36*
X352898Y222500D02*
X352102D01*
X351367Y222196D01*
X350804Y221633D01*
X350500Y220898D01*
Y220102D01*
X350804Y219367D01*
X351367Y218805D01*
X352102Y218500D01*
X352898D01*
X353633Y218805D01*
X354195Y219367D01*
X354500Y220102D01*
Y220898D01*
X354195Y221633D01*
X353633Y222196D01*
X352898Y222500D01*
D02*
G37*
G36*
X444898Y222000D02*
X444102D01*
X443367Y221695D01*
X442804Y221133D01*
X442500Y220398D01*
Y219602D01*
X442804Y218867D01*
X443367Y218304D01*
X444102Y218000D01*
X444898D01*
X445633Y218304D01*
X446196Y218867D01*
X446500Y219602D01*
Y220398D01*
X446196Y221133D01*
X445633Y221695D01*
X444898Y222000D01*
D02*
G37*
G36*
X481898Y221000D02*
X481102D01*
X480367Y220695D01*
X479805Y220133D01*
X479500Y219398D01*
Y218602D01*
X479805Y217867D01*
X480367Y217304D01*
X481102Y217000D01*
X481898D01*
X482633Y217304D01*
X483195Y217867D01*
X483500Y218602D01*
Y219398D01*
X483195Y220133D01*
X482633Y220695D01*
X481898Y221000D01*
D02*
G37*
G36*
X493398Y219500D02*
X492602D01*
X491867Y219196D01*
X491304Y218633D01*
X491000Y217898D01*
Y217102D01*
X491304Y216367D01*
X491867Y215805D01*
X492602Y215500D01*
X493398D01*
X494133Y215805D01*
X494696Y216367D01*
X495000Y217102D01*
Y217898D01*
X494696Y218633D01*
X494133Y219196D01*
X493398Y219500D01*
D02*
G37*
G36*
X471898Y221500D02*
X471102D01*
X470367Y221196D01*
X469804Y220633D01*
X469500Y219898D01*
Y219102D01*
X469804Y218367D01*
X470367Y217805D01*
X471102Y217500D01*
X471133D01*
X471500Y217398D01*
Y216602D01*
X471805Y215867D01*
X472367Y215304D01*
X473102Y215000D01*
X473898D01*
X474633Y215304D01*
X475196Y215867D01*
X475500Y216602D01*
Y217398D01*
X475196Y218133D01*
X474633Y218695D01*
X473898Y219000D01*
X473867D01*
X473500Y219102D01*
Y219898D01*
X473196Y220633D01*
X472633Y221196D01*
X471898Y221500D01*
D02*
G37*
G36*
X437898Y218000D02*
X437102D01*
X436367Y217695D01*
X435805Y217133D01*
X435500Y216398D01*
Y215602D01*
X435805Y214867D01*
X436367Y214304D01*
X437102Y214000D01*
X437898D01*
X438633Y214304D01*
X439195Y214867D01*
X439500Y215602D01*
Y216398D01*
X439195Y217133D01*
X438633Y217695D01*
X437898Y218000D01*
D02*
G37*
G36*
X368398D02*
X367602D01*
X366867Y217695D01*
X366304Y217133D01*
X366000Y216398D01*
Y215602D01*
X366304Y214867D01*
X366867Y214304D01*
X367602Y214000D01*
X368398D01*
X369133Y214304D01*
X369695Y214867D01*
X370000Y215602D01*
Y216398D01*
X369695Y217133D01*
X369133Y217695D01*
X368398Y218000D01*
D02*
G37*
G36*
X551551Y220051D02*
X543449D01*
Y211949D01*
X551551D01*
Y220051D01*
D02*
G37*
G36*
X392197Y214587D02*
X391401D01*
X390666Y214282D01*
X390104Y213720D01*
X389799Y212984D01*
Y212189D01*
X390104Y211454D01*
X390666Y210891D01*
X391401Y210587D01*
X392197D01*
X392932Y210891D01*
X393495Y211454D01*
X393799Y212189D01*
Y212984D01*
X393495Y213720D01*
X392932Y214282D01*
X392197Y214587D01*
D02*
G37*
G36*
X431398Y214500D02*
X430602D01*
X429867Y214195D01*
X429305Y213633D01*
X429000Y212898D01*
Y212102D01*
X429305Y211367D01*
X429867Y210805D01*
X430602Y210500D01*
X431398D01*
X432133Y210805D01*
X432695Y211367D01*
X433000Y212102D01*
Y212898D01*
X432695Y213633D01*
X432133Y214195D01*
X431398Y214500D01*
D02*
G37*
G36*
X320398Y214255D02*
X319602D01*
X318867Y213950D01*
X318304Y213388D01*
X318000Y212653D01*
Y211857D01*
X318304Y211122D01*
X318867Y210559D01*
X319602Y210255D01*
X320398D01*
X321133Y210559D01*
X321695Y211122D01*
X322000Y211857D01*
Y212653D01*
X321695Y213388D01*
X321133Y213950D01*
X320398Y214255D01*
D02*
G37*
G36*
X337992Y214094D02*
X337196D01*
X336461Y213790D01*
X335899Y213227D01*
X335594Y212492D01*
Y211697D01*
X335899Y210961D01*
X336461Y210399D01*
X337196Y210094D01*
X337992D01*
X338727Y210399D01*
X339290Y210961D01*
X339594Y211697D01*
Y212492D01*
X339290Y213227D01*
X338727Y213790D01*
X337992Y214094D01*
D02*
G37*
G36*
X353898Y214000D02*
X353102D01*
X352367Y213696D01*
X351804Y213133D01*
X351500Y212398D01*
Y211602D01*
X351804Y210867D01*
X352367Y210304D01*
X353102Y210000D01*
X353898D01*
X354633Y210304D01*
X355195Y210867D01*
X355500Y211602D01*
Y212398D01*
X355195Y213133D01*
X354633Y213696D01*
X353898Y214000D01*
D02*
G37*
G36*
X467898Y213000D02*
X467102D01*
X466367Y212696D01*
X465804Y212133D01*
X465500Y211398D01*
Y210602D01*
X465804Y209867D01*
X466367Y209304D01*
X467102Y209000D01*
X467898D01*
X468633Y209304D01*
X469196Y209867D01*
X469500Y210602D01*
Y211398D01*
X469196Y212133D01*
X468633Y212696D01*
X467898Y213000D01*
D02*
G37*
G36*
X330398D02*
X329602D01*
X328867Y212696D01*
X328305Y212133D01*
X328000Y211398D01*
Y210602D01*
X328305Y209867D01*
X328867Y209304D01*
X329602Y209000D01*
X330398D01*
X331133Y209304D01*
X331696Y209867D01*
X332000Y210602D01*
Y211398D01*
X331696Y212133D01*
X331133Y212696D01*
X330398Y213000D01*
D02*
G37*
G36*
X540398Y211740D02*
X539602D01*
X538867Y211435D01*
X538305Y210873D01*
X538000Y210138D01*
Y209342D01*
X538305Y208607D01*
X538867Y208044D01*
X539602Y207740D01*
X540398D01*
X541133Y208044D01*
X541695Y208607D01*
X542000Y209342D01*
Y210138D01*
X541695Y210873D01*
X541133Y211435D01*
X540398Y211740D01*
D02*
G37*
G36*
X464855Y209300D02*
X464059D01*
X463324Y208996D01*
X462762Y208433D01*
X462457Y207698D01*
Y206902D01*
X462762Y206167D01*
X463324Y205605D01*
X464059Y205300D01*
X464855D01*
X465590Y205605D01*
X466153Y206167D01*
X466457Y206902D01*
Y207698D01*
X466153Y208433D01*
X465590Y208996D01*
X464855Y209300D01*
D02*
G37*
G36*
X407898Y208500D02*
X407102D01*
X406367Y208195D01*
X405804Y207633D01*
X405500Y206898D01*
Y206102D01*
X405804Y205367D01*
X406367Y204804D01*
X407102Y204500D01*
X407898D01*
X408633Y204804D01*
X409196Y205367D01*
X409500Y206102D01*
Y206898D01*
X409196Y207633D01*
X408633Y208195D01*
X407898Y208500D01*
D02*
G37*
G36*
X431398Y208000D02*
X430602D01*
X429867Y207696D01*
X429305Y207133D01*
X429000Y206398D01*
Y205602D01*
X429305Y204867D01*
X429867Y204305D01*
X430602Y204000D01*
X431398D01*
X432133Y204305D01*
X432695Y204867D01*
X433000Y205602D01*
Y206398D01*
X432695Y207133D01*
X432133Y207696D01*
X431398Y208000D01*
D02*
G37*
G36*
X437898Y207500D02*
X437102D01*
X436367Y207195D01*
X435805Y206633D01*
X435500Y205898D01*
Y205102D01*
X435805Y204367D01*
X436367Y203804D01*
X437102Y203500D01*
X437898D01*
X438633Y203804D01*
X439195Y204367D01*
X439500Y205102D01*
Y205898D01*
X439195Y206633D01*
X438633Y207195D01*
X437898Y207500D01*
D02*
G37*
G36*
X387898D02*
X387102D01*
X386367Y207195D01*
X385805Y206633D01*
X385500Y205898D01*
Y205102D01*
X385805Y204367D01*
X386367Y203804D01*
X387102Y203500D01*
X387898D01*
X388633Y203804D01*
X389195Y204367D01*
X389500Y205102D01*
Y205898D01*
X389195Y206633D01*
X388633Y207195D01*
X387898Y207500D01*
D02*
G37*
G36*
X397398Y207000D02*
X396602D01*
X395867Y206696D01*
X395304Y206133D01*
X395000Y205398D01*
Y204602D01*
X395304Y203867D01*
X395867Y203305D01*
X396602Y203000D01*
X397398D01*
X398133Y203305D01*
X398695Y203867D01*
X399000Y204602D01*
Y205398D01*
X398695Y206133D01*
X398133Y206696D01*
X397398Y207000D01*
D02*
G37*
G36*
X548033Y210051D02*
X546967D01*
X545936Y209775D01*
X545013Y209242D01*
X544258Y208488D01*
X543725Y207564D01*
X543449Y206533D01*
Y205467D01*
X543725Y204436D01*
X544258Y203513D01*
X545013Y202758D01*
X545936Y202225D01*
X546967Y201949D01*
X548033D01*
X549064Y202225D01*
X549988Y202758D01*
X550742Y203513D01*
X551275Y204436D01*
X551551Y205467D01*
Y206533D01*
X551275Y207564D01*
X550742Y208488D01*
X549988Y209242D01*
X549064Y209775D01*
X548033Y210051D01*
D02*
G37*
G36*
X423898Y205500D02*
X423102D01*
X422367Y205195D01*
X421805Y204633D01*
X421500Y203898D01*
Y203102D01*
X421805Y202367D01*
X422367Y201804D01*
X423102Y201500D01*
X423898D01*
X424633Y201804D01*
X425196Y202367D01*
X425500Y203102D01*
Y203898D01*
X425196Y204633D01*
X424633Y205195D01*
X423898Y205500D01*
D02*
G37*
G36*
X364398D02*
X363602D01*
X362867Y205195D01*
X362304Y204633D01*
X362000Y203898D01*
Y203102D01*
X362304Y202367D01*
X362867Y201804D01*
X363602Y201500D01*
X364398D01*
X365133Y201804D01*
X365696Y202367D01*
X366000Y203102D01*
Y203898D01*
X365696Y204633D01*
X365133Y205195D01*
X364398Y205500D01*
D02*
G37*
G36*
X449398Y205000D02*
X448602D01*
X447867Y204696D01*
X447304Y204133D01*
X447000Y203398D01*
Y202602D01*
X447304Y201867D01*
X447867Y201305D01*
X448602Y201000D01*
X449398D01*
X450133Y201305D01*
X450696Y201867D01*
X451000Y202602D01*
Y203398D01*
X450696Y204133D01*
X450133Y204696D01*
X449398Y205000D01*
D02*
G37*
G36*
X520109Y203845D02*
X519313D01*
X518578Y203541D01*
X518015Y202978D01*
X517711Y202243D01*
Y201447D01*
X518015Y200712D01*
X518578Y200150D01*
X519313Y199845D01*
X520109D01*
X520844Y200150D01*
X521407Y200712D01*
X521711Y201447D01*
Y202243D01*
X521407Y202978D01*
X520844Y203541D01*
X520109Y203845D01*
D02*
G37*
G36*
X466398Y198000D02*
X465602D01*
X464867Y197696D01*
X464304Y197133D01*
X464000Y196398D01*
Y195602D01*
X464304Y194867D01*
X464867Y194305D01*
X465602Y194000D01*
X466398D01*
X467133Y194305D01*
X467696Y194867D01*
X468000Y195602D01*
Y196398D01*
X467696Y197133D01*
X467133Y197696D01*
X466398Y198000D01*
D02*
G37*
G36*
X415398D02*
X414602D01*
X413867Y197696D01*
X413305Y197133D01*
X413000Y196398D01*
Y195602D01*
X413305Y194867D01*
X413867Y194305D01*
X414602Y194000D01*
X415398D01*
X416133Y194305D01*
X416695Y194867D01*
X417000Y195602D01*
Y196398D01*
X416695Y197133D01*
X416133Y197696D01*
X415398Y198000D01*
D02*
G37*
G36*
X481398Y197843D02*
X480602D01*
X479867Y197538D01*
X479305Y196975D01*
X479000Y196240D01*
Y195445D01*
X479305Y194710D01*
X479867Y194147D01*
X480602Y193842D01*
X481398D01*
X482133Y194147D01*
X482695Y194710D01*
X483000Y195445D01*
Y196240D01*
X482695Y196975D01*
X482133Y197538D01*
X481398Y197843D01*
D02*
G37*
G36*
X401526Y197343D02*
X400474D01*
X399459Y197071D01*
X398549Y196545D01*
X397806Y195802D01*
X397280Y194891D01*
X397008Y193876D01*
Y192825D01*
X397280Y191810D01*
X397806Y190899D01*
X398549Y190156D01*
X399459Y189630D01*
X400474Y189358D01*
X401526D01*
X402541Y189630D01*
X403451Y190156D01*
X404194Y190899D01*
X404720Y191810D01*
X404992Y192825D01*
Y193876D01*
X404720Y194891D01*
X404194Y195802D01*
X403451Y196545D01*
X402541Y197071D01*
X401526Y197343D01*
D02*
G37*
G36*
X391526D02*
X390474D01*
X389459Y197071D01*
X388549Y196545D01*
X387806Y195802D01*
X387280Y194891D01*
X387008Y193876D01*
Y192825D01*
X387280Y191810D01*
X387806Y190899D01*
X388549Y190156D01*
X389459Y189630D01*
X390474Y189358D01*
X391526D01*
X392541Y189630D01*
X393451Y190156D01*
X394195Y190899D01*
X394720Y191810D01*
X394992Y192825D01*
Y193876D01*
X394720Y194891D01*
X394195Y195802D01*
X393451Y196545D01*
X392541Y197071D01*
X391526Y197343D01*
D02*
G37*
G36*
X381526D02*
X380474D01*
X379459Y197071D01*
X378549Y196545D01*
X377805Y195802D01*
X377280Y194891D01*
X377008Y193876D01*
Y192825D01*
X377280Y191810D01*
X377805Y190899D01*
X378549Y190156D01*
X379459Y189630D01*
X380474Y189358D01*
X381526D01*
X382541Y189630D01*
X383451Y190156D01*
X384194Y190899D01*
X384720Y191810D01*
X384992Y192825D01*
Y193876D01*
X384720Y194891D01*
X384194Y195802D01*
X383451Y196545D01*
X382541Y197071D01*
X381526Y197343D01*
D02*
G37*
G36*
X371526D02*
X370474D01*
X369459Y197071D01*
X368549Y196545D01*
X367806Y195802D01*
X367280Y194891D01*
X367008Y193876D01*
Y192825D01*
X367280Y191810D01*
X367806Y190899D01*
X368549Y190156D01*
X369459Y189630D01*
X370474Y189358D01*
X371526D01*
X372541Y189630D01*
X373451Y190156D01*
X374195Y190899D01*
X374720Y191810D01*
X374992Y192825D01*
Y193876D01*
X374720Y194891D01*
X374195Y195802D01*
X373451Y196545D01*
X372541Y197071D01*
X371526Y197343D01*
D02*
G37*
G36*
X361526D02*
X360474D01*
X359459Y197071D01*
X358549Y196545D01*
X357805Y195802D01*
X357280Y194891D01*
X357008Y193876D01*
Y192825D01*
X357280Y191810D01*
X357805Y190899D01*
X358549Y190156D01*
X359459Y189630D01*
X360474Y189358D01*
X361526D01*
X362541Y189630D01*
X363451Y190156D01*
X364194Y190899D01*
X364720Y191810D01*
X364992Y192825D01*
Y193876D01*
X364720Y194891D01*
X364194Y195802D01*
X363451Y196545D01*
X362541Y197071D01*
X361526Y197343D01*
D02*
G37*
G36*
X351526D02*
X350474D01*
X349459Y197071D01*
X348549Y196545D01*
X347806Y195802D01*
X347280Y194891D01*
X347008Y193876D01*
Y192825D01*
X347280Y191810D01*
X347806Y190899D01*
X348549Y190156D01*
X349459Y189630D01*
X350474Y189358D01*
X351526D01*
X352541Y189630D01*
X353451Y190156D01*
X354194Y190899D01*
X354720Y191810D01*
X354992Y192825D01*
Y193876D01*
X354720Y194891D01*
X354194Y195802D01*
X353451Y196545D01*
X352541Y197071D01*
X351526Y197343D01*
D02*
G37*
G36*
X341526D02*
X340474D01*
X339459Y197071D01*
X338549Y196545D01*
X337806Y195802D01*
X337280Y194891D01*
X337008Y193876D01*
Y192825D01*
X337280Y191810D01*
X337806Y190899D01*
X338549Y190156D01*
X339459Y189630D01*
X340474Y189358D01*
X341526D01*
X342541Y189630D01*
X343451Y190156D01*
X344195Y190899D01*
X344720Y191810D01*
X344992Y192825D01*
Y193876D01*
X344720Y194891D01*
X344195Y195802D01*
X343451Y196545D01*
X342541Y197071D01*
X341526Y197343D01*
D02*
G37*
G36*
X331526D02*
X330474D01*
X329459Y197071D01*
X328549Y196545D01*
X327805Y195802D01*
X327280Y194891D01*
X327008Y193876D01*
Y192825D01*
X327280Y191810D01*
X327805Y190899D01*
X328549Y190156D01*
X329459Y189630D01*
X330474Y189358D01*
X331526D01*
X332541Y189630D01*
X333451Y190156D01*
X334194Y190899D01*
X334720Y191810D01*
X334992Y192825D01*
Y193876D01*
X334720Y194891D01*
X334194Y195802D01*
X333451Y196545D01*
X332541Y197071D01*
X331526Y197343D01*
D02*
G37*
G36*
X321526D02*
X320474D01*
X319459Y197071D01*
X318549Y196545D01*
X317806Y195802D01*
X317280Y194891D01*
X317008Y193876D01*
Y192825D01*
X317280Y191810D01*
X317806Y190899D01*
X318549Y190156D01*
X319459Y189630D01*
X320474Y189358D01*
X321526D01*
X322541Y189630D01*
X323451Y190156D01*
X324195Y190899D01*
X324720Y191810D01*
X324992Y192825D01*
Y193876D01*
X324720Y194891D01*
X324195Y195802D01*
X323451Y196545D01*
X322541Y197071D01*
X321526Y197343D01*
D02*
G37*
G36*
X312496Y197391D02*
X309504D01*
X308530Y197198D01*
X307704Y196646D01*
X307153Y195820D01*
X306959Y194847D01*
Y191855D01*
X307153Y190881D01*
X307704Y190055D01*
X308530Y189503D01*
X309504Y189310D01*
X312496D01*
X313470Y189503D01*
X314296Y190055D01*
X314847Y190881D01*
X315041Y191855D01*
Y194847D01*
X314847Y195820D01*
X314296Y196646D01*
X313470Y197198D01*
X312496Y197391D01*
D02*
G37*
%LPD*%
D131*
X303500Y273500D02*
D03*
D136*
X457035Y219000D02*
D03*
X475000Y204500D02*
D03*
X409809Y333809D02*
D03*
X317000Y324000D02*
D03*
X456910Y267629D02*
D03*
X323732Y306984D02*
D03*
X357482Y296982D02*
D03*
D138*
X437641Y276917D02*
D03*
M02*
