G04*
G04 #@! TF.GenerationSoftware,Altium Limited,Altium Designer,26.3.0 (6)*
G04*
G04 Layer_Color=65535*
%FSLAX25Y25*%
%MOIN*%
G70*
G04*
G04 #@! TF.SameCoordinates,43FAFAD0-F00B-4845-84B4-E7B8A36DC7EF*
G04*
G04*
G04 #@! TF.FilePolarity,Positive*
G04*
G01*
G75*
%ADD10C,0.00787*%
%ADD11C,0.00394*%
%ADD12C,0.00984*%
%ADD13C,0.02362*%
%ADD14C,0.01004*%
%ADD15C,0.00500*%
%ADD16C,0.00600*%
%ADD17C,0.00300*%
%ADD18C,0.01000*%
%ADD19R,0.05906X0.00787*%
G36*
X328050Y300392D02*
X327050D01*
Y298892D01*
X328050D01*
Y300392D01*
D02*
G37*
G36*
X352950Y318108D02*
X353950D01*
Y316608D01*
X352950D01*
Y318108D01*
D02*
G37*
D10*
X514016Y219275D02*
G03*
X514016Y219275I-394J0D01*
G01*
X446259Y237461D02*
X455741D01*
X446259Y230539D02*
X455741D01*
X445653Y205539D02*
Y213461D01*
X452347Y205539D02*
Y213461D01*
X434039Y204259D02*
Y213741D01*
X440961Y204259D02*
Y213741D01*
X427289Y204259D02*
Y213741D01*
X434211Y204259D02*
Y213741D01*
X459039Y254499D02*
Y263980D01*
X465961Y254499D02*
Y263980D01*
X436039Y234759D02*
Y244241D01*
X442961Y234759D02*
Y244241D01*
X432350Y224047D02*
X438650D01*
X432350Y229953D02*
X438650D01*
X334508Y226055D02*
Y227433D01*
Y236882D02*
Y238260D01*
X350650Y226055D02*
Y227433D01*
Y236882D02*
Y238260D01*
X334508Y226055D02*
X335591D01*
X349567D02*
X350650D01*
X334508Y238260D02*
X335591D01*
X349567D02*
X350650D01*
X442154Y242039D02*
Y249961D01*
X448846Y242039D02*
Y249961D01*
X530039Y213499D02*
Y222980D01*
X536961Y213499D02*
Y222980D01*
X510539Y194259D02*
Y203741D01*
X517461Y194259D02*
Y203741D01*
X443039Y235653D02*
X450961D01*
X443039Y242347D02*
X450961D01*
X459654Y267039D02*
Y274961D01*
X466347Y267039D02*
Y274961D01*
X453653Y255508D02*
Y263429D01*
X460347Y255508D02*
Y263429D01*
X510240Y198047D02*
Y203953D01*
X502957Y198047D02*
Y203953D01*
X563484Y225752D02*
Y247248D01*
X553484D02*
X563484D01*
X553484Y225752D02*
Y247248D01*
Y225752D02*
X563484D01*
X423850Y279953D02*
X430150D01*
X423850Y274047D02*
X430150D01*
X435791Y260696D02*
Y272901D01*
X422011Y260696D02*
Y272901D01*
X363039Y307154D02*
X370961D01*
X363039Y313846D02*
X370961D01*
X470484Y353697D02*
X483476D01*
Y368854D01*
X452768Y353697D02*
Y368854D01*
Y353697D02*
X465760D01*
X306024Y371224D02*
X408976D01*
X306024D02*
Y405477D01*
X408976D01*
Y371224D02*
Y405477D01*
X351441Y260279D02*
Y271721D01*
X342559Y260279D02*
Y271721D01*
X510984Y353697D02*
X523976D01*
Y368854D01*
X493268Y353697D02*
Y368854D01*
Y353697D02*
X506260D01*
X314433Y307708D02*
Y318780D01*
X321567Y307708D02*
Y318780D01*
X359941Y260279D02*
Y271721D01*
X351059Y260279D02*
Y271721D01*
X341441Y260279D02*
Y271721D01*
X332559Y260279D02*
Y271721D01*
X489539Y195499D02*
Y204980D01*
X496461Y195499D02*
Y204980D01*
X496539Y195259D02*
Y204741D01*
X503461Y195259D02*
Y204741D01*
X522539Y207759D02*
Y217241D01*
X529461Y207759D02*
Y217241D01*
X512461Y330759D02*
Y340241D01*
X505539Y330759D02*
Y340241D01*
X366476Y252492D02*
X368992D01*
X352008D02*
X354524D01*
X352008Y235508D02*
Y252492D01*
X366476Y235508D02*
X368992D01*
X352008D02*
X354524D01*
X368992D02*
Y252492D01*
X362370Y209252D02*
Y218748D01*
X355630Y209252D02*
Y218748D01*
X443039Y232846D02*
X450961D01*
X443039Y226153D02*
X450961D01*
X329768Y249803D02*
X330949D01*
X329768Y244094D02*
X330949D01*
X498539Y330759D02*
Y340241D01*
X505461Y330759D02*
Y340241D01*
X420154Y205039D02*
Y212961D01*
X426847Y205039D02*
Y212961D01*
X373539Y268499D02*
Y277980D01*
X380461Y268499D02*
Y277980D01*
X390142Y253063D02*
Y255579D01*
Y238595D02*
Y241110D01*
Y238595D02*
X407126D01*
Y253063D02*
Y255579D01*
Y238595D02*
Y241110D01*
X390142Y255579D02*
X407126D01*
X320783Y336610D02*
Y350390D01*
X352083D02*
X356217D01*
Y336610D02*
Y350390D01*
X352083Y336610D02*
X356217D01*
X320783Y350390D02*
X324917D01*
X320783Y336610D02*
X324917D01*
X366539Y268499D02*
Y277980D01*
X373461Y268499D02*
Y277980D01*
X530961Y322259D02*
Y331741D01*
X524039Y322259D02*
Y331741D01*
X401842Y213484D02*
Y219783D01*
X394756Y213484D02*
Y219783D01*
X449245Y327744D02*
Y333256D01*
X371008Y327847D02*
X378929D01*
X371008Y321153D02*
X378929D01*
X363039Y319847D02*
X370961D01*
X363039Y313154D02*
X370961D01*
X428842Y288980D02*
Y290752D01*
X434158Y288980D02*
Y290752D01*
X316957Y235350D02*
Y241650D01*
X324043Y235350D02*
Y241650D01*
X325350Y236957D02*
X331650D01*
X325350Y244043D02*
X331650D01*
X414575Y279803D02*
Y280197D01*
X411425Y279803D02*
Y280197D01*
X418614Y288843D02*
X420386D01*
X418614Y294158D02*
X420386D01*
X381587Y339850D02*
Y348905D01*
X380405Y350087D02*
X381587Y348905D01*
X379224Y350087D02*
X380405D01*
X368595Y350087D02*
X369776D01*
X367413Y348905D02*
X368595Y350087D01*
X367413Y339850D02*
Y348905D01*
X418342Y199984D02*
Y206283D01*
X411256Y199984D02*
Y206283D01*
X416808Y238071D02*
X426675D01*
X416808Y246929D02*
X426675D01*
X344566Y224929D02*
X354433D01*
X344566Y216071D02*
X354433D01*
X343595Y214953D02*
X349894D01*
X343595Y209047D02*
X349894D01*
X427130Y232252D02*
Y241748D01*
X433870Y232252D02*
Y241748D01*
X382339Y281224D02*
X399661D01*
X382339Y321776D02*
X399661D01*
Y281224D02*
Y321776D01*
X382339Y281224D02*
Y321776D01*
X442020Y365961D02*
X451501D01*
X442020Y359039D02*
X451501D01*
X513259Y270961D02*
X522741D01*
X513259Y264039D02*
X522741D01*
X324059Y260279D02*
Y271721D01*
X332941Y260279D02*
Y271721D01*
X396760Y226586D02*
Y236067D01*
X389838Y226586D02*
Y236067D01*
X344961Y244759D02*
Y254241D01*
X338039Y244759D02*
Y254241D01*
X513520Y257039D02*
X523001D01*
X513520Y263961D02*
X523001D01*
X395559Y260279D02*
Y271721D01*
X404441Y260279D02*
Y271721D01*
X380559Y260279D02*
Y271721D01*
X389441Y260279D02*
Y271721D01*
X411059Y260279D02*
Y271721D01*
X419941Y260279D02*
Y271721D01*
X443441Y245530D02*
Y256972D01*
X434559Y245530D02*
Y256972D01*
X386941Y242279D02*
Y253721D01*
X378059Y242279D02*
Y253721D01*
X377941Y242530D02*
Y253972D01*
X369059Y242530D02*
Y253972D01*
X480267Y330670D02*
X489748D01*
X480267Y323748D02*
X489748D01*
X476759Y295961D02*
X486241D01*
X476759Y289039D02*
X486241D01*
X512949Y218798D02*
Y228280D01*
X519871Y218798D02*
Y228280D01*
X320334Y275964D02*
Y287036D01*
X327666Y275964D02*
Y287036D01*
X446449Y277279D02*
X452551D01*
X446153Y273638D02*
Y278362D01*
X452846Y273638D02*
Y278362D01*
X264524Y359976D02*
X298776D01*
X264524Y257024D02*
Y359976D01*
Y257024D02*
X298776D01*
Y359976D01*
X536539Y207759D02*
Y217241D01*
X543461Y207759D02*
Y217241D01*
X444807Y259881D02*
Y270953D01*
X437476Y259881D02*
Y270953D01*
X553484Y200252D02*
X563484D01*
X553484D02*
Y221748D01*
X563484D01*
Y200252D02*
Y221748D01*
X404122Y338496D02*
X406878D01*
X404122D02*
Y350504D01*
X406878D01*
Y338496D02*
Y350504D01*
X533071Y227842D02*
X533858D01*
X533071Y233157D02*
X533858D01*
X512752Y319248D02*
X529248D01*
Y302752D02*
Y303028D01*
Y318972D02*
Y319248D01*
X512752Y302752D02*
X529248D01*
X512752D02*
Y303028D01*
Y308972D02*
Y313028D01*
Y318972D02*
Y319248D01*
X334039Y210208D02*
Y219689D01*
X340961Y210208D02*
Y219689D01*
X324544Y209586D02*
Y222414D01*
X315456Y209586D02*
Y222414D01*
X325669Y213054D02*
Y222732D01*
X334331Y213054D02*
Y222732D01*
X470961Y311520D02*
Y321001D01*
X464039Y311520D02*
Y321001D01*
X530961Y290999D02*
Y300480D01*
X524039Y290999D02*
Y300480D01*
X473059Y265530D02*
Y276972D01*
X481941Y265530D02*
Y276972D01*
X463764Y288559D02*
Y293559D01*
X458252Y288559D02*
Y293559D01*
X491422Y322410D02*
X497219D01*
X491422Y317007D02*
X497219D01*
X477109Y321910D02*
X482906D01*
X477109Y316507D02*
X482906D01*
X497922Y328910D02*
X503719D01*
X497922Y323507D02*
X503719D01*
X505264Y315717D02*
Y316701D01*
X499752Y315717D02*
Y316701D01*
X501109Y308910D02*
X506906D01*
X501109Y303507D02*
X506906D01*
X466109Y308910D02*
X471906D01*
X466109Y303507D02*
X471906D01*
X463764Y302173D02*
Y303157D01*
X458252Y302173D02*
Y303157D01*
X408575Y273453D02*
Y273847D01*
X405425Y273453D02*
Y273847D01*
X428461Y298259D02*
Y307741D01*
X421539Y298259D02*
Y307741D01*
X535728Y294571D02*
X545594D01*
X535728Y303429D02*
X545594D01*
X437847Y342319D02*
Y349406D01*
X431153Y342319D02*
Y349406D01*
X447504Y338236D02*
Y350244D01*
Y338236D02*
X450260D01*
Y350244D01*
X447504D02*
X450260D01*
X463858Y334576D02*
Y341466D01*
X457154Y334555D02*
Y341445D01*
X415154Y339457D02*
Y346543D01*
X421846Y339457D02*
Y346543D01*
X396858Y342576D02*
Y349466D01*
X390154Y342555D02*
Y349445D01*
X321453Y294350D02*
Y300650D01*
X315547Y294350D02*
Y300650D01*
X411547Y304594D02*
Y310894D01*
X417453Y304594D02*
Y310894D01*
X464230Y196130D02*
X473727D01*
X464230Y202870D02*
X473727D01*
X502630Y267230D02*
Y276727D01*
X509370Y267230D02*
Y276727D01*
X453252Y200630D02*
X462748D01*
X453252Y207370D02*
X462748D01*
X443071Y216653D02*
X450992D01*
X443071Y223346D02*
X450992D01*
X443039Y221654D02*
X450961D01*
X443039Y228346D02*
X450961D01*
X489957Y269889D02*
Y276189D01*
X495862Y269889D02*
Y276189D01*
X482039Y267291D02*
Y276787D01*
X488780Y267291D02*
Y276787D01*
X314953Y294350D02*
Y300650D01*
X309047Y294350D02*
Y300650D01*
X466130Y266252D02*
Y275748D01*
X472870Y266252D02*
Y275748D01*
X533329Y238719D02*
X534117D01*
X533329Y244034D02*
X534117D01*
X410024Y353697D02*
X423016D01*
X410024D02*
Y368854D01*
X440732Y353697D02*
Y368854D01*
X427740Y353697D02*
X440732D01*
X534410Y359362D02*
Y372354D01*
X549567D01*
X534410Y341646D02*
X549567D01*
X534410D02*
Y354638D01*
X534197Y268240D02*
Y281232D01*
X549354D01*
X534197Y250524D02*
X549354D01*
X534197D02*
Y263516D01*
X304524Y154374D02*
Y188626D01*
Y154374D02*
X407476D01*
Y188626D01*
X304524D02*
X407476D01*
X435693Y314224D02*
X439433D01*
X440811Y305563D02*
Y313437D01*
Y305563D02*
X442189D01*
Y313437D01*
X440811D02*
X442189D01*
X542429Y306567D02*
Y316434D01*
X533571Y306567D02*
Y316434D01*
X535567Y319571D02*
X545434D01*
X535567Y328429D02*
X545434D01*
X444630Y253252D02*
Y262748D01*
X451370Y253252D02*
Y262748D01*
X442039Y316161D02*
Y325839D01*
X448961Y316161D02*
Y325839D01*
X442259Y352039D02*
X451741D01*
X442259Y358961D02*
X451741D01*
X402906Y234996D02*
Y236079D01*
Y219937D02*
Y221020D01*
X415110Y234996D02*
Y236079D01*
Y219937D02*
Y221020D01*
X402906Y236079D02*
X404284D01*
X413732D02*
X415110D01*
X402906Y219937D02*
X404284D01*
X413732D02*
X415110D01*
X424057Y221827D02*
X429962D01*
X424057Y214347D02*
X429962D01*
X397759Y336961D02*
X407241D01*
X397759Y330039D02*
X407241D01*
X420559Y223626D02*
X430040D01*
X420559Y230548D02*
X430040D01*
X388945Y215638D02*
Y216819D01*
X394654Y215638D02*
Y216819D01*
D11*
X350847Y239835D02*
G03*
X350847Y239835I-197J0D01*
G01*
X401528Y236079D02*
G03*
X401528Y236079I-197J0D01*
G01*
D12*
X433134Y275165D02*
G03*
X433134Y275165I-492J0D01*
G01*
X468614Y353658D02*
G03*
X468614Y353658I-492J0D01*
G01*
X408228Y366697D02*
G03*
X408228Y366697I-492J0D01*
G01*
X346437Y285063D02*
G03*
X346437Y285063I-492J0D01*
G01*
X509114Y353658D02*
G03*
X509114Y353658I-492J0D01*
G01*
X371055Y331386D02*
G03*
X371055Y331386I-492J0D01*
G01*
X377516Y321185D02*
G03*
X377516Y321185I-492J0D01*
G01*
X303795Y358736D02*
G03*
X303795Y358736I-492J0D01*
G01*
X415441Y340760D02*
G03*
X415441Y340760I-492J0D01*
G01*
X533520Y316020D02*
G03*
X533520Y316020I-492J0D01*
G01*
X439925Y347980D02*
G03*
X439925Y347980I-492J0D01*
G01*
X425870Y353658D02*
G03*
X425870Y353658I-492J0D01*
G01*
X534862Y357000D02*
G03*
X534862Y357000I-492J0D01*
G01*
X534650Y265878D02*
G03*
X534650Y265878I-492J0D01*
G01*
X306256Y193154D02*
G03*
X306256Y193154I-492J0D01*
G01*
D13*
X387457Y317839D02*
G03*
X387457Y317839I-1181J0D01*
G01*
D14*
X479618Y311520D02*
G03*
X479618Y311520I-502J0D01*
G01*
D15*
X504016Y214354D02*
Y217464D01*
Y250614D02*
Y253724D01*
X464646Y214354D02*
Y217464D01*
Y250614D02*
Y253724D01*
X500906Y214354D02*
X504016D01*
X500906Y253724D02*
X504016D01*
X464646Y214354D02*
X467756D01*
X464646Y253724D02*
X467756D01*
D16*
X333900Y297750D02*
X347100D01*
X333900Y319250D02*
X347100D01*
D17*
X329600Y322124D02*
X332932Y318791D01*
X329600D02*
X332932Y322124D01*
X329600Y320458D02*
X332932D01*
X331266Y318791D02*
Y322124D01*
D18*
X418666Y191832D02*
X417333D01*
X417999D01*
Y188499D01*
X417333Y187833D01*
X416666D01*
X416000Y188499D01*
X419999Y187833D02*
Y188499D01*
X420665D01*
Y187833D01*
X419999D01*
X427330Y191832D02*
Y187833D01*
X429329D01*
X429995Y188499D01*
Y191165D01*
X429329Y191832D01*
X427330D01*
X431995Y190499D02*
X433328D01*
X433994Y189832D01*
Y187833D01*
X431995D01*
X431328Y188499D01*
X431995Y189166D01*
X433994D01*
X437993Y191832D02*
Y187833D01*
X435993D01*
X435327Y188499D01*
Y189832D01*
X435993Y190499D01*
X437993D01*
X439992Y187833D02*
X441325D01*
X441992Y188499D01*
Y189832D01*
X441325Y190499D01*
X439992D01*
X439326Y189832D01*
Y188499D01*
X439992Y187833D01*
X443325D02*
X445324D01*
X445990Y188499D01*
X445324Y189166D01*
X443991D01*
X443325Y189832D01*
X443991Y190499D01*
X445990D01*
X447990Y187167D02*
X448656Y187833D01*
Y188499D01*
X447990D01*
Y187833D01*
X448656D01*
X447990Y187167D01*
X447323Y186500D01*
X455321Y191832D02*
Y187833D01*
X457320D01*
X457986Y188499D01*
Y191165D01*
X457320Y191832D01*
X455321D01*
X459319Y187833D02*
Y188499D01*
X459986D01*
Y187833D01*
X459319D01*
X469316Y191165D02*
X468650Y191832D01*
X467317D01*
X466650Y191165D01*
Y190499D01*
X467317Y189832D01*
X468650D01*
X469316Y189166D01*
Y188499D01*
X468650Y187833D01*
X467317D01*
X466650Y188499D01*
X471315Y191165D02*
Y190499D01*
X470649D01*
X471982D01*
X471315D01*
Y188499D01*
X471982Y187833D01*
X474648Y190499D02*
X475981D01*
X476647Y189832D01*
Y187833D01*
X474648D01*
X473981Y188499D01*
X474648Y189166D01*
X476647D01*
X477980Y190499D02*
X479313Y187833D01*
X480646Y190499D01*
X481979Y187833D02*
X483978D01*
X484645Y188499D01*
X483978Y189166D01*
X482645D01*
X481979Y189832D01*
X482645Y190499D01*
X484645D01*
X485977Y187833D02*
Y191832D01*
Y189166D02*
X487977Y190499D01*
X485977Y189166D02*
X487977Y187833D01*
X489976Y190499D02*
Y188499D01*
X490643Y187833D01*
X492642D01*
Y187167D01*
X491975Y186500D01*
X491309D01*
X492642Y187833D02*
Y190499D01*
X493975Y187833D02*
X495308D01*
X494641D01*
Y190499D01*
X493975D01*
X497974Y187167D02*
X498640Y187833D01*
Y188499D01*
X497974D01*
Y187833D01*
X498640D01*
X497974Y187167D01*
X497307Y186500D01*
X505304Y191832D02*
Y187833D01*
X507970D01*
X509303D02*
Y188499D01*
X509970D01*
Y187833D01*
X509303D01*
X516634Y191832D02*
Y187833D01*
X517967Y189166D01*
X519300Y187833D01*
Y191832D01*
X521299Y187833D02*
X522632D01*
X523299Y188499D01*
Y189832D01*
X522632Y190499D01*
X521299D01*
X520633Y189832D01*
Y188499D01*
X521299Y187833D01*
X524632D02*
Y190499D01*
X526631D01*
X527297Y189832D01*
Y187833D01*
X529963Y186500D02*
X530630D01*
X531296Y187167D01*
Y190499D01*
X529297D01*
X528630Y189832D01*
Y188499D01*
X529297Y187833D01*
X531296D01*
X305999Y253500D02*
X302000D01*
Y251501D01*
X302666Y250834D01*
X305332D01*
X305999Y251501D01*
Y253500D01*
Y249501D02*
Y246835D01*
Y248168D01*
X302000D01*
X305332Y242837D02*
X305999Y243503D01*
Y244836D01*
X305332Y245503D01*
X302666D01*
X302000Y244836D01*
Y243503D01*
X302666Y242837D01*
X302000Y241504D02*
X305999D01*
Y239505D01*
X305332Y238838D01*
X303999D01*
X303333Y239505D01*
Y241504D01*
X302000Y233506D02*
X305999D01*
Y231507D01*
X305332Y230841D01*
X303999D01*
X303333Y231507D01*
Y233506D01*
Y232173D02*
X302000Y230841D01*
X305999Y226842D02*
Y229508D01*
X303999D01*
Y228175D01*
Y229508D01*
X302000D01*
X305999Y221510D02*
Y218845D01*
Y220177D01*
X302000D01*
X304666Y217512D02*
X302000Y214846D01*
X303333Y216179D01*
X304666Y214846D01*
X302000Y217512D01*
Y206848D02*
Y209514D01*
X304666Y206848D01*
X305332D01*
X305999Y207515D01*
Y208848D01*
X305332Y209514D01*
X302000Y205516D02*
X302666D01*
Y204849D01*
X302000D01*
Y205516D01*
X305332Y202183D02*
X305999Y201517D01*
Y200184D01*
X305332Y199517D01*
X302666D01*
X302000Y200184D01*
Y201517D01*
X302666Y202183D01*
X305332D01*
X540500Y226833D02*
X543166D01*
X541833Y228166D02*
Y225500D01*
X540500Y246500D02*
X543166D01*
D19*
X332500Y293342D02*
D03*
M02*
