G04*
G04 #@! TF.GenerationSoftware,Altium Limited,Altium Designer,26.3.0 (6)*
G04*
G04 Layer_Color=8388736*
%FSLAX25Y25*%
%MOIN*%
G70*
G04*
G04 #@! TF.SameCoordinates,43FAFAD0-F00B-4845-84B4-E7B8A36DC7EF*
G04*
G04*
G04 #@! TF.FilePolarity,Negative*
G04*
G01*
G75*
%ADD22R,0.03961X0.03773*%
%ADD23R,0.05600X0.01100*%
%ADD24R,0.03591X0.04453*%
%ADD25R,0.03773X0.03961*%
%ADD26R,0.02985X0.03197*%
%ADD27R,0.05315X0.16535*%
%ADD30R,0.05733X0.04940*%
%ADD32R,0.03150X0.04134*%
%ADD33R,0.03197X0.02593*%
%ADD34R,0.03937X0.02953*%
%ADD35R,0.04724X0.03543*%
%ADD36R,0.02953X0.03937*%
%ADD38R,0.03543X0.04724*%
%ADD40R,0.04349X0.05339*%
%ADD42R,0.02756X0.02756*%
%ADD46R,0.05906X0.05906*%
G04:AMPARAMS|DCode=47|XSize=43.31mil|YSize=23.62mil|CornerRadius=2.01mil|HoleSize=0mil|Usage=FLASHONLY|Rotation=180.000|XOffset=0mil|YOffset=0mil|HoleType=Round|Shape=RoundedRectangle|*
%AMROUNDEDRECTD47*
21,1,0.04331,0.01961,0,0,180.0*
21,1,0.03929,0.02362,0,0,180.0*
1,1,0.00402,-0.01965,0.00980*
1,1,0.00402,0.01965,0.00980*
1,1,0.00402,0.01965,-0.00980*
1,1,0.00402,-0.01965,-0.00980*
%
%ADD47ROUNDEDRECTD47*%
%ADD48R,0.05512X0.02992*%
%ADD49R,0.05157X0.03567*%
%ADD50R,0.02402X0.02500*%
%ADD51R,0.02423X0.02254*%
%ADD54R,0.03543X0.02953*%
%ADD55R,0.02756X0.02756*%
%ADD56R,0.04453X0.03591*%
%ADD57R,0.03197X0.02985*%
%ADD58R,0.16535X0.05315*%
%ADD64R,0.04134X0.03150*%
%ADD65R,0.09843X0.06890*%
%ADD66C,0.01595*%
%ADD71R,0.03985X0.04560*%
%ADD72R,0.05938X0.05337*%
%ADD73R,0.03788X0.03681*%
%ADD75R,0.04182X0.04560*%
%ADD77R,0.07301X0.09000*%
%ADD78R,0.09000X0.07301*%
%ADD79R,0.05000X0.14173*%
%ADD81R,0.02987X0.05151*%
%ADD84R,0.10000X0.10000*%
%ADD85R,0.04724X0.03150*%
%ADD86R,0.04545X0.05339*%
%ADD87R,0.14173X0.05000*%
%ADD88R,0.05339X0.04545*%
%ADD89R,0.03773X0.03963*%
%ADD91R,0.04469X0.04182*%
G04:AMPARAMS|DCode=92|XSize=69.42mil|YSize=19.02mil|CornerRadius=5.38mil|HoleSize=0mil|Usage=FLASHONLY|Rotation=180.000|XOffset=0mil|YOffset=0mil|HoleType=Round|Shape=RoundedRectangle|*
%AMROUNDEDRECTD92*
21,1,0.06942,0.00827,0,0,180.0*
21,1,0.05866,0.01902,0,0,180.0*
1,1,0.01076,-0.02933,0.00413*
1,1,0.01076,0.02933,0.00413*
1,1,0.01076,0.02933,-0.00413*
1,1,0.01076,-0.02933,-0.00413*
%
%ADD92ROUNDEDRECTD92*%
G04:AMPARAMS|DCode=93|XSize=69.42mil|YSize=19.02mil|CornerRadius=5.38mil|HoleSize=0mil|Usage=FLASHONLY|Rotation=270.000|XOffset=0mil|YOffset=0mil|HoleType=Round|Shape=RoundedRectangle|*
%AMROUNDEDRECTD93*
21,1,0.06942,0.00827,0,0,270.0*
21,1,0.05866,0.01902,0,0,270.0*
1,1,0.01076,-0.00413,-0.02933*
1,1,0.01076,-0.00413,0.02933*
1,1,0.01076,0.00413,0.02933*
1,1,0.01076,0.00413,-0.02933*
%
%ADD93ROUNDEDRECTD93*%
%ADD94R,0.07099X0.06312*%
%ADD95R,0.06312X0.04737*%
%ADD96R,0.05328X0.04934*%
%ADD97R,0.04737X0.04343*%
%ADD98R,0.07099X0.06706*%
%ADD99R,0.04934X0.05328*%
%ADD100O,0.08280X0.02572*%
%ADD101R,0.06509X0.06509*%
%ADD102R,0.04147X0.01981*%
%ADD103R,0.02847X0.03005*%
%ADD104R,0.04737X0.04147*%
%ADD105R,0.04540X0.02375*%
%ADD106R,0.04147X0.04737*%
%ADD107R,0.05131X0.04540*%
%ADD108R,0.03556X0.01784*%
%ADD109R,0.07493X0.13792*%
%ADD110R,0.13792X0.07493*%
%ADD111R,0.01784X0.03556*%
%ADD112R,0.04343X0.04147*%
%ADD113R,0.05721X0.06902*%
%ADD114R,0.04540X0.04737*%
%ADD115R,0.05524X0.10642*%
%ADD116R,0.04343X0.04737*%
%ADD117R,0.05524X0.05524*%
%ADD118R,0.01981X0.04147*%
%ADD119R,0.04540X0.05131*%
%ADD120C,0.06784*%
%ADD121C,0.06902*%
G04:AMPARAMS|DCode=122|XSize=67.84mil|YSize=67.84mil|CornerRadius=18.96mil|HoleSize=0mil|Usage=FLASHONLY|Rotation=0.000|XOffset=0mil|YOffset=0mil|HoleType=Round|Shape=RoundedRectangle|*
%AMROUNDEDRECTD122*
21,1,0.06784,0.02992,0,0,0.0*
21,1,0.02992,0.06784,0,0,0.0*
1,1,0.03792,0.01496,-0.01496*
1,1,0.03792,-0.01496,-0.01496*
1,1,0.03792,-0.01496,0.01496*
1,1,0.03792,0.01496,0.01496*
%
%ADD122ROUNDEDRECTD122*%
%ADD123R,0.06902X0.06902*%
G04:AMPARAMS|DCode=124|XSize=67.84mil|YSize=67.84mil|CornerRadius=18.96mil|HoleSize=0mil|Usage=FLASHONLY|Rotation=270.000|XOffset=0mil|YOffset=0mil|HoleType=Round|Shape=RoundedRectangle|*
%AMROUNDEDRECTD124*
21,1,0.06784,0.02992,0,0,270.0*
21,1,0.02992,0.06784,0,0,270.0*
1,1,0.03792,-0.01496,-0.01496*
1,1,0.03792,-0.01496,0.01496*
1,1,0.03792,0.01496,0.01496*
1,1,0.03792,0.01496,-0.01496*
%
%ADD124ROUNDEDRECTD124*%
%ADD125C,0.02769*%
G36*
X425663Y262530D02*
X425912Y262281D01*
X426047Y261955D01*
Y261779D01*
Y260696D01*
X424275D01*
X424275Y261779D01*
Y261955D01*
X424410Y262281D01*
X424659Y262530D01*
X424985Y262665D01*
X425337D01*
X425663Y262530D01*
D02*
G37*
G36*
X429403D02*
X429652Y262281D01*
X429787Y261955D01*
Y261779D01*
Y260696D01*
X428015D01*
Y261779D01*
Y261955D01*
X428150Y262281D01*
X428399Y262530D01*
X428725Y262665D01*
X429077D01*
X429403Y262530D01*
D02*
G37*
G36*
X433143D02*
X433392Y262281D01*
X433527Y261955D01*
Y261779D01*
X433527D01*
Y260696D01*
X431755D01*
Y261779D01*
Y261955D01*
X431890Y262281D01*
X432139Y262530D01*
X432465Y262665D01*
X432818D01*
X433143Y262530D01*
D02*
G37*
G36*
X426047Y271818D02*
Y271642D01*
X425912Y271317D01*
X425663Y271067D01*
X425337Y270933D01*
X424985D01*
X424659Y271067D01*
X424410Y271317D01*
X424275Y271642D01*
Y271818D01*
X424275D01*
Y272901D01*
X426047D01*
Y271818D01*
D02*
G37*
G36*
X429787D02*
Y271642D01*
X429652Y271317D01*
X429403Y271067D01*
X429077Y270933D01*
X428725D01*
X428399Y271067D01*
X428150Y271317D01*
X428015Y271642D01*
Y271818D01*
Y272901D01*
X429787D01*
Y271818D01*
D02*
G37*
G36*
X433527D02*
Y271642D01*
X433392Y271317D01*
X433143Y271067D01*
X432818Y270933D01*
X432465D01*
X432139Y271067D01*
X431890Y271317D01*
X431755Y271642D01*
Y271818D01*
Y272901D01*
X433527D01*
X433527Y271818D01*
D02*
G37*
D22*
X453760Y234000D02*
D03*
X448240D02*
D03*
X482248Y327209D02*
D03*
X478740Y292500D02*
D03*
X405260Y333500D02*
D03*
X515500Y260500D02*
D03*
X515240Y267500D02*
D03*
X428059Y227087D02*
D03*
X449520Y362500D02*
D03*
X444000D02*
D03*
X520760Y267500D02*
D03*
X521020Y260500D02*
D03*
X487768Y327209D02*
D03*
X484260Y292500D02*
D03*
X444240Y355500D02*
D03*
X449760D02*
D03*
X399740Y333500D02*
D03*
X422539Y227087D02*
D03*
D23*
X349150Y299642D02*
D03*
X331850Y305547D02*
D03*
Y307516D02*
D03*
Y317358D02*
D03*
Y315390D02*
D03*
Y313421D02*
D03*
Y311453D02*
D03*
Y309484D02*
D03*
Y303579D02*
D03*
Y301610D02*
D03*
Y299642D02*
D03*
X349150Y301610D02*
D03*
Y303579D02*
D03*
Y305547D02*
D03*
Y307516D02*
D03*
Y309484D02*
D03*
Y311453D02*
D03*
Y313421D02*
D03*
Y315390D02*
D03*
Y317358D02*
D03*
D24*
X485410Y269517D02*
D03*
X469500Y268478D02*
D03*
X359000Y211478D02*
D03*
X430500Y239522D02*
D03*
X506000Y274500D02*
D03*
X485410Y274561D02*
D03*
X469500Y273522D02*
D03*
X448000Y260522D02*
D03*
X506000Y269457D02*
D03*
X359000Y216522D02*
D03*
X448000Y255478D02*
D03*
X430500Y234478D02*
D03*
D25*
X439500Y242260D02*
D03*
X462500Y256480D02*
D03*
X377000Y270480D02*
D03*
X370000D02*
D03*
X341500Y252260D02*
D03*
X540000Y209740D02*
D03*
X514000Y201760D02*
D03*
X430750Y206240D02*
D03*
X516410Y220779D02*
D03*
X500000Y202760D02*
D03*
X516410Y226299D02*
D03*
X437500Y206240D02*
D03*
X493000Y203000D02*
D03*
X533500Y221000D02*
D03*
X437500Y211760D02*
D03*
X430750D02*
D03*
X462500Y262000D02*
D03*
X439500Y236740D02*
D03*
X533500Y215480D02*
D03*
X514000Y196240D02*
D03*
X337500Y212189D02*
D03*
X493000Y197480D02*
D03*
X500000Y197240D02*
D03*
X526000Y215260D02*
D03*
Y209740D02*
D03*
X509000Y332740D02*
D03*
Y338260D02*
D03*
X502000D02*
D03*
Y332740D02*
D03*
X377000Y276000D02*
D03*
X370000D02*
D03*
X527500Y324240D02*
D03*
Y329760D02*
D03*
X393299Y228566D02*
D03*
Y234087D02*
D03*
X341500Y246740D02*
D03*
X540000Y215260D02*
D03*
X337500Y217709D02*
D03*
X467500Y313500D02*
D03*
Y319020D02*
D03*
X527500Y292980D02*
D03*
Y298500D02*
D03*
X425000Y300240D02*
D03*
Y305760D02*
D03*
D26*
X449469Y239000D02*
D03*
X444531Y229500D02*
D03*
X372500Y324500D02*
D03*
X444563Y220000D02*
D03*
X444531Y225000D02*
D03*
Y239000D02*
D03*
X449500Y220000D02*
D03*
X449469Y229500D02*
D03*
Y225000D02*
D03*
X364531Y310500D02*
D03*
X369468D02*
D03*
X377437Y324500D02*
D03*
X369468Y316500D02*
D03*
X364531D02*
D03*
D27*
X457000Y363500D02*
D03*
X479244D02*
D03*
X497500D02*
D03*
X519744D02*
D03*
X436500D02*
D03*
X414256D02*
D03*
D30*
X347000Y269251D02*
D03*
X355500D02*
D03*
X337000D02*
D03*
X328500D02*
D03*
X400000D02*
D03*
X385000D02*
D03*
X415500D02*
D03*
X439000Y248000D02*
D03*
X382500Y244749D02*
D03*
X373500Y245000D02*
D03*
X477500Y274502D02*
D03*
Y268000D02*
D03*
X373500Y251502D02*
D03*
X382500Y251251D02*
D03*
X439000Y254502D02*
D03*
X415500Y262749D02*
D03*
X385000D02*
D03*
X400000D02*
D03*
X328500D02*
D03*
X337000D02*
D03*
X355500D02*
D03*
X347000D02*
D03*
D32*
X326716Y246949D02*
D03*
X334000D02*
D03*
D33*
X423500Y206336D02*
D03*
Y211664D02*
D03*
D34*
X398299Y213681D02*
D03*
X320500Y241453D02*
D03*
X414799Y200181D02*
D03*
X398299Y219587D02*
D03*
X320500Y235547D02*
D03*
X414799Y206087D02*
D03*
D35*
X431500Y285732D02*
D03*
Y294000D02*
D03*
D36*
X325547Y240500D02*
D03*
X331453D02*
D03*
D38*
X423634Y291500D02*
D03*
X415366D02*
D03*
D40*
X418982Y242500D02*
D03*
X352259Y220500D02*
D03*
X346741D02*
D03*
X424500Y242500D02*
D03*
D42*
X349500Y212000D02*
D03*
X424244Y277000D02*
D03*
X438256Y227000D02*
D03*
X429756Y277000D02*
D03*
X432744Y227000D02*
D03*
X343988Y212000D02*
D03*
D46*
X449500Y282890D02*
D03*
Y269110D02*
D03*
D47*
X410618Y344500D02*
D03*
X443764Y344240D02*
D03*
X410618Y340760D02*
D03*
Y348240D02*
D03*
X400382D02*
D03*
Y344500D02*
D03*
Y340760D02*
D03*
X454000Y347980D02*
D03*
Y344240D02*
D03*
Y340500D02*
D03*
X443764D02*
D03*
Y347980D02*
D03*
D48*
X527752Y311000D02*
D03*
X514248Y316000D02*
D03*
X527752D02*
D03*
Y306000D02*
D03*
X514248D02*
D03*
D49*
X330000Y214838D02*
D03*
Y220949D02*
D03*
D50*
X461008Y288709D02*
D03*
Y293409D02*
D03*
D51*
X492633Y319709D02*
D03*
X478321Y319209D02*
D03*
X499133Y326209D02*
D03*
X496008Y319709D02*
D03*
X481695Y319209D02*
D03*
X502508Y326209D02*
D03*
X505695Y306209D02*
D03*
X502321D02*
D03*
X470695D02*
D03*
X467321D02*
D03*
D54*
X434500Y343500D02*
D03*
X460500Y335638D02*
D03*
X418500Y345362D02*
D03*
X393500Y343638D02*
D03*
X418500Y340638D02*
D03*
X434500Y348224D02*
D03*
X460500Y340362D02*
D03*
X393500Y348362D02*
D03*
D55*
X318500Y294744D02*
D03*
X414500Y310500D02*
D03*
X492910Y275795D02*
D03*
X312000Y294744D02*
D03*
X492910Y270283D02*
D03*
X318500Y300256D02*
D03*
X312000D02*
D03*
X414500Y304988D02*
D03*
D56*
X466457Y199500D02*
D03*
X455478Y204000D02*
D03*
X471500Y199500D02*
D03*
X460522Y204000D02*
D03*
D57*
X449000Y207031D02*
D03*
X463000Y273468D02*
D03*
X445500Y243531D02*
D03*
X457000Y261937D02*
D03*
X445500Y248468D02*
D03*
X457000Y257000D02*
D03*
X463000Y268531D02*
D03*
X449000Y211968D02*
D03*
D58*
X544213Y345878D02*
D03*
Y368122D02*
D03*
X544000Y254756D02*
D03*
Y277000D02*
D03*
D64*
X391799Y212587D02*
D03*
Y219870D02*
D03*
D65*
X428901Y266799D02*
D03*
D66*
X425161Y272001D02*
D03*
X428901D02*
D03*
X432641Y271917D02*
D03*
X425161Y261681D02*
D03*
X428901Y261596D02*
D03*
X432641D02*
D03*
D71*
X318000Y316500D02*
D03*
Y309988D02*
D03*
D72*
X320000Y212255D02*
D03*
Y219745D02*
D03*
D73*
X506500Y203817D02*
D03*
Y198184D02*
D03*
D75*
X441141Y262161D02*
D03*
X324000Y284756D02*
D03*
Y278244D02*
D03*
X441141Y268673D02*
D03*
D77*
X391184Y247087D02*
D03*
X406084D02*
D03*
D78*
X360500Y251450D02*
D03*
Y236550D02*
D03*
D79*
X468122Y364287D02*
D03*
X508622D02*
D03*
X425378D02*
D03*
D81*
X452500Y330500D02*
D03*
X445991D02*
D03*
D84*
X543500Y336500D02*
D03*
X543322Y287322D02*
D03*
D85*
X502508Y319752D02*
D03*
Y312665D02*
D03*
X461008Y306209D02*
D03*
Y299122D02*
D03*
D86*
X538000Y299000D02*
D03*
X543322D02*
D03*
X537839Y324000D02*
D03*
X543161D02*
D03*
D87*
X545000Y357000D02*
D03*
X544787Y265878D02*
D03*
D88*
X538000Y308839D02*
D03*
Y314161D02*
D03*
D89*
X445500Y323858D02*
D03*
Y318142D02*
D03*
D91*
X423799Y218087D02*
D03*
X430220D02*
D03*
D92*
X461969Y221244D02*
D03*
Y223212D02*
D03*
Y225181D02*
D03*
Y227149D02*
D03*
Y229118D02*
D03*
Y231086D02*
D03*
Y235023D02*
D03*
Y236992D02*
D03*
Y238960D02*
D03*
Y240929D02*
D03*
Y242897D02*
D03*
Y244866D02*
D03*
Y246834D02*
D03*
X506693Y248803D02*
D03*
Y246834D02*
D03*
Y244866D02*
D03*
Y242897D02*
D03*
Y240929D02*
D03*
Y238960D02*
D03*
Y236992D02*
D03*
Y235023D02*
D03*
Y233055D02*
D03*
Y231086D02*
D03*
Y229118D02*
D03*
Y227149D02*
D03*
Y225181D02*
D03*
Y223212D02*
D03*
Y221244D02*
D03*
Y219275D02*
D03*
X461969Y248803D02*
D03*
Y233055D02*
D03*
Y219275D02*
D03*
D93*
X499095Y211677D02*
D03*
X497126D02*
D03*
X495158D02*
D03*
X493189D02*
D03*
X489252D02*
D03*
X487284D02*
D03*
X485315D02*
D03*
X483347D02*
D03*
X481378D02*
D03*
X479410D02*
D03*
X477441D02*
D03*
X473504Y256401D02*
D03*
X475472D02*
D03*
X477441D02*
D03*
X479410D02*
D03*
X481378D02*
D03*
X485315D02*
D03*
X487284D02*
D03*
X489252D02*
D03*
X491221D02*
D03*
X493189D02*
D03*
X495158D02*
D03*
X497126D02*
D03*
X499095D02*
D03*
X483347D02*
D03*
X471535D02*
D03*
X469567D02*
D03*
Y211677D02*
D03*
X473504D02*
D03*
X491221D02*
D03*
X471535D02*
D03*
X475472D02*
D03*
D94*
X332500Y289405D02*
D03*
Y277594D02*
D03*
D95*
X359331Y285850D02*
D03*
X350669Y292150D02*
D03*
X359331D02*
D03*
X350669Y285850D02*
D03*
D96*
X323153Y228000D02*
D03*
X329847D02*
D03*
D97*
X413000Y276850D02*
D03*
X407000Y270500D02*
D03*
X413000Y283150D02*
D03*
X414799Y216744D02*
D03*
Y211429D02*
D03*
X407000Y276799D02*
D03*
D98*
X374500Y348709D02*
D03*
D99*
X407500Y209653D02*
D03*
Y216347D02*
D03*
D100*
X404976Y295102D02*
D03*
Y307898D02*
D03*
X377024Y295102D02*
D03*
Y307898D02*
D03*
X404976Y284866D02*
D03*
Y287425D02*
D03*
Y289984D02*
D03*
Y292543D02*
D03*
Y297661D02*
D03*
Y300220D02*
D03*
Y302780D02*
D03*
Y305339D02*
D03*
Y310457D02*
D03*
Y313016D02*
D03*
Y315575D02*
D03*
Y318134D02*
D03*
X377024Y284866D02*
D03*
Y287425D02*
D03*
Y289984D02*
D03*
Y292543D02*
D03*
Y297661D02*
D03*
Y300220D02*
D03*
Y302780D02*
D03*
Y305339D02*
D03*
Y310457D02*
D03*
Y313016D02*
D03*
Y315575D02*
D03*
Y318134D02*
D03*
D101*
X486500Y306500D02*
D03*
D102*
X492209Y308508D02*
D03*
Y304492D02*
D03*
X480791D02*
D03*
Y308508D02*
D03*
X492209Y306500D02*
D03*
X480791D02*
D03*
D103*
X498008Y303138D02*
D03*
X475008Y303173D02*
D03*
X498008Y306209D02*
D03*
X475008Y306244D02*
D03*
D104*
X499410Y275697D02*
D03*
X481000Y195843D02*
D03*
X317000Y329157D02*
D03*
X392500Y269843D02*
D03*
X481000Y201157D02*
D03*
X499410Y270382D02*
D03*
X317000Y323843D02*
D03*
X392500Y275157D02*
D03*
D105*
X445437Y309500D02*
D03*
Y306941D02*
D03*
X437563Y309500D02*
D03*
Y312059D02*
D03*
X445437D02*
D03*
X437563Y306941D02*
D03*
D106*
X414342Y322000D02*
D03*
Y316000D02*
D03*
X359315Y228500D02*
D03*
X425114Y234587D02*
D03*
X419799D02*
D03*
X354000Y228500D02*
D03*
X419658Y322000D02*
D03*
Y316000D02*
D03*
D107*
X437500Y329854D02*
D03*
X453000Y311854D02*
D03*
Y306146D02*
D03*
X437500Y324146D02*
D03*
D108*
X403299Y230961D02*
D03*
X414716Y228992D02*
D03*
X403299D02*
D03*
Y232929D02*
D03*
Y227024D02*
D03*
Y225055D02*
D03*
Y223087D02*
D03*
X414716Y232929D02*
D03*
Y230961D02*
D03*
Y227024D02*
D03*
Y225055D02*
D03*
Y223087D02*
D03*
D109*
X409008Y228008D02*
D03*
D110*
X342579Y232157D02*
D03*
D111*
X343563Y226449D02*
D03*
X345532Y237866D02*
D03*
Y226449D02*
D03*
X337657D02*
D03*
X339626D02*
D03*
X341595D02*
D03*
X347500D02*
D03*
X337657Y237866D02*
D03*
X339626D02*
D03*
X341595D02*
D03*
X347500D02*
D03*
X343563D02*
D03*
D112*
X522500Y233441D02*
D03*
Y238559D02*
D03*
D113*
X529429Y230500D02*
D03*
X529688Y241377D02*
D03*
X537500Y230500D02*
D03*
X537759Y241377D02*
D03*
D114*
X513941Y208000D02*
D03*
X519059D02*
D03*
D115*
X348342Y332673D02*
D03*
Y354327D02*
D03*
X338500D02*
D03*
X328658D02*
D03*
X338500Y332673D02*
D03*
X328658D02*
D03*
D116*
X331157Y235000D02*
D03*
X325842D02*
D03*
D117*
X370563Y335913D02*
D03*
X378437D02*
D03*
D118*
X484492Y312209D02*
D03*
X486500D02*
D03*
X488508D02*
D03*
Y300791D02*
D03*
X486500D02*
D03*
X484492D02*
D03*
D119*
X437413Y300441D02*
D03*
X431705D02*
D03*
D120*
X381000Y193351D02*
D03*
X331000D02*
D03*
X341000D02*
D03*
X351000D02*
D03*
X303500Y333500D02*
D03*
X332500Y366500D02*
D03*
X342500D02*
D03*
X322500D02*
D03*
X312500D02*
D03*
X303500Y263500D02*
D03*
Y343500D02*
D03*
X321000Y193351D02*
D03*
X303500Y273500D02*
D03*
Y283500D02*
D03*
X362500Y366500D02*
D03*
X352500D02*
D03*
X392500D02*
D03*
X382500D02*
D03*
X372500D02*
D03*
X303500Y293500D02*
D03*
Y313500D02*
D03*
Y323500D02*
D03*
Y303500D02*
D03*
X401000Y193351D02*
D03*
X391000D02*
D03*
X371000D02*
D03*
X361000D02*
D03*
D121*
X547500Y206000D02*
D03*
Y231500D02*
D03*
D122*
X311000Y193351D02*
D03*
X402500Y366500D02*
D03*
D123*
X547500Y241500D02*
D03*
Y216000D02*
D03*
D124*
X303500Y353500D02*
D03*
D125*
X407039Y231945D02*
D03*
X410976D02*
D03*
X407039Y228008D02*
D03*
X410976D02*
D03*
X407039Y224071D02*
D03*
X410976D02*
D03*
X338642Y230189D02*
D03*
Y234126D02*
D03*
X342579Y230189D02*
D03*
Y234126D02*
D03*
X346516Y230189D02*
D03*
Y234126D02*
D03*
M02*
