G04*
G04 #@! TF.GenerationSoftware,Altium Limited,Altium Designer,26.3.0 (6)*
G04*
G04 Layer_Color=16711935*
%FSLAX25Y25*%
%MOIN*%
G70*
G04*
G04 #@! TF.SameCoordinates,43FAFAD0-F00B-4845-84B4-E7B8A36DC7EF*
G04*
G04*
G04 #@! TF.FilePolarity,Positive*
G04*
G01*
G75*
%ADD10C,0.00787*%
%ADD11C,0.00394*%
%ADD15C,0.00500*%
%ADD17C,0.00300*%
%ADD140C,0.00000*%
%ADD141C,0.00100*%
D10*
X514016Y219275D02*
G03*
X514016Y219275I-394J0D01*
G01*
X447949Y232425D02*
X454051D01*
X447949D02*
Y235575D01*
X454051D01*
Y232425D02*
Y235575D01*
X450575Y206350D02*
Y212650D01*
X447425Y206350D02*
X450575D01*
X447425D02*
Y212650D01*
X450575D01*
X435925Y205949D02*
X439075D01*
Y212051D01*
X435925D02*
X439075D01*
X435925Y205949D02*
Y212051D01*
X429175Y205949D02*
X432325D01*
Y212051D01*
X429175D02*
X432325D01*
X429175Y205949D02*
Y212051D01*
X460925Y256189D02*
X464075D01*
Y262291D01*
X460925D02*
X464075D01*
X460925Y256189D02*
Y262291D01*
X437925Y236449D02*
X441075D01*
Y242551D01*
X437925D02*
X441075D01*
X437925Y236449D02*
Y242551D01*
X432154Y225228D02*
X438846D01*
X432154D02*
Y228772D01*
X438846D01*
Y225228D02*
Y228772D01*
X443925Y242850D02*
X447075D01*
Y249150D01*
X443925D02*
X447075D01*
X443925Y242850D02*
Y249150D01*
X531925Y215189D02*
X535075D01*
Y221291D01*
X531925D02*
X535075D01*
X531925Y215189D02*
Y221291D01*
X512425Y195949D02*
X515575D01*
Y202051D01*
X512425D02*
X515575D01*
X512425Y195949D02*
Y202051D01*
X450150Y237425D02*
Y240575D01*
X443850D02*
X450150D01*
X443850Y237425D02*
Y240575D01*
Y237425D02*
X450150D01*
X461425Y267850D02*
X464575D01*
Y274150D01*
X461425D02*
X464575D01*
X461425Y267850D02*
Y274150D01*
X455425Y256319D02*
X458575D01*
Y262618D01*
X455425D02*
X458575D01*
X455425Y256319D02*
Y262618D01*
X504827Y197949D02*
X508173D01*
Y204051D01*
X504827D02*
X508173D01*
X504827Y197949D02*
Y204051D01*
X423654Y278772D02*
X430346D01*
Y275228D02*
Y278772D01*
X423654Y275228D02*
X430346D01*
X423654D02*
Y278772D01*
X435004Y260696D02*
Y272901D01*
X422799Y260696D02*
X435004D01*
X422799D02*
Y272901D01*
X435004D01*
X363850Y312075D02*
X370150D01*
Y308925D02*
Y312075D01*
X363850Y308925D02*
X370150D01*
X363850D02*
Y312075D01*
X455366Y371512D02*
X480878D01*
X455366D02*
Y409504D01*
X480878D01*
Y371512D02*
Y409504D01*
X453949Y371768D02*
X482295D01*
X344539Y262063D02*
Y269937D01*
X349461D01*
Y262063D02*
Y269937D01*
X344539Y262063D02*
X349461D01*
X495866Y371512D02*
X521378D01*
X495866D02*
Y409504D01*
X521378D01*
Y371512D02*
Y409504D01*
X494449Y371768D02*
X522795D01*
X316425Y310094D02*
X319575D01*
Y316394D01*
X316425D02*
X319575D01*
X316425Y310094D02*
Y316394D01*
X353039Y262063D02*
Y269937D01*
X357961D01*
Y262063D02*
Y269937D01*
X353039Y262063D02*
X357961D01*
X334539D02*
Y269937D01*
X339461D01*
Y262063D02*
Y269937D01*
X334539Y262063D02*
X339461D01*
X491425Y197189D02*
X494575D01*
Y203291D01*
X491425D02*
X494575D01*
X491425Y197189D02*
Y203291D01*
X498425Y196949D02*
X501575D01*
Y203051D01*
X498425D02*
X501575D01*
X498425Y196949D02*
Y203051D01*
X524425Y209449D02*
X527575D01*
Y215551D01*
X524425D02*
X527575D01*
X524425Y209449D02*
Y215551D01*
X507425Y338551D02*
X510575D01*
X507425Y332449D02*
Y338551D01*
Y332449D02*
X510575D01*
Y338551D01*
X352008Y252492D02*
X368992D01*
X352008Y235508D02*
Y252492D01*
Y235508D02*
X368992D01*
Y252492D01*
X357425Y217150D02*
X360575D01*
X357425Y210850D02*
Y217150D01*
Y210850D02*
X360575D01*
Y217150D01*
X443850Y227925D02*
X450150D01*
X443850D02*
Y231075D01*
X450150D01*
Y227925D02*
Y231075D01*
X334689Y244094D02*
Y249803D01*
X326028D02*
X334689D01*
X326028Y244094D02*
Y249803D01*
Y244094D02*
X334689D01*
X500425Y332449D02*
X503575D01*
Y338551D01*
X500425D02*
X503575D01*
X500425Y332449D02*
Y338551D01*
X421925Y205850D02*
X425075D01*
Y212150D01*
X421925D02*
X425075D01*
X421925Y205850D02*
Y212150D01*
X375425Y270189D02*
X378575D01*
Y276291D01*
X375425D02*
X378575D01*
X375425Y270189D02*
Y276291D01*
X390142Y238595D02*
Y255579D01*
Y238595D02*
X407126D01*
Y255579D01*
X390142D02*
X407126D01*
X368425Y270189D02*
X371575D01*
Y276291D01*
X368425D02*
X371575D01*
X368425Y270189D02*
Y276291D01*
X525925Y330051D02*
X529075D01*
X525925Y323949D02*
Y330051D01*
Y323949D02*
X529075D01*
Y330051D01*
X396429Y213386D02*
X400169D01*
Y219882D01*
X396429D02*
X400169D01*
X396429Y213386D02*
Y219882D01*
X445308Y328039D02*
Y332961D01*
Y328039D02*
X453182D01*
Y332961D01*
X445308D02*
X453182D01*
X371819Y322925D02*
Y326075D01*
Y322925D02*
X378118D01*
Y326075D01*
X371819D02*
X378118D01*
X363850Y314925D02*
Y318075D01*
Y314925D02*
X370150D01*
Y318075D01*
X363850D02*
X370150D01*
X428842Y294000D02*
X434158D01*
X428842Y285732D02*
Y294000D01*
Y285732D02*
X434158D01*
Y294000D01*
X318630Y241846D02*
X322370D01*
X318630Y235154D02*
Y241846D01*
Y235154D02*
X322370D01*
Y241846D01*
X325252Y238630D02*
Y242370D01*
Y238630D02*
X331748D01*
Y242370D01*
X325252D02*
X331748D01*
X415366Y288843D02*
Y294158D01*
Y288843D02*
X423634D01*
Y294158D01*
X415366D02*
X423634D01*
X412929Y199787D02*
X416669D01*
Y206480D01*
X412929D02*
X416669D01*
X412929Y199787D02*
Y206480D01*
X425678Y240039D02*
Y244961D01*
X417804D02*
X425678D01*
X417804Y240039D02*
Y244961D01*
Y240039D02*
X425678D01*
X345563Y218039D02*
Y222961D01*
Y218039D02*
X353437D01*
Y222961D01*
X345563D02*
X353437D01*
X350091Y210228D02*
Y213772D01*
X343398D02*
X350091D01*
X343398Y210228D02*
Y213772D01*
Y210228D02*
X350091D01*
X428925Y233850D02*
X432075D01*
Y240150D01*
X428925D02*
X432075D01*
X428925Y233850D02*
Y240150D01*
X443709Y360925D02*
Y364075D01*
Y360925D02*
X449811D01*
Y364075D01*
X443709D02*
X449811D01*
X514949Y265925D02*
Y269075D01*
Y265925D02*
X521051D01*
Y269075D01*
X514949D02*
X521051D01*
X326039Y262063D02*
X330961D01*
Y269937D01*
X326039D02*
X330961D01*
X326039Y262063D02*
Y269937D01*
X391724Y234378D02*
X394874D01*
X391724Y228275D02*
Y234378D01*
Y228275D02*
X394874D01*
Y234378D01*
X339925Y252551D02*
X343075D01*
X339925Y246449D02*
Y252551D01*
Y246449D02*
X343075D01*
Y252551D01*
X521311Y258925D02*
Y262075D01*
X515209D02*
X521311D01*
X515209Y258925D02*
Y262075D01*
Y258925D02*
X521311D01*
X397539Y262063D02*
X402461D01*
Y269937D01*
X397539D02*
X402461D01*
X397539Y262063D02*
Y269937D01*
X382539Y262063D02*
X387461D01*
Y269937D01*
X382539D02*
X387461D01*
X382539Y262063D02*
Y269937D01*
X413039Y262063D02*
X417961D01*
Y269937D01*
X413039D02*
X417961D01*
X413039Y262063D02*
Y269937D01*
X436539Y255188D02*
X441461D01*
X436539Y247314D02*
Y255188D01*
Y247314D02*
X441461D01*
Y255188D01*
X380039Y251937D02*
X384961D01*
X380039Y244063D02*
Y251937D01*
Y244063D02*
X384961D01*
Y251937D01*
X371039Y252188D02*
X375961D01*
X371039Y244314D02*
Y252188D01*
Y244314D02*
X375961D01*
Y252188D01*
X481957Y325634D02*
Y328783D01*
Y325634D02*
X488059D01*
Y328783D01*
X481957D02*
X488059D01*
X478449Y290925D02*
Y294075D01*
Y290925D02*
X484551D01*
Y294075D01*
X478449D02*
X484551D01*
X517984Y220488D02*
Y226590D01*
X514835Y220488D02*
X517984D01*
X514835D02*
Y226590D01*
X517984D01*
X322327Y278350D02*
X325673D01*
Y284650D01*
X322327D02*
X325673D01*
X322327Y278350D02*
Y284650D01*
X446153Y282496D02*
X452846D01*
X446153Y269504D02*
Y282496D01*
Y269504D02*
X452846D01*
Y282496D01*
X538425Y209449D02*
X541575D01*
Y215551D01*
X538425D02*
X541575D01*
X538425Y209449D02*
Y215551D01*
X439468Y268566D02*
X442815D01*
X439468Y262267D02*
Y268566D01*
Y262267D02*
X442815D01*
Y268566D01*
X402055Y338496D02*
X408945D01*
X402055D02*
Y350504D01*
X408945D01*
Y338496D02*
Y350504D01*
X512752Y319248D02*
X529248D01*
Y302752D02*
Y319248D01*
X512752Y302752D02*
X529248D01*
X512752D02*
Y319248D01*
X335925Y211898D02*
X339075D01*
Y218000D01*
X335925D02*
X339075D01*
X335925Y211898D02*
Y218000D01*
X317539Y219937D02*
X322461D01*
X317539Y212063D02*
Y219937D01*
Y212063D02*
X322461D01*
Y219937D01*
X327539Y213956D02*
X332461D01*
Y221830D01*
X327539D02*
X332461D01*
X327539Y213956D02*
Y221830D01*
X465925Y319311D02*
X469075D01*
X465925Y313209D02*
Y319311D01*
Y313209D02*
X469075D01*
Y319311D01*
X525925Y298791D02*
X529075D01*
X525925Y292689D02*
Y298791D01*
Y292689D02*
X529075D01*
Y298791D01*
X475039Y267314D02*
X479961D01*
Y275188D01*
X475039D02*
X479961D01*
X475039Y267314D02*
Y275188D01*
X459658Y288559D02*
X462358D01*
Y293559D01*
X459658D02*
X462358D01*
X459658Y288559D02*
Y293559D01*
X492352Y318724D02*
Y320693D01*
Y318724D02*
X496289D01*
Y320693D01*
X492352D02*
X496289D01*
X478039Y318224D02*
Y320193D01*
Y318224D02*
X481976D01*
Y320193D01*
X478039D02*
X481976D01*
X498852Y325224D02*
Y327193D01*
Y325224D02*
X502789D01*
Y327193D01*
X498852D02*
X502789D01*
X499752Y311878D02*
X505264D01*
Y320539D01*
X499752D02*
X505264D01*
X499752Y311878D02*
Y320539D01*
X502039Y305224D02*
Y307193D01*
Y305224D02*
X505976D01*
Y307193D01*
X502039D02*
X505976D01*
X467039Y305224D02*
Y307193D01*
Y305224D02*
X470976D01*
Y307193D01*
X467039D02*
X470976D01*
X458252Y298335D02*
X463764D01*
Y306996D01*
X458252D02*
X463764D01*
X458252Y298335D02*
Y306996D01*
X423425Y306051D02*
X426575D01*
X423425Y299949D02*
Y306051D01*
Y299949D02*
X426575D01*
Y306051D01*
X536724Y301461D02*
X544598D01*
Y296539D02*
Y301461D01*
X536724Y296539D02*
X544598D01*
X536724D02*
Y301461D01*
X432531Y342319D02*
X436469D01*
Y349406D01*
X432531D02*
X436469D01*
X432531Y342319D02*
Y349406D01*
X445437Y338236D02*
Y350244D01*
Y338236D02*
X452327D01*
Y350244D01*
X445437D02*
X452327D01*
X458630Y334555D02*
X462370D01*
Y341445D01*
X458630D02*
X462370D01*
X458630Y334555D02*
Y341445D01*
X416532Y346543D02*
X420469D01*
X416532Y339457D02*
Y346543D01*
Y339457D02*
X420469D01*
Y346543D01*
X391630Y342555D02*
X395370D01*
Y349445D01*
X391630D02*
X395370D01*
X391630Y342555D02*
Y349445D01*
X316728Y294153D02*
X320272D01*
Y300847D01*
X316728D02*
X320272D01*
X316728Y294153D02*
Y300847D01*
X412728Y311090D02*
X416272D01*
X412728Y304398D02*
Y311090D01*
Y304398D02*
X416272D01*
Y311090D01*
X472128Y197925D02*
Y201075D01*
X465829D02*
X472128D01*
X465829Y197925D02*
Y201075D01*
Y197925D02*
X472128D01*
X504425Y268829D02*
X507575D01*
Y275128D01*
X504425D02*
X507575D01*
X504425Y268829D02*
Y275128D01*
X461150Y202425D02*
Y205575D01*
X454850D02*
X461150D01*
X454850Y202425D02*
Y205575D01*
Y202425D02*
X461150D01*
X450181Y218425D02*
Y221575D01*
X443882D02*
X450181D01*
X443882Y218425D02*
Y221575D01*
Y218425D02*
X450181D01*
X450150Y223425D02*
Y226575D01*
X443850D02*
X450150D01*
X443850Y223425D02*
Y226575D01*
Y223425D02*
X450150D01*
X491138Y276386D02*
X494681D01*
X491138Y269693D02*
Y276386D01*
Y269693D02*
X494681D01*
Y276386D01*
X483835Y268889D02*
X486984D01*
Y275189D01*
X483835D02*
X486984D01*
X483835Y268889D02*
Y275189D01*
X310228Y294153D02*
X313772D01*
Y300847D01*
X310228D02*
X313772D01*
X310228Y294153D02*
Y300847D01*
X467925Y267850D02*
X471075D01*
Y274150D01*
X467925D02*
X471075D01*
X467925Y267850D02*
Y274150D01*
X411205Y371768D02*
X439551D01*
X438134Y371512D02*
Y409504D01*
X412622D02*
X438134D01*
X412622Y371512D02*
Y409504D01*
Y371512D02*
X438134D01*
X552480Y342827D02*
Y371173D01*
X552224Y344244D02*
X590216D01*
Y369756D01*
X552224D02*
X590216D01*
X552224Y344244D02*
Y369756D01*
X552268Y251705D02*
Y280051D01*
X552012Y253122D02*
X590004D01*
Y278634D01*
X552012D02*
X590004D01*
X552012Y253122D02*
Y278634D01*
X535539Y315437D02*
X540461D01*
X535539Y307563D02*
Y315437D01*
Y307563D02*
X540461D01*
Y315437D01*
X544437Y321539D02*
Y326461D01*
X536563D02*
X544437D01*
X536563Y321539D02*
Y326461D01*
Y321539D02*
X544437D01*
X446425Y254850D02*
X449575D01*
Y261150D01*
X446425D02*
X449575D01*
X446425Y254850D02*
Y261150D01*
X443925Y317850D02*
X447075D01*
Y324150D01*
X443925D02*
X447075D01*
X443925Y317850D02*
Y324150D01*
X450051Y353925D02*
Y357075D01*
X443949D02*
X450051D01*
X443949Y353925D02*
Y357075D01*
Y353925D02*
X450051D01*
X423958Y219760D02*
X430061D01*
Y216413D02*
Y219760D01*
X423958Y216413D02*
X430061D01*
X423958D02*
Y219760D01*
X399449Y331925D02*
Y335075D01*
Y331925D02*
X405551D01*
Y335075D01*
X399449D02*
X405551D01*
X428350Y225512D02*
Y228661D01*
X422248D02*
X428350D01*
X422248Y225512D02*
Y228661D01*
Y225512D02*
X428350D01*
X388945Y220559D02*
X394654D01*
X388945Y211898D02*
Y220559D01*
Y211898D02*
X394654D01*
Y220559D01*
D11*
X348878Y234520D02*
G03*
X348878Y234520I-1969J0D01*
G01*
X351457Y286048D02*
G03*
X351457Y286048I-787J0D01*
G01*
X379599Y338079D02*
G03*
X378328Y348964I-5099J4921D01*
G01*
X375887D02*
G03*
X373113Y348964I-1387J-1397D01*
G01*
X375750Y343000D02*
G03*
X373250Y343000I-1250J0D01*
G01*
D02*
G03*
X375750Y343000I1250J0D01*
G01*
X370672Y348964D02*
G03*
X369401Y338079I3828J-5964D01*
G01*
X385921Y318311D02*
G03*
X385921Y318311I-1969J0D01*
G01*
X408614Y232339D02*
G03*
X408614Y232339I-1969J0D01*
G01*
X334705Y226252D02*
Y238063D01*
X350453Y226252D02*
Y238063D01*
X334705Y226252D02*
X350453D01*
X334705Y238063D02*
X350453D01*
X513055Y209870D02*
X519945D01*
X513055Y206130D02*
X519945D01*
X513055D02*
Y209870D01*
X519945Y206130D02*
Y209870D01*
X563484Y225752D02*
Y247248D01*
X553484D02*
X563484D01*
X553484Y225752D02*
Y247248D01*
Y225752D02*
X563484D01*
X348701Y284079D02*
Y293921D01*
Y284079D02*
X361299D01*
Y293921D01*
X348701D02*
X361299D01*
X323114Y226189D02*
X329886D01*
X323114Y229811D02*
X329886D01*
Y226189D02*
Y229811D01*
X323114Y226189D02*
Y229811D01*
X325055Y233130D02*
X331945D01*
X325055Y236870D02*
X331945D01*
Y233130D02*
Y236870D01*
X325055Y233130D02*
Y236870D01*
X419012Y232716D02*
X425902D01*
X419012Y236457D02*
X425902D01*
Y232716D02*
Y236457D01*
X419012Y232716D02*
Y236457D01*
X411130Y276654D02*
Y283347D01*
X414870Y276654D02*
Y283347D01*
X411130Y276654D02*
X414870D01*
X411130Y283347D02*
X414870D01*
X368595Y350087D02*
X371547D01*
X377453D02*
X380405D01*
X381587Y348905D01*
X377374Y348964D02*
Y350677D01*
X370976Y336701D02*
Y338079D01*
Y336701D02*
X378024D01*
X375887Y348964D02*
X378328D01*
X372847Y350087D02*
X376154D01*
X381587Y335126D02*
Y348905D01*
X376173Y350677D02*
X377374D01*
X371626Y348964D02*
Y350677D01*
X376173Y350087D02*
Y350677D01*
X367413Y348905D02*
X368595Y350087D01*
X378024Y338079D02*
X379599D01*
X378024Y336701D02*
Y338079D01*
X371626Y350677D02*
X372827D01*
Y350087D02*
Y350677D01*
X369401Y338079D02*
X370976D01*
X370672Y348964D02*
X373113D01*
X367413Y335126D02*
X381587D01*
X367413Y335126D02*
Y348905D01*
X416669Y210642D02*
Y217531D01*
X412929Y210642D02*
Y217531D01*
X416669D01*
X412929Y210642D02*
X416669D01*
X409311Y209614D02*
Y216386D01*
X405689Y209614D02*
Y216386D01*
X409311D01*
X405689Y209614D02*
X409311D01*
X380410Y281146D02*
X401590D01*
X380410Y321854D02*
X401590D01*
Y281146D02*
Y321854D01*
X380410Y281146D02*
Y321854D01*
X480594Y310398D02*
X482602Y312405D01*
X480594Y300594D02*
Y312405D01*
Y300594D02*
X492406D01*
Y312405D01*
X480594D02*
X492406D01*
X553484Y200252D02*
X563484D01*
X553484D02*
Y221748D01*
X563484D01*
Y200252D02*
Y221748D01*
X537795Y227646D02*
Y233354D01*
X529134Y227646D02*
Y233354D01*
Y227646D02*
X537795D01*
X529134Y233354D02*
X537795D01*
X499090Y302606D02*
Y306740D01*
X496925Y302606D02*
Y306740D01*
X499090D01*
X496925Y302606D02*
X499090D01*
X476090Y302642D02*
Y306776D01*
X473925Y302642D02*
Y306776D01*
X476090D01*
X473925Y302642D02*
X476090D01*
X405130Y270303D02*
Y276996D01*
X408870Y270303D02*
Y276996D01*
X405130Y270303D02*
X408870D01*
X405130Y276996D02*
X408870D01*
X497540Y269594D02*
Y276484D01*
X501280Y269594D02*
Y276484D01*
X497540Y269594D02*
X501280D01*
X497540Y276484D02*
X501280D01*
X479130Y195055D02*
Y201945D01*
X482870Y195055D02*
Y201945D01*
X479130Y195055D02*
X482870D01*
X479130Y201945D02*
X482870D01*
X524390Y232555D02*
Y239445D01*
X520610Y232555D02*
Y239445D01*
X524390D01*
X520610Y232555D02*
X524390D01*
X538054Y238522D02*
Y244231D01*
X529392Y238522D02*
Y244231D01*
Y238522D02*
X538054D01*
X529392Y244231D02*
X538054D01*
X451130Y312445D02*
X454870D01*
X451130Y305555D02*
X454870D01*
Y312445D01*
X451130Y305555D02*
Y312445D01*
X315130Y329945D02*
X318870D01*
X315130Y323055D02*
X318870D01*
Y329945D01*
X315130Y323055D02*
Y329945D01*
X353213Y226630D02*
X360102D01*
X353213Y230370D02*
X360102D01*
Y226630D02*
Y230370D01*
X353213Y226630D02*
Y230370D01*
X413555Y320130D02*
X420445D01*
X413555Y323870D02*
X420445D01*
Y320130D02*
Y323870D01*
X413555Y320130D02*
Y323870D01*
Y314130D02*
X420445D01*
X413555Y317870D02*
X420445D01*
Y314130D02*
Y317870D01*
X413555Y314130D02*
Y317870D01*
X439370Y323555D02*
Y330445D01*
X435630Y323555D02*
Y330445D01*
X439370D01*
X435630Y323555D02*
X439370D01*
X431114Y298571D02*
X438004D01*
X431114Y302311D02*
X438004D01*
Y298571D02*
Y302311D01*
X431114Y298571D02*
Y302311D01*
X394370Y269055D02*
Y275945D01*
X390630Y269055D02*
Y275945D01*
X394370D01*
X390630Y269055D02*
X394370D01*
X403102Y220134D02*
Y235882D01*
X414913Y220134D02*
Y235882D01*
X403102D02*
X414913D01*
X403102Y220134D02*
X414913D01*
D15*
X504016Y214354D02*
Y253724D01*
X464646Y214354D02*
Y253724D01*
Y214354D02*
X504016D01*
X464646Y253724D02*
X504016D01*
D17*
X334650Y317615D02*
X337982Y314283D01*
X334650D02*
X337982Y317615D01*
X334650Y315949D02*
X337982D01*
X336316Y314283D02*
Y317615D01*
D140*
X339300Y318750D02*
G03*
X341700Y318750I1200J0D01*
G01*
D141*
X334400Y316808D02*
Y317908D01*
X330450D02*
X334400D01*
X330450Y316808D02*
Y317908D01*
Y316808D02*
X334400D01*
Y314840D02*
Y315940D01*
X330450D02*
X334400D01*
X330450Y314840D02*
Y315940D01*
Y314840D02*
X334400D01*
Y312871D02*
Y313971D01*
X330450D02*
X334400D01*
X330450Y312871D02*
Y313971D01*
Y312871D02*
X334400D01*
Y310903D02*
Y312003D01*
X330450D02*
X334400D01*
X330450Y310903D02*
Y312003D01*
Y310903D02*
X334400D01*
Y308934D02*
Y310034D01*
X330450D02*
X334400D01*
X330450Y308934D02*
Y310034D01*
Y308934D02*
X334400D01*
Y306966D02*
Y308066D01*
X330450D02*
X334400D01*
X330450Y306966D02*
Y308066D01*
Y306966D02*
X334400D01*
Y304997D02*
Y306097D01*
X330450D02*
X334400D01*
X330450Y304997D02*
Y306097D01*
Y304997D02*
X334400D01*
Y303029D02*
Y304129D01*
X330450D02*
X334400D01*
X330450Y303029D02*
Y304129D01*
Y303029D02*
X334400D01*
Y301060D02*
Y302160D01*
X330450D02*
X334400D01*
X330450Y301060D02*
Y302160D01*
Y301060D02*
X334400D01*
Y299092D02*
Y300192D01*
X330450D02*
X334400D01*
X330450Y299092D02*
Y300192D01*
Y299092D02*
X334400D01*
X346600D02*
Y300192D01*
Y299092D02*
X350550D01*
Y300192D01*
X346600D02*
X350550D01*
X346600Y301060D02*
Y302160D01*
Y301060D02*
X350550D01*
Y302160D01*
X346600D02*
X350550D01*
X346600Y303029D02*
Y304129D01*
Y303029D02*
X350550D01*
Y304129D01*
X346600D02*
X350550D01*
X346600Y304997D02*
Y306097D01*
Y304997D02*
X350550D01*
Y306097D01*
X346600D02*
X350550D01*
X346600Y306966D02*
Y308066D01*
Y306966D02*
X350550D01*
Y308066D01*
X346600D02*
X350550D01*
X346600Y308934D02*
Y310034D01*
Y308934D02*
X350550D01*
Y310034D01*
X346600D02*
X350550D01*
X346600Y310903D02*
Y312003D01*
Y310903D02*
X350550D01*
Y312003D01*
X346600D02*
X350550D01*
X346600Y312871D02*
Y313971D01*
Y312871D02*
X350550D01*
Y313971D01*
X346600D02*
X350550D01*
X346600Y314840D02*
Y315940D01*
Y314840D02*
X350550D01*
Y315940D01*
X346600D02*
X350550D01*
X346600Y316808D02*
Y317908D01*
Y316808D02*
X350550D01*
Y317908D01*
X346600D02*
X350550D01*
X334400Y298250D02*
X346600D01*
Y318750D01*
X334400D02*
X346600D01*
X334400Y298250D02*
Y318750D01*
M02*
