G04*
G04 #@! TF.GenerationSoftware,Altium Limited,Altium Designer,23.8.1 (32)*
G04*
G04 Layer_Color=2752767*
%FSLAX25Y25*%
%MOIN*%
G70*
G04*
G04 #@! TF.SameCoordinates,72AF01AB-F0CD-401C-A649-F01B8FE0E723*
G04*
G04*
G04 #@! TF.FilePolarity,Positive*
G04*
G01*
G75*
%ADD16C,0.00500*%
D16*
X547500Y229500D02*
X545500Y233500D01*
X549500D01*
X547500Y229500D01*
Y239500D02*
X545500Y243500D01*
X549500D01*
X547500Y239500D01*
X303500Y271500D02*
X301500Y275500D01*
X305500D01*
X303500Y271500D01*
X321000Y191350D02*
X319000Y195351D01*
X323000D01*
X321000Y191350D01*
X311000D02*
X309000Y195351D01*
X313000D01*
X311000Y191350D01*
X547500Y204000D02*
X545500Y208000D01*
X549500D01*
X547500Y204000D01*
X303500Y341500D02*
X301500Y345500D01*
X305500D01*
X303500Y341500D01*
Y261500D02*
X301500Y265500D01*
X305500D01*
X303500Y261500D01*
X312500Y364500D02*
X310500Y368500D01*
X314500D01*
X312500Y364500D01*
X322500D02*
X320500Y368500D01*
X324500D01*
X322500Y364500D01*
X342500D02*
X340500Y368500D01*
X344500D01*
X342500Y364500D01*
X362500D02*
X360500Y368500D01*
X364500D01*
X362500Y364500D01*
X352500D02*
X350500Y368500D01*
X354500D01*
X352500Y364500D01*
X332500D02*
X330500Y368500D01*
X334500D01*
X332500Y364500D01*
X392500D02*
X390500Y368500D01*
X394500D01*
X392500Y364500D01*
X402500D02*
X400500Y368500D01*
X404500D01*
X402500Y364500D01*
X382500D02*
X380500Y368500D01*
X384500D01*
X382500Y364500D01*
X372500D02*
X370500Y368500D01*
X374500D01*
X372500Y364500D01*
X303500Y291500D02*
X301500Y295500D01*
X305500D01*
X303500Y291500D01*
Y311500D02*
X301500Y315500D01*
X305500D01*
X303500Y311500D01*
Y321500D02*
X301500Y325500D01*
X305500D01*
X303500Y321500D01*
Y331500D02*
X301500Y335500D01*
X305500D01*
X303500Y331500D01*
Y351500D02*
X301500Y355500D01*
X305500D01*
X303500Y351500D01*
Y301500D02*
X301500Y305500D01*
X305500D01*
X303500Y301500D01*
Y281500D02*
X301500Y285500D01*
X305500D01*
X303500Y281500D01*
X547500Y214000D02*
X545500Y218000D01*
X549500D01*
X547500Y214000D01*
X401000Y191350D02*
X399000Y195351D01*
X403000D01*
X401000Y191350D01*
X391000D02*
X389000Y195351D01*
X393000D01*
X391000Y191350D01*
X371000D02*
X369000Y195351D01*
X373000D01*
X371000Y191350D01*
X351000D02*
X349000Y195351D01*
X353000D01*
X351000Y191350D01*
X341000D02*
X339000Y195351D01*
X343000D01*
X341000Y191350D01*
X331000D02*
X329000Y195351D01*
X333000D01*
X331000Y191350D01*
X361000D02*
X359000Y195351D01*
X363000D01*
X361000Y191350D01*
X381000D02*
X379000Y195351D01*
X383000D01*
X381000Y191350D01*
X323982Y299000D02*
X324982Y300000D01*
X325982D01*
X324982Y301000D01*
X325982Y302000D01*
X324982D01*
X323982Y303000D01*
X322982Y302000D01*
X321982D01*
X322982Y301000D01*
X321982Y300000D01*
X322982D01*
X323982Y299000D01*
X323732Y304984D02*
X324732Y305984D01*
X325732D01*
X324732Y306984D01*
X325732Y307984D01*
X324732D01*
X323732Y308984D01*
X322732Y307984D01*
X321732D01*
X322732Y306984D01*
X321732Y305984D01*
X322732D01*
X323732Y304984D01*
X439000Y246000D02*
X440000Y247000D01*
X441000D01*
X440000Y248000D01*
X441000Y249000D01*
X440000D01*
X439000Y250000D01*
X438000Y249000D01*
X437000D01*
X438000Y248000D01*
X437000Y247000D01*
X438000D01*
X439000Y246000D01*
X414000Y241000D02*
X415000Y242000D01*
X416000D01*
X415000Y243000D01*
X416000Y244000D01*
X415000D01*
X414000Y245000D01*
X413000Y244000D01*
X412000D01*
X413000Y243000D01*
X412000Y242000D01*
X413000D01*
X414000Y241000D01*
X431000Y237000D02*
X432000Y238000D01*
X433000D01*
X432000Y239000D01*
X433000Y240000D01*
X432000D01*
X431000Y241000D01*
X430000Y240000D01*
X429000D01*
X430000Y239000D01*
X429000Y238000D01*
X430000D01*
X431000Y237000D01*
X435500Y283500D02*
X436500Y284500D01*
X437500D01*
X436500Y285500D01*
X437500Y286500D01*
X436500D01*
X435500Y287500D01*
X434500Y286500D01*
X433500D01*
X434500Y285500D01*
X433500Y284500D01*
X434500D01*
X435500Y283500D01*
X344516Y232126D02*
Y236126D01*
X348516D01*
Y232126D01*
X344516D01*
Y228189D02*
Y232189D01*
X348516D01*
Y228189D01*
X344516D01*
X340579Y232126D02*
Y236126D01*
X344579D01*
Y232126D01*
X340579D01*
Y228189D02*
Y232189D01*
X344579D01*
Y228189D01*
X340579D01*
X336642Y232126D02*
Y236126D01*
X340642D01*
Y232126D01*
X336642D01*
Y228189D02*
Y232189D01*
X340642D01*
Y228189D01*
X336642D01*
X441500Y239500D02*
X442500Y240500D01*
X443500D01*
X442500Y241500D01*
X443500Y242500D01*
X442500D01*
X441500Y243500D01*
X440500Y242500D01*
X439500D01*
X440500Y241500D01*
X439500Y240500D01*
X440500D01*
X441500Y239500D01*
X456000Y328500D02*
X457000Y329500D01*
X458000D01*
X457000Y330500D01*
X458000Y331500D01*
X457000D01*
X456000Y332500D01*
X455000Y331500D01*
X454000D01*
X455000Y330500D01*
X454000Y329500D01*
X455000D01*
X456000Y328500D01*
X444406Y366883D02*
X445406Y367883D01*
X446406D01*
X445406Y368883D01*
X446406Y369883D01*
X445406D01*
X444406Y370883D01*
X443406Y369883D01*
X442406D01*
X443406Y368883D01*
X442406Y367883D01*
X443406D01*
X444406Y366883D01*
X444500Y206000D02*
X445500Y207000D01*
X446500D01*
X445500Y208000D01*
X446500Y209000D01*
X445500D01*
X444500Y210000D01*
X443500Y209000D01*
X442500D01*
X443500Y208000D01*
X442500Y207000D01*
X443500D01*
X444500Y206000D01*
X456910Y265629D02*
X457909Y266629D01*
X458910D01*
X457909Y267629D01*
X458910Y268629D01*
X457909D01*
X456910Y269629D01*
X455909Y268629D01*
X454910D01*
X455909Y267629D01*
X454910Y266629D01*
X455909D01*
X456910Y265629D01*
X462985Y270560D02*
X463985Y271560D01*
X464985D01*
X463985Y272560D01*
X464985Y273560D01*
X463985D01*
X462985Y274560D01*
X461985Y273560D01*
X460985D01*
X461985Y272560D01*
X460985Y271560D01*
X461985D01*
X462985Y270560D01*
X410000Y255500D02*
X411000Y256500D01*
X412000D01*
X411000Y257500D01*
X412000Y258500D01*
X411000D01*
X410000Y259500D01*
X409000Y258500D01*
X408000D01*
X409000Y257500D01*
X408000Y256500D01*
X409000D01*
X410000Y255500D01*
X436500Y218500D02*
X437500Y219500D01*
X438500D01*
X437500Y220500D01*
X438500Y221500D01*
X437500D01*
X436500Y222500D01*
X435500Y221500D01*
X434500D01*
X435500Y220500D01*
X434500Y219500D01*
X435500D01*
X436500Y218500D01*
X439000Y228500D02*
X440000Y229500D01*
X441000D01*
X440000Y230500D01*
X441000Y231500D01*
X440000D01*
X439000Y232500D01*
X438000Y231500D01*
X437000D01*
X438000Y230500D01*
X437000Y229500D01*
X438000D01*
X439000Y228500D01*
X415000Y194000D02*
X416000Y195000D01*
X417000D01*
X416000Y196000D01*
X417000Y197000D01*
X416000D01*
X415000Y198000D01*
X414000Y197000D01*
X413000D01*
X414000Y196000D01*
X413000Y195000D01*
X414000D01*
X415000Y194000D01*
X416000Y348500D02*
X417000Y349500D01*
X418000D01*
X417000Y350500D01*
X418000Y351500D01*
X417000D01*
X416000Y352500D01*
X415000Y351500D01*
X414000D01*
X415000Y350500D01*
X414000Y349500D01*
X415000D01*
X416000Y348500D01*
X357000Y341000D02*
X358000Y342000D01*
X359000D01*
X358000Y343000D01*
X359000Y344000D01*
X358000D01*
X357000Y345000D01*
X356000Y344000D01*
X355000D01*
X356000Y343000D01*
X355000Y342000D01*
X356000D01*
X357000Y341000D01*
X341000Y310000D02*
X342000Y311000D01*
X343000D01*
X342000Y312000D01*
X343000Y313000D01*
X342000D01*
X341000Y314000D01*
X340000Y313000D01*
X339000D01*
X340000Y312000D01*
X339000Y311000D01*
X340000D01*
X341000Y310000D01*
X317000Y322000D02*
X318000Y323000D01*
X319000D01*
X318000Y324000D01*
X319000Y325000D01*
X318000D01*
X317000Y326000D01*
X316000Y325000D01*
X315000D01*
X316000Y324000D01*
X315000Y323000D01*
X316000D01*
X317000Y322000D01*
X324500Y318500D02*
X325500Y319500D01*
X326500D01*
X325500Y320500D01*
X326500Y321500D01*
X325500D01*
X324500Y322500D01*
X323500Y321500D01*
X322500D01*
X323500Y320500D01*
X322500Y319500D01*
X323500D01*
X324500Y318500D01*
X340500Y305500D02*
X341500Y306500D01*
X342500D01*
X341500Y307500D01*
X342500Y308500D01*
X341500D01*
X340500Y309500D01*
X339500Y308500D01*
X338500D01*
X339500Y307500D01*
X338500Y306500D01*
X339500D01*
X340500Y305500D01*
X341500Y301500D02*
X342500Y302500D01*
X343500D01*
X342500Y303500D01*
X343500Y304500D01*
X342500D01*
X341500Y305500D01*
X340500Y304500D01*
X339500D01*
X340500Y303500D01*
X339500Y302500D01*
X340500D01*
X341500Y301500D01*
X522545Y226937D02*
X523545Y227937D01*
X524545D01*
X523545Y228937D01*
X524545Y229937D01*
X523545D01*
X522545Y230937D01*
X521545Y229937D01*
X520545D01*
X521545Y228937D01*
X520545Y227937D01*
X521545D01*
X522545Y226937D01*
X519711Y199845D02*
X520711Y200845D01*
X521711D01*
X520711Y201845D01*
X521711Y202845D01*
X520711D01*
X519711Y203845D01*
X518711Y202845D01*
X517711D01*
X518711Y201845D01*
X517711Y200845D01*
X518711D01*
X519711Y199845D01*
X475000Y202500D02*
X476000Y203500D01*
X477000D01*
X476000Y204500D01*
X477000Y205500D01*
X476000D01*
X475000Y206500D01*
X474000Y205500D01*
X473000D01*
X474000Y204500D01*
X473000Y203500D01*
X474000D01*
X475000Y202500D01*
X452901Y245366D02*
X453901Y246366D01*
X454901D01*
X453901Y247366D01*
X454901Y248366D01*
X453901D01*
X452901Y249366D01*
X451901Y248366D01*
X450901D01*
X451901Y247366D01*
X450901Y246366D01*
X451901D01*
X452901Y245366D01*
X461500Y249500D02*
X462500Y250500D01*
X463500D01*
X462500Y251500D01*
X463500Y252500D01*
X462500D01*
X461500Y253500D01*
X460500Y252500D01*
X459500D01*
X460500Y251500D01*
X459500Y250500D01*
X460500D01*
X461500Y249500D01*
X454500Y232500D02*
X455500Y233500D01*
X456500D01*
X455500Y234500D01*
X456500Y235500D01*
X455500D01*
X454500Y236500D01*
X453500Y235500D01*
X452500D01*
X453500Y234500D01*
X452500Y233500D01*
X453500D01*
X454500Y232500D01*
X457035Y217000D02*
X458036Y218000D01*
X459035D01*
X458036Y219000D01*
X459035Y220000D01*
X458036D01*
X457035Y221000D01*
X456036Y220000D01*
X455035D01*
X456036Y219000D01*
X455035Y218000D01*
X456036D01*
X457035Y217000D01*
X469500Y260500D02*
X470500Y261500D01*
X471500D01*
X470500Y262500D01*
X471500Y263500D01*
X470500D01*
X469500Y264500D01*
X468500Y263500D01*
X467500D01*
X468500Y262500D01*
X467500Y261500D01*
X468500D01*
X469500Y260500D01*
X353982Y255482D02*
X354982Y256482D01*
X355982D01*
X354982Y257482D01*
X355982Y258482D01*
X354982D01*
X353982Y259482D01*
X352982Y258482D01*
X351982D01*
X352982Y257482D01*
X351982Y256482D01*
X352982D01*
X353982Y255482D01*
X344223Y311777D02*
X345223Y312777D01*
X346223D01*
X345223Y313777D01*
X346223Y314777D01*
X345223D01*
X344223Y315777D01*
X343223Y314777D01*
X342223D01*
X343223Y313777D01*
X342223Y312777D01*
X343223D01*
X344223Y311777D01*
X342000Y295000D02*
X343000Y296000D01*
X344000D01*
X343000Y297000D01*
X344000Y298000D01*
X343000D01*
X342000Y299000D01*
X341000Y298000D01*
X340000D01*
X341000Y297000D01*
X340000Y296000D01*
X341000D01*
X342000Y295000D01*
X407299Y206000D02*
X408299Y207000D01*
X409299D01*
X408299Y208000D01*
X409299Y209000D01*
X408299D01*
X407299Y210000D01*
X406299Y209000D01*
X405299D01*
X406299Y208000D01*
X405299Y207000D01*
X406299D01*
X407299Y206000D01*
X448500Y203000D02*
X449500Y204000D01*
X450500D01*
X449500Y205000D01*
X450500Y206000D01*
X449500D01*
X448500Y207000D01*
X447500Y206000D01*
X446500D01*
X447500Y205000D01*
X446500Y204000D01*
X447500D01*
X448500Y203000D01*
X332000Y294500D02*
X333000Y295500D01*
X334000D01*
X333000Y296500D01*
X334000Y297500D01*
X333000D01*
X332000Y298500D01*
X331000Y297500D01*
X330000D01*
X331000Y296500D01*
X330000Y295500D01*
X331000D01*
X332000Y294500D01*
X334500Y287500D02*
X335500Y288500D01*
X336500D01*
X335500Y289500D01*
X336500Y290500D01*
X335500D01*
X334500Y291500D01*
X333500Y290500D01*
X332500D01*
X333500Y289500D01*
X332500Y288500D01*
X333500D01*
X334500Y287500D01*
X437641Y274917D02*
X438641Y275917D01*
X439641D01*
X438641Y276917D01*
X439641Y277917D01*
X438641D01*
X437641Y278917D01*
X436641Y277917D01*
X435641D01*
X436641Y276917D01*
X435641Y275917D01*
X436641D01*
X437641Y274917D01*
X418638Y338500D02*
X419638Y339500D01*
X420638D01*
X419638Y340500D01*
X420638Y341500D01*
X419638D01*
X418638Y342500D01*
X417638Y341500D01*
X416638D01*
X417638Y340500D01*
X416638Y339500D01*
X417638D01*
X418638Y338500D01*
X356500Y294965D02*
X357500Y295965D01*
X358500D01*
X357500Y296965D01*
X358500Y297965D01*
X357500D01*
X356500Y298965D01*
X355500Y297965D01*
X354500D01*
X355500Y296965D01*
X354500Y295965D01*
X355500D01*
X356500Y294965D01*
X409809Y331809D02*
X410809Y332809D01*
X411809D01*
X410809Y333809D01*
X411809Y334809D01*
X410809D01*
X409809Y335809D01*
X408809Y334809D01*
X407809D01*
X408809Y333809D01*
X407809Y332809D01*
X408809D01*
X409809Y331809D01*
X363000Y278000D02*
X364000Y279000D01*
X365000D01*
X364000Y280000D01*
X365000Y281000D01*
X364000D01*
X363000Y282000D01*
X362000Y281000D01*
X361000D01*
X362000Y280000D01*
X361000Y279000D01*
X362000D01*
X363000Y278000D01*
X354000Y321500D02*
X355000Y322500D01*
X356000D01*
X355000Y323500D01*
X356000Y324500D01*
X355000D01*
X354000Y325500D01*
X353000Y324500D01*
X352000D01*
X353000Y323500D01*
X352000Y322500D01*
X353000D01*
X354000Y321500D01*
X337594Y210094D02*
X338594Y211094D01*
X339594D01*
X338594Y212094D01*
X339594Y213094D01*
X338594D01*
X337594Y214094D01*
X336594Y213094D01*
X335594D01*
X336594Y212094D01*
X335594Y211094D01*
X336594D01*
X337594Y210094D01*
X346500Y242000D02*
X347500Y243000D01*
X348500D01*
X347500Y244000D01*
X348500Y245000D01*
X347500D01*
X346500Y246000D01*
X345500Y245000D01*
X344500D01*
X345500Y244000D01*
X344500Y243000D01*
X345500D01*
X346500Y242000D01*
X408976Y222071D02*
Y226071D01*
X412976D01*
Y222071D01*
X408976D01*
X405039D02*
Y226071D01*
X409039D01*
Y222071D01*
X405039D01*
X408976Y226008D02*
Y230008D01*
X412976D01*
Y226008D01*
X408976D01*
X405039D02*
Y230008D01*
X409039D01*
Y226008D01*
X405039D01*
X408976Y229945D02*
Y233945D01*
X412976D01*
Y229945D01*
X408976D01*
X405039D02*
Y233945D01*
X409039D01*
Y229945D01*
X405039D01*
X425641Y264917D02*
X426641Y265917D01*
X427641D01*
X426641Y266917D01*
X427641Y267917D01*
X426641D01*
X425641Y268917D01*
X424641Y267917D01*
X423641D01*
X424641Y266917D01*
X423641Y265917D01*
X424641D01*
X425641Y264917D01*
X428901Y264799D02*
X429901Y265799D01*
X430901D01*
X429901Y266799D01*
X430901Y267799D01*
X429901D01*
X428901Y268799D01*
X427901Y267799D01*
X426901D01*
X427901Y266799D01*
X426901Y265799D01*
X427901D01*
X428901Y264799D01*
X431641Y264917D02*
X432641Y265917D01*
X433641D01*
X432641Y266917D01*
X433641Y267917D01*
X432641D01*
X431641Y268917D01*
X430641Y267917D01*
X429641D01*
X430641Y266917D01*
X429641Y265917D01*
X430641D01*
X431641Y264917D01*
X475008Y297709D02*
X476008Y298709D01*
X477008D01*
X476008Y299709D01*
X477008Y300709D01*
X476008D01*
X475008Y301709D01*
X474008Y300709D01*
X473008D01*
X474008Y299709D01*
X473008Y298709D01*
X474008D01*
X475008Y297709D01*
X485008Y305709D02*
X486008Y306709D01*
X487008D01*
X486008Y307709D01*
X487008Y308709D01*
X486008D01*
X485008Y309709D01*
X484008Y308709D01*
X483008D01*
X484008Y307709D01*
X483008Y306709D01*
X484008D01*
X485008Y305709D01*
X488008D02*
X489008Y306709D01*
X490008D01*
X489008Y307709D01*
X490008Y308709D01*
X489008D01*
X488008Y309709D01*
X487008Y308709D01*
X486008D01*
X487008Y307709D01*
X486008Y306709D01*
X487008D01*
X488008Y305709D01*
X485008Y303209D02*
X486008Y304209D01*
X487008D01*
X486008Y305209D01*
X487008Y306209D01*
X486008D01*
X485008Y307209D01*
X484008Y306209D01*
X483008D01*
X484008Y305209D01*
X483008Y304209D01*
X484008D01*
X485008Y303209D01*
X488008D02*
X489008Y304209D01*
X490008D01*
X489008Y305209D01*
X490008Y306209D01*
X489008D01*
X488008Y307209D01*
X487008Y306209D01*
X486008D01*
X487008Y305209D01*
X486008Y304209D01*
X487008D01*
X488008Y303209D01*
X414500Y356000D02*
X415500Y357000D01*
X416500D01*
X415500Y358000D01*
X416500Y359000D01*
X415500D01*
X414500Y360000D01*
X413500Y359000D01*
X412500D01*
X413500Y358000D01*
X412500Y357000D01*
X413500D01*
X414500Y356000D01*
Y359500D02*
X415500Y360500D01*
X416500D01*
X415500Y361500D01*
X416500Y362500D01*
X415500D01*
X414500Y363500D01*
X413500Y362500D01*
X412500D01*
X413500Y361500D01*
X412500Y360500D01*
X413500D01*
X414500Y359500D01*
Y363000D02*
X415500Y364000D01*
X416500D01*
X415500Y365000D01*
X416500Y366000D01*
X415500D01*
X414500Y367000D01*
X413500Y366000D01*
X412500D01*
X413500Y365000D01*
X412500Y364000D01*
X413500D01*
X414500Y363000D01*
Y367000D02*
X415500Y368000D01*
X416500D01*
X415500Y369000D01*
X416500Y370000D01*
X415500D01*
X414500Y371000D01*
X413500Y370000D01*
X412500D01*
X413500Y369000D01*
X412500Y368000D01*
X413500D01*
X414500Y367000D01*
X457000Y360000D02*
X458000Y361000D01*
X459000D01*
X458000Y362000D01*
X459000Y363000D01*
X458000D01*
X457000Y364000D01*
X456000Y363000D01*
X455000D01*
X456000Y362000D01*
X455000Y361000D01*
X456000D01*
X457000Y360000D01*
Y356000D02*
X458000Y357000D01*
X459000D01*
X458000Y358000D01*
X459000Y359000D01*
X458000D01*
X457000Y360000D01*
X456000Y359000D01*
X455000D01*
X456000Y358000D01*
X455000Y357000D01*
X456000D01*
X457000Y356000D01*
X475008Y317209D02*
X476008Y318209D01*
X477008D01*
X476008Y319209D01*
X477008Y320209D01*
X476008D01*
X475008Y321209D01*
X474008Y320209D01*
X473008D01*
X474008Y319209D01*
X473008Y318209D01*
X474008D01*
X475008Y317209D01*
X399000Y293272D02*
X400000Y294272D01*
X401000D01*
X400000Y295272D01*
X401000Y296272D01*
X400000D01*
X399000Y297272D01*
X398000Y296272D01*
X397000D01*
X398000Y295272D01*
X397000Y294272D01*
X398000D01*
X399000Y293272D01*
X370169Y293020D02*
X371169Y294020D01*
X372169D01*
X371169Y295020D01*
X372169Y296020D01*
X371169D01*
X370169Y297020D01*
X369169Y296020D01*
X368169D01*
X369169Y295020D01*
X368169Y294020D01*
X369169D01*
X370169Y293020D01*
X419500Y275000D02*
X420500Y276000D01*
X421500D01*
X420500Y277000D01*
X421500Y278000D01*
X420500D01*
X419500Y279000D01*
X418500Y278000D01*
X417500D01*
X418500Y277000D01*
X417500Y276000D01*
X418500D01*
X419500Y275000D01*
X312000Y288744D02*
X313000Y289744D01*
X314000D01*
X313000Y290744D01*
X314000Y291744D01*
X313000D01*
X312000Y292744D01*
X311000Y291744D01*
X310000D01*
X311000Y290744D01*
X310000Y289744D01*
X311000D01*
X312000Y288744D01*
X437682Y314244D02*
X438682Y315244D01*
X439682D01*
X438682Y316244D01*
X439682Y317244D01*
X438682D01*
X437682Y318244D01*
X436682Y317244D01*
X435682D01*
X436682Y316244D01*
X435682Y315244D01*
X436682D01*
X437682Y314244D01*
X460965Y282854D02*
X461966Y283854D01*
X462965D01*
X461966Y284854D01*
X462965Y285854D01*
X461966D01*
X460965Y286854D01*
X459966Y285854D01*
X458965D01*
X459966Y284854D01*
X458965Y283854D01*
X459966D01*
X460965Y282854D01*
X385182Y266995D02*
X386182Y267995D01*
X387182D01*
X386182Y268995D01*
X387182Y269995D01*
X386182D01*
X385182Y270995D01*
X384182Y269995D01*
X383182D01*
X384182Y268995D01*
X383182Y267995D01*
X384182D01*
X385182Y266995D01*
X400182Y267495D02*
X401182Y268495D01*
X402182D01*
X401182Y269495D01*
X402182Y270495D01*
X401182D01*
X400182Y271495D01*
X399182Y270495D01*
X398182D01*
X399182Y269495D01*
X398182Y268495D01*
X399182D01*
X400182Y267495D01*
X415433Y267244D02*
X416433Y268244D01*
X417433D01*
X416433Y269244D01*
X417433Y270244D01*
X416433D01*
X415433Y271244D01*
X414433Y270244D01*
X413433D01*
X414433Y269244D01*
X413433Y268244D01*
X414433D01*
X415433Y267244D01*
X479472Y311901D02*
X480472Y312901D01*
X481472D01*
X480472Y313901D01*
X481472Y314901D01*
X480472D01*
X479472Y315901D01*
X478472Y314901D01*
X477472D01*
X478472Y313901D01*
X477472Y312901D01*
X478472D01*
X479472Y311901D01*
X493682Y311744D02*
X494682Y312744D01*
X495682D01*
X494682Y313744D01*
X495682Y314744D01*
X494682D01*
X493682Y315744D01*
X492682Y314744D01*
X491682D01*
X492682Y313744D01*
X491682Y312744D01*
X492682D01*
X493682Y311744D01*
X479682Y296744D02*
X480682Y297744D01*
X481682D01*
X480682Y298744D01*
X481682Y299744D01*
X480682D01*
X479682Y300744D01*
X478682Y299744D01*
X477682D01*
X478682Y298744D01*
X477682Y297744D01*
X478682D01*
X479682Y296744D01*
X493838Y296087D02*
X494838Y297087D01*
X495838D01*
X494838Y298087D01*
X495838Y299087D01*
X494838D01*
X493838Y300087D01*
X492838Y299087D01*
X491838D01*
X492838Y298087D01*
X491838Y297087D01*
X492838D01*
X493838Y296087D01*
X498000Y298000D02*
X499000Y299000D01*
X500000D01*
X499000Y300000D01*
X500000Y301000D01*
X499000D01*
X498000Y302000D01*
X497000Y301000D01*
X496000D01*
X497000Y300000D01*
X496000Y299000D01*
X497000D01*
X498000Y298000D01*
X439000Y342000D02*
X440000Y343000D01*
X441000D01*
X440000Y344000D01*
X441000Y345000D01*
X440000D01*
X439000Y346000D01*
X438000Y345000D01*
X437000D01*
X438000Y344000D01*
X437000Y343000D01*
X438000D01*
X439000Y342000D01*
X437682Y327598D02*
X438682Y328598D01*
X439682D01*
X438682Y329598D01*
X439682Y330598D01*
X438682D01*
X437682Y331598D01*
X436682Y330598D01*
X435682D01*
X436682Y329598D01*
X435682Y328598D01*
X436682D01*
X437682Y327598D01*
X411000Y307500D02*
X412000Y308500D01*
X413000D01*
X412000Y309500D01*
X413000Y310500D01*
X412000D01*
X411000Y311500D01*
X410000Y310500D01*
X409000D01*
X410000Y309500D01*
X409000Y308500D01*
X410000D01*
X411000Y307500D01*
X449500Y280890D02*
X450500Y281890D01*
X451500D01*
X450500Y282890D01*
X451500Y283890D01*
X450500D01*
X449500Y284890D01*
X448500Y283890D01*
X447500D01*
X448500Y282890D01*
X447500Y281890D01*
X448500D01*
X449500Y280890D01*
X331500Y208500D02*
X332500Y209500D01*
X333500D01*
X332500Y210500D01*
X333500Y211500D01*
X332500D01*
X331500Y212500D01*
X330500Y211500D01*
X329500D01*
X330500Y210500D01*
X329500Y209500D01*
X330500D01*
X331500Y208500D01*
X318500Y288744D02*
X319500Y289744D01*
X320500D01*
X319500Y290744D01*
X320500Y291744D01*
X319500D01*
X318500Y292744D01*
X317500Y291744D01*
X316500D01*
X317500Y290744D01*
X316500Y289744D01*
X317500D01*
X318500Y288744D01*
X353500Y210000D02*
X354500Y211000D01*
X355500D01*
X354500Y212000D01*
X355500Y213000D01*
X354500D01*
X353500Y214000D01*
X352500Y213000D01*
X351500D01*
X352500Y212000D01*
X351500Y211000D01*
X352500D01*
X353500Y210000D01*
X364968Y283609D02*
X365968Y284609D01*
X366968D01*
X365968Y285609D01*
X366968Y286609D01*
X365968D01*
X364968Y287609D01*
X363968Y286609D01*
X362968D01*
X363968Y285609D01*
X362968Y284609D01*
X363968D01*
X364968Y283609D01*
X352500Y218500D02*
X353500Y219500D01*
X354500D01*
X353500Y220500D01*
X354500Y221500D01*
X353500D01*
X352500Y222500D01*
X351500Y221500D01*
X350500D01*
X351500Y220500D01*
X350500Y219500D01*
X351500D01*
X352500Y218500D01*
X317000Y327000D02*
X318000Y328000D01*
X319000D01*
X318000Y329000D01*
X319000Y330000D01*
X318000D01*
X317000Y331000D01*
X316000Y330000D01*
X315000D01*
X316000Y329000D01*
X315000Y328000D01*
X316000D01*
X317000Y327000D01*
X480000Y196343D02*
X481000Y197343D01*
X482000D01*
X481000Y198343D01*
X482000Y199343D01*
X481000D01*
X480000Y200342D01*
X479000Y199343D01*
X478000D01*
X479000Y198343D01*
X478000Y197343D01*
X479000D01*
X480000Y196343D01*
X540000Y207740D02*
X541000Y208740D01*
X542000D01*
X541000Y209740D01*
X542000Y210740D01*
X541000D01*
X540000Y211740D01*
X539000Y210740D01*
X538000D01*
X539000Y209740D01*
X538000Y208740D01*
X539000D01*
X540000Y207740D01*
X485410Y272561D02*
X486410Y273561D01*
X487410D01*
X486410Y274561D01*
X487410Y275561D01*
X486410D01*
X485410Y276561D01*
X484410Y275561D01*
X483410D01*
X484410Y274561D01*
X483410Y273561D01*
X484410D01*
X485410Y272561D01*
X499410Y273697D02*
X500410Y274697D01*
X501410D01*
X500410Y275697D01*
X501410Y276697D01*
X500410D01*
X499410Y277697D01*
X498410Y276697D01*
X497410D01*
X498410Y275697D01*
X497410Y274697D01*
X498410D01*
X499410Y273697D01*
X506000Y272500D02*
X507000Y273500D01*
X508000D01*
X507000Y274500D01*
X508000Y275500D01*
X507000D01*
X506000Y276500D01*
X505000Y275500D01*
X504000D01*
X505000Y274500D01*
X504000Y273500D01*
X505000D01*
X506000Y272500D01*
X477500Y272502D02*
X478500Y273502D01*
X479500D01*
X478500Y274502D01*
X479500Y275502D01*
X478500D01*
X477500Y276502D01*
X476500Y275502D01*
X475500D01*
X476500Y274502D01*
X475500Y273502D01*
X476500D01*
X477500Y272502D01*
X469500Y271522D02*
X470500Y272522D01*
X471500D01*
X470500Y273522D01*
X471500Y274522D01*
X470500D01*
X469500Y275522D01*
X468500Y274522D01*
X467500D01*
X468500Y273522D01*
X467500Y272522D01*
X468500D01*
X469500Y271522D01*
X479000Y356500D02*
X480000Y357500D01*
X481000D01*
X480000Y358500D01*
X481000Y359500D01*
X480000D01*
X479000Y360500D01*
X478000Y359500D01*
X477000D01*
X478000Y358500D01*
X477000Y357500D01*
X478000D01*
X479000Y356500D01*
Y360500D02*
X480000Y361500D01*
X481000D01*
X480000Y362500D01*
X481000Y363500D01*
X480000D01*
X479000Y364500D01*
X478000Y363500D01*
X477000D01*
X478000Y362500D01*
X477000Y361500D01*
X478000D01*
X479000Y360500D01*
Y364000D02*
X480000Y365000D01*
X481000D01*
X480000Y366000D01*
X481000Y367000D01*
X480000D01*
X479000Y368000D01*
X478000Y367000D01*
X477000D01*
X478000Y366000D01*
X477000Y365000D01*
X478000D01*
X479000Y364000D01*
Y367500D02*
X480000Y368500D01*
X481000D01*
X480000Y369500D01*
X481000Y370500D01*
X480000D01*
X479000Y371500D01*
X478000Y370500D01*
X477000D01*
X478000Y369500D01*
X477000Y368500D01*
X478000D01*
X479000Y367500D01*
X497500Y356000D02*
X498500Y357000D01*
X499500D01*
X498500Y358000D01*
X499500Y359000D01*
X498500D01*
X497500Y360000D01*
X496500Y359000D01*
X495500D01*
X496500Y358000D01*
X495500Y357000D01*
X496500D01*
X497500Y356000D01*
Y359500D02*
X498500Y360500D01*
X499500D01*
X498500Y361500D01*
X499500Y362500D01*
X498500D01*
X497500Y363500D01*
X496500Y362500D01*
X495500D01*
X496500Y361500D01*
X495500Y360500D01*
X496500D01*
X497500Y359500D01*
Y363000D02*
X498500Y364000D01*
X499500D01*
X498500Y365000D01*
X499500Y366000D01*
X498500D01*
X497500Y367000D01*
X496500Y366000D01*
X495500D01*
X496500Y365000D01*
X495500Y364000D01*
X496500D01*
X497500Y363000D01*
Y366500D02*
X498500Y367500D01*
X499500D01*
X498500Y368500D01*
X499500Y369500D01*
X498500D01*
X497500Y370500D01*
X496500Y369500D01*
X495500D01*
X496500Y368500D01*
X495500Y367500D01*
X496500D01*
X497500Y366500D01*
X519500Y356000D02*
X520500Y357000D01*
X521500D01*
X520500Y358000D01*
X521500Y359000D01*
X520500D01*
X519500Y360000D01*
X518500Y359000D01*
X517500D01*
X518500Y358000D01*
X517500Y357000D01*
X518500D01*
X519500Y356000D01*
Y359500D02*
X520500Y360500D01*
X521500D01*
X520500Y361500D01*
X521500Y362500D01*
X520500D01*
X519500Y363500D01*
X518500Y362500D01*
X517500D01*
X518500Y361500D01*
X517500Y360500D01*
X518500D01*
X519500Y359500D01*
Y363000D02*
X520500Y364000D01*
X521500D01*
X520500Y365000D01*
X521500Y366000D01*
X520500D01*
X519500Y367000D01*
X518500Y366000D01*
X517500D01*
X518500Y365000D01*
X517500Y364000D01*
X518500D01*
X519500Y363000D01*
Y366500D02*
X520500Y367500D01*
X521500D01*
X520500Y368500D01*
X521500Y369500D01*
X520500D01*
X519500Y370500D01*
X518500Y369500D01*
X517500D01*
X518500Y368500D01*
X517500Y367500D01*
X518500D01*
X519500Y366500D01*
X549500Y366000D02*
X550500Y367000D01*
X551500D01*
X550500Y368000D01*
X551500Y369000D01*
X550500D01*
X549500Y370000D01*
X548500Y369000D01*
X547500D01*
X548500Y368000D01*
X547500Y367000D01*
X548500D01*
X549500Y366000D01*
X546000D02*
X547000Y367000D01*
X548000D01*
X547000Y368000D01*
X548000Y369000D01*
X547000D01*
X546000Y370000D01*
X545000Y369000D01*
X544000D01*
X545000Y368000D01*
X544000Y367000D01*
X545000D01*
X546000Y366000D01*
X542500D02*
X543500Y367000D01*
X544500D01*
X543500Y368000D01*
X544500Y369000D01*
X543500D01*
X542500Y370000D01*
X541500Y369000D01*
X540500D01*
X541500Y368000D01*
X540500Y367000D01*
X541500D01*
X542500Y366000D01*
X539000D02*
X540000Y367000D01*
X541000D01*
X540000Y368000D01*
X541000Y369000D01*
X540000D01*
X539000Y370000D01*
X538000Y369000D01*
X537000D01*
X538000Y368000D01*
X537000Y367000D01*
X538000D01*
X539000Y366000D01*
X549500Y343500D02*
X550500Y344500D01*
X551500D01*
X550500Y345500D01*
X551500Y346500D01*
X550500D01*
X549500Y347500D01*
X548500Y346500D01*
X547500D01*
X548500Y345500D01*
X547500Y344500D01*
X548500D01*
X549500Y343500D01*
X546000D02*
X547000Y344500D01*
X548000D01*
X547000Y345500D01*
X548000Y346500D01*
X547000D01*
X546000Y347500D01*
X545000Y346500D01*
X544000D01*
X545000Y345500D01*
X544000Y344500D01*
X545000D01*
X546000Y343500D01*
X542500D02*
X543500Y344500D01*
X544500D01*
X543500Y345500D01*
X544500Y346500D01*
X543500D01*
X542500Y347500D01*
X541500Y346500D01*
X540500D01*
X541500Y345500D01*
X540500Y344500D01*
X541500D01*
X542500Y343500D01*
X539000D02*
X540000Y344500D01*
X541000D01*
X540000Y345500D01*
X541000Y346500D01*
X540000D01*
X539000Y347500D01*
X538000Y346500D01*
X537000D01*
X538000Y345500D01*
X537000Y344500D01*
X538000D01*
X539000Y343500D01*
X514248Y314000D02*
X515248Y315000D01*
X516248D01*
X515248Y316000D01*
X516248Y317000D01*
X515248D01*
X514248Y318000D01*
X513248Y317000D01*
X512248D01*
X513248Y316000D01*
X512248Y315000D01*
X513248D01*
X514248Y314000D01*
X527752Y309000D02*
X528752Y310000D01*
X529752D01*
X528752Y311000D01*
X529752Y312000D01*
X528752D01*
X527752Y313000D01*
X526752Y312000D01*
X525752D01*
X526752Y311000D01*
X525752Y310000D01*
X526752D01*
X527752Y309000D01*
X538500Y252500D02*
X539500Y253500D01*
X540500D01*
X539500Y254500D01*
X540500Y255500D01*
X539500D01*
X538500Y256500D01*
X537500Y255500D01*
X536500D01*
X537500Y254500D01*
X536500Y253500D01*
X537500D01*
X538500Y252500D01*
X542000D02*
X543000Y253500D01*
X544000D01*
X543000Y254500D01*
X544000Y255500D01*
X543000D01*
X542000Y256500D01*
X541000Y255500D01*
X540000D01*
X541000Y254500D01*
X540000Y253500D01*
X541000D01*
X542000Y252500D01*
X545500D02*
X546500Y253500D01*
X547500D01*
X546500Y254500D01*
X547500Y255500D01*
X546500D01*
X545500Y256500D01*
X544500Y255500D01*
X543500D01*
X544500Y254500D01*
X543500Y253500D01*
X544500D01*
X545500Y252500D01*
X549000D02*
X550000Y253500D01*
X551000D01*
X550000Y254500D01*
X551000Y255500D01*
X550000D01*
X549000Y256500D01*
X548000Y255500D01*
X547000D01*
X548000Y254500D01*
X547000Y253500D01*
X548000D01*
X549000Y252500D01*
X538500Y275000D02*
X539500Y276000D01*
X540500D01*
X539500Y277000D01*
X540500Y278000D01*
X539500D01*
X538500Y279000D01*
X537500Y278000D01*
X536500D01*
X537500Y277000D01*
X536500Y276000D01*
X537500D01*
X538500Y275000D01*
X542000D02*
X543000Y276000D01*
X544000D01*
X543000Y277000D01*
X544000Y278000D01*
X543000D01*
X542000Y279000D01*
X541000Y278000D01*
X540000D01*
X541000Y277000D01*
X540000Y276000D01*
X541000D01*
X542000Y275000D01*
X545500D02*
X546500Y276000D01*
X547500D01*
X546500Y277000D01*
X547500Y278000D01*
X546500D01*
X545500Y279000D01*
X544500Y278000D01*
X543500D01*
X544500Y277000D01*
X543500Y276000D01*
X544500D01*
X545500Y275000D01*
X549000D02*
X550000Y276000D01*
X551000D01*
X550000Y277000D01*
X551000Y278000D01*
X550000D01*
X549000Y279000D01*
X548000Y278000D01*
X547000D01*
X548000Y277000D01*
X547000Y276000D01*
X548000D01*
X549000Y275000D01*
X322000Y267000D02*
X323000Y268000D01*
X324000D01*
X323000Y269000D01*
X324000Y270000D01*
X323000D01*
X322000Y271000D01*
X321000Y270000D01*
X320000D01*
X321000Y269000D01*
X320000Y268000D01*
X321000D01*
X322000Y267000D01*
X368000Y323500D02*
X369000Y324500D01*
X370000D01*
X369000Y325500D01*
X370000Y326500D01*
X369000D01*
X368000Y327500D01*
X367000Y326500D01*
X366000D01*
X367000Y325500D01*
X366000Y324500D01*
X367000D01*
X368000Y323500D01*
X383482Y307018D02*
X384482Y308018D01*
X385482D01*
X384482Y309018D01*
X385482Y310018D01*
X384482D01*
X383482Y311018D01*
X382482Y310018D01*
X381482D01*
X382482Y309018D01*
X381482Y308018D01*
X382482D01*
X383482Y307018D01*
X391799Y210587D02*
X392799Y211587D01*
X393799D01*
X392799Y212587D01*
X393799Y213587D01*
X392799D01*
X391799Y214587D01*
X390799Y213587D01*
X389799D01*
X390799Y212587D01*
X389799Y211587D01*
X390799D01*
X391799Y210587D01*
X467478Y196500D02*
X468478Y197500D01*
X469478D01*
X468478Y198500D01*
X469478Y199500D01*
X468478D01*
X467478Y200500D01*
X466478Y199500D01*
X465478D01*
X466478Y198500D01*
X465478Y197500D01*
X466478D01*
X467478Y196500D01*
X466000Y205000D02*
X467000Y206000D01*
X468000D01*
X467000Y207000D01*
X468000Y208000D01*
X467000D01*
X466000Y209000D01*
X465000Y208000D01*
X464000D01*
X465000Y207000D01*
X464000Y206000D01*
X465000D01*
X466000Y205000D01*
X474941Y215000D02*
X475941Y216000D01*
X476941D01*
X475941Y217000D01*
X476941Y218000D01*
X475941D01*
X474941Y219000D01*
X473941Y218000D01*
X472941D01*
X473941Y217000D01*
X472941Y216000D01*
X473941D01*
X474941Y215000D01*
X436500Y367000D02*
X437500Y368000D01*
X438500D01*
X437500Y369000D01*
X438500Y370000D01*
X437500D01*
X436500Y371000D01*
X435500Y370000D01*
X434500D01*
X435500Y369000D01*
X434500Y368000D01*
X435500D01*
X436500Y367000D01*
Y364000D02*
X437500Y365000D01*
X438500D01*
X437500Y366000D01*
X438500Y367000D01*
X437500D01*
X436500Y368000D01*
X435500Y367000D01*
X434500D01*
X435500Y366000D01*
X434500Y365000D01*
X435500D01*
X436500Y364000D01*
Y360000D02*
X437500Y361000D01*
X438500D01*
X437500Y362000D01*
X438500Y363000D01*
X437500D01*
X436500Y364000D01*
X435500Y363000D01*
X434500D01*
X435500Y362000D01*
X434500Y361000D01*
X435500D01*
X436500Y360000D01*
Y356500D02*
X437500Y357500D01*
X438500D01*
X437500Y358500D01*
X438500Y359500D01*
X437500D01*
X436500Y360500D01*
X435500Y359500D01*
X434500D01*
X435500Y358500D01*
X434500Y357500D01*
X435500D01*
X436500Y356500D01*
X418500Y343362D02*
X419500Y344362D01*
X420500D01*
X419500Y345362D01*
X420500Y346362D01*
X419500D01*
X418500Y347362D01*
X417500Y346362D01*
X416500D01*
X417500Y345362D01*
X416500Y344362D01*
X417500D01*
X418500Y343362D01*
X460500Y333638D02*
X461500Y334638D01*
X462500D01*
X461500Y335638D01*
X462500Y336638D01*
X461500D01*
X460500Y337638D01*
X459500Y336638D01*
X458500D01*
X459500Y335638D01*
X458500Y334638D01*
X459500D01*
X460500Y333638D01*
X414342Y320000D02*
X415343Y321000D01*
X416342D01*
X415343Y322000D01*
X416342Y323000D01*
X415343D01*
X414342Y324000D01*
X413343Y323000D01*
X412343D01*
X413343Y322000D01*
X412343Y321000D01*
X413343D01*
X414342Y320000D01*
X374500Y346709D02*
X375500Y347709D01*
X376500D01*
X375500Y348709D01*
X376500Y349709D01*
X375500D01*
X374500Y350709D01*
X373500Y349709D01*
X372500D01*
X373500Y348709D01*
X372500Y347709D01*
X373500D01*
X374500Y346709D01*
X393500Y337000D02*
X394500Y338000D01*
X395500D01*
X394500Y339000D01*
X395500Y340000D01*
X394500D01*
X393500Y341000D01*
X392500Y340000D01*
X391500D01*
X392500Y339000D01*
X391500Y338000D01*
X392500D01*
X393500Y337000D01*
X494500Y324500D02*
X495500Y325500D01*
X496500D01*
X495500Y326500D01*
X496500Y327500D01*
X495500D01*
X494500Y328500D01*
X493500Y327500D01*
X492500D01*
X493500Y326500D01*
X492500Y325500D01*
X493500D01*
X494500Y324500D01*
X492817Y321817D02*
X493817Y322817D01*
X494817D01*
X493817Y323817D01*
X494817Y324817D01*
X493817D01*
X492817Y325817D01*
X491817Y324817D01*
X490817D01*
X491817Y323817D01*
X490817Y322817D01*
X491817D01*
X492817Y321817D01*
X482248Y325209D02*
X483248Y326209D01*
X484248D01*
X483248Y327209D01*
X484248Y328209D01*
X483248D01*
X482248Y329209D01*
X481248Y328209D01*
X480248D01*
X481248Y327209D01*
X480248Y326209D01*
X481248D01*
X482248Y325209D01*
X478967Y287709D02*
X479967Y288709D01*
X480967D01*
X479967Y289709D01*
X480967Y290709D01*
X479967D01*
X478967Y291709D01*
X477967Y290709D01*
X476967D01*
X477967Y289709D01*
X476967Y288709D01*
X477967D01*
X478967Y287709D01*
X445437Y301063D02*
X446437Y302063D01*
X447437D01*
X446437Y303063D01*
X447437Y304063D01*
X446437D01*
X445437Y305063D01*
X444437Y304063D01*
X443437D01*
X444437Y303063D01*
X443437Y302063D01*
X444437D01*
X445437Y301063D01*
X320500Y239453D02*
X321500Y240453D01*
X322500D01*
X321500Y241453D01*
X322500Y242453D01*
X321500D01*
X320500Y243453D01*
X319500Y242453D01*
X318500D01*
X319500Y241453D01*
X318500Y240453D01*
X319500D01*
X320500Y239453D01*
X322551Y244949D02*
X323551Y245949D01*
X324551D01*
X323551Y246949D01*
X324551Y247949D01*
X323551D01*
X322551Y248949D01*
X321551Y247949D01*
X320551D01*
X321551Y246949D01*
X320551Y245949D01*
X321551D01*
X322551Y244949D01*
X323000Y226000D02*
X324000Y227000D01*
X325000D01*
X324000Y228000D01*
X325000Y229000D01*
X324000D01*
X323000Y230000D01*
X322000Y229000D01*
X321000D01*
X322000Y228000D01*
X321000Y227000D01*
X322000D01*
X323000Y226000D01*
X341000Y250000D02*
X342000Y251000D01*
X343000D01*
X342000Y252000D01*
X343000Y253000D01*
X342000D01*
X341000Y254000D01*
X340000Y253000D01*
X339000D01*
X340000Y252000D01*
X339000Y251000D01*
X340000D01*
X341000Y250000D01*
X382500Y242500D02*
X383500Y243500D01*
X384500D01*
X383500Y244500D01*
X384500Y245500D01*
X383500D01*
X382500Y246500D01*
X381500Y245500D01*
X380500D01*
X381500Y244500D01*
X380500Y243500D01*
X381500D01*
X382500Y242500D01*
X423500Y289000D02*
X424500Y290000D01*
X425500D01*
X424500Y291000D01*
X425500Y292000D01*
X424500D01*
X423500Y293000D01*
X422500Y292000D01*
X421500D01*
X422500Y291000D01*
X421500Y290000D01*
X422500D01*
X423500Y289000D01*
X422874Y203500D02*
X423874Y204500D01*
X424874D01*
X423874Y205500D01*
X424874Y206500D01*
X423874D01*
X422874Y207500D01*
X421874Y206500D01*
X420874D01*
X421874Y205500D01*
X420874Y204500D01*
X421874D01*
X422874Y203500D01*
X472000Y229000D02*
X473000Y230000D01*
X474000D01*
X473000Y231000D01*
X474000Y232000D01*
X473000D01*
X472000Y233000D01*
X471000Y232000D01*
X470000D01*
X471000Y231000D01*
X470000Y230000D01*
X471000D01*
X472000Y229000D01*
X493000Y215500D02*
X494000Y216500D01*
X495000D01*
X494000Y217500D01*
X495000Y218500D01*
X494000D01*
X493000Y219500D01*
X492000Y218500D01*
X491000D01*
X492000Y217500D01*
X491000Y216500D01*
X492000D01*
X493000Y215500D01*
X448000Y258500D02*
X449000Y259500D01*
X450000D01*
X449000Y260500D01*
X450000Y261500D01*
X449000D01*
X448000Y262500D01*
X447000Y261500D01*
X446000D01*
X447000Y260500D01*
X446000Y259500D01*
X447000D01*
X448000Y258500D01*
X457000Y364000D02*
X458000Y365000D01*
X459000D01*
X458000Y366000D01*
X459000Y367000D01*
X458000D01*
X457000Y368000D01*
X456000Y367000D01*
X455000D01*
X456000Y366000D01*
X455000Y365000D01*
X456000D01*
X457000Y364000D01*
Y367500D02*
X458000Y368500D01*
X459000D01*
X458000Y369500D01*
X459000Y370500D01*
X458000D01*
X457000Y371500D01*
X456000Y370500D01*
X455000D01*
X456000Y369500D01*
X455000Y368500D01*
X456000D01*
X457000Y367500D01*
X483500Y249000D02*
X484500Y250000D01*
X485500D01*
X484500Y251000D01*
X485500Y252000D01*
X484500D01*
X483500Y253000D01*
X482500Y252000D01*
X481500D01*
X482500Y251000D01*
X481500Y250000D01*
X482500D01*
X483500Y249000D01*
X492910Y277410D02*
X493910Y278410D01*
X494910D01*
X493910Y279410D01*
X494910Y280410D01*
X493910D01*
X492910Y281410D01*
X491910Y280410D01*
X490910D01*
X491910Y279410D01*
X490910Y278410D01*
X491910D01*
X492910Y277410D01*
X453500Y349000D02*
X454500Y350000D01*
X455500D01*
X454500Y351000D01*
X455500Y352000D01*
X454500D01*
X453500Y353000D01*
X452500Y352000D01*
X451500D01*
X452500Y351000D01*
X451500Y350000D01*
X452500D01*
X453500Y349000D01*
X484000Y234500D02*
X485000Y235500D01*
X486000D01*
X485000Y236500D01*
X486000Y237500D01*
X485000D01*
X484000Y238500D01*
X483000Y237500D01*
X482000D01*
X483000Y236500D01*
X482000Y235500D01*
X483000D01*
X484000Y234500D01*
X496000Y223000D02*
X497000Y224000D01*
X498000D01*
X497000Y225000D01*
X498000Y226000D01*
X497000D01*
X496000Y227000D01*
X495000Y226000D01*
X494000D01*
X495000Y225000D01*
X494000Y224000D01*
X495000D01*
X496000Y223000D01*
X481500Y217000D02*
X482500Y218000D01*
X483500D01*
X482500Y219000D01*
X483500Y220000D01*
X482500D01*
X481500Y221000D01*
X480500Y220000D01*
X479500D01*
X480500Y219000D01*
X479500Y218000D01*
X480500D01*
X481500Y217000D01*
X467500Y222000D02*
X468500Y223000D01*
X469500D01*
X468500Y224000D01*
X469500Y225000D01*
X468500D01*
X467500Y226000D01*
X466500Y225000D01*
X465500D01*
X466500Y224000D01*
X465500Y223000D01*
X466500D01*
X467500Y222000D01*
X364000Y201500D02*
X365000Y202500D01*
X366000D01*
X365000Y203500D01*
X366000Y204500D01*
X365000D01*
X364000Y205500D01*
X363000Y204500D01*
X362000D01*
X363000Y203500D01*
X362000Y202500D01*
X363000D01*
X364000Y201500D01*
X344500Y255000D02*
X345500Y256000D01*
X346500D01*
X345500Y257000D01*
X346500Y258000D01*
X345500D01*
X344500Y259000D01*
X343500Y258000D01*
X342500D01*
X343500Y257000D01*
X342500Y256000D01*
X343500D01*
X344500Y255000D01*
X425114Y232587D02*
X426114Y233587D01*
X427114D01*
X426114Y234587D01*
X427114Y235587D01*
X426114D01*
X425114Y236587D01*
X424114Y235587D01*
X423114D01*
X424114Y234587D01*
X423114Y233587D01*
X424114D01*
X425114Y232587D01*
X360268Y299268D02*
X361268Y300268D01*
X362268D01*
X361268Y301268D01*
X362268Y302268D01*
X361268D01*
X360268Y303268D01*
X359268Y302268D01*
X358268D01*
X359268Y301268D01*
X358268Y300268D01*
X359268D01*
X360268Y299268D01*
X429500Y331000D02*
X430500Y332000D01*
X431500D01*
X430500Y333000D01*
X431500Y334000D01*
X430500D01*
X429500Y335000D01*
X428500Y334000D01*
X427500D01*
X428500Y333000D01*
X427500Y332000D01*
X428500D01*
X429500Y331000D01*
X397000Y203000D02*
X398000Y204000D01*
X399000D01*
X398000Y205000D01*
X399000Y206000D01*
X398000D01*
X397000Y207000D01*
X396000Y206000D01*
X395000D01*
X396000Y205000D01*
X395000Y204000D01*
X396000D01*
X397000Y203000D01*
X387500Y203500D02*
X388500Y204500D01*
X389500D01*
X388500Y205500D01*
X389500Y206500D01*
X388500D01*
X387500Y207500D01*
X386500Y206500D01*
X385500D01*
X386500Y205500D01*
X385500Y204500D01*
X386500D01*
X387500Y203500D01*
X384500Y298500D02*
X385500Y299500D01*
X386500D01*
X385500Y300500D01*
X386500Y301500D01*
X385500D01*
X384500Y302500D01*
X383500Y301500D01*
X382500D01*
X383500Y300500D01*
X382500Y299500D01*
X383500D01*
X384500Y298500D01*
X369500Y301000D02*
X370500Y302000D01*
X371500D01*
X370500Y303000D01*
X371500Y304000D01*
X370500D01*
X369500Y305000D01*
X368500Y304000D01*
X367500D01*
X368500Y303000D01*
X367500Y302000D01*
X368500D01*
X369500Y301000D01*
X387000Y334000D02*
X388000Y335000D01*
X389000D01*
X388000Y336000D01*
X389000Y337000D01*
X388000D01*
X387000Y338000D01*
X386000Y337000D01*
X385000D01*
X386000Y336000D01*
X385000Y335000D01*
X386000D01*
X387000Y334000D01*
X384108Y331072D02*
X385108Y332072D01*
X386108D01*
X385108Y333072D01*
X386108Y334072D01*
X385108D01*
X384108Y335072D01*
X383108Y334072D01*
X382108D01*
X383108Y333072D01*
X382108Y332072D01*
X383108D01*
X384108Y331072D01*
X390000Y336000D02*
X391000Y337000D01*
X392000D01*
X391000Y338000D01*
X392000Y339000D01*
X391000D01*
X390000Y340000D01*
X389000Y339000D01*
X388000D01*
X389000Y338000D01*
X388000Y337000D01*
X389000D01*
X390000Y336000D01*
X384000Y310000D02*
X385000Y311000D01*
X386000D01*
X385000Y312000D01*
X386000Y313000D01*
X385000D01*
X384000Y314000D01*
X383000Y313000D01*
X382000D01*
X383000Y312000D01*
X382000Y311000D01*
X383000D01*
X384000Y310000D01*
X360000Y315500D02*
X361000Y316500D01*
X362000D01*
X361000Y317500D01*
X362000Y318500D01*
X361000D01*
X360000Y319500D01*
X359000Y318500D01*
X358000D01*
X359000Y317500D01*
X358000Y316500D01*
X359000D01*
X360000Y315500D01*
X375000Y255500D02*
X376000Y256500D01*
X377000D01*
X376000Y257500D01*
X377000Y258500D01*
X376000D01*
X375000Y259500D01*
X374000Y258500D01*
X373000D01*
X374000Y257500D01*
X373000Y256500D01*
X374000D01*
X375000Y255500D01*
X471518Y247518D02*
X472518Y248518D01*
X473518D01*
X472518Y249518D01*
X473518Y250518D01*
X472518D01*
X471518Y251518D01*
X470518Y250518D01*
X469518D01*
X470518Y249518D01*
X469518Y248518D01*
X470518D01*
X471518Y247518D01*
X475000Y240500D02*
X476000Y241500D01*
X477000D01*
X476000Y242500D01*
X477000Y243500D01*
X476000D01*
X475000Y244500D01*
X474000Y243500D01*
X473000D01*
X474000Y242500D01*
X473000Y241500D01*
X474000D01*
X475000Y240500D01*
X502000Y342000D02*
X503000Y343000D01*
X504000D01*
X503000Y344000D01*
X504000Y345000D01*
X503000D01*
X502000Y346000D01*
X501000Y345000D01*
X500000D01*
X501000Y344000D01*
X500000Y343000D01*
X501000D01*
X502000Y342000D01*
X320000Y209500D02*
X321000Y210500D01*
X322000D01*
X321000Y211500D01*
X322000Y212500D01*
X321000D01*
X320000Y213500D01*
X319000Y212500D01*
X318000D01*
X319000Y211500D01*
X318000Y210500D01*
X319000D01*
X320000Y209500D01*
X368000Y214000D02*
X369000Y215000D01*
X370000D01*
X369000Y216000D01*
X370000Y217000D01*
X369000D01*
X368000Y218000D01*
X367000Y217000D01*
X366000D01*
X367000Y216000D01*
X366000Y215000D01*
X367000D01*
X368000Y214000D01*
X370563Y333913D02*
X371563Y334913D01*
X372563D01*
X371563Y335913D01*
X372563Y336913D01*
X371563D01*
X370563Y337913D01*
X369563Y336913D01*
X368563D01*
X369563Y335913D01*
X368563Y334913D01*
X369563D01*
X370563Y333913D01*
X361000Y242500D02*
X362000Y243500D01*
X363000D01*
X362000Y244500D01*
X363000Y245500D01*
X362000D01*
X361000Y246500D01*
X360000Y245500D01*
X359000D01*
X360000Y244500D01*
X359000Y243500D01*
X360000D01*
X361000Y242500D01*
X411000Y303441D02*
X412000Y304441D01*
X413000D01*
X412000Y305441D01*
X413000Y306441D01*
X412000D01*
X411000Y307441D01*
X410000Y306441D01*
X409000D01*
X410000Y305441D01*
X409000Y304441D01*
X410000D01*
X411000Y303441D01*
X368000Y288000D02*
X369000Y289000D01*
X370000D01*
X369000Y290000D01*
X370000Y291000D01*
X369000D01*
X368000Y292000D01*
X367000Y291000D01*
X366000D01*
X367000Y290000D01*
X366000Y289000D01*
X367000D01*
X368000Y288000D01*
X345000Y292000D02*
X346000Y293000D01*
X347000D01*
X346000Y294000D01*
X347000Y295000D01*
X346000D01*
X345000Y296000D01*
X344000Y295000D01*
X343000D01*
X344000Y294000D01*
X343000Y293000D01*
X344000D01*
X345000Y292000D01*
X349500Y321500D02*
X350500Y322500D01*
X351500D01*
X350500Y323500D01*
X351500Y324500D01*
X350500D01*
X349500Y325500D01*
X348500Y324500D01*
X347500D01*
X348500Y323500D01*
X347500Y322500D01*
X348500D01*
X349500Y321500D01*
X506222Y267774D02*
X507222Y268774D01*
X508222D01*
X507222Y269774D01*
X508222Y270774D01*
X507222D01*
X506222Y271774D01*
X505222Y270774D01*
X504222D01*
X505222Y269774D01*
X504222Y268774D01*
X505222D01*
X506222Y267774D01*
X437500Y335500D02*
X438500Y336500D01*
X439500D01*
X438500Y337500D01*
X439500Y338500D01*
X438500D01*
X437500Y339500D01*
X436500Y338500D01*
X435500D01*
X436500Y337500D01*
X435500Y336500D01*
X436500D01*
X437500Y335500D01*
X396000Y290500D02*
X397000Y291500D01*
X398000D01*
X397000Y292500D01*
X398000Y293500D01*
X397000D01*
X396000Y294500D01*
X395000Y293500D01*
X394000D01*
X395000Y292500D01*
X394000Y291500D01*
X395000D01*
X396000Y290500D01*
X512410Y218539D02*
X513410Y219539D01*
X514410D01*
X513410Y220539D01*
X514410Y221539D01*
X513410D01*
X512410Y222539D01*
X511410Y221539D01*
X510410D01*
X511410Y220539D01*
X510410Y219539D01*
X511410D01*
X512410Y218539D01*
X468410Y227039D02*
X469410Y228039D01*
X470410D01*
X469410Y229039D01*
X470410Y230039D01*
X469410D01*
X468410Y231039D01*
X467410Y230039D01*
X466410D01*
X467410Y229039D01*
X466410Y228039D01*
X467410D01*
X468410Y227039D01*
X392000Y298500D02*
X393000Y299500D01*
X394000D01*
X393000Y300500D01*
X394000Y301500D01*
X393000D01*
X392000Y302500D01*
X391000Y301500D01*
X390000D01*
X391000Y300500D01*
X390000Y299500D01*
X391000D01*
X392000Y298500D01*
M02*
