G04*
G04 #@! TF.GenerationSoftware,Altium Limited,Altium Designer,23.8.1 (32)*
G04*
G04 Layer_Color=0*
%FSLAX25Y25*%
%MOIN*%
G70*
G04*
G04 #@! TF.SameCoordinates,72AF01AB-F0CD-401C-A649-F01B8FE0E723*
G04*
G04*
G04 #@! TF.FilePolarity,Positive*
G04*
G01*
G75*
%ADD10C,0.00394*%
%ADD141C,0.00197*%
D10*
X443532Y246000D02*
X447469D01*
X445500Y244032D02*
Y247969D01*
X531531Y218240D02*
X535468D01*
X533500Y216271D02*
Y220208D01*
X512032Y199000D02*
X515969D01*
X514000Y197031D02*
Y200969D01*
X447000Y236032D02*
Y239968D01*
X445031Y238000D02*
X448969D01*
X461031Y265469D02*
X464968D01*
X463000Y263500D02*
Y267437D01*
X455031Y259469D02*
X458968D01*
X457000Y257500D02*
Y261437D01*
X504531Y201000D02*
X508468D01*
X506500Y199031D02*
Y202969D01*
X425032Y277000D02*
X428968D01*
X427000Y275031D02*
Y278969D01*
X428901Y264830D02*
Y268767D01*
X426933Y266799D02*
X430870D01*
X364032Y309000D02*
X367969D01*
X366000Y307031D02*
Y310968D01*
X466153Y390508D02*
X470090D01*
X468122Y388539D02*
Y392476D01*
X347000Y264032D02*
Y267969D01*
X345031Y266000D02*
X348969D01*
X506653Y390508D02*
X510591D01*
X508622Y388539D02*
Y392476D01*
X316032Y313244D02*
X319969D01*
X318000Y311276D02*
Y315213D01*
X355500Y264032D02*
Y267969D01*
X353532Y266000D02*
X357469D01*
X337000Y264032D02*
Y267969D01*
X335032Y266000D02*
X338968D01*
X491032Y200240D02*
X494969D01*
X493000Y198271D02*
Y202208D01*
X498032Y200000D02*
X501968D01*
X500000Y198031D02*
Y201969D01*
X524031Y212500D02*
X527969D01*
X526000Y210531D02*
Y214469D01*
X507031Y335500D02*
X510968D01*
X509000Y333531D02*
Y337469D01*
X358531Y244000D02*
X362469D01*
X360500Y242032D02*
Y245969D01*
X357031Y214000D02*
X360968D01*
X359000Y212032D02*
Y215968D01*
X445063Y231500D02*
X449000D01*
X447031Y229532D02*
Y233469D01*
X330358Y244980D02*
Y248917D01*
X328390Y246949D02*
X332327D01*
X500032Y335500D02*
X503968D01*
X502000Y333531D02*
Y337469D01*
X420831Y209087D02*
X424768D01*
X422799Y207118D02*
Y211055D01*
X375031Y273240D02*
X378969D01*
X377000Y271271D02*
Y275208D01*
X398634Y245118D02*
Y249055D01*
X396665Y247087D02*
X400602D01*
X368032Y273240D02*
X371969D01*
X370000Y271271D02*
Y275208D01*
X525531Y327000D02*
X529468D01*
X527500Y325031D02*
Y328969D01*
X396331Y216634D02*
X400268D01*
X398299Y214665D02*
Y218602D01*
X449245Y328532D02*
Y332469D01*
X447277Y330500D02*
X451214D01*
X366032Y323000D02*
X369969D01*
X368000Y321031D02*
Y324969D01*
X366032Y311531D02*
Y315469D01*
X364063Y313500D02*
X368000D01*
X429531Y289866D02*
X433468D01*
X431500Y287898D02*
Y291835D01*
X318531Y238500D02*
X322468D01*
X320500Y236531D02*
Y240469D01*
X328500Y238531D02*
Y242469D01*
X326532Y240500D02*
X330469D01*
X419500Y289531D02*
Y293468D01*
X417531Y291500D02*
X421468D01*
X412831Y203134D02*
X416768D01*
X414799Y201165D02*
Y205102D01*
X421741Y240531D02*
Y244468D01*
X419772Y242500D02*
X423709D01*
X435500Y225031D02*
Y228969D01*
X433532Y227000D02*
X437468D01*
X349500Y218531D02*
Y222468D01*
X347532Y220500D02*
X351468D01*
X346744Y210032D02*
Y213968D01*
X344776Y212000D02*
X348713D01*
X428532Y237000D02*
X432469D01*
X430500Y235032D02*
Y238968D01*
X446760Y360531D02*
Y364469D01*
X444792Y362500D02*
X448729D01*
X518000Y265531D02*
Y269468D01*
X516032Y267500D02*
X519969D01*
X326532Y266000D02*
X330469D01*
X328500Y264032D02*
Y267969D01*
X391331Y231327D02*
X395268D01*
X393299Y229358D02*
Y233295D01*
X339531Y249500D02*
X343468D01*
X341500Y247532D02*
Y251468D01*
X518260Y258531D02*
Y262469D01*
X516292Y260500D02*
X520229D01*
X398031Y266000D02*
X401968D01*
X400000Y264032D02*
Y267969D01*
X383032Y266000D02*
X386968D01*
X385000Y264032D02*
Y267969D01*
X413531Y266000D02*
X417469D01*
X415500Y264032D02*
Y267969D01*
X437032Y251251D02*
X440969D01*
X439000Y249283D02*
Y253220D01*
X380532Y248000D02*
X384469D01*
X382500Y246031D02*
Y249969D01*
X371532Y248251D02*
X375468D01*
X373500Y246283D02*
Y250220D01*
X485008Y325240D02*
Y329177D01*
X483039Y327209D02*
X486976D01*
X481727Y287740D02*
Y291677D01*
X479759Y289709D02*
X483696D01*
X516410Y221571D02*
Y225508D01*
X514441Y223539D02*
X518378D01*
X322031Y281500D02*
X325969D01*
X324000Y279532D02*
Y283469D01*
X447532Y276000D02*
X451469D01*
X449500Y274031D02*
Y277969D01*
X538031Y212500D02*
X541968D01*
X540000Y210531D02*
Y214469D01*
X439173Y265417D02*
X443110D01*
X441141Y263448D02*
Y267385D01*
X403532Y344500D02*
X407469D01*
X405500Y342531D02*
Y346468D01*
X519031Y311000D02*
X522968D01*
X521000Y309032D02*
Y312968D01*
X335531Y214949D02*
X339469D01*
X337500Y212980D02*
Y216917D01*
X318032Y215245D02*
X321969D01*
X320000Y213277D02*
Y217214D01*
X328031Y217893D02*
X331968D01*
X330000Y215925D02*
Y219862D01*
X465531Y316260D02*
X469468D01*
X467500Y314292D02*
Y318229D01*
X525531Y295740D02*
X529468D01*
X527500Y293771D02*
Y297708D01*
X475531Y271251D02*
X479468D01*
X477500Y269283D02*
Y273220D01*
X459039Y291059D02*
X462976D01*
X461008Y289090D02*
Y293028D01*
X494321Y317740D02*
Y321677D01*
X492352Y319709D02*
X496289D01*
X480008Y317240D02*
Y321177D01*
X478039Y319209D02*
X481976D01*
X500821Y324240D02*
Y328177D01*
X498852Y326209D02*
X502789D01*
X500539Y316209D02*
X504476D01*
X502508Y314240D02*
Y318177D01*
X504008Y304240D02*
Y308177D01*
X502039Y306209D02*
X505976D01*
X469008Y304240D02*
Y308177D01*
X467039Y306209D02*
X470976D01*
X459039Y302665D02*
X462976D01*
X461008Y300697D02*
Y304634D01*
X423032Y303000D02*
X426968D01*
X425000Y301031D02*
Y304969D01*
X538693Y299000D02*
X542629D01*
X540661Y297031D02*
Y300969D01*
X432531Y345862D02*
X436469D01*
X434500Y343894D02*
Y347831D01*
X448882Y342272D02*
Y346209D01*
X446913Y344240D02*
X450850D01*
X458532Y338000D02*
X462468D01*
X460500Y336032D02*
Y339968D01*
X416532Y343000D02*
X420469D01*
X418500Y341032D02*
Y344969D01*
X391531Y346000D02*
X395468D01*
X393500Y344032D02*
Y347969D01*
X316531Y297500D02*
X320468D01*
X318500Y295532D02*
Y299468D01*
X412532Y307744D02*
X416468D01*
X414500Y305776D02*
Y309713D01*
X470000Y196531D02*
Y200468D01*
X468032Y198500D02*
X471969D01*
X504032Y271978D02*
X507969D01*
X506000Y270010D02*
Y273947D01*
X458000Y202031D02*
Y205968D01*
X456032Y204000D02*
X459969D01*
X447031Y218032D02*
Y221969D01*
X445063Y220000D02*
X449000D01*
X447000Y224031D02*
Y227969D01*
X445031Y226000D02*
X448969D01*
X490941Y273039D02*
X494878D01*
X492910Y271071D02*
Y275008D01*
X483441Y272039D02*
X487378D01*
X485410Y270071D02*
Y274008D01*
X310032Y297500D02*
X313968D01*
X312000Y295532D02*
Y299468D01*
X467531Y271000D02*
X471468D01*
X469500Y269032D02*
Y272969D01*
X447134Y211035D02*
X451071D01*
X449102Y209067D02*
Y213004D01*
X425378Y388539D02*
Y392476D01*
X423410Y390508D02*
X427347D01*
X569252Y357000D02*
X573189D01*
X571220Y355031D02*
Y358968D01*
X569039Y265878D02*
X572976D01*
X571008Y263910D02*
Y267846D01*
X536031Y311500D02*
X539968D01*
X538000Y309531D02*
Y313469D01*
X540500Y322031D02*
Y325969D01*
X538531Y324000D02*
X542469D01*
X446032Y258000D02*
X449968D01*
X448000Y256031D02*
Y259968D01*
X443532Y321000D02*
X447469D01*
X445500Y319032D02*
Y322969D01*
X447000Y353532D02*
Y357469D01*
X445031Y355500D02*
X448969D01*
X425041Y218087D02*
X428978D01*
X427009Y216118D02*
Y220055D01*
X402500Y331532D02*
Y335469D01*
X400531Y333500D02*
X404468D01*
X425299Y225118D02*
Y229055D01*
X423331Y227087D02*
X427268D01*
X389831Y216228D02*
X393768D01*
X391799Y214260D02*
Y218197D01*
D141*
X355532Y388351D02*
X359469D01*
X357500Y386382D02*
Y390319D01*
X332500Y281532D02*
Y285469D01*
X330532Y283500D02*
X334469D01*
X336531Y343500D02*
X340469D01*
X338500Y341531D02*
Y345468D01*
X279681Y308500D02*
X283618D01*
X281649Y306532D02*
Y310469D01*
X356000Y169532D02*
Y173468D01*
X354031Y171500D02*
X357968D01*
M02*
