G04*
G04 #@! TF.GenerationSoftware,Altium Limited,Altium Designer,23.8.1 (32)*
G04*
G04 Layer_Color=255*
%FSLAX25Y25*%
%MOIN*%
G70*
G04*
G04 #@! TF.SameCoordinates,72AF01AB-F0CD-401C-A649-F01B8FE0E723*
G04*
G04*
G04 #@! TF.FilePolarity,Positive*
G04*
G01*
G75*
%ADD53R,0.16535X0.05315*%
%ADD54R,0.05315X0.16535*%
%ADD131C,0.06102*%
%ADD132R,0.06102X0.06102*%
%ADD133C,0.05984*%
G04:AMPARAMS|DCode=134|XSize=59.84mil|YSize=59.84mil|CornerRadius=14.96mil|HoleSize=0mil|Usage=FLASHONLY|Rotation=0.000|XOffset=0mil|YOffset=0mil|HoleType=Round|Shape=RoundedRectangle|*
%AMROUNDEDRECTD134*
21,1,0.05984,0.02992,0,0,0.0*
21,1,0.02992,0.05984,0,0,0.0*
1,1,0.02992,0.01496,-0.01496*
1,1,0.02992,-0.01496,-0.01496*
1,1,0.02992,-0.01496,0.01496*
1,1,0.02992,0.01496,0.01496*
%
%ADD134ROUNDEDRECTD134*%
G04:AMPARAMS|DCode=135|XSize=59.84mil|YSize=59.84mil|CornerRadius=14.96mil|HoleSize=0mil|Usage=FLASHONLY|Rotation=270.000|XOffset=0mil|YOffset=0mil|HoleType=Round|Shape=RoundedRectangle|*
%AMROUNDEDRECTD135*
21,1,0.05984,0.02992,0,0,270.0*
21,1,0.02992,0.05984,0,0,270.0*
1,1,0.02992,-0.01496,-0.01496*
1,1,0.02992,-0.01496,0.01496*
1,1,0.02992,0.01496,0.01496*
1,1,0.02992,0.01496,-0.01496*
%
%ADD135ROUNDEDRECTD135*%
D53*
X544000Y254756D02*
D03*
Y277000D02*
D03*
X544213Y345878D02*
D03*
Y368122D02*
D03*
D54*
X436500Y363500D02*
D03*
X414256D02*
D03*
X497500D02*
D03*
X519744D02*
D03*
X457000D02*
D03*
X479244D02*
D03*
D131*
X547500Y231500D02*
D03*
Y206000D02*
D03*
D132*
Y241500D02*
D03*
Y216000D02*
D03*
D133*
X303500Y273500D02*
D03*
X321000Y193351D02*
D03*
X303500Y343500D02*
D03*
Y263500D02*
D03*
X312500Y366500D02*
D03*
X322500D02*
D03*
X342500D02*
D03*
X362500D02*
D03*
X352500D02*
D03*
X332500D02*
D03*
X392500D02*
D03*
X382500D02*
D03*
X372500D02*
D03*
X303500Y293500D02*
D03*
Y313500D02*
D03*
Y323500D02*
D03*
Y333500D02*
D03*
Y303500D02*
D03*
Y283500D02*
D03*
X401000Y193351D02*
D03*
X391000D02*
D03*
X371000D02*
D03*
X351000D02*
D03*
X341000D02*
D03*
X331000D02*
D03*
X361000D02*
D03*
X381000D02*
D03*
D134*
X311000D02*
D03*
X402500Y366500D02*
D03*
D135*
X303500Y353500D02*
D03*
M02*
