G04*
G04 #@! TF.GenerationSoftware,Altium Limited,Altium Designer,23.8.1 (32)*
G04*
G04 Layer_Physical_Order=1*
G04 Layer_Color=255*
%FSLAX25Y25*%
%MOIN*%
G70*
G04*
G04 #@! TF.SameCoordinates,72AF01AB-F0CD-401C-A649-F01B8FE0E723*
G04*
G04*
G04 #@! TF.FilePolarity,Positive*
G04*
G01*
G75*
%ADD18C,0.01000*%
%ADD20R,0.00984X0.02756*%
%ADD21R,0.12992X0.06693*%
%ADD22R,0.05600X0.01100*%
%ADD23R,0.03197X0.02985*%
%ADD24R,0.03773X0.03961*%
%ADD25R,0.02985X0.03197*%
%ADD26R,0.03740X0.03937*%
%ADD27R,0.03788X0.03681*%
%ADD28R,0.02756X0.02756*%
%ADD29R,0.03961X0.03773*%
%ADD30C,0.01595*%
%ADD31R,0.03937X0.03347*%
%ADD32R,0.02756X0.02756*%
%ADD33R,0.04453X0.03591*%
%ADD34R,0.03543X0.02953*%
G04:AMPARAMS|DCode=35|XSize=43.31mil|YSize=23.62mil|CornerRadius=2.01mil|HoleSize=0mil|Usage=FLASHONLY|Rotation=180.000|XOffset=0mil|YOffset=0mil|HoleType=Round|Shape=RoundedRectangle|*
%AMROUNDEDRECTD35*
21,1,0.04331,0.01961,0,0,180.0*
21,1,0.03929,0.02362,0,0,180.0*
1,1,0.00402,-0.01965,0.00980*
1,1,0.00402,0.01965,0.00980*
1,1,0.00402,0.01965,-0.00980*
1,1,0.00402,-0.01965,-0.00980*
%
%ADD35ROUNDEDRECTD35*%
%ADD36R,0.03985X0.04560*%
%ADD37R,0.05512X0.03937*%
G04:AMPARAMS|DCode=38|XSize=61.42mil|YSize=11.02mil|CornerRadius=1.38mil|HoleSize=0mil|Usage=FLASHONLY|Rotation=180.000|XOffset=0mil|YOffset=0mil|HoleType=Round|Shape=RoundedRectangle|*
%AMROUNDEDRECTD38*
21,1,0.06142,0.00827,0,0,180.0*
21,1,0.05866,0.01102,0,0,180.0*
1,1,0.00276,-0.02933,0.00413*
1,1,0.00276,0.02933,0.00413*
1,1,0.00276,0.02933,-0.00413*
1,1,0.00276,-0.02933,-0.00413*
%
%ADD38ROUNDEDRECTD38*%
G04:AMPARAMS|DCode=39|XSize=61.42mil|YSize=11.02mil|CornerRadius=1.38mil|HoleSize=0mil|Usage=FLASHONLY|Rotation=270.000|XOffset=0mil|YOffset=0mil|HoleType=Round|Shape=RoundedRectangle|*
%AMROUNDEDRECTD39*
21,1,0.06142,0.00827,0,0,270.0*
21,1,0.05866,0.01102,0,0,270.0*
1,1,0.00276,-0.00413,-0.02933*
1,1,0.00276,-0.00413,0.02933*
1,1,0.00276,0.00413,0.02933*
1,1,0.00276,0.00413,-0.02933*
%
%ADD39ROUNDEDRECTD39*%
%ADD40R,0.09843X0.06890*%
%ADD41R,0.02756X0.00984*%
%ADD42R,0.03591X0.04453*%
%ADD43R,0.04182X0.04560*%
%ADD44R,0.05733X0.04940*%
%ADD45R,0.04724X0.09843*%
%ADD46R,0.07301X0.09000*%
%ADD47R,0.09000X0.07301*%
%ADD48R,0.04134X0.03150*%
%ADD49R,0.06693X0.12992*%
%ADD50R,0.04331X0.03740*%
%ADD51R,0.03347X0.03937*%
%ADD52R,0.03740X0.01575*%
%ADD53R,0.16535X0.05315*%
%ADD54R,0.05315X0.16535*%
%ADD55R,0.03937X0.03543*%
%ADD56R,0.02047X0.02205*%
%ADD57R,0.02423X0.02254*%
%ADD58R,0.02402X0.02500*%
%ADD59R,0.05157X0.03567*%
%ADD60R,0.05512X0.02992*%
%ADD61R,0.05906X0.05906*%
%ADD62R,0.03347X0.01181*%
%ADD63R,0.05709X0.05709*%
%ADD64O,0.07480X0.01772*%
%ADD65R,0.04134X0.04528*%
%ADD66R,0.04349X0.05339*%
%ADD67R,0.03937X0.02953*%
%ADD68R,0.06299X0.05906*%
%ADD69R,0.03543X0.04724*%
%ADD70R,0.02953X0.03937*%
%ADD71R,0.04724X0.03543*%
%ADD72R,0.03197X0.02593*%
%ADD73R,0.03150X0.04134*%
%ADD74R,0.04528X0.04134*%
%ADD75R,0.06299X0.05512*%
%ADD76R,0.05000X0.14173*%
%ADD77R,0.03543X0.03937*%
%ADD78R,0.02987X0.05151*%
%ADD79R,0.04724X0.04724*%
%ADD80R,0.01181X0.03347*%
%ADD81R,0.10000X0.10000*%
%ADD82R,0.04921X0.06102*%
%ADD83R,0.05938X0.05337*%
%ADD84R,0.04724X0.03150*%
%ADD85R,0.04545X0.05339*%
%ADD86R,0.03543X0.03347*%
%ADD87R,0.14173X0.05000*%
%ADD88R,0.05339X0.04545*%
%ADD89R,0.03773X0.03963*%
%ADD90R,0.03740X0.04331*%
%ADD91R,0.04469X0.04182*%
%ADD126C,0.03000*%
%ADD127C,0.02000*%
%ADD128C,0.04000*%
%ADD129C,0.05000*%
%ADD130C,0.01500*%
%ADD131C,0.06102*%
%ADD132R,0.06102X0.06102*%
%ADD133C,0.05984*%
G04:AMPARAMS|DCode=134|XSize=59.84mil|YSize=59.84mil|CornerRadius=14.96mil|HoleSize=0mil|Usage=FLASHONLY|Rotation=0.000|XOffset=0mil|YOffset=0mil|HoleType=Round|Shape=RoundedRectangle|*
%AMROUNDEDRECTD134*
21,1,0.05984,0.02992,0,0,0.0*
21,1,0.02992,0.05984,0,0,0.0*
1,1,0.02992,0.01496,-0.01496*
1,1,0.02992,-0.01496,-0.01496*
1,1,0.02992,-0.01496,0.01496*
1,1,0.02992,0.01496,0.01496*
%
%ADD134ROUNDEDRECTD134*%
G04:AMPARAMS|DCode=135|XSize=59.84mil|YSize=59.84mil|CornerRadius=14.96mil|HoleSize=0mil|Usage=FLASHONLY|Rotation=270.000|XOffset=0mil|YOffset=0mil|HoleType=Round|Shape=RoundedRectangle|*
%AMROUNDEDRECTD135*
21,1,0.05984,0.02992,0,0,270.0*
21,1,0.02992,0.05984,0,0,270.0*
1,1,0.02992,-0.01496,-0.01496*
1,1,0.02992,-0.01496,0.01496*
1,1,0.02992,0.01496,0.01496*
1,1,0.02992,0.01496,-0.01496*
%
%ADD135ROUNDEDRECTD135*%
%ADD136C,0.02000*%
%ADD137C,0.01968*%
%ADD138C,0.03500*%
G36*
X424275Y260696D02*
X424275Y261779D01*
Y261955D01*
X424410Y262281D01*
X424659Y262530D01*
X424985Y262665D01*
X425161D01*
X425337D01*
X425663Y262530D01*
X425912Y262281D01*
X426047Y261955D01*
Y261779D01*
D01*
Y260696D01*
X424275D01*
D02*
G37*
G36*
X428015D02*
Y261779D01*
Y261955D01*
X428150Y262281D01*
X428399Y262530D01*
X428725Y262665D01*
X428901D01*
X429077D01*
X429403Y262530D01*
X429652Y262281D01*
X429787Y261955D01*
Y261779D01*
D01*
Y260696D01*
X428015D01*
D02*
G37*
G36*
X431755D02*
Y261779D01*
Y261955D01*
X431890Y262281D01*
X432139Y262530D01*
X432465Y262665D01*
X432641D01*
X432818D01*
X433143Y262530D01*
X433392Y262281D01*
X433527Y261955D01*
Y261779D01*
X433527D01*
Y260696D01*
X431755D01*
D02*
G37*
G36*
X426047Y272901D02*
Y271818D01*
Y271642D01*
X425912Y271317D01*
X425663Y271067D01*
X425337Y270933D01*
X425161D01*
X424985D01*
X424659Y271067D01*
X424410Y271317D01*
X424275Y271642D01*
Y271818D01*
X424275D01*
Y272901D01*
X426047D01*
D02*
G37*
G36*
X429787D02*
Y271818D01*
Y271642D01*
X429652Y271317D01*
X429403Y271067D01*
X429077Y270933D01*
X428901D01*
X428725D01*
X428399Y271067D01*
X428150Y271317D01*
X428015Y271642D01*
Y271818D01*
D01*
Y272901D01*
X429787D01*
D02*
G37*
G36*
X433527D02*
X433527Y271818D01*
Y271642D01*
X433392Y271317D01*
X433143Y271067D01*
X432818Y270933D01*
X432641D01*
X432465D01*
X432139Y271067D01*
X431890Y271317D01*
X431755Y271642D01*
Y271818D01*
D01*
Y272901D01*
X433527D01*
D02*
G37*
D18*
X325614Y303611D02*
Y303611D01*
X324174Y302171D02*
X325614Y303611D01*
X323982Y301000D02*
X324174Y301191D01*
Y302171D01*
X325614Y303611D02*
X327550Y305547D01*
X324000Y297482D02*
X328078Y301560D01*
X331800D01*
X324000Y284756D02*
Y297482D01*
X318504Y309484D02*
X331850D01*
X323732Y307268D02*
X323824Y307176D01*
X321977Y305500D02*
X323462Y306984D01*
X318000Y309988D02*
X318504Y309484D01*
X323462Y306984D02*
X323732D01*
X414000Y243000D02*
X418482D01*
X418982Y242500D01*
X431732Y285500D02*
X435500D01*
X431500Y285732D02*
X431732Y285500D01*
X446599Y249271D02*
X447909D01*
X453000Y254362D01*
X445894Y248500D02*
Y248567D01*
X446599Y249271D01*
X446103Y242897D02*
X461969D01*
X445434Y243566D02*
X446103Y242897D01*
X441500Y203500D02*
Y241500D01*
X444000Y362500D02*
X444406Y362906D01*
X443756Y362256D02*
X444000Y362500D01*
X444406Y362906D02*
Y368883D01*
X456414Y231086D02*
X456414Y231086D01*
X449914Y231086D02*
X456414D01*
X449500Y231500D02*
X449914Y231086D01*
X449500Y220000D02*
Y220106D01*
X450599Y221099D02*
X454681Y225181D01*
X450492Y221099D02*
X450599D01*
X449500Y220106D02*
X450492Y221099D01*
X454681Y225181D02*
X461969D01*
X449469Y226106D02*
X450461Y227099D01*
X450996D02*
X451047Y227149D01*
X449469Y226000D02*
Y226106D01*
X451047Y227149D02*
X461969D01*
X450461Y227099D02*
X450996D01*
X444547Y220016D02*
Y237984D01*
X444531Y219969D02*
X444563Y220000D01*
X444500Y208000D02*
X444531Y208032D01*
Y219969D01*
X444547Y220016D02*
X444563Y220000D01*
X444531Y238000D02*
X444547Y237984D01*
X454487Y261487D02*
X456550D01*
X453000Y260000D02*
X454487Y261487D01*
X453000Y254362D02*
Y260000D01*
X456550Y261487D02*
X457000Y261937D01*
Y267500D01*
X463000Y267937D02*
Y272500D01*
X317000Y324000D02*
X318000Y323000D01*
X416188Y234565D02*
X419778D01*
X415594Y232937D02*
Y233972D01*
X414716Y232929D02*
X415587D01*
X415594Y233972D02*
X416188Y234565D01*
X415587Y232929D02*
X415594Y232937D01*
X439000Y230229D02*
Y230500D01*
X438256Y227000D02*
Y229485D01*
X439000Y230229D01*
X346526Y243974D02*
X354000Y251449D01*
X453172Y247366D02*
X453703Y246834D01*
X461969D01*
X452901Y247366D02*
X453172D01*
X401000Y193351D02*
X431351D01*
X441500Y203500D01*
X391799Y212587D02*
X392874Y213661D01*
X393932D01*
X393952Y213681D01*
X398299D01*
X410618Y348240D02*
X413740D01*
X416000Y350500D01*
X357000Y321086D02*
Y343000D01*
X356414Y320500D02*
X357000Y321086D01*
X345965Y320500D02*
X356414D01*
X337500Y312035D02*
X345965Y320500D01*
X337500Y303500D02*
Y312035D01*
X341000Y312000D02*
X343508Y309492D01*
X307992Y315508D02*
X313000Y310500D01*
X307992Y315508D02*
Y319008D01*
X313000Y310500D02*
X319256D01*
X324534Y307516D02*
X331850D01*
X324194Y307176D02*
X324534Y307516D01*
X323824Y307176D02*
X324194D01*
X319000Y305500D02*
X321977D01*
X327550Y305547D02*
X331850D01*
X318500Y305000D02*
X319000Y305500D01*
X315000D02*
X319000D01*
X318500Y300256D02*
Y305000D01*
X312048Y300304D02*
Y302548D01*
X315000Y305500D01*
X312000Y300256D02*
X312048Y300304D01*
X318000Y316500D02*
Y323000D01*
X325086Y315440D02*
X331800D01*
X324500Y316026D02*
X325086Y315440D01*
X324500Y316026D02*
Y320500D01*
X353000Y345500D02*
X362500Y355000D01*
Y366500D01*
X344500Y345500D02*
X353000D01*
X343000Y344000D02*
X344500Y345500D01*
X343000Y326258D02*
Y344000D01*
X334100Y317358D02*
X343000Y326258D01*
X331850Y317358D02*
X334100D01*
X337500Y290000D02*
Y303500D01*
X337421Y303579D02*
X337500Y303500D01*
X331850Y303579D02*
X337421D01*
X340508Y307508D02*
X349142D01*
X349150Y307516D01*
X340500Y307500D02*
X340508Y307508D01*
X343508Y309492D02*
X349076D01*
X343547Y305547D02*
X349150D01*
X341500Y303500D02*
X343547Y305547D01*
X337500Y290000D02*
X341650Y285850D01*
X350669D01*
X493189Y250039D02*
X500000Y243228D01*
Y219500D02*
Y243228D01*
X522959Y233020D02*
X527468D01*
X521980D02*
X522500D01*
X522545Y228937D02*
Y233396D01*
X522500Y233441D02*
X522545Y233396D01*
X514000Y201760D02*
X519260D01*
X461060Y204000D02*
X474229D01*
X474729Y204500D02*
X475000D01*
X474229Y204000D02*
X474729Y204500D01*
X475000Y204771D02*
X475472Y205243D01*
X475000Y204500D02*
Y204771D01*
X475472Y205243D02*
Y211677D01*
X473751Y199729D02*
X475436D01*
X476022Y200315D01*
Y201673D01*
X478006Y203658D01*
X472522Y198500D02*
X473751Y199729D01*
X478006Y203658D02*
X480000D01*
X481378D02*
Y211677D01*
X480000Y203658D02*
X481000D01*
X519000Y216500D02*
X523500Y221000D01*
X503000Y216500D02*
X519000D01*
X523500Y221000D02*
X533500D01*
X498521Y202760D02*
X500000D01*
X498240D02*
X498521D01*
X495144Y211663D02*
X495209Y211598D01*
X498521Y202760D02*
X498614Y202667D01*
X495209Y206072D02*
X498521Y202760D01*
X506842Y197842D02*
X507184Y197500D01*
X500907Y197146D02*
X501260Y197500D01*
X506500Y198184D02*
X506842Y197842D01*
X507184Y197500D02*
X512740D01*
X514000Y196240D01*
X501260Y197500D02*
X506500D01*
X500000Y197240D02*
X501260Y198500D01*
X519059Y208500D02*
X524760D01*
X493000Y197480D02*
X493297Y197183D01*
X500870D01*
X512571Y207031D02*
X513941Y208402D01*
X506500Y207000D02*
X511985D01*
X513941Y208402D02*
Y208500D01*
X512017Y207031D02*
X512571D01*
X511985Y207000D02*
X512017Y207031D01*
X506500Y204500D02*
Y207000D01*
X497177Y207823D02*
X498000Y207000D01*
X506500D01*
X522740Y196240D02*
X526000Y199500D01*
X514000Y196240D02*
X522740D01*
X526000Y199500D02*
Y209740D01*
X524760Y208500D02*
X526000Y209740D01*
Y215260D02*
X540000D01*
X456414Y231086D02*
X461969D01*
X450586Y244866D02*
X461969D01*
X450000Y245452D02*
X450586Y244866D01*
X456593Y254593D02*
Y256529D01*
X450000Y248000D02*
X456593Y254593D01*
X449469Y238000D02*
X450429Y238960D01*
X450000Y245452D02*
Y248000D01*
X343563Y241012D02*
X346526Y243974D01*
X337500Y212189D02*
X337689Y212000D01*
X454000Y219500D02*
X457712Y223212D01*
X449102Y213504D02*
X453414D01*
X454000Y214090D01*
Y219500D01*
X461500Y248854D02*
Y251500D01*
X454500Y234690D02*
X456801Y236992D01*
X454500Y234500D02*
Y234690D01*
X456801Y236992D02*
X461969D01*
X450429Y238960D02*
X461969D01*
X457712Y223212D02*
X461969D01*
X457306Y219000D02*
X457530Y219224D01*
X457035Y219000D02*
X457306D01*
X457530Y219224D02*
X461917D01*
X461969Y219275D01*
Y236992D02*
X461992Y237016D01*
X466429Y240929D02*
X467500Y242000D01*
X461969Y240929D02*
X466429D01*
X467500Y242000D02*
Y258500D01*
X464099Y261901D02*
X467500Y258500D01*
X463000Y263000D02*
X463106D01*
X464099Y262008D01*
Y261901D02*
Y262008D01*
X500000Y219500D02*
X503000Y216500D01*
X469547Y268000D02*
X470229Y267318D01*
X473470Y256435D02*
Y262097D01*
X470229Y265337D02*
Y267318D01*
Y265337D02*
X473470Y262097D01*
X469533Y256435D02*
X469567Y256401D01*
X469533Y256435D02*
Y262467D01*
X469500Y262500D02*
X469533Y262467D01*
X353982Y257482D02*
X354000Y257500D01*
X375000D01*
X461500Y248854D02*
X461917D01*
X461969Y248803D01*
X344060Y301560D02*
X349100D01*
X342191Y299691D02*
X344060Y301560D01*
X349076Y309492D02*
X349080Y309488D01*
X344000Y314000D02*
X345390Y315390D01*
X344223Y313777D02*
Y314048D01*
X345500Y323500D02*
X349500D01*
X331850Y313421D02*
X335421D01*
X345500Y323500D01*
X345586Y299592D02*
X349100D01*
X345000Y299006D02*
X345586Y299592D01*
X345000Y294086D02*
Y299006D01*
X342191Y297191D02*
Y299691D01*
X349100Y299592D02*
X349150Y299642D01*
X342000Y297000D02*
X342191Y297191D01*
X448500Y205000D02*
X448691Y204809D01*
X448500Y207964D02*
X449102Y208567D01*
X448691Y204809D02*
X450777D01*
X448500Y205000D02*
Y207964D01*
X450777Y204809D02*
X451586Y204000D01*
X455478D01*
X492209Y312709D02*
X493500Y314000D01*
X479500D02*
X480791Y312709D01*
X437563Y312059D02*
Y316437D01*
X370000Y295000D02*
X370102Y295102D01*
X377024D01*
X382000Y245000D02*
X382500Y244500D01*
X409992Y228992D02*
X414716D01*
X409008Y228008D02*
X409992Y228992D01*
X406161Y230961D02*
X409008Y228114D01*
X342685Y232157D02*
X345532Y235004D01*
X343563Y226449D02*
Y231173D01*
X342579Y232157D02*
X343563Y231173D01*
X498614Y202386D02*
Y202667D01*
X498240Y202760D02*
X498614Y202386D01*
X497177Y207823D02*
Y211626D01*
X497126Y211677D02*
X497177Y211626D01*
X492817Y323817D02*
X493000Y324000D01*
X492633Y323633D02*
X492817Y323817D01*
X353500Y212000D02*
X358478D01*
X349500D02*
X353500D01*
X349150Y303579D02*
X357957D01*
X331850Y299642D02*
X331950D01*
X332000Y299592D01*
Y296500D02*
Y299592D01*
X351032Y295032D02*
X352964Y296965D01*
X351032Y292513D02*
Y295032D01*
X352964Y296965D02*
X356500D01*
X350669Y292150D02*
X351032Y292513D01*
X461000Y203940D02*
X461060Y204000D01*
X471535Y204039D02*
X471535Y204039D01*
Y211677D01*
X398299Y230587D02*
X399886Y229000D01*
X402421D01*
X395799Y247087D02*
X398299Y244586D01*
Y230587D02*
Y244586D01*
X391184Y247087D02*
X395799D01*
X337689Y212000D02*
X343988D01*
X360500Y251450D02*
X360552Y251502D01*
X354000Y251449D02*
X360499D01*
X360500Y251450D01*
X343563Y237866D02*
Y241012D01*
X348342Y332673D02*
X349135Y331881D01*
X351619D01*
X354000Y329500D01*
Y323500D02*
Y329500D01*
X437030Y252533D02*
X439000Y254502D01*
X440577Y261596D02*
X441141Y262161D01*
X345532Y235004D02*
Y237866D01*
X342579Y232157D02*
X342685D01*
X409008Y228008D02*
Y228114D01*
X403299Y230961D02*
X406161D01*
X399000Y295272D02*
X399085Y295187D01*
X404892D01*
X404976Y295102D01*
X312000Y290744D02*
Y294744D01*
X437500Y316500D02*
X437563Y316437D01*
Y309500D02*
Y312059D01*
X460987Y288687D02*
X461008Y288709D01*
X460965Y284854D02*
X460987Y284875D01*
Y288687D01*
X413000Y276850D02*
X413350Y276500D01*
X480791Y308508D02*
Y312709D01*
X492209Y308508D02*
Y312709D01*
X480791Y300291D02*
Y304492D01*
X479500Y299000D02*
X480791Y300291D01*
X492209Y299791D02*
Y304492D01*
Y299791D02*
X493500Y298500D01*
X498008Y300008D02*
Y303138D01*
X498000Y300000D02*
X498008Y300008D01*
X475008Y299709D02*
Y303173D01*
X439120Y344120D02*
X443644D01*
X443764Y344240D01*
X434809Y343809D02*
X438809D01*
X434500Y343500D02*
X434809Y343809D01*
X411000Y309500D02*
X411048D01*
X412048Y310500D01*
X400000Y271251D02*
X400751Y270500D01*
X399591Y270843D02*
X400000Y271251D01*
X415251Y270500D02*
X415500Y270251D01*
X438809Y343809D02*
X439000Y344000D01*
X439120Y344120D01*
X410809Y308835D02*
Y309309D01*
X409914Y307941D02*
X410809Y308835D01*
X405020Y307941D02*
X409914D01*
X410809Y309309D02*
X411000Y309500D01*
X414342Y316000D02*
Y322000D01*
X412048Y310500D02*
X414500D01*
Y315843D01*
X414342Y316000D02*
X414500Y315843D01*
X330000Y211554D02*
X330863Y210691D01*
X331309D02*
X331500Y210500D01*
X330000Y211554D02*
Y214838D01*
X330863Y210691D02*
X331309D01*
X318500Y290744D02*
Y294744D01*
X358478Y212000D02*
X359000Y211478D01*
X359331Y285850D02*
X359681Y285500D01*
X359331Y285850D02*
X364850D01*
X491221Y211677D02*
Y215721D01*
X352259Y220500D02*
X352500D01*
X317000Y329000D02*
Y329157D01*
X492910Y275795D02*
Y279410D01*
X368000Y325468D02*
Y325500D01*
X383384Y309018D02*
X383482D01*
X382264Y307898D02*
X383384Y309018D01*
X377024Y307898D02*
X382264D01*
X466191Y208301D02*
X468102Y210211D01*
X469516D02*
X469567Y210263D01*
Y211677D01*
X468102Y210211D02*
X469516D01*
X466191Y207191D02*
Y208301D01*
X466000Y207000D02*
X466191Y207191D01*
X383771Y270480D02*
X385000Y269251D01*
X418069Y344931D02*
X418500Y345362D01*
X410618Y344500D02*
X411049Y344931D01*
X418069D01*
X393500Y339000D02*
Y343638D01*
X494646Y326354D02*
X498988D01*
X494500Y326500D02*
X494646Y326354D01*
X498988D02*
X499133Y326209D01*
X492633Y319709D02*
Y323633D01*
X473504Y211677D02*
Y215563D01*
X474941Y217000D01*
X322551Y246949D02*
X326716D01*
X320500Y241453D02*
X324594D01*
X325547Y240500D01*
X422799Y205575D02*
Y206422D01*
Y205575D02*
X422874Y205500D01*
X469945Y233055D02*
X472000Y231000D01*
X461969Y233055D02*
X469945D01*
X491221Y215721D02*
X493000Y217500D01*
X475008Y319209D02*
X478321D01*
X469567Y256401D02*
X471535D01*
X483347D02*
X483398Y256350D01*
Y251102D02*
Y256350D01*
Y251102D02*
X483500Y251000D01*
X450260Y355500D02*
X450801Y354960D01*
Y352699D02*
X452309Y351191D01*
X450801Y352699D02*
Y354960D01*
X453309Y351191D02*
X453500Y351000D01*
X452309Y351191D02*
X453309D01*
X453500Y348480D02*
Y351000D01*
Y348480D02*
X454000Y347980D01*
X443764Y354524D02*
X444740Y355500D01*
X443764Y347980D02*
Y354524D01*
X450000Y356886D02*
Y363502D01*
Y356886D02*
X450506Y356380D01*
X424909Y231546D02*
Y233587D01*
X424324Y230961D02*
X424909Y231546D01*
X414716Y230961D02*
X424324D01*
X484000Y236500D02*
Y242000D01*
X476482Y249518D02*
X484000Y242000D01*
X471518Y249518D02*
X476482D01*
X487284Y229784D02*
Y250039D01*
X489252Y218252D02*
X496000Y225000D01*
X489252Y211677D02*
Y218252D01*
X487284Y250039D02*
X493189D01*
X487284D02*
Y256401D01*
Y211677D02*
Y229784D01*
X477441Y219941D02*
X487284Y229784D01*
X477441Y211677D02*
Y219941D01*
X479410Y217910D02*
X480309Y218809D01*
X481309D02*
X481500Y219000D01*
X480309Y218809D02*
X481309D01*
X479410Y211677D02*
Y217910D01*
X481500Y219000D02*
X481691Y218809D01*
X482677D01*
X465748Y221244D02*
X467309Y222804D01*
Y223809D01*
X467500Y224000D01*
X461969Y221244D02*
X465748D01*
X431705Y294205D02*
Y300441D01*
X431500Y294000D02*
X431705Y294205D01*
X323000Y257000D02*
X344500D01*
X317000Y263000D02*
X323000Y257000D01*
X317000Y263000D02*
Y275000D01*
X334000Y246949D02*
X334907Y246042D01*
X339626Y237866D02*
Y239374D01*
X334907Y244093D02*
Y246042D01*
Y244093D02*
X339626Y239374D01*
X320000Y211500D02*
X320300D01*
X384000Y312000D02*
X394000D01*
X395522Y310478D02*
X404955D01*
X394000Y312000D02*
X395522Y310478D01*
X354605Y313421D02*
X365217Y302809D01*
X349150Y313421D02*
X354605D01*
X357957Y303579D02*
X360268Y301268D01*
X349150Y311453D02*
X353618D01*
X364851Y300220D02*
X377024D01*
X353618Y311453D02*
X364851Y300220D01*
X392652Y205000D02*
X397000D01*
X387891Y200239D02*
X392652Y205000D01*
X387888Y200239D02*
X387891D01*
X381000Y193351D02*
X387888Y200239D01*
X382958Y205309D02*
X387309D01*
X371000Y193351D02*
X382958Y205309D01*
X387309D02*
X387500Y205500D01*
X377163Y300360D02*
X384360D01*
X384500Y300500D01*
X377024Y300220D02*
X377163Y300360D01*
X365217Y302809D02*
X369309D01*
X369500Y303000D02*
X369610Y302890D01*
X376913D01*
X377024Y302780D01*
X369309Y302809D02*
X369500Y303000D01*
X387000Y336000D02*
Y361000D01*
X384000Y333180D02*
X384108Y333072D01*
X384000Y333180D02*
Y363651D01*
X387000Y361000D02*
X392500Y366500D01*
X390000Y338000D02*
Y354000D01*
X402000Y366000D01*
X360000Y317500D02*
Y347000D01*
X359908Y317408D02*
X360000Y317500D01*
Y347000D02*
X372500Y359500D01*
X349200Y317408D02*
X359908D01*
X349150Y317358D02*
X349200Y317408D01*
X308500Y283500D02*
X317000Y275000D01*
X308500Y283500D02*
Y288500D01*
X303500Y293500D02*
X308500Y288500D01*
X357289Y292875D02*
X358256D01*
X359000Y296000D02*
X360661Y297661D01*
X377024D01*
X470523Y235023D02*
X475000Y239500D01*
X471500Y249500D02*
X471518Y249518D01*
X475000Y239500D02*
Y242500D01*
X471500Y240500D02*
Y249500D01*
X468015Y237016D02*
X471500Y240500D01*
X461992Y237016D02*
X468015D01*
X461969Y235023D02*
X470523D01*
X537500Y230500D02*
X538500Y231500D01*
X547500D01*
X537035Y241500D02*
X547500D01*
X502000Y338260D02*
Y344000D01*
X408366Y216000D02*
X414055D01*
X414799Y216744D01*
X407299Y214933D02*
X408366Y216000D01*
X523441Y239500D02*
X527811D01*
X522500Y238559D02*
X523441Y239500D01*
X527811D02*
X529688Y241377D01*
X507500Y261000D02*
X514000D01*
X502901Y256401D02*
X507500Y261000D01*
X499095Y256401D02*
X502901D01*
X358500Y217022D02*
X359296Y217817D01*
X359000Y216522D02*
X359522Y216000D01*
X505640Y269744D02*
X506935Y271039D01*
X505640Y269269D02*
Y269744D01*
X537760Y324240D02*
X538000Y324000D01*
Y312661D02*
Y314161D01*
X382500Y365151D02*
X384000Y363651D01*
X382500Y365151D02*
Y366500D01*
X402000Y366000D02*
X402500D01*
Y366500D01*
X331850Y278244D02*
X332500Y277594D01*
X367249Y244500D02*
X377663Y234087D01*
X393299D01*
X361000Y244500D02*
X367249D01*
X485315Y211677D02*
X487284D01*
X495209Y206072D02*
Y211598D01*
X529429Y230500D02*
Y231059D01*
X527468Y233020D02*
X529429Y231059D01*
X377016Y289992D02*
X377024Y289984D01*
X368008Y289992D02*
X377016D01*
X368000Y290000D02*
X368008Y289992D01*
X508622Y360840D02*
X509000Y360462D01*
X508622Y360840D02*
Y364287D01*
X509048Y360462D02*
X510622Y362036D01*
X331800Y301560D02*
X331850Y301610D01*
X331800Y315440D02*
X331850Y315390D01*
X370000Y276000D02*
Y285500D01*
X371925Y287425D01*
X345390Y315390D02*
X349150D01*
X303500Y353500D02*
X310116Y346884D01*
X334031D02*
X338500Y342414D01*
Y332673D02*
Y342414D01*
X310116Y346884D02*
X334031D01*
X404976Y284866D02*
X406064D01*
X406420Y284510D01*
Y277379D02*
X407000Y276799D01*
X406420Y277379D02*
Y284510D01*
X329051Y220000D02*
X330000Y220949D01*
X320000Y218480D02*
X321520Y220000D01*
X329051D01*
X346741Y216086D02*
X347327Y215500D01*
X357978D02*
X359000Y216522D01*
X346741Y216086D02*
Y220500D01*
X347327Y215500D02*
X357978D01*
X345500Y221741D02*
X346741Y220500D01*
X359296Y218815D02*
X359315Y218834D01*
X359296Y217817D02*
Y218815D01*
X345500Y221741D02*
Y225547D01*
X352827Y227311D02*
X354000Y228484D01*
X347500Y226449D02*
Y227303D01*
X354000Y228484D02*
Y228500D01*
X347500Y227303D02*
X347508Y227311D01*
X352827D01*
X483347Y211677D02*
Y218140D01*
X482677Y218809D02*
X483347Y218140D01*
X445437Y312059D02*
X452795D01*
X453000Y311854D01*
X372500Y359500D02*
Y366500D01*
X349100Y301560D02*
X349150Y301610D01*
X484487Y289709D02*
Y289713D01*
X484492Y289718D01*
Y300791D01*
X320500Y235547D02*
X325295D01*
X325842Y235000D01*
X328543Y229500D02*
X329945Y228098D01*
X329543Y228000D02*
X331095Y226449D01*
X331110Y229567D02*
Y229764D01*
X329346Y228000D02*
X329543D01*
X331110Y229567D01*
Y229764D02*
X331157Y229811D01*
Y235000D01*
X334024Y241500D02*
X336779Y238744D01*
X332429Y241500D02*
X334024D01*
X331453Y240524D02*
X332429Y241500D01*
X331453Y240500D02*
Y240524D01*
X337657Y237866D02*
Y238736D01*
X337650Y238744D02*
X337657Y238736D01*
X336779Y238744D02*
X337650D01*
X331095Y226449D02*
X337657D01*
X328346Y229500D02*
X328543D01*
X359184Y237866D02*
X360500Y236550D01*
X347500Y237866D02*
X359184D01*
X493000Y203000D02*
X493189Y203189D01*
Y211677D01*
X393299Y227024D02*
X403299D01*
X431278Y234587D02*
X431299Y234565D01*
X398299Y222087D02*
X399299Y223087D01*
X398299Y219587D02*
Y222087D01*
X399299Y223087D02*
X403299D01*
X417331Y225055D02*
X422065Y220321D01*
X423656Y218087D02*
X423799D01*
X422065Y219677D02*
X423656Y218087D01*
X422065Y219677D02*
Y220321D01*
X422799Y217087D02*
X423799Y218087D01*
X422799Y211751D02*
Y217087D01*
X414799Y206087D02*
Y211429D01*
X414716Y216827D02*
Y223087D01*
X543161Y336161D02*
X543500Y336500D01*
X544999Y356999D02*
X545000Y357000D01*
X527500Y316252D02*
X527752Y316000D01*
X527500Y298500D02*
X527752Y298752D01*
X537500Y298500D02*
X538000Y299000D01*
X521235Y234186D02*
X521980Y233441D01*
X519814Y234186D02*
X521235D01*
X517500Y236500D02*
Y242000D01*
Y236500D02*
X519814Y234186D01*
X521980Y233441D02*
X522500D01*
X512666Y246834D02*
X517500Y242000D01*
X522500Y239500D02*
Y243500D01*
Y238559D02*
Y239500D01*
X517197Y248803D02*
X522500Y243500D01*
X473470Y256435D02*
X473504Y256401D01*
X506935Y271039D02*
X507410D01*
X510500Y263500D02*
X515000Y268000D01*
X499870Y263500D02*
X510500D01*
X501798Y265427D02*
X505640Y269269D01*
X495158Y265427D02*
X501798D01*
X497126Y260756D02*
X499870Y263500D01*
X477441Y256401D02*
Y269249D01*
X440500Y340500D02*
X443764D01*
X437500Y337500D02*
X440500Y340500D01*
X303500Y323500D02*
X307992Y319008D01*
X392500Y276157D02*
Y284500D01*
X396000Y288000D01*
Y292500D01*
X371925Y287425D02*
X377024D01*
Y275756D02*
Y284866D01*
X358256Y292875D02*
X359000Y293618D01*
Y296000D01*
X453000Y306146D02*
X453451Y305695D01*
X445212Y324146D02*
X445991Y324924D01*
X445500Y312122D02*
Y318142D01*
X445437Y312059D02*
X445500Y312122D01*
X467321Y313321D02*
X467500Y313500D01*
X437413Y300441D02*
X437563D01*
Y306941D01*
X425000Y305760D02*
X425378Y306138D01*
X419617Y322040D02*
X419658Y322000D01*
X368500Y313500D02*
X368984Y313016D01*
X367894Y320532D02*
X368000D01*
X376876Y315722D02*
X377024Y315575D01*
X404976Y287425D02*
X411575D01*
X412665Y286335D01*
Y283985D02*
Y286335D01*
Y283485D02*
X414150Y282000D01*
X403291Y227031D02*
X403299Y227024D01*
X390724Y220661D02*
X395118Y225055D01*
X486500Y312209D02*
X487768D01*
X482570Y319146D02*
X484500Y317216D01*
Y312216D02*
Y317216D01*
X497126Y256401D02*
Y260756D01*
X495158Y256401D02*
Y265427D01*
X491191Y256430D02*
Y265427D01*
X495158D01*
X489303Y263539D02*
X491191Y265427D01*
X341595Y237866D02*
Y247500D01*
X400323Y348181D02*
X400382Y348240D01*
X404955Y292522D02*
X404976Y292543D01*
X396000Y292500D02*
X396022Y292522D01*
X487768Y312209D02*
X488508D01*
X486500Y300791D02*
X488508D01*
X484492D02*
X486500D01*
X516410Y220779D02*
X516910Y220279D01*
X465910Y229039D02*
X468410D01*
X392000Y300500D02*
X397500D01*
X399780Y302780D01*
X404976D01*
X493189Y250039D02*
Y256401D01*
X516280Y227149D02*
X516910Y227779D01*
X506693Y227149D02*
X516280D01*
X506693Y246834D02*
X512666D01*
X506693Y248803D02*
X517197D01*
X485366Y256452D02*
Y262740D01*
X492910Y270283D01*
X489303Y256452D02*
Y263539D01*
X489252Y256401D02*
X489303Y256452D01*
X403299Y232929D02*
Y247087D01*
X414549Y212197D02*
X414841Y212488D01*
X414716Y227024D02*
X420713D01*
X421298Y226438D01*
Y225973D02*
Y226438D01*
X414716Y225055D02*
X417331D01*
X395118D02*
X403299D01*
X337000Y220949D02*
X339626Y223575D01*
Y226449D01*
X330000Y220949D02*
X337000D01*
X337500Y217709D02*
Y217803D01*
X338886Y219189D01*
X338980D02*
X341587Y221796D01*
Y226441D01*
X338886Y219189D02*
X338980D01*
X341587Y226441D02*
X341595Y226449D01*
X345500Y225547D02*
X345532Y225579D01*
Y226449D01*
X541000Y216000D02*
X547500D01*
X492209Y306500D02*
X497717D01*
X498008Y306209D01*
X506693Y238960D02*
Y240929D01*
Y236992D02*
Y238960D01*
Y235023D02*
Y236992D01*
Y233055D02*
Y235023D01*
Y231086D02*
Y233055D01*
Y229118D02*
Y231086D01*
Y227149D02*
Y229118D01*
Y225181D02*
Y227149D01*
Y223212D02*
Y225181D01*
Y221244D02*
Y223212D01*
Y219275D02*
Y221244D01*
X484492Y312209D02*
X484500Y312216D01*
X461969Y229118D02*
X462020Y229067D01*
X465882D01*
X465910Y229039D01*
X475264Y306500D02*
X480791D01*
X474990Y306226D02*
X475264Y306500D01*
X437354Y300500D02*
X437413Y300441D01*
X502465Y319709D02*
X502508Y319752D01*
X502321Y312478D02*
X502508Y312665D01*
X461008Y293409D02*
Y299122D01*
X470695Y306209D02*
X470713Y306226D01*
X481378Y256401D02*
Y262508D01*
X485247Y269355D02*
X485410Y269517D01*
X481378Y262508D02*
X485247Y266377D01*
Y269355D01*
X492910Y270283D02*
X499410D01*
X485315Y256401D02*
X485366Y256452D01*
X437000Y323646D02*
X437500Y324146D01*
X404955Y310478D02*
X404976Y310457D01*
X502000Y333728D02*
X502252Y333476D01*
D20*
X337657Y226449D02*
D03*
X339626D02*
D03*
X341595D02*
D03*
X345532D02*
D03*
X347500D02*
D03*
X337657Y237866D02*
D03*
X339626D02*
D03*
X341595D02*
D03*
X347500D02*
D03*
X345532D02*
D03*
X343563Y226449D02*
D03*
Y237866D02*
D03*
D21*
X342579Y232157D02*
D03*
D22*
X331850Y317358D02*
D03*
Y315390D02*
D03*
Y313421D02*
D03*
Y311453D02*
D03*
Y309484D02*
D03*
Y303579D02*
D03*
Y301610D02*
D03*
Y299642D02*
D03*
X349150D02*
D03*
Y301610D02*
D03*
Y303579D02*
D03*
Y305547D02*
D03*
Y307516D02*
D03*
Y309484D02*
D03*
Y311453D02*
D03*
Y313421D02*
D03*
Y315390D02*
D03*
Y317358D02*
D03*
X331850Y305547D02*
D03*
Y307516D02*
D03*
D23*
X445500Y248468D02*
D03*
Y243531D02*
D03*
X463000Y267937D02*
D03*
Y263000D02*
D03*
X457000Y261937D02*
D03*
Y257000D02*
D03*
X449102Y208567D02*
D03*
X368000Y325468D02*
D03*
Y320532D02*
D03*
X449102Y213504D02*
D03*
D24*
X533500Y221000D02*
D03*
Y215480D02*
D03*
X514000Y201760D02*
D03*
Y196240D02*
D03*
X337500Y212189D02*
D03*
X540000Y209740D02*
D03*
X341500Y252260D02*
D03*
X370000Y270480D02*
D03*
X377000D02*
D03*
X493000Y203000D02*
D03*
Y197480D02*
D03*
X500000Y202760D02*
D03*
Y197240D02*
D03*
X526000Y215260D02*
D03*
Y209740D02*
D03*
X509000Y332740D02*
D03*
Y338260D02*
D03*
X502000D02*
D03*
Y332740D02*
D03*
X377000Y276000D02*
D03*
X370000D02*
D03*
X527500Y324240D02*
D03*
Y329760D02*
D03*
X393299Y228566D02*
D03*
Y234087D02*
D03*
X341500Y246740D02*
D03*
X516410Y226299D02*
D03*
Y220779D02*
D03*
X540000Y215260D02*
D03*
X337500Y217709D02*
D03*
X467500Y313500D02*
D03*
Y319020D02*
D03*
X527500Y292980D02*
D03*
Y298500D02*
D03*
X425000Y300240D02*
D03*
Y305760D02*
D03*
D25*
X444531Y238000D02*
D03*
X449469D02*
D03*
X444531Y226000D02*
D03*
X444563Y220000D02*
D03*
Y231500D02*
D03*
X363531Y309000D02*
D03*
X368468D02*
D03*
X449500Y231500D02*
D03*
X368500Y313500D02*
D03*
X363563D02*
D03*
X449500Y220000D02*
D03*
X449469Y226000D02*
D03*
D26*
X513941Y208000D02*
D03*
X519059D02*
D03*
D27*
X506500Y203817D02*
D03*
Y198184D02*
D03*
D28*
X424244Y277000D02*
D03*
X429756D02*
D03*
X343988Y212000D02*
D03*
X432744Y227000D02*
D03*
X349500Y212000D02*
D03*
X438256Y227000D02*
D03*
D29*
X405260Y333500D02*
D03*
X428059Y227087D02*
D03*
X478967Y289709D02*
D03*
X482248Y327209D02*
D03*
X449520Y362500D02*
D03*
X444000D02*
D03*
X520760Y267500D02*
D03*
X515240D02*
D03*
X515500Y260500D02*
D03*
X521020D02*
D03*
X487768Y327209D02*
D03*
X484487Y289709D02*
D03*
X444240Y355500D02*
D03*
X449760D02*
D03*
X399740Y333500D02*
D03*
X422539Y227087D02*
D03*
D30*
X432641Y271917D02*
D03*
X428901Y272001D02*
D03*
X425161D02*
D03*
Y261681D02*
D03*
X428901Y261596D02*
D03*
X432641D02*
D03*
D31*
X317000Y323843D02*
D03*
X392500Y269843D02*
D03*
X317000Y329157D02*
D03*
X480000Y198343D02*
D03*
X499410Y275697D02*
D03*
Y270382D02*
D03*
X480000Y203658D02*
D03*
X392500Y275157D02*
D03*
D32*
X312000Y300256D02*
D03*
X318500D02*
D03*
X312000Y294744D02*
D03*
X492910Y275795D02*
D03*
X414500Y310500D02*
D03*
X318500Y294744D02*
D03*
X414500Y304988D02*
D03*
X492910Y270283D02*
D03*
D33*
X460522Y204000D02*
D03*
X455478D02*
D03*
X467478Y198500D02*
D03*
X472522D02*
D03*
D34*
X418500Y340638D02*
D03*
X393500Y343638D02*
D03*
X418500Y345362D02*
D03*
X460500Y335638D02*
D03*
X434500Y343500D02*
D03*
Y348224D02*
D03*
X460500Y340362D02*
D03*
X393500Y348362D02*
D03*
D35*
X410618Y340760D02*
D03*
X443764Y344240D02*
D03*
X410618Y344500D02*
D03*
Y348240D02*
D03*
X400382D02*
D03*
Y344500D02*
D03*
Y340760D02*
D03*
X454000Y347980D02*
D03*
Y344240D02*
D03*
Y340500D02*
D03*
X443764D02*
D03*
Y347980D02*
D03*
D36*
X318000Y316500D02*
D03*
Y309988D02*
D03*
D37*
X350669Y292150D02*
D03*
X359331Y285850D02*
D03*
Y292150D02*
D03*
X350669Y285850D02*
D03*
D38*
X461969Y219275D02*
D03*
Y233055D02*
D03*
Y248803D02*
D03*
X506693Y219275D02*
D03*
Y221244D02*
D03*
Y223212D02*
D03*
Y225181D02*
D03*
Y227149D02*
D03*
Y229118D02*
D03*
Y231086D02*
D03*
Y233055D02*
D03*
Y235023D02*
D03*
Y236992D02*
D03*
Y238960D02*
D03*
Y240929D02*
D03*
Y242897D02*
D03*
Y244866D02*
D03*
Y246834D02*
D03*
Y248803D02*
D03*
X461969Y246834D02*
D03*
Y244866D02*
D03*
Y242897D02*
D03*
Y240929D02*
D03*
Y238960D02*
D03*
Y236992D02*
D03*
Y235023D02*
D03*
Y231086D02*
D03*
Y229118D02*
D03*
Y227149D02*
D03*
Y225181D02*
D03*
Y223212D02*
D03*
Y221244D02*
D03*
D39*
X475472Y211677D02*
D03*
X471535D02*
D03*
X491221D02*
D03*
X473504D02*
D03*
X469567D02*
D03*
Y256401D02*
D03*
X471535D02*
D03*
X483347D02*
D03*
X499095D02*
D03*
X497126D02*
D03*
X495158D02*
D03*
X493189D02*
D03*
X491221D02*
D03*
X489252D02*
D03*
X487284D02*
D03*
X485315D02*
D03*
X481378D02*
D03*
X479410D02*
D03*
X477441D02*
D03*
X475472D02*
D03*
X473504D02*
D03*
X477441Y211677D02*
D03*
X479410D02*
D03*
X481378D02*
D03*
X483347D02*
D03*
X485315D02*
D03*
X487284D02*
D03*
X489252D02*
D03*
X493189D02*
D03*
X495158D02*
D03*
X497126D02*
D03*
X499095D02*
D03*
D40*
X428901Y266799D02*
D03*
D41*
X403299Y228992D02*
D03*
X414716D02*
D03*
X403299Y230961D02*
D03*
Y232929D02*
D03*
Y227024D02*
D03*
Y225055D02*
D03*
Y223087D02*
D03*
X414716Y232929D02*
D03*
Y230961D02*
D03*
Y227024D02*
D03*
Y225055D02*
D03*
Y223087D02*
D03*
D42*
X448000Y255478D02*
D03*
Y260522D02*
D03*
X469500Y273522D02*
D03*
X485410Y274561D02*
D03*
X506000Y274500D02*
D03*
X430500Y239522D02*
D03*
X359000Y211478D02*
D03*
Y216522D02*
D03*
X430500Y234478D02*
D03*
X506000Y269457D02*
D03*
X485410Y269517D02*
D03*
X469500Y268478D02*
D03*
D43*
X441141Y262161D02*
D03*
X324000Y284756D02*
D03*
Y278244D02*
D03*
X441141Y268673D02*
D03*
D44*
X373500Y251502D02*
D03*
X382500Y251251D02*
D03*
X439000Y254502D02*
D03*
X415500Y262749D02*
D03*
X385000D02*
D03*
X400000D02*
D03*
X328500D02*
D03*
X337000D02*
D03*
X355500D02*
D03*
X347000D02*
D03*
X477500Y274502D02*
D03*
X373500Y245000D02*
D03*
X382500Y244749D02*
D03*
X439000Y248000D02*
D03*
X415500Y269251D02*
D03*
X385000D02*
D03*
X400000D02*
D03*
X328500D02*
D03*
X337000D02*
D03*
X355500D02*
D03*
X347000D02*
D03*
X477500Y268000D02*
D03*
D45*
X348342Y332673D02*
D03*
Y354327D02*
D03*
X338500D02*
D03*
X328658D02*
D03*
X338500Y332673D02*
D03*
X328658D02*
D03*
D46*
X391184Y247087D02*
D03*
X406084D02*
D03*
D47*
X360500Y251450D02*
D03*
Y236550D02*
D03*
D48*
X391799Y212587D02*
D03*
Y219870D02*
D03*
D49*
X409008Y228008D02*
D03*
D50*
X437500Y329854D02*
D03*
X453000Y311854D02*
D03*
Y306146D02*
D03*
X437500Y324146D02*
D03*
D51*
X414342Y316000D02*
D03*
Y322000D02*
D03*
X425114Y234587D02*
D03*
X419799D02*
D03*
X359315Y228500D02*
D03*
X354000D02*
D03*
X419658Y322000D02*
D03*
Y316000D02*
D03*
D52*
X437563Y312059D02*
D03*
Y309500D02*
D03*
X445437Y306941D02*
D03*
Y309500D02*
D03*
Y312059D02*
D03*
X437563Y306941D02*
D03*
D53*
X544000Y277000D02*
D03*
Y254756D02*
D03*
X544213Y368122D02*
D03*
Y345878D02*
D03*
D54*
X414256Y363500D02*
D03*
X436500D02*
D03*
X519744D02*
D03*
X497500D02*
D03*
X479244D02*
D03*
X457000D02*
D03*
D55*
X407000Y270500D02*
D03*
X413000Y276850D02*
D03*
Y283150D02*
D03*
X414799Y216744D02*
D03*
Y211429D02*
D03*
X407000Y276799D02*
D03*
D56*
X475008Y303173D02*
D03*
X498008Y303138D02*
D03*
Y306209D02*
D03*
X475008Y306244D02*
D03*
D57*
X499133Y326209D02*
D03*
X478321Y319209D02*
D03*
X492633Y319709D02*
D03*
X496008D02*
D03*
X481695Y319209D02*
D03*
X502508Y326209D02*
D03*
X505695Y306209D02*
D03*
X502321D02*
D03*
X470695D02*
D03*
X467321D02*
D03*
D58*
X461008Y288709D02*
D03*
Y293409D02*
D03*
D59*
X330000Y214838D02*
D03*
Y220949D02*
D03*
D60*
X514248Y316000D02*
D03*
X527752Y311000D02*
D03*
Y316000D02*
D03*
Y306000D02*
D03*
X514248D02*
D03*
D61*
X449500Y282890D02*
D03*
Y269110D02*
D03*
D62*
X480791Y308508D02*
D03*
Y304492D02*
D03*
X492209D02*
D03*
Y308508D02*
D03*
Y306500D02*
D03*
X480791D02*
D03*
D63*
X486500D02*
D03*
D64*
X377024Y307898D02*
D03*
Y295102D02*
D03*
X404976Y307898D02*
D03*
Y295102D02*
D03*
Y284866D02*
D03*
Y287425D02*
D03*
Y289984D02*
D03*
Y292543D02*
D03*
Y297661D02*
D03*
Y300220D02*
D03*
Y302780D02*
D03*
Y305339D02*
D03*
Y310457D02*
D03*
Y313016D02*
D03*
Y315575D02*
D03*
Y318134D02*
D03*
X377024Y284866D02*
D03*
Y287425D02*
D03*
Y289984D02*
D03*
Y292543D02*
D03*
Y297661D02*
D03*
Y300220D02*
D03*
Y302780D02*
D03*
Y305339D02*
D03*
Y310457D02*
D03*
Y313016D02*
D03*
Y315575D02*
D03*
Y318134D02*
D03*
D65*
X407299Y208240D02*
D03*
Y214933D02*
D03*
D66*
X352259Y220500D02*
D03*
X418982Y242500D02*
D03*
X424500D02*
D03*
X346741Y220500D02*
D03*
D67*
X414799Y200181D02*
D03*
X320500Y241453D02*
D03*
X398299Y213681D02*
D03*
Y219587D02*
D03*
X320500Y235547D02*
D03*
X414799Y206087D02*
D03*
D68*
X374500Y348709D02*
D03*
D69*
X423634Y291500D02*
D03*
X415366D02*
D03*
D70*
X325547Y240500D02*
D03*
X331453D02*
D03*
D71*
X431500Y285732D02*
D03*
Y294000D02*
D03*
D72*
X422799Y206422D02*
D03*
Y211751D02*
D03*
D73*
X326716Y246949D02*
D03*
X334000D02*
D03*
D74*
X323153Y228000D02*
D03*
X329847D02*
D03*
D75*
X332500Y289405D02*
D03*
Y277594D02*
D03*
D76*
X468122Y364287D02*
D03*
X508622D02*
D03*
X425378D02*
D03*
D77*
X331157Y235000D02*
D03*
X325842D02*
D03*
D78*
X452500Y330500D02*
D03*
X445991D02*
D03*
D79*
X370563Y335913D02*
D03*
X378437D02*
D03*
D80*
X484492Y312209D02*
D03*
X486500D02*
D03*
X488508D02*
D03*
Y300791D02*
D03*
X486500D02*
D03*
X484492D02*
D03*
D81*
X543500Y336500D02*
D03*
X543322Y287322D02*
D03*
D82*
X537500Y230500D02*
D03*
X529429D02*
D03*
X537759Y241377D02*
D03*
X529688D02*
D03*
D83*
X320000Y211500D02*
D03*
Y218990D02*
D03*
D84*
X502508Y319752D02*
D03*
Y312665D02*
D03*
X461008Y306209D02*
D03*
Y299122D02*
D03*
D85*
X538000Y299000D02*
D03*
X543322D02*
D03*
X537839Y324000D02*
D03*
X543161D02*
D03*
D86*
X522500Y238559D02*
D03*
Y233441D02*
D03*
D87*
X545000Y357000D02*
D03*
X544787Y265878D02*
D03*
D88*
X538000Y308839D02*
D03*
Y314161D02*
D03*
D89*
X445500Y323858D02*
D03*
Y318142D02*
D03*
D90*
X437413Y300441D02*
D03*
X431705D02*
D03*
D91*
X423799Y218087D02*
D03*
X430220D02*
D03*
D126*
X424957Y234587D02*
Y242043D01*
X423896Y243104D02*
X424957Y242043D01*
X413500Y257500D02*
X423896Y247104D01*
X410000Y257500D02*
X413500D01*
X423896Y243104D02*
Y247104D01*
X452500Y330500D02*
X456000D01*
X432641Y277147D02*
X437057D01*
X429903D02*
X432641D01*
X437192Y277012D02*
X437546D01*
X437641Y276917D01*
X437057Y277147D02*
X437192Y277012D01*
X430220Y218087D02*
X435914D01*
X436500Y218672D01*
Y220500D01*
X415000Y196000D02*
Y200157D01*
X323000Y203500D02*
X364000D01*
X320411Y206089D02*
Y211089D01*
X320000Y211500D02*
X320411Y211089D01*
Y206089D02*
X323000Y203500D01*
X414799Y200181D02*
X414976D01*
X415000Y200157D01*
X385426Y269677D02*
X399999D01*
X407000Y270500D02*
X415251D01*
X401187D02*
X407000D01*
X419500Y277000D02*
X424135D01*
X413350D02*
X419500D01*
X363000Y262749D02*
Y280000D01*
X440500Y254502D02*
X441470Y255472D01*
X443972D01*
X443978Y255478D02*
X448000D01*
X443972Y255472D02*
X443978Y255478D01*
X370000Y270480D02*
X377000D01*
X383771D01*
X399999Y269677D02*
X400182Y269495D01*
X385000Y269251D02*
X385426Y269677D01*
X400182Y269495D02*
X401187Y270500D01*
X527500Y270878D02*
X532500Y265878D01*
X544787D01*
X527500Y270878D02*
Y292980D01*
X429500Y346500D02*
X431224Y348224D01*
X434500D01*
X429500Y333000D02*
Y346500D01*
X441732Y268829D02*
X449219D01*
X449500Y269110D01*
X359522Y216000D02*
X368000D01*
X512410Y220539D02*
X516555D01*
X538000Y314161D02*
Y324000D01*
X527500Y324240D02*
X537760D01*
X359315Y218834D02*
Y228500D01*
X441500Y268597D02*
X441732Y268829D01*
X425114Y234587D02*
X431278D01*
X509000Y306209D02*
Y332980D01*
X508721Y306209D02*
X508721Y306209D01*
X505695Y306209D02*
X508721D01*
X508721D02*
X514248D01*
X543161Y324000D02*
Y336161D01*
X527500Y347500D02*
X536999Y356999D01*
X544999D01*
X527500Y329760D02*
Y347500D01*
Y316252D02*
Y324240D01*
X538000Y299000D02*
Y307339D01*
X527752Y298752D02*
Y306000D01*
X527500Y298500D02*
X537500D01*
X543322Y287322D02*
Y299000D01*
X454851Y306209D02*
X461008D01*
X467321D01*
X445991Y324924D02*
Y330500D01*
X437500Y324146D02*
X445212D01*
X487451Y326892D02*
X487768Y327209D01*
X487451Y313265D02*
Y326892D01*
X516555Y220539D02*
X516796Y220299D01*
X324000Y278244D02*
X332850D01*
X502508Y326209D02*
Y332449D01*
X496008Y319709D02*
X502465D01*
X502508Y319752D02*
Y326209D01*
D127*
X434500Y231000D02*
Y254502D01*
X433121Y229621D02*
X434500Y231000D01*
X432641Y271917D02*
Y277147D01*
X429015Y272115D02*
Y277500D01*
X429756Y277000D02*
X429903Y277147D01*
X410618Y340760D02*
X418500D01*
X409809Y333809D02*
X410618Y334618D01*
X409500Y333500D02*
X409809Y333809D01*
X428059Y227087D02*
X428103Y227043D01*
X432744Y227000D02*
X433121Y227377D01*
X428103Y227043D02*
X432701D01*
X433121Y227377D02*
Y229621D01*
X432701Y227043D02*
X432744Y227000D01*
X405260Y333500D02*
X409500D01*
X425015Y272001D02*
Y277985D01*
X424244Y277000D02*
X424622Y276622D01*
X410618Y334618D02*
Y340760D01*
X409764D02*
X410618D01*
X418500Y340638D02*
X418638Y340500D01*
X432641Y261596D02*
X440577D01*
X467500Y319020D02*
Y369791D01*
X313500Y211500D02*
X320000D01*
X310000Y215000D02*
X313500Y211500D01*
X310000Y215000D02*
Y277000D01*
X303500Y283500D02*
X310000Y277000D01*
X399680Y329500D02*
X415000D01*
X509000Y338260D02*
Y360462D01*
X467321Y306209D02*
Y313321D01*
X425378Y306138D02*
Y364287D01*
X363563Y309000D02*
Y313500D01*
X366500Y329500D02*
X399680D01*
X415000D02*
X419617Y324883D01*
X363563Y326563D02*
X366429Y329429D01*
X399680Y329600D02*
Y333000D01*
X363563Y313500D02*
Y326563D01*
X399680Y333000D02*
Y340579D01*
X399861Y340760D02*
X400382D01*
X399680Y340579D02*
X399861Y340760D01*
X419617Y322040D02*
Y324883D01*
X414244Y305244D02*
X414500Y304988D01*
X393520Y348181D02*
X400323D01*
X434744Y347980D02*
X443764D01*
X434500Y348224D02*
X434744Y347980D01*
X454000Y340500D02*
X461362D01*
X502321Y306209D02*
Y312478D01*
X498008Y306209D02*
X502321D01*
X470713Y306226D02*
X474990D01*
D128*
X423747Y254502D02*
X434500D01*
X438530D01*
X441141Y256000D02*
Y262161D01*
X416366Y261882D02*
X423747Y254502D01*
X416366Y261882D02*
Y262279D01*
X415897Y262749D02*
X416366Y262279D01*
X415500Y262749D02*
X415897D01*
X373500Y245000D02*
X382000D01*
D129*
X382500Y251502D02*
X392332D01*
X373500D02*
X382500D01*
X347000Y269251D02*
X355500D01*
X337000D02*
X347000D01*
X328500D02*
X337000D01*
X328500Y262749D02*
X337000D01*
X347000D01*
X355500D01*
X400000D02*
X400030Y262719D01*
X415133D01*
X391184Y247087D02*
X392335Y248237D01*
X392332Y251502D02*
X392335Y251500D01*
Y248237D02*
Y251500D01*
X360552Y251502D02*
X373500D01*
X392335Y251500D02*
Y262749D01*
X400000D01*
X385000D02*
X392335D01*
X363000D02*
X384164D01*
X355500D02*
X363000D01*
X322251Y269251D02*
X328500D01*
D130*
X428760Y261679D02*
X432500D01*
X445437Y306941D02*
Y309500D01*
Y303063D02*
Y306941D01*
X424500Y300500D02*
X431646D01*
X388500Y305339D02*
X404976D01*
X377024D02*
X388500D01*
Y296000D02*
Y305339D01*
X385043Y292543D02*
X388500Y296000D01*
X369819Y310457D02*
X377024D01*
X368468Y309106D02*
X369819Y310457D01*
X410949Y305390D02*
X411000Y305441D01*
X405028Y305390D02*
X410949D01*
X411000Y305500D02*
X414244D01*
X404976Y305339D02*
X405028Y305390D01*
X414244Y305500D02*
X415244D01*
X419117Y321540D02*
X419658Y321000D01*
X419500Y307294D02*
Y316843D01*
X419658Y317000D02*
Y321000D01*
X419500Y316843D02*
X419658Y317000D01*
X368468Y309000D02*
Y309106D01*
X368984Y313016D02*
X377024D01*
X368500Y319894D02*
X372671Y315722D01*
X376876D01*
X415366Y291500D02*
Y295634D01*
X413339Y297661D02*
X415366Y295634D01*
X404976Y297661D02*
X413339D01*
X404976Y300220D02*
X424221D01*
X424500Y300500D01*
X417716Y305510D02*
X419500Y307294D01*
X415766Y305510D02*
X417716D01*
X396022Y292522D02*
X404955D01*
X377024Y292543D02*
X385043D01*
D131*
X547500Y231500D02*
D03*
Y206000D02*
D03*
D132*
Y241500D02*
D03*
Y216000D02*
D03*
D133*
X303500Y273500D02*
D03*
X321000Y193351D02*
D03*
X303500Y343500D02*
D03*
Y263500D02*
D03*
X312500Y366500D02*
D03*
X322500D02*
D03*
X342500D02*
D03*
X362500D02*
D03*
X352500D02*
D03*
X332500D02*
D03*
X392500D02*
D03*
X382500D02*
D03*
X372500D02*
D03*
X303500Y293500D02*
D03*
Y313500D02*
D03*
Y323500D02*
D03*
Y333500D02*
D03*
Y303500D02*
D03*
Y283500D02*
D03*
X401000Y193351D02*
D03*
X391000D02*
D03*
X371000D02*
D03*
X351000D02*
D03*
X341000D02*
D03*
X331000D02*
D03*
X361000D02*
D03*
X381000D02*
D03*
D134*
X311000D02*
D03*
X402500Y366500D02*
D03*
D135*
X303500Y353500D02*
D03*
D136*
X323982Y301000D02*
D03*
X323732Y306984D02*
D03*
X439000Y248000D02*
D03*
X414000Y243000D02*
D03*
X431000Y239000D02*
D03*
X435500Y285500D02*
D03*
X441500Y241500D02*
D03*
X456000Y330500D02*
D03*
X444406Y368883D02*
D03*
X444500Y208000D02*
D03*
X456910Y267629D02*
D03*
X462985Y272560D02*
D03*
X410000Y257500D02*
D03*
X436500Y220500D02*
D03*
X439000Y230500D02*
D03*
X415000Y196000D02*
D03*
X416000Y350500D02*
D03*
X357000Y343000D02*
D03*
X341000Y312000D02*
D03*
X317000Y324000D02*
D03*
X324500Y320500D02*
D03*
X340500Y307500D02*
D03*
X341500Y303500D02*
D03*
X522545Y228937D02*
D03*
X519711Y201845D02*
D03*
X475000Y204500D02*
D03*
X452901Y247366D02*
D03*
X461500Y251500D02*
D03*
X454500Y234500D02*
D03*
X457035Y219000D02*
D03*
X469500Y262500D02*
D03*
X353982Y257482D02*
D03*
X344223Y313777D02*
D03*
X342000Y297000D02*
D03*
X407299Y208000D02*
D03*
X448500Y205000D02*
D03*
X332000Y296500D02*
D03*
X334500Y289500D02*
D03*
X418638Y340500D02*
D03*
X356500Y296965D02*
D03*
X409809Y333809D02*
D03*
X363000Y280000D02*
D03*
X354000Y323500D02*
D03*
X337594Y212094D02*
D03*
X346500Y244000D02*
D03*
X425641Y266917D02*
D03*
X428901Y266799D02*
D03*
X431641Y266917D02*
D03*
X475008Y299709D02*
D03*
X485008Y307709D02*
D03*
X488008D02*
D03*
X485008Y305209D02*
D03*
X488008D02*
D03*
X414500Y358000D02*
D03*
Y361500D02*
D03*
Y365000D02*
D03*
Y369000D02*
D03*
X457000Y362000D02*
D03*
Y358000D02*
D03*
X475008Y319209D02*
D03*
X399000Y295272D02*
D03*
X370169Y295020D02*
D03*
X419500Y277000D02*
D03*
X312000Y290744D02*
D03*
X437682Y316244D02*
D03*
X460965Y284854D02*
D03*
X385182Y268995D02*
D03*
X400182Y269495D02*
D03*
X415433Y269244D02*
D03*
X479472Y313901D02*
D03*
X493682Y313744D02*
D03*
X479682Y298744D02*
D03*
X493838Y298087D02*
D03*
X498000Y300000D02*
D03*
X439000Y344000D02*
D03*
X437682Y329598D02*
D03*
X411000Y309500D02*
D03*
X449500Y282890D02*
D03*
X331500Y210500D02*
D03*
X318500Y290744D02*
D03*
X353500Y212000D02*
D03*
X364968Y285609D02*
D03*
X352500Y220500D02*
D03*
X317000Y329000D02*
D03*
X480000Y198343D02*
D03*
X540000Y209740D02*
D03*
X485410Y274561D02*
D03*
X499410Y275697D02*
D03*
X506000Y274500D02*
D03*
X477500Y274502D02*
D03*
X469500Y273522D02*
D03*
X479000Y358500D02*
D03*
Y362500D02*
D03*
Y366000D02*
D03*
Y369500D02*
D03*
X497500Y358000D02*
D03*
Y361500D02*
D03*
Y365000D02*
D03*
Y368500D02*
D03*
X519500Y358000D02*
D03*
Y361500D02*
D03*
Y365000D02*
D03*
Y368500D02*
D03*
X549500Y368000D02*
D03*
X546000D02*
D03*
X542500D02*
D03*
X539000D02*
D03*
X549500Y345500D02*
D03*
X546000D02*
D03*
X542500D02*
D03*
X539000D02*
D03*
X514248Y316000D02*
D03*
X527752Y311000D02*
D03*
X538500Y254500D02*
D03*
X542000D02*
D03*
X545500D02*
D03*
X549000D02*
D03*
X538500Y277000D02*
D03*
X542000D02*
D03*
X545500D02*
D03*
X549000D02*
D03*
X322000Y269000D02*
D03*
X368000Y325500D02*
D03*
X383482Y309018D02*
D03*
X391799Y212587D02*
D03*
X467478Y198500D02*
D03*
X466000Y207000D02*
D03*
X474941Y217000D02*
D03*
X436500Y369000D02*
D03*
Y366000D02*
D03*
Y362000D02*
D03*
Y358500D02*
D03*
X418500Y345362D02*
D03*
X460500Y335638D02*
D03*
X414342Y322000D02*
D03*
X374500Y348709D02*
D03*
X393500Y339000D02*
D03*
X494500Y326500D02*
D03*
X492817Y323817D02*
D03*
X482248Y327209D02*
D03*
X478967Y289709D02*
D03*
X445437Y303063D02*
D03*
X320500Y241453D02*
D03*
X322551Y246949D02*
D03*
X323000Y228000D02*
D03*
X341000Y252000D02*
D03*
X382500Y244500D02*
D03*
X423500Y291000D02*
D03*
X422874Y205500D02*
D03*
X472000Y231000D02*
D03*
X493000Y217500D02*
D03*
X448000Y260500D02*
D03*
X457000Y366000D02*
D03*
Y369500D02*
D03*
X483500Y251000D02*
D03*
X492910Y279410D02*
D03*
X453500Y351000D02*
D03*
X484000Y236500D02*
D03*
X496000Y225000D02*
D03*
X481500Y219000D02*
D03*
X467500Y224000D02*
D03*
X364000Y203500D02*
D03*
X344500Y257000D02*
D03*
X425114Y234587D02*
D03*
X360268Y301268D02*
D03*
X429500Y333000D02*
D03*
X397000Y205000D02*
D03*
X387500Y205500D02*
D03*
X384500Y300500D02*
D03*
X369500Y303000D02*
D03*
X387000Y336000D02*
D03*
X384108Y333072D02*
D03*
X390000Y338000D02*
D03*
X384000Y312000D02*
D03*
X360000Y317500D02*
D03*
X375000Y257500D02*
D03*
X471518Y249518D02*
D03*
X475000Y242500D02*
D03*
X502000Y344000D02*
D03*
X320000Y211500D02*
D03*
X368000Y216000D02*
D03*
X370563Y335913D02*
D03*
X361000Y244500D02*
D03*
X411000Y305441D02*
D03*
X368000Y290000D02*
D03*
X345000Y294000D02*
D03*
X349500Y323500D02*
D03*
X506222Y269774D02*
D03*
X437500Y337500D02*
D03*
X396000Y292500D02*
D03*
X512410Y220539D02*
D03*
X468410Y229039D02*
D03*
X392000Y300500D02*
D03*
D137*
X346516Y234126D02*
D03*
Y230189D02*
D03*
X342579Y234126D02*
D03*
Y230189D02*
D03*
X338642Y234126D02*
D03*
Y230189D02*
D03*
X410976Y224071D02*
D03*
X407039D02*
D03*
X410976Y228008D02*
D03*
X407039D02*
D03*
X410976Y231945D02*
D03*
X407039D02*
D03*
D138*
X437641Y276917D02*
D03*
M02*
