G04*
G04 #@! TF.GenerationSoftware,Altium Limited,Altium Designer,23.8.1 (32)*
G04*
G04 Layer_Color=8421504*
%FSLAX25Y25*%
%MOIN*%
G70*
G04*
G04 #@! TF.SameCoordinates,72AF01AB-F0CD-401C-A649-F01B8FE0E723*
G04*
G04*
G04 #@! TF.FilePolarity,Positive*
G04*
G01*
G75*
%ADD20R,0.00984X0.02756*%
%ADD21R,0.12992X0.06693*%
%ADD22R,0.05600X0.01100*%
%ADD23R,0.03197X0.02985*%
%ADD24R,0.03773X0.03961*%
%ADD25R,0.02985X0.03197*%
%ADD26R,0.03740X0.03937*%
%ADD27R,0.03788X0.03681*%
%ADD28R,0.02756X0.02756*%
%ADD29R,0.03961X0.03773*%
%ADD30C,0.01595*%
%ADD31R,0.03937X0.03347*%
%ADD32R,0.02756X0.02756*%
%ADD33R,0.04453X0.03591*%
%ADD34R,0.03543X0.02953*%
G04:AMPARAMS|DCode=35|XSize=43.31mil|YSize=23.62mil|CornerRadius=2.01mil|HoleSize=0mil|Usage=FLASHONLY|Rotation=180.000|XOffset=0mil|YOffset=0mil|HoleType=Round|Shape=RoundedRectangle|*
%AMROUNDEDRECTD35*
21,1,0.04331,0.01961,0,0,180.0*
21,1,0.03929,0.02362,0,0,180.0*
1,1,0.00402,-0.01965,0.00980*
1,1,0.00402,0.01965,0.00980*
1,1,0.00402,0.01965,-0.00980*
1,1,0.00402,-0.01965,-0.00980*
%
%ADD35ROUNDEDRECTD35*%
%ADD36R,0.03985X0.04560*%
%ADD37R,0.05512X0.03937*%
G04:AMPARAMS|DCode=38|XSize=61.42mil|YSize=11.02mil|CornerRadius=1.38mil|HoleSize=0mil|Usage=FLASHONLY|Rotation=180.000|XOffset=0mil|YOffset=0mil|HoleType=Round|Shape=RoundedRectangle|*
%AMROUNDEDRECTD38*
21,1,0.06142,0.00827,0,0,180.0*
21,1,0.05866,0.01102,0,0,180.0*
1,1,0.00276,-0.02933,0.00413*
1,1,0.00276,0.02933,0.00413*
1,1,0.00276,0.02933,-0.00413*
1,1,0.00276,-0.02933,-0.00413*
%
%ADD38ROUNDEDRECTD38*%
G04:AMPARAMS|DCode=39|XSize=61.42mil|YSize=11.02mil|CornerRadius=1.38mil|HoleSize=0mil|Usage=FLASHONLY|Rotation=270.000|XOffset=0mil|YOffset=0mil|HoleType=Round|Shape=RoundedRectangle|*
%AMROUNDEDRECTD39*
21,1,0.06142,0.00827,0,0,270.0*
21,1,0.05866,0.01102,0,0,270.0*
1,1,0.00276,-0.00413,-0.02933*
1,1,0.00276,-0.00413,0.02933*
1,1,0.00276,0.00413,0.02933*
1,1,0.00276,0.00413,-0.02933*
%
%ADD39ROUNDEDRECTD39*%
%ADD40R,0.09843X0.06890*%
%ADD41R,0.02756X0.00984*%
%ADD42R,0.03591X0.04453*%
%ADD43R,0.04182X0.04560*%
%ADD44R,0.05733X0.04940*%
%ADD45R,0.04724X0.09843*%
%ADD46R,0.07301X0.09000*%
%ADD47R,0.09000X0.07301*%
%ADD48R,0.04134X0.03150*%
%ADD49R,0.06693X0.12992*%
%ADD50R,0.04331X0.03740*%
%ADD51R,0.03347X0.03937*%
%ADD52R,0.03740X0.01575*%
%ADD53R,0.16535X0.05315*%
%ADD54R,0.05315X0.16535*%
%ADD55R,0.03937X0.03543*%
%ADD56R,0.02047X0.02205*%
%ADD57R,0.02423X0.02254*%
%ADD58R,0.02402X0.02500*%
%ADD59R,0.05157X0.03567*%
%ADD60R,0.05512X0.02992*%
%ADD61R,0.05906X0.05906*%
%ADD62R,0.03347X0.01181*%
%ADD63R,0.05709X0.05709*%
%ADD64O,0.07480X0.01772*%
%ADD65R,0.04134X0.04528*%
%ADD66R,0.04349X0.05339*%
%ADD67R,0.03937X0.02953*%
%ADD68R,0.06299X0.05906*%
%ADD69R,0.03543X0.04724*%
%ADD70R,0.02953X0.03937*%
%ADD71R,0.04724X0.03543*%
%ADD72R,0.03197X0.02593*%
%ADD73R,0.03150X0.04134*%
%ADD74R,0.04528X0.04134*%
%ADD75R,0.06299X0.05512*%
%ADD76R,0.05000X0.14173*%
%ADD77R,0.03543X0.03937*%
%ADD78R,0.02987X0.05151*%
%ADD79R,0.04724X0.04724*%
%ADD80R,0.01181X0.03347*%
%ADD81R,0.10000X0.10000*%
%ADD82R,0.04921X0.06102*%
%ADD83R,0.05938X0.05337*%
%ADD84R,0.04724X0.03150*%
%ADD85R,0.04545X0.05339*%
%ADD86R,0.03543X0.03347*%
%ADD87R,0.14173X0.05000*%
%ADD88R,0.05339X0.04545*%
%ADD89R,0.03773X0.03963*%
%ADD90R,0.03740X0.04331*%
%ADD91R,0.04469X0.04182*%
G36*
X425663Y262530D02*
X425912Y262281D01*
X426047Y261955D01*
Y261779D01*
Y260696D01*
X424275D01*
X424275Y261779D01*
Y261955D01*
X424410Y262281D01*
X424659Y262530D01*
X424985Y262665D01*
X425337D01*
X425663Y262530D01*
D02*
G37*
G36*
X429403D02*
X429652Y262281D01*
X429787Y261955D01*
Y261779D01*
Y260696D01*
X428015D01*
Y261779D01*
Y261955D01*
X428150Y262281D01*
X428399Y262530D01*
X428725Y262665D01*
X429077D01*
X429403Y262530D01*
D02*
G37*
G36*
X433143D02*
X433392Y262281D01*
X433527Y261955D01*
Y261779D01*
X433527D01*
Y260696D01*
X431755D01*
Y261779D01*
Y261955D01*
X431890Y262281D01*
X432139Y262530D01*
X432465Y262665D01*
X432818D01*
X433143Y262530D01*
D02*
G37*
G36*
X426047Y271818D02*
Y271642D01*
X425912Y271317D01*
X425663Y271067D01*
X425337Y270933D01*
X424985D01*
X424659Y271067D01*
X424410Y271317D01*
X424275Y271642D01*
Y271818D01*
X424275D01*
Y272901D01*
X426047D01*
Y271818D01*
D02*
G37*
G36*
X429787D02*
Y271642D01*
X429652Y271317D01*
X429403Y271067D01*
X429077Y270933D01*
X428725D01*
X428399Y271067D01*
X428150Y271317D01*
X428015Y271642D01*
Y271818D01*
Y272901D01*
X429787D01*
Y271818D01*
D02*
G37*
G36*
X433527D02*
Y271642D01*
X433392Y271317D01*
X433143Y271067D01*
X432818Y270933D01*
X432465D01*
X432139Y271067D01*
X431890Y271317D01*
X431755Y271642D01*
Y271818D01*
Y272901D01*
X433527D01*
X433527Y271818D01*
D02*
G37*
D20*
X337657Y226449D02*
D03*
X339626D02*
D03*
X341595D02*
D03*
X345532D02*
D03*
X347500D02*
D03*
X337657Y237866D02*
D03*
X339626D02*
D03*
X341595D02*
D03*
X347500D02*
D03*
X345532D02*
D03*
X343563Y226449D02*
D03*
Y237866D02*
D03*
D21*
X342579Y232157D02*
D03*
D22*
X331850Y317358D02*
D03*
Y315390D02*
D03*
Y313421D02*
D03*
Y311453D02*
D03*
Y309484D02*
D03*
Y303579D02*
D03*
Y301610D02*
D03*
Y299642D02*
D03*
X349150D02*
D03*
Y301610D02*
D03*
Y303579D02*
D03*
Y305547D02*
D03*
Y307516D02*
D03*
Y309484D02*
D03*
Y311453D02*
D03*
Y313421D02*
D03*
Y315390D02*
D03*
Y317358D02*
D03*
X331850Y305547D02*
D03*
Y307516D02*
D03*
D23*
X445500Y248468D02*
D03*
Y243531D02*
D03*
X463000Y267937D02*
D03*
Y263000D02*
D03*
X457000Y261937D02*
D03*
Y257000D02*
D03*
X449102Y208567D02*
D03*
X368000Y325468D02*
D03*
Y320532D02*
D03*
X449102Y213504D02*
D03*
D24*
X533500Y221000D02*
D03*
Y215480D02*
D03*
X514000Y201760D02*
D03*
Y196240D02*
D03*
X337500Y212189D02*
D03*
X540000Y209740D02*
D03*
X341500Y252260D02*
D03*
X370000Y270480D02*
D03*
X377000D02*
D03*
X493000Y203000D02*
D03*
Y197480D02*
D03*
X500000Y202760D02*
D03*
Y197240D02*
D03*
X526000Y215260D02*
D03*
Y209740D02*
D03*
X509000Y332740D02*
D03*
Y338260D02*
D03*
X502000D02*
D03*
Y332740D02*
D03*
X377000Y276000D02*
D03*
X370000D02*
D03*
X527500Y324240D02*
D03*
Y329760D02*
D03*
X393299Y228566D02*
D03*
Y234087D02*
D03*
X341500Y246740D02*
D03*
X516410Y226299D02*
D03*
Y220779D02*
D03*
X540000Y215260D02*
D03*
X337500Y217709D02*
D03*
X467500Y313500D02*
D03*
Y319020D02*
D03*
X527500Y292980D02*
D03*
Y298500D02*
D03*
X425000Y300240D02*
D03*
Y305760D02*
D03*
D25*
X444531Y238000D02*
D03*
X449469D02*
D03*
X444531Y226000D02*
D03*
X444563Y220000D02*
D03*
Y231500D02*
D03*
X363531Y309000D02*
D03*
X368468D02*
D03*
X449500Y231500D02*
D03*
X368500Y313500D02*
D03*
X363563D02*
D03*
X449500Y220000D02*
D03*
X449469Y226000D02*
D03*
D26*
X513941Y208000D02*
D03*
X519059D02*
D03*
D27*
X506500Y203817D02*
D03*
Y198184D02*
D03*
D28*
X424244Y277000D02*
D03*
X429756D02*
D03*
X343988Y212000D02*
D03*
X432744Y227000D02*
D03*
X349500Y212000D02*
D03*
X438256Y227000D02*
D03*
D29*
X405260Y333500D02*
D03*
X428059Y227087D02*
D03*
X478967Y289709D02*
D03*
X482248Y327209D02*
D03*
X449520Y362500D02*
D03*
X444000D02*
D03*
X520760Y267500D02*
D03*
X515240D02*
D03*
X515500Y260500D02*
D03*
X521020D02*
D03*
X487768Y327209D02*
D03*
X484487Y289709D02*
D03*
X444240Y355500D02*
D03*
X449760D02*
D03*
X399740Y333500D02*
D03*
X422539Y227087D02*
D03*
D30*
X432641Y271917D02*
D03*
X428901Y272001D02*
D03*
X425161D02*
D03*
Y261681D02*
D03*
X428901Y261596D02*
D03*
X432641D02*
D03*
D31*
X317000Y323843D02*
D03*
X392500Y269843D02*
D03*
X317000Y329157D02*
D03*
X480000Y198343D02*
D03*
X499410Y275697D02*
D03*
Y270382D02*
D03*
X480000Y203658D02*
D03*
X392500Y275157D02*
D03*
D32*
X312000Y300256D02*
D03*
X318500D02*
D03*
X312000Y294744D02*
D03*
X492910Y275795D02*
D03*
X414500Y310500D02*
D03*
X318500Y294744D02*
D03*
X414500Y304988D02*
D03*
X492910Y270283D02*
D03*
D33*
X460522Y204000D02*
D03*
X455478D02*
D03*
X467478Y198500D02*
D03*
X472522D02*
D03*
D34*
X418500Y340638D02*
D03*
X393500Y343638D02*
D03*
X418500Y345362D02*
D03*
X460500Y335638D02*
D03*
X434500Y343500D02*
D03*
Y348224D02*
D03*
X460500Y340362D02*
D03*
X393500Y348362D02*
D03*
D35*
X410618Y340760D02*
D03*
X443764Y344240D02*
D03*
X410618Y344500D02*
D03*
Y348240D02*
D03*
X400382D02*
D03*
Y344500D02*
D03*
Y340760D02*
D03*
X454000Y347980D02*
D03*
Y344240D02*
D03*
Y340500D02*
D03*
X443764D02*
D03*
Y347980D02*
D03*
D36*
X318000Y316500D02*
D03*
Y309988D02*
D03*
D37*
X350669Y292150D02*
D03*
X359331Y285850D02*
D03*
Y292150D02*
D03*
X350669Y285850D02*
D03*
D38*
X461969Y219275D02*
D03*
Y233055D02*
D03*
Y248803D02*
D03*
X506693Y219275D02*
D03*
Y221244D02*
D03*
Y223212D02*
D03*
Y225181D02*
D03*
Y227149D02*
D03*
Y229118D02*
D03*
Y231086D02*
D03*
Y233055D02*
D03*
Y235023D02*
D03*
Y236992D02*
D03*
Y238960D02*
D03*
Y240929D02*
D03*
Y242897D02*
D03*
Y244866D02*
D03*
Y246834D02*
D03*
Y248803D02*
D03*
X461969Y246834D02*
D03*
Y244866D02*
D03*
Y242897D02*
D03*
Y240929D02*
D03*
Y238960D02*
D03*
Y236992D02*
D03*
Y235023D02*
D03*
Y231086D02*
D03*
Y229118D02*
D03*
Y227149D02*
D03*
Y225181D02*
D03*
Y223212D02*
D03*
Y221244D02*
D03*
D39*
X475472Y211677D02*
D03*
X471535D02*
D03*
X491221D02*
D03*
X473504D02*
D03*
X469567D02*
D03*
Y256401D02*
D03*
X471535D02*
D03*
X483347D02*
D03*
X499095D02*
D03*
X497126D02*
D03*
X495158D02*
D03*
X493189D02*
D03*
X491221D02*
D03*
X489252D02*
D03*
X487284D02*
D03*
X485315D02*
D03*
X481378D02*
D03*
X479410D02*
D03*
X477441D02*
D03*
X475472D02*
D03*
X473504D02*
D03*
X477441Y211677D02*
D03*
X479410D02*
D03*
X481378D02*
D03*
X483347D02*
D03*
X485315D02*
D03*
X487284D02*
D03*
X489252D02*
D03*
X493189D02*
D03*
X495158D02*
D03*
X497126D02*
D03*
X499095D02*
D03*
D40*
X428901Y266799D02*
D03*
D41*
X403299Y228992D02*
D03*
X414716D02*
D03*
X403299Y230961D02*
D03*
Y232929D02*
D03*
Y227024D02*
D03*
Y225055D02*
D03*
Y223087D02*
D03*
X414716Y232929D02*
D03*
Y230961D02*
D03*
Y227024D02*
D03*
Y225055D02*
D03*
Y223087D02*
D03*
D42*
X448000Y255478D02*
D03*
Y260522D02*
D03*
X469500Y273522D02*
D03*
X485410Y274561D02*
D03*
X506000Y274500D02*
D03*
X430500Y239522D02*
D03*
X359000Y211478D02*
D03*
Y216522D02*
D03*
X430500Y234478D02*
D03*
X506000Y269457D02*
D03*
X485410Y269517D02*
D03*
X469500Y268478D02*
D03*
D43*
X441141Y262161D02*
D03*
X324000Y284756D02*
D03*
Y278244D02*
D03*
X441141Y268673D02*
D03*
D44*
X373500Y251502D02*
D03*
X382500Y251251D02*
D03*
X439000Y254502D02*
D03*
X415500Y262749D02*
D03*
X385000D02*
D03*
X400000D02*
D03*
X328500D02*
D03*
X337000D02*
D03*
X355500D02*
D03*
X347000D02*
D03*
X477500Y274502D02*
D03*
X373500Y245000D02*
D03*
X382500Y244749D02*
D03*
X439000Y248000D02*
D03*
X415500Y269251D02*
D03*
X385000D02*
D03*
X400000D02*
D03*
X328500D02*
D03*
X337000D02*
D03*
X355500D02*
D03*
X347000D02*
D03*
X477500Y268000D02*
D03*
D45*
X348342Y332673D02*
D03*
Y354327D02*
D03*
X338500D02*
D03*
X328658D02*
D03*
X338500Y332673D02*
D03*
X328658D02*
D03*
D46*
X391184Y247087D02*
D03*
X406084D02*
D03*
D47*
X360500Y251450D02*
D03*
Y236550D02*
D03*
D48*
X391799Y212587D02*
D03*
Y219870D02*
D03*
D49*
X409008Y228008D02*
D03*
D50*
X437500Y329854D02*
D03*
X453000Y311854D02*
D03*
Y306146D02*
D03*
X437500Y324146D02*
D03*
D51*
X414342Y316000D02*
D03*
Y322000D02*
D03*
X425114Y234587D02*
D03*
X419799D02*
D03*
X359315Y228500D02*
D03*
X354000D02*
D03*
X419658Y322000D02*
D03*
Y316000D02*
D03*
D52*
X437563Y312059D02*
D03*
Y309500D02*
D03*
X445437Y306941D02*
D03*
Y309500D02*
D03*
Y312059D02*
D03*
X437563Y306941D02*
D03*
D53*
X544000Y277000D02*
D03*
Y254756D02*
D03*
X544213Y368122D02*
D03*
Y345878D02*
D03*
D54*
X414256Y363500D02*
D03*
X436500D02*
D03*
X519744D02*
D03*
X497500D02*
D03*
X479244D02*
D03*
X457000D02*
D03*
D55*
X407000Y270500D02*
D03*
X413000Y276850D02*
D03*
Y283150D02*
D03*
X414799Y216744D02*
D03*
Y211429D02*
D03*
X407000Y276799D02*
D03*
D56*
X475008Y303173D02*
D03*
X498008Y303138D02*
D03*
Y306209D02*
D03*
X475008Y306244D02*
D03*
D57*
X499133Y326209D02*
D03*
X478321Y319209D02*
D03*
X492633Y319709D02*
D03*
X496008D02*
D03*
X481695Y319209D02*
D03*
X502508Y326209D02*
D03*
X505695Y306209D02*
D03*
X502321D02*
D03*
X470695D02*
D03*
X467321D02*
D03*
D58*
X461008Y288709D02*
D03*
Y293409D02*
D03*
D59*
X330000Y214838D02*
D03*
Y220949D02*
D03*
D60*
X514248Y316000D02*
D03*
X527752Y311000D02*
D03*
Y316000D02*
D03*
Y306000D02*
D03*
X514248D02*
D03*
D61*
X449500Y282890D02*
D03*
Y269110D02*
D03*
D62*
X480791Y308508D02*
D03*
Y304492D02*
D03*
X492209D02*
D03*
Y308508D02*
D03*
Y306500D02*
D03*
X480791D02*
D03*
D63*
X486500D02*
D03*
D64*
X377024Y307898D02*
D03*
Y295102D02*
D03*
X404976Y307898D02*
D03*
Y295102D02*
D03*
Y284866D02*
D03*
Y287425D02*
D03*
Y289984D02*
D03*
Y292543D02*
D03*
Y297661D02*
D03*
Y300220D02*
D03*
Y302780D02*
D03*
Y305339D02*
D03*
Y310457D02*
D03*
Y313016D02*
D03*
Y315575D02*
D03*
Y318134D02*
D03*
X377024Y284866D02*
D03*
Y287425D02*
D03*
Y289984D02*
D03*
Y292543D02*
D03*
Y297661D02*
D03*
Y300220D02*
D03*
Y302780D02*
D03*
Y305339D02*
D03*
Y310457D02*
D03*
Y313016D02*
D03*
Y315575D02*
D03*
Y318134D02*
D03*
D65*
X407299Y208240D02*
D03*
Y214933D02*
D03*
D66*
X352259Y220500D02*
D03*
X418982Y242500D02*
D03*
X424500D02*
D03*
X346741Y220500D02*
D03*
D67*
X414799Y200181D02*
D03*
X320500Y241453D02*
D03*
X398299Y213681D02*
D03*
Y219587D02*
D03*
X320500Y235547D02*
D03*
X414799Y206087D02*
D03*
D68*
X374500Y348709D02*
D03*
D69*
X423634Y291500D02*
D03*
X415366D02*
D03*
D70*
X325547Y240500D02*
D03*
X331453D02*
D03*
D71*
X431500Y285732D02*
D03*
Y294000D02*
D03*
D72*
X422799Y206422D02*
D03*
Y211751D02*
D03*
D73*
X326716Y246949D02*
D03*
X334000D02*
D03*
D74*
X323153Y228000D02*
D03*
X329847D02*
D03*
D75*
X332500Y289405D02*
D03*
Y277594D02*
D03*
D76*
X468122Y364287D02*
D03*
X508622D02*
D03*
X425378D02*
D03*
D77*
X331157Y235000D02*
D03*
X325842D02*
D03*
D78*
X452500Y330500D02*
D03*
X445991D02*
D03*
D79*
X370563Y335913D02*
D03*
X378437D02*
D03*
D80*
X484492Y312209D02*
D03*
X486500D02*
D03*
X488508D02*
D03*
Y300791D02*
D03*
X486500D02*
D03*
X484492D02*
D03*
D81*
X543500Y336500D02*
D03*
X543322Y287322D02*
D03*
D82*
X537500Y230500D02*
D03*
X529429D02*
D03*
X537759Y241377D02*
D03*
X529688D02*
D03*
D83*
X320000Y211500D02*
D03*
Y218990D02*
D03*
D84*
X502508Y319752D02*
D03*
Y312665D02*
D03*
X461008Y306209D02*
D03*
Y299122D02*
D03*
D85*
X538000Y299000D02*
D03*
X543322D02*
D03*
X537839Y324000D02*
D03*
X543161D02*
D03*
D86*
X522500Y238559D02*
D03*
Y233441D02*
D03*
D87*
X545000Y357000D02*
D03*
X544787Y265878D02*
D03*
D88*
X538000Y308839D02*
D03*
Y314161D02*
D03*
D89*
X445500Y323858D02*
D03*
Y318142D02*
D03*
D90*
X437413Y300441D02*
D03*
X431705D02*
D03*
D91*
X423799Y218087D02*
D03*
X430220D02*
D03*
M02*
