G04*
G04 #@! TF.GenerationSoftware,Altium Limited,Altium Designer,23.8.1 (32)*
G04*
G04 Layer_Physical_Order=3*
G04 Layer_Color=16440176*
%FSLAX25Y25*%
%MOIN*%
G70*
G04*
G04 #@! TF.SameCoordinates,80B81087-8907-46A5-ADC8-61E89D123A5F*
G04*
G04*
G04 #@! TF.FilePolarity,Positive*
G04*
G01*
G75*
%ADD133C,0.05984*%
%ADD136C,0.02000*%
%ADD138C,0.03500*%
G36*
X554000Y185000D02*
X298000D01*
Y373000D01*
X554000D01*
Y185000D01*
D02*
G37*
%LPC*%
G36*
X549898Y370000D02*
X549102D01*
X548367Y369695D01*
X548077Y369405D01*
X547750Y369172D01*
X547423Y369405D01*
X547133Y369695D01*
X546398Y370000D01*
X545602D01*
X544867Y369695D01*
X544577Y369405D01*
X544250Y369172D01*
X543923Y369405D01*
X543633Y369695D01*
X542898Y370000D01*
X542102D01*
X541367Y369695D01*
X541077Y369405D01*
X540750Y369172D01*
X540423Y369405D01*
X540133Y369695D01*
X539398Y370000D01*
X538602D01*
X537867Y369695D01*
X537304Y369133D01*
X537000Y368398D01*
Y367602D01*
X537304Y366867D01*
X537867Y366304D01*
X538602Y366000D01*
X539398D01*
X540133Y366304D01*
X540423Y366595D01*
X540750Y366828D01*
X541077Y366595D01*
X541367Y366304D01*
X542102Y366000D01*
X542898D01*
X543633Y366304D01*
X543923Y366595D01*
X544250Y366828D01*
X544577Y366595D01*
X544867Y366304D01*
X545602Y366000D01*
X546398D01*
X547133Y366304D01*
X547423Y366595D01*
X547750Y366828D01*
X548077Y366595D01*
X548367Y366304D01*
X549102Y366000D01*
X549898D01*
X550633Y366304D01*
X551195Y366867D01*
X551500Y367602D01*
Y368398D01*
X551195Y369133D01*
X550633Y369695D01*
X549898Y370000D01*
D02*
G37*
G36*
X444804Y370883D02*
X444008D01*
X443273Y370579D01*
X442711Y370016D01*
X442406Y369281D01*
Y368485D01*
X442711Y367750D01*
X443273Y367188D01*
X444008Y366883D01*
X444804D01*
X445539Y367188D01*
X446102Y367750D01*
X446406Y368485D01*
Y369281D01*
X446102Y370016D01*
X445539Y370579D01*
X444804Y370883D01*
D02*
G37*
G36*
X393026Y370492D02*
X391974D01*
X390959Y370220D01*
X390049Y369694D01*
X389305Y368951D01*
X388780Y368041D01*
X388508Y367026D01*
Y365974D01*
X388780Y364959D01*
X389305Y364049D01*
X390049Y363305D01*
X390959Y362780D01*
X391974Y362508D01*
X393026D01*
X394041Y362780D01*
X394951Y363305D01*
X395694Y364049D01*
X396220Y364959D01*
X396492Y365974D01*
Y367026D01*
X396220Y368041D01*
X395694Y368951D01*
X394951Y369694D01*
X394041Y370220D01*
X393026Y370492D01*
D02*
G37*
G36*
X383026D02*
X381974D01*
X380959Y370220D01*
X380049Y369694D01*
X379306Y368951D01*
X378780Y368041D01*
X378508Y367026D01*
Y365974D01*
X378780Y364959D01*
X379306Y364049D01*
X380049Y363305D01*
X380959Y362780D01*
X381974Y362508D01*
X383026D01*
X384041Y362780D01*
X384951Y363305D01*
X385695Y364049D01*
X386220Y364959D01*
X386492Y365974D01*
Y367026D01*
X386220Y368041D01*
X385695Y368951D01*
X384951Y369694D01*
X384041Y370220D01*
X383026Y370492D01*
D02*
G37*
G36*
X373026D02*
X371974D01*
X370959Y370220D01*
X370049Y369694D01*
X369305Y368951D01*
X368780Y368041D01*
X368508Y367026D01*
Y365974D01*
X368780Y364959D01*
X369305Y364049D01*
X370049Y363305D01*
X370959Y362780D01*
X371974Y362508D01*
X373026D01*
X374041Y362780D01*
X374951Y363305D01*
X375694Y364049D01*
X376220Y364959D01*
X376492Y365974D01*
Y367026D01*
X376220Y368041D01*
X375694Y368951D01*
X374951Y369694D01*
X374041Y370220D01*
X373026Y370492D01*
D02*
G37*
G36*
X363026D02*
X361974D01*
X360959Y370220D01*
X360049Y369694D01*
X359306Y368951D01*
X358780Y368041D01*
X358508Y367026D01*
Y365974D01*
X358780Y364959D01*
X359306Y364049D01*
X360049Y363305D01*
X360959Y362780D01*
X361974Y362508D01*
X363026D01*
X364041Y362780D01*
X364951Y363305D01*
X365694Y364049D01*
X366220Y364959D01*
X366492Y365974D01*
Y367026D01*
X366220Y368041D01*
X365694Y368951D01*
X364951Y369694D01*
X364041Y370220D01*
X363026Y370492D01*
D02*
G37*
G36*
X353026D02*
X351974D01*
X350959Y370220D01*
X350049Y369694D01*
X349306Y368951D01*
X348780Y368041D01*
X348508Y367026D01*
Y365974D01*
X348780Y364959D01*
X349306Y364049D01*
X350049Y363305D01*
X350959Y362780D01*
X351974Y362508D01*
X353026D01*
X354041Y362780D01*
X354951Y363305D01*
X355695Y364049D01*
X356220Y364959D01*
X356492Y365974D01*
Y367026D01*
X356220Y368041D01*
X355695Y368951D01*
X354951Y369694D01*
X354041Y370220D01*
X353026Y370492D01*
D02*
G37*
G36*
X343026D02*
X341974D01*
X340959Y370220D01*
X340049Y369694D01*
X339305Y368951D01*
X338780Y368041D01*
X338508Y367026D01*
Y365974D01*
X338780Y364959D01*
X339305Y364049D01*
X340049Y363305D01*
X340959Y362780D01*
X341974Y362508D01*
X343026D01*
X344041Y362780D01*
X344951Y363305D01*
X345694Y364049D01*
X346220Y364959D01*
X346492Y365974D01*
Y367026D01*
X346220Y368041D01*
X345694Y368951D01*
X344951Y369694D01*
X344041Y370220D01*
X343026Y370492D01*
D02*
G37*
G36*
X333026D02*
X331974D01*
X330959Y370220D01*
X330049Y369694D01*
X329306Y368951D01*
X328780Y368041D01*
X328508Y367026D01*
Y365974D01*
X328780Y364959D01*
X329306Y364049D01*
X330049Y363305D01*
X330959Y362780D01*
X331974Y362508D01*
X333026D01*
X334041Y362780D01*
X334951Y363305D01*
X335695Y364049D01*
X336220Y364959D01*
X336492Y365974D01*
Y367026D01*
X336220Y368041D01*
X335695Y368951D01*
X334951Y369694D01*
X334041Y370220D01*
X333026Y370492D01*
D02*
G37*
G36*
X323026D02*
X321974D01*
X320959Y370220D01*
X320049Y369694D01*
X319305Y368951D01*
X318780Y368041D01*
X318508Y367026D01*
Y365974D01*
X318780Y364959D01*
X319305Y364049D01*
X320049Y363305D01*
X320959Y362780D01*
X321974Y362508D01*
X323026D01*
X324041Y362780D01*
X324951Y363305D01*
X325694Y364049D01*
X326220Y364959D01*
X326492Y365974D01*
Y367026D01*
X326220Y368041D01*
X325694Y368951D01*
X324951Y369694D01*
X324041Y370220D01*
X323026Y370492D01*
D02*
G37*
G36*
X313026D02*
X311974D01*
X310959Y370220D01*
X310049Y369694D01*
X309306Y368951D01*
X308780Y368041D01*
X308508Y367026D01*
Y365974D01*
X308780Y364959D01*
X309306Y364049D01*
X310049Y363305D01*
X310959Y362780D01*
X311974Y362508D01*
X313026D01*
X314041Y362780D01*
X314951Y363305D01*
X315694Y364049D01*
X316220Y364959D01*
X316492Y365974D01*
Y367026D01*
X316220Y368041D01*
X315694Y368951D01*
X314951Y369694D01*
X314041Y370220D01*
X313026Y370492D01*
D02*
G37*
G36*
X403996Y370541D02*
X401004D01*
X400030Y370347D01*
X399204Y369796D01*
X398653Y368970D01*
X398459Y367996D01*
Y365004D01*
X398653Y364030D01*
X399204Y363204D01*
X400030Y362653D01*
X401004Y362459D01*
X403996D01*
X404970Y362653D01*
X405796Y363204D01*
X406347Y364030D01*
X406541Y365004D01*
Y367996D01*
X406347Y368970D01*
X405796Y369796D01*
X404970Y370347D01*
X403996Y370541D01*
D02*
G37*
G36*
X479398Y371500D02*
X478602D01*
X477867Y371196D01*
X477305Y370633D01*
X477000Y369898D01*
Y369102D01*
X477305Y368367D01*
X477595Y368077D01*
X477828Y367750D01*
X477595Y367423D01*
X477305Y367133D01*
X477000Y366398D01*
Y365602D01*
X477305Y364867D01*
X477595Y364577D01*
X477828Y364250D01*
X477595Y363923D01*
X477305Y363633D01*
X477000Y362898D01*
Y362102D01*
X477305Y361367D01*
X477867Y360805D01*
X477999Y360750D01*
Y360250D01*
X477867Y360195D01*
X477305Y359633D01*
X477000Y358898D01*
Y358102D01*
X477305Y357367D01*
X477867Y356804D01*
X478602Y356500D01*
X479398D01*
X480133Y356804D01*
X480695Y357367D01*
X481000Y358102D01*
Y358898D01*
X480695Y359633D01*
X480133Y360195D01*
X480001Y360250D01*
Y360750D01*
X480133Y360805D01*
X480695Y361367D01*
X481000Y362102D01*
Y362898D01*
X480695Y363633D01*
X480405Y363923D01*
X480172Y364250D01*
X480405Y364577D01*
X480695Y364867D01*
X481000Y365602D01*
Y366398D01*
X480695Y367133D01*
X480405Y367423D01*
X480172Y367750D01*
X480405Y368077D01*
X480695Y368367D01*
X481000Y369102D01*
Y369898D01*
X480695Y370633D01*
X480133Y371196D01*
X479398Y371500D01*
D02*
G37*
G36*
X436898Y371000D02*
X436102D01*
X435367Y370695D01*
X434804Y370133D01*
X434500Y369398D01*
Y368602D01*
X434804Y367867D01*
X435172Y367500D01*
X434804Y367133D01*
X434500Y366398D01*
Y365602D01*
X434804Y364867D01*
X435367Y364304D01*
X435499Y364250D01*
Y363750D01*
X435367Y363696D01*
X434804Y363133D01*
X434500Y362398D01*
Y361602D01*
X434804Y360867D01*
X435095Y360577D01*
X435328Y360250D01*
X435095Y359923D01*
X434804Y359633D01*
X434500Y358898D01*
Y358102D01*
X434804Y357367D01*
X435367Y356804D01*
X436102Y356500D01*
X436898D01*
X437633Y356804D01*
X438196Y357367D01*
X438500Y358102D01*
Y358898D01*
X438196Y359633D01*
X437905Y359923D01*
X437672Y360250D01*
X437905Y360577D01*
X438196Y360867D01*
X438500Y361602D01*
Y362398D01*
X438196Y363133D01*
X437633Y363696D01*
X437501Y363750D01*
Y364250D01*
X437633Y364304D01*
X438196Y364867D01*
X438500Y365602D01*
Y366398D01*
X438196Y367133D01*
X437828Y367500D01*
X438196Y367867D01*
X438500Y368602D01*
Y369398D01*
X438196Y370133D01*
X437633Y370695D01*
X436898Y371000D01*
D02*
G37*
G36*
X519898Y370500D02*
X519102D01*
X518367Y370196D01*
X517804Y369633D01*
X517500Y368898D01*
Y368102D01*
X517804Y367367D01*
X518095Y367077D01*
X518328Y366750D01*
X518095Y366423D01*
X517804Y366133D01*
X517500Y365398D01*
Y364602D01*
X517804Y363867D01*
X518095Y363577D01*
X518328Y363250D01*
X518095Y362923D01*
X517804Y362633D01*
X517500Y361898D01*
Y361102D01*
X517804Y360367D01*
X518095Y360077D01*
X518328Y359750D01*
X518095Y359423D01*
X517804Y359133D01*
X517500Y358398D01*
Y357602D01*
X517804Y356867D01*
X518367Y356305D01*
X519102Y356000D01*
X519898D01*
X520633Y356305D01*
X521196Y356867D01*
X521500Y357602D01*
Y358398D01*
X521196Y359133D01*
X520905Y359423D01*
X520672Y359750D01*
X520905Y360077D01*
X521196Y360367D01*
X521500Y361102D01*
Y361898D01*
X521196Y362633D01*
X520905Y362923D01*
X520672Y363250D01*
X520905Y363577D01*
X521196Y363867D01*
X521500Y364602D01*
Y365398D01*
X521196Y366133D01*
X520905Y366423D01*
X520672Y366750D01*
X520905Y367077D01*
X521196Y367367D01*
X521500Y368102D01*
Y368898D01*
X521196Y369633D01*
X520633Y370196D01*
X519898Y370500D01*
D02*
G37*
G36*
X497898D02*
X497102D01*
X496367Y370196D01*
X495805Y369633D01*
X495500Y368898D01*
Y368102D01*
X495805Y367367D01*
X496095Y367077D01*
X496328Y366750D01*
X496095Y366423D01*
X495805Y366133D01*
X495500Y365398D01*
Y364602D01*
X495805Y363867D01*
X496095Y363577D01*
X496328Y363250D01*
X496095Y362923D01*
X495805Y362633D01*
X495500Y361898D01*
Y361102D01*
X495805Y360367D01*
X496095Y360077D01*
X496328Y359750D01*
X496095Y359423D01*
X495805Y359133D01*
X495500Y358398D01*
Y357602D01*
X495805Y356867D01*
X496367Y356305D01*
X497102Y356000D01*
X497898D01*
X498633Y356305D01*
X499195Y356867D01*
X499500Y357602D01*
Y358398D01*
X499195Y359133D01*
X498905Y359423D01*
X498672Y359750D01*
X498905Y360077D01*
X499195Y360367D01*
X499500Y361102D01*
Y361898D01*
X499195Y362633D01*
X498905Y362923D01*
X498672Y363250D01*
X498905Y363577D01*
X499195Y363867D01*
X499500Y364602D01*
Y365398D01*
X499195Y366133D01*
X498905Y366423D01*
X498672Y366750D01*
X498905Y367077D01*
X499195Y367367D01*
X499500Y368102D01*
Y368898D01*
X499195Y369633D01*
X498633Y370196D01*
X497898Y370500D01*
D02*
G37*
G36*
X457398Y371500D02*
X456602D01*
X455867Y371196D01*
X455304Y370633D01*
X455000Y369898D01*
Y369102D01*
X455304Y368367D01*
X455595Y368077D01*
X455828Y367750D01*
X455595Y367423D01*
X455304Y367133D01*
X455000Y366398D01*
Y365602D01*
X455304Y364867D01*
X455867Y364304D01*
X455999Y364250D01*
Y363750D01*
X455867Y363696D01*
X455304Y363133D01*
X455000Y362398D01*
Y361602D01*
X455304Y360867D01*
X455867Y360304D01*
X455999Y360250D01*
Y359750D01*
X455867Y359696D01*
X455304Y359133D01*
X455000Y358398D01*
Y357602D01*
X455304Y356867D01*
X455867Y356305D01*
X456602Y356000D01*
X457398D01*
X458133Y356305D01*
X458696Y356867D01*
X459000Y357602D01*
Y358398D01*
X458696Y359133D01*
X458133Y359696D01*
X458001Y359750D01*
Y360250D01*
X458133Y360304D01*
X458696Y360867D01*
X459000Y361602D01*
Y362398D01*
X458696Y363133D01*
X458133Y363696D01*
X458001Y363750D01*
Y364250D01*
X458133Y364304D01*
X458696Y364867D01*
X459000Y365602D01*
Y366398D01*
X458696Y367133D01*
X458405Y367423D01*
X458172Y367750D01*
X458405Y368077D01*
X458696Y368367D01*
X459000Y369102D01*
Y369898D01*
X458696Y370633D01*
X458133Y371196D01*
X457398Y371500D01*
D02*
G37*
G36*
X414898Y371000D02*
X414102D01*
X413367Y370695D01*
X412805Y370133D01*
X412500Y369398D01*
Y368602D01*
X412805Y367867D01*
X413367Y367304D01*
X413499Y367250D01*
Y366750D01*
X413367Y366695D01*
X412805Y366133D01*
X412500Y365398D01*
Y364602D01*
X412805Y363867D01*
X413095Y363577D01*
X413328Y363250D01*
X413095Y362923D01*
X412805Y362633D01*
X412500Y361898D01*
Y361102D01*
X412805Y360367D01*
X413095Y360077D01*
X413328Y359750D01*
X413095Y359423D01*
X412805Y359133D01*
X412500Y358398D01*
Y357602D01*
X412805Y356867D01*
X413367Y356305D01*
X414102Y356000D01*
X414898D01*
X415633Y356305D01*
X416195Y356867D01*
X416500Y357602D01*
Y358398D01*
X416195Y359133D01*
X415905Y359423D01*
X415672Y359750D01*
X415905Y360077D01*
X416195Y360367D01*
X416500Y361102D01*
Y361898D01*
X416195Y362633D01*
X415905Y362923D01*
X415672Y363250D01*
X415905Y363577D01*
X416195Y363867D01*
X416500Y364602D01*
Y365398D01*
X416195Y366133D01*
X415633Y366695D01*
X415501Y366750D01*
Y367250D01*
X415633Y367304D01*
X416195Y367867D01*
X416500Y368602D01*
Y369398D01*
X416195Y370133D01*
X415633Y370695D01*
X414898Y371000D01*
D02*
G37*
G36*
X304996Y357541D02*
X302004D01*
X301030Y357347D01*
X300204Y356796D01*
X299653Y355970D01*
X299459Y354996D01*
Y352004D01*
X299653Y351030D01*
X300204Y350204D01*
X301030Y349653D01*
X302004Y349459D01*
X304996D01*
X305970Y349653D01*
X306796Y350204D01*
X307347Y351030D01*
X307541Y352004D01*
Y354996D01*
X307347Y355970D01*
X306796Y356796D01*
X305970Y357347D01*
X304996Y357541D01*
D02*
G37*
G36*
X453898Y353000D02*
X453102D01*
X452367Y352695D01*
X451804Y352133D01*
X451500Y351398D01*
Y350602D01*
X451804Y349867D01*
X452367Y349305D01*
X453102Y349000D01*
X453898D01*
X454633Y349305D01*
X455196Y349867D01*
X455500Y350602D01*
Y351398D01*
X455196Y352133D01*
X454633Y352695D01*
X453898Y353000D01*
D02*
G37*
G36*
X416398Y352500D02*
X415602D01*
X414867Y352196D01*
X414304Y351633D01*
X414000Y350898D01*
Y350102D01*
X414304Y349367D01*
X414867Y348804D01*
X415602Y348500D01*
X416398D01*
X417133Y348804D01*
X417696Y349367D01*
X418000Y350102D01*
Y350898D01*
X417696Y351633D01*
X417133Y352196D01*
X416398Y352500D01*
D02*
G37*
G36*
X374898Y350709D02*
X374102D01*
X373367Y350404D01*
X372804Y349842D01*
X372500Y349107D01*
Y348311D01*
X372804Y347576D01*
X373367Y347013D01*
X374102Y346709D01*
X374898D01*
X375633Y347013D01*
X376196Y347576D01*
X376500Y348311D01*
Y349107D01*
X376196Y349842D01*
X375633Y350404D01*
X374898Y350709D01*
D02*
G37*
G36*
X549898Y347500D02*
X549102D01*
X548367Y347196D01*
X548077Y346905D01*
X547750Y346672D01*
X547423Y346905D01*
X547133Y347196D01*
X546398Y347500D01*
X545602D01*
X544867Y347196D01*
X544577Y346905D01*
X544250Y346672D01*
X543923Y346905D01*
X543633Y347196D01*
X542898Y347500D01*
X542102D01*
X541367Y347196D01*
X541077Y346905D01*
X540750Y346672D01*
X540423Y346905D01*
X540133Y347196D01*
X539398Y347500D01*
X538602D01*
X537867Y347196D01*
X537304Y346633D01*
X537000Y345898D01*
Y345102D01*
X537304Y344367D01*
X537867Y343805D01*
X538602Y343500D01*
X539398D01*
X540133Y343805D01*
X540423Y344095D01*
X540750Y344328D01*
X541077Y344095D01*
X541367Y343805D01*
X542102Y343500D01*
X542898D01*
X543633Y343805D01*
X543923Y344095D01*
X544250Y344328D01*
X544577Y344095D01*
X544867Y343805D01*
X545602Y343500D01*
X546398D01*
X547133Y343805D01*
X547423Y344095D01*
X547750Y344328D01*
X548077Y344095D01*
X548367Y343805D01*
X549102Y343500D01*
X549898D01*
X550633Y343805D01*
X551195Y344367D01*
X551500Y345102D01*
Y345898D01*
X551195Y346633D01*
X550633Y347196D01*
X549898Y347500D01*
D02*
G37*
G36*
X418898Y347362D02*
X418102D01*
X417367Y347058D01*
X416805Y346495D01*
X416500Y345760D01*
Y344964D01*
X416805Y344229D01*
X417367Y343667D01*
X418102Y343362D01*
X418898D01*
X419633Y343667D01*
X420195Y344229D01*
X420500Y344964D01*
Y345760D01*
X420195Y346495D01*
X419633Y347058D01*
X418898Y347362D01*
D02*
G37*
G36*
X502398Y346000D02*
X501602D01*
X500867Y345695D01*
X500305Y345133D01*
X500000Y344398D01*
Y343602D01*
X500305Y342867D01*
X500867Y342304D01*
X501602Y342000D01*
X502398D01*
X503133Y342304D01*
X503695Y342867D01*
X504000Y343602D01*
Y344398D01*
X503695Y345133D01*
X503133Y345695D01*
X502398Y346000D01*
D02*
G37*
G36*
X439398D02*
X438602D01*
X437867Y345695D01*
X437304Y345133D01*
X437000Y344398D01*
Y343602D01*
X437304Y342867D01*
X437867Y342304D01*
X438602Y342000D01*
X439398D01*
X440133Y342304D01*
X440695Y342867D01*
X441000Y343602D01*
Y344398D01*
X440695Y345133D01*
X440133Y345695D01*
X439398Y346000D01*
D02*
G37*
G36*
X357398Y345000D02*
X356602D01*
X355867Y344695D01*
X355305Y344133D01*
X355000Y343398D01*
Y342602D01*
X355305Y341867D01*
X355867Y341304D01*
X356602Y341000D01*
X357398D01*
X358133Y341304D01*
X358696Y341867D01*
X359000Y342602D01*
Y343398D01*
X358696Y344133D01*
X358133Y344695D01*
X357398Y345000D01*
D02*
G37*
G36*
X393898Y341000D02*
X393102D01*
X392367Y340696D01*
X391805Y340133D01*
X391687Y339849D01*
X391133Y339696D01*
X390398Y340000D01*
X389602D01*
X388867Y339696D01*
X388304Y339133D01*
X388000Y338398D01*
Y338201D01*
X387584Y337923D01*
X387398Y338000D01*
X386602D01*
X385867Y337696D01*
X385304Y337133D01*
X385000Y336398D01*
Y335602D01*
X385097Y335369D01*
X384714Y334986D01*
X384506Y335072D01*
X383710D01*
X382975Y334768D01*
X382413Y334205D01*
X382108Y333470D01*
Y332675D01*
X382413Y331940D01*
X382975Y331377D01*
X383710Y331072D01*
X384506D01*
X385241Y331377D01*
X385804Y331940D01*
X386108Y332675D01*
Y333470D01*
X386011Y333703D01*
X386394Y334086D01*
X386602Y334000D01*
X387398D01*
X388133Y334304D01*
X388696Y334867D01*
X389000Y335602D01*
Y335799D01*
X389416Y336077D01*
X389602Y336000D01*
X390398D01*
X391133Y336304D01*
X391695Y336867D01*
X391813Y337151D01*
X392367Y337304D01*
X393102Y337000D01*
X393898D01*
X394633Y337304D01*
X395196Y337867D01*
X395500Y338602D01*
Y339398D01*
X395196Y340133D01*
X394633Y340696D01*
X393898Y341000D01*
D02*
G37*
G36*
X304026Y347492D02*
X302974D01*
X301959Y347220D01*
X301049Y346694D01*
X300306Y345951D01*
X299780Y345041D01*
X299508Y344026D01*
Y342974D01*
X299780Y341959D01*
X300306Y341049D01*
X301049Y340305D01*
X301959Y339780D01*
X302974Y339508D01*
X304026D01*
X305041Y339780D01*
X305951Y340305D01*
X306695Y341049D01*
X307220Y341959D01*
X307492Y342974D01*
Y344026D01*
X307220Y345041D01*
X306695Y345951D01*
X305951Y346694D01*
X305041Y347220D01*
X304026Y347492D01*
D02*
G37*
G36*
X437898Y339500D02*
X437102D01*
X436367Y339195D01*
X435805Y338633D01*
X435500Y337898D01*
Y337102D01*
X435805Y336367D01*
X436367Y335805D01*
X437102Y335500D01*
X437898D01*
X438633Y335805D01*
X439195Y336367D01*
X439500Y337102D01*
Y337898D01*
X439195Y338633D01*
X438633Y339195D01*
X437898Y339500D01*
D02*
G37*
G36*
X370961Y337913D02*
X370165D01*
X369430Y337609D01*
X368867Y337046D01*
X368563Y336311D01*
Y335516D01*
X368867Y334781D01*
X369430Y334218D01*
X370165Y333913D01*
X370961D01*
X371696Y334218D01*
X372258Y334781D01*
X372563Y335516D01*
Y336311D01*
X372258Y337046D01*
X371696Y337609D01*
X370961Y337913D01*
D02*
G37*
G36*
X460898Y337638D02*
X460102D01*
X459367Y337333D01*
X458805Y336771D01*
X458500Y336036D01*
Y335240D01*
X458805Y334505D01*
X459367Y333942D01*
X460102Y333638D01*
X460898D01*
X461633Y333942D01*
X462195Y334505D01*
X462500Y335240D01*
Y336036D01*
X462195Y336771D01*
X461633Y337333D01*
X460898Y337638D01*
D02*
G37*
G36*
X429898Y335000D02*
X429102D01*
X428367Y334696D01*
X427805Y334133D01*
X427500Y333398D01*
Y332602D01*
X427805Y331867D01*
X428367Y331305D01*
X429102Y331000D01*
X429898D01*
X430633Y331305D01*
X431195Y331867D01*
X431500Y332602D01*
Y333398D01*
X431195Y334133D01*
X430633Y334696D01*
X429898Y335000D01*
D02*
G37*
G36*
X304026Y337492D02*
X302974D01*
X301959Y337220D01*
X301049Y336695D01*
X300306Y335951D01*
X299780Y335041D01*
X299508Y334026D01*
Y332974D01*
X299780Y331959D01*
X300306Y331049D01*
X301049Y330306D01*
X301959Y329780D01*
X302974Y329508D01*
X304026D01*
X305041Y329780D01*
X305951Y330306D01*
X306695Y331049D01*
X307220Y331959D01*
X307492Y332974D01*
Y334026D01*
X307220Y335041D01*
X306695Y335951D01*
X305951Y336695D01*
X305041Y337220D01*
X304026Y337492D01*
D02*
G37*
G36*
X456398Y332500D02*
X455602D01*
X454867Y332195D01*
X454305Y331633D01*
X454000Y330898D01*
Y330102D01*
X454305Y329367D01*
X454867Y328804D01*
X455602Y328500D01*
X456398D01*
X457133Y328804D01*
X457695Y329367D01*
X458000Y330102D01*
Y330898D01*
X457695Y331633D01*
X457133Y332195D01*
X456398Y332500D01*
D02*
G37*
G36*
X438080Y331598D02*
X437284D01*
X436549Y331294D01*
X435986Y330731D01*
X435682Y329996D01*
Y329200D01*
X435986Y328465D01*
X436549Y327903D01*
X437284Y327598D01*
X438080D01*
X438815Y327903D01*
X439377Y328465D01*
X439682Y329200D01*
Y329996D01*
X439377Y330731D01*
X438815Y331294D01*
X438080Y331598D01*
D02*
G37*
G36*
X317398Y331000D02*
X316602D01*
X315867Y330696D01*
X315304Y330133D01*
X315000Y329398D01*
Y328602D01*
X315304Y327867D01*
X315867Y327305D01*
X316602Y327000D01*
X317398D01*
X318133Y327305D01*
X318695Y327867D01*
X319000Y328602D01*
Y329398D01*
X318695Y330133D01*
X318133Y330696D01*
X317398Y331000D01*
D02*
G37*
G36*
X482646Y329209D02*
X481850D01*
X481115Y328904D01*
X480552Y328342D01*
X480248Y327607D01*
Y326811D01*
X480552Y326076D01*
X481115Y325513D01*
X481850Y325209D01*
X482646D01*
X483381Y325513D01*
X483943Y326076D01*
X484248Y326811D01*
Y327607D01*
X483943Y328342D01*
X483381Y328904D01*
X482646Y329209D01*
D02*
G37*
G36*
X368398Y327500D02*
X367602D01*
X366867Y327196D01*
X366304Y326633D01*
X366000Y325898D01*
Y325102D01*
X366304Y324367D01*
X366867Y323804D01*
X367602Y323500D01*
X368398D01*
X369133Y323804D01*
X369695Y324367D01*
X370000Y325102D01*
Y325898D01*
X369695Y326633D01*
X369133Y327196D01*
X368398Y327500D01*
D02*
G37*
G36*
X494898Y328500D02*
X494102D01*
X493367Y328196D01*
X492804Y327633D01*
X492500Y326898D01*
Y326102D01*
X492127Y325696D01*
X491684Y325512D01*
X491121Y324950D01*
X490817Y324215D01*
Y323419D01*
X491121Y322684D01*
X491684Y322121D01*
X492419Y321817D01*
X493215D01*
X493950Y322121D01*
X494512Y322684D01*
X494817Y323419D01*
Y324215D01*
X495190Y324621D01*
X495633Y324804D01*
X496196Y325367D01*
X496500Y326102D01*
Y326898D01*
X496196Y327633D01*
X495633Y328196D01*
X494898Y328500D01*
D02*
G37*
G36*
X354398Y325500D02*
X353602D01*
X352867Y325196D01*
X352305Y324633D01*
X352000Y323898D01*
Y323102D01*
X352305Y322367D01*
X352867Y321804D01*
X353602Y321500D01*
X354398D01*
X355133Y321804D01*
X355696Y322367D01*
X356000Y323102D01*
Y323898D01*
X355696Y324633D01*
X355133Y325196D01*
X354398Y325500D01*
D02*
G37*
G36*
X349898D02*
X349102D01*
X348367Y325196D01*
X347804Y324633D01*
X347500Y323898D01*
Y323102D01*
X347804Y322367D01*
X348367Y321804D01*
X349102Y321500D01*
X349898D01*
X350633Y321804D01*
X351196Y322367D01*
X351500Y323102D01*
Y323898D01*
X351196Y324633D01*
X350633Y325196D01*
X349898Y325500D01*
D02*
G37*
G36*
X414740Y324000D02*
X413945D01*
X413210Y323695D01*
X412647Y323133D01*
X412343Y322398D01*
Y321602D01*
X412647Y320867D01*
X413210Y320304D01*
X413945Y320000D01*
X414740D01*
X415475Y320304D01*
X416038Y320867D01*
X416342Y321602D01*
Y322398D01*
X416038Y323133D01*
X415475Y323695D01*
X414740Y324000D01*
D02*
G37*
G36*
X304026Y327492D02*
X302974D01*
X301959Y327220D01*
X301049Y326694D01*
X300306Y325951D01*
X299780Y325041D01*
X299508Y324026D01*
Y322974D01*
X299780Y321959D01*
X300306Y321049D01*
X301049Y320305D01*
X301959Y319780D01*
X302974Y319508D01*
X304026D01*
X305041Y319780D01*
X305951Y320305D01*
X306695Y321049D01*
X307220Y321959D01*
X307492Y322974D01*
Y324026D01*
X307220Y325041D01*
X306695Y325951D01*
X305951Y326694D01*
X305041Y327220D01*
X304026Y327492D01*
D02*
G37*
G36*
X324898Y322500D02*
X324102D01*
X323367Y322196D01*
X322804Y321633D01*
X322500Y320898D01*
Y320102D01*
X322804Y319367D01*
X323367Y318805D01*
X324102Y318500D01*
X324898D01*
X325633Y318805D01*
X326196Y319367D01*
X326500Y320102D01*
Y320898D01*
X326196Y321633D01*
X325633Y322196D01*
X324898Y322500D01*
D02*
G37*
G36*
X475406Y321209D02*
X474610D01*
X473875Y320904D01*
X473312Y320342D01*
X473008Y319606D01*
Y318811D01*
X473312Y318076D01*
X473875Y317513D01*
X474610Y317209D01*
X475406D01*
X476141Y317513D01*
X476703Y318076D01*
X477008Y318811D01*
Y319606D01*
X476703Y320342D01*
X476141Y320904D01*
X475406Y321209D01*
D02*
G37*
G36*
X360398Y319500D02*
X359602D01*
X358867Y319196D01*
X358305Y318633D01*
X358000Y317898D01*
Y317102D01*
X358305Y316367D01*
X358867Y315805D01*
X359602Y315500D01*
X360398D01*
X361133Y315805D01*
X361696Y316367D01*
X362000Y317102D01*
Y317898D01*
X361696Y318633D01*
X361133Y319196D01*
X360398Y319500D01*
D02*
G37*
G36*
X438080Y318244D02*
X437284D01*
X436549Y317939D01*
X435986Y317377D01*
X435682Y316641D01*
Y315846D01*
X435986Y315111D01*
X436549Y314548D01*
X437284Y314244D01*
X438080D01*
X438815Y314548D01*
X439377Y315111D01*
X439682Y315846D01*
Y316641D01*
X439377Y317377D01*
X438815Y317939D01*
X438080Y318244D01*
D02*
G37*
G36*
X514646Y318000D02*
X513850D01*
X513115Y317695D01*
X512552Y317133D01*
X512248Y316398D01*
Y315602D01*
X512552Y314867D01*
X513115Y314304D01*
X513850Y314000D01*
X514646D01*
X515381Y314304D01*
X515943Y314867D01*
X516248Y315602D01*
Y316398D01*
X515943Y317133D01*
X515381Y317695D01*
X514646Y318000D01*
D02*
G37*
G36*
X344621Y315777D02*
X343825D01*
X343090Y315473D01*
X342527Y314910D01*
X342223Y314175D01*
X341723Y313865D01*
X341398Y314000D01*
X340602D01*
X339867Y313696D01*
X339304Y313133D01*
X339000Y312398D01*
Y311602D01*
X339304Y310867D01*
X339867Y310304D01*
X340602Y310000D01*
X341398D01*
X342133Y310304D01*
X342695Y310867D01*
X343000Y311602D01*
X343500Y311912D01*
X343825Y311777D01*
X344621D01*
X345356Y312082D01*
X345918Y312644D01*
X346223Y313379D01*
Y314175D01*
X345918Y314910D01*
X345356Y315473D01*
X344621Y315777D01*
D02*
G37*
G36*
X479870Y315901D02*
X479074D01*
X478339Y315597D01*
X477777Y315034D01*
X477472Y314299D01*
Y313504D01*
X477777Y312768D01*
X478339Y312206D01*
X479074Y311901D01*
X479870D01*
X480605Y312206D01*
X481168Y312768D01*
X481472Y313504D01*
Y314299D01*
X481168Y315034D01*
X480605Y315597D01*
X479870Y315901D01*
D02*
G37*
G36*
X494080Y315744D02*
X493284D01*
X492549Y315439D01*
X491986Y314877D01*
X491682Y314142D01*
Y313346D01*
X491986Y312611D01*
X492549Y312048D01*
X493284Y311744D01*
X494080D01*
X494815Y312048D01*
X495377Y312611D01*
X495682Y313346D01*
Y314142D01*
X495377Y314877D01*
X494815Y315439D01*
X494080Y315744D01*
D02*
G37*
G36*
X304026Y317492D02*
X302974D01*
X301959Y317220D01*
X301049Y316694D01*
X300306Y315951D01*
X299780Y315041D01*
X299508Y314026D01*
Y312974D01*
X299780Y311959D01*
X300306Y311049D01*
X301049Y310306D01*
X301959Y309780D01*
X302974Y309508D01*
X304026D01*
X305041Y309780D01*
X305951Y310306D01*
X306695Y311049D01*
X307220Y311959D01*
X307492Y312974D01*
Y314026D01*
X307220Y315041D01*
X306695Y315951D01*
X305951Y316694D01*
X305041Y317220D01*
X304026Y317492D01*
D02*
G37*
G36*
X488406Y309709D02*
X487610D01*
X486875Y309404D01*
X486508Y309037D01*
X486141Y309404D01*
X485406Y309709D01*
X484610D01*
X483875Y309404D01*
X483312Y308842D01*
X483008Y308106D01*
Y307311D01*
X483312Y306576D01*
X483429Y306459D01*
X483312Y306342D01*
X483008Y305607D01*
Y304811D01*
X483312Y304076D01*
X483875Y303513D01*
X484610Y303209D01*
X485406D01*
X486141Y303513D01*
X486508Y303880D01*
X486875Y303513D01*
X487610Y303209D01*
X488406D01*
X489141Y303513D01*
X489703Y304076D01*
X490008Y304811D01*
Y305607D01*
X489703Y306342D01*
X489586Y306459D01*
X489703Y306576D01*
X490008Y307311D01*
Y308106D01*
X489703Y308842D01*
X489141Y309404D01*
X488406Y309709D01*
D02*
G37*
G36*
X528150Y313000D02*
X527354D01*
X526619Y312696D01*
X526056Y312133D01*
X525752Y311398D01*
Y310602D01*
X526056Y309867D01*
X526619Y309304D01*
X527354Y309000D01*
X528150D01*
X528885Y309304D01*
X529448Y309867D01*
X529752Y310602D01*
Y311398D01*
X529448Y312133D01*
X528885Y312696D01*
X528150Y313000D01*
D02*
G37*
G36*
X384398Y314000D02*
X383602D01*
X382867Y313696D01*
X382305Y313133D01*
X382000Y312398D01*
Y311602D01*
X382174Y311182D01*
X382349Y310713D01*
X381787Y310151D01*
X381482Y309416D01*
Y308620D01*
X381787Y307885D01*
X382349Y307322D01*
X383084Y307018D01*
X383880D01*
X384615Y307322D01*
X385178Y307885D01*
X385482Y308620D01*
Y309416D01*
X385308Y309836D01*
X385133Y310304D01*
X385696Y310867D01*
X386000Y311602D01*
Y312398D01*
X385696Y313133D01*
X385133Y313696D01*
X384398Y314000D01*
D02*
G37*
G36*
X411398Y311500D02*
X410602D01*
X409867Y311195D01*
X409305Y310633D01*
X409000Y309898D01*
Y309102D01*
X409305Y308367D01*
X409867Y307804D01*
X410020Y307741D01*
Y307200D01*
X409867Y307137D01*
X409305Y306574D01*
X409000Y305839D01*
Y305043D01*
X409305Y304308D01*
X409867Y303745D01*
X410602Y303441D01*
X411398D01*
X412133Y303745D01*
X412696Y304308D01*
X413000Y305043D01*
Y305839D01*
X412696Y306574D01*
X412133Y307137D01*
X411980Y307200D01*
Y307741D01*
X412133Y307804D01*
X412696Y308367D01*
X413000Y309102D01*
Y309898D01*
X412696Y310633D01*
X412133Y311195D01*
X411398Y311500D01*
D02*
G37*
G36*
X340898Y309500D02*
X340102D01*
X339367Y309195D01*
X338805Y308633D01*
X338500Y307898D01*
Y307102D01*
X338805Y306367D01*
X339367Y305804D01*
X340005Y305540D01*
X340144Y305199D01*
X340172Y305000D01*
X339805Y304633D01*
X339500Y303898D01*
Y303102D01*
X339805Y302367D01*
X340367Y301804D01*
X341102Y301500D01*
X341898D01*
X342633Y301804D01*
X343196Y302367D01*
X343500Y303102D01*
Y303898D01*
X343196Y304633D01*
X342633Y305195D01*
X341995Y305460D01*
X341856Y305801D01*
X341828Y306000D01*
X342196Y306367D01*
X342500Y307102D01*
Y307898D01*
X342196Y308633D01*
X341633Y309195D01*
X340898Y309500D01*
D02*
G37*
G36*
X445835Y305063D02*
X445039D01*
X444304Y304759D01*
X443742Y304196D01*
X443437Y303461D01*
Y302665D01*
X443742Y301930D01*
X444304Y301367D01*
X445039Y301063D01*
X445835D01*
X446570Y301367D01*
X447132Y301930D01*
X447437Y302665D01*
Y303461D01*
X447132Y304196D01*
X446570Y304759D01*
X445835Y305063D01*
D02*
G37*
G36*
X369898Y305000D02*
X369102D01*
X368367Y304696D01*
X367805Y304133D01*
X367500Y303398D01*
Y302602D01*
X367805Y301867D01*
X368367Y301305D01*
X369102Y301000D01*
X369898D01*
X370633Y301305D01*
X371196Y301867D01*
X371500Y302602D01*
Y303398D01*
X371196Y304133D01*
X370633Y304696D01*
X369898Y305000D01*
D02*
G37*
G36*
X304026Y307492D02*
X302974D01*
X301959Y307220D01*
X301049Y306695D01*
X300306Y305951D01*
X299780Y305041D01*
X299508Y304026D01*
Y302974D01*
X299780Y301959D01*
X300306Y301049D01*
X301049Y300306D01*
X301959Y299780D01*
X302974Y299508D01*
X304026D01*
X305041Y299780D01*
X305951Y300306D01*
X306695Y301049D01*
X307220Y301959D01*
X307492Y302974D01*
Y304026D01*
X307220Y305041D01*
X306695Y305951D01*
X305951Y306695D01*
X305041Y307220D01*
X304026Y307492D01*
D02*
G37*
G36*
X360666Y303268D02*
X359870D01*
X359135Y302963D01*
X358572Y302401D01*
X358268Y301666D01*
Y300870D01*
X358572Y300135D01*
X359135Y299572D01*
X359870Y299268D01*
X360666D01*
X361401Y299572D01*
X361963Y300135D01*
X362268Y300870D01*
Y301666D01*
X361963Y302401D01*
X361401Y302963D01*
X360666Y303268D01*
D02*
G37*
G36*
X324380Y303000D02*
X323584D01*
X322849Y302695D01*
X322287Y302133D01*
X321982Y301398D01*
Y300602D01*
X322287Y299867D01*
X322849Y299305D01*
X323584Y299000D01*
X324380D01*
X325115Y299305D01*
X325678Y299867D01*
X325982Y300602D01*
Y301398D01*
X325678Y302133D01*
X325115Y302695D01*
X324380Y303000D01*
D02*
G37*
G36*
X392398Y302500D02*
X391602D01*
X390867Y302196D01*
X390304Y301633D01*
X390000Y300898D01*
Y300102D01*
X390304Y299367D01*
X390867Y298804D01*
X391602Y298500D01*
X392398D01*
X393133Y298804D01*
X393695Y299367D01*
X394000Y300102D01*
Y300898D01*
X393695Y301633D01*
X393133Y302196D01*
X392398Y302500D01*
D02*
G37*
G36*
X384898D02*
X384102D01*
X383367Y302196D01*
X382804Y301633D01*
X382500Y300898D01*
Y300102D01*
X382804Y299367D01*
X383367Y298804D01*
X384102Y298500D01*
X384898D01*
X385633Y298804D01*
X386195Y299367D01*
X386500Y300102D01*
Y300898D01*
X386195Y301633D01*
X385633Y302196D01*
X384898Y302500D01*
D02*
G37*
G36*
X498398Y302000D02*
X497602D01*
X496867Y301695D01*
X496305Y301133D01*
X496000Y300398D01*
Y299602D01*
X496305Y298867D01*
X496867Y298305D01*
X497602Y298000D01*
X498398D01*
X499133Y298305D01*
X499695Y298867D01*
X500000Y299602D01*
Y300398D01*
X499695Y301133D01*
X499133Y301695D01*
X498398Y302000D01*
D02*
G37*
G36*
X475406Y301709D02*
X474610D01*
X473875Y301404D01*
X473312Y300842D01*
X473008Y300107D01*
Y299311D01*
X473312Y298576D01*
X473875Y298013D01*
X474610Y297709D01*
X475406D01*
X476141Y298013D01*
X476703Y298576D01*
X477008Y299311D01*
Y300107D01*
X476703Y300842D01*
X476141Y301404D01*
X475406Y301709D01*
D02*
G37*
G36*
X480080Y300744D02*
X479284D01*
X478549Y300439D01*
X477986Y299877D01*
X477682Y299142D01*
Y298346D01*
X477986Y297611D01*
X478549Y297048D01*
X479284Y296744D01*
X480080D01*
X480815Y297048D01*
X481377Y297611D01*
X481682Y298346D01*
Y299142D01*
X481377Y299877D01*
X480815Y300439D01*
X480080Y300744D01*
D02*
G37*
G36*
X494236Y300087D02*
X493440D01*
X492705Y299782D01*
X492142Y299219D01*
X491838Y298484D01*
Y297689D01*
X492142Y296954D01*
X492705Y296391D01*
X493440Y296087D01*
X494236D01*
X494971Y296391D01*
X495533Y296954D01*
X495838Y297689D01*
Y298484D01*
X495533Y299219D01*
X494971Y299782D01*
X494236Y300087D01*
D02*
G37*
G36*
X332398Y298500D02*
X331602D01*
X330867Y298196D01*
X330305Y297633D01*
X330000Y296898D01*
Y296102D01*
X330305Y295367D01*
X330867Y294805D01*
X331602Y294500D01*
X332398D01*
X333133Y294805D01*
X333696Y295367D01*
X334000Y296102D01*
Y296898D01*
X333696Y297633D01*
X333133Y298196D01*
X332398Y298500D01*
D02*
G37*
G36*
X399398Y297272D02*
X398602D01*
X397867Y296967D01*
X397305Y296405D01*
X397000Y295670D01*
Y294874D01*
X397041Y294775D01*
X396658Y294392D01*
X396398Y294500D01*
X395602D01*
X394867Y294196D01*
X394304Y293633D01*
X394000Y292898D01*
Y292102D01*
X394304Y291367D01*
X394867Y290805D01*
X395602Y290500D01*
X396398D01*
X397133Y290805D01*
X397695Y291367D01*
X398000Y292102D01*
Y292898D01*
X397959Y292997D01*
X398342Y293380D01*
X398602Y293272D01*
X399398D01*
X400133Y293576D01*
X400696Y294139D01*
X401000Y294874D01*
Y295670D01*
X400696Y296405D01*
X400133Y296967D01*
X399398Y297272D01*
D02*
G37*
G36*
X370566Y297020D02*
X369771D01*
X369036Y296716D01*
X368473Y296153D01*
X368169Y295418D01*
Y294622D01*
X368473Y293887D01*
X369036Y293324D01*
X369771Y293020D01*
X370566D01*
X371302Y293324D01*
X371864Y293887D01*
X372169Y294622D01*
Y295418D01*
X371864Y296153D01*
X371302Y296716D01*
X370566Y297020D01*
D02*
G37*
G36*
X342398Y299000D02*
X341602D01*
X340867Y298695D01*
X340304Y298133D01*
X340000Y297398D01*
Y296602D01*
X340304Y295867D01*
X340867Y295304D01*
X341602Y295000D01*
X342398D01*
X342773Y295155D01*
X343155Y294773D01*
X343000Y294398D01*
Y293602D01*
X343304Y292867D01*
X343867Y292304D01*
X344602Y292000D01*
X345398D01*
X346133Y292304D01*
X346695Y292867D01*
X347000Y293602D01*
Y294398D01*
X346695Y295133D01*
X346133Y295695D01*
X345398Y296000D01*
X344602D01*
X344228Y295845D01*
X343845Y296228D01*
X344000Y296602D01*
Y297398D01*
X343695Y298133D01*
X343133Y298695D01*
X342398Y299000D01*
D02*
G37*
G36*
X304026Y297492D02*
X302974D01*
X301959Y297220D01*
X301049Y296694D01*
X300306Y295951D01*
X299780Y295041D01*
X299508Y294026D01*
Y292974D01*
X299780Y291959D01*
X300306Y291049D01*
X301049Y290305D01*
X301959Y289780D01*
X302974Y289508D01*
X304026D01*
X305041Y289780D01*
X305951Y290305D01*
X306695Y291049D01*
X307220Y291959D01*
X307492Y292974D01*
Y294026D01*
X307220Y295041D01*
X306695Y295951D01*
X305951Y296694D01*
X305041Y297220D01*
X304026Y297492D01*
D02*
G37*
G36*
X423898Y293000D02*
X423102D01*
X422367Y292695D01*
X421805Y292133D01*
X421500Y291398D01*
Y290602D01*
X421805Y289867D01*
X422367Y289304D01*
X423102Y289000D01*
X423898D01*
X424633Y289304D01*
X425196Y289867D01*
X425500Y290602D01*
Y291398D01*
X425196Y292133D01*
X424633Y292695D01*
X423898Y293000D01*
D02*
G37*
G36*
X318898Y292744D02*
X318102D01*
X317367Y292440D01*
X316805Y291877D01*
X316500Y291142D01*
Y290346D01*
X316805Y289611D01*
X317367Y289049D01*
X318102Y288744D01*
X318898D01*
X319633Y289049D01*
X320196Y289611D01*
X320500Y290346D01*
Y291142D01*
X320196Y291877D01*
X319633Y292440D01*
X318898Y292744D01*
D02*
G37*
G36*
X312398D02*
X311602D01*
X310867Y292440D01*
X310304Y291877D01*
X310000Y291142D01*
Y290346D01*
X310304Y289611D01*
X310867Y289049D01*
X311602Y288744D01*
X312398D01*
X313133Y289049D01*
X313696Y289611D01*
X314000Y290346D01*
Y291142D01*
X313696Y291877D01*
X313133Y292440D01*
X312398Y292744D01*
D02*
G37*
G36*
X368398Y292000D02*
X367602D01*
X366867Y291695D01*
X366304Y291133D01*
X366000Y290398D01*
Y289602D01*
X366304Y288867D01*
X366867Y288304D01*
X367602Y288000D01*
X368398D01*
X369133Y288304D01*
X369695Y288867D01*
X370000Y289602D01*
Y290398D01*
X369695Y291133D01*
X369133Y291695D01*
X368398Y292000D01*
D02*
G37*
G36*
X479365Y291709D02*
X478569D01*
X477834Y291404D01*
X477272Y290842D01*
X476967Y290107D01*
Y289311D01*
X477272Y288576D01*
X477834Y288013D01*
X478569Y287709D01*
X479365D01*
X480100Y288013D01*
X480663Y288576D01*
X480967Y289311D01*
Y290107D01*
X480663Y290842D01*
X480100Y291404D01*
X479365Y291709D01*
D02*
G37*
G36*
X334898Y291500D02*
X334102D01*
X333367Y291196D01*
X332804Y290633D01*
X332500Y289898D01*
Y289102D01*
X332804Y288367D01*
X333367Y287805D01*
X334102Y287500D01*
X334898D01*
X335633Y287805D01*
X336195Y288367D01*
X336500Y289102D01*
Y289898D01*
X336195Y290633D01*
X335633Y291196D01*
X334898Y291500D01*
D02*
G37*
G36*
X365366Y287609D02*
X364571D01*
X363836Y287304D01*
X363273Y286742D01*
X362968Y286007D01*
Y285211D01*
X363273Y284476D01*
X363836Y283913D01*
X364571Y283609D01*
X365366D01*
X366101Y283913D01*
X366664Y284476D01*
X366968Y285211D01*
Y286007D01*
X366664Y286742D01*
X366101Y287304D01*
X365366Y287609D01*
D02*
G37*
G36*
X435898Y287500D02*
X435102D01*
X434367Y287195D01*
X433805Y286633D01*
X433500Y285898D01*
Y285102D01*
X433805Y284367D01*
X434367Y283804D01*
X435102Y283500D01*
X435898D01*
X436633Y283804D01*
X437195Y284367D01*
X437500Y285102D01*
Y285898D01*
X437195Y286633D01*
X436633Y287195D01*
X435898Y287500D01*
D02*
G37*
G36*
X461363Y286854D02*
X460568D01*
X459833Y286549D01*
X459270Y285986D01*
X458965Y285251D01*
Y284456D01*
X459270Y283721D01*
X459833Y283158D01*
X460568Y282854D01*
X461363D01*
X462099Y283158D01*
X462661Y283721D01*
X462965Y284456D01*
Y285251D01*
X462661Y285986D01*
X462099Y286549D01*
X461363Y286854D01*
D02*
G37*
G36*
X449898Y284890D02*
X449102D01*
X448367Y284585D01*
X447804Y284023D01*
X447500Y283288D01*
Y282492D01*
X447804Y281757D01*
X448367Y281194D01*
X449102Y280890D01*
X449898D01*
X450633Y281194D01*
X451195Y281757D01*
X451500Y282492D01*
Y283288D01*
X451195Y284023D01*
X450633Y284585D01*
X449898Y284890D01*
D02*
G37*
G36*
X304026Y287492D02*
X302974D01*
X301959Y287220D01*
X301049Y286695D01*
X300306Y285951D01*
X299780Y285041D01*
X299508Y284026D01*
Y282974D01*
X299780Y281959D01*
X300306Y281049D01*
X301049Y280306D01*
X301959Y279780D01*
X302974Y279508D01*
X304026D01*
X305041Y279780D01*
X305951Y280306D01*
X306695Y281049D01*
X307220Y281959D01*
X307492Y282974D01*
Y284026D01*
X307220Y285041D01*
X306695Y285951D01*
X305951Y286695D01*
X305041Y287220D01*
X304026Y287492D01*
D02*
G37*
G36*
X549398Y279000D02*
X548602D01*
X547867Y278696D01*
X547577Y278405D01*
X547250Y278172D01*
X546923Y278405D01*
X546633Y278696D01*
X545898Y279000D01*
X545102D01*
X544367Y278696D01*
X544077Y278405D01*
X543750Y278172D01*
X543423Y278405D01*
X543133Y278696D01*
X542398Y279000D01*
X541602D01*
X540867Y278696D01*
X540577Y278405D01*
X540250Y278172D01*
X539923Y278405D01*
X539633Y278696D01*
X538898Y279000D01*
X538102D01*
X537367Y278696D01*
X536804Y278133D01*
X536500Y277398D01*
Y276602D01*
X536804Y275867D01*
X537367Y275305D01*
X538102Y275000D01*
X538898D01*
X539633Y275305D01*
X539923Y275595D01*
X540250Y275828D01*
X540577Y275595D01*
X540867Y275305D01*
X541602Y275000D01*
X542398D01*
X543133Y275305D01*
X543423Y275595D01*
X543750Y275828D01*
X544077Y275595D01*
X544367Y275305D01*
X545102Y275000D01*
X545898D01*
X546633Y275305D01*
X546923Y275595D01*
X547250Y275828D01*
X547577Y275595D01*
X547867Y275305D01*
X548602Y275000D01*
X549398D01*
X550133Y275305D01*
X550696Y275867D01*
X551000Y276602D01*
Y277398D01*
X550696Y278133D01*
X550133Y278696D01*
X549398Y279000D01*
D02*
G37*
G36*
X363398Y282000D02*
X362602D01*
X361867Y281696D01*
X361304Y281133D01*
X361000Y280398D01*
Y279602D01*
X361304Y278867D01*
X361867Y278305D01*
X362602Y278000D01*
X363398D01*
X364133Y278305D01*
X364696Y278867D01*
X365000Y279602D01*
Y280398D01*
X364696Y281133D01*
X364133Y281696D01*
X363398Y282000D01*
D02*
G37*
G36*
X493307Y281410D02*
X492512D01*
X491777Y281105D01*
X491214Y280542D01*
X490910Y279807D01*
Y279012D01*
X491214Y278277D01*
X491777Y277714D01*
X492512Y277410D01*
X493307D01*
X494042Y277714D01*
X494605Y278277D01*
X494910Y279012D01*
Y279807D01*
X494605Y280542D01*
X494042Y281105D01*
X493307Y281410D01*
D02*
G37*
G36*
X419898Y279000D02*
X419102D01*
X418367Y278696D01*
X417804Y278133D01*
X417500Y277398D01*
Y276602D01*
X417804Y275867D01*
X418367Y275305D01*
X419102Y275000D01*
X419898D01*
X420633Y275305D01*
X421196Y275867D01*
X421500Y276602D01*
Y277398D01*
X421196Y278133D01*
X420633Y278696D01*
X419898Y279000D01*
D02*
G37*
G36*
X499807Y277697D02*
X499012D01*
X498277Y277392D01*
X497714Y276830D01*
X497410Y276094D01*
Y275299D01*
X497714Y274564D01*
X498277Y274001D01*
X499012Y273697D01*
X499807D01*
X500542Y274001D01*
X501105Y274564D01*
X501410Y275299D01*
Y276094D01*
X501105Y276830D01*
X500542Y277392D01*
X499807Y277697D01*
D02*
G37*
G36*
X485807Y276561D02*
X485012D01*
X484277Y276256D01*
X483714Y275694D01*
X483410Y274959D01*
Y274163D01*
X483714Y273428D01*
X484277Y272865D01*
X485012Y272561D01*
X485807D01*
X486543Y272865D01*
X487105Y273428D01*
X487410Y274163D01*
Y274959D01*
X487105Y275694D01*
X486543Y276256D01*
X485807Y276561D01*
D02*
G37*
G36*
X477898Y276502D02*
X477102D01*
X476367Y276198D01*
X475805Y275635D01*
X475500Y274900D01*
Y274104D01*
X475805Y273369D01*
X476367Y272807D01*
X477102Y272502D01*
X477898D01*
X478633Y272807D01*
X479195Y273369D01*
X479500Y274104D01*
Y274900D01*
X479195Y275635D01*
X478633Y276198D01*
X477898Y276502D01*
D02*
G37*
G36*
X506398Y276500D02*
X505602D01*
X504867Y276196D01*
X504305Y275633D01*
X504000Y274898D01*
Y274102D01*
X504305Y273367D01*
X504867Y272804D01*
X505602Y272500D01*
X506398D01*
X507133Y272804D01*
X507695Y273367D01*
X508000Y274102D01*
Y274898D01*
X507695Y275633D01*
X507133Y276196D01*
X506398Y276500D01*
D02*
G37*
G36*
X469898Y275522D02*
X469102D01*
X468367Y275217D01*
X467804Y274655D01*
X467500Y273920D01*
Y273124D01*
X467804Y272389D01*
X468367Y271826D01*
X469102Y271522D01*
X469898D01*
X470633Y271826D01*
X471196Y272389D01*
X471500Y273124D01*
Y273920D01*
X471196Y274655D01*
X470633Y275217D01*
X469898Y275522D01*
D02*
G37*
G36*
X463382Y274560D02*
X462587D01*
X461852Y274255D01*
X461289Y273693D01*
X460985Y272957D01*
Y272162D01*
X461289Y271427D01*
X461852Y270864D01*
X462587Y270560D01*
X463382D01*
X464118Y270864D01*
X464680Y271427D01*
X464985Y272162D01*
Y272957D01*
X464680Y273693D01*
X464118Y274255D01*
X463382Y274560D01*
D02*
G37*
G36*
X432039Y268917D02*
X431244D01*
X430508Y268612D01*
X430212Y268316D01*
X430034Y268494D01*
X429299Y268799D01*
X428503D01*
X427768Y268494D01*
X427330Y268056D01*
X426774Y268612D01*
X426039Y268917D01*
X425244D01*
X424508Y268612D01*
X423946Y268050D01*
X423641Y267315D01*
Y266519D01*
X423946Y265784D01*
X424508Y265221D01*
X425244Y264917D01*
X426039D01*
X426774Y265221D01*
X427212Y265659D01*
X427768Y265103D01*
X428503Y264799D01*
X429299D01*
X430034Y265103D01*
X430330Y265399D01*
X430508Y265221D01*
X431244Y264917D01*
X432039D01*
X432774Y265221D01*
X433337Y265784D01*
X433641Y266519D01*
Y267315D01*
X433337Y268050D01*
X432774Y268612D01*
X432039Y268917D01*
D02*
G37*
G36*
X506620Y271774D02*
X505824D01*
X505089Y271469D01*
X504527Y270906D01*
X504222Y270171D01*
Y269376D01*
X504527Y268640D01*
X505089Y268078D01*
X505824Y267774D01*
X506620D01*
X507355Y268078D01*
X507918Y268640D01*
X508222Y269376D01*
Y270171D01*
X507918Y270906D01*
X507355Y271469D01*
X506620Y271774D01*
D02*
G37*
G36*
X400580Y271495D02*
X399784D01*
X399049Y271190D01*
X398486Y270628D01*
X398182Y269893D01*
Y269097D01*
X398486Y268362D01*
X399049Y267799D01*
X399784Y267495D01*
X400580D01*
X401315Y267799D01*
X401877Y268362D01*
X402182Y269097D01*
Y269893D01*
X401877Y270628D01*
X401315Y271190D01*
X400580Y271495D01*
D02*
G37*
G36*
X415831Y271244D02*
X415035D01*
X414300Y270939D01*
X413737Y270377D01*
X413433Y269641D01*
Y268846D01*
X413737Y268111D01*
X414300Y267548D01*
X415035Y267244D01*
X415831D01*
X416566Y267548D01*
X417129Y268111D01*
X417433Y268846D01*
Y269641D01*
X417129Y270377D01*
X416566Y270939D01*
X415831Y271244D01*
D02*
G37*
G36*
X322398Y271000D02*
X321602D01*
X320867Y270695D01*
X320304Y270133D01*
X320000Y269398D01*
Y268602D01*
X320304Y267867D01*
X320867Y267304D01*
X321602Y267000D01*
X322398D01*
X323133Y267304D01*
X323695Y267867D01*
X324000Y268602D01*
Y269398D01*
X323695Y270133D01*
X323133Y270695D01*
X322398Y271000D01*
D02*
G37*
G36*
X385580Y270995D02*
X384784D01*
X384049Y270690D01*
X383486Y270128D01*
X383182Y269393D01*
Y268597D01*
X383486Y267862D01*
X384049Y267299D01*
X384784Y266995D01*
X385580D01*
X386315Y267299D01*
X386877Y267862D01*
X387182Y268597D01*
Y269393D01*
X386877Y270128D01*
X386315Y270690D01*
X385580Y270995D01*
D02*
G37*
G36*
X469898Y264500D02*
X469102D01*
X468367Y264195D01*
X467804Y263633D01*
X467500Y262898D01*
Y262102D01*
X467804Y261367D01*
X468367Y260805D01*
X469102Y260500D01*
X469898D01*
X470633Y260805D01*
X471196Y261367D01*
X471500Y262102D01*
Y262898D01*
X471196Y263633D01*
X470633Y264195D01*
X469898Y264500D01*
D02*
G37*
G36*
X304026Y267492D02*
X302974D01*
X301959Y267220D01*
X301049Y266694D01*
X300306Y265951D01*
X299780Y265041D01*
X299508Y264026D01*
Y262974D01*
X299780Y261959D01*
X300306Y261049D01*
X301049Y260306D01*
X301959Y259780D01*
X302974Y259508D01*
X304026D01*
X305041Y259780D01*
X305951Y260306D01*
X306695Y261049D01*
X307220Y261959D01*
X307492Y262974D01*
Y264026D01*
X307220Y265041D01*
X306695Y265951D01*
X305951Y266694D01*
X305041Y267220D01*
X304026Y267492D01*
D02*
G37*
G36*
X448398Y262500D02*
X447602D01*
X446867Y262195D01*
X446305Y261633D01*
X446000Y260898D01*
Y260102D01*
X446305Y259367D01*
X446867Y258804D01*
X447602Y258500D01*
X448398D01*
X449133Y258804D01*
X449695Y259367D01*
X450000Y260102D01*
Y260898D01*
X449695Y261633D01*
X449133Y262195D01*
X448398Y262500D01*
D02*
G37*
G36*
X549398Y256500D02*
X548602D01*
X547867Y256195D01*
X547577Y255905D01*
X547250Y255672D01*
X546923Y255905D01*
X546633Y256195D01*
X545898Y256500D01*
X545102D01*
X544367Y256195D01*
X544077Y255905D01*
X543750Y255672D01*
X543423Y255905D01*
X543133Y256195D01*
X542398Y256500D01*
X541602D01*
X540867Y256195D01*
X540577Y255905D01*
X540250Y255672D01*
X539923Y255905D01*
X539633Y256195D01*
X538898Y256500D01*
X538102D01*
X537367Y256195D01*
X536804Y255633D01*
X536500Y254898D01*
Y254102D01*
X536804Y253367D01*
X537367Y252804D01*
X538102Y252500D01*
X538898D01*
X539633Y252804D01*
X539923Y253095D01*
X540250Y253328D01*
X540577Y253095D01*
X540867Y252804D01*
X541602Y252500D01*
X542398D01*
X543133Y252804D01*
X543423Y253095D01*
X543750Y253328D01*
X544077Y253095D01*
X544367Y252804D01*
X545102Y252500D01*
X545898D01*
X546633Y252804D01*
X546923Y253095D01*
X547250Y253328D01*
X547577Y253095D01*
X547867Y252804D01*
X548602Y252500D01*
X549398D01*
X550133Y252804D01*
X550696Y253367D01*
X551000Y254102D01*
Y254898D01*
X550696Y255633D01*
X550133Y256195D01*
X549398Y256500D01*
D02*
G37*
G36*
X410398Y259500D02*
X409602D01*
X408867Y259195D01*
X408305Y258633D01*
X408000Y257898D01*
Y257102D01*
X408305Y256367D01*
X408867Y255804D01*
X409602Y255500D01*
X410398D01*
X411133Y255804D01*
X411695Y256367D01*
X412000Y257102D01*
Y257898D01*
X411695Y258633D01*
X411133Y259195D01*
X410398Y259500D01*
D02*
G37*
G36*
X375398D02*
X374602D01*
X373867Y259195D01*
X373305Y258633D01*
X373000Y257898D01*
Y257102D01*
X373305Y256367D01*
X373867Y255804D01*
X374602Y255500D01*
X375398D01*
X376133Y255804D01*
X376695Y256367D01*
X377000Y257102D01*
Y257898D01*
X376695Y258633D01*
X376133Y259195D01*
X375398Y259500D01*
D02*
G37*
G36*
X354380Y259482D02*
X353584D01*
X352849Y259178D01*
X352287Y258615D01*
X351982Y257880D01*
Y257084D01*
X352287Y256349D01*
X352849Y255787D01*
X353584Y255482D01*
X354380D01*
X355115Y255787D01*
X355678Y256349D01*
X355982Y257084D01*
Y257880D01*
X355678Y258615D01*
X355115Y259178D01*
X354380Y259482D01*
D02*
G37*
G36*
X344898Y259000D02*
X344102D01*
X343367Y258696D01*
X342805Y258133D01*
X342500Y257398D01*
Y256602D01*
X342805Y255867D01*
X343367Y255305D01*
X344102Y255000D01*
X344898D01*
X345633Y255305D01*
X346196Y255867D01*
X346500Y256602D01*
Y257398D01*
X346196Y258133D01*
X345633Y258696D01*
X344898Y259000D01*
D02*
G37*
G36*
X341398Y254000D02*
X340602D01*
X339867Y253696D01*
X339304Y253133D01*
X339000Y252398D01*
Y251602D01*
X339304Y250867D01*
X339867Y250305D01*
X340602Y250000D01*
X341398D01*
X342133Y250305D01*
X342695Y250867D01*
X343000Y251602D01*
Y252398D01*
X342695Y253133D01*
X342133Y253696D01*
X341398Y254000D01*
D02*
G37*
G36*
X461898Y253500D02*
X461102D01*
X460367Y253196D01*
X459804Y252633D01*
X459500Y251898D01*
Y251102D01*
X459804Y250367D01*
X460367Y249804D01*
X461102Y249500D01*
X461898D01*
X462633Y249804D01*
X463196Y250367D01*
X463500Y251102D01*
Y251898D01*
X463196Y252633D01*
X462633Y253196D01*
X461898Y253500D01*
D02*
G37*
G36*
X483898Y253000D02*
X483102D01*
X482367Y252695D01*
X481805Y252133D01*
X481500Y251398D01*
Y250602D01*
X481805Y249867D01*
X482367Y249305D01*
X483102Y249000D01*
X483898D01*
X484633Y249305D01*
X485195Y249867D01*
X485500Y250602D01*
Y251398D01*
X485195Y252133D01*
X484633Y252695D01*
X483898Y253000D01*
D02*
G37*
G36*
X471916Y251518D02*
X471120D01*
X470385Y251213D01*
X469822Y250651D01*
X469518Y249916D01*
Y249120D01*
X469822Y248385D01*
X470385Y247822D01*
X471120Y247518D01*
X471916D01*
X472651Y247822D01*
X473213Y248385D01*
X473518Y249120D01*
Y249916D01*
X473213Y250651D01*
X472651Y251213D01*
X471916Y251518D01*
D02*
G37*
G36*
X439398Y250000D02*
X438602D01*
X437867Y249695D01*
X437304Y249133D01*
X437000Y248398D01*
Y247602D01*
X437304Y246867D01*
X437867Y246304D01*
X438602Y246000D01*
X439398D01*
X440133Y246304D01*
X440695Y246867D01*
X441000Y247602D01*
Y248398D01*
X440695Y249133D01*
X440133Y249695D01*
X439398Y250000D01*
D02*
G37*
G36*
X453299Y249366D02*
X452503D01*
X451768Y249061D01*
X451206Y248499D01*
X450901Y247764D01*
Y246968D01*
X451206Y246233D01*
X451768Y245670D01*
X452503Y245366D01*
X453299D01*
X454034Y245670D01*
X454597Y246233D01*
X454901Y246968D01*
Y247764D01*
X454597Y248499D01*
X454034Y249061D01*
X453299Y249366D01*
D02*
G37*
G36*
X322949Y248949D02*
X322153D01*
X321418Y248644D01*
X320856Y248082D01*
X320551Y247347D01*
Y246551D01*
X320856Y245816D01*
X321418Y245253D01*
X322153Y244949D01*
X322949D01*
X323684Y245253D01*
X324247Y245816D01*
X324551Y246551D01*
Y247347D01*
X324247Y248082D01*
X323684Y248644D01*
X322949Y248949D01*
D02*
G37*
G36*
X382898Y246500D02*
X382102D01*
X381367Y246196D01*
X380804Y245633D01*
X380500Y244898D01*
Y244102D01*
X380804Y243367D01*
X381367Y242805D01*
X382102Y242500D01*
X382898D01*
X383633Y242805D01*
X384195Y243367D01*
X384500Y244102D01*
Y244898D01*
X384195Y245633D01*
X383633Y246196D01*
X382898Y246500D01*
D02*
G37*
G36*
X361398D02*
X360602D01*
X359867Y246196D01*
X359304Y245633D01*
X359000Y244898D01*
Y244102D01*
X359304Y243367D01*
X359867Y242805D01*
X360602Y242500D01*
X361398D01*
X362133Y242805D01*
X362696Y243367D01*
X363000Y244102D01*
Y244898D01*
X362696Y245633D01*
X362133Y246196D01*
X361398Y246500D01*
D02*
G37*
G36*
X346898Y246000D02*
X346102D01*
X345367Y245695D01*
X344805Y245133D01*
X344500Y244398D01*
Y243602D01*
X344805Y242867D01*
X345367Y242304D01*
X346102Y242000D01*
X346898D01*
X347633Y242304D01*
X348196Y242867D01*
X348500Y243602D01*
Y244398D01*
X348196Y245133D01*
X347633Y245695D01*
X346898Y246000D01*
D02*
G37*
G36*
X414398Y245000D02*
X413602D01*
X412867Y244695D01*
X412304Y244133D01*
X412000Y243398D01*
Y242602D01*
X412304Y241867D01*
X412867Y241304D01*
X413602Y241000D01*
X414398D01*
X415133Y241304D01*
X415695Y241867D01*
X416000Y242602D01*
Y243398D01*
X415695Y244133D01*
X415133Y244695D01*
X414398Y245000D01*
D02*
G37*
G36*
X475398Y244500D02*
X474602D01*
X473867Y244196D01*
X473305Y243633D01*
X473000Y242898D01*
Y242102D01*
X473305Y241367D01*
X473867Y240805D01*
X474602Y240500D01*
X475398D01*
X476133Y240805D01*
X476695Y241367D01*
X477000Y242102D01*
Y242898D01*
X476695Y243633D01*
X476133Y244196D01*
X475398Y244500D01*
D02*
G37*
G36*
X441898Y243500D02*
X441102D01*
X440367Y243196D01*
X439805Y242633D01*
X439500Y241898D01*
Y241102D01*
X439805Y240367D01*
X440367Y239805D01*
X441102Y239500D01*
X441898D01*
X442633Y239805D01*
X443195Y240367D01*
X443500Y241102D01*
Y241898D01*
X443195Y242633D01*
X442633Y243196D01*
X441898Y243500D01*
D02*
G37*
G36*
X320898Y243453D02*
X320102D01*
X319367Y243148D01*
X318805Y242586D01*
X318500Y241851D01*
Y241055D01*
X318805Y240320D01*
X319367Y239757D01*
X320102Y239453D01*
X320898D01*
X321633Y239757D01*
X322196Y240320D01*
X322500Y241055D01*
Y241851D01*
X322196Y242586D01*
X321633Y243148D01*
X320898Y243453D01*
D02*
G37*
G36*
X551551Y245551D02*
X543449D01*
Y237449D01*
X551551D01*
Y245551D01*
D02*
G37*
G36*
X431398Y241000D02*
X430602D01*
X429867Y240696D01*
X429305Y240133D01*
X429000Y239398D01*
Y238602D01*
X429305Y237867D01*
X429867Y237304D01*
X430602Y237000D01*
X431398D01*
X432133Y237304D01*
X432695Y237867D01*
X433000Y238602D01*
Y239398D01*
X432695Y240133D01*
X432133Y240696D01*
X431398Y241000D01*
D02*
G37*
G36*
X346910Y236110D02*
X346121D01*
X345392Y235808D01*
X344834Y235250D01*
X344797Y235162D01*
X344297D01*
X344261Y235250D01*
X343703Y235808D01*
X342973Y236110D01*
X342184D01*
X341455Y235808D01*
X340897Y235250D01*
X340860Y235162D01*
X340360D01*
X340324Y235250D01*
X339766Y235808D01*
X339036Y236110D01*
X338247D01*
X337518Y235808D01*
X336960Y235250D01*
X336658Y234521D01*
Y233731D01*
X336960Y233002D01*
X337518Y232444D01*
X337606Y232407D01*
Y231908D01*
X337518Y231871D01*
X336960Y231313D01*
X336658Y230584D01*
Y229794D01*
X336960Y229065D01*
X337518Y228507D01*
X338247Y228205D01*
X339036D01*
X339766Y228507D01*
X340324Y229065D01*
X340360Y229153D01*
X340860D01*
X340897Y229065D01*
X341455Y228507D01*
X342184Y228205D01*
X342973D01*
X343703Y228507D01*
X344261Y229065D01*
X344297Y229153D01*
X344797D01*
X344834Y229065D01*
X345392Y228507D01*
X346121Y228205D01*
X346910D01*
X347640Y228507D01*
X348198Y229065D01*
X348500Y229794D01*
Y230584D01*
X348198Y231313D01*
X347640Y231871D01*
X347552Y231908D01*
Y232407D01*
X347640Y232444D01*
X348198Y233002D01*
X348500Y233731D01*
Y234521D01*
X348198Y235250D01*
X347640Y235808D01*
X346910Y236110D01*
D02*
G37*
G36*
X484398Y238500D02*
X483602D01*
X482867Y238195D01*
X482304Y237633D01*
X482000Y236898D01*
Y236102D01*
X482304Y235367D01*
X482867Y234805D01*
X483602Y234500D01*
X484398D01*
X485133Y234805D01*
X485696Y235367D01*
X486000Y236102D01*
Y236898D01*
X485696Y237633D01*
X485133Y238195D01*
X484398Y238500D01*
D02*
G37*
G36*
X411371Y233929D02*
X410582D01*
X409852Y233627D01*
X409294Y233069D01*
X409258Y232981D01*
X408758D01*
X408721Y233069D01*
X408163Y233627D01*
X407434Y233929D01*
X406645D01*
X405915Y233627D01*
X405357Y233069D01*
X405055Y232340D01*
Y231550D01*
X405357Y230821D01*
X405915Y230263D01*
X406003Y230226D01*
Y229726D01*
X405915Y229690D01*
X405357Y229132D01*
X405055Y228403D01*
Y227613D01*
X405357Y226884D01*
X405915Y226326D01*
X406003Y226289D01*
Y225789D01*
X405915Y225753D01*
X405357Y225195D01*
X405055Y224466D01*
Y223676D01*
X405357Y222947D01*
X405915Y222389D01*
X406645Y222087D01*
X407434D01*
X408163Y222389D01*
X408721Y222947D01*
X408758Y223035D01*
X409258D01*
X409294Y222947D01*
X409852Y222389D01*
X410582Y222087D01*
X411371D01*
X412100Y222389D01*
X412659Y222947D01*
X412961Y223676D01*
Y224466D01*
X412659Y225195D01*
X412100Y225753D01*
X412013Y225789D01*
Y226289D01*
X412100Y226326D01*
X412659Y226884D01*
X412961Y227613D01*
Y228403D01*
X412659Y229132D01*
X412100Y229690D01*
X412013Y229726D01*
Y230226D01*
X412100Y230263D01*
X412659Y230821D01*
X412961Y231550D01*
Y232340D01*
X412659Y233069D01*
X412100Y233627D01*
X411371Y233929D01*
D02*
G37*
G36*
X425512Y236587D02*
X424716D01*
X423981Y236282D01*
X423419Y235719D01*
X423114Y234984D01*
Y234189D01*
X423419Y233454D01*
X423981Y232891D01*
X424716Y232587D01*
X425512D01*
X426247Y232891D01*
X426810Y233454D01*
X427114Y234189D01*
Y234984D01*
X426810Y235719D01*
X426247Y236282D01*
X425512Y236587D01*
D02*
G37*
G36*
X454898Y236500D02*
X454102D01*
X453367Y236195D01*
X452805Y235633D01*
X452500Y234898D01*
Y234102D01*
X452805Y233367D01*
X453367Y232804D01*
X454102Y232500D01*
X454898D01*
X455633Y232804D01*
X456195Y233367D01*
X456500Y234102D01*
Y234898D01*
X456195Y235633D01*
X455633Y236195D01*
X454898Y236500D01*
D02*
G37*
G36*
X472398Y233000D02*
X471602D01*
X470867Y232696D01*
X470304Y232133D01*
X470000Y231398D01*
Y230984D01*
X469715Y230829D01*
X469500Y230752D01*
X468807Y231039D01*
X468012D01*
X467277Y230735D01*
X466714Y230172D01*
X466410Y229437D01*
Y228641D01*
X466714Y227906D01*
X467277Y227344D01*
X468012Y227039D01*
X468807D01*
X469543Y227344D01*
X470105Y227906D01*
X470410Y228641D01*
Y229055D01*
X470694Y229210D01*
X470910Y229287D01*
X471602Y229000D01*
X472398D01*
X473133Y229305D01*
X473696Y229867D01*
X474000Y230602D01*
Y231398D01*
X473696Y232133D01*
X473133Y232696D01*
X472398Y233000D01*
D02*
G37*
G36*
X439398Y232500D02*
X438602D01*
X437867Y232195D01*
X437304Y231633D01*
X437000Y230898D01*
Y230102D01*
X437304Y229367D01*
X437867Y228804D01*
X438602Y228500D01*
X439398D01*
X440133Y228804D01*
X440695Y229367D01*
X441000Y230102D01*
Y230898D01*
X440695Y231633D01*
X440133Y232195D01*
X439398Y232500D01*
D02*
G37*
G36*
X548033Y235551D02*
X546967D01*
X545936Y235275D01*
X545013Y234742D01*
X544258Y233987D01*
X543725Y233064D01*
X543449Y232033D01*
Y230967D01*
X543725Y229936D01*
X544258Y229012D01*
X545013Y228258D01*
X545936Y227725D01*
X546967Y227449D01*
X548033D01*
X549064Y227725D01*
X549988Y228258D01*
X550742Y229012D01*
X551275Y229936D01*
X551551Y230967D01*
Y232033D01*
X551275Y233064D01*
X550742Y233987D01*
X549988Y234742D01*
X549064Y235275D01*
X548033Y235551D01*
D02*
G37*
G36*
X522943Y230937D02*
X522147D01*
X521412Y230632D01*
X520849Y230069D01*
X520545Y229334D01*
Y228539D01*
X520849Y227804D01*
X521412Y227241D01*
X522147Y226937D01*
X522943D01*
X523678Y227241D01*
X524240Y227804D01*
X524545Y228539D01*
Y229334D01*
X524240Y230069D01*
X523678Y230632D01*
X522943Y230937D01*
D02*
G37*
G36*
X323398Y230000D02*
X322602D01*
X321867Y229696D01*
X321304Y229133D01*
X321000Y228398D01*
Y227602D01*
X321304Y226867D01*
X321867Y226305D01*
X322602Y226000D01*
X323398D01*
X324133Y226305D01*
X324695Y226867D01*
X325000Y227602D01*
Y228398D01*
X324695Y229133D01*
X324133Y229696D01*
X323398Y230000D01*
D02*
G37*
G36*
X496398Y227000D02*
X495602D01*
X494867Y226695D01*
X494305Y226133D01*
X494000Y225398D01*
Y224602D01*
X494305Y223867D01*
X494867Y223305D01*
X495602Y223000D01*
X496398D01*
X497133Y223305D01*
X497695Y223867D01*
X498000Y224602D01*
Y225398D01*
X497695Y226133D01*
X497133Y226695D01*
X496398Y227000D01*
D02*
G37*
G36*
X467898Y226000D02*
X467102D01*
X466367Y225695D01*
X465804Y225133D01*
X465500Y224398D01*
Y223602D01*
X465804Y222867D01*
X466367Y222305D01*
X467102Y222000D01*
X467898D01*
X468633Y222305D01*
X469196Y222867D01*
X469500Y223602D01*
Y224398D01*
X469196Y225133D01*
X468633Y225695D01*
X467898Y226000D01*
D02*
G37*
G36*
X512807Y222539D02*
X512012D01*
X511277Y222235D01*
X510714Y221672D01*
X510410Y220937D01*
Y220141D01*
X510714Y219406D01*
X511277Y218844D01*
X512012Y218539D01*
X512807D01*
X513543Y218844D01*
X514105Y219406D01*
X514410Y220141D01*
Y220937D01*
X514105Y221672D01*
X513543Y222235D01*
X512807Y222539D01*
D02*
G37*
G36*
X436898Y222500D02*
X436102D01*
X435367Y222196D01*
X434804Y221633D01*
X434500Y220898D01*
Y220102D01*
X434804Y219367D01*
X435367Y218805D01*
X436102Y218500D01*
X436898D01*
X437633Y218805D01*
X438196Y219367D01*
X438500Y220102D01*
Y220898D01*
X438196Y221633D01*
X437633Y222196D01*
X436898Y222500D01*
D02*
G37*
G36*
X352898D02*
X352102D01*
X351367Y222196D01*
X350804Y221633D01*
X350500Y220898D01*
Y220102D01*
X350804Y219367D01*
X351367Y218805D01*
X352102Y218500D01*
X352898D01*
X353633Y218805D01*
X354195Y219367D01*
X354500Y220102D01*
Y220898D01*
X354195Y221633D01*
X353633Y222196D01*
X352898Y222500D01*
D02*
G37*
G36*
X481898Y221000D02*
X481102D01*
X480367Y220695D01*
X479805Y220133D01*
X479500Y219398D01*
Y218602D01*
X479805Y217867D01*
X480367Y217304D01*
X481102Y217000D01*
X481898D01*
X482633Y217304D01*
X483195Y217867D01*
X483500Y218602D01*
Y219398D01*
X483195Y220133D01*
X482633Y220695D01*
X481898Y221000D01*
D02*
G37*
G36*
X493398Y219500D02*
X492602D01*
X491867Y219196D01*
X491304Y218633D01*
X491000Y217898D01*
Y217102D01*
X491304Y216367D01*
X491867Y215805D01*
X492602Y215500D01*
X493398D01*
X494133Y215805D01*
X494696Y216367D01*
X495000Y217102D01*
Y217898D01*
X494696Y218633D01*
X494133Y219196D01*
X493398Y219500D01*
D02*
G37*
G36*
X475339Y219000D02*
X474543D01*
X473808Y218695D01*
X473245Y218133D01*
X472941Y217398D01*
Y216602D01*
X473245Y215867D01*
X473808Y215304D01*
X474543Y215000D01*
X475339D01*
X476074Y215304D01*
X476637Y215867D01*
X476941Y216602D01*
Y217398D01*
X476637Y218133D01*
X476074Y218695D01*
X475339Y219000D01*
D02*
G37*
G36*
X368398Y218000D02*
X367602D01*
X366867Y217695D01*
X366304Y217133D01*
X366000Y216398D01*
Y215602D01*
X366304Y214867D01*
X366867Y214304D01*
X367602Y214000D01*
X368398D01*
X369133Y214304D01*
X369695Y214867D01*
X370000Y215602D01*
Y216398D01*
X369695Y217133D01*
X369133Y217695D01*
X368398Y218000D01*
D02*
G37*
G36*
X551551Y220051D02*
X543449D01*
Y211949D01*
X551551D01*
Y220051D01*
D02*
G37*
G36*
X392197Y214587D02*
X391401D01*
X390666Y214282D01*
X390104Y213720D01*
X389799Y212984D01*
Y212189D01*
X390104Y211454D01*
X390666Y210891D01*
X391401Y210587D01*
X392197D01*
X392932Y210891D01*
X393495Y211454D01*
X393799Y212189D01*
Y212984D01*
X393495Y213720D01*
X392932Y214282D01*
X392197Y214587D01*
D02*
G37*
G36*
X337992Y214094D02*
X337196D01*
X336461Y213790D01*
X335899Y213227D01*
X335594Y212492D01*
Y211697D01*
X335899Y210961D01*
X336461Y210399D01*
X337196Y210094D01*
X337992D01*
X338727Y210399D01*
X339290Y210961D01*
X339594Y211697D01*
Y212492D01*
X339290Y213227D01*
X338727Y213790D01*
X337992Y214094D01*
D02*
G37*
G36*
X353898Y214000D02*
X353102D01*
X352367Y213696D01*
X351804Y213133D01*
X351500Y212398D01*
Y211602D01*
X351804Y210867D01*
X352367Y210304D01*
X353102Y210000D01*
X353898D01*
X354633Y210304D01*
X355195Y210867D01*
X355500Y211602D01*
Y212398D01*
X355195Y213133D01*
X354633Y213696D01*
X353898Y214000D01*
D02*
G37*
G36*
X320398Y213500D02*
X319602D01*
X318867Y213195D01*
X318304Y212633D01*
X318000Y211898D01*
Y211102D01*
X318304Y210367D01*
X318867Y209805D01*
X319602Y209500D01*
X320398D01*
X321133Y209805D01*
X321695Y210367D01*
X322000Y211102D01*
Y211898D01*
X321695Y212633D01*
X321133Y213195D01*
X320398Y213500D01*
D02*
G37*
G36*
X331898Y212500D02*
X331102D01*
X330367Y212195D01*
X329804Y211633D01*
X329500Y210898D01*
Y210102D01*
X329804Y209367D01*
X330367Y208804D01*
X331102Y208500D01*
X331898D01*
X332633Y208804D01*
X333195Y209367D01*
X333500Y210102D01*
Y210898D01*
X333195Y211633D01*
X332633Y212195D01*
X331898Y212500D01*
D02*
G37*
G36*
X540398Y211740D02*
X539602D01*
X538867Y211435D01*
X538305Y210873D01*
X538000Y210138D01*
Y209342D01*
X538305Y208607D01*
X538867Y208044D01*
X539602Y207740D01*
X540398D01*
X541133Y208044D01*
X541695Y208607D01*
X542000Y209342D01*
Y210138D01*
X541695Y210873D01*
X541133Y211435D01*
X540398Y211740D01*
D02*
G37*
G36*
X444898Y210000D02*
X444102D01*
X443367Y209696D01*
X442804Y209133D01*
X442500Y208398D01*
Y207602D01*
X442804Y206867D01*
X443367Y206305D01*
X444102Y206000D01*
X444898D01*
X445633Y206305D01*
X446196Y206867D01*
X446500Y207602D01*
Y208398D01*
X446196Y209133D01*
X445633Y209696D01*
X444898Y210000D01*
D02*
G37*
G36*
X407697D02*
X406901D01*
X406166Y209696D01*
X405604Y209133D01*
X405299Y208398D01*
Y207602D01*
X405604Y206867D01*
X406166Y206305D01*
X406901Y206000D01*
X407697D01*
X408432Y206305D01*
X408995Y206867D01*
X409299Y207602D01*
Y208398D01*
X408995Y209133D01*
X408432Y209696D01*
X407697Y210000D01*
D02*
G37*
G36*
X466398Y209000D02*
X465602D01*
X464867Y208696D01*
X464304Y208133D01*
X464000Y207398D01*
Y206602D01*
X464304Y205867D01*
X464867Y205305D01*
X465602Y205000D01*
X466398D01*
X467133Y205305D01*
X467696Y205867D01*
X468000Y206602D01*
Y207398D01*
X467696Y208133D01*
X467133Y208696D01*
X466398Y209000D01*
D02*
G37*
G36*
X423272Y207500D02*
X422476D01*
X421741Y207195D01*
X421178Y206633D01*
X420874Y205898D01*
Y205102D01*
X421178Y204367D01*
X421741Y203804D01*
X422476Y203500D01*
X423272D01*
X424007Y203804D01*
X424570Y204367D01*
X424874Y205102D01*
Y205898D01*
X424570Y206633D01*
X424007Y207195D01*
X423272Y207500D01*
D02*
G37*
G36*
X387898D02*
X387102D01*
X386367Y207195D01*
X385805Y206633D01*
X385500Y205898D01*
Y205102D01*
X385805Y204367D01*
X386367Y203804D01*
X387102Y203500D01*
X387898D01*
X388633Y203804D01*
X389195Y204367D01*
X389500Y205102D01*
Y205898D01*
X389195Y206633D01*
X388633Y207195D01*
X387898Y207500D01*
D02*
G37*
G36*
X448898Y207000D02*
X448102D01*
X447367Y206696D01*
X446805Y206133D01*
X446500Y205398D01*
Y204602D01*
X446805Y203867D01*
X447367Y203305D01*
X448102Y203000D01*
X448898D01*
X449633Y203305D01*
X450196Y203867D01*
X450500Y204602D01*
Y205398D01*
X450196Y206133D01*
X449633Y206696D01*
X448898Y207000D01*
D02*
G37*
G36*
X397398D02*
X396602D01*
X395867Y206696D01*
X395304Y206133D01*
X395000Y205398D01*
Y204602D01*
X395304Y203867D01*
X395867Y203305D01*
X396602Y203000D01*
X397398D01*
X398133Y203305D01*
X398695Y203867D01*
X399000Y204602D01*
Y205398D01*
X398695Y206133D01*
X398133Y206696D01*
X397398Y207000D01*
D02*
G37*
G36*
X548033Y210051D02*
X546967D01*
X545936Y209775D01*
X545013Y209242D01*
X544258Y208488D01*
X543725Y207564D01*
X543449Y206533D01*
Y205467D01*
X543725Y204436D01*
X544258Y203513D01*
X545013Y202758D01*
X545936Y202225D01*
X546967Y201949D01*
X548033D01*
X549064Y202225D01*
X549988Y202758D01*
X550742Y203513D01*
X551275Y204436D01*
X551551Y205467D01*
Y206533D01*
X551275Y207564D01*
X550742Y208488D01*
X549988Y209242D01*
X549064Y209775D01*
X548033Y210051D01*
D02*
G37*
G36*
X364398Y205500D02*
X363602D01*
X362867Y205195D01*
X362304Y204633D01*
X362000Y203898D01*
Y203102D01*
X362304Y202367D01*
X362867Y201804D01*
X363602Y201500D01*
X364398D01*
X365133Y201804D01*
X365696Y202367D01*
X366000Y203102D01*
Y203898D01*
X365696Y204633D01*
X365133Y205195D01*
X364398Y205500D01*
D02*
G37*
G36*
X520109Y203845D02*
X519313D01*
X518578Y203541D01*
X518015Y202978D01*
X517711Y202243D01*
Y201447D01*
X518015Y200712D01*
X518578Y200150D01*
X519313Y199845D01*
X520109D01*
X520844Y200150D01*
X521407Y200712D01*
X521711Y201447D01*
Y202243D01*
X521407Y202978D01*
X520844Y203541D01*
X520109Y203845D01*
D02*
G37*
G36*
X467876Y200500D02*
X467080D01*
X466345Y200196D01*
X465783Y199633D01*
X465478Y198898D01*
Y198102D01*
X465783Y197367D01*
X466345Y196804D01*
X467080Y196500D01*
X467876D01*
X468611Y196804D01*
X469174Y197367D01*
X469478Y198102D01*
Y198898D01*
X469174Y199633D01*
X468611Y200196D01*
X467876Y200500D01*
D02*
G37*
G36*
X480398Y200342D02*
X479602D01*
X478867Y200038D01*
X478304Y199475D01*
X478000Y198740D01*
Y197945D01*
X478304Y197210D01*
X478867Y196647D01*
X479602Y196343D01*
X480398D01*
X481133Y196647D01*
X481696Y197210D01*
X482000Y197945D01*
Y198740D01*
X481696Y199475D01*
X481133Y200038D01*
X480398Y200342D01*
D02*
G37*
G36*
X415398Y198000D02*
X414602D01*
X413867Y197696D01*
X413305Y197133D01*
X413000Y196398D01*
Y195602D01*
X413305Y194867D01*
X413867Y194305D01*
X414602Y194000D01*
X415398D01*
X416133Y194305D01*
X416695Y194867D01*
X417000Y195602D01*
Y196398D01*
X416695Y197133D01*
X416133Y197696D01*
X415398Y198000D01*
D02*
G37*
G36*
X401526Y197343D02*
X400474D01*
X399459Y197071D01*
X398549Y196545D01*
X397806Y195802D01*
X397280Y194891D01*
X397008Y193876D01*
Y192825D01*
X397280Y191810D01*
X397806Y190899D01*
X398549Y190156D01*
X399459Y189630D01*
X400474Y189358D01*
X401526D01*
X402541Y189630D01*
X403451Y190156D01*
X404194Y190899D01*
X404720Y191810D01*
X404992Y192825D01*
Y193876D01*
X404720Y194891D01*
X404194Y195802D01*
X403451Y196545D01*
X402541Y197071D01*
X401526Y197343D01*
D02*
G37*
G36*
X391526D02*
X390474D01*
X389459Y197071D01*
X388549Y196545D01*
X387806Y195802D01*
X387280Y194891D01*
X387008Y193876D01*
Y192825D01*
X387280Y191810D01*
X387806Y190899D01*
X388549Y190156D01*
X389459Y189630D01*
X390474Y189358D01*
X391526D01*
X392541Y189630D01*
X393451Y190156D01*
X394195Y190899D01*
X394720Y191810D01*
X394992Y192825D01*
Y193876D01*
X394720Y194891D01*
X394195Y195802D01*
X393451Y196545D01*
X392541Y197071D01*
X391526Y197343D01*
D02*
G37*
G36*
X381526D02*
X380474D01*
X379459Y197071D01*
X378549Y196545D01*
X377805Y195802D01*
X377280Y194891D01*
X377008Y193876D01*
Y192825D01*
X377280Y191810D01*
X377805Y190899D01*
X378549Y190156D01*
X379459Y189630D01*
X380474Y189358D01*
X381526D01*
X382541Y189630D01*
X383451Y190156D01*
X384194Y190899D01*
X384720Y191810D01*
X384992Y192825D01*
Y193876D01*
X384720Y194891D01*
X384194Y195802D01*
X383451Y196545D01*
X382541Y197071D01*
X381526Y197343D01*
D02*
G37*
G36*
X371526D02*
X370474D01*
X369459Y197071D01*
X368549Y196545D01*
X367806Y195802D01*
X367280Y194891D01*
X367008Y193876D01*
Y192825D01*
X367280Y191810D01*
X367806Y190899D01*
X368549Y190156D01*
X369459Y189630D01*
X370474Y189358D01*
X371526D01*
X372541Y189630D01*
X373451Y190156D01*
X374195Y190899D01*
X374720Y191810D01*
X374992Y192825D01*
Y193876D01*
X374720Y194891D01*
X374195Y195802D01*
X373451Y196545D01*
X372541Y197071D01*
X371526Y197343D01*
D02*
G37*
G36*
X361526D02*
X360474D01*
X359459Y197071D01*
X358549Y196545D01*
X357805Y195802D01*
X357280Y194891D01*
X357008Y193876D01*
Y192825D01*
X357280Y191810D01*
X357805Y190899D01*
X358549Y190156D01*
X359459Y189630D01*
X360474Y189358D01*
X361526D01*
X362541Y189630D01*
X363451Y190156D01*
X364194Y190899D01*
X364720Y191810D01*
X364992Y192825D01*
Y193876D01*
X364720Y194891D01*
X364194Y195802D01*
X363451Y196545D01*
X362541Y197071D01*
X361526Y197343D01*
D02*
G37*
G36*
X351526D02*
X350474D01*
X349459Y197071D01*
X348549Y196545D01*
X347806Y195802D01*
X347280Y194891D01*
X347008Y193876D01*
Y192825D01*
X347280Y191810D01*
X347806Y190899D01*
X348549Y190156D01*
X349459Y189630D01*
X350474Y189358D01*
X351526D01*
X352541Y189630D01*
X353451Y190156D01*
X354194Y190899D01*
X354720Y191810D01*
X354992Y192825D01*
Y193876D01*
X354720Y194891D01*
X354194Y195802D01*
X353451Y196545D01*
X352541Y197071D01*
X351526Y197343D01*
D02*
G37*
G36*
X341526D02*
X340474D01*
X339459Y197071D01*
X338549Y196545D01*
X337806Y195802D01*
X337280Y194891D01*
X337008Y193876D01*
Y192825D01*
X337280Y191810D01*
X337806Y190899D01*
X338549Y190156D01*
X339459Y189630D01*
X340474Y189358D01*
X341526D01*
X342541Y189630D01*
X343451Y190156D01*
X344195Y190899D01*
X344720Y191810D01*
X344992Y192825D01*
Y193876D01*
X344720Y194891D01*
X344195Y195802D01*
X343451Y196545D01*
X342541Y197071D01*
X341526Y197343D01*
D02*
G37*
G36*
X331526D02*
X330474D01*
X329459Y197071D01*
X328549Y196545D01*
X327805Y195802D01*
X327280Y194891D01*
X327008Y193876D01*
Y192825D01*
X327280Y191810D01*
X327805Y190899D01*
X328549Y190156D01*
X329459Y189630D01*
X330474Y189358D01*
X331526D01*
X332541Y189630D01*
X333451Y190156D01*
X334194Y190899D01*
X334720Y191810D01*
X334992Y192825D01*
Y193876D01*
X334720Y194891D01*
X334194Y195802D01*
X333451Y196545D01*
X332541Y197071D01*
X331526Y197343D01*
D02*
G37*
G36*
X321526D02*
X320474D01*
X319459Y197071D01*
X318549Y196545D01*
X317806Y195802D01*
X317280Y194891D01*
X317008Y193876D01*
Y192825D01*
X317280Y191810D01*
X317806Y190899D01*
X318549Y190156D01*
X319459Y189630D01*
X320474Y189358D01*
X321526D01*
X322541Y189630D01*
X323451Y190156D01*
X324195Y190899D01*
X324720Y191810D01*
X324992Y192825D01*
Y193876D01*
X324720Y194891D01*
X324195Y195802D01*
X323451Y196545D01*
X322541Y197071D01*
X321526Y197343D01*
D02*
G37*
G36*
X312496Y197391D02*
X309504D01*
X308530Y197198D01*
X307704Y196646D01*
X307153Y195820D01*
X306959Y194847D01*
Y191855D01*
X307153Y190881D01*
X307704Y190055D01*
X308530Y189503D01*
X309504Y189310D01*
X312496D01*
X313470Y189503D01*
X314296Y190055D01*
X314847Y190881D01*
X315041Y191855D01*
Y194847D01*
X314847Y195820D01*
X314296Y196646D01*
X313470Y197198D01*
X312496Y197391D01*
D02*
G37*
%LPD*%
D133*
X303500Y273500D02*
D03*
D136*
X323732Y306984D02*
D03*
X456910Y267629D02*
D03*
X317000Y324000D02*
D03*
X475000Y204500D02*
D03*
X457035Y219000D02*
D03*
X418638Y340500D02*
D03*
X356500Y296965D02*
D03*
X409809Y333809D02*
D03*
D138*
X437641Y276917D02*
D03*
M02*
