M48
;Layer_Color=9474304
;FILE_FORMAT=2:5
INCH,LZ
;TYPE=PLATED
T01F00S00C0.00787
T02F00S00C0.01000
T03F00S00C0.04016
%
T01
X0338642Y0230189
X0342579
X0346516
Y0234126
X0342579
X0338642
X0407039Y0231945
Y0228008
Y0224071
X0410976
Y0228008
Y0231945
T02
X048Y0198343
X0475Y02045
X0474941Y0217
X04815Y0219
X0493Y02175
X0496Y0225
X051241Y0220539
X0522545Y0228937
X0519711Y0201845
X054Y020974
X05385Y02545
X0542
X05455
X0549
Y0277
X05455
X0542
X05385
X0506Y02745
X0506222Y0269774
X049941Y0275697
X049291Y027941
X048541Y0274561
X04775Y0274502
X04695Y0273522
Y02625
X0471518Y0249518
X0475Y02425
X0472Y0231
X0484Y02365
X04835Y0251
X0478967Y0289709
X0479682Y0298744
X0475008Y0299709
X0485008Y0305209
Y0307709
X0488008
Y0305209
X0493838Y0298087
X0498Y03
X0527752Y0311
X0445437Y0303063
X04495Y028289
X0460965Y0284854
X0462985Y027256
X045691Y0267629
X0448Y02605
X0452901Y0247366
X04615Y02515
X04545Y02345
X0457035Y0219
X04675Y0224
X046841Y0229039
X0466Y0207
X0467478Y01985
X04485Y0205
X04445Y0208
X04365Y02205
X0439Y02305
X04415Y02415
X0439Y0248
X0431Y0239
X0425114Y0234587
X0414Y0243
X041Y02575
X0415433Y0269244
X04195Y0277
X0425641Y0266917
X0428901Y0266799
X0431641Y0266917
X0437641Y0276917
X04355Y02855
X04235Y0291
X0411Y0305441
Y03095
X0399Y0295272
X0396Y02925
X0392Y03005
X03845
X0383482Y0309018
X0384Y0312
X03695Y0303
X0370169Y029502
X0368Y029
X0364968Y0285609
X0363Y028
X03565Y0296965
X0360268Y0301268
X03415Y03035
X03405Y03075
X0341Y0312
X0342Y0297
X0345Y0294
X03345Y02895
X0332Y02965
X0323982Y0301
X0323732Y0306984
X03185Y0290744
X0322Y0269
X0322551Y0246949
X03205Y0241453
X0323Y0228
X032Y02115
X03315Y02105
X0337594Y0212094
X03535Y0212
X03525Y02205
X0368Y0216
X0364Y02035
X03875Y02055
X0397Y0205
X0391799Y0212587
X0407299Y0208
X0422874Y02055
X0415Y0196
X03825Y02445
X0375Y02575
X0353982Y0257482
X03445Y0257
X0341Y0252
X03465Y0244
X0361Y02445
X0385182Y0268995
X0400182Y0269495
X0312Y0290744
X0317Y0324
Y0329
X03245Y03205
X0344223Y0313777
X03495Y03235
X0354
X036Y03175
X0368Y03255
X0370563Y0335913
X0384108Y0333072
X0387Y0336
X039Y0338
X03935Y0339
X0409809Y0333809
X0418638Y03405
X04185Y0345362
X0416Y03505
X04145Y0358
Y03615
Y0365
Y0369
X04365
Y0366
Y0362
Y03585
X0439Y0344
X04375Y03375
X0437682Y0329598
X04295Y0333
X0437682Y0316244
X0414342Y0322
X0456Y03305
X04605Y0335638
X04535Y0351
X0457Y0358
Y0362
Y0366
Y03695
X0444406Y0368883
X03745Y0348709
X0357Y0343
X0479Y03585
Y03625
Y0366
Y03695
X04975Y03685
Y0365
Y03615
Y0358
X0502Y0344
X04945Y03265
X0492817Y0323817
X0493682Y0313744
X0479472Y0313901
X0475008Y0319209
X0482248Y0327209
X0514248Y0316
X05195Y0358
Y03615
Y0365
Y03685
X0539Y0368
X05425
X0546
X05495
Y03455
X0546
X05425
X0539
T03
X05475Y0206
Y0216
Y02315
Y02415
X0401Y0193351
X0391
X0381
X0371
X0361
X0351
X0341
X0331
X0321
X0311
X03035Y02635
Y02735
Y02835
Y02935
Y03035
Y03135
Y03235
Y03335
Y03435
Y03535
X03125Y03665
X03225
X03325
X03425
X03525
X03625
X03725
X03825
X03925
X04025
M30
