M48
;Layer_Color=9474304
;FILE_FORMAT=2:5
INCH,LZ
;TYPE=PLATED
T01F00S00C0.00787
T02F00S00C0.01000
T03F00S00C0.04016
%
T01
X0338642Y0230189
Y0234126
X0342579
Y0230189
X0346516
Y0234126
X0407039Y0231945
X0410976
Y0228008
X0407039
Y0224071
X0410976
T02
X0481Y0195843
X0475Y02045
X04735Y0217
X04715Y02195
X04815Y0219
X0493Y02175
X0496Y0225
X051241Y0220539
X0522545Y0228937
X0519711Y0201845
X054Y020974
X05385Y02545
X0542
X05455
X0549
Y0277
X05455
X0542
X05385
X0506Y02745
X0506222Y0269774
X04995Y02795
X049291Y027941
X04855Y02795
X04775Y0274502
X04695Y02775
X04705Y0263
X0473268Y0251268
X0477Y02465
X04835Y0251
X0484Y02365
X0475
X0474Y0233
X0470879Y0230379
X0469Y0236
X047874Y02925
X0479682Y0298744
X0475008Y0299709
X0485008Y0305209
Y0307709
X0488008
Y0305209
X0493Y02985
X0498Y03
X0523Y0311
X0445437Y0303063
X04495Y028289
X0460965Y0284854
X0462985Y0278091
X045691Y0267629
X04625Y0262
Y0257
X04645Y0252
X0453Y0247464
X0439Y02475
X04395Y0242
Y02365
X0439Y02305
X04485Y0234
X04445Y022
X04375Y0216
X0431Y02125
Y0206
X04375Y02055
X0449Y0203
X0464457Y02073
X04675Y0211
X0466Y0196
X0457035Y0219
X043Y0222
X0425114Y0234587
X04305Y02395
X0414Y0243
X041Y02575
X0411126Y02705
X0415433Y0269244
X04195Y0277
X0425641Y0266917
X0428901Y0266799
X0431641Y0266917
X0437641Y0276917
X04355Y02855
X04235Y0291
X0411Y0305441
Y03095
X03875Y03085
X0383964Y0312035
X03845Y03005
X0392
X0396Y02925
X0399Y0295272
X0400182Y0269495
X0385182Y0268995
X0380634Y0270444
X03735Y027048
X0375Y02575
X03825Y02445
X0366
X03465Y0244
X0341Y0252
X03445Y0257
X0353982Y0257482
X0363Y028
X0364968Y0285609
X0368Y029
X0370169Y029502
X03695Y0303
X0360268Y0301268
X0357482Y0296982
X0345Y0294
X0342Y0297
X03415Y03035
X03405Y03075
X0341Y0312
X0323732Y0306984
X0323982Y0301
X0332Y02965
X0327Y02895
X03185Y0290744
X0322Y0269
X0322551Y0246949
X03155Y02415
X0323Y0228
X032Y0212255
X033Y0211
X0337594Y0212094
X03535Y0212
X03525Y02205
X0368Y0216
X0364Y02035
X03875Y02055
X0397Y0205
X04075Y02065
X0415Y0196
X04235Y02035
X0391799Y0212587
X0448Y02605
X0312Y0290744
X0317Y0324
Y0329
X03245Y03205
X0344223Y0313777
X03495Y03235
X03535Y03265
X0359Y03175
X0369Y03245
X0370563Y0335913
X0384108Y0333072
X0387Y0336
X039Y0338
X03935Y0339
X0409809Y0333809
X04105Y0322
Y03515
X04185Y03495
X04145Y0358
Y03615
Y0365
Y0369
X04365
Y0366
Y0362
Y03585
X0439Y0344
X04375Y03375
X0437682Y0329598
X04295Y0333
X0437682Y0316244
X04525Y0336
X04605Y0332
X04535Y0351
X0457Y0358
Y0362
Y0366
Y03695
X0444406Y0368883
X03745Y0348709
X0357Y0343
X0479Y03585
Y03625
Y0366
Y03695
X04975Y03685
Y0365
Y03615
Y0358
X0502Y0344
X0496Y0326
X0492817Y0323817
X0493682Y0313744
X0479472Y0313901
X0475008Y0319209
X0482Y0327
X05145Y0321
X05195Y0358
Y03615
Y0365
Y03685
X0539Y0368
X05425
X0546
X05495
Y03455
X0546
X05425
X0539
T03
X05475Y0206
Y0216
Y02315
Y02415
X0401Y0193351
X0391
X0381
X0371
X0361
X0351
X0341
X0331
X0321
X0311
X03035Y02635
Y02735
Y02835
Y02935
Y03035
Y03135
Y03235
Y03335
Y03435
Y03535
X03125Y03665
X03225
X03325
X03425
X03525
X03625
X03725
X03825
X03925
X04025
M30
