M48
;Layer_Color=9474304
;FILE_FORMAT=2:5
INCH,LZ
;TYPE=PLATED
T01F00S00C0.00787
T02F00S00C0.01000
T03F00S00C0.02953
T04F00S00C0.04016
%
T01
X0382063Y0328063
X0386
X0389937
Y0332
X0386
X0382063
T02
X0316Y02865
X0323657
X0327989Y0288475
X0342957Y0289957
X0351Y0289
X03445Y0271
X03405Y02745
X0337Y0278
X03315Y0305
X0383512Y0295
X03905Y029
X03925Y0303
X04025Y02845
X038691Y0269031
X0387Y02665
X0380865
X0381Y0269
X0373Y02745
X0367Y02705
X0387937Y0257563
X0383Y025
X0308169Y027515
X0308Y02865
X0309214Y0294558
X0309474Y0300401
X0308Y03085
X0305Y0306
X0302Y02945
Y029
X02945Y02965
X0291Y02935
X02865Y0289
X02855Y02825
X02895
X02855Y02765
X02825
Y02735
X02855
Y02705
X02825
X029283Y0269756
X0293Y02725
X0273Y026
X02725Y02945
X0268421Y0297932
X02665Y0292
X02725Y0307984
Y0312984
X0275285Y0314647
X02675Y0316
X0264Y0314
X02675Y03255
X0301343Y03235
X03065
X02925Y03685
X02885
Y0373
X02925
Y03895
X02885
Y0394
X02925
Y041
X02885
Y04145
X02925
X02685
X02645
Y041
X02685
Y03935
X02645
Y0389
X02685
Y0373
X02645
Y03685
X02685
X0314Y0367
Y0371
X03125Y0377
X0316
X0319
Y03885
X0314
Y03835
X033Y038257
Y038707
Y039107
Y039607
Y0401
Y040657
X0342
Y041207
Y040107
Y039607
Y039107
Y038557
Y038107
Y0371
X0337524Y0366348
X0337476Y0363394
X033449Y0363314
Y0366316
X03475Y036657
Y036207
X0342Y035807
X03295Y035557
X0314Y03625
X03185Y0396
Y04005
Y04055
Y0411
X0324Y0396
X03475Y03755
X03745Y0376
X03785
X0378Y0391
X0374
Y03955
X0378
X03785Y041
X03745
Y04145
X03785
X03985
X04025
Y041
X03985
Y0395
X04025
Y03905
X03985
Y0376
X04025
Y03715
X03985
X03975Y0354
X03925Y0349
X0388Y03445
X0391Y034
X0349677
X0348678Y0332671
X03585Y0322
X03285Y0332
T03
X03405Y02525
X03505Y02625
X03305
T04
X0318Y023635
X0328
X0338
X0348
X0358
X0368
X0378
X0308
X0298
X0288
M30
