M48
;Layer_Color=9474304
;FILE_FORMAT=2:5
INCH,LZ
;TYPE=PLATED
T01F00S00C0.00787
T02F00S00C0.01000
T03F00S00C0.02953
T04F00S00C0.04016
T05F00S00C0.04291
T06F00S00C0.18000
%
T01
X0565142Y018324
Y0187177
X0569079
Y018324
X0573016
Y0187177
X0466358Y018726
X0462421
X0458484
Y0183323
X0462421
X0466358
T02
X0671Y0247
X0675
X0679
Y02575
X0675
X0671
X0687Y02635
X06905
X0694
X06975
Y02415
X0694
X06905
X0687
X06695Y02825
X06655
X06615
Y0294
X06655
X06695
X0649Y0296
Y03
Y0304
X0638Y02995
X0634
X063
X06255
X06315Y03105
X06355
X0638Y02935
Y02895
Y02855
X06215Y02995
X06175
X06135
X061
X0606
X0602
X0598
Y0294
Y029
Y0286
Y02815
Y0277
Y0273
Y0269
Y02645
Y02595
Y02555
Y02515
Y0247
X05935Y02385
Y0233
X0588Y02325
X0584
X05795
X0574025Y0232488
X0551Y023
X05475
X05435
X054
X0543Y02145
X05235Y0217
X0524Y02405
Y02435
Y02465
Y02495
Y02525
Y02555
Y02585
Y02615
X0527
Y02585
Y02555
Y02525
Y02495
Y02465
Y02435
Y02405
X05125
Y02455
Y02505
Y02555
Y02605
Y0265
X05225Y0272
X0523Y0283
X0527
X05335Y02855
X05445Y0283
Y02885
Y02945
X0549
X05555
X05595
X05635
X0565Y0298
X05745
X05785
X0582
X05855
Y0294
Y029
Y0286
Y02815
Y0278
Y0274
Y027
Y02655
X0580978Y0265538
X05765Y02655
X0561Y0267
X05605Y02735
X0555
X05495
X0547Y02785
X05525
X0558
X0563
X05605Y0283
X05555
X055
X05635Y02885
X05645Y03095
X05555Y03065
Y0304
X05525
Y03065
X05425Y03105
X05385
X05295Y03115
X05265
X05225
X0515
X05105
X0502
X0498
X04945
X0488938Y0311575
X0489Y0299
X04935
X0498
X0502
X0511
X05155
X05225
X05385Y02985
X05425
X0543Y02605
Y0256
X0548
Y02605
X0569843Y0210383
X058Y02095
X0593586Y0191492
X0588813Y0182813
X0584708Y0174575
X057Y01685
X0604Y0198
X0534Y0197
X0497Y01925
Y0188
Y0184
Y01795
X0507Y0175
X0507118Y017226
X0507Y0169
X0497007Y0162516
X04845Y01705
Y0176
X0483Y01825
X0488Y0191
X04855Y0215
X04775Y02075
X04735Y0211
X04755Y0255046
X0486Y02495
X04865Y0285
X0482
X0491
X0495
X0475Y0295
X04705
X0472Y03105
X04755
X05755Y0312
X0579
X0583
X05865
X0597Y0311
X06015
X06065
X04735Y01565
X04565Y0159
X04505Y0186
X0445Y02065
X0441Y02155
X04295Y02445
X04255
X04215
X0417
X0413
X0409
X04045
X04
X03955
X03915
Y02565
X03955
X03995
X0404
X0405009Y0270009
X0410662Y0282179
X04175Y02815
X0416Y0296441
X0411925Y02935
X0411713Y030551
X0412Y03105
X0397
X0387Y03085
X0392Y03005
X0396Y02925
X0388Y0287
X03685Y0292
X0370169Y029502
X037Y03075
X0367Y0305279
X03555Y0301
X03485Y03035
X0351Y03065
X0349Y0282
X0350516Y0274016
X0332336Y0274519
Y0278519
Y0283019
X03225Y0297
X0322Y03005
X03185Y03015
X0317Y03085
X03335Y02535
X03375Y02475
X03397Y0243215
X0347284Y0235475
X0329Y02325
X0325Y0232
X0322Y023
X0318016Y0230016
X0314Y0233
X0334Y0217
X033Y02025
X03605Y0194
X0366Y02085
X03765Y02605
Y02645
Y02685
X03675Y02825
X0343Y0261
X03455Y0258
X0422Y0257
X04265Y02565
X04305
X0435Y0284
Y0288
Y0292
X04465Y0293
X0451
X04555
X04605
X0466Y0295
X04645Y03105
X04685
X04585Y03075
X04545
X04505
X0446
X04355Y0307
X0436Y03105
X04305Y0307
X04265
X0459Y0284
Y028
Y0276
X046Y0268
X0305307Y0265693
X03005Y027
X02935Y02845
X0299Y0297
X03015Y0295
X0297671Y0312171
X0270509Y0301009
X0282Y0248
X0294988Y0240677
X0299009Y0241509
X0303Y02335
X03065Y0232
X0304Y0218595
X0289Y021
X0289018Y0234018
X0273Y0236
X03055Y0189
X031114Y0314579
X03345Y0317
X0329Y0345517
X037Y0342
X0373Y03355
X03795Y03235
X04085Y0326
X0412Y03185
X0436
Y03145
X04365Y0352
Y0356
Y036
X0446
Y0356
Y0352
X04525Y0403
Y04065
Y041
Y0414
X043Y0413
Y04095
Y0406
Y04025
X04955Y0403
Y04065
Y041
Y04135
X05175Y0414
Y04105
Y0407
Y04035
X0514Y0368
X05115Y03455
Y03415
Y03375
Y0333
Y0328
Y0324
Y032
Y03155
X0502
Y032
Y0324
Y0328
Y0333
Y03375
Y03415
Y03455
X04885
Y03495
Y03415
Y0337
X0489Y03325
Y03275
Y03235
Y0319
Y0315
X0475Y0327
Y0332
X04755Y0337
Y03415
Y03455
Y03495
X0482Y03375
Y03765
X05425Y03655
X054409Y0348716
X05335Y0345
X0546Y0332
X05505
X05545
X05585
X05615Y03285
Y03245
X05645Y0313
X0576Y0316
Y03195
Y03235
Y03275
Y0333
Y03365
Y03405
Y03445
X05865Y0346
Y0342
Y0338
Y03335
Y0328
Y0324
Y032
Y03165
X0597Y0315
Y03195
Y03235
Y03275
Y0333
Y03375
Y03415
Y03455
Y0351
Y03555
Y03595
Y03635
Y03685
Y0373
Y0377
Y0381
Y03855
Y039
Y0394
Y0398
X05865Y03985
Y03945
Y03905
Y0386
Y03815
Y03775
Y03735
Y0369
Y0364
Y036
Y0356
Y03515
X06065Y0321
X06105
X0615
X06195
X06235
X06065Y03155
X05425Y0314
Y0318
Y0322
Y03265
X05195Y03225
X0552Y0375
X0581Y0403
Y04065
Y041
Y04135
X06035Y0414
Y04105
Y0407
Y04035
X0637Y035
Y0346
Y0342
X0649
Y0346
Y035
X06615Y0342
X06655
X06695
Y03295
X06655
X06615
X06495Y03265
Y03225
Y03185
X0637Y032
Y0324
Y0328
X06275Y0321
X06695Y0368
X06735
X06775
Y03775
X06735
X06695
X0687Y03835
X06905
X0694
X06975
X0697Y0361
X06935
X069
X06865
T03
X0387362Y03885
X0397362Y03985
Y03785
T04
X0241Y0145
Y0155
X02765Y013785
X02865
X02965
X03065
X03165
X03265
X03365
X03465
X03565
X03665
X0504949Y0267102
Y0277102
X024085Y02765
Y02665
Y02565
Y02465
Y02365
X0242Y021
Y02
X0241Y0179
Y0169
X024085Y02865
Y02965
Y03065
Y03165
Y03265
X0276Y037715
X0286
X0296
X0306
X0316
X0326
X0336
X0346
X0356
X0366
T05
X02205Y0117
X02305
X02405
T06
X0578Y01155
X06325
X0684Y0116
X0683228Y0172228
X02185Y03625
X0219Y0399
M30
