M48
;Layer_Color=9474304
;FILE_FORMAT=2:5
INCH,LZ
;TYPE=PLATED
T01F00S00C0.00787
T02F00S00C0.01000
T03F00S00C0.02953
T04F00S00C0.04016
T05F00S00C0.04291
T06F00S00C0.05236
T07F00S00C0.18000
%
T01
X0465984Y0130823
Y013476
X0469921
Y0130823
X0473858
Y013476
X0572642Y0134677
Y013074
X0576579
Y0134677
X0580516
Y013074
T02
X04575Y011
X0481Y0104
X0504507Y0110016
X05145Y01165
X0514618Y011976
X05145Y01225
X05045Y0127
Y01315
Y01355
Y014
X0485Y0155
X0542049Y015326
X05315Y0104
X05775Y0117
X0592208Y0122075
X0596313Y0130313
X0601086Y0138992
X06115Y01455
X0687Y02465
X06905
X0694
X06975
Y02685
X0694
X06905
X0687
X06355Y03105
X06315
X06065Y0311
X06025
X0599
X0598Y02995
X0602
X0606
X061
X06135
X05855
X0582
X05785
X05745
X0565Y0298
X05635Y02945
X05595
X05555
X0549
X05445
Y02885
X0547Y0283
X05525
X0558
X05625Y0288
X05555Y0304
Y03065
X05525
Y0304
X05425Y02985
X05385
Y03105
X05425
X05295Y03115
X0526
X05225
X0515
X05105
X0502
X0498
X04945
X04905
X0489Y0299
X04935
X0498
X0502
X0511
X05155
X05225
X05285Y0283
X05335Y0271
X05145Y02495
X0509
Y0244
Y02395
Y0235
Y023
Y0225
Y02195
X05145
Y0225
Y023
Y0235
Y02395
Y0244
X0503
Y02395
Y0235
Y023
Y0225
Y02195
X04975
X0492
X04865
X0481
X04755
X047
Y0225
Y023
Y0235
Y02395
Y0244
Y02495
X04755
X0481
X04865
X0492
X04975
X0503
X04975Y0244
Y02395
Y0235
Y023
Y0225
X0492
Y023
Y0235
Y02395
Y0244
X04865
Y02395
Y0235
Y023
Y0225
X0481
Y023
Y0235
Y02395
Y0244
X04755
Y02395
Y0235
Y023
Y0225
X0486Y01675
X0481Y01585
X05285Y0167
X05515Y01665
X05595Y0182
X0541
X0544Y02105
X05485
X0553
X0582Y0201
X05885
X0594
X05875Y0157
X0577343Y0157883
X0579Y0311
X05755
X0583
X05645Y03095
X04755Y03105
X0472
X04705Y0295
X0475
X048Y0299
X04845
X0466Y0295
X04605Y0293
X04555
X0451
X04465
X04485Y03075
X0453
X0457
X0461
X04645Y03105
X04685
X04365Y031
Y03055
X0411713Y030551
X0412Y03105
X0397
X0387Y03085
X0392Y03005
X0396Y02925
X0388Y0287
X03685Y0292
X0370169Y029502
X037Y03075
X0367Y0305279
X03555Y0301
X03485Y03035
X0351Y03065
X0349Y0282
X0350516Y0274016
X0332336Y0274519
Y0278519
Y0283019
X03225Y0297
X0322Y03005
X03185Y03015
X0317Y03085
X03335Y02535
X03375Y02475
X03397Y0243215
X0347284Y0235475
X0329Y02325
X0325Y0232
X0322Y023
X0318016Y0230016
X0314Y0233
X0334Y0217
X033Y02025
X03605Y0194
X0366Y02085
X03455Y0258
X0343Y0261
X03675Y02825
X0410662Y0282179
X04175Y02815
X0425Y0281
X0416Y0296441
X0411925Y02935
X0405009Y0270009
X0404Y02565
X03995
X03945
X0389
X0422Y0257
X04345Y025
X0464Y02495
Y0244
Y02395
Y0235
Y023
Y0225
X0465475Y0220975
X04395Y02205
X0458255Y0160132
X03055Y0189
X0304Y0218595
X0303Y02335
X03065Y0232
X0299009Y0241509
X0294988Y0240677
X0289018Y0234018
X0273Y0236
X0282Y0248
X03005Y027
X0305307Y0265693
X02935Y02845
X0299Y0297
X03015Y0295
X0297671Y0312171
X0270509Y0301009
X0289Y021
X031114Y0314579
X03345Y0317
X0329Y0345517
X037Y0342
X0373Y03355
X03795Y03235
X04085Y0326
X0412Y03185
X04365Y0318
Y0314
X043Y04025
Y0406
Y04095
Y0413
X04525Y0414
Y041
Y04065
Y0403
X04955
Y04065
Y041
Y04135
X05175Y0414
Y04105
Y0407
Y04035
X05145Y03645
X05335Y0345
X054409Y0348716
X05425Y03265
Y0322
Y0318
Y0314
X05645Y0313
X05615Y03245
Y03285
X05585Y0332
X05545
X05865Y03335
Y0338
Y0342
Y0346
Y03515
Y0356
Y036
Y0364
Y0369
Y03735
Y03775
Y03815
Y0386
Y03905
Y03945
Y03985
X0581Y0403
Y04065
Y041
Y04135
X06035Y0414
Y04105
Y0407
Y04035
X0597Y0398
Y0394
Y039
Y03855
Y0381
Y0377
Y0373
Y03685
Y03635
Y03595
Y03555
Y0351
Y03455
Y03415
Y03375
Y0333
Y03275
Y03235
Y03195
Y0315
X06065Y03155
X0612Y0322
X05865Y032
Y0324
Y0328
Y03155
X05195Y03225
X05025Y0324
Y0328
Y032
Y03155
X0474Y03255
X0469
X04735Y03315
X0552Y0375
X0687Y03835
X06905
X0694
X06975
X0697Y0361
X06935
X069
X06865
T03
X0397Y0384
X0387Y0394
X0397Y0404
T04
X0241Y0145
Y0155
X02765Y013785
X02865
X02965
X03065
X03165
X03265
X03365
X03465
X03565
X03665
X0241Y0169
Y0179
X0242Y02
Y021
X024085Y02365
Y02465
Y02565
Y02665
Y02765
Y02865
Y02965
Y03065
Y03165
Y03265
X0276Y037715
X0286
X0296
X0306
X0316
X0326
X0336
X0346
X0356
X0366
T05
X02205Y0117
X02305
X02405
T06
X05325Y0224
Y0234
Y0244
T07
X0632Y0116
X0684Y01165
X06845Y017
X02185Y03625
X0219Y0399
M30
