M48
;Layer_Color=9474304
;FILE_FORMAT=2:5
INCH,LZ
;TYPE=PLATED
T01F00S00C0.00787
T02F00S00C0.01000
T03F00S00C0.02953
T04F00S00C0.04016
T05F00S00C0.04291
T06F00S00C0.18000
%
T01
X0565142Y018324
Y0187177
X0569079
Y018324
X0573016
Y0187177
X0466358Y018726
X0462421
X0458484
Y0183323
X0462421
X0466358
T02
X06375Y02815
Y02855
Y02895
X0638Y02995
X0634
X063
X06255
X06315Y03105
X06355
X0649Y0304
Y03
Y0296
X0671Y02625
X0675
X0679
Y02525
X0675
X0671
X0687Y02465
X06905
X0694
X06975
Y02685
X0694
X06905
X0687
X0602Y0261
Y02555
Y0249
Y02995
X0606
X061
X06135
X06175
X06215
X0598
X0597Y0311
X06025
X06065
X05865
X0583
X0579
X05755
X05745Y02995
X05785
X0582
X05855
X0565Y0298
X05635Y02945
X05595
X05555
X0549
X05445
Y02885
X0547Y0283
X05525
X0558
X05625Y0288
X05555Y0304
Y03065
X05525
Y0304
X05425Y02985
X05385
Y03105
X05425
X05295Y03115
X0526
X05225
X0515
X05105
X0502
X0498
X04945
X04905
X0489Y0299
X04935
X0498
X0502
X0511
X05155
X05225
X05285Y0283
X05335Y02855
X0527Y02615
Y02585
Y02555
Y02525
Y02495
Y02465
Y02435
Y02405
X05235
Y02435
Y02465
Y02495
Y02525
Y02555
Y02585
Y02615
X0481Y0255
X04755Y0255046
X0475Y0295
X04705
X0472Y03105
X04755
X05645Y03095
X0553Y0225
X05485
X0544
X0543Y02145
X05225Y021
X0534Y0197
X0497Y01925
Y0188
Y0184
Y01795
X0507Y0175
X0507118Y017226
X0507Y0169
X0497007Y0162516
X04735Y01565
Y0211
X04775Y02075
X0483828Y0214328
X0569843Y0210383
X058Y02095
X0593586Y0191492
X0588813Y0182813
X0584708Y0174575
X057Y01695
X0604Y0198
X0446Y02065
X0441Y02155
X045Y01625
X046Y0268
X04605Y0293
X04555
X0451
X04465
X04485Y03075
X0453
X0457
X0461
X04645Y03105
X04685
X0466Y0295
X04365Y03055
Y031
X0412Y03105
X0411713Y030551
X0411925Y02935
X0416Y0296441
X04175Y02815
X0410662Y0282179
X0425Y0281
X0422Y0261
X0404Y02565
X03995
X03945
X0389
X0405009Y0270009
X0396Y02925
X0392Y03005
X0387Y03085
X0397Y03105
X037Y03075
X0367Y0305279
X0370169Y029502
X03685Y0292
X03675Y02825
X0349Y0282
X0350516Y0274016
X0332336Y0274519
Y0278519
Y0283019
X03225Y0297
X0322Y03005
X03185Y03015
X0317Y03085
X0351Y03065
X03485Y03035
X03555Y0301
X0388Y0287
X0343Y0261
X03455Y0258
X03335Y02535
X03375Y02475
X03397Y0243215
X0347284Y0235475
X0329Y02325
X0325Y0232
X0322Y023
X0318016Y0230016
X0314Y0233
X0334Y0217
X033Y02025
X03605Y0194
X0366Y02085
X0304Y0218595
X0303Y02335
X03065Y0232
X0299009Y0241509
X0294988Y0240677
X0289018Y0234018
X0273Y0236
X0282Y0248
X03005Y027
X0305307Y0265693
X02935Y02845
X0299Y0297
X03015Y0295
X0297671Y0312171
X0270509Y0301009
X0289Y021
X03055Y0189
X031114Y0314579
X03345Y0317
X0329Y0345517
X037Y0342
X0373Y03355
X03795Y03235
X04085Y0326
X0412Y03185
X04365Y0318
Y0314
Y0352
Y0356
Y036
X0446
Y0356
Y0352
X04525Y0403
Y04065
Y041
Y0414
X043Y0413
Y04095
Y0406
Y04025
X04955Y0403
Y04065
Y041
Y04135
X05175Y0414
Y04105
Y0407
Y04035
X05145Y03645
X05425Y03655
X054409Y0348716
X05335Y0345
X05425Y03265
Y0322
Y0318
Y0314
X05645Y0313
X05615Y03245
Y03285
X05585Y0332
X05545
X05865Y03335
Y0338
Y0342
Y0346
Y03515
Y0356
Y036
Y0364
Y0369
Y03735
Y03775
Y03815
Y0386
Y03905
Y03945
Y03985
X0581Y0403
Y04065
Y041
Y04135
X06035Y0414
Y04105
Y0407
Y04035
X0597Y0398
Y0394
Y039
Y03855
Y0381
Y0377
Y0373
Y03685
Y03635
Y03595
Y03555
Y0351
Y03455
Y03415
Y03375
Y0333
Y03275
Y03235
Y03195
Y0315
X06065Y03155
Y0321
X06105
X0615
X05865Y032
Y0324
Y0328
Y03155
X05195Y03225
X05025Y0324
Y0328
Y032
Y03155
X0474Y03255
X0469
X0482Y03375
Y03765
X0552Y0375
X0638Y035
Y0346
Y0342
X0649
Y0346
Y035
X06495Y03265
Y03225
Y03185
X0638Y032
Y0324
Y0328
X06695Y0368
X06735
X06775
Y03775
X06735
X06695
X0687Y03835
X06905
X0694
X06975
X0697Y0361
X06935
X069
X06865
T03
X0387362Y03885
X0397362Y03985
Y03785
T04
X0241Y0145
Y0155
X02765Y013785
X02865
X02965
X03065
X03165
X03265
X03365
X03465
X03565
X03665
X0504949Y0267102
Y0277102
X024085Y02765
Y02665
Y02565
Y02465
Y02365
X0242Y021
Y02
X0241Y0179
Y0169
X024085Y02865
Y02965
Y03065
Y03165
Y03265
X0276Y037715
X0286
X0296
X0306
X0316
X0326
X0336
X0346
X0356
X0366
T05
X02205Y0117
X02305
X02405
T06
X0578Y01155
X06325
X0684Y0116
X0683228Y0172228
X02185Y03625
X0219Y0399
M30
