G04*
G04 #@! TF.GenerationSoftware,Altium Limited,Altium Designer,23.8.1 (32)*
G04*
G04 Layer_Physical_Order=1*
G04 Layer_Color=255*
%FSLAX25Y25*%
%MOIN*%
G70*
G04*
G04 #@! TF.SameCoordinates,A9E98482-AA81-4C70-AF81-B552D0338214*
G04*
G04*
G04 #@! TF.FilePolarity,Positive*
G04*
G01*
G75*
%ADD17R,0.03150X0.03150*%
%ADD18R,0.02985X0.03197*%
%ADD19R,0.03681X0.03788*%
%ADD20R,0.03740X0.05709*%
%ADD21R,0.03347X0.03937*%
%ADD22R,0.03937X0.03347*%
%ADD23R,0.02953X0.03543*%
%ADD24O,0.01772X0.07480*%
%ADD25C,0.01595*%
%ADD26R,0.06890X0.09843*%
%ADD27R,0.05512X0.03937*%
%ADD28R,0.05600X0.01100*%
%ADD29R,0.12992X0.06693*%
%ADD30R,0.00984X0.02756*%
%ADD31R,0.04469X0.04182*%
%ADD32R,0.03591X0.04453*%
%ADD33R,0.02756X0.02756*%
%ADD34R,0.08071X0.04331*%
%ADD35R,0.03765X0.04749*%
%ADD36R,0.09449X0.11417*%
%ADD37R,0.05709X0.05709*%
%ADD38R,0.03347X0.01181*%
%ADD39R,0.01181X0.03347*%
%ADD40R,0.01181X0.03150*%
%ADD41R,0.10039X0.06890*%
%ADD42R,0.02500X0.02402*%
%ADD43R,0.03773X0.03961*%
%ADD44R,0.02165X0.02165*%
%ADD45R,0.02165X0.02165*%
%ADD46R,0.03937X0.02953*%
%ADD47R,0.04560X0.03985*%
%ADD48R,0.05339X0.04545*%
%ADD49R,0.03150X0.04724*%
%ADD50R,0.04545X0.05339*%
%ADD51R,0.02992X0.05512*%
%ADD52R,0.03858X0.13386*%
%ADD53R,0.02205X0.02047*%
%ADD54R,0.02254X0.02423*%
%ADD55R,0.02423X0.02254*%
%ADD56R,0.03740X0.03347*%
%ADD57R,0.04134X0.06299*%
%ADD58R,0.06299X0.04134*%
%ADD59R,0.04134X0.03740*%
%ADD60R,0.04134X0.03150*%
%ADD61R,0.02047X0.02047*%
%ADD62R,0.02254X0.02517*%
%ADD63R,0.03740X0.06693*%
%ADD64R,0.20000X0.20000*%
%ADD89C,0.01000*%
%ADD90C,0.02000*%
%ADD91C,0.03000*%
%ADD92C,0.08000*%
%ADD93C,0.04000*%
%ADD94C,0.01772*%
%ADD95C,0.01500*%
%ADD96R,0.04921X0.04921*%
%ADD97C,0.04921*%
%ADD98C,0.05984*%
G04:AMPARAMS|DCode=99|XSize=59.84mil|YSize=59.84mil|CornerRadius=14.96mil|HoleSize=0mil|Usage=FLASHONLY|Rotation=0.000|XOffset=0mil|YOffset=0mil|HoleType=Round|Shape=RoundedRectangle|*
%AMROUNDEDRECTD99*
21,1,0.05984,0.02992,0,0,0.0*
21,1,0.02992,0.05984,0,0,0.0*
1,1,0.02992,0.01496,-0.01496*
1,1,0.02992,-0.01496,-0.01496*
1,1,0.02992,-0.01496,0.01496*
1,1,0.02992,0.01496,0.01496*
%
%ADD99ROUNDEDRECTD99*%
%ADD100C,0.02000*%
%ADD101C,0.01968*%
G36*
X409000Y213000D02*
X257500D01*
Y460000D01*
X409000D01*
Y213000D01*
D02*
G37*
%LPC*%
G36*
X326000Y458000D02*
X304000D01*
Y436000D01*
X311330D01*
Y435432D01*
X311103Y434883D01*
X310965Y433839D01*
Y427500D01*
X310965Y427500D01*
X311103Y426456D01*
X311506Y425483D01*
X312147Y424647D01*
X315961Y420834D01*
X316796Y420193D01*
X317769Y419790D01*
X318813Y419652D01*
X322470D01*
Y413252D01*
X322590Y412338D01*
X322943Y411487D01*
X323504Y410756D01*
X323504Y410756D01*
Y409496D01*
X328496D01*
Y410756D01*
X328496Y410756D01*
X329057Y411487D01*
X329410Y412338D01*
X329530Y413252D01*
Y419830D01*
X332068D01*
X332470Y419664D01*
Y413252D01*
X332590Y412338D01*
X332943Y411487D01*
X333504Y410756D01*
X333504Y410756D01*
Y409496D01*
X338496D01*
Y410756D01*
X338496Y410756D01*
X339057Y411487D01*
X339410Y412338D01*
X339530Y413252D01*
Y419465D01*
X343500D01*
X343500Y419465D01*
X344544Y419603D01*
X345517Y420006D01*
X346353Y420647D01*
X349853Y424147D01*
X349853Y424147D01*
X350494Y424983D01*
X350897Y425956D01*
X351034Y427000D01*
X351034Y427000D01*
Y433339D01*
X350897Y434383D01*
X350670Y434932D01*
Y435500D01*
X357500D01*
Y457500D01*
X335500D01*
Y435500D01*
X343330D01*
Y434932D01*
X343103Y434383D01*
X342966Y433339D01*
Y428671D01*
X341829Y427534D01*
X333661D01*
X332617Y427397D01*
X332068Y427170D01*
X330184D01*
X330170Y427181D01*
X329197Y427584D01*
X328152Y427721D01*
X320484D01*
X319035Y429171D01*
Y433839D01*
X318897Y434883D01*
X318670Y435432D01*
Y436000D01*
X326000D01*
Y458000D01*
D02*
G37*
G36*
X338496Y403504D02*
X333504D01*
Y401423D01*
X333380Y401261D01*
X333077Y400531D01*
X332974Y399748D01*
Y391760D01*
X333077Y390977D01*
X333114Y390889D01*
Y388228D01*
X332943Y388005D01*
X332590Y387154D01*
X332470Y386240D01*
Y380362D01*
X327425D01*
Y377205D01*
X326925Y377172D01*
X326907Y377309D01*
X326810Y378044D01*
X326407Y379017D01*
X325766Y379853D01*
X325488Y380066D01*
Y380362D01*
X325400D01*
Y383000D01*
X325297Y383783D01*
X324995Y384513D01*
X324586Y385046D01*
Y385127D01*
X324524D01*
X324514Y385140D01*
X323887Y385620D01*
X323158Y385923D01*
X322375Y386026D01*
X321591Y385923D01*
X320862Y385620D01*
X320235Y385140D01*
X320225Y385127D01*
X320163D01*
Y385046D01*
X319754Y384513D01*
X319452Y383783D01*
X319349Y383000D01*
Y381034D01*
X312500D01*
X311456Y380897D01*
X310483Y380494D01*
X309647Y379853D01*
X309006Y379017D01*
X308603Y378044D01*
X308466Y377000D01*
X308603Y375956D01*
X309006Y374983D01*
X309647Y374147D01*
X310483Y373506D01*
X311456Y373103D01*
X312500Y372966D01*
X319661D01*
Y371000D01*
X319764Y370217D01*
X320067Y369487D01*
X320476Y368954D01*
Y368873D01*
X320538D01*
X320548Y368860D01*
X321174Y368379D01*
X321904Y368077D01*
X322687Y367974D01*
X323470Y368077D01*
X324200Y368379D01*
X324827Y368860D01*
X324837Y368873D01*
X324899D01*
Y368954D01*
X325308Y369487D01*
X325610Y370217D01*
X325713Y371000D01*
Y374106D01*
X325766Y374147D01*
X326407Y374983D01*
X326810Y375956D01*
X326907Y376691D01*
X326925Y376828D01*
X327425Y376795D01*
Y373638D01*
X328981D01*
X329562Y373192D01*
X330292Y372890D01*
X331075Y372787D01*
X333455D01*
Y370504D01*
X333649Y369529D01*
X334202Y368702D01*
X334206Y368698D01*
X334417Y368556D01*
Y367827D01*
X337598D01*
Y368556D01*
X337810Y368698D01*
X338363Y369525D01*
X338557Y370500D01*
X338553Y370520D01*
Y372631D01*
X341344D01*
X342127Y372734D01*
X342857Y373036D01*
X343431Y373476D01*
X343602D01*
Y373672D01*
X343964Y374143D01*
X344266Y374873D01*
X344370Y375656D01*
X344266Y376439D01*
X343964Y377169D01*
X343483Y377796D01*
X342857Y378277D01*
X342127Y378579D01*
X341344Y378682D01*
X339843D01*
X339513Y379058D01*
X339530Y379187D01*
Y386240D01*
X339410Y387154D01*
X339057Y388005D01*
X338886Y388228D01*
Y390889D01*
X338923Y390977D01*
X339026Y391760D01*
Y399748D01*
X338923Y400531D01*
X338620Y401261D01*
X338496Y401423D01*
Y403504D01*
D02*
G37*
G36*
X332972Y368390D02*
X327626D01*
Y365333D01*
X325196D01*
X325163Y365355D01*
X324187Y365549D01*
X323212Y365355D01*
X322870Y365127D01*
X321976D01*
Y364190D01*
X321832Y363976D01*
X321638Y363000D01*
X321832Y362024D01*
X321976Y361810D01*
Y360873D01*
X322763D01*
X323428Y360429D01*
X324404Y360234D01*
X330299D01*
X331275Y360429D01*
X332102Y360981D01*
X332243Y361193D01*
X332972D01*
Y365209D01*
Y368390D01*
D02*
G37*
G36*
X344390D02*
X339043D01*
Y365209D01*
Y361193D01*
X344390D01*
Y365209D01*
Y368390D01*
D02*
G37*
G36*
X346075Y354862D02*
X340925D01*
Y348138D01*
X346075D01*
Y349226D01*
X349150D01*
X349868Y349321D01*
X350536Y349598D01*
X350799Y349799D01*
X351400D01*
Y350415D01*
X351552Y350613D01*
X351829Y351282D01*
X351923Y352000D01*
X351829Y352718D01*
X351552Y353387D01*
X351400Y353585D01*
Y354201D01*
X350799D01*
X350536Y354402D01*
X349868Y354679D01*
X349150Y354774D01*
X346075D01*
Y354862D01*
D02*
G37*
G36*
X386500Y428539D02*
X357000D01*
X356220Y428384D01*
X355558Y427942D01*
X355116Y427280D01*
X354961Y426500D01*
Y346500D01*
X355116Y345720D01*
X355558Y345058D01*
X356220Y344616D01*
X357000Y344461D01*
X360934D01*
Y336000D01*
X361055Y335086D01*
X361407Y334235D01*
X361582Y334007D01*
Y332626D01*
X363465D01*
X363551Y332590D01*
X364465Y332470D01*
X365378Y332590D01*
X365464Y332626D01*
X367347D01*
Y334007D01*
X367522Y334235D01*
X367875Y335086D01*
X367995Y336000D01*
Y344461D01*
X369653D01*
X370433Y344616D01*
X371095Y345058D01*
X371280Y345335D01*
X373791D01*
X373976Y345058D01*
X374637Y344616D01*
X375418Y344461D01*
X377733D01*
Y342146D01*
X377854Y341232D01*
X378206Y340381D01*
X378767Y339650D01*
X379498Y339089D01*
X380222Y338789D01*
X380122Y338289D01*
X375418D01*
Y339374D01*
X372975D01*
X372918Y339412D01*
X371943Y339606D01*
X370967Y339412D01*
X370910Y339374D01*
X369653D01*
Y338131D01*
X369588Y338033D01*
X369394Y337057D01*
X369588Y336082D01*
X369653Y335984D01*
Y332626D01*
X375418D01*
Y333191D01*
X381079D01*
X381939Y333362D01*
X382187D01*
X383047Y333191D01*
X383907Y333362D01*
X384539D01*
Y333730D01*
X384850Y333938D01*
X385078D01*
X385492Y333566D01*
Y333362D01*
X386124D01*
X386984Y333191D01*
X387844Y333362D01*
X388093D01*
X388953Y333191D01*
X389813Y333362D01*
X390061D01*
X390921Y333191D01*
X396128D01*
X397103Y333385D01*
X397930Y333938D01*
X399266Y335274D01*
X401960D01*
X402138Y335238D01*
X403113Y335433D01*
X403179Y335476D01*
X403874D01*
Y335941D01*
X403940Y335985D01*
X404493Y336812D01*
X404687Y337787D01*
X404493Y338763D01*
X403940Y339590D01*
X403905Y339625D01*
X403964Y340128D01*
X404083Y340307D01*
X404277Y341283D01*
X404083Y342258D01*
X403811Y342666D01*
Y343583D01*
X402786D01*
X402704Y343638D01*
X401728Y343832D01*
X398259D01*
X397283Y343638D01*
X396870Y343361D01*
X395952D01*
Y343361D01*
X395468Y343402D01*
Y345524D01*
X394510D01*
X394302Y345834D01*
X393476Y346386D01*
X392500Y346581D01*
X391525Y346386D01*
X390711Y345843D01*
X390696Y345834D01*
X390065Y345909D01*
X389802Y346302D01*
X388976Y346855D01*
X388539Y346942D01*
Y350470D01*
X396038D01*
X396592Y349916D01*
Y348111D01*
X396712Y347198D01*
X397065Y346346D01*
X397626Y345615D01*
X397629Y345612D01*
Y345513D01*
X397759D01*
X398357Y345054D01*
X399208Y344701D01*
X400122Y344581D01*
X401035Y344701D01*
X401887Y345054D01*
X402485Y345513D01*
X407354D01*
Y347827D01*
X407411Y348111D01*
Y351677D01*
X407575D01*
Y356827D01*
X402425D01*
Y354774D01*
X402275Y354652D01*
X401941Y354551D01*
X399996Y356496D01*
X399265Y357057D01*
X398414Y357410D01*
X397500Y357530D01*
X388539D01*
Y426500D01*
X388384Y427280D01*
X387942Y427942D01*
X387280Y428384D01*
X386500Y428539D01*
D02*
G37*
G36*
X305000D02*
X275500D01*
X274720Y428384D01*
X274058Y427942D01*
X273616Y427280D01*
X273461Y426500D01*
Y346500D01*
X273616Y345720D01*
X274058Y345058D01*
X274720Y344616D01*
X275500Y344461D01*
X305000D01*
X305780Y344616D01*
X306442Y345058D01*
X306884Y345720D01*
X307039Y346500D01*
Y426500D01*
X306884Y427280D01*
X306442Y427942D01*
X305780Y428384D01*
X305000Y428539D01*
D02*
G37*
G36*
X337598Y361756D02*
X334417D01*
Y361027D01*
X334206Y360885D01*
X333653Y360058D01*
X333459Y359083D01*
Y353687D01*
X330122D01*
X329404Y353593D01*
X328735Y353315D01*
X328355Y353024D01*
X327933D01*
Y352578D01*
X327720Y352300D01*
X327443Y351631D01*
X327348Y350913D01*
X327443Y350196D01*
X327720Y349527D01*
X327933Y349249D01*
Y348976D01*
X328142D01*
X328161Y348952D01*
X328735Y348511D01*
X329404Y348234D01*
X330122Y348140D01*
X332726D01*
Y343687D01*
X332821Y342969D01*
X333098Y342300D01*
X333217Y342145D01*
X332759Y341548D01*
X332468Y340846D01*
X332369Y340092D01*
Y336389D01*
X331907Y336198D01*
X327802Y340302D01*
X326975Y340855D01*
X326000Y341049D01*
X293500D01*
X292525Y340855D01*
X291698Y340302D01*
X282698Y331302D01*
X282145Y330475D01*
X281951Y329500D01*
Y320842D01*
X281510Y320606D01*
X281276Y320763D01*
X280300Y320957D01*
X278159D01*
X277564Y321355D01*
X276589Y321549D01*
X266500D01*
X265525Y321355D01*
X264698Y320802D01*
X262198Y318302D01*
X261645Y317476D01*
X261451Y316500D01*
Y314000D01*
X261645Y313024D01*
X262198Y312198D01*
X263024Y311645D01*
X264000Y311451D01*
X264798Y311610D01*
X265044Y311149D01*
X262198Y308302D01*
X261645Y307475D01*
X261451Y306500D01*
Y294500D01*
X261645Y293525D01*
X262198Y292698D01*
X264142Y290753D01*
Y290051D01*
X264336Y289076D01*
X264889Y288249D01*
X265940Y287198D01*
X266767Y286645D01*
X267743Y286451D01*
X270464D01*
Y286008D01*
X280001D01*
X280256Y285974D01*
X286500D01*
X287283Y286077D01*
X288013Y286380D01*
X288640Y286860D01*
X288797Y287066D01*
X289296Y287099D01*
X294693Y281702D01*
Y276136D01*
X294882Y275186D01*
X294861Y275154D01*
X294428Y274933D01*
X293798Y275562D01*
X292971Y276115D01*
X291996Y276309D01*
X291331D01*
X291001Y276530D01*
X290220Y276685D01*
Y276614D01*
X288962D01*
X288846Y276662D01*
X288181Y276530D01*
X287856Y276395D01*
X287194Y275953D01*
X286945Y275704D01*
X286945Y275704D01*
X286945Y275704D01*
X286725Y275374D01*
X286503Y275042D01*
X286503Y275042D01*
X286503Y275042D01*
X286368Y274716D01*
X286213Y273936D01*
Y273584D01*
X286368Y272803D01*
X286503Y272478D01*
X286503Y272478D01*
X286503Y272478D01*
X286896Y271890D01*
X286503Y271302D01*
X286503Y271302D01*
X286503Y271302D01*
X286368Y270976D01*
X286213Y270196D01*
Y269844D01*
X286368Y269063D01*
X286503Y268738D01*
X286503Y268738D01*
X286503Y268738D01*
X286725Y268405D01*
X286945Y268076D01*
X286945Y268076D01*
X286945Y268076D01*
X287194Y267827D01*
X287194Y267827D01*
X287194Y267827D01*
X287523Y267607D01*
X287856Y267385D01*
X287856Y267385D01*
X287856Y267385D01*
X288181Y267250D01*
X288962Y267095D01*
X290220Y267095D01*
X290785Y267207D01*
X296000D01*
X296860Y267378D01*
X298378D01*
Y268896D01*
X298549Y269756D01*
X298378Y270616D01*
Y270742D01*
X298840Y270933D01*
X302075Y267698D01*
X302902Y267146D01*
X303877Y266952D01*
X304413D01*
Y265882D01*
X311925D01*
Y271681D01*
X311925Y271819D01*
X311925D01*
Y272181D01*
X311925D01*
Y277951D01*
X313075D01*
Y272181D01*
X320587D01*
Y272601D01*
X326150D01*
X327125Y272795D01*
X327952Y273347D01*
X338570Y283965D01*
X339032Y283773D01*
Y282827D01*
X344969D01*
Y284273D01*
X345430Y284465D01*
X347951Y281944D01*
Y265961D01*
X347039D01*
Y260991D01*
X338445D01*
X338445Y260991D01*
X334174D01*
X333812Y261491D01*
X333961Y262044D01*
Y262956D01*
X333725Y263836D01*
X333269Y264625D01*
X332625Y265269D01*
X331836Y265725D01*
X330956Y265961D01*
X330044D01*
X329164Y265725D01*
X328375Y265269D01*
X327731Y264625D01*
X327275Y263836D01*
X327039Y262956D01*
Y262044D01*
X327188Y261491D01*
X326826Y260991D01*
X322104D01*
X321191Y260871D01*
X320339Y260518D01*
X319608Y259957D01*
X305504Y245853D01*
X304943Y245122D01*
X304590Y244270D01*
X304470Y243356D01*
Y238220D01*
X304280Y237891D01*
X304008Y236876D01*
Y235825D01*
X304280Y234810D01*
X304805Y233899D01*
X305549Y233156D01*
X306459Y232630D01*
X307474Y232358D01*
X308526D01*
X309541Y232630D01*
X310451Y233156D01*
X311194Y233899D01*
X311720Y234810D01*
X311992Y235825D01*
Y236876D01*
X311720Y237891D01*
X311530Y238220D01*
Y241894D01*
X323566Y253930D01*
X338445D01*
X338445Y253930D01*
X370008D01*
X370922Y254051D01*
X371773Y254403D01*
X372504Y254964D01*
X374262Y256722D01*
X374823Y257453D01*
X375176Y258304D01*
X375255Y258909D01*
X375734D01*
Y260314D01*
X376057Y260735D01*
X376410Y261586D01*
X376530Y262500D01*
Y265210D01*
X377980D01*
Y263461D01*
X377980Y263461D01*
X377980D01*
X377760Y263054D01*
X377708Y262976D01*
X377514Y262000D01*
X377708Y261024D01*
X378261Y260198D01*
X378472Y260056D01*
Y259425D01*
X380087D01*
X380229Y259213D01*
X380320Y259123D01*
X380451Y259035D01*
Y254150D01*
X379740D01*
Y252322D01*
X379506Y252017D01*
X379103Y251044D01*
X378965Y250000D01*
Y248671D01*
X378329Y248035D01*
X320500D01*
X319456Y247897D01*
X318483Y247494D01*
X317647Y246853D01*
X317647Y246853D01*
X315147Y244353D01*
X314506Y243517D01*
X314103Y242544D01*
X313966Y241500D01*
X313966Y241500D01*
Y236350D01*
X314008Y236029D01*
Y235825D01*
X314061Y235628D01*
X314103Y235306D01*
X314227Y235006D01*
X314280Y234810D01*
X314382Y234633D01*
X314506Y234333D01*
X314704Y234075D01*
X314806Y233899D01*
X314949Y233755D01*
X315147Y233498D01*
X315405Y233300D01*
X315549Y233156D01*
X315725Y233054D01*
X315983Y232856D01*
X316283Y232732D01*
X316459Y232630D01*
X316656Y232578D01*
X316956Y232453D01*
X317278Y232411D01*
X317474Y232358D01*
X317678D01*
X318000Y232316D01*
X318322Y232358D01*
X318526D01*
X318722Y232411D01*
X319044Y232453D01*
X319344Y232578D01*
X319541Y232630D01*
X319717Y232732D01*
X320017Y232856D01*
X320275Y233054D01*
X320451Y233156D01*
X320595Y233300D01*
X320853Y233498D01*
X321051Y233755D01*
X321195Y233899D01*
X321296Y234075D01*
X321494Y234333D01*
X321618Y234633D01*
X321720Y234810D01*
X321773Y235006D01*
X321897Y235306D01*
X321939Y235628D01*
X321992Y235825D01*
Y236029D01*
X322035Y236350D01*
Y239829D01*
X322171Y239966D01*
X335357D01*
X335469Y239465D01*
X334805Y238802D01*
X334280Y237891D01*
X334008Y236876D01*
Y235825D01*
X334280Y234810D01*
X334805Y233899D01*
X335549Y233156D01*
X336459Y232630D01*
X337474Y232358D01*
X338526D01*
X339541Y232630D01*
X340451Y233156D01*
X341195Y233899D01*
X341720Y234810D01*
X341992Y235825D01*
Y236876D01*
X341720Y237891D01*
X341195Y238802D01*
X340531Y239465D01*
X340643Y239966D01*
X345357D01*
X345469Y239465D01*
X344806Y238802D01*
X344280Y237891D01*
X344008Y236876D01*
Y235825D01*
X344280Y234810D01*
X344806Y233899D01*
X345549Y233156D01*
X346459Y232630D01*
X347474Y232358D01*
X348526D01*
X349541Y232630D01*
X350451Y233156D01*
X351195Y233899D01*
X351720Y234810D01*
X351992Y235825D01*
Y236876D01*
X351720Y237891D01*
X351195Y238802D01*
X350531Y239465D01*
X350643Y239966D01*
X355357D01*
X355469Y239465D01*
X354805Y238802D01*
X354280Y237891D01*
X354008Y236876D01*
Y235825D01*
X354280Y234810D01*
X354805Y233899D01*
X355549Y233156D01*
X356459Y232630D01*
X357474Y232358D01*
X358526D01*
X359541Y232630D01*
X360451Y233156D01*
X361194Y233899D01*
X361720Y234810D01*
X361992Y235825D01*
Y236876D01*
X361720Y237891D01*
X361194Y238802D01*
X360531Y239465D01*
X360643Y239966D01*
X365357D01*
X365469Y239465D01*
X364806Y238802D01*
X364280Y237891D01*
X364008Y236876D01*
Y235825D01*
X364280Y234810D01*
X364806Y233899D01*
X365549Y233156D01*
X366459Y232630D01*
X367474Y232358D01*
X368526D01*
X369541Y232630D01*
X370451Y233156D01*
X371195Y233899D01*
X371720Y234810D01*
X371992Y235825D01*
Y236876D01*
X371720Y237891D01*
X371195Y238802D01*
X370531Y239465D01*
X370643Y239966D01*
X375357D01*
X375469Y239465D01*
X374805Y238802D01*
X374280Y237891D01*
X374008Y236876D01*
Y235825D01*
X374280Y234810D01*
X374805Y233899D01*
X375549Y233156D01*
X376459Y232630D01*
X377474Y232358D01*
X378526D01*
X379541Y232630D01*
X380451Y233156D01*
X381194Y233899D01*
X381720Y234810D01*
X381992Y235825D01*
Y236876D01*
X381720Y237891D01*
X381194Y238802D01*
X380473Y239523D01*
X380476Y239635D01*
X380589Y240043D01*
X381044Y240103D01*
X382017Y240506D01*
X382853Y241147D01*
X385853Y244147D01*
X386494Y244983D01*
X386897Y245956D01*
X387035Y247000D01*
Y250000D01*
X386897Y251044D01*
X386494Y252017D01*
X385874Y252825D01*
Y254150D01*
X385549D01*
Y255737D01*
X386049Y255889D01*
X386135Y255761D01*
X386198Y255698D01*
X387024Y255145D01*
X388000Y254951D01*
X388976Y255145D01*
X389802Y255698D01*
X390355Y256524D01*
X390549Y257500D01*
X390486Y257817D01*
Y262000D01*
X390469Y262088D01*
X390786Y262474D01*
X391465D01*
Y262335D01*
X394996D01*
X395586Y262090D01*
X396500Y261970D01*
X397414Y262090D01*
X398004Y262335D01*
X401535D01*
Y268665D01*
X400030D01*
Y272791D01*
X399910Y273705D01*
X399567Y274533D01*
Y275661D01*
X398509D01*
X398265Y275849D01*
X397414Y276201D01*
X396500Y276322D01*
X395586Y276201D01*
X394735Y275849D01*
X394491Y275661D01*
X393433D01*
Y274533D01*
X393090Y273705D01*
X392970Y272791D01*
Y268665D01*
X391465D01*
Y268526D01*
X390050D01*
X390020Y268599D01*
Y272350D01*
X388592D01*
X388313Y272761D01*
X388326Y272850D01*
X388517Y273811D01*
Y276110D01*
X389235Y276827D01*
X391370D01*
Y282173D01*
X386549D01*
Y286944D01*
X387056Y287451D01*
X390500D01*
X391476Y287645D01*
X392302Y288198D01*
X392475Y288456D01*
X393302Y289283D01*
X393855Y290110D01*
X394049Y291086D01*
Y294944D01*
X402381Y303276D01*
X402934Y304103D01*
X403128Y305079D01*
Y305822D01*
X403465D01*
Y311342D01*
Y317303D01*
X403128D01*
Y317414D01*
X402934Y318390D01*
X402381Y319217D01*
X402263Y319335D01*
X402736Y319807D01*
X403054Y320284D01*
X405567D01*
Y325433D01*
X399433D01*
Y323888D01*
X399131Y323586D01*
X399122Y323572D01*
X398394D01*
X398143Y324072D01*
X398197Y324146D01*
X398583D01*
Y324897D01*
X398855Y325304D01*
X399049Y326279D01*
X398855Y327255D01*
X398583Y327662D01*
Y328311D01*
X397959D01*
X397476Y328635D01*
X396500Y328829D01*
X395002D01*
X394026Y328635D01*
X393199Y328082D01*
X391989Y326872D01*
X390921D01*
X390061Y326701D01*
X389813D01*
X388953Y326872D01*
X388093Y326701D01*
X387844D01*
X386984Y326872D01*
X386124Y326701D01*
X385876D01*
X385016Y326872D01*
X384156Y326701D01*
X383524D01*
Y326332D01*
X383213Y326125D01*
X382985D01*
X382571Y326497D01*
Y326701D01*
X381939D01*
X381079Y326872D01*
X380219Y326701D01*
X379587D01*
Y326332D01*
X379276Y326125D01*
X378724Y325298D01*
X378576Y324555D01*
X372446Y318424D01*
X371893Y317598D01*
X371699Y316622D01*
Y316016D01*
X371319D01*
Y300630D01*
X377177D01*
Y315946D01*
X380568Y319337D01*
X381030Y319146D01*
Y316016D01*
X380650D01*
Y310275D01*
X380455Y310021D01*
X380102Y309170D01*
X379982Y308256D01*
Y295000D01*
X380102Y294086D01*
X380455Y293235D01*
X380597Y293049D01*
X380483Y292549D01*
X369135D01*
X368160Y292355D01*
X367333Y291802D01*
X367079Y291549D01*
X352421D01*
X352153Y292049D01*
X352410Y292434D01*
X352557Y293169D01*
Y298878D01*
X352410Y299614D01*
X351993Y300238D01*
X351370Y300654D01*
X350634Y300801D01*
X349898Y300654D01*
X349354Y300291D01*
X348811Y300654D01*
X348075Y300801D01*
X347339Y300654D01*
X346795Y300291D01*
X346252Y300654D01*
X345516Y300801D01*
X344780Y300654D01*
X344236Y300291D01*
X343692Y300654D01*
X342957Y300801D01*
X342221Y300654D01*
X341597Y300238D01*
X341180Y299614D01*
X341034Y298878D01*
Y297767D01*
X340789Y297527D01*
X340260Y297664D01*
X340194Y297999D01*
X339761Y298646D01*
Y298878D01*
X339615Y299614D01*
X339198Y300238D01*
X338574Y300654D01*
X337839Y300801D01*
X337103Y300654D01*
X336559Y300291D01*
X336015Y300654D01*
X335279Y300801D01*
X335269Y300809D01*
Y303780D01*
X335075Y304755D01*
X334523Y305582D01*
X333302Y306802D01*
X332475Y307355D01*
X331500Y307549D01*
X330524Y307355D01*
X329698Y306802D01*
X329145Y305976D01*
X328951Y305000D01*
X329145Y304025D01*
X329698Y303198D01*
X330171Y302724D01*
Y300809D01*
X330161Y300801D01*
X329426Y300654D01*
X328802Y300238D01*
X328385Y299614D01*
X328239Y298878D01*
Y297904D01*
X328092Y297778D01*
X327592Y298007D01*
Y307457D01*
X327398Y308432D01*
X326846Y309259D01*
X317379Y318726D01*
X317572Y319240D01*
X318102Y319346D01*
X318646Y319709D01*
X319189Y319346D01*
X319925Y319199D01*
X320661Y319346D01*
X321205Y319709D01*
X321748Y319346D01*
X322484Y319199D01*
X323220Y319346D01*
X323764Y319709D01*
X324307Y319346D01*
X325043Y319199D01*
X325779Y319346D01*
X326403Y319762D01*
X326820Y320386D01*
X326966Y321122D01*
Y323233D01*
X327211Y323473D01*
X327740Y323336D01*
X327806Y323001D01*
X328239Y322354D01*
Y321122D01*
X328385Y320386D01*
X328802Y319762D01*
X329426Y319346D01*
X330161Y319199D01*
X330897Y319346D01*
X331441Y319709D01*
X331985Y319346D01*
X332720Y319199D01*
X333456Y319346D01*
X334000Y319709D01*
X334544Y319346D01*
X335279Y319199D01*
X336015Y319346D01*
X336559Y319709D01*
X337103Y319346D01*
X337839Y319199D01*
X338574Y319346D01*
X339198Y319762D01*
X339615Y320386D01*
X339761Y321122D01*
Y322096D01*
X339908Y322222D01*
X340408Y321993D01*
Y317743D01*
X340602Y316768D01*
X341154Y315941D01*
X341740Y315355D01*
X342567Y314803D01*
X343543Y314609D01*
X355532D01*
Y314484D01*
X361469D01*
Y319831D01*
X361049D01*
Y322000D01*
X360864Y322931D01*
X360880Y323057D01*
X361081Y323431D01*
X362615D01*
Y329219D01*
X356934D01*
Y328874D01*
X352983D01*
X352007Y328680D01*
X351634Y328431D01*
X351370Y328607D01*
X350634Y328753D01*
X349898Y328607D01*
X349354Y328244D01*
X348811Y328607D01*
X348075Y328753D01*
X347339Y328607D01*
X346795Y328244D01*
X346252Y328607D01*
X345516Y328753D01*
X344780Y328607D01*
X344236Y328244D01*
X343692Y328607D01*
X342957Y328753D01*
X342221Y328607D01*
X341597Y328190D01*
X341180Y327567D01*
X341034Y326831D01*
Y325857D01*
X340888Y325731D01*
X340388Y325959D01*
Y330106D01*
X345708D01*
Y335894D01*
X345266D01*
X344870Y336146D01*
Y343854D01*
X339130D01*
Y343087D01*
X338574D01*
X338244Y343462D01*
X338274Y343687D01*
Y348138D01*
X338988D01*
Y354862D01*
X338557D01*
Y359083D01*
X338363Y360058D01*
X337810Y360885D01*
X337598Y361027D01*
Y361756D01*
D02*
G37*
G36*
X270114Y328272D02*
X265161D01*
Y322728D01*
X270114D01*
Y328272D01*
D02*
G37*
G36*
X406650Y287567D02*
X398350D01*
Y281433D01*
X406650D01*
Y287567D01*
D02*
G37*
G36*
X279275Y280425D02*
X278016Y280425D01*
X277235Y280270D01*
X276574Y279828D01*
X276132Y279166D01*
X275977Y278386D01*
Y276614D01*
X276132Y275834D01*
X276268Y275630D01*
X276132Y275426D01*
X275977Y274646D01*
Y273017D01*
X275592Y272920D01*
X275295Y273200D01*
Y273226D01*
X274866D01*
X274517Y273494D01*
X273544Y273897D01*
X272500Y274035D01*
X268500D01*
X267456Y273897D01*
X266483Y273494D01*
X265647Y272853D01*
X265647Y272853D01*
X260147Y267353D01*
X259506Y266517D01*
X259103Y265544D01*
X258965Y264500D01*
X258965Y264500D01*
Y244000D01*
X258965Y244000D01*
X259103Y242956D01*
X259506Y241983D01*
X260147Y241147D01*
X267797Y233498D01*
X268632Y232856D01*
X269605Y232453D01*
X270650Y232316D01*
X270650Y232316D01*
X286471D01*
X286504Y232310D01*
X289496D01*
X290470Y232503D01*
X291296Y233055D01*
X291847Y233880D01*
X292041Y234855D01*
Y237847D01*
X291847Y238821D01*
X291296Y239646D01*
X290470Y240198D01*
X289496Y240391D01*
X286504D01*
X286471Y240385D01*
X272321D01*
X267035Y245671D01*
Y262829D01*
X270171Y265966D01*
X272500D01*
X273544Y266103D01*
X274517Y266506D01*
X274866Y266774D01*
X275295D01*
Y267103D01*
X275353Y267147D01*
X275601Y267471D01*
X276905D01*
X277235Y267250D01*
X278016Y267095D01*
X279098D01*
X279098Y267095D01*
X279275D01*
X280055Y267250D01*
X280381Y267385D01*
X280381Y267385D01*
X280381Y267385D01*
X280713Y267607D01*
X281042Y267827D01*
X281042Y267827D01*
X281042Y267827D01*
X281291Y268076D01*
X281733Y268738D01*
X281733Y268738D01*
X281868Y269063D01*
X282023Y269844D01*
Y270196D01*
X281868Y270976D01*
X281733Y271302D01*
X281465Y271704D01*
Y272076D01*
X281733Y272478D01*
X281733Y272478D01*
X281868Y272803D01*
X282023Y273584D01*
Y273936D01*
X281868Y274716D01*
X281733Y275042D01*
X281341Y275630D01*
X281733Y276218D01*
X281733Y276218D01*
X281868Y276543D01*
X282023Y277324D01*
Y277676D01*
X281868Y278457D01*
X281733Y278782D01*
X281291Y279444D01*
X281042Y279693D01*
X280381Y280135D01*
X280381Y280135D01*
X280055Y280270D01*
X279275Y280425D01*
D02*
G37*
G36*
X298526Y240343D02*
X297474D01*
X296459Y240071D01*
X295549Y239545D01*
X294806Y238802D01*
X294280Y237891D01*
X294008Y236876D01*
Y235825D01*
X294280Y234810D01*
X294806Y233899D01*
X295549Y233156D01*
X296459Y232630D01*
X297474Y232358D01*
X298526D01*
X299541Y232630D01*
X300451Y233156D01*
X301195Y233899D01*
X301720Y234810D01*
X301992Y235825D01*
Y236876D01*
X301720Y237891D01*
X301195Y238802D01*
X300451Y239545D01*
X299541Y240071D01*
X298526Y240343D01*
D02*
G37*
%LPD*%
G36*
X386500Y346504D02*
X386493Y346500D01*
X375418D01*
Y347374D01*
X369653D01*
Y346500D01*
X357000D01*
Y426500D01*
X386500D01*
Y346504D01*
D02*
G37*
G36*
X305000Y346500D02*
X275500D01*
Y426500D01*
X305000D01*
Y346500D01*
D02*
G37*
G36*
X314817Y326566D02*
Y324976D01*
X315011Y324001D01*
X315443Y323354D01*
Y321122D01*
X315460Y321040D01*
X315011Y320734D01*
X314142Y320907D01*
X309331D01*
Y326468D01*
X309331D01*
X309373Y326951D01*
X314432D01*
X314817Y326566D01*
D02*
G37*
G36*
X303984Y326468D02*
X303984D01*
Y320907D01*
X297650D01*
X296674Y320713D01*
X296002Y320264D01*
X295522Y320466D01*
X295502Y320485D01*
Y323397D01*
X299056Y326951D01*
X303942D01*
X303984Y326468D01*
D02*
G37*
G36*
X314817Y302720D02*
Y297024D01*
X315011Y296048D01*
X315443Y295401D01*
Y293169D01*
X315590Y292434D01*
X316006Y291810D01*
X316630Y291393D01*
X317366Y291247D01*
X318102Y291393D01*
X318646Y291756D01*
X319189Y291393D01*
X319925Y291247D01*
X320661Y291393D01*
X321205Y291756D01*
X321748Y291393D01*
X322484Y291247D01*
X323220Y291393D01*
X323764Y291756D01*
X324307Y291393D01*
X325043Y291247D01*
X325779Y291393D01*
X326403Y291810D01*
X326820Y292434D01*
X326966Y293169D01*
Y295143D01*
X327112Y295269D01*
X327612Y295041D01*
Y291704D01*
X326187Y290278D01*
X325646Y289469D01*
X320984D01*
Y283531D01*
X320984D01*
X320942Y283049D01*
X306774D01*
X306639Y283228D01*
X306888Y283728D01*
X310614D01*
Y289272D01*
X305661D01*
Y284597D01*
X305200Y284405D01*
X297049Y292556D01*
Y296500D01*
X296855Y297476D01*
X296737Y297652D01*
X296973Y298093D01*
X297650D01*
X298625Y298287D01*
X299452Y298839D01*
X299621Y299092D01*
X301450D01*
Y301060D01*
Y305292D01*
X301912Y305483D01*
X303198Y304198D01*
X304025Y303645D01*
X305000Y303451D01*
X305976Y303645D01*
X306802Y304198D01*
X307355Y305025D01*
X307459Y305549D01*
X308000Y305951D01*
X308976Y306145D01*
X309802Y306698D01*
X309999Y306992D01*
X310496Y307041D01*
X314817Y302720D01*
D02*
G37*
G36*
X389128Y313798D02*
X389390Y313407D01*
X389692Y313104D01*
Y310842D01*
Y305322D01*
X389951D01*
Y303000D01*
X390145Y302025D01*
X390698Y301198D01*
X391525Y300645D01*
X391852Y300580D01*
X391997Y300101D01*
X389698Y297802D01*
X389145Y296975D01*
X388951Y296000D01*
Y292549D01*
X386540D01*
X386426Y293049D01*
X386569Y293235D01*
X386922Y294086D01*
X387042Y295000D01*
Y308256D01*
X386922Y309170D01*
X386569Y310021D01*
X386508Y310101D01*
Y315712D01*
X387008Y315919D01*
X389128Y313798D01*
D02*
G37*
G36*
X273135Y305045D02*
X273138Y304935D01*
X272951Y303993D01*
Y297500D01*
X273145Y296525D01*
X273698Y295698D01*
X276198Y293198D01*
X277025Y292645D01*
X277792Y292492D01*
X277743Y291992D01*
X270464D01*
Y291549D01*
X269240D01*
Y291809D01*
X269046Y292784D01*
X268494Y293611D01*
X266549Y295556D01*
Y300484D01*
X271468D01*
Y305364D01*
X271540Y305435D01*
X272927D01*
X273135Y305045D01*
D02*
G37*
G36*
X381451Y286272D02*
X381157Y285894D01*
X374661D01*
X374449Y286057D01*
X373597Y286410D01*
X372684Y286530D01*
X371770Y286410D01*
X370918Y286057D01*
X370706Y285894D01*
X369843D01*
Y285047D01*
X369626Y284765D01*
X369274Y283914D01*
X369153Y283000D01*
Y274577D01*
X369274Y273663D01*
X369626Y272812D01*
X369223Y272531D01*
X369140Y272640D01*
X368513Y273120D01*
X367783Y273423D01*
X367000Y273526D01*
X366217Y273423D01*
X365487Y273120D01*
X364860Y272640D01*
X364380Y272013D01*
X364077Y271283D01*
X363974Y270500D01*
Y265091D01*
X362845D01*
Y260991D01*
X353961D01*
Y265961D01*
X353049D01*
Y283000D01*
X352855Y283976D01*
X352302Y284802D01*
X351154Y285951D01*
X351361Y286451D01*
X368135D01*
X369111Y286645D01*
X369938Y287198D01*
X370191Y287451D01*
X381451D01*
Y286272D01*
D02*
G37*
G36*
X290220Y272874D02*
X288962D01*
X288636Y273009D01*
X288387Y273258D01*
X288252Y273584D01*
Y273760D01*
Y273936D01*
X288387Y274262D01*
X288636Y274511D01*
X288962Y274646D01*
X290220D01*
Y272874D01*
D02*
G37*
G36*
Y269134D02*
X289138Y269134D01*
X288962D01*
X288636Y269269D01*
X288387Y269518D01*
X288252Y269844D01*
Y270020D01*
Y270196D01*
X288387Y270521D01*
X288636Y270771D01*
X288962Y270905D01*
X290220D01*
Y269134D01*
D02*
G37*
G36*
X279600Y278251D02*
X279849Y278002D01*
X279984Y277676D01*
Y277500D01*
Y277324D01*
X279849Y276998D01*
X279600Y276749D01*
X279275Y276614D01*
X278016D01*
Y278386D01*
X279098Y278386D01*
X279275D01*
X279600Y278251D01*
D02*
G37*
G36*
Y274511D02*
X279849Y274262D01*
X279984Y273936D01*
Y273760D01*
Y273584D01*
X279849Y273258D01*
X279600Y273009D01*
X279275Y272874D01*
X278016D01*
Y274646D01*
X279275D01*
X279600Y274511D01*
D02*
G37*
G36*
Y270771D02*
X279849Y270521D01*
X279984Y270196D01*
Y270020D01*
Y269844D01*
X279849Y269518D01*
X279600Y269269D01*
X279275Y269134D01*
X279098D01*
Y269134D01*
X278016D01*
Y270905D01*
X279275D01*
X279600Y270771D01*
D02*
G37*
D17*
X405000Y360748D02*
D03*
Y354252D02*
D03*
D18*
X404862Y348111D02*
D03*
X400122D02*
D03*
D19*
X359775Y326325D02*
D03*
X365408D02*
D03*
X342867Y333000D02*
D03*
X348500D02*
D03*
X372684Y283000D02*
D03*
X378316D02*
D03*
D20*
X349677Y340000D02*
D03*
X342000D02*
D03*
D21*
X301343Y323500D02*
D03*
X306658D02*
D03*
X318342Y286500D02*
D03*
X323657D02*
D03*
D22*
X342000Y280185D02*
D03*
Y285500D02*
D03*
X358500Y311842D02*
D03*
Y317158D02*
D03*
X268500Y297843D02*
D03*
Y303157D02*
D03*
D23*
X308138Y286500D02*
D03*
X312862D02*
D03*
X272362Y325500D02*
D03*
X267638D02*
D03*
D24*
X317366Y296024D02*
D03*
X319925D02*
D03*
X322484D02*
D03*
X325043D02*
D03*
X327602D02*
D03*
X330161D02*
D03*
X332720D02*
D03*
X335279D02*
D03*
X337839D02*
D03*
X340398D02*
D03*
X342957D02*
D03*
X345516D02*
D03*
X348075D02*
D03*
X350634D02*
D03*
X317366Y323976D02*
D03*
X319925D02*
D03*
X322484D02*
D03*
X325043D02*
D03*
X327602D02*
D03*
X330161D02*
D03*
X332720D02*
D03*
X335279D02*
D03*
X337839D02*
D03*
X340398D02*
D03*
X342957D02*
D03*
X345516D02*
D03*
X348075D02*
D03*
X350634D02*
D03*
D25*
X289236Y270020D02*
D03*
X289321Y273760D02*
D03*
Y277500D02*
D03*
X279000D02*
D03*
X278916Y273760D02*
D03*
Y270020D02*
D03*
D26*
X284118Y273760D02*
D03*
D27*
X308169Y268850D02*
D03*
X316831D02*
D03*
Y275150D02*
D03*
X308169D02*
D03*
D28*
X297650Y318358D02*
D03*
Y316390D02*
D03*
Y314421D02*
D03*
Y312453D02*
D03*
Y310484D02*
D03*
Y308516D02*
D03*
Y306547D02*
D03*
Y304579D02*
D03*
Y302610D02*
D03*
Y300642D02*
D03*
X280350D02*
D03*
Y302610D02*
D03*
Y304579D02*
D03*
Y306547D02*
D03*
Y308516D02*
D03*
Y310484D02*
D03*
Y312453D02*
D03*
Y314421D02*
D03*
Y316390D02*
D03*
Y318358D02*
D03*
D29*
X386000Y330031D02*
D03*
D30*
X390921Y335740D02*
D03*
X388953D02*
D03*
X386984D02*
D03*
X385016D02*
D03*
X383047D02*
D03*
X381079D02*
D03*
X390921Y324323D02*
D03*
X388953D02*
D03*
X386984D02*
D03*
X385016D02*
D03*
X383047D02*
D03*
X381079D02*
D03*
D31*
X366080Y262000D02*
D03*
X372500D02*
D03*
D32*
X272500Y270000D02*
D03*
Y264956D02*
D03*
D33*
X296000Y264244D02*
D03*
Y269756D02*
D03*
D34*
X396500Y265500D02*
D03*
Y252508D02*
D03*
D35*
X364465Y336000D02*
D03*
X372535D02*
D03*
Y344000D02*
D03*
X364465D02*
D03*
D36*
X266492Y391500D02*
D03*
X290508D02*
D03*
X400508Y412500D02*
D03*
X376492D02*
D03*
X400508Y393000D02*
D03*
X376492D02*
D03*
X266492Y371000D02*
D03*
X290508D02*
D03*
X400508Y373500D02*
D03*
X376492D02*
D03*
X266492Y412500D02*
D03*
X290508D02*
D03*
D37*
X336008Y364791D02*
D03*
D38*
X330299Y362784D02*
D03*
Y364791D02*
D03*
Y366799D02*
D03*
X341717D02*
D03*
Y364791D02*
D03*
Y362784D02*
D03*
D39*
X334000Y370500D02*
D03*
X336008D02*
D03*
X338016D02*
D03*
Y359083D02*
D03*
X336008D02*
D03*
X334000D02*
D03*
D40*
X387937Y273811D02*
D03*
X385968D02*
D03*
X384000D02*
D03*
X382031D02*
D03*
X380063D02*
D03*
Y262000D02*
D03*
X382031D02*
D03*
X384000D02*
D03*
X385968D02*
D03*
X387937D02*
D03*
D41*
X384000Y267905D02*
D03*
D42*
X353850Y352000D02*
D03*
X349150D02*
D03*
D43*
X336000Y391760D02*
D03*
Y386240D02*
D03*
X373000Y268740D02*
D03*
Y274260D02*
D03*
X400579Y314323D02*
D03*
Y308803D02*
D03*
X392579Y308302D02*
D03*
Y313823D02*
D03*
D44*
X405272Y341500D02*
D03*
X401728D02*
D03*
D45*
X396500Y329772D02*
D03*
Y326228D02*
D03*
D46*
X392500Y348953D02*
D03*
Y343047D02*
D03*
D47*
X273744Y289000D02*
D03*
X280256D02*
D03*
D48*
X315000Y433839D02*
D03*
Y439161D02*
D03*
X347000Y433339D02*
D03*
Y438661D02*
D03*
D49*
X343500Y351500D02*
D03*
X336413D02*
D03*
X322913Y377000D02*
D03*
X330000D02*
D03*
D50*
X333661Y423500D02*
D03*
X328339D02*
D03*
D51*
X326000Y399748D02*
D03*
X336000D02*
D03*
Y413252D02*
D03*
X331000D02*
D03*
X326000D02*
D03*
D52*
X383579Y308323D02*
D03*
X374248D02*
D03*
D53*
X326965Y351000D02*
D03*
X330035D02*
D03*
X341500Y375500D02*
D03*
X344571D02*
D03*
D54*
X336000Y379187D02*
D03*
Y375813D02*
D03*
X335500Y340313D02*
D03*
Y343687D02*
D03*
D55*
X322687Y371000D02*
D03*
X319313D02*
D03*
X324187Y363000D02*
D03*
X320813D02*
D03*
X322375Y383000D02*
D03*
X319000D02*
D03*
D56*
X388500Y279500D02*
D03*
Y284815D02*
D03*
D57*
X371193Y250000D02*
D03*
X382807D02*
D03*
D58*
X402500Y296114D02*
D03*
Y284500D02*
D03*
D59*
X396500Y272791D02*
D03*
Y278500D02*
D03*
D60*
X402500Y330142D02*
D03*
Y322858D02*
D03*
D61*
X405000Y337500D02*
D03*
X401850D02*
D03*
D62*
X398079Y341103D02*
D03*
Y337823D02*
D03*
D63*
X372488Y295000D02*
D03*
X383512D02*
D03*
D64*
X346500Y446500D02*
D03*
X315000Y447000D02*
D03*
D89*
X386865Y266635D02*
Y268986D01*
X385595Y267905D02*
X387000Y266500D01*
X386865Y266635D02*
X387000Y266500D01*
X386865Y268986D02*
X386910Y269031D01*
X268795Y297843D02*
X272500Y301547D01*
X268500Y297843D02*
X268795D01*
X272500Y301547D02*
Y303249D01*
X275799Y306547D01*
X280350D01*
X272500Y307984D02*
X272758Y308242D01*
X270484Y307984D02*
X274549D01*
X275081Y308516D01*
X280350D01*
X342000Y288729D02*
X342957Y289686D01*
Y289957D01*
X342000Y285500D02*
Y288729D01*
X385016Y331016D02*
X386000Y330031D01*
X385016Y331016D02*
Y335740D01*
X383047Y327185D02*
X385894Y330031D01*
X386000D01*
X383047Y324323D02*
Y327185D01*
X308051Y275031D02*
X308169Y275150D01*
X307500Y275031D02*
X308051D01*
X390500Y290000D02*
Y290086D01*
X391500Y291086D02*
Y296000D01*
X400579Y305079D01*
X390500Y290086D02*
X391500Y291086D01*
X400579Y305079D02*
Y308803D01*
X404862Y348111D02*
Y354158D01*
X294500Y291500D02*
Y296500D01*
Y291500D02*
X305500Y280500D01*
X288084Y296416D02*
X291000Y293500D01*
X285358Y300642D02*
X288084Y297917D01*
Y296416D02*
Y297917D01*
X285000Y295000D02*
X297242Y282758D01*
X278000Y295000D02*
X285000D01*
X297242Y276136D02*
Y282758D01*
X368135Y289000D02*
X369135Y290000D01*
X386000D01*
X351000Y289000D02*
X368135D01*
X386000Y290000D02*
X390500D01*
X384000Y288000D02*
X386000Y290000D01*
X384000Y273811D02*
Y288000D01*
X381027Y281606D02*
X382031Y280602D01*
Y273811D02*
Y280602D01*
X280350Y300642D02*
X285358D01*
X275500Y297500D02*
X278000Y295000D01*
X382414Y260925D02*
X383000Y260339D01*
Y251500D02*
Y260339D01*
Y250000D02*
Y251500D01*
X382031Y261016D02*
X382122Y260925D01*
X382031Y261016D02*
Y262000D01*
X382122Y260925D02*
X382414D01*
X382807Y250000D02*
X383000D01*
X387937Y257563D02*
X388000Y257500D01*
X387937Y257563D02*
Y262000D01*
X386984Y343414D02*
X388000Y344430D01*
Y344500D01*
X386984Y335740D02*
Y343414D01*
X367000Y262715D02*
X367715Y262000D01*
X379633Y282947D02*
X380974Y281606D01*
X381027D01*
X379633Y282947D02*
Y283000D01*
X297242Y276136D02*
X303877Y269501D01*
X275500Y297500D02*
Y303993D01*
X276086Y304579D02*
X280350D01*
X275500Y303993D02*
X276086Y304579D01*
X268500Y306000D02*
X270484Y307984D01*
X268500Y304240D02*
Y306000D01*
X264000Y314000D02*
Y316500D01*
X266500Y319000D01*
X264000Y306500D02*
X267984Y310484D01*
X264000Y294500D02*
Y306500D01*
X267984Y310484D02*
X280350D01*
X264000Y294500D02*
X266500Y292000D01*
X266691Y291809D01*
X266500Y319000D02*
X276589D01*
X267500Y316000D02*
X273103D01*
X274250Y317147D01*
X273608Y312147D02*
X276853D01*
X272771Y312984D02*
X273608Y312147D01*
X272500Y312984D02*
X272771D01*
X276853Y312147D02*
X277110Y312403D01*
X280300D01*
X275285Y314647D02*
X275556D01*
X280300Y312403D02*
X280350Y312453D01*
X275556Y314647D02*
X275781Y314421D01*
X277028Y316440D02*
X280300D01*
X277181Y318408D02*
X280300D01*
X276321Y317147D02*
X277028Y316440D01*
X275781Y314421D02*
X280350D01*
X274250Y317147D02*
X276321D01*
X280300Y318408D02*
X280350Y318358D01*
X276589Y319000D02*
X277181Y318408D01*
X280300Y316440D02*
X280350Y316390D01*
X352983Y326325D02*
X359775D01*
X350634Y323976D02*
X352983Y326325D01*
X348075Y323976D02*
X350634D01*
X405272Y341500D02*
X405524Y341752D01*
X335279Y340092D02*
X335500Y340313D01*
X341687D02*
X342000Y340000D01*
X272500Y270020D02*
X278916D01*
Y273760D01*
X272500Y270000D02*
Y270020D01*
X326000Y338500D02*
X332720Y331780D01*
X328500Y332000D02*
X330161Y330339D01*
X293500Y338500D02*
X326000D01*
X330161Y323976D02*
Y330339D01*
X332720Y324976D02*
Y331780D01*
X321000Y335500D02*
X325043Y331457D01*
Y324976D02*
Y331457D01*
X322484Y324976D02*
Y331016D01*
X320000Y333500D02*
X322484Y331016D01*
X327989Y288475D02*
X330161Y290648D01*
Y296024D01*
X326150Y275150D02*
X337839Y286839D01*
X316831Y275150D02*
X326150D01*
X343500Y351500D02*
X344000Y352000D01*
X371943Y337057D02*
X373260Y335740D01*
X381079D01*
X392500Y308224D02*
X392579Y308302D01*
X392500Y303000D02*
Y308224D01*
X390309Y339809D02*
X390809D01*
X388953Y338453D02*
X390309Y339809D01*
X391000Y340000D02*
Y340271D01*
X391981Y341252D01*
Y343252D01*
X390809Y339809D02*
X391000Y340000D01*
X391721Y343252D02*
X391981D01*
X388953Y335740D02*
Y338453D01*
X391721Y343252D02*
X392500Y344032D01*
X396128Y335740D02*
X398079Y337691D01*
X390921Y335740D02*
X396128D01*
X398079Y337691D02*
Y337823D01*
X391500Y318000D02*
X399993D01*
X388953Y324323D02*
X388961Y324315D01*
X386984Y322516D02*
X391500Y318000D01*
X388961Y322999D02*
Y324315D01*
X400933Y321609D02*
Y321783D01*
X402008Y322858D01*
X399993Y318000D02*
X400579Y317414D01*
X388961Y322999D02*
X390936Y321024D01*
X402008Y322858D02*
X402500D01*
X400347Y321024D02*
X400933Y321609D01*
X386984Y322516D02*
Y324323D01*
X390936Y321024D02*
X400347D01*
X400579Y314323D02*
Y317414D01*
X266691Y290051D02*
X267743Y289000D01*
X266691Y290051D02*
Y291809D01*
X267743Y289000D02*
X273744D01*
X303877Y269501D02*
X309019D01*
X305500Y280500D02*
X326500D01*
X337839Y323976D02*
Y331339D01*
X339500Y333000D01*
X342867D01*
X358500Y317158D02*
Y322000D01*
X342957Y317743D02*
X343543Y317158D01*
X342957Y317743D02*
Y323976D01*
X343543Y317158D02*
X358500D01*
X326500Y280500D02*
X335279Y289280D01*
X291996Y273760D02*
X296000Y269756D01*
X292830D02*
X296000D01*
X289661D02*
X292830D01*
X345516Y287984D02*
Y296024D01*
X350500Y262357D02*
Y283000D01*
X345516Y287984D02*
X350500Y283000D01*
X284500Y329500D02*
X293500Y338500D01*
X380063Y262000D02*
X382031D01*
X384000D01*
X385968D01*
X387937D01*
X385968Y273811D02*
Y277165D01*
X388303Y279500D02*
X388500D01*
X385968Y277165D02*
X388303Y279500D01*
X383579Y320079D02*
X385016Y321516D01*
X383579Y308323D02*
Y320079D01*
X374248Y308323D02*
Y316622D01*
X381079Y323453D02*
Y324323D01*
X374248Y316622D02*
X381079Y323453D01*
X381263Y342146D02*
X383047Y340362D01*
X398259Y341283D02*
X401728D01*
X398079Y337823D02*
X402102D01*
X402138Y337787D01*
X395002Y326279D02*
X396500D01*
X398079Y341103D02*
X398259Y341283D01*
X383047Y335740D02*
Y340362D01*
X393045Y324323D02*
X395002Y326279D01*
X390921Y324323D02*
X393045D01*
X385016Y321516D02*
X391193Y315339D01*
Y315209D02*
X392579Y313823D01*
X391193Y315209D02*
Y315339D01*
X385016Y321516D02*
Y324323D01*
X328152Y423687D02*
X328339Y423500D01*
Y423103D02*
Y423500D01*
X333661Y423103D02*
Y423500D01*
X322375Y377539D02*
X322913Y377000D01*
X322687Y376774D02*
X322913Y377000D01*
X330000Y376888D02*
X331075Y375813D01*
X330000Y376888D02*
Y377000D01*
X336000Y375813D02*
X336004Y375809D01*
X336156Y375656D01*
X341344D02*
X341500Y375500D01*
X336004Y370504D02*
Y375809D01*
Y370504D02*
X336008Y370500D01*
X324187Y363000D02*
X324404Y362784D01*
X330299D01*
X336008Y351905D02*
Y359083D01*
Y351905D02*
X336413Y351500D01*
X330035Y351000D02*
X330122Y350913D01*
X342957Y323976D02*
X342978Y323998D01*
X289321Y273760D02*
X291996D01*
X289397Y270020D02*
X289661Y269756D01*
X289236Y270020D02*
X289397D01*
X342957Y289957D02*
Y296024D01*
X290500Y325500D02*
X296500Y331500D01*
X290500Y306000D02*
Y325500D01*
X291890Y304610D02*
X291921D01*
X290500Y306000D02*
X291890Y304610D01*
X288500Y327000D02*
X295000Y333500D01*
X288500Y304500D02*
Y327000D01*
Y304500D02*
X290358Y302642D01*
X290390D01*
X289530Y300642D02*
X297650D01*
X286500Y303672D02*
Y328500D01*
Y303672D02*
X289530Y300642D01*
X286500Y328500D02*
X293500Y335500D01*
X284500Y303146D02*
Y329500D01*
X282600Y302610D02*
X282650Y302560D01*
X283914D02*
X284500Y303146D01*
X282650Y302560D02*
X283914D01*
X280350Y302610D02*
X282600D01*
X319837Y297112D02*
X319925Y297024D01*
X297650Y318358D02*
X314142D01*
X325043Y307457D01*
Y297024D02*
Y307457D01*
X297650Y316390D02*
X312110D01*
X322484Y306016D01*
Y297024D02*
Y306016D01*
X310303Y314421D02*
X319837Y304888D01*
X297650Y314421D02*
X310303D01*
X319837Y297112D02*
Y304888D01*
X297650Y312453D02*
X308689D01*
X317366Y297024D02*
Y303776D01*
X308689Y312453D02*
X317366Y303776D01*
X296500Y331500D02*
X318500D01*
X319925Y330075D01*
Y324976D02*
Y330075D01*
X291921Y304579D02*
X297650D01*
X295000Y333500D02*
X320000D01*
X293500Y335500D02*
X321000D01*
X317366Y324976D02*
Y327622D01*
X290390Y302610D02*
X297650D01*
X292953Y307133D02*
Y324453D01*
Y307133D02*
X293538Y306547D01*
X297650D01*
X298000Y329500D02*
X315488D01*
X317366Y327622D01*
X292953Y324453D02*
X298000Y329500D01*
X332720Y297024D02*
Y303780D01*
X331500Y305000D02*
X332720Y303780D01*
X337839Y286839D02*
Y297024D01*
X335279Y289280D02*
Y297024D01*
X297650Y308516D02*
X302484D01*
X305000Y306000D01*
X297650Y310484D02*
X306016D01*
X308000Y308500D01*
D90*
X388020Y265500D02*
X396500D01*
X387374Y266145D02*
Y267145D01*
X385595Y267905D02*
X386355Y267145D01*
X387374Y266145D02*
X388020Y265500D01*
X384000Y267905D02*
X385595D01*
X386355Y267145D02*
X387374D01*
X280256Y289000D02*
X286500D01*
X367000Y262715D02*
Y270500D01*
X333661Y423103D02*
X336000Y420764D01*
X326000Y420764D02*
X328339Y423103D01*
X322375Y377539D02*
Y383000D01*
X322687Y371000D02*
Y376774D01*
X336000Y391760D02*
Y399748D01*
X331075Y375813D02*
X336000D01*
X336156Y375656D02*
X341344D01*
D91*
X380740Y268740D02*
X381000Y269000D01*
X382906D01*
X373000Y268740D02*
X380740D01*
X382906Y269000D02*
X384000Y267905D01*
X374500Y371500D02*
X378500D01*
X364465Y359465D02*
X375500Y370500D01*
X378500Y370508D02*
X381263Y367744D01*
Y354000D02*
Y367744D01*
X378500Y370508D02*
Y371500D01*
X364465Y344000D02*
Y359465D01*
Y336000D02*
Y344000D01*
X377496Y374996D02*
X378500Y376000D01*
X371766Y261409D02*
X372357Y262000D01*
X370008Y257461D02*
X371766Y259218D01*
X338445Y257461D02*
X370008D01*
X371766Y259218D02*
Y261409D01*
X372357Y262000D02*
X372500D01*
X338445Y257461D02*
X338445Y257461D01*
X322104Y257461D02*
X338445D01*
X308000Y243356D02*
X322104Y257461D01*
X372684Y274577D02*
X373000Y274260D01*
X308000Y236350D02*
Y243356D01*
X372684Y274577D02*
Y283000D01*
X373000Y262500D02*
Y268740D01*
X372500Y262000D02*
X373000Y262500D01*
X381263Y342146D02*
Y354000D01*
X397500D01*
X400122Y351378D01*
Y348111D02*
Y351378D01*
X383512Y295000D02*
Y308256D01*
X396500Y265500D02*
Y272791D01*
X336000Y413252D02*
Y420764D01*
X326000Y413252D02*
Y420764D01*
X336000Y379187D02*
Y386240D01*
D92*
X376492Y393000D02*
Y412500D01*
X290508Y391500D02*
Y412500D01*
X376000Y378500D02*
Y391291D01*
X290508Y371000D02*
Y391500D01*
X375768Y391291D02*
X376000D01*
D93*
X383000Y247000D02*
Y250000D01*
X380000Y244000D02*
X383000Y247000D01*
X320500Y244000D02*
X380000D01*
X318000Y241500D02*
X320500Y244000D01*
X318000Y236350D02*
Y241500D01*
X270650Y236350D02*
X288000D01*
X263000Y244000D02*
X270650Y236350D01*
X312500Y377000D02*
X322913D01*
X315000Y427500D02*
X318813Y423687D01*
X315000Y427500D02*
Y433839D01*
X318813Y423687D02*
X328152D01*
X347000Y427000D02*
Y433339D01*
X343500Y423500D02*
X347000Y427000D01*
X333661Y423500D02*
X343500D01*
X268500Y270000D02*
X272500D01*
X263000Y264500D02*
X268500Y270000D01*
X263000Y244000D02*
Y264500D01*
D94*
X335279Y323976D02*
Y340092D01*
D95*
X335500Y340313D02*
X341687D01*
X344000Y352000D02*
X349150D01*
X330122Y350913D02*
X335500D01*
Y343687D02*
Y350913D01*
D96*
X350500Y262500D02*
D03*
D97*
X340500Y252500D02*
D03*
X330500Y262500D02*
D03*
D98*
X358000Y236350D02*
D03*
X338000D02*
D03*
X298000D02*
D03*
X308000D02*
D03*
X318000D02*
D03*
X328000D02*
D03*
X348000D02*
D03*
X368000D02*
D03*
X378000D02*
D03*
D99*
X288000D02*
D03*
D100*
X387000Y266500D02*
D03*
X381000Y269000D02*
D03*
X386910Y269031D02*
D03*
X380865Y266500D02*
D03*
X268421Y297932D02*
D03*
X272500Y307984D02*
D03*
X397500Y354000D02*
D03*
X402500Y284500D02*
D03*
X344500Y271000D02*
D03*
X340500Y274500D02*
D03*
X337000Y278000D02*
D03*
X316000Y286500D02*
D03*
X302000Y294500D02*
D03*
Y290000D02*
D03*
X289500Y282500D02*
D03*
X285500D02*
D03*
X272500Y294500D02*
D03*
X273000Y260000D02*
D03*
X308169Y275150D02*
D03*
X323657Y286500D02*
D03*
X309474Y300401D02*
D03*
X309214Y294558D02*
D03*
X392500Y349000D02*
D03*
X314000Y362500D02*
D03*
Y367000D02*
D03*
Y371000D02*
D03*
Y388500D02*
D03*
X319000D02*
D03*
X314000Y383500D02*
D03*
X318500Y411000D02*
D03*
Y405500D02*
D03*
Y400500D02*
D03*
Y396000D02*
D03*
X324000D02*
D03*
X330000Y406570D02*
D03*
Y401000D02*
D03*
Y396070D02*
D03*
Y391070D02*
D03*
Y387070D02*
D03*
Y382570D02*
D03*
X342000Y412070D02*
D03*
Y406570D02*
D03*
Y401070D02*
D03*
Y396070D02*
D03*
Y391070D02*
D03*
Y385570D02*
D03*
Y381070D02*
D03*
X347500Y375500D02*
D03*
X342000Y371000D02*
D03*
X347500Y366570D02*
D03*
Y362070D02*
D03*
X342000Y358070D02*
D03*
X329500Y355570D02*
D03*
X319000Y377000D02*
D03*
X316000D02*
D03*
X348678Y332671D02*
D03*
X349677Y340000D02*
D03*
X301343Y323500D02*
D03*
X267500Y325500D02*
D03*
X294500Y296500D02*
D03*
X291000Y293500D02*
D03*
X351000Y289000D02*
D03*
X390500Y290000D02*
D03*
X286500Y289000D02*
D03*
X383000Y250000D02*
D03*
X373000Y274500D02*
D03*
X387937Y257563D02*
D03*
X388000Y344500D02*
D03*
X367000Y270500D02*
D03*
X264000Y314000D02*
D03*
X267500Y316000D02*
D03*
X272500Y312984D02*
D03*
X275285Y314647D02*
D03*
X264500Y410000D02*
D03*
Y414500D02*
D03*
X268500D02*
D03*
Y410000D02*
D03*
X264500Y389000D02*
D03*
Y393500D02*
D03*
X268500D02*
D03*
Y389000D02*
D03*
X264500Y368500D02*
D03*
Y373000D02*
D03*
X268500D02*
D03*
Y368500D02*
D03*
X383512Y295000D02*
D03*
X308000Y286500D02*
D03*
X306500Y323500D02*
D03*
X398500Y371500D02*
D03*
Y376000D02*
D03*
X402500D02*
D03*
Y371500D02*
D03*
X398500Y390500D02*
D03*
Y395000D02*
D03*
X402500D02*
D03*
Y390500D02*
D03*
X398500Y410000D02*
D03*
Y414500D02*
D03*
X402500D02*
D03*
Y410000D02*
D03*
X374500Y376000D02*
D03*
X378500D02*
D03*
X374000Y391000D02*
D03*
Y395500D02*
D03*
X378000D02*
D03*
Y391000D02*
D03*
X374500Y410000D02*
D03*
Y414500D02*
D03*
X378500D02*
D03*
Y410000D02*
D03*
X288500D02*
D03*
Y414500D02*
D03*
X292500D02*
D03*
Y410000D02*
D03*
X288500Y389500D02*
D03*
Y394000D02*
D03*
X292500D02*
D03*
Y389500D02*
D03*
Y368500D02*
D03*
Y373000D02*
D03*
X288500D02*
D03*
Y368500D02*
D03*
X285500Y276500D02*
D03*
X282500D02*
D03*
X285500Y273500D02*
D03*
X282500D02*
D03*
X285500Y270500D02*
D03*
X282500D02*
D03*
X337524Y366348D02*
D03*
X337476Y363394D02*
D03*
X334490Y363314D02*
D03*
Y366316D02*
D03*
X312500Y377000D02*
D03*
X328500Y332000D02*
D03*
X327989Y288475D02*
D03*
X392500Y303000D02*
D03*
X391000Y340000D02*
D03*
X266500Y292000D02*
D03*
X358500Y322000D02*
D03*
X292830Y269756D02*
D03*
X293000Y272500D02*
D03*
X342957Y289957D02*
D03*
X331500Y305000D02*
D03*
X305000Y306000D02*
D03*
X308000Y308500D02*
D03*
D101*
X389937Y332000D02*
D03*
Y328063D02*
D03*
X386000Y332000D02*
D03*
Y328063D02*
D03*
X382063Y332000D02*
D03*
Y328063D02*
D03*
M02*
