G04*
G04 #@! TF.GenerationSoftware,Altium Limited,Altium Designer,23.8.1 (32)*
G04*
G04 Layer_Color=32768*
%FSLAX25Y25*%
%MOIN*%
G70*
G04*
G04 #@! TF.SameCoordinates,A9E98482-AA81-4C70-AF81-B552D0338214*
G04*
G04*
G04 #@! TF.FilePolarity,Positive*
G04*
G01*
G75*
%ADD10C,0.00394*%
%ADD14C,0.00787*%
%ADD15C,0.00600*%
%ADD105C,0.00197*%
G36*
X281900Y299092D02*
X276550D01*
Y319908D01*
X281900D01*
Y320750D01*
X296100D01*
Y319908D01*
X301450D01*
Y299092D01*
X296100D01*
Y298250D01*
X281900D01*
Y299092D01*
D02*
G37*
D10*
X302130Y323500D02*
X305870D01*
X304000Y321630D02*
Y325370D01*
X319130Y286500D02*
X322870D01*
X321000Y284630D02*
Y288370D01*
X342000Y280972D02*
Y284713D01*
X340130Y282842D02*
X343870D01*
X358500Y312630D02*
Y316370D01*
X356630Y314500D02*
X360370D01*
X334000Y308032D02*
Y311968D01*
X332031Y310000D02*
X335968D01*
X338531Y262638D02*
X342469D01*
X340500Y260669D02*
Y264606D01*
X384032Y330031D02*
X387968D01*
X386000Y328063D02*
Y332000D01*
X402417Y341500D02*
X404583D01*
X403500Y340417D02*
Y342583D01*
X396500Y326917D02*
Y329083D01*
X395417Y328000D02*
X397583D01*
X327417Y351000D02*
X329583D01*
X328500Y349917D02*
Y352083D01*
X343035Y374417D02*
Y376583D01*
X341953Y375500D02*
X344118D01*
X386728Y282157D02*
X390272D01*
X388500Y280386D02*
Y283929D01*
X394728Y275646D02*
X398272D01*
X396500Y273874D02*
Y277417D01*
X376031Y295000D02*
X379969D01*
X378000Y293032D02*
Y296969D01*
X268500Y298630D02*
Y302370D01*
X266630Y300500D02*
X270370D01*
D14*
X398236Y345946D02*
X406748D01*
X398236D02*
Y350277D01*
X406748D01*
Y345946D02*
Y350277D01*
X356950Y329204D02*
X368233D01*
Y323447D02*
Y329204D01*
X356950Y323447D02*
X368233D01*
X356950D02*
Y329204D01*
X339736Y336752D02*
Y343248D01*
Y336752D02*
X351941D01*
Y343248D01*
X339736D02*
X351941D01*
X340042Y335878D02*
X351325D01*
Y330122D02*
Y335878D01*
X340042Y330122D02*
X351325D01*
X340042D02*
Y335878D01*
X305776Y288862D02*
X315224D01*
Y284138D02*
Y288862D01*
X305776Y284138D02*
X315224D01*
X305776D02*
Y288862D01*
X277622Y267264D02*
X290614D01*
X277622D02*
Y280256D01*
X290614D01*
Y267264D02*
Y280256D01*
X361877Y266059D02*
X376703D01*
Y257941D02*
Y266059D01*
X361877Y257941D02*
X376703D01*
X361877D02*
Y266059D01*
X275280Y261746D02*
Y273211D01*
X269720Y261746D02*
X275280D01*
X269720D02*
Y273211D01*
X275280D01*
X293835Y262472D02*
Y271528D01*
X298165D01*
Y262472D02*
Y271528D01*
X293835Y262472D02*
X298165D01*
X402209Y249949D02*
Y268059D01*
X390791Y249949D02*
X402209D01*
X390791D02*
Y268059D01*
X402209D01*
X360614Y340343D02*
X376386D01*
Y331657D02*
Y340343D01*
X360614Y331657D02*
X376386D01*
X360614D02*
Y340343D01*
X261374Y400752D02*
X295626D01*
Y382248D02*
Y400752D01*
X261374Y382248D02*
X295626D01*
X261374D02*
Y400752D01*
X371374Y403248D02*
X405626D01*
X371374D02*
Y421752D01*
X405626D01*
Y403248D02*
Y421752D01*
X371374Y383748D02*
X405626D01*
X371374D02*
Y402252D01*
X405626D01*
Y383748D02*
Y402252D01*
X261374Y380252D02*
X295626D01*
Y361748D02*
Y380252D01*
X261374Y361748D02*
X295626D01*
X261374D02*
Y380252D01*
X371374Y364248D02*
X405626D01*
X371374D02*
Y382752D01*
X405626D01*
Y364248D02*
Y382752D01*
X261374Y421752D02*
X295626D01*
Y403248D02*
Y421752D01*
X261374Y403248D02*
X295626D01*
X261374D02*
Y421752D01*
X347506Y350256D02*
X355494D01*
X347506D02*
Y353744D01*
X355494D01*
Y350256D02*
Y353744D01*
X333130Y383275D02*
X338871D01*
Y394725D01*
X333130D02*
X338871D01*
X333130Y383275D02*
Y394725D01*
X381141Y280122D02*
Y285878D01*
X369859D02*
X381141D01*
X369859Y280122D02*
Y285878D01*
Y280122D02*
X381141D01*
X370129Y265775D02*
X375870D01*
Y277225D01*
X370129D02*
X375870D01*
X370129Y265775D02*
Y277225D01*
X394862Y341177D02*
Y350823D01*
X390138Y341177D02*
X394862D01*
X390138D02*
Y350823D01*
X394862D01*
X397708Y305838D02*
X403449D01*
Y317287D01*
X397708D02*
X403449D01*
X397708Y305838D02*
Y317287D01*
X389708Y316788D02*
X395449D01*
X389708Y305338D02*
Y316788D01*
Y305338D02*
X395449D01*
Y316788D01*
X269496Y292961D02*
X284504D01*
Y285039D02*
Y292961D01*
X269496Y285039D02*
X284504D01*
X269496D02*
Y292961D01*
X311752Y441827D02*
X318248D01*
X311752Y431173D02*
Y441827D01*
Y431173D02*
X318248D01*
Y441827D01*
X334445Y348350D02*
X345468D01*
X334445D02*
Y354650D01*
X345468D01*
Y348350D02*
Y354650D01*
X325673Y420252D02*
Y426748D01*
Y420252D02*
X336327D01*
Y426748D01*
X325673D02*
X336327D01*
X322358Y396598D02*
X339642D01*
Y416402D01*
X322358D02*
X339642D01*
X322358Y396598D02*
Y416402D01*
X343752Y430673D02*
Y441327D01*
X350248D01*
Y430673D02*
Y441327D01*
X343752Y430673D02*
X350248D01*
X331968Y373850D02*
Y380150D01*
X320945D02*
X331968D01*
X320945Y373850D02*
Y380150D01*
Y373850D02*
X331968D01*
X370055Y299465D02*
X387772D01*
X370055D02*
Y317181D01*
X387772D01*
Y299465D02*
Y317181D01*
X334282Y374011D02*
X337718D01*
Y380989D01*
X334282D02*
X337718D01*
X334282Y374011D02*
Y380989D01*
X333783Y338511D02*
Y345489D01*
X337217D01*
Y338511D02*
Y345489D01*
X333783Y338511D02*
X337217D01*
X317511Y369283D02*
Y372717D01*
Y369283D02*
X324489D01*
Y372717D01*
X317511D02*
X324489D01*
X319011Y361282D02*
Y364718D01*
Y361282D02*
X325989D01*
Y364718D01*
X319011D02*
X325989D01*
X317198Y381282D02*
Y384717D01*
Y381282D02*
X324176D01*
Y384717D01*
X317198D02*
X324176D01*
X385268Y246063D02*
Y253937D01*
X368732D02*
X385268D01*
X368732Y246063D02*
Y253937D01*
Y246063D02*
X385268D01*
X398563Y282039D02*
X406437D01*
Y298575D01*
X398563D02*
X406437D01*
X398563Y282039D02*
Y298575D01*
X399252Y320890D02*
X405748D01*
Y332110D01*
X399252D02*
X405748D01*
X399252Y320890D02*
Y332110D01*
X400276Y335925D02*
Y339075D01*
Y335925D02*
X406575D01*
Y339075D01*
X400276D02*
X406575D01*
X396361Y335974D02*
X399796D01*
Y342952D01*
X396361D02*
X399796D01*
X396361Y335974D02*
Y342952D01*
X360614Y339657D02*
Y348343D01*
Y339657D02*
X376386D01*
Y348343D01*
X360614D02*
X376386D01*
X265276Y323138D02*
Y327862D01*
Y323138D02*
X274724D01*
Y327862D01*
X265276D02*
X274724D01*
D15*
X276550Y299092D02*
X281900D01*
Y298250D02*
Y299092D01*
Y298250D02*
X296100D01*
Y299092D01*
X301450D01*
Y319908D01*
X296100D02*
X301450D01*
X296100D02*
Y320750D01*
X281900D02*
X296100D01*
X281900Y319908D02*
Y320750D01*
X276550Y319908D02*
X281900D01*
X276550Y299092D02*
Y319908D01*
D105*
X298685Y320547D02*
Y326453D01*
X309315Y320547D02*
Y326453D01*
X298685D02*
X309315D01*
X298685Y320547D02*
X309315D01*
X315685Y283547D02*
Y289453D01*
X326315Y283547D02*
Y289453D01*
X315685D02*
X326315D01*
X315685Y283547D02*
X326315D01*
X339047Y277528D02*
X344953D01*
X339047Y288158D02*
X344953D01*
X339047Y277528D02*
Y288158D01*
X344953Y277528D02*
Y288158D01*
X355547Y309185D02*
X361453D01*
X355547Y319815D02*
X361453D01*
X355547Y309185D02*
Y319815D01*
X361453Y309185D02*
Y319815D01*
X312543Y291299D02*
X355457D01*
X312543Y328701D02*
X355457D01*
X312543Y291299D02*
Y328701D01*
X355457Y291299D02*
Y328701D01*
X304626Y266094D02*
Y277906D01*
Y266094D02*
X320374D01*
Y277906D01*
X304626D02*
X320374D01*
X312500Y270031D02*
Y273969D01*
X310531Y272000D02*
X314469D01*
X327114Y248484D02*
X353886D01*
X327114Y276791D02*
X353886D01*
Y248484D02*
Y276791D01*
X327114Y248484D02*
Y276791D01*
X394465Y322551D02*
Y337512D01*
X377535Y322551D02*
Y337512D01*
X394465D01*
X377535Y322551D02*
X394465D01*
X280736Y196587D02*
Y240130D01*
Y196587D02*
X385264D01*
Y240130D01*
X280736D02*
X385264D01*
X327642Y356425D02*
X344374D01*
Y373158D01*
X327642D02*
X344374D01*
X327642Y356425D02*
Y373158D01*
X391087Y259539D02*
Y276272D01*
X376913Y259539D02*
X391087D01*
X376913D02*
Y276272D01*
X391087D01*
X407043Y339728D02*
Y343272D01*
X399957Y339728D02*
Y343272D01*
Y339728D02*
X407043D01*
X399957Y343272D02*
X407043D01*
X394728Y331543D02*
X398272D01*
X394728Y324457D02*
X398272D01*
Y331543D01*
X394728Y324457D02*
Y331543D01*
X325350Y349425D02*
Y352575D01*
X331650Y349425D02*
Y352575D01*
X325350D02*
X331650D01*
X325350Y349425D02*
X331650D01*
X339886Y377075D02*
X346185D01*
X339886Y373925D02*
X346185D01*
X339886D02*
Y377075D01*
X346185Y373925D02*
Y377075D01*
X385547Y276842D02*
Y287472D01*
X391453Y276842D02*
Y287472D01*
X385547Y276842D02*
X391453D01*
X385547Y287472D02*
X391453D01*
X392366Y268953D02*
Y282339D01*
X400634Y268953D02*
Y282339D01*
X392366Y268953D02*
X400634D01*
X392366Y282339D02*
X400634D01*
X370126Y291260D02*
Y298740D01*
X385874Y291260D02*
Y298740D01*
X370126D02*
X385874D01*
X370126Y291260D02*
X385874D01*
X265547Y295185D02*
X271453D01*
X265547Y305815D02*
X271453D01*
X265547Y295185D02*
Y305815D01*
X271453Y295185D02*
Y305815D01*
M02*
