G04*
G04 #@! TF.GenerationSoftware,Altium Limited,Altium Designer,23.8.1 (32)*
G04*
G04 Layer_Color=16711935*
%FSLAX25Y25*%
%MOIN*%
G70*
G04*
G04 #@! TF.SameCoordinates,A9E98482-AA81-4C70-AF81-B552D0338214*
G04*
G04*
G04 #@! TF.FilePolarity,Positive*
G04*
G01*
G75*
%ADD10C,0.00394*%
%ADD14C,0.00787*%
%ADD16C,0.00300*%
%ADD103C,0.00000*%
%ADD104C,0.00100*%
D10*
X319158Y302953D02*
G03*
X319158Y302953I-1969J0D01*
G01*
X308957Y269048D02*
G03*
X308957Y269048I-787J0D01*
G01*
X383638Y327669D02*
G03*
X383638Y327669I-1969J0D01*
G01*
X406575Y354350D02*
Y360650D01*
X403425Y354350D02*
X406575D01*
X403425D02*
Y360650D01*
X406575D01*
X300555Y321630D02*
Y325370D01*
X307445Y321630D02*
Y325370D01*
X300555D02*
X307445D01*
X300555Y321630D02*
X307445D01*
X317555Y284630D02*
Y288370D01*
X324445Y284630D02*
Y288370D01*
X317555D02*
X324445D01*
X317555Y284630D02*
X324445D01*
X340130Y279398D02*
X343870D01*
X340130Y286287D02*
X343870D01*
X340130Y279398D02*
Y286287D01*
X343870Y279398D02*
Y286287D01*
X356630Y311055D02*
X360370D01*
X356630Y317945D02*
X360370D01*
X356630Y311055D02*
Y317945D01*
X360370Y311055D02*
Y317945D01*
X313646Y299410D02*
X354354D01*
X313646Y320590D02*
X354354D01*
X313646Y299410D02*
Y320590D01*
X354354Y299410D02*
Y320590D01*
X306201Y276921D02*
X318799D01*
Y267079D02*
Y276921D01*
X306201Y267079D02*
X318799D01*
X306201D02*
Y276921D01*
X327508Y248878D02*
Y276398D01*
X353492Y248878D02*
Y276398D01*
X327508D02*
X353492D01*
X327508Y248878D02*
X353492D01*
X393874Y324126D02*
Y335937D01*
X378126Y324126D02*
Y335937D01*
X393874D01*
X378126Y324126D02*
X393874D01*
X330102Y360894D02*
X332110Y358886D01*
X330102D02*
X341913D01*
Y370697D01*
X330102D02*
X341913D01*
X330102Y358886D02*
Y370697D01*
X389906Y262000D02*
Y273811D01*
X378095Y262000D02*
X389906D01*
X378095D02*
Y273811D01*
X389906D01*
X386953D02*
X389906Y270858D01*
X405567Y340417D02*
Y342583D01*
X401433Y340417D02*
Y342583D01*
Y340417D02*
X405567D01*
X401433Y342583D02*
X405567D01*
X395417Y330067D02*
X397583D01*
X395417Y325933D02*
X397583D01*
Y330067D01*
X395417Y325933D02*
Y330067D01*
X326433Y349917D02*
Y352083D01*
X330567Y349917D02*
Y352083D01*
X326433D02*
X330567D01*
X326433Y349917D02*
X330567D01*
X340968Y376583D02*
X345102D01*
X340968Y374417D02*
X345102D01*
X340968D02*
Y376583D01*
X345102Y374417D02*
Y376583D01*
X386728Y278811D02*
Y285504D01*
X390272Y278811D02*
Y285504D01*
X386728Y278811D02*
X390272D01*
X386728Y285504D02*
X390272D01*
X394728Y272299D02*
Y278992D01*
X398272Y272299D02*
Y278992D01*
X394728Y272299D02*
X398272D01*
X394728Y278992D02*
X398272D01*
X371307Y291457D02*
Y298543D01*
X384693Y291457D02*
Y298543D01*
X371307D02*
X384693D01*
X371307Y291457D02*
X384693D01*
X266630Y297055D02*
X270370D01*
X266630Y303945D02*
X270370D01*
X266630Y297055D02*
Y303945D01*
X270370Y297055D02*
Y303945D01*
D14*
X399441Y346536D02*
X405543D01*
X399441D02*
Y349686D01*
X405543D01*
Y346536D02*
Y349686D01*
X359540Y327999D02*
X365642D01*
Y324652D02*
Y327999D01*
X359540Y324652D02*
X365642D01*
X359540D02*
Y327999D01*
X341508Y337244D02*
Y342756D01*
Y337244D02*
X350169D01*
Y342756D01*
X341508D02*
X350169D01*
X342632Y334673D02*
X348735D01*
Y331327D02*
Y334673D01*
X342632Y331327D02*
X348735D01*
X342632D02*
Y334673D01*
X306957Y288469D02*
X314043D01*
Y284531D02*
Y288469D01*
X306957Y284531D02*
X314043D01*
X306957D02*
Y288469D01*
X278016Y267657D02*
X290220D01*
X278016D02*
Y279862D01*
X290220D01*
Y267657D02*
Y279862D01*
X366239Y263673D02*
X372341D01*
Y260327D02*
Y263673D01*
X366239Y260327D02*
X372341D01*
X366239D02*
Y263673D01*
X274075Y264329D02*
Y270628D01*
X270925Y264329D02*
X274075D01*
X270925D02*
Y270628D01*
X274075D01*
X294228Y263653D02*
Y270346D01*
X297772D01*
Y263653D02*
Y270346D01*
X294228Y263653D02*
X297772D01*
X401815Y252114D02*
Y265894D01*
X391185Y252114D02*
X401815D01*
X391185D02*
Y265894D01*
X401815D01*
X365350Y337575D02*
X371650D01*
Y334425D02*
Y337575D01*
X365350Y334425D02*
X371650D01*
X365350D02*
Y337575D01*
X263539Y400358D02*
X293461D01*
Y382642D02*
Y400358D01*
X263539Y382642D02*
X293461D01*
X263539D02*
Y400358D01*
X373539Y403642D02*
X403461D01*
X373539D02*
Y421358D01*
X403461D01*
Y403642D02*
Y421358D01*
X373539Y384142D02*
X403461D01*
X373539D02*
Y401858D01*
X403461D01*
Y384142D02*
Y401858D01*
X263539Y379858D02*
X293461D01*
Y362142D02*
Y379858D01*
X263539Y362142D02*
X293461D01*
X263539D02*
Y379858D01*
X373539Y364642D02*
X403461D01*
X373539D02*
Y382358D01*
X403461D01*
Y364642D02*
Y382358D01*
X263539Y421358D02*
X293461D01*
Y403642D02*
Y421358D01*
X263539Y403642D02*
X293461D01*
X263539D02*
Y421358D01*
X349000Y350650D02*
X354000D01*
X349000D02*
Y353350D01*
X354000D01*
Y350650D02*
Y353350D01*
X334425Y385949D02*
X337575D01*
Y392051D01*
X334425D02*
X337575D01*
X334425Y385949D02*
Y392051D01*
X378551Y281327D02*
Y284673D01*
X372449D02*
X378551D01*
X372449Y281327D02*
Y284673D01*
Y281327D02*
X378551D01*
X371425Y268449D02*
X374575D01*
Y274551D01*
X371425D02*
X374575D01*
X371425Y268449D02*
Y274551D01*
X394370Y342752D02*
Y349248D01*
X390630Y342752D02*
X394370D01*
X390630D02*
Y349248D01*
X394370D01*
X399004Y308511D02*
X402153D01*
Y314614D01*
X399004D02*
X402153D01*
X399004Y308511D02*
Y314614D01*
X391004Y314114D02*
X394153D01*
X391004Y308012D02*
Y314114D01*
Y308012D02*
X394153D01*
Y314114D01*
X273850Y290575D02*
X280150D01*
Y287425D02*
Y290575D01*
X273850Y287425D02*
X280150D01*
X273850D02*
Y290575D01*
X312539Y440437D02*
X317461D01*
X312539Y432563D02*
Y440437D01*
Y432563D02*
X317461D01*
Y440437D01*
X335626Y348744D02*
X344287D01*
X335626D02*
Y354256D01*
X344287D01*
Y348744D02*
Y354256D01*
X327063Y421039D02*
Y425961D01*
Y421039D02*
X334937D01*
Y425961D01*
X327063D02*
X334937D01*
X322752Y398252D02*
X339248D01*
Y414748D01*
X322752D02*
X339248D01*
X322752Y398252D02*
Y414748D01*
X344539Y432063D02*
Y439937D01*
X349461D01*
Y432063D02*
Y439937D01*
X344539Y432063D02*
X349461D01*
X330787Y374244D02*
Y379756D01*
X322126D02*
X330787D01*
X322126Y374244D02*
Y379756D01*
Y374244D02*
X330787D01*
X370449Y299858D02*
X387378D01*
X370449D02*
Y316787D01*
X387378D01*
Y299858D02*
Y316787D01*
X335016Y375532D02*
X336984D01*
Y379468D01*
X335016D02*
X336984D01*
X335016Y375532D02*
Y379468D01*
X334516Y340032D02*
Y343969D01*
X336484D01*
Y340032D02*
Y343969D01*
X334516Y340032D02*
X336484D01*
X319032Y370016D02*
Y371984D01*
Y370016D02*
X322969D01*
Y371984D01*
X319032D02*
X322969D01*
X320532Y362016D02*
Y363984D01*
Y362016D02*
X324468D01*
Y363984D01*
X320532D02*
X324468D01*
X318719Y382016D02*
Y383984D01*
Y382016D02*
X322656D01*
Y383984D01*
X318719D02*
X322656D01*
X383693Y246457D02*
Y253543D01*
X370307D02*
X383693D01*
X370307Y246457D02*
Y253543D01*
Y246457D02*
X383693D01*
X398957Y283614D02*
X406043D01*
Y297000D01*
X398957D02*
X406043D01*
X398957Y283614D02*
Y297000D01*
X399646Y322169D02*
X405354D01*
Y330831D01*
X399646D02*
X405354D01*
X399646Y322169D02*
Y330831D01*
X401358Y336417D02*
Y338583D01*
Y336417D02*
X405492D01*
Y338583D01*
X401358D02*
X405492D01*
X397094Y337494D02*
X399063D01*
Y341431D01*
X397094D02*
X399063D01*
X397094Y337494D02*
Y341431D01*
X365350Y342425D02*
Y345575D01*
Y342425D02*
X371650D01*
Y345575D01*
X365350D02*
X371650D01*
X266457Y323532D02*
Y327468D01*
Y323532D02*
X273543D01*
Y327468D01*
X266457D02*
X273543D01*
D16*
X283150Y318615D02*
X286482Y315283D01*
X283150D02*
X286482Y318615D01*
X283150Y316949D02*
X286482D01*
X284816Y315283D02*
Y318615D01*
D103*
X287800Y319750D02*
G03*
X290200Y319750I1200J0D01*
G01*
D104*
X282900Y299250D02*
Y319750D01*
X295100D01*
Y299250D02*
Y319750D01*
X282900Y299250D02*
X295100D01*
Y318908D02*
X299050D01*
Y317808D02*
Y318908D01*
X295100Y317808D02*
X299050D01*
X295100D02*
Y318908D01*
Y316940D02*
X299050D01*
Y315840D02*
Y316940D01*
X295100Y315840D02*
X299050D01*
X295100D02*
Y316940D01*
Y314971D02*
X299050D01*
Y313871D02*
Y314971D01*
X295100Y313871D02*
X299050D01*
X295100D02*
Y314971D01*
Y313003D02*
X299050D01*
Y311903D02*
Y313003D01*
X295100Y311903D02*
X299050D01*
X295100D02*
Y313003D01*
Y311034D02*
X299050D01*
Y309934D02*
Y311034D01*
X295100Y309934D02*
X299050D01*
X295100D02*
Y311034D01*
Y309066D02*
X299050D01*
Y307966D02*
Y309066D01*
X295100Y307966D02*
X299050D01*
X295100D02*
Y309066D01*
Y307097D02*
X299050D01*
Y305997D02*
Y307097D01*
X295100Y305997D02*
X299050D01*
X295100D02*
Y307097D01*
Y305129D02*
X299050D01*
Y304029D02*
Y305129D01*
X295100Y304029D02*
X299050D01*
X295100D02*
Y305129D01*
Y303160D02*
X299050D01*
Y302060D02*
Y303160D01*
X295100Y302060D02*
X299050D01*
X295100D02*
Y303160D01*
Y301192D02*
X299050D01*
Y300092D02*
Y301192D01*
X295100Y300092D02*
X299050D01*
X295100D02*
Y301192D01*
X278950Y300092D02*
X282900D01*
X278950D02*
Y301192D01*
X282900D01*
Y300092D02*
Y301192D01*
X278950Y302060D02*
X282900D01*
X278950D02*
Y303160D01*
X282900D01*
Y302060D02*
Y303160D01*
X278950Y304029D02*
X282900D01*
X278950D02*
Y305129D01*
X282900D01*
Y304029D02*
Y305129D01*
X278950Y305997D02*
X282900D01*
X278950D02*
Y307097D01*
X282900D01*
Y305997D02*
Y307097D01*
X278950Y307966D02*
X282900D01*
X278950D02*
Y309066D01*
X282900D01*
Y307966D02*
Y309066D01*
X278950Y309934D02*
X282900D01*
X278950D02*
Y311034D01*
X282900D01*
Y309934D02*
Y311034D01*
X278950Y311903D02*
X282900D01*
X278950D02*
Y313003D01*
X282900D01*
Y311903D02*
Y313003D01*
X278950Y313871D02*
X282900D01*
X278950D02*
Y314971D01*
X282900D01*
Y313871D02*
Y314971D01*
X278950Y315840D02*
X282900D01*
X278950D02*
Y316940D01*
X282900D01*
Y315840D02*
Y316940D01*
X278950Y317808D02*
X282900D01*
X278950D02*
Y318908D01*
X282900D01*
Y317808D02*
Y318908D01*
M02*
