G04*
G04 #@! TF.GenerationSoftware,Altium Limited,Altium Designer,23.8.1 (32)*
G04*
G04 Layer_Color=8388736*
%FSLAX25Y25*%
%MOIN*%
G70*
G04*
G04 #@! TF.SameCoordinates,A9E98482-AA81-4C70-AF81-B552D0338214*
G04*
G04*
G04 #@! TF.FilePolarity,Negative*
G04*
G01*
G75*
%ADD18R,0.02985X0.03197*%
%ADD19R,0.03681X0.03788*%
%ADD20R,0.03740X0.05709*%
%ADD23R,0.02953X0.03543*%
%ADD25C,0.01595*%
%ADD26R,0.06890X0.09843*%
%ADD28R,0.05600X0.01100*%
%ADD31R,0.04469X0.04182*%
%ADD32R,0.03591X0.04453*%
%ADD33R,0.02756X0.02756*%
%ADD34R,0.08071X0.04331*%
%ADD35R,0.03765X0.04749*%
%ADD36R,0.09449X0.11417*%
%ADD42R,0.02500X0.02402*%
%ADD43R,0.03773X0.03961*%
%ADD46R,0.03937X0.02953*%
%ADD47R,0.04560X0.03985*%
%ADD48R,0.05339X0.04545*%
%ADD49R,0.03150X0.04724*%
%ADD50R,0.04545X0.05339*%
%ADD51R,0.02992X0.05512*%
%ADD52R,0.03858X0.13386*%
%ADD54R,0.02254X0.02423*%
%ADD55R,0.02423X0.02254*%
%ADD57R,0.04134X0.06299*%
%ADD58R,0.06299X0.04134*%
%ADD60R,0.04134X0.03150*%
%ADD61R,0.02047X0.02047*%
%ADD62R,0.02254X0.02517*%
%ADD65R,0.03950X0.03950*%
%ADD66R,0.04147X0.04737*%
%ADD67R,0.04737X0.04147*%
%ADD68O,0.02572X0.08280*%
%ADD69R,0.06312X0.04737*%
%ADD70R,0.13792X0.07493*%
%ADD71R,0.01784X0.03556*%
%ADD72R,0.06509X0.06509*%
%ADD73R,0.04147X0.01981*%
%ADD74R,0.01981X0.04147*%
%ADD75R,0.01981X0.03950*%
%ADD76R,0.10839X0.07690*%
%ADD77R,0.02965X0.02965*%
%ADD78R,0.02965X0.02965*%
%ADD79R,0.03005X0.02847*%
%ADD80R,0.04540X0.04147*%
%ADD81R,0.04934X0.04540*%
%ADD82R,0.04540X0.07493*%
%ADD83R,0.20800X0.20800*%
%ADD84R,0.05721X0.05721*%
%ADD85C,0.05721*%
%ADD86C,0.06784*%
G04:AMPARAMS|DCode=87|XSize=67.84mil|YSize=67.84mil|CornerRadius=18.96mil|HoleSize=0mil|Usage=FLASHONLY|Rotation=0.000|XOffset=0mil|YOffset=0mil|HoleType=Round|Shape=RoundedRectangle|*
%AMROUNDEDRECTD87*
21,1,0.06784,0.02992,0,0,0.0*
21,1,0.02992,0.06784,0,0,0.0*
1,1,0.03792,0.01496,-0.01496*
1,1,0.03792,-0.01496,-0.01496*
1,1,0.03792,-0.01496,0.01496*
1,1,0.03792,0.01496,0.01496*
%
%ADD87ROUNDEDRECTD87*%
%ADD88C,0.02769*%
G36*
X279600Y270771D02*
X279849Y270521D01*
X279984Y270196D01*
Y270020D01*
Y269844D01*
X279849Y269518D01*
X279600Y269269D01*
X279275Y269134D01*
X279098D01*
Y269134D01*
X278016D01*
Y270905D01*
X279275D01*
X279600Y270771D01*
D02*
G37*
G36*
Y274511D02*
X279849Y274262D01*
X279984Y273936D01*
Y273760D01*
Y273584D01*
X279849Y273258D01*
X279600Y273009D01*
X279275Y272874D01*
X278016D01*
Y274646D01*
X279275D01*
X279600Y274511D01*
D02*
G37*
G36*
Y278251D02*
X279849Y278002D01*
X279984Y277676D01*
Y277500D01*
Y277324D01*
X279849Y276998D01*
X279600Y276749D01*
X279275Y276614D01*
X278016D01*
Y278386D01*
X279098Y278386D01*
X279275D01*
X279600Y278251D01*
D02*
G37*
G36*
X290220Y269134D02*
X289138Y269134D01*
X288962D01*
X288636Y269269D01*
X288387Y269518D01*
X288252Y269844D01*
Y270020D01*
Y270196D01*
X288387Y270521D01*
X288636Y270771D01*
X288962Y270905D01*
X290220D01*
Y269134D01*
D02*
G37*
G36*
Y272874D02*
X288962D01*
X288636Y273009D01*
X288387Y273258D01*
X288252Y273584D01*
Y273760D01*
Y273936D01*
X288387Y274262D01*
X288636Y274511D01*
X288962Y274646D01*
X290220D01*
Y272874D01*
D02*
G37*
G36*
X289138Y278386D02*
X290220D01*
Y276614D01*
X288962D01*
X288636Y276749D01*
X288387Y276998D01*
X288252Y277324D01*
Y277500D01*
Y277676D01*
X288387Y278002D01*
X288636Y278251D01*
X288962Y278386D01*
X289138D01*
Y278386D01*
D02*
G37*
D18*
X404862Y348111D02*
D03*
X400122D02*
D03*
D19*
X359775Y326325D02*
D03*
X365408D02*
D03*
X342867Y333000D02*
D03*
X348500D02*
D03*
X372684Y283000D02*
D03*
X378316D02*
D03*
D20*
X349677Y340000D02*
D03*
X342000D02*
D03*
D23*
X308138Y286500D02*
D03*
X312862D02*
D03*
X272362Y325500D02*
D03*
X267638D02*
D03*
D25*
X289236Y270020D02*
D03*
X289321Y273760D02*
D03*
Y277500D02*
D03*
X279000D02*
D03*
X278916Y273760D02*
D03*
Y270020D02*
D03*
D26*
X284118Y273760D02*
D03*
D28*
X297650Y318358D02*
D03*
Y316390D02*
D03*
Y314421D02*
D03*
Y312453D02*
D03*
Y310484D02*
D03*
Y308516D02*
D03*
Y306547D02*
D03*
Y304579D02*
D03*
Y302610D02*
D03*
Y300642D02*
D03*
X280350D02*
D03*
Y302610D02*
D03*
Y304579D02*
D03*
Y306547D02*
D03*
Y308516D02*
D03*
Y310484D02*
D03*
Y312453D02*
D03*
Y314421D02*
D03*
Y316390D02*
D03*
Y318358D02*
D03*
D31*
X366080Y262000D02*
D03*
X372500D02*
D03*
D32*
X272500Y270000D02*
D03*
Y264956D02*
D03*
D33*
X296000Y264244D02*
D03*
Y269756D02*
D03*
D34*
X396500Y265500D02*
D03*
Y252508D02*
D03*
D35*
X364465Y336000D02*
D03*
X372535D02*
D03*
Y344000D02*
D03*
X364465D02*
D03*
D36*
X266492Y391500D02*
D03*
X290508D02*
D03*
X400508Y412500D02*
D03*
X376492D02*
D03*
X400508Y393000D02*
D03*
X376492D02*
D03*
X266492Y371000D02*
D03*
X290508D02*
D03*
X400508Y373500D02*
D03*
X376492D02*
D03*
X266492Y412500D02*
D03*
X290508D02*
D03*
D42*
X353850Y352000D02*
D03*
X349150D02*
D03*
D43*
X336000Y391760D02*
D03*
Y386240D02*
D03*
X373000Y268740D02*
D03*
Y274260D02*
D03*
X400579Y314323D02*
D03*
Y308803D02*
D03*
X392579Y308302D02*
D03*
Y313823D02*
D03*
D46*
X392500Y348953D02*
D03*
Y343047D02*
D03*
D47*
X273744Y289000D02*
D03*
X280256D02*
D03*
D48*
X315000Y433839D02*
D03*
Y439161D02*
D03*
X347000Y433339D02*
D03*
Y438661D02*
D03*
D49*
X343500Y351500D02*
D03*
X336413D02*
D03*
X322913Y377000D02*
D03*
X330000D02*
D03*
D50*
X333661Y423500D02*
D03*
X328339D02*
D03*
D51*
X326000Y399748D02*
D03*
X336000D02*
D03*
Y413252D02*
D03*
X331000D02*
D03*
X326000D02*
D03*
D52*
X383579Y308323D02*
D03*
X374248D02*
D03*
D54*
X336000Y379187D02*
D03*
Y375813D02*
D03*
X335500Y340313D02*
D03*
Y343687D02*
D03*
D55*
X322687Y371000D02*
D03*
X319313D02*
D03*
X324187Y363000D02*
D03*
X320813D02*
D03*
X322375Y383000D02*
D03*
X319000D02*
D03*
D57*
X371193Y250000D02*
D03*
X382807D02*
D03*
D58*
X402500Y296114D02*
D03*
Y284500D02*
D03*
D60*
Y330142D02*
D03*
Y322858D02*
D03*
D61*
X405000Y337500D02*
D03*
X401850D02*
D03*
D62*
X398079Y341103D02*
D03*
Y337823D02*
D03*
D65*
X405000Y360748D02*
D03*
Y354252D02*
D03*
D66*
X301343Y323500D02*
D03*
X306658D02*
D03*
X318342Y286500D02*
D03*
X323657D02*
D03*
D67*
X342000Y280185D02*
D03*
Y285500D02*
D03*
X358500Y311842D02*
D03*
Y317158D02*
D03*
X268500Y297843D02*
D03*
Y303157D02*
D03*
D68*
X317366Y296024D02*
D03*
X319925D02*
D03*
X322484D02*
D03*
X325043D02*
D03*
X327602D02*
D03*
X330161D02*
D03*
X332720D02*
D03*
X335279D02*
D03*
X337839D02*
D03*
X340398D02*
D03*
X342957D02*
D03*
X345516D02*
D03*
X348075D02*
D03*
X350634D02*
D03*
X317366Y323976D02*
D03*
X319925D02*
D03*
X322484D02*
D03*
X325043D02*
D03*
X327602D02*
D03*
X330161D02*
D03*
X332720D02*
D03*
X335279D02*
D03*
X337839D02*
D03*
X340398D02*
D03*
X342957D02*
D03*
X345516D02*
D03*
X348075D02*
D03*
X350634D02*
D03*
D69*
X308169Y268850D02*
D03*
X316831D02*
D03*
Y275150D02*
D03*
X308169D02*
D03*
D70*
X386000Y330031D02*
D03*
D71*
X390921Y335740D02*
D03*
X388953D02*
D03*
X386984D02*
D03*
X385016D02*
D03*
X383047D02*
D03*
X381079D02*
D03*
X390921Y324323D02*
D03*
X388953D02*
D03*
X386984D02*
D03*
X385016D02*
D03*
X383047D02*
D03*
X381079D02*
D03*
D72*
X336008Y364791D02*
D03*
D73*
X330299Y362784D02*
D03*
Y364791D02*
D03*
Y366799D02*
D03*
X341717D02*
D03*
Y364791D02*
D03*
Y362784D02*
D03*
D74*
X334000Y370500D02*
D03*
X336008D02*
D03*
X338016D02*
D03*
Y359083D02*
D03*
X336008D02*
D03*
X334000D02*
D03*
D75*
X387937Y273811D02*
D03*
X385968D02*
D03*
X384000D02*
D03*
X382031D02*
D03*
X380063D02*
D03*
Y262000D02*
D03*
X382031D02*
D03*
X384000D02*
D03*
X385968D02*
D03*
X387937D02*
D03*
D76*
X384000Y267905D02*
D03*
D77*
X405272Y341500D02*
D03*
X401728D02*
D03*
D78*
X396500Y329772D02*
D03*
Y326228D02*
D03*
D79*
X326965Y351000D02*
D03*
X330035D02*
D03*
X341500Y375500D02*
D03*
X344571D02*
D03*
D80*
X388500Y279500D02*
D03*
Y284815D02*
D03*
D81*
X396500Y272791D02*
D03*
Y278500D02*
D03*
D82*
X372488Y295000D02*
D03*
X383512D02*
D03*
D83*
X346500Y446500D02*
D03*
X315000Y447000D02*
D03*
D84*
X350500Y262500D02*
D03*
D85*
X340500Y252500D02*
D03*
X330500Y262500D02*
D03*
D86*
X358000Y236350D02*
D03*
X338000D02*
D03*
X298000D02*
D03*
X308000D02*
D03*
X318000D02*
D03*
X328000D02*
D03*
X348000D02*
D03*
X368000D02*
D03*
X378000D02*
D03*
D87*
X288000D02*
D03*
D88*
X389937Y332000D02*
D03*
Y328063D02*
D03*
X386000Y332000D02*
D03*
Y328063D02*
D03*
X382063Y332000D02*
D03*
Y328063D02*
D03*
M02*
