G04*
G04 #@! TF.GenerationSoftware,Altium Limited,Altium Designer,23.8.1 (32)*
G04*
G04 Layer_Physical_Order=3*
G04 Layer_Color=16440176*
%FSLAX25Y25*%
%MOIN*%
G70*
G04*
G04 #@! TF.SameCoordinates,A9E98482-AA81-4C70-AF81-B552D0338214*
G04*
G04*
G04 #@! TF.FilePolarity,Positive*
G04*
G01*
G75*
%ADD98C,0.05984*%
%ADD100C,0.02000*%
G36*
X409000Y213000D02*
X257500D01*
Y334500D01*
X346971D01*
X347178Y334000D01*
X346983Y333804D01*
X346678Y333069D01*
Y332274D01*
X346983Y331538D01*
X347545Y330976D01*
X348280Y330671D01*
X349076D01*
X349811Y330976D01*
X350374Y331538D01*
X350678Y332274D01*
Y333069D01*
X350374Y333804D01*
X350178Y334000D01*
X350385Y334500D01*
X409000D01*
Y213000D01*
D02*
G37*
G36*
Y340500D02*
X392958D01*
X392695Y341133D01*
X392133Y341695D01*
X391398Y342000D01*
X390602D01*
X389867Y341695D01*
X389304Y341133D01*
X389042Y340500D01*
X351635D01*
X351373Y341133D01*
X350810Y341695D01*
X350075Y342000D01*
X349279D01*
X348544Y341695D01*
X347982Y341133D01*
X347720Y340500D01*
X257500D01*
Y460000D01*
X409000D01*
Y340500D01*
D02*
G37*
%LPC*%
G36*
X390332Y333984D02*
X389542D01*
X388813Y333682D01*
X388255Y333124D01*
X388218Y333036D01*
X387719D01*
X387682Y333124D01*
X387124Y333682D01*
X386395Y333984D01*
X385605D01*
X384876Y333682D01*
X384318Y333124D01*
X384281Y333036D01*
X383782D01*
X383745Y333124D01*
X383187Y333682D01*
X382458Y333984D01*
X381668D01*
X380939Y333682D01*
X380381Y333124D01*
X380079Y332395D01*
Y331605D01*
X380381Y330876D01*
X380939Y330318D01*
X381027Y330281D01*
Y329782D01*
X380939Y329745D01*
X380381Y329187D01*
X380079Y328458D01*
Y327668D01*
X380381Y326939D01*
X380939Y326381D01*
X381668Y326079D01*
X382458D01*
X383187Y326381D01*
X383745Y326939D01*
X383782Y327027D01*
X384281D01*
X384318Y326939D01*
X384876Y326381D01*
X385605Y326079D01*
X386395D01*
X387124Y326381D01*
X387682Y326939D01*
X387719Y327027D01*
X388218D01*
X388255Y326939D01*
X388813Y326381D01*
X389542Y326079D01*
X390332D01*
X391061Y326381D01*
X391619Y326939D01*
X391921Y327668D01*
Y328458D01*
X391619Y329187D01*
X391061Y329745D01*
X390973Y329782D01*
Y330281D01*
X391061Y330318D01*
X391619Y330876D01*
X391921Y331605D01*
Y332395D01*
X391619Y333124D01*
X391061Y333682D01*
X390332Y333984D01*
D02*
G37*
G36*
X301740Y325500D02*
X300945D01*
X300210Y325196D01*
X299647Y324633D01*
X299342Y323898D01*
Y323102D01*
X299647Y322367D01*
X300210Y321804D01*
X300945Y321500D01*
X301740D01*
X302475Y321804D01*
X303038Y322367D01*
X303343Y323102D01*
Y323898D01*
X303038Y324633D01*
X302475Y325196D01*
X301740Y325500D01*
D02*
G37*
G36*
X267898Y318000D02*
X267102D01*
X266367Y317695D01*
X265805Y317133D01*
X265500Y316398D01*
Y316036D01*
X265384Y315928D01*
X265000Y315751D01*
X264398Y316000D01*
X263602D01*
X262867Y315696D01*
X262304Y315133D01*
X262000Y314398D01*
Y313602D01*
X262304Y312867D01*
X262867Y312304D01*
X263602Y312000D01*
X264398D01*
X265133Y312304D01*
X265696Y312867D01*
X266000Y313602D01*
Y313965D01*
X266116Y314072D01*
X266500Y314249D01*
X267102Y314000D01*
X267898D01*
X268633Y314304D01*
X269196Y314867D01*
X269500Y315602D01*
Y316398D01*
X269196Y317133D01*
X268633Y317695D01*
X267898Y318000D01*
D02*
G37*
G36*
X275683Y316647D02*
X274888D01*
X274152Y316342D01*
X273590Y315779D01*
X273377Y315266D01*
X272898Y314984D01*
X272102D01*
X271367Y314680D01*
X270805Y314117D01*
X270500Y313382D01*
Y312586D01*
X270805Y311851D01*
X271367Y311289D01*
X272102Y310984D01*
X272898D01*
X273633Y311289D01*
X274196Y311851D01*
X274408Y312365D01*
X274888Y312647D01*
X275683D01*
X276418Y312951D01*
X276981Y313514D01*
X277285Y314249D01*
Y315044D01*
X276981Y315779D01*
X276418Y316342D01*
X275683Y316647D01*
D02*
G37*
G36*
X308398Y310500D02*
X307602D01*
X306867Y310195D01*
X306305Y309633D01*
X306000Y308898D01*
Y308292D01*
X305624Y307972D01*
X305538Y307942D01*
X305398Y308000D01*
X304602D01*
X303867Y307696D01*
X303305Y307133D01*
X303000Y306398D01*
Y305602D01*
X303305Y304867D01*
X303867Y304305D01*
X304602Y304000D01*
X305398D01*
X306133Y304305D01*
X306696Y304867D01*
X307000Y305602D01*
Y306208D01*
X307376Y306528D01*
X307462Y306558D01*
X307602Y306500D01*
X308398D01*
X309133Y306804D01*
X309696Y307367D01*
X310000Y308102D01*
Y308898D01*
X309696Y309633D01*
X309133Y310195D01*
X308398Y310500D01*
D02*
G37*
G36*
X331898Y307000D02*
X331102D01*
X330367Y306696D01*
X329804Y306133D01*
X329500Y305398D01*
Y304602D01*
X329804Y303867D01*
X330367Y303305D01*
X331102Y303000D01*
X331898D01*
X332633Y303305D01*
X333195Y303867D01*
X333500Y304602D01*
Y305398D01*
X333195Y306133D01*
X332633Y306696D01*
X331898Y307000D01*
D02*
G37*
G36*
X392898Y305000D02*
X392102D01*
X391367Y304696D01*
X390805Y304133D01*
X390500Y303398D01*
Y302602D01*
X390805Y301867D01*
X391367Y301305D01*
X392102Y301000D01*
X392898D01*
X393633Y301305D01*
X394196Y301867D01*
X394500Y302602D01*
Y303398D01*
X394196Y304133D01*
X393633Y304696D01*
X392898Y305000D01*
D02*
G37*
G36*
X309872Y302401D02*
X309076D01*
X308341Y302096D01*
X307778Y301534D01*
X307474Y300799D01*
Y300003D01*
X307778Y299268D01*
X308341Y298705D01*
X309076Y298401D01*
X309872D01*
X310607Y298705D01*
X311170Y299268D01*
X311474Y300003D01*
Y300799D01*
X311170Y301534D01*
X310607Y302096D01*
X309872Y302401D01*
D02*
G37*
G36*
X268819Y299932D02*
X268023D01*
X267288Y299628D01*
X266726Y299065D01*
X266421Y298330D01*
Y297534D01*
X266726Y296799D01*
X267288Y296236D01*
X268023Y295932D01*
X268819D01*
X269554Y296236D01*
X270117Y296799D01*
X270421Y297534D01*
Y298330D01*
X270117Y299065D01*
X269554Y299628D01*
X268819Y299932D01*
D02*
G37*
G36*
X294898Y298500D02*
X294102D01*
X293367Y298196D01*
X292805Y297633D01*
X292500Y296898D01*
Y296102D01*
X292805Y295367D01*
X293367Y294805D01*
X294102Y294500D01*
X294898D01*
X295633Y294805D01*
X296196Y295367D01*
X296500Y296102D01*
Y296898D01*
X296196Y297633D01*
X295633Y298196D01*
X294898Y298500D01*
D02*
G37*
G36*
X383910Y297000D02*
X383114D01*
X382379Y296695D01*
X381816Y296133D01*
X381512Y295398D01*
Y294602D01*
X381816Y293867D01*
X382379Y293304D01*
X383114Y293000D01*
X383910D01*
X384645Y293304D01*
X385207Y293867D01*
X385512Y294602D01*
Y295398D01*
X385207Y296133D01*
X384645Y296695D01*
X383910Y297000D01*
D02*
G37*
G36*
X309612Y296558D02*
X308817D01*
X308081Y296253D01*
X307519Y295691D01*
X307214Y294956D01*
Y294160D01*
X307519Y293425D01*
X308081Y292863D01*
X308817Y292558D01*
X309612D01*
X310347Y292863D01*
X310910Y293425D01*
X311214Y294160D01*
Y294956D01*
X310910Y295691D01*
X310347Y296253D01*
X309612Y296558D01*
D02*
G37*
G36*
X302398Y296500D02*
X301602D01*
X300867Y296196D01*
X300305Y295633D01*
X300000Y294898D01*
Y294102D01*
X300305Y293367D01*
X300867Y292805D01*
X301602Y292500D01*
X302398D01*
X303133Y292805D01*
X303696Y293367D01*
X304000Y294102D01*
Y294898D01*
X303696Y295633D01*
X303133Y296196D01*
X302398Y296500D01*
D02*
G37*
G36*
X272898D02*
X272102D01*
X271367Y296196D01*
X270805Y295633D01*
X270500Y294898D01*
Y294102D01*
X270805Y293367D01*
X271367Y292805D01*
X272102Y292500D01*
X272898D01*
X273633Y292805D01*
X274196Y293367D01*
X274500Y294102D01*
Y294898D01*
X274196Y295633D01*
X273633Y296196D01*
X272898Y296500D01*
D02*
G37*
G36*
X291398Y295500D02*
X290602D01*
X289867Y295196D01*
X289304Y294633D01*
X289000Y293898D01*
Y293102D01*
X289304Y292367D01*
X289867Y291805D01*
X290602Y291500D01*
X291398D01*
X292133Y291805D01*
X292695Y292367D01*
X293000Y293102D01*
Y293898D01*
X292695Y294633D01*
X292133Y295196D01*
X291398Y295500D01*
D02*
G37*
G36*
X266898Y294000D02*
X266102D01*
X265367Y293695D01*
X264805Y293133D01*
X264500Y292398D01*
Y291602D01*
X264805Y290867D01*
X265367Y290304D01*
X266102Y290000D01*
X266898D01*
X267633Y290304D01*
X268196Y290867D01*
X268500Y291602D01*
Y292398D01*
X268196Y293133D01*
X267633Y293695D01*
X266898Y294000D01*
D02*
G37*
G36*
X390898Y292000D02*
X390102D01*
X389367Y291695D01*
X388805Y291133D01*
X388500Y290398D01*
Y289602D01*
X388805Y288867D01*
X389367Y288304D01*
X390102Y288000D01*
X390898D01*
X391633Y288304D01*
X392196Y288867D01*
X392500Y289602D01*
Y290398D01*
X392196Y291133D01*
X391633Y291695D01*
X390898Y292000D01*
D02*
G37*
G36*
X302398D02*
X301602D01*
X300867Y291695D01*
X300305Y291133D01*
X300000Y290398D01*
Y289602D01*
X300305Y288867D01*
X300867Y288304D01*
X301602Y288000D01*
X302398D01*
X303133Y288304D01*
X303696Y288867D01*
X304000Y289602D01*
Y290398D01*
X303696Y291133D01*
X303133Y291695D01*
X302398Y292000D01*
D02*
G37*
G36*
X351398Y291000D02*
X350602D01*
X349867Y290696D01*
X349305Y290133D01*
X349000Y289398D01*
Y288602D01*
X349305Y287867D01*
X349867Y287304D01*
X350602Y287000D01*
X351398D01*
X352133Y287304D01*
X352695Y287867D01*
X353000Y288602D01*
Y289398D01*
X352695Y290133D01*
X352133Y290696D01*
X351398Y291000D01*
D02*
G37*
G36*
X316398Y288500D02*
X315602D01*
X314867Y288195D01*
X314304Y287633D01*
X314000Y286898D01*
Y286102D01*
X314304Y285367D01*
X314867Y284805D01*
X315602Y284500D01*
X316398D01*
X317133Y284805D01*
X317695Y285367D01*
X318000Y286102D01*
Y286898D01*
X317695Y287633D01*
X317133Y288195D01*
X316398Y288500D01*
D02*
G37*
G36*
X289898Y284500D02*
X289102D01*
X288367Y284195D01*
X287805Y283633D01*
X287750Y283501D01*
X287250D01*
X287195Y283633D01*
X286633Y284195D01*
X285898Y284500D01*
X285102D01*
X284367Y284195D01*
X283804Y283633D01*
X283500Y282898D01*
Y282102D01*
X283804Y281367D01*
X284367Y280804D01*
X285102Y280500D01*
X285898D01*
X286633Y280804D01*
X287195Y281367D01*
X287250Y281499D01*
X287750D01*
X287805Y281367D01*
X288367Y280804D01*
X289102Y280500D01*
X289898D01*
X290633Y280804D01*
X291196Y281367D01*
X291500Y282102D01*
Y282898D01*
X291196Y283633D01*
X290633Y284195D01*
X289898Y284500D01*
D02*
G37*
G36*
X402898Y286500D02*
X402102D01*
X401367Y286195D01*
X400805Y285633D01*
X400500Y284898D01*
Y284102D01*
X400805Y283367D01*
X401367Y282804D01*
X402102Y282500D01*
X402898D01*
X403633Y282804D01*
X404195Y283367D01*
X404500Y284102D01*
Y284898D01*
X404195Y285633D01*
X403633Y286195D01*
X402898Y286500D01*
D02*
G37*
G36*
X285898Y278500D02*
X285102D01*
X284367Y278196D01*
X284000Y277828D01*
X283633Y278196D01*
X282898Y278500D01*
X282102D01*
X281367Y278196D01*
X280804Y277633D01*
X280500Y276898D01*
Y276102D01*
X280804Y275367D01*
X281172Y275000D01*
X280804Y274633D01*
X280500Y273898D01*
Y273102D01*
X280804Y272367D01*
X281172Y272000D01*
X280804Y271633D01*
X280500Y270898D01*
Y270102D01*
X280804Y269367D01*
X281367Y268805D01*
X282102Y268500D01*
X282898D01*
X283633Y268805D01*
X284000Y269172D01*
X284367Y268805D01*
X285102Y268500D01*
X285898D01*
X286633Y268805D01*
X287195Y269367D01*
X287500Y270102D01*
Y270898D01*
X287195Y271633D01*
X286828Y272000D01*
X287195Y272367D01*
X287500Y273102D01*
Y273898D01*
X287195Y274633D01*
X286828Y275000D01*
X287195Y275367D01*
X287500Y276102D01*
Y276898D01*
X287195Y277633D01*
X286633Y278196D01*
X285898Y278500D01*
D02*
G37*
G36*
X337398Y280000D02*
X336602D01*
X335867Y279696D01*
X335304Y279133D01*
X335000Y278398D01*
Y277602D01*
X335304Y276867D01*
X335867Y276305D01*
X336602Y276000D01*
X337398D01*
X338133Y276305D01*
X338696Y276867D01*
X339000Y277602D01*
Y278398D01*
X338696Y279133D01*
X338133Y279696D01*
X337398Y280000D01*
D02*
G37*
G36*
X373398Y276500D02*
X372602D01*
X371867Y276196D01*
X371304Y275633D01*
X371000Y274898D01*
Y274102D01*
X371304Y273367D01*
X371867Y272804D01*
X372602Y272500D01*
X373398D01*
X374133Y272804D01*
X374695Y273367D01*
X375000Y274102D01*
Y274898D01*
X374695Y275633D01*
X374133Y276196D01*
X373398Y276500D01*
D02*
G37*
G36*
X340898D02*
X340102D01*
X339367Y276196D01*
X338805Y275633D01*
X338500Y274898D01*
Y274102D01*
X338805Y273367D01*
X339367Y272804D01*
X340102Y272500D01*
X340898D01*
X341633Y272804D01*
X342196Y273367D01*
X342500Y274102D01*
Y274898D01*
X342196Y275633D01*
X341633Y276196D01*
X340898Y276500D01*
D02*
G37*
G36*
X344898Y273000D02*
X344102D01*
X343367Y272695D01*
X342805Y272133D01*
X342500Y271398D01*
Y270602D01*
X342805Y269867D01*
X343367Y269304D01*
X344102Y269000D01*
X344898D01*
X345633Y269304D01*
X346196Y269867D01*
X346500Y270602D01*
Y271398D01*
X346196Y272133D01*
X345633Y272695D01*
X344898Y273000D01*
D02*
G37*
G36*
X367398Y272500D02*
X366602D01*
X365867Y272196D01*
X365304Y271633D01*
X365000Y270898D01*
Y270102D01*
X365304Y269367D01*
X365867Y268805D01*
X366602Y268500D01*
X367398D01*
X368133Y268805D01*
X368695Y269367D01*
X369000Y270102D01*
Y270898D01*
X368695Y271633D01*
X368133Y272196D01*
X367398Y272500D01*
D02*
G37*
G36*
X387308Y271031D02*
X386512D01*
X385777Y270726D01*
X385214Y270164D01*
X384910Y269429D01*
Y268633D01*
X385214Y267898D01*
X385392Y267720D01*
X385304Y267633D01*
X385000Y266898D01*
Y266102D01*
X385304Y265367D01*
X385867Y264805D01*
X386602Y264500D01*
X387398D01*
X388133Y264805D01*
X388696Y265367D01*
X389000Y266102D01*
Y266898D01*
X388696Y267633D01*
X388518Y267811D01*
X388605Y267898D01*
X388910Y268633D01*
Y269429D01*
X388605Y270164D01*
X388043Y270726D01*
X387308Y271031D01*
D02*
G37*
G36*
X381398Y271000D02*
X380602D01*
X379867Y270695D01*
X379305Y270133D01*
X379000Y269398D01*
Y268602D01*
X379305Y267867D01*
X379354Y267818D01*
X379169Y267633D01*
X378865Y266898D01*
Y266102D01*
X379169Y265367D01*
X379732Y264805D01*
X380467Y264500D01*
X381262D01*
X381998Y264805D01*
X382560Y265367D01*
X382865Y266102D01*
Y266898D01*
X382560Y267633D01*
X382511Y267682D01*
X382696Y267867D01*
X383000Y268602D01*
Y269398D01*
X382696Y270133D01*
X382133Y270695D01*
X381398Y271000D01*
D02*
G37*
G36*
X353961Y265961D02*
X347039D01*
Y259039D01*
X353961D01*
Y265961D01*
D02*
G37*
G36*
X330956D02*
X330044D01*
X329164Y265725D01*
X328375Y265269D01*
X327731Y264625D01*
X327275Y263836D01*
X327039Y262956D01*
Y262044D01*
X327275Y261164D01*
X327731Y260375D01*
X328375Y259731D01*
X329164Y259275D01*
X330044Y259039D01*
X330956D01*
X331836Y259275D01*
X332625Y259731D01*
X333269Y260375D01*
X333725Y261164D01*
X333961Y262044D01*
Y262956D01*
X333725Y263836D01*
X333269Y264625D01*
X332625Y265269D01*
X331836Y265725D01*
X330956Y265961D01*
D02*
G37*
G36*
X273398Y262000D02*
X272602D01*
X271867Y261696D01*
X271304Y261133D01*
X271000Y260398D01*
Y259602D01*
X271304Y258867D01*
X271867Y258305D01*
X272602Y258000D01*
X273398D01*
X274133Y258305D01*
X274695Y258867D01*
X275000Y259602D01*
Y260398D01*
X274695Y261133D01*
X274133Y261696D01*
X273398Y262000D01*
D02*
G37*
G36*
X388335Y259563D02*
X387539D01*
X386804Y259259D01*
X386242Y258696D01*
X385937Y257961D01*
Y257165D01*
X386242Y256430D01*
X386804Y255868D01*
X387539Y255563D01*
X388335D01*
X389070Y255868D01*
X389633Y256430D01*
X389937Y257165D01*
Y257961D01*
X389633Y258696D01*
X389070Y259259D01*
X388335Y259563D01*
D02*
G37*
G36*
X340956Y255961D02*
X340044D01*
X339164Y255725D01*
X338375Y255269D01*
X337731Y254625D01*
X337275Y253836D01*
X337039Y252956D01*
Y252044D01*
X337275Y251164D01*
X337731Y250375D01*
X338375Y249731D01*
X339164Y249275D01*
X340044Y249039D01*
X340956D01*
X341836Y249275D01*
X342625Y249731D01*
X343269Y250375D01*
X343725Y251164D01*
X343961Y252044D01*
Y252956D01*
X343725Y253836D01*
X343269Y254625D01*
X342625Y255269D01*
X341836Y255725D01*
X340956Y255961D01*
D02*
G37*
G36*
X383398Y252000D02*
X382602D01*
X381867Y251695D01*
X381305Y251133D01*
X381000Y250398D01*
Y249602D01*
X381305Y248867D01*
X381867Y248305D01*
X382602Y248000D01*
X383398D01*
X384133Y248305D01*
X384696Y248867D01*
X385000Y249602D01*
Y250398D01*
X384696Y251133D01*
X384133Y251695D01*
X383398Y252000D01*
D02*
G37*
G36*
X378526Y240343D02*
X377474D01*
X376459Y240071D01*
X375549Y239545D01*
X374805Y238802D01*
X374280Y237891D01*
X374008Y236876D01*
Y235825D01*
X374280Y234810D01*
X374805Y233899D01*
X375549Y233156D01*
X376459Y232630D01*
X377474Y232358D01*
X378526D01*
X379541Y232630D01*
X380451Y233156D01*
X381194Y233899D01*
X381720Y234810D01*
X381992Y235825D01*
Y236876D01*
X381720Y237891D01*
X381194Y238802D01*
X380451Y239545D01*
X379541Y240071D01*
X378526Y240343D01*
D02*
G37*
G36*
X368526D02*
X367474D01*
X366459Y240071D01*
X365549Y239545D01*
X364806Y238802D01*
X364280Y237891D01*
X364008Y236876D01*
Y235825D01*
X364280Y234810D01*
X364806Y233899D01*
X365549Y233156D01*
X366459Y232630D01*
X367474Y232358D01*
X368526D01*
X369541Y232630D01*
X370451Y233156D01*
X371195Y233899D01*
X371720Y234810D01*
X371992Y235825D01*
Y236876D01*
X371720Y237891D01*
X371195Y238802D01*
X370451Y239545D01*
X369541Y240071D01*
X368526Y240343D01*
D02*
G37*
G36*
X358526D02*
X357474D01*
X356459Y240071D01*
X355549Y239545D01*
X354805Y238802D01*
X354280Y237891D01*
X354008Y236876D01*
Y235825D01*
X354280Y234810D01*
X354805Y233899D01*
X355549Y233156D01*
X356459Y232630D01*
X357474Y232358D01*
X358526D01*
X359541Y232630D01*
X360451Y233156D01*
X361194Y233899D01*
X361720Y234810D01*
X361992Y235825D01*
Y236876D01*
X361720Y237891D01*
X361194Y238802D01*
X360451Y239545D01*
X359541Y240071D01*
X358526Y240343D01*
D02*
G37*
G36*
X348526D02*
X347474D01*
X346459Y240071D01*
X345549Y239545D01*
X344806Y238802D01*
X344280Y237891D01*
X344008Y236876D01*
Y235825D01*
X344280Y234810D01*
X344806Y233899D01*
X345549Y233156D01*
X346459Y232630D01*
X347474Y232358D01*
X348526D01*
X349541Y232630D01*
X350451Y233156D01*
X351195Y233899D01*
X351720Y234810D01*
X351992Y235825D01*
Y236876D01*
X351720Y237891D01*
X351195Y238802D01*
X350451Y239545D01*
X349541Y240071D01*
X348526Y240343D01*
D02*
G37*
G36*
X338526D02*
X337474D01*
X336459Y240071D01*
X335549Y239545D01*
X334805Y238802D01*
X334280Y237891D01*
X334008Y236876D01*
Y235825D01*
X334280Y234810D01*
X334805Y233899D01*
X335549Y233156D01*
X336459Y232630D01*
X337474Y232358D01*
X338526D01*
X339541Y232630D01*
X340451Y233156D01*
X341195Y233899D01*
X341720Y234810D01*
X341992Y235825D01*
Y236876D01*
X341720Y237891D01*
X341195Y238802D01*
X340451Y239545D01*
X339541Y240071D01*
X338526Y240343D01*
D02*
G37*
G36*
X328526D02*
X327474D01*
X326459Y240071D01*
X325549Y239545D01*
X324805Y238802D01*
X324280Y237891D01*
X324008Y236876D01*
Y235825D01*
X324280Y234810D01*
X324805Y233899D01*
X325549Y233156D01*
X326459Y232630D01*
X327474Y232358D01*
X328526D01*
X329541Y232630D01*
X330451Y233156D01*
X331194Y233899D01*
X331720Y234810D01*
X331992Y235825D01*
Y236876D01*
X331720Y237891D01*
X331194Y238802D01*
X330451Y239545D01*
X329541Y240071D01*
X328526Y240343D01*
D02*
G37*
G36*
X318526D02*
X317474D01*
X316459Y240071D01*
X315549Y239545D01*
X314806Y238802D01*
X314280Y237891D01*
X314008Y236876D01*
Y235825D01*
X314280Y234810D01*
X314806Y233899D01*
X315549Y233156D01*
X316459Y232630D01*
X317474Y232358D01*
X318526D01*
X319541Y232630D01*
X320451Y233156D01*
X321195Y233899D01*
X321720Y234810D01*
X321992Y235825D01*
Y236876D01*
X321720Y237891D01*
X321195Y238802D01*
X320451Y239545D01*
X319541Y240071D01*
X318526Y240343D01*
D02*
G37*
G36*
X308526D02*
X307474D01*
X306459Y240071D01*
X305549Y239545D01*
X304805Y238802D01*
X304280Y237891D01*
X304008Y236876D01*
Y235825D01*
X304280Y234810D01*
X304805Y233899D01*
X305549Y233156D01*
X306459Y232630D01*
X307474Y232358D01*
X308526D01*
X309541Y232630D01*
X310451Y233156D01*
X311194Y233899D01*
X311720Y234810D01*
X311992Y235825D01*
Y236876D01*
X311720Y237891D01*
X311194Y238802D01*
X310451Y239545D01*
X309541Y240071D01*
X308526Y240343D01*
D02*
G37*
G36*
X289496Y240391D02*
X286504D01*
X285530Y240198D01*
X284704Y239646D01*
X284153Y238821D01*
X283959Y237847D01*
Y234855D01*
X284153Y233880D01*
X284704Y233055D01*
X285530Y232503D01*
X286504Y232310D01*
X289496D01*
X290470Y232503D01*
X291296Y233055D01*
X291847Y233880D01*
X292041Y234855D01*
Y237847D01*
X291847Y238821D01*
X291296Y239646D01*
X290470Y240198D01*
X289496Y240391D01*
D02*
G37*
G36*
X402898Y416500D02*
X402102D01*
X401367Y416195D01*
X400805Y415633D01*
X400750Y415501D01*
X400250D01*
X400196Y415633D01*
X399633Y416195D01*
X398898Y416500D01*
X398102D01*
X397367Y416195D01*
X396804Y415633D01*
X396500Y414898D01*
Y414102D01*
X396804Y413367D01*
X397367Y412805D01*
X398102Y412500D01*
X398898D01*
X399633Y412805D01*
X400196Y413367D01*
X400250Y413499D01*
X400750D01*
X400805Y413367D01*
X401367Y412805D01*
X402102Y412500D01*
X402898D01*
X403633Y412805D01*
X404195Y413367D01*
X404500Y414102D01*
Y414898D01*
X404195Y415633D01*
X403633Y416195D01*
X402898Y416500D01*
D02*
G37*
G36*
X268898D02*
X268102D01*
X267367Y416195D01*
X266805Y415633D01*
X266750Y415501D01*
X266250D01*
X266196Y415633D01*
X265633Y416195D01*
X264898Y416500D01*
X264102D01*
X263367Y416195D01*
X262805Y415633D01*
X262500Y414898D01*
Y414102D01*
X262805Y413367D01*
X263367Y412805D01*
X264102Y412500D01*
X264898D01*
X265633Y412805D01*
X266196Y413367D01*
X266250Y413499D01*
X266750D01*
X266805Y413367D01*
X267367Y412805D01*
X268102Y412500D01*
X268898D01*
X269633Y412805D01*
X270196Y413367D01*
X270500Y414102D01*
Y414898D01*
X270196Y415633D01*
X269633Y416195D01*
X268898Y416500D01*
D02*
G37*
G36*
X402898Y412000D02*
X402102D01*
X401367Y411695D01*
X400805Y411133D01*
X400750Y411001D01*
X400250D01*
X400196Y411133D01*
X399633Y411695D01*
X398898Y412000D01*
X398102D01*
X397367Y411695D01*
X396804Y411133D01*
X396500Y410398D01*
Y409602D01*
X396804Y408867D01*
X397367Y408305D01*
X398102Y408000D01*
X398898D01*
X399633Y408305D01*
X400196Y408867D01*
X400250Y408999D01*
X400750D01*
X400805Y408867D01*
X401367Y408305D01*
X402102Y408000D01*
X402898D01*
X403633Y408305D01*
X404195Y408867D01*
X404500Y409602D01*
Y410398D01*
X404195Y411133D01*
X403633Y411695D01*
X402898Y412000D01*
D02*
G37*
G36*
X268898D02*
X268102D01*
X267367Y411695D01*
X266805Y411133D01*
X266750Y411001D01*
X266250D01*
X266196Y411133D01*
X265633Y411695D01*
X264898Y412000D01*
X264102D01*
X263367Y411695D01*
X262805Y411133D01*
X262500Y410398D01*
Y409602D01*
X262805Y408867D01*
X263367Y408305D01*
X264102Y408000D01*
X264898D01*
X265633Y408305D01*
X266196Y408867D01*
X266250Y408999D01*
X266750D01*
X266805Y408867D01*
X267367Y408305D01*
X268102Y408000D01*
X268898D01*
X269633Y408305D01*
X270196Y408867D01*
X270500Y409602D01*
Y410398D01*
X270196Y411133D01*
X269633Y411695D01*
X268898Y412000D01*
D02*
G37*
G36*
X342398Y414070D02*
X341602D01*
X340867Y413766D01*
X340304Y413203D01*
X340000Y412468D01*
Y411672D01*
X340304Y410937D01*
X340867Y410374D01*
X341602Y410070D01*
X342398D01*
X343133Y410374D01*
X343695Y410937D01*
X344000Y411672D01*
Y412468D01*
X343695Y413203D01*
X343133Y413766D01*
X342398Y414070D01*
D02*
G37*
G36*
X318898Y413000D02*
X318102D01*
X317367Y412696D01*
X316805Y412133D01*
X316500Y411398D01*
Y410602D01*
X316805Y409867D01*
X317367Y409305D01*
X318102Y409000D01*
X318898D01*
X319633Y409305D01*
X320196Y409867D01*
X320500Y410602D01*
Y411398D01*
X320196Y412133D01*
X319633Y412696D01*
X318898Y413000D01*
D02*
G37*
G36*
X342398Y408570D02*
X341602D01*
X340867Y408266D01*
X340304Y407703D01*
X340000Y406968D01*
Y406172D01*
X340304Y405437D01*
X340867Y404875D01*
X341602Y404570D01*
X342398D01*
X343133Y404875D01*
X343695Y405437D01*
X344000Y406172D01*
Y406968D01*
X343695Y407703D01*
X343133Y408266D01*
X342398Y408570D01*
D02*
G37*
G36*
X330398D02*
X329602D01*
X328867Y408266D01*
X328305Y407703D01*
X328000Y406968D01*
Y406172D01*
X328305Y405437D01*
X328867Y404875D01*
X329602Y404570D01*
X330398D01*
X331133Y404875D01*
X331696Y405437D01*
X332000Y406172D01*
Y406968D01*
X331696Y407703D01*
X331133Y408266D01*
X330398Y408570D01*
D02*
G37*
G36*
X318898Y407500D02*
X318102D01*
X317367Y407196D01*
X316805Y406633D01*
X316500Y405898D01*
Y405102D01*
X316805Y404367D01*
X317367Y403804D01*
X318102Y403500D01*
X318898D01*
X319633Y403804D01*
X320196Y404367D01*
X320500Y405102D01*
Y405898D01*
X320196Y406633D01*
X319633Y407196D01*
X318898Y407500D01*
D02*
G37*
G36*
X342398Y403070D02*
X341602D01*
X340867Y402766D01*
X340304Y402203D01*
X340000Y401468D01*
Y400672D01*
X340304Y399937D01*
X340867Y399375D01*
X341602Y399070D01*
X342398D01*
X343133Y399375D01*
X343695Y399937D01*
X344000Y400672D01*
Y401468D01*
X343695Y402203D01*
X343133Y402766D01*
X342398Y403070D01*
D02*
G37*
G36*
X330398Y403000D02*
X329602D01*
X328867Y402696D01*
X328305Y402133D01*
X328000Y401398D01*
Y400602D01*
X328305Y399867D01*
X328867Y399305D01*
X329602Y399000D01*
X330398D01*
X331133Y399305D01*
X331696Y399867D01*
X332000Y400602D01*
Y401398D01*
X331696Y402133D01*
X331133Y402696D01*
X330398Y403000D01*
D02*
G37*
G36*
X318898Y402500D02*
X318102D01*
X317367Y402196D01*
X316805Y401633D01*
X316500Y400898D01*
Y400102D01*
X316805Y399367D01*
X317367Y398804D01*
X318102Y398500D01*
X318898D01*
X319633Y398804D01*
X320196Y399367D01*
X320500Y400102D01*
Y400898D01*
X320196Y401633D01*
X319633Y402196D01*
X318898Y402500D01*
D02*
G37*
G36*
X402898Y397000D02*
X402102D01*
X401367Y396695D01*
X400805Y396133D01*
X400750Y396001D01*
X400250D01*
X400196Y396133D01*
X399633Y396695D01*
X398898Y397000D01*
X398102D01*
X397367Y396695D01*
X396804Y396133D01*
X396500Y395398D01*
Y394602D01*
X396804Y393867D01*
X397367Y393304D01*
X398102Y393000D01*
X398898D01*
X399633Y393304D01*
X400196Y393867D01*
X400250Y393999D01*
X400750D01*
X400805Y393867D01*
X401367Y393304D01*
X402102Y393000D01*
X402898D01*
X403633Y393304D01*
X404195Y393867D01*
X404500Y394602D01*
Y395398D01*
X404195Y396133D01*
X403633Y396695D01*
X402898Y397000D01*
D02*
G37*
G36*
X268898Y395500D02*
X268102D01*
X267367Y395196D01*
X266805Y394633D01*
X266750Y394501D01*
X266250D01*
X266196Y394633D01*
X265633Y395196D01*
X264898Y395500D01*
X264102D01*
X263367Y395196D01*
X262805Y394633D01*
X262500Y393898D01*
Y393102D01*
X262805Y392367D01*
X263367Y391805D01*
X264102Y391500D01*
X264898D01*
X265633Y391805D01*
X266196Y392367D01*
X266250Y392499D01*
X266750D01*
X266805Y392367D01*
X267367Y391805D01*
X268102Y391500D01*
X268898D01*
X269633Y391805D01*
X270196Y392367D01*
X270500Y393102D01*
Y393898D01*
X270196Y394633D01*
X269633Y395196D01*
X268898Y395500D01*
D02*
G37*
G36*
X342398Y398070D02*
X341602D01*
X340867Y397766D01*
X340304Y397203D01*
X340000Y396468D01*
Y395672D01*
X340304Y394937D01*
X340867Y394374D01*
X341602Y394070D01*
X342398D01*
X343133Y394374D01*
X343695Y394937D01*
X344000Y395672D01*
Y396468D01*
X343695Y397203D01*
X343133Y397766D01*
X342398Y398070D01*
D02*
G37*
G36*
X330398D02*
X329602D01*
X328867Y397766D01*
X328305Y397203D01*
X328000Y396468D01*
Y395672D01*
X328305Y394937D01*
X328867Y394374D01*
X329602Y394070D01*
X330398D01*
X331133Y394374D01*
X331696Y394937D01*
X332000Y395672D01*
Y396468D01*
X331696Y397203D01*
X331133Y397766D01*
X330398Y398070D01*
D02*
G37*
G36*
X324398Y398000D02*
X323602D01*
X322867Y397695D01*
X322305Y397133D01*
X322000Y396398D01*
Y395602D01*
X322305Y394867D01*
X322867Y394304D01*
X323602Y394000D01*
X324398D01*
X325133Y394304D01*
X325695Y394867D01*
X326000Y395602D01*
Y396398D01*
X325695Y397133D01*
X325133Y397695D01*
X324398Y398000D01*
D02*
G37*
G36*
X318898D02*
X318102D01*
X317367Y397695D01*
X316805Y397133D01*
X316500Y396398D01*
Y395602D01*
X316805Y394867D01*
X317367Y394304D01*
X318102Y394000D01*
X318898D01*
X319633Y394304D01*
X320196Y394867D01*
X320500Y395602D01*
Y396398D01*
X320196Y397133D01*
X319633Y397695D01*
X318898Y398000D01*
D02*
G37*
G36*
X402898Y392500D02*
X402102D01*
X401367Y392196D01*
X400805Y391633D01*
X400750Y391501D01*
X400250D01*
X400196Y391633D01*
X399633Y392196D01*
X398898Y392500D01*
X398102D01*
X397367Y392196D01*
X396804Y391633D01*
X396500Y390898D01*
Y390102D01*
X396804Y389367D01*
X397367Y388805D01*
X398102Y388500D01*
X398898D01*
X399633Y388805D01*
X400196Y389367D01*
X400250Y389499D01*
X400750D01*
X400805Y389367D01*
X401367Y388805D01*
X402102Y388500D01*
X402898D01*
X403633Y388805D01*
X404195Y389367D01*
X404500Y390102D01*
Y390898D01*
X404195Y391633D01*
X403633Y392196D01*
X402898Y392500D01*
D02*
G37*
G36*
X268898Y391000D02*
X268102D01*
X267367Y390696D01*
X266805Y390133D01*
X266750Y390001D01*
X266250D01*
X266196Y390133D01*
X265633Y390696D01*
X264898Y391000D01*
X264102D01*
X263367Y390696D01*
X262805Y390133D01*
X262500Y389398D01*
Y388602D01*
X262805Y387867D01*
X263367Y387304D01*
X264102Y387000D01*
X264898D01*
X265633Y387304D01*
X266196Y387867D01*
X266250Y387999D01*
X266750D01*
X266805Y387867D01*
X267367Y387304D01*
X268102Y387000D01*
X268898D01*
X269633Y387304D01*
X270196Y387867D01*
X270500Y388602D01*
Y389398D01*
X270196Y390133D01*
X269633Y390696D01*
X268898Y391000D01*
D02*
G37*
G36*
X342398Y393070D02*
X341602D01*
X340867Y392766D01*
X340304Y392203D01*
X340000Y391468D01*
Y390672D01*
X340304Y389937D01*
X340867Y389374D01*
X341602Y389070D01*
X342398D01*
X343133Y389374D01*
X343695Y389937D01*
X344000Y390672D01*
Y391468D01*
X343695Y392203D01*
X343133Y392766D01*
X342398Y393070D01*
D02*
G37*
G36*
X319398Y390500D02*
X318602D01*
X317867Y390195D01*
X317304Y389633D01*
X317000Y388898D01*
Y388102D01*
X317304Y387367D01*
X317867Y386805D01*
X318602Y386500D01*
X319398D01*
X320133Y386805D01*
X320695Y387367D01*
X321000Y388102D01*
Y388898D01*
X320695Y389633D01*
X320133Y390195D01*
X319398Y390500D01*
D02*
G37*
G36*
X314398D02*
X313602D01*
X312867Y390195D01*
X312304Y389633D01*
X312000Y388898D01*
Y388102D01*
X312304Y387367D01*
X312867Y386805D01*
X313602Y386500D01*
X314398D01*
X315133Y386805D01*
X315696Y387367D01*
X316000Y388102D01*
Y388898D01*
X315696Y389633D01*
X315133Y390195D01*
X314398Y390500D01*
D02*
G37*
G36*
X330398Y393070D02*
X329602D01*
X328867Y392766D01*
X328305Y392203D01*
X328000Y391468D01*
Y390672D01*
X328305Y389937D01*
X328867Y389374D01*
X328999Y389320D01*
Y388820D01*
X328867Y388766D01*
X328305Y388203D01*
X328000Y387468D01*
Y386672D01*
X328305Y385937D01*
X328867Y385374D01*
X329602Y385070D01*
X330398D01*
X331133Y385374D01*
X331696Y385937D01*
X332000Y386672D01*
Y387468D01*
X331696Y388203D01*
X331133Y388766D01*
X331001Y388820D01*
Y389320D01*
X331133Y389374D01*
X331696Y389937D01*
X332000Y390672D01*
Y391468D01*
X331696Y392203D01*
X331133Y392766D01*
X330398Y393070D01*
D02*
G37*
G36*
X342398Y387570D02*
X341602D01*
X340867Y387266D01*
X340304Y386703D01*
X340000Y385968D01*
Y385172D01*
X340304Y384437D01*
X340867Y383875D01*
X341602Y383570D01*
X342398D01*
X343133Y383875D01*
X343695Y384437D01*
X344000Y385172D01*
Y385968D01*
X343695Y386703D01*
X343133Y387266D01*
X342398Y387570D01*
D02*
G37*
G36*
X314398Y385500D02*
X313602D01*
X312867Y385195D01*
X312304Y384633D01*
X312000Y383898D01*
Y383102D01*
X312304Y382367D01*
X312867Y381804D01*
X313602Y381500D01*
X314398D01*
X315133Y381804D01*
X315696Y382367D01*
X316000Y383102D01*
Y383898D01*
X315696Y384633D01*
X315133Y385195D01*
X314398Y385500D01*
D02*
G37*
G36*
X330398Y384570D02*
X329602D01*
X328867Y384266D01*
X328305Y383703D01*
X328000Y382968D01*
Y382172D01*
X328305Y381437D01*
X328867Y380874D01*
X329602Y380570D01*
X330398D01*
X331133Y380874D01*
X331696Y381437D01*
X332000Y382172D01*
Y382968D01*
X331696Y383703D01*
X331133Y384266D01*
X330398Y384570D01*
D02*
G37*
G36*
X342398Y383070D02*
X341602D01*
X340867Y382766D01*
X340304Y382203D01*
X340000Y381468D01*
Y380672D01*
X340304Y379937D01*
X340867Y379375D01*
X341602Y379070D01*
X342398D01*
X343133Y379375D01*
X343695Y379937D01*
X344000Y380672D01*
Y381468D01*
X343695Y382203D01*
X343133Y382766D01*
X342398Y383070D01*
D02*
G37*
G36*
X319398Y379000D02*
X318602D01*
X317867Y378696D01*
X317500Y378328D01*
X317133Y378696D01*
X316398Y379000D01*
X315602D01*
X314867Y378696D01*
X314577Y378405D01*
X314250Y378172D01*
X313923Y378405D01*
X313633Y378696D01*
X312898Y379000D01*
X312102D01*
X311367Y378696D01*
X310805Y378133D01*
X310500Y377398D01*
Y376602D01*
X310805Y375867D01*
X311367Y375305D01*
X312102Y375000D01*
X312898D01*
X313633Y375305D01*
X313923Y375595D01*
X314250Y375828D01*
X314577Y375595D01*
X314867Y375305D01*
X315602Y375000D01*
X316398D01*
X317133Y375305D01*
X317500Y375672D01*
X317867Y375305D01*
X318602Y375000D01*
X319398D01*
X320133Y375305D01*
X320695Y375867D01*
X321000Y376602D01*
Y377398D01*
X320695Y378133D01*
X320133Y378696D01*
X319398Y379000D01*
D02*
G37*
G36*
X402898Y378000D02*
X402102D01*
X401367Y377695D01*
X400805Y377133D01*
X400750Y377001D01*
X400250D01*
X400196Y377133D01*
X399633Y377695D01*
X398898Y378000D01*
X398102D01*
X397367Y377695D01*
X396804Y377133D01*
X396500Y376398D01*
Y375602D01*
X396804Y374867D01*
X397367Y374305D01*
X398102Y374000D01*
X398898D01*
X399633Y374305D01*
X400196Y374867D01*
X400250Y374999D01*
X400750D01*
X400805Y374867D01*
X401367Y374305D01*
X402102Y374000D01*
X402898D01*
X403633Y374305D01*
X404195Y374867D01*
X404500Y375602D01*
Y376398D01*
X404195Y377133D01*
X403633Y377695D01*
X402898Y378000D01*
D02*
G37*
G36*
X268898Y375000D02*
X268102D01*
X267367Y374695D01*
X266805Y374133D01*
X266750Y374001D01*
X266250D01*
X266196Y374133D01*
X265633Y374695D01*
X264898Y375000D01*
X264102D01*
X263367Y374695D01*
X262805Y374133D01*
X262500Y373398D01*
Y372602D01*
X262805Y371867D01*
X263367Y371304D01*
X264102Y371000D01*
X264898D01*
X265633Y371304D01*
X266196Y371867D01*
X266250Y371999D01*
X266750D01*
X266805Y371867D01*
X267367Y371304D01*
X268102Y371000D01*
X268898D01*
X269633Y371304D01*
X270196Y371867D01*
X270500Y372602D01*
Y373398D01*
X270196Y374133D01*
X269633Y374695D01*
X268898Y375000D01*
D02*
G37*
G36*
X347898Y377500D02*
X347102D01*
X346367Y377196D01*
X345805Y376633D01*
X345500Y375898D01*
Y375102D01*
X345805Y374367D01*
X346367Y373804D01*
X347102Y373500D01*
X347898D01*
X348633Y373804D01*
X349196Y374367D01*
X349500Y375102D01*
Y375898D01*
X349196Y376633D01*
X348633Y377196D01*
X347898Y377500D01*
D02*
G37*
G36*
X402898Y373500D02*
X402102D01*
X401367Y373196D01*
X400805Y372633D01*
X400750Y372501D01*
X400250D01*
X400196Y372633D01*
X399633Y373196D01*
X398898Y373500D01*
X398102D01*
X397367Y373196D01*
X396804Y372633D01*
X396500Y371898D01*
Y371102D01*
X396804Y370367D01*
X397367Y369805D01*
X398102Y369500D01*
X398898D01*
X399633Y369805D01*
X400196Y370367D01*
X400250Y370499D01*
X400750D01*
X400805Y370367D01*
X401367Y369805D01*
X402102Y369500D01*
X402898D01*
X403633Y369805D01*
X404195Y370367D01*
X404500Y371102D01*
Y371898D01*
X404195Y372633D01*
X403633Y373196D01*
X402898Y373500D01*
D02*
G37*
G36*
X268898Y370500D02*
X268102D01*
X267367Y370196D01*
X266805Y369633D01*
X266750Y369501D01*
X266250D01*
X266196Y369633D01*
X265633Y370196D01*
X264898Y370500D01*
X264102D01*
X263367Y370196D01*
X262805Y369633D01*
X262500Y368898D01*
Y368102D01*
X262805Y367367D01*
X263367Y366805D01*
X264102Y366500D01*
X264898D01*
X265633Y366805D01*
X266196Y367367D01*
X266250Y367499D01*
X266750D01*
X266805Y367367D01*
X267367Y366805D01*
X268102Y366500D01*
X268898D01*
X269633Y366805D01*
X270196Y367367D01*
X270500Y368102D01*
Y368898D01*
X270196Y369633D01*
X269633Y370196D01*
X268898Y370500D01*
D02*
G37*
G36*
X342398Y373000D02*
X341602D01*
X340867Y372695D01*
X340304Y372133D01*
X340000Y371398D01*
Y370602D01*
X340304Y369867D01*
X340867Y369304D01*
X341602Y369000D01*
X342398D01*
X343133Y369304D01*
X343695Y369867D01*
X344000Y370602D01*
Y371398D01*
X343695Y372133D01*
X343133Y372695D01*
X342398Y373000D01*
D02*
G37*
G36*
X337922Y368348D02*
X337126D01*
X336391Y368043D01*
X335991Y367643D01*
X335623Y368011D01*
X334888Y368316D01*
X334092D01*
X333357Y368011D01*
X332794Y367449D01*
X332490Y366714D01*
Y365918D01*
X332794Y365183D01*
X333162Y364815D01*
X332794Y364447D01*
X332490Y363712D01*
Y362916D01*
X332794Y362181D01*
X333357Y361618D01*
X334092Y361314D01*
X334888D01*
X335623Y361618D01*
X336023Y362019D01*
X336343Y361699D01*
X337078Y361395D01*
X337874D01*
X338609Y361699D01*
X339171Y362262D01*
X339476Y362997D01*
Y363792D01*
X339171Y364527D01*
X338852Y364847D01*
X339220Y365215D01*
X339524Y365950D01*
Y366746D01*
X339220Y367481D01*
X338657Y368043D01*
X337922Y368348D01*
D02*
G37*
G36*
X314398Y373000D02*
X313602D01*
X312867Y372695D01*
X312304Y372133D01*
X312000Y371398D01*
Y370602D01*
X312304Y369867D01*
X312867Y369304D01*
X312999Y369250D01*
Y368750D01*
X312867Y368695D01*
X312304Y368133D01*
X312000Y367398D01*
Y366602D01*
X312304Y365867D01*
X312867Y365304D01*
X313602Y365000D01*
X314398D01*
X315133Y365304D01*
X315696Y365867D01*
X316000Y366602D01*
Y367398D01*
X315696Y368133D01*
X315133Y368695D01*
X315001Y368750D01*
Y369250D01*
X315133Y369304D01*
X315696Y369867D01*
X316000Y370602D01*
Y371398D01*
X315696Y372133D01*
X315133Y372695D01*
X314398Y373000D01*
D02*
G37*
G36*
X347898Y368570D02*
X347102D01*
X346367Y368266D01*
X345805Y367703D01*
X345500Y366968D01*
Y366172D01*
X345805Y365437D01*
X346367Y364875D01*
X347102Y364570D01*
X347898D01*
X348633Y364875D01*
X349196Y365437D01*
X349500Y366172D01*
Y366968D01*
X349196Y367703D01*
X348633Y368266D01*
X347898Y368570D01*
D02*
G37*
G36*
X314398Y364500D02*
X313602D01*
X312867Y364195D01*
X312304Y363633D01*
X312000Y362898D01*
Y362102D01*
X312304Y361367D01*
X312867Y360805D01*
X313602Y360500D01*
X314398D01*
X315133Y360805D01*
X315696Y361367D01*
X316000Y362102D01*
Y362898D01*
X315696Y363633D01*
X315133Y364195D01*
X314398Y364500D01*
D02*
G37*
G36*
X347898Y364070D02*
X347102D01*
X346367Y363766D01*
X345805Y363203D01*
X345500Y362468D01*
Y361672D01*
X345805Y360937D01*
X346367Y360374D01*
X347102Y360070D01*
X347898D01*
X348633Y360374D01*
X349196Y360937D01*
X349500Y361672D01*
Y362468D01*
X349196Y363203D01*
X348633Y363766D01*
X347898Y364070D01*
D02*
G37*
G36*
X342398Y360070D02*
X341602D01*
X340867Y359766D01*
X340304Y359203D01*
X340000Y358468D01*
Y357672D01*
X340304Y356937D01*
X340867Y356375D01*
X341602Y356070D01*
X342398D01*
X343133Y356375D01*
X343695Y356937D01*
X344000Y357672D01*
Y358468D01*
X343695Y359203D01*
X343133Y359766D01*
X342398Y360070D01*
D02*
G37*
G36*
X329898Y357570D02*
X329102D01*
X328367Y357266D01*
X327804Y356703D01*
X327500Y355968D01*
Y355172D01*
X327804Y354437D01*
X328367Y353874D01*
X329102Y353570D01*
X329898D01*
X330633Y353874D01*
X331195Y354437D01*
X331500Y355172D01*
Y355968D01*
X331195Y356703D01*
X330633Y357266D01*
X329898Y357570D01*
D02*
G37*
G36*
X392898Y351000D02*
X392102D01*
X391367Y350695D01*
X390805Y350133D01*
X390500Y349398D01*
Y348602D01*
X390805Y347867D01*
X391367Y347305D01*
X392102Y347000D01*
X392898D01*
X393633Y347305D01*
X394196Y347867D01*
X394500Y348602D01*
Y349398D01*
X394196Y350133D01*
X393633Y350695D01*
X392898Y351000D01*
D02*
G37*
G36*
X388398Y346500D02*
X387602D01*
X386867Y346196D01*
X386304Y345633D01*
X386000Y344898D01*
Y344102D01*
X386304Y343367D01*
X386867Y342805D01*
X387602Y342500D01*
X388398D01*
X389133Y342805D01*
X389696Y343367D01*
X390000Y344102D01*
Y344898D01*
X389696Y345633D01*
X389133Y346196D01*
X388398Y346500D01*
D02*
G37*
%LPD*%
D98*
X298000Y236350D02*
D03*
D100*
X272500Y307984D02*
D03*
X397500Y354000D02*
D03*
X308169Y275150D02*
D03*
X323657Y286500D02*
D03*
X267500Y325500D02*
D03*
X286500Y289000D02*
D03*
X308000Y286500D02*
D03*
X306500Y323500D02*
D03*
X374500Y376000D02*
D03*
X378500D02*
D03*
X374000Y391000D02*
D03*
Y395500D02*
D03*
X378000D02*
D03*
Y391000D02*
D03*
X374500Y410000D02*
D03*
Y414500D02*
D03*
X378500D02*
D03*
Y410000D02*
D03*
X288500D02*
D03*
Y414500D02*
D03*
X292500D02*
D03*
Y410000D02*
D03*
X288500Y389500D02*
D03*
Y394000D02*
D03*
X292500D02*
D03*
Y389500D02*
D03*
Y368500D02*
D03*
Y373000D02*
D03*
X288500D02*
D03*
Y368500D02*
D03*
X328500Y332000D02*
D03*
X327989Y288475D02*
D03*
X358500Y322000D02*
D03*
X292830Y269756D02*
D03*
X293000Y272500D02*
D03*
X342957Y289957D02*
D03*
M02*
