G04*
G04 #@! TF.GenerationSoftware,Altium Limited,Altium Designer,23.8.1 (32)*
G04*
G04 Layer_Color=65535*
%FSLAX25Y25*%
%MOIN*%
G70*
G04*
G04 #@! TF.SameCoordinates,A9E98482-AA81-4C70-AF81-B552D0338214*
G04*
G04*
G04 #@! TF.FilePolarity,Positive*
G04*
G01*
G75*
%ADD10C,0.00394*%
%ADD11C,0.00984*%
%ADD12C,0.02362*%
%ADD13C,0.01004*%
%ADD14C,0.00787*%
%ADD15C,0.00600*%
%ADD16C,0.00300*%
G36*
X276550Y301392D02*
X275550D01*
Y299892D01*
X276550D01*
Y301392D01*
D02*
G37*
G36*
X301450Y319108D02*
X302450D01*
Y317608D01*
X301450D01*
Y319108D01*
D02*
G37*
D10*
X405000Y364587D02*
G03*
X405000Y364193I0J-197D01*
G01*
D02*
G03*
X405000Y364587I0J197D01*
G01*
X378126Y322354D02*
G03*
X378126Y322354I-197J0D01*
G01*
D11*
X314807Y296024D02*
G03*
X314807Y296024I-492J0D01*
G01*
X292976Y270020D02*
G03*
X292976Y270020I-492J0D01*
G01*
X303937Y268063D02*
G03*
X303937Y268063I-492J0D01*
G01*
X356347Y262500D02*
G03*
X356347Y262500I-492J0D01*
G01*
X283256Y236154D02*
G03*
X283256Y236154I-492J0D01*
G01*
X390988Y275386D02*
G03*
X390988Y275386I-492J0D01*
G01*
X326472Y418528D02*
G03*
X326472Y418528I-492J0D01*
G01*
D12*
X318843Y305276D02*
G03*
X318843Y305276I-1181J0D01*
G01*
D13*
X331490Y357407D02*
G03*
X331490Y357407I-502J0D01*
G01*
D14*
X406575Y356713D02*
Y358287D01*
X403425Y356713D02*
Y358287D01*
X398629Y351458D02*
X406354D01*
X398629Y344765D02*
X406354D01*
X359639Y329869D02*
X365544D01*
X359639Y322585D02*
X365544D01*
X345346Y337244D02*
X346331D01*
X345346Y342756D02*
X346331D01*
X342731Y336543D02*
X348636D01*
X342731Y329260D02*
X348636D01*
X306957Y289846D02*
X314043D01*
X306957Y283154D02*
X314043D01*
X313724Y301339D02*
X354276D01*
X313724Y318661D02*
X354276D01*
X313724Y301339D02*
Y318661D01*
X354276Y301339D02*
Y318661D01*
X278016Y266870D02*
X290220D01*
X278016Y280650D02*
X290220D01*
X327508Y248878D02*
X336465D01*
X344535D02*
X353492D01*
X327508Y266535D02*
Y276398D01*
Y248878D02*
Y258465D01*
X353492Y248878D02*
Y258465D01*
Y266535D02*
Y276398D01*
X327508D02*
X353492D01*
X394071Y334756D02*
Y336134D01*
Y323929D02*
Y325307D01*
X377929Y334756D02*
Y336134D01*
Y323929D02*
Y325307D01*
X392988Y336134D02*
X394071D01*
X377929D02*
X379012D01*
X392988Y323929D02*
X394071D01*
X377929D02*
X379012D01*
X366337Y265740D02*
X372242D01*
X366337Y258260D02*
X372242D01*
X281524Y231626D02*
X384476D01*
Y197374D02*
Y231626D01*
X281524Y197374D02*
X384476D01*
X281524D02*
Y231626D01*
X269130Y262730D02*
Y272227D01*
X275870Y262730D02*
Y272227D01*
X293047Y263850D02*
Y270150D01*
X298953Y263850D02*
Y270150D01*
X401815Y256150D02*
Y261858D01*
X391185Y256150D02*
Y261858D01*
X367528Y333626D02*
X369472D01*
X367528Y338374D02*
X369472D01*
X263539Y400358D02*
X293461D01*
Y382642D02*
Y384315D01*
Y398685D02*
Y400358D01*
X263539Y382642D02*
X293461D01*
X263539D02*
Y384315D01*
Y398685D02*
Y400358D01*
X297890Y390319D02*
Y392681D01*
X296709Y391500D02*
X299071D01*
X373539Y403642D02*
X403461D01*
X373539Y419685D02*
Y421358D01*
Y403642D02*
Y405315D01*
Y421358D02*
X403461D01*
Y419685D02*
Y421358D01*
Y403642D02*
Y405315D01*
X369110Y411319D02*
Y413681D01*
X367929Y412500D02*
X370291D01*
X373539Y384142D02*
X403461D01*
X373539Y400185D02*
Y401858D01*
Y384142D02*
Y385815D01*
Y401858D02*
X403461D01*
Y400185D02*
Y401858D01*
Y384142D02*
Y385815D01*
X369110Y391819D02*
Y394181D01*
X367929Y393000D02*
X370291D01*
X263539Y379858D02*
X293461D01*
Y362142D02*
Y363815D01*
Y378185D02*
Y379858D01*
X263539Y362142D02*
X293461D01*
X263539D02*
Y363815D01*
Y378185D02*
Y379858D01*
X297890Y369819D02*
Y372181D01*
X296709Y371000D02*
X299071D01*
X373539Y364642D02*
X403461D01*
X373539Y380685D02*
Y382358D01*
Y364642D02*
Y366315D01*
Y382358D02*
X403461D01*
Y380685D02*
Y382358D01*
Y364642D02*
Y366315D01*
X369110Y372319D02*
Y374681D01*
X367929Y373500D02*
X370291D01*
X263539Y421358D02*
X293461D01*
Y403642D02*
Y405315D01*
Y419685D02*
Y421358D01*
X263539Y403642D02*
X293461D01*
X263539D02*
Y405315D01*
Y419685D02*
Y421358D01*
X297890Y411319D02*
Y413681D01*
X296709Y412500D02*
X299071D01*
X349000Y349244D02*
X354000D01*
X349000Y354756D02*
X354000D01*
X332539Y384259D02*
Y393741D01*
X339461Y384259D02*
Y393741D01*
X372547Y286740D02*
X378453D01*
X372547Y279457D02*
X378453D01*
X369539Y266759D02*
Y276241D01*
X376461Y266759D02*
Y276241D01*
X396043Y342850D02*
Y349150D01*
X388957Y342850D02*
Y349150D01*
X397118Y306822D02*
Y316303D01*
X404040Y306822D02*
Y316303D01*
X396040Y306322D02*
Y315803D01*
X389118Y306322D02*
Y315803D01*
X271464Y285433D02*
X282536D01*
X271464Y292567D02*
X282536D01*
X319429Y431566D02*
Y441433D01*
X310571Y431566D02*
Y441433D01*
X339465Y348744D02*
X340449D01*
X339465Y354256D02*
X340449D01*
X326066Y427929D02*
X335933D01*
X326066Y419071D02*
X335933D01*
X322752Y398252D02*
X323028D01*
X328972D02*
X333028D01*
X338972D02*
X339248D01*
Y414748D01*
X322752D02*
X323028D01*
X338972D02*
X339248D01*
X322752Y398252D02*
Y414748D01*
X351429Y431067D02*
Y440934D01*
X342571Y431067D02*
Y440934D01*
X325965Y379756D02*
X326949D01*
X325965Y374244D02*
X326949D01*
X370449Y299858D02*
X387378D01*
X370449D02*
Y316787D01*
X387378D01*
Y299858D02*
Y316787D01*
X333298Y374601D02*
Y380399D01*
X338702Y374601D02*
Y380399D01*
X338202Y339101D02*
Y344899D01*
X332798Y339101D02*
Y344899D01*
X318101Y373702D02*
X323899D01*
X318101Y368298D02*
X323899D01*
X319601Y365702D02*
X325399D01*
X319601Y360298D02*
X325399D01*
X317789Y385702D02*
X323586D01*
X317789Y380298D02*
X323586D01*
X374736Y253543D02*
X379264D01*
X374736Y246457D02*
X379264D01*
X406043Y288043D02*
Y292571D01*
X398957Y288043D02*
Y292571D01*
X405354Y325909D02*
Y327091D01*
X399646Y325909D02*
Y327091D01*
X401457Y335000D02*
X405394D01*
X401457Y340000D02*
X405394D01*
X395377Y336564D02*
Y342361D01*
X400780Y336564D02*
Y342361D01*
X375835Y297953D02*
X380165D01*
X375835Y292047D02*
X380165D01*
X367528Y346374D02*
X369472D01*
X367528Y341626D02*
X369472D01*
X266457Y322153D02*
X273543D01*
X266457Y328847D02*
X273543D01*
D15*
X282400Y320250D02*
X295600D01*
X282400Y298750D02*
X295600D01*
D16*
X278100Y323124D02*
X281432Y319791D01*
X278100D02*
X281432Y323124D01*
X278100Y321458D02*
X281432D01*
X279766Y319791D02*
Y323124D01*
M02*
