G04*
G04 #@! TF.GenerationSoftware,Altium Limited,Altium Designer,23.8.1 (32)*
G04*
G04 Layer_Physical_Order=1*
G04 Layer_Color=255*
%FSLAX25Y25*%
%MOIN*%
G70*
G04*
G04 #@! TF.SameCoordinates,93D85A25-96AA-4E13-9423-ABE69869F54E*
G04*
G04*
G04 #@! TF.FilePolarity,Positive*
G04*
G01*
G75*
%ADD17C,0.01000*%
%ADD20O,0.07480X0.01772*%
G04:AMPARAMS|DCode=21|XSize=61.42mil|YSize=11.02mil|CornerRadius=1.38mil|HoleSize=0mil|Usage=FLASHONLY|Rotation=180.000|XOffset=0mil|YOffset=0mil|HoleType=Round|Shape=RoundedRectangle|*
%AMROUNDEDRECTD21*
21,1,0.06142,0.00827,0,0,180.0*
21,1,0.05866,0.01102,0,0,180.0*
1,1,0.00276,-0.02933,0.00413*
1,1,0.00276,0.02933,0.00413*
1,1,0.00276,0.02933,-0.00413*
1,1,0.00276,-0.02933,-0.00413*
%
%ADD21ROUNDEDRECTD21*%
G04:AMPARAMS|DCode=22|XSize=61.42mil|YSize=11.02mil|CornerRadius=1.38mil|HoleSize=0mil|Usage=FLASHONLY|Rotation=90.000|XOffset=0mil|YOffset=0mil|HoleType=Round|Shape=RoundedRectangle|*
%AMROUNDEDRECTD22*
21,1,0.06142,0.00827,0,0,90.0*
21,1,0.05866,0.01102,0,0,90.0*
1,1,0.00276,0.00413,0.02933*
1,1,0.00276,0.00413,-0.02933*
1,1,0.00276,-0.00413,-0.02933*
1,1,0.00276,-0.00413,0.02933*
%
%ADD22ROUNDEDRECTD22*%
%ADD23R,0.15000X0.08000*%
%ADD24R,0.06000X0.15000*%
%ADD25R,0.03543X0.02953*%
%ADD26R,0.08000X0.15000*%
%ADD27R,0.20000X0.08000*%
%ADD28R,0.03773X0.03961*%
%ADD29R,0.04940X0.05733*%
%ADD30R,0.03961X0.03773*%
%ADD31R,0.05709X0.05709*%
%ADD32R,0.01181X0.03347*%
%ADD33R,0.03347X0.01181*%
%ADD34R,0.05600X0.01100*%
%ADD35R,0.03543X0.03150*%
%ADD36R,0.04749X0.03765*%
%ADD37R,0.04182X0.04560*%
%ADD38R,0.03197X0.02985*%
%ADD39R,0.05906X0.05906*%
%ADD40R,0.06299X0.05512*%
%ADD41R,0.02953X0.03543*%
%ADD42R,0.03150X0.03543*%
%ADD43R,0.05926X0.02243*%
G04:AMPARAMS|DCode=44|XSize=59.26mil|YSize=22.43mil|CornerRadius=11.22mil|HoleSize=0mil|Usage=FLASHONLY|Rotation=180.000|XOffset=0mil|YOffset=0mil|HoleType=Round|Shape=RoundedRectangle|*
%AMROUNDEDRECTD44*
21,1,0.05926,0.00000,0,0,180.0*
21,1,0.03683,0.02243,0,0,180.0*
1,1,0.02243,-0.01841,0.00000*
1,1,0.02243,0.01841,0.00000*
1,1,0.02243,0.01841,0.00000*
1,1,0.02243,-0.01841,0.00000*
%
%ADD44ROUNDEDRECTD44*%
%ADD45R,0.02756X0.02756*%
%ADD46R,0.09055X0.03543*%
%ADD47R,0.03543X0.09055*%
%ADD48R,0.20000X0.20000*%
G04:AMPARAMS|DCode=49|XSize=43.31mil|YSize=23.62mil|CornerRadius=2.01mil|HoleSize=0mil|Usage=FLASHONLY|Rotation=0.000|XOffset=0mil|YOffset=0mil|HoleType=Round|Shape=RoundedRectangle|*
%AMROUNDEDRECTD49*
21,1,0.04331,0.01961,0,0,0.0*
21,1,0.03929,0.02362,0,0,0.0*
1,1,0.00402,0.01965,-0.00980*
1,1,0.00402,-0.01965,-0.00980*
1,1,0.00402,-0.01965,0.00980*
1,1,0.00402,0.01965,0.00980*
%
%ADD49ROUNDEDRECTD49*%
%ADD50R,0.04921X0.06102*%
%ADD51R,0.03543X0.03347*%
%ADD52R,0.04488X0.12008*%
%ADD53R,0.02559X0.02756*%
%ADD54R,0.12008X0.04488*%
%ADD55R,0.60000X0.40000*%
%ADD56R,0.05512X0.02992*%
%ADD57R,0.13386X0.03858*%
%ADD58R,0.00984X0.02756*%
%ADD59R,0.12992X0.06693*%
%ADD60R,0.03765X0.04749*%
%ADD61R,0.08071X0.04331*%
%ADD62R,0.06693X0.03740*%
%ADD63R,0.05938X0.05337*%
%ADD64R,0.02165X0.02165*%
%ADD65R,0.02047X0.02047*%
%ADD66R,0.02254X0.02517*%
%ADD67R,0.05157X0.03567*%
%ADD68R,0.03150X0.04134*%
%ADD69R,0.02165X0.02165*%
%ADD70R,0.04969X0.03378*%
%ADD71R,0.02402X0.02500*%
%ADD72R,0.02423X0.02254*%
%ADD73R,0.04724X0.03150*%
%ADD74R,0.02047X0.02205*%
%ADD75R,0.03543X0.03937*%
%ADD76R,0.03347X0.03937*%
%ADD77R,0.04545X0.05339*%
%ADD78R,0.03543X0.02953*%
%ADD79R,0.02953X0.03543*%
%ADD80R,0.04453X0.03591*%
%ADD81R,0.03591X0.04453*%
%ADD82R,0.02756X0.02756*%
%ADD83R,0.03740X0.04331*%
%ADD84R,0.05315X0.16535*%
%ADD85R,0.05000X0.14173*%
%ADD86R,0.16535X0.05315*%
%ADD87R,0.14173X0.05000*%
%ADD88R,0.03937X0.03347*%
%ADD89R,0.03740X0.01575*%
%ADD90R,0.05339X0.04545*%
%ADD91R,0.06890X0.09843*%
%ADD92C,0.01595*%
%ADD93R,0.04560X0.03985*%
%ADD94R,0.03773X0.03963*%
%ADD95R,0.03937X0.05512*%
%ADD96R,0.04182X0.04469*%
%ADD97R,0.03937X0.02953*%
%ADD98R,0.03985X0.04560*%
%ADD122R,0.06653X0.06653*%
%ADD123C,0.06653*%
%ADD135C,0.01500*%
%ADD136C,0.04000*%
%ADD137C,0.03000*%
%ADD138C,0.02000*%
%ADD139C,0.05000*%
%ADD140C,0.05984*%
G04:AMPARAMS|DCode=141|XSize=59.84mil|YSize=59.84mil|CornerRadius=14.96mil|HoleSize=0mil|Usage=FLASHONLY|Rotation=270.000|XOffset=0mil|YOffset=0mil|HoleType=Round|Shape=RoundedRectangle|*
%AMROUNDEDRECTD141*
21,1,0.05984,0.02992,0,0,270.0*
21,1,0.02992,0.05984,0,0,270.0*
1,1,0.02992,-0.01496,-0.01496*
1,1,0.02992,-0.01496,0.01496*
1,1,0.02992,0.01496,0.01496*
1,1,0.02992,0.01496,-0.01496*
%
%ADD141ROUNDEDRECTD141*%
%ADD142R,0.06102X0.06102*%
%ADD143C,0.06102*%
%ADD144C,0.07854*%
%ADD145R,0.07854X0.07854*%
G04:AMPARAMS|DCode=146|XSize=59.84mil|YSize=59.84mil|CornerRadius=14.96mil|HoleSize=0mil|Usage=FLASHONLY|Rotation=0.000|XOffset=0mil|YOffset=0mil|HoleType=Round|Shape=RoundedRectangle|*
%AMROUNDEDRECTD146*
21,1,0.05984,0.02992,0,0,0.0*
21,1,0.02992,0.05984,0,0,0.0*
1,1,0.02992,0.01496,-0.01496*
1,1,0.02992,-0.01496,-0.01496*
1,1,0.02992,-0.01496,0.01496*
1,1,0.02992,0.01496,0.01496*
%
%ADD146ROUNDEDRECTD146*%
%ADD147R,0.04921X0.04921*%
%ADD148C,0.04921*%
%ADD149C,0.02000*%
%ADD150C,0.30000*%
%ADD151C,0.01968*%
G36*
X533845Y358313D02*
X534121Y357955D01*
X536474Y355601D01*
Y350729D01*
X536424Y350663D01*
X536067Y350592D01*
X535670Y350326D01*
X535404Y349929D01*
X535311Y349461D01*
Y347500D01*
X535335Y347382D01*
X534885Y347082D01*
X534476Y347355D01*
X533500Y347549D01*
X532524Y347355D01*
X531814Y346880D01*
X531387Y347169D01*
X531453Y347500D01*
Y349461D01*
X531359Y349929D01*
X531290Y350034D01*
Y356365D01*
X533140Y358215D01*
X533229Y358331D01*
X533845Y358313D01*
D02*
G37*
G36*
X385474Y337747D02*
Y335585D01*
X379059D01*
X378276Y335482D01*
X377546Y335179D01*
X376919Y334699D01*
X372747Y330526D01*
X364290D01*
X364241Y331026D01*
X364840Y331145D01*
X365667Y331698D01*
X366920Y332951D01*
X373000D01*
X373975Y333145D01*
X374802Y333698D01*
X375355Y334524D01*
X375549Y335500D01*
X375355Y336475D01*
X374802Y337302D01*
X373975Y337855D01*
X373000Y338049D01*
X365865D01*
X364889Y337855D01*
X364062Y337302D01*
X363614Y336854D01*
X363114Y337061D01*
Y342214D01*
X381007D01*
X385474Y337747D01*
D02*
G37*
G36*
X385016Y329130D02*
Y323752D01*
X385226D01*
Y319149D01*
X382201Y316124D01*
X381659Y316288D01*
X381654Y316311D01*
X381291Y316854D01*
X381654Y317398D01*
X381801Y318134D01*
X381654Y318870D01*
X381238Y319494D01*
X380614Y319910D01*
X379878Y320057D01*
X374169D01*
X373433Y319910D01*
X372810Y319494D01*
X372393Y318870D01*
X372289Y318349D01*
X368985D01*
Y318571D01*
X366900D01*
X366476Y318855D01*
X365500Y319049D01*
X364525Y318855D01*
X364100Y318571D01*
X362016D01*
Y314774D01*
X359385D01*
X358485Y315674D01*
Y317130D01*
X356437D01*
X356074Y317178D01*
X356021Y317670D01*
X356373Y317870D01*
X358485D01*
Y323248D01*
X358026D01*
Y324474D01*
X374000D01*
X374783Y324577D01*
X375513Y324880D01*
X376140Y325360D01*
X380312Y329533D01*
X384781D01*
X385016Y329130D01*
D02*
G37*
G36*
X394032Y329484D02*
X395614D01*
X396217Y329235D01*
X397000Y329132D01*
X397000Y329132D01*
X403086D01*
X403217Y329077D01*
X404000Y328974D01*
X407247D01*
X419497Y316723D01*
Y313529D01*
X418997Y313262D01*
X418475Y313611D01*
X417500Y313805D01*
X416525Y313611D01*
X415970Y313240D01*
X412191D01*
X411216Y313046D01*
X410389Y312494D01*
X410103Y312207D01*
X409642Y312454D01*
X409754Y313016D01*
X409607Y313752D01*
X409244Y314295D01*
X409607Y314839D01*
X409754Y315575D01*
X409607Y316311D01*
X409244Y316854D01*
X409607Y317398D01*
X409754Y318134D01*
X409607Y318870D01*
X409190Y319494D01*
X408567Y319910D01*
X407831Y320057D01*
X402122D01*
X401386Y319910D01*
X400762Y319494D01*
X400346Y318870D01*
X400199Y318134D01*
X400346Y317398D01*
X400709Y316854D01*
X400346Y316311D01*
X400199Y315575D01*
X400346Y314839D01*
X400709Y314295D01*
X400346Y313752D01*
X400202Y313027D01*
X397109D01*
X397000Y313049D01*
X396024Y312855D01*
X395198Y312302D01*
X394645Y311475D01*
X394451Y310500D01*
X394645Y309524D01*
X395198Y308698D01*
X395219Y308676D01*
X395315Y308612D01*
X395163Y308112D01*
X389866D01*
X389549Y308499D01*
X389549Y308500D01*
X389355Y309475D01*
X388802Y310302D01*
X387976Y310855D01*
X387000Y311049D01*
X386486Y310947D01*
X385576D01*
X385369Y311447D01*
X389961Y316039D01*
X390402Y316613D01*
X390679Y317282D01*
X390774Y318000D01*
Y323752D01*
X391985D01*
Y329130D01*
X392219Y329533D01*
X394032D01*
Y329484D01*
D02*
G37*
G36*
X355931Y330451D02*
X355717Y330423D01*
X354987Y330120D01*
X354360Y329640D01*
X352860Y328140D01*
X352379Y327513D01*
X352077Y326783D01*
X351974Y326000D01*
Y323248D01*
X351516D01*
Y317870D01*
X353653D01*
X354217Y317636D01*
X354263Y317630D01*
X354230Y317130D01*
X351516D01*
Y312049D01*
X335092D01*
X334116Y311855D01*
X333289Y311302D01*
X333165Y311178D01*
X333017Y311205D01*
X332849Y311744D01*
X336302Y315198D01*
X336855Y316024D01*
X337049Y317000D01*
X336855Y317975D01*
X336302Y318802D01*
X336267Y319162D01*
X348056Y330951D01*
X355898D01*
X355931Y330451D01*
D02*
G37*
G36*
X503000Y401413D02*
X503470D01*
Y308712D01*
X503338Y308647D01*
X502970Y308514D01*
X502044Y308897D01*
X501000Y309034D01*
X488354D01*
X487310Y308897D01*
X486676Y308634D01*
X486176Y308968D01*
Y312497D01*
X486056Y313410D01*
X485703Y314262D01*
X485386Y314674D01*
Y316370D01*
X485557Y316593D01*
X485910Y317444D01*
X486030Y318358D01*
Y324882D01*
X485910Y325796D01*
X485557Y326647D01*
X485485Y326742D01*
Y328071D01*
X485135D01*
X484908Y328571D01*
X485100Y328811D01*
X485485D01*
Y329470D01*
X485494Y329483D01*
X485897Y330456D01*
X486034Y331500D01*
X485897Y332544D01*
X485494Y333517D01*
X485485Y333530D01*
Y334189D01*
X484978D01*
X484853Y334353D01*
X484017Y334994D01*
X483044Y335397D01*
X482000Y335535D01*
X473500D01*
X472456Y335397D01*
X471483Y334994D01*
X470647Y334353D01*
X470006Y333517D01*
X469603Y332544D01*
X469465Y331500D01*
X469603Y330456D01*
X470006Y329483D01*
X470647Y328647D01*
X471483Y328006D01*
X472456Y327603D01*
X473500Y327466D01*
X478515D01*
Y322693D01*
X478970D01*
Y322030D01*
X474709D01*
X473795Y321910D01*
X473205Y321665D01*
X471839D01*
Y320509D01*
X471651Y320265D01*
X471299Y319414D01*
X471178Y318500D01*
X471299Y317586D01*
X471651Y316735D01*
X471839Y316491D01*
Y315335D01*
X473205D01*
X473795Y315090D01*
X474709Y314970D01*
X479614D01*
Y314295D01*
X479588Y314262D01*
X479236Y313410D01*
X479115Y312497D01*
Y307608D01*
X474437D01*
X473462Y307414D01*
X472635Y306861D01*
X472625Y306846D01*
X471567D01*
Y303272D01*
X472625D01*
X472635Y303257D01*
X473462Y302704D01*
X474437Y302510D01*
X479776D01*
Y301835D01*
X481142D01*
X481732Y301590D01*
X482646Y301470D01*
X483559Y301590D01*
X484150Y301835D01*
X485909D01*
X486337Y301506D01*
X487310Y301103D01*
X488354Y300965D01*
X501000D01*
X502044Y301103D01*
X502970Y301486D01*
X503338Y301353D01*
X503470Y301288D01*
Y297720D01*
X498280Y292530D01*
X473520D01*
X472607Y292410D01*
X471755Y292057D01*
X471532Y291886D01*
X469290D01*
X468653Y292150D01*
X467740Y292270D01*
X444770D01*
Y296014D01*
X445270Y296329D01*
X445847Y296090D01*
X446760Y295970D01*
X453646D01*
X454559Y296090D01*
X455411Y296443D01*
X455922Y296835D01*
X462724D01*
Y297392D01*
X466563D01*
X467538Y297586D01*
X468365Y298138D01*
X468375Y298153D01*
X469433D01*
Y301728D01*
X468375D01*
X468365Y301743D01*
X467538Y302296D01*
X466563Y302490D01*
X462724D01*
Y303165D01*
X451276D01*
Y303030D01*
X446760D01*
X445847Y302910D01*
X444995Y302557D01*
X444530Y302831D01*
Y401201D01*
X444622D01*
Y417000D01*
X503000D01*
Y401413D01*
D02*
G37*
G36*
X702000Y98500D02*
X200000D01*
Y417000D01*
X437622D01*
Y408991D01*
X437590Y408914D01*
X437470Y408000D01*
Y303030D01*
X434260D01*
X433347Y302910D01*
X432495Y302557D01*
X432272Y302386D01*
X428316D01*
X428008Y302623D01*
X427339Y302900D01*
X426621Y302994D01*
X423352D01*
X423183Y303494D01*
X423326Y303605D01*
X424663Y304941D01*
X424663Y304941D01*
X425144Y305568D01*
X425446Y306298D01*
X425549Y307081D01*
Y317977D01*
X425446Y318760D01*
X425144Y319490D01*
X424663Y320116D01*
X410640Y334140D01*
X410013Y334620D01*
X409283Y334923D01*
X408500Y335026D01*
X404757D01*
X404626Y335080D01*
X403842Y335183D01*
X398102D01*
X397382Y335482D01*
X396599Y335585D01*
X391526D01*
Y339000D01*
X391423Y339783D01*
X391121Y340513D01*
X390640Y341140D01*
X384400Y347380D01*
X383773Y347861D01*
X383043Y348163D01*
X382260Y348266D01*
X355460D01*
X355144Y348642D01*
X355041Y349425D01*
X354739Y350155D01*
X354258Y350782D01*
X354258Y350782D01*
X353587Y351453D01*
Y352699D01*
X353483Y353483D01*
X353241Y354069D01*
Y355886D01*
X345611D01*
X345523Y355923D01*
X344740Y356026D01*
X343957Y355923D01*
X343868Y355886D01*
X341759D01*
Y353345D01*
X341714Y353000D01*
Y350753D01*
X340436Y349475D01*
X339955Y348848D01*
X339796Y348465D01*
X333199D01*
X333067Y348447D01*
X332346Y348542D01*
X329000D01*
X328217Y348439D01*
X327487Y348137D01*
X326860Y347656D01*
X326379Y347029D01*
X326077Y346300D01*
X325974Y345517D01*
X326077Y344733D01*
X326379Y344004D01*
X326860Y343377D01*
X327487Y342896D01*
X328217Y342594D01*
X329000Y342491D01*
X331593D01*
X331717Y342439D01*
X332500Y342336D01*
X333141Y342421D01*
X333199Y342413D01*
X341683D01*
X342466Y342516D01*
X343196Y342818D01*
X343479Y343036D01*
X343847D01*
X344315Y343129D01*
X344712Y343394D01*
X344978Y343791D01*
X345067Y344240D01*
X345196Y344408D01*
X345498Y345138D01*
X345601Y345921D01*
Y346082D01*
X346880Y347360D01*
X347360Y347987D01*
X347536Y348411D01*
X348103Y348474D01*
X348421Y348060D01*
X349092Y347389D01*
Y346793D01*
X349022Y346689D01*
X348929Y346220D01*
Y344260D01*
X349022Y343791D01*
X349032Y343777D01*
X349273Y343370D01*
X349032Y342964D01*
X349022Y342949D01*
X348929Y342480D01*
Y340520D01*
X349022Y340051D01*
X349032Y340037D01*
X349273Y339630D01*
X349032Y339223D01*
X349022Y339209D01*
X348929Y338740D01*
Y336779D01*
X348975Y336549D01*
X348642Y336049D01*
X347000D01*
X346024Y335855D01*
X345198Y335302D01*
X319722Y309826D01*
X319078Y309890D01*
X318802Y310302D01*
X317975Y310855D01*
X317000Y311049D01*
X316539Y310957D01*
X311400D01*
X310424Y310763D01*
X309598Y310211D01*
X309548Y310161D01*
X309379Y309908D01*
X307550D01*
Y308939D01*
X244052D01*
X244045Y308951D01*
X243302Y309695D01*
X242391Y310220D01*
X241376Y310492D01*
X240325D01*
X239310Y310220D01*
X238399Y309695D01*
X237656Y308951D01*
X237130Y308041D01*
X236858Y307026D01*
Y305974D01*
X237130Y304959D01*
X237656Y304049D01*
X238399Y303306D01*
X239310Y302780D01*
X240325Y302508D01*
X241376D01*
X242391Y302780D01*
X243302Y303306D01*
X243837Y303841D01*
X269363D01*
X269511Y303378D01*
X269503Y303341D01*
X268698Y302802D01*
X268145Y301975D01*
X267951Y301000D01*
X268145Y300025D01*
X268698Y299198D01*
X269525Y298645D01*
X270500Y298451D01*
X273355D01*
X273404Y298402D01*
X273389Y298062D01*
X273129Y297805D01*
X244634D01*
X244571Y298041D01*
X244045Y298951D01*
X243302Y299694D01*
X242391Y300220D01*
X241376Y300492D01*
X240325D01*
X239310Y300220D01*
X238399Y299694D01*
X237656Y298951D01*
X237130Y298041D01*
X236858Y297026D01*
Y295974D01*
X237076Y295162D01*
X237251Y294280D01*
X237804Y293454D01*
X238631Y292901D01*
X239512Y292726D01*
X240325Y292508D01*
X241376D01*
X242119Y292707D01*
X290508D01*
Y285464D01*
X290951D01*
Y283805D01*
X287000D01*
X286140Y283634D01*
X284622D01*
Y282116D01*
X284451Y281256D01*
X284622Y280396D01*
Y278878D01*
X286140D01*
X287000Y278707D01*
X293500D01*
X294360Y278878D01*
X295878D01*
Y280396D01*
X296049Y281256D01*
Y285464D01*
X296492D01*
Y291976D01*
Y293738D01*
X296855Y294280D01*
X296951Y294761D01*
X297506Y294991D01*
X298025Y294645D01*
X299000Y294451D01*
X299060D01*
X299145Y294024D01*
X299670Y293239D01*
X298698Y292267D01*
X298145Y291440D01*
X297951Y290464D01*
Y270000D01*
Y264500D01*
X298145Y263525D01*
X298698Y262698D01*
X303198Y258198D01*
X304025Y257645D01*
X305000Y257451D01*
X323323D01*
X324951Y255823D01*
Y252024D01*
X324285D01*
X324000Y252080D01*
X323715Y252024D01*
X321401D01*
Y251315D01*
X320553Y251146D01*
X320099Y250843D01*
X319599Y251110D01*
Y252024D01*
X317284D01*
X317000Y252080D01*
X316902D01*
X316617Y252024D01*
X314401D01*
Y250636D01*
X314107Y250342D01*
X313555Y249515D01*
X313370Y248586D01*
X313082Y248371D01*
X312807Y248463D01*
X312634Y248585D01*
X312613Y248605D01*
X312691Y248995D01*
X312599Y249458D01*
Y251524D01*
X310601D01*
X310052Y251633D01*
X309504Y251524D01*
X307401D01*
Y250391D01*
X306901Y250123D01*
X306316Y250515D01*
X305599Y250657D01*
Y251524D01*
X303285D01*
X303000Y251581D01*
X302715Y251524D01*
X300401D01*
Y246539D01*
X301888D01*
X302070Y246357D01*
X302896Y245805D01*
X303872Y245611D01*
X304285D01*
X305382Y244513D01*
X305350Y244267D01*
X304820Y243923D01*
X304185Y244049D01*
X299009D01*
X298033Y243855D01*
X297206Y243302D01*
X296654Y242476D01*
X296586Y242447D01*
X295975Y242855D01*
X295000Y243049D01*
X294024Y242855D01*
X293198Y242302D01*
X292645Y241476D01*
X292451Y240500D01*
X292645Y239525D01*
X293198Y238698D01*
X294089Y237806D01*
Y232423D01*
X292682D01*
X291549Y233556D01*
Y238704D01*
X291748D01*
Y244296D01*
X285295D01*
Y238704D01*
X286451D01*
Y232500D01*
Y229796D01*
X281795D01*
Y224204D01*
X282473D01*
Y220136D01*
X282484Y220078D01*
Y217032D01*
X282138Y216675D01*
X271980D01*
X271005Y216481D01*
X270178Y215928D01*
X257136Y202886D01*
X249259D01*
Y202549D01*
X246051D01*
Y204051D01*
X237949D01*
Y195949D01*
X246051D01*
Y197451D01*
X249259D01*
Y197114D01*
X260741D01*
Y199281D01*
X273036Y211577D01*
X286517D01*
X286752Y211136D01*
X286645Y210976D01*
X286451Y210000D01*
X286645Y209025D01*
X287198Y208198D01*
X288024Y207645D01*
X289000Y207451D01*
X289950Y207640D01*
X292491D01*
X292682Y207183D01*
X292633Y207109D01*
X292545Y206665D01*
Y205839D01*
X292633Y205395D01*
X292718Y205268D01*
X292633Y205141D01*
X292545Y204697D01*
Y203870D01*
X292633Y203426D01*
X292718Y203299D01*
X292633Y203172D01*
X292545Y202728D01*
Y201902D01*
X292633Y201458D01*
X292884Y201081D01*
X293261Y200830D01*
X293705Y200742D01*
X299571D01*
X300015Y200830D01*
X300391Y201081D01*
X300643Y201458D01*
X300731Y201902D01*
Y202728D01*
X300643Y203172D01*
X300558Y203299D01*
X300643Y203426D01*
X300731Y203870D01*
Y204697D01*
X300643Y205141D01*
X300558Y205268D01*
X300643Y205395D01*
X300731Y205839D01*
Y206665D01*
X300643Y207109D01*
X300558Y207236D01*
X300643Y207363D01*
X300731Y207807D01*
Y208634D01*
X300643Y209078D01*
X300622Y209108D01*
X300889Y209609D01*
X314787D01*
X323698Y200698D01*
X324524Y200145D01*
X325500Y199951D01*
X330000D01*
X330976Y200145D01*
X331802Y200698D01*
X331951Y200920D01*
X332451Y200768D01*
Y200500D01*
X332645Y199524D01*
X332872Y199185D01*
X332857Y199101D01*
X332456Y198760D01*
X332209Y198810D01*
X331382D01*
X330938Y198721D01*
X330811Y198637D01*
X330684Y198721D01*
X330240Y198810D01*
X329413D01*
X328969Y198721D01*
X328842Y198637D01*
X328716Y198721D01*
X328272Y198810D01*
X327445D01*
X327001Y198721D01*
X326874Y198637D01*
X326747Y198721D01*
X326303Y198810D01*
X325476D01*
X325032Y198721D01*
X324905Y198637D01*
X324779Y198721D01*
X324335Y198810D01*
X323508D01*
X323064Y198721D01*
X322937Y198637D01*
X322810Y198721D01*
X322366Y198810D01*
X321539D01*
X321095Y198721D01*
X320969Y198637D01*
X320842Y198721D01*
X320398Y198810D01*
X319571D01*
X319127Y198721D01*
X319000Y198637D01*
X318873Y198721D01*
X318429Y198810D01*
X317602D01*
X317158Y198721D01*
X317032Y198637D01*
X316905Y198721D01*
X316461Y198810D01*
X315634D01*
X315190Y198721D01*
X315063Y198637D01*
X314936Y198721D01*
X314492Y198810D01*
X313665D01*
X313221Y198721D01*
X313094Y198637D01*
X312968Y198721D01*
X312524Y198810D01*
X311697D01*
X311253Y198721D01*
X311126Y198637D01*
X310999Y198721D01*
X310555Y198810D01*
X309728D01*
X309284Y198721D01*
X309157Y198637D01*
X309031Y198721D01*
X308587Y198810D01*
X307760D01*
X307316Y198721D01*
X307189Y198637D01*
X307062Y198721D01*
X306618Y198810D01*
X305791D01*
X305347Y198721D01*
X305221Y198637D01*
X305094Y198721D01*
X304650Y198810D01*
X303823D01*
X303379Y198721D01*
X303003Y198470D01*
X302751Y198094D01*
X302663Y197650D01*
Y196672D01*
X302434Y196519D01*
X301881Y195692D01*
X301687Y194717D01*
X301881Y193741D01*
X302434Y192914D01*
X302663Y192761D01*
Y191783D01*
X302751Y191340D01*
X302813Y191247D01*
X302443Y190765D01*
X302090Y189914D01*
X301970Y189000D01*
Y185818D01*
X301850Y185527D01*
X301729Y184614D01*
X301850Y183700D01*
X302202Y182849D01*
X302759Y182122D01*
Y182114D01*
X302768D01*
X303494Y181556D01*
X304346Y181204D01*
X305259Y181084D01*
X306173Y181204D01*
X307025Y181556D01*
X307751Y182114D01*
X311922D01*
X312740Y181951D01*
X313558Y182114D01*
X314241D01*
Y182496D01*
X314542Y182698D01*
X315095Y183525D01*
X315289Y184500D01*
X315095Y185476D01*
X314659Y186127D01*
Y190569D01*
X315116Y190761D01*
X315190Y190712D01*
X315634Y190623D01*
X316461D01*
X316905Y190712D01*
X317032Y190796D01*
X317158Y190712D01*
X317602Y190623D01*
X318429D01*
X318873Y190712D01*
X319000Y190796D01*
X319127Y190712D01*
X319571Y190623D01*
X320398D01*
X320842Y190712D01*
X320969Y190796D01*
X321095Y190712D01*
X321539Y190623D01*
X322366D01*
X322810Y190712D01*
X322937Y190796D01*
X323064Y190712D01*
X323508Y190623D01*
X324335D01*
X324779Y190712D01*
X324853Y190761D01*
X325309Y190569D01*
Y183914D01*
X320003Y178608D01*
X271272D01*
Y178732D01*
X269333D01*
X267263Y180802D01*
X266436Y181355D01*
X265461Y181549D01*
X262996D01*
Y183051D01*
X256075D01*
Y174949D01*
X262996D01*
Y176451D01*
X264405D01*
X265728Y175127D01*
Y171872D01*
X263905Y170049D01*
X263032D01*
Y171551D01*
X256110D01*
Y163449D01*
X263032D01*
Y164951D01*
X264961D01*
X265936Y165145D01*
X266763Y165698D01*
X269333Y168268D01*
X271272D01*
Y168392D01*
X319634D01*
X319825Y167930D01*
X305503Y153608D01*
X271772D01*
Y153732D01*
X269833D01*
X267263Y156302D01*
X266436Y156855D01*
X265461Y157049D01*
X262531D01*
Y158551D01*
X255610D01*
Y150449D01*
X262531D01*
Y151951D01*
X264405D01*
X266228Y150127D01*
Y146872D01*
X265405Y146049D01*
X262996D01*
Y147551D01*
X256075D01*
Y139449D01*
X262996D01*
Y140951D01*
X266461D01*
X267436Y141145D01*
X268263Y141698D01*
X269833Y143268D01*
X271772D01*
Y143392D01*
X305941D01*
X306916Y143586D01*
X307743Y144139D01*
X335566Y171961D01*
X336119Y172788D01*
X336313Y173764D01*
Y174280D01*
X341886D01*
Y180241D01*
X340549D01*
Y182193D01*
X341011Y182384D01*
X344114Y179281D01*
Y174020D01*
Y168499D01*
X349886D01*
Y174020D01*
Y179980D01*
X349549D01*
Y180000D01*
X349355Y180975D01*
X348802Y181802D01*
X343911Y186694D01*
Y187475D01*
X344411Y187626D01*
X344698Y187198D01*
X351460Y180435D01*
X351614Y179980D01*
X351614D01*
X351614Y179980D01*
Y174020D01*
Y168499D01*
X357386D01*
Y174020D01*
Y179980D01*
X357049D01*
Y181000D01*
X356855Y181975D01*
X356302Y182802D01*
X349049Y190056D01*
Y192193D01*
X349511Y192384D01*
X349698Y192198D01*
X350524Y191645D01*
X351500Y191451D01*
X352914D01*
X353147Y191147D01*
X353204Y191103D01*
Y190817D01*
X353577D01*
X353983Y190506D01*
X354956Y190103D01*
X356000Y189965D01*
X360500D01*
X360500Y189965D01*
X423500D01*
X423500Y189965D01*
X437829D01*
X444465Y183329D01*
Y182000D01*
Y167500D01*
Y151161D01*
X443465D01*
Y144831D01*
X446054D01*
X446483Y144502D01*
X447456Y144099D01*
X448500Y143962D01*
X449544Y144099D01*
X450517Y144502D01*
X450946Y144831D01*
X453535D01*
Y151161D01*
X452534D01*
Y163465D01*
X458031D01*
X458080Y162966D01*
X457524Y162855D01*
X456698Y162302D01*
X456627Y162232D01*
X456074Y161405D01*
X455880Y160429D01*
Y154000D01*
X456074Y153024D01*
X456627Y152198D01*
X457454Y151645D01*
X458429Y151451D01*
X459405Y151645D01*
X460231Y152198D01*
X460784Y153024D01*
X460978Y154000D01*
Y160144D01*
X461049Y160500D01*
X460855Y161476D01*
X460302Y162302D01*
X459476Y162855D01*
X458920Y162966D01*
X458969Y163465D01*
X462970D01*
Y154000D01*
X463090Y153086D01*
X463443Y152235D01*
X463618Y152007D01*
Y150626D01*
X463951D01*
Y146500D01*
X464118Y145662D01*
Y142626D01*
X464451D01*
Y141049D01*
X463556D01*
X461811Y142793D01*
Y149374D01*
X456047D01*
Y142626D01*
X456380D01*
Y142071D01*
X456574Y141095D01*
X457127Y140269D01*
X460698Y136698D01*
X461524Y136145D01*
X462500Y135951D01*
X465000D01*
X465860Y136122D01*
X466109D01*
X466388Y136066D01*
Y133776D01*
X466522Y133103D01*
X465166Y131747D01*
X464614Y130920D01*
X464420Y129945D01*
Y129516D01*
X464140Y129461D01*
X463508D01*
Y129214D01*
X459193D01*
Y129595D01*
X443807D01*
Y123736D01*
X453670D01*
X453797Y123236D01*
X451414Y120853D01*
X450586Y120745D01*
X449735Y120392D01*
X449568Y120264D01*
X443807D01*
Y114406D01*
X447970D01*
Y108539D01*
X425788D01*
Y115000D01*
Y124000D01*
Y133000D01*
Y140598D01*
X425882Y140825D01*
X426037Y142000D01*
Y151249D01*
X425882Y152424D01*
X425428Y153518D01*
X425219Y153792D01*
Y155367D01*
X423316D01*
X422673Y155633D01*
X421498Y155788D01*
X420323Y155633D01*
X419680Y155367D01*
X418279D01*
Y154879D01*
X418221Y154837D01*
X417721Y155094D01*
Y155367D01*
X416604D01*
X416521Y155431D01*
X415426Y155884D01*
X414251Y156039D01*
X413076Y155884D01*
X411982Y155431D01*
X411898Y155367D01*
X410781D01*
Y154370D01*
X410320Y153769D01*
X409867Y152675D01*
X409712Y151500D01*
Y147009D01*
X409367Y146175D01*
X409212Y145000D01*
Y142500D01*
Y133500D01*
Y123500D01*
Y115000D01*
Y108539D01*
X254880D01*
X244236Y119183D01*
X243962Y119657D01*
X243157Y120462D01*
X242170Y121032D01*
X241070Y121327D01*
X239930D01*
X238830Y121032D01*
X237843Y120462D01*
X237038Y119657D01*
X236468Y118670D01*
X236173Y117570D01*
Y116430D01*
X236468Y115330D01*
X236573Y115147D01*
X236616Y114825D01*
X237069Y113731D01*
X237791Y112791D01*
X249791Y100791D01*
X250731Y100069D01*
X251825Y99616D01*
X253000Y99461D01*
X554571D01*
X555746Y99616D01*
X556841Y100069D01*
X557781Y100791D01*
X560709Y103719D01*
X561431Y104659D01*
X561884Y105754D01*
X562039Y106929D01*
X562039Y106929D01*
Y114740D01*
X565193D01*
Y116994D01*
X565692Y117492D01*
X566153Y117301D01*
Y117130D01*
X574467D01*
X574890Y117016D01*
X575011Y116698D01*
X575145Y116024D01*
X575698Y115198D01*
X576524Y114645D01*
X577500Y114451D01*
X578476Y114645D01*
X579302Y115198D01*
X579751Y114995D01*
X582283Y112462D01*
Y109933D01*
X587433D01*
Y116067D01*
X585888D01*
X582462Y119494D01*
X582745Y119917D01*
X583845D01*
X584253Y119645D01*
X585228Y119451D01*
X586204Y119645D01*
X586376Y119760D01*
X586811Y119917D01*
X587223Y119694D01*
X587296Y119645D01*
X588272Y119451D01*
X592000D01*
X592976Y119645D01*
X593802Y120198D01*
X594355Y121025D01*
X594549Y122000D01*
X594355Y122976D01*
X593802Y123802D01*
X592976Y124355D01*
X592000Y124549D01*
X588272D01*
X587695Y124434D01*
X587195Y124843D01*
Y125354D01*
X587001Y126330D01*
X586448Y127157D01*
X584802Y128802D01*
X583976Y129355D01*
X583000Y129549D01*
X581500D01*
X580640Y129378D01*
X580391D01*
X579531Y129549D01*
X578672Y129378D01*
X578423D01*
X577614Y129539D01*
X577345Y129977D01*
X578061Y130692D01*
X578381Y130906D01*
X578934Y131733D01*
X579128Y132709D01*
X578934Y133684D01*
X578381Y134511D01*
X578144Y134749D01*
Y135984D01*
X578423Y136039D01*
X578672D01*
X579531Y135868D01*
X580391Y136039D01*
X580640D01*
X581500Y135868D01*
X581708Y135910D01*
X586194D01*
X586511Y135523D01*
X586451Y135220D01*
Y130272D01*
X586645Y129296D01*
X586772Y129107D01*
Y128043D01*
X587835D01*
X588025Y127917D01*
X589000Y127723D01*
X589976Y127917D01*
X590165Y128043D01*
X590937D01*
X590937Y128043D01*
Y128043D01*
X591344Y127823D01*
X591422Y127771D01*
X592398Y127577D01*
X596126D01*
X597101Y127771D01*
X597928Y128324D01*
X598302Y128698D01*
X598855Y129525D01*
X599049Y130500D01*
X598855Y131475D01*
X598302Y132302D01*
X597475Y132855D01*
X596500Y133049D01*
X595525Y132855D01*
X595255Y132675D01*
X593712D01*
X593625Y132733D01*
X592650Y132927D01*
X592049Y132808D01*
X591549Y133205D01*
Y135220D01*
X591453Y135701D01*
X591864Y136201D01*
X593675D01*
X594651Y136395D01*
X595478Y136948D01*
X595506Y136976D01*
X595604D01*
X596099Y136645D01*
X597075Y136451D01*
X601000D01*
X601975Y136645D01*
X602802Y137198D01*
X603355Y138024D01*
X603549Y139000D01*
X603355Y139976D01*
X602802Y140802D01*
X601975Y141355D01*
X601000Y141549D01*
X597075D01*
X596099Y141355D01*
X595604Y141024D01*
X595397D01*
X594901Y141355D01*
X593925Y141549D01*
X592950Y141355D01*
X592866Y141299D01*
X589250D01*
X588274Y141105D01*
X588129Y141008D01*
X583766D01*
X583574Y141470D01*
X585673Y143568D01*
X587117D01*
X588093Y143762D01*
X588375Y143951D01*
X592409D01*
Y143766D01*
X598591D01*
Y150878D01*
X598994Y151403D01*
X599397Y152376D01*
X599535Y153420D01*
Y157966D01*
X600965D01*
Y153500D01*
X601103Y152456D01*
X601506Y151483D01*
X601626Y151327D01*
Y150618D01*
X602185D01*
X602983Y150006D01*
X603956Y149603D01*
X605000Y149466D01*
X606044Y149603D01*
X607017Y150006D01*
X607815Y150618D01*
X608374D01*
Y151327D01*
X608494Y151483D01*
X608897Y152456D01*
X609034Y153500D01*
Y157966D01*
X621829D01*
X627965Y151829D01*
Y131512D01*
X625858Y130828D01*
X623614Y129684D01*
X621577Y128204D01*
X619796Y126423D01*
X618316Y124386D01*
X617172Y122142D01*
X616394Y119747D01*
X616000Y117259D01*
Y114741D01*
X616394Y112253D01*
X617172Y109858D01*
X618316Y107614D01*
X619796Y105577D01*
X621577Y103796D01*
X623614Y102316D01*
X625858Y101172D01*
X628253Y100394D01*
X630741Y100000D01*
X633259D01*
X635747Y100394D01*
X638142Y101172D01*
X640386Y102316D01*
X642423Y103796D01*
X644204Y105577D01*
X645684Y107614D01*
X646828Y109858D01*
X647606Y112253D01*
X648000Y114741D01*
Y117259D01*
X647606Y119747D01*
X646828Y122142D01*
X645684Y124386D01*
X644204Y126423D01*
X642423Y128204D01*
X640386Y129684D01*
X638142Y130828D01*
X636034Y131512D01*
Y153500D01*
X636034Y153500D01*
X635897Y154544D01*
X635494Y155517D01*
X634853Y156353D01*
X634853Y156353D01*
X626353Y164853D01*
X625517Y165494D01*
X624544Y165897D01*
X623500Y166034D01*
X623500Y166034D01*
X603500D01*
X603500Y166034D01*
X603500Y166034D01*
X594000D01*
X594000Y166034D01*
X594000Y166034D01*
X563671D01*
X560353Y169353D01*
X559517Y169994D01*
X558544Y170397D01*
X557500Y170535D01*
X557500Y170535D01*
X555535D01*
Y179639D01*
X555980Y179947D01*
X556035Y179946D01*
X556647Y179147D01*
X557483Y178506D01*
X558456Y178103D01*
X559500Y177965D01*
X642829D01*
X653966Y166829D01*
Y121000D01*
X653966Y121000D01*
X654103Y119956D01*
X654506Y118983D01*
X655147Y118147D01*
X659647Y113647D01*
X659647Y113647D01*
X660483Y113006D01*
X661456Y112603D01*
X662500Y112466D01*
X662500Y112466D01*
X668488D01*
X669172Y110358D01*
X670316Y108114D01*
X671796Y106077D01*
X673577Y104296D01*
X675614Y102816D01*
X677858Y101672D01*
X680253Y100894D01*
X682741Y100500D01*
X685259D01*
X687747Y100894D01*
X690142Y101672D01*
X692386Y102816D01*
X694423Y104296D01*
X696204Y106077D01*
X697684Y108114D01*
X698828Y110358D01*
X699606Y112753D01*
X700000Y115241D01*
Y117759D01*
X699606Y120247D01*
X698828Y122642D01*
X697684Y124886D01*
X696204Y126923D01*
X694423Y128704D01*
X692386Y130184D01*
X690142Y131328D01*
X687747Y132106D01*
X685259Y132500D01*
X682741D01*
X680253Y132106D01*
X677858Y131328D01*
X675614Y130184D01*
X673577Y128704D01*
X671796Y126923D01*
X670316Y124886D01*
X669172Y122642D01*
X668488Y120535D01*
X664171D01*
X662035Y122671D01*
Y168500D01*
X662035Y168500D01*
X661897Y169544D01*
X661494Y170517D01*
X660853Y171353D01*
X647353Y184853D01*
X646517Y185494D01*
X645544Y185897D01*
X644500Y186035D01*
X644500Y186035D01*
X559500D01*
X558456Y185897D01*
X557483Y185494D01*
X556647Y184853D01*
X556035Y184054D01*
X555980Y184053D01*
X555535Y184361D01*
Y189657D01*
X555397Y190701D01*
X554994Y191674D01*
X554353Y192510D01*
X554353Y192510D01*
X552010Y194853D01*
X551174Y195494D01*
X550201Y195897D01*
X549157Y196035D01*
X549157Y196035D01*
X462171D01*
X455535Y202671D01*
Y209000D01*
Y223980D01*
X455397Y225024D01*
X454994Y225997D01*
X454386Y226789D01*
Y232480D01*
X452506D01*
X452027Y232679D01*
X451244Y232782D01*
X442526D01*
Y233638D01*
X443296D01*
Y236726D01*
X450500D01*
X451218Y236821D01*
X451887Y237098D01*
X451924Y237126D01*
X456028D01*
Y242669D01*
X444972D01*
Y242274D01*
X443636D01*
X443245Y242774D01*
X443337Y243240D01*
X443173Y244068D01*
X442704Y244770D01*
X442030Y245220D01*
Y260309D01*
X441910Y261223D01*
X441669Y261804D01*
Y266528D01*
X437790D01*
Y288422D01*
X438290Y288592D01*
X438744Y288001D01*
X440501Y286244D01*
X441232Y285683D01*
X442084Y285330D01*
X442997Y285210D01*
X467740D01*
X468653Y285330D01*
X469505Y285683D01*
X470067Y286114D01*
X471532D01*
X471755Y285943D01*
X472607Y285590D01*
X473520Y285470D01*
X499743D01*
X500656Y285590D01*
X501508Y285943D01*
X502239Y286504D01*
X509496Y293761D01*
X510057Y294492D01*
X510410Y295344D01*
X510530Y296257D01*
Y301470D01*
X514980D01*
X515893Y301590D01*
X516745Y301943D01*
X516968Y302114D01*
X518512D01*
X518735Y301943D01*
X519586Y301590D01*
X520500Y301470D01*
X534813D01*
X535726Y301590D01*
X536578Y301943D01*
X537003Y302269D01*
X537422Y302095D01*
X538205Y301992D01*
X542482D01*
X543265Y302095D01*
X543995Y302397D01*
X544445Y302742D01*
X548283D01*
X549259Y302936D01*
X550086Y303489D01*
X550227Y303701D01*
X550957D01*
Y306882D01*
X550227D01*
X550086Y307094D01*
X549259Y307646D01*
X548283Y307840D01*
X543507D01*
X543265Y307941D01*
X542482Y308044D01*
X538205D01*
X537422Y307941D01*
X536973Y307754D01*
X536578Y308057D01*
X535726Y308410D01*
X534813Y308530D01*
X520500D01*
X519586Y308410D01*
X518735Y308057D01*
X518512Y307886D01*
X516968D01*
X516745Y308057D01*
X515893Y308410D01*
X514980Y308530D01*
X510530D01*
Y362190D01*
X510977Y362454D01*
X511030Y362451D01*
X511647Y361647D01*
X512483Y361006D01*
X513456Y360603D01*
X514500Y360466D01*
X515544Y360603D01*
X516517Y361006D01*
X517353Y361647D01*
X517994Y362483D01*
X518397Y363456D01*
X518535Y364500D01*
Y368329D01*
X521171Y370966D01*
X524480D01*
X525524Y371103D01*
X526497Y371506D01*
X527214Y372056D01*
X527714Y371926D01*
Y365500D01*
X527759Y365155D01*
Y362614D01*
X527974D01*
Y361608D01*
X526124Y359758D01*
X525643Y359131D01*
X525341Y358401D01*
X525238Y357618D01*
Y351506D01*
X520123D01*
X519783Y351647D01*
X519000Y351750D01*
X518217Y351647D01*
X517487Y351345D01*
X517299Y351201D01*
X516228D01*
Y349872D01*
X516077Y349508D01*
X515974Y348724D01*
X516077Y347941D01*
X516228Y347576D01*
Y346248D01*
X517225D01*
X517731Y345860D01*
X518461Y345557D01*
X519244Y345454D01*
X528264D01*
X529047Y345557D01*
X529777Y345860D01*
X530350Y346300D01*
X530697Y346369D01*
X530895Y346501D01*
X531256Y346141D01*
X531145Y345975D01*
X530951Y345000D01*
Y344056D01*
X530444Y343549D01*
X528264D01*
X527288Y343355D01*
X527063Y343205D01*
X526299D01*
X525831Y343111D01*
X525433Y342846D01*
X525168Y342449D01*
X525075Y341980D01*
Y340020D01*
X525131Y339736D01*
X524204Y338809D01*
X522386D01*
Y339241D01*
X516614D01*
Y333280D01*
Y331611D01*
X516577Y331523D01*
X516474Y330740D01*
Y322500D01*
X516577Y321717D01*
X516880Y320987D01*
X517360Y320360D01*
X517987Y319880D01*
X518717Y319577D01*
X519500Y319474D01*
X520283Y319577D01*
X521013Y319880D01*
X521640Y320360D01*
X522121Y320987D01*
X522423Y321717D01*
X522526Y322500D01*
Y330740D01*
X522423Y331523D01*
X522386Y331611D01*
Y333711D01*
X525260D01*
X526236Y333905D01*
X527063Y334458D01*
X529707Y337102D01*
X530260Y337929D01*
X530363Y338451D01*
X531500D01*
X532476Y338645D01*
X533302Y339198D01*
X534811Y340706D01*
X535311Y340499D01*
Y340020D01*
X535404Y339551D01*
X535670Y339154D01*
X536067Y338889D01*
X536413Y338820D01*
X536987Y338380D01*
X537717Y338077D01*
X538500Y337974D01*
X545862D01*
X546645Y338077D01*
X547375Y338380D01*
X547383Y338386D01*
X548772D01*
Y340185D01*
X548785Y340217D01*
X548888Y341000D01*
X548785Y341783D01*
X548772Y341815D01*
Y343339D01*
X547743D01*
X547375Y343620D01*
X546645Y343923D01*
X545862Y344026D01*
X541689D01*
Y345585D01*
X566974D01*
Y336760D01*
X567077Y335977D01*
X567114Y335889D01*
Y333228D01*
X566943Y333005D01*
X566590Y332154D01*
X566470Y331240D01*
Y325000D01*
Y322030D01*
X563500D01*
X562586Y321910D01*
X561735Y321557D01*
X561004Y320996D01*
X560443Y320265D01*
X560090Y319414D01*
X559970Y318500D01*
X560090Y317586D01*
X560443Y316735D01*
X561004Y316004D01*
X561735Y315443D01*
X562586Y315090D01*
X563500Y314970D01*
X569957D01*
X570870Y315090D01*
X571722Y315443D01*
X572407Y315968D01*
X573362D01*
Y317514D01*
X573410Y317630D01*
X573530Y318543D01*
Y325000D01*
Y331240D01*
X573410Y332154D01*
X573057Y333005D01*
X572886Y333228D01*
Y335889D01*
X572923Y335977D01*
X573026Y336760D01*
Y347000D01*
X572923Y347783D01*
X572620Y348513D01*
X572140Y349140D01*
X572140Y349140D01*
X570529Y350751D01*
X569902Y351232D01*
X569172Y351534D01*
X568389Y351637D01*
X542526D01*
Y356854D01*
X542423Y357638D01*
X542121Y358367D01*
X541640Y358994D01*
X539286Y361348D01*
Y365500D01*
X539241Y365845D01*
Y368386D01*
X537132D01*
X537043Y368423D01*
X536260Y368526D01*
X535477Y368423D01*
X535389Y368386D01*
X533766D01*
Y371974D01*
X536500D01*
X537283Y372077D01*
X537371Y372114D01*
X539211D01*
X540003Y371506D01*
X540976Y371103D01*
X542020Y370966D01*
X552000D01*
X553044Y371103D01*
X554017Y371506D01*
X554853Y372147D01*
X555494Y372983D01*
X555897Y373956D01*
X556035Y375000D01*
X555897Y376044D01*
X555494Y377017D01*
X554853Y377853D01*
X554017Y378494D01*
X553044Y378897D01*
X552000Y379034D01*
X542020D01*
X540976Y378897D01*
X540003Y378494D01*
X539211Y377886D01*
X537371D01*
X537283Y377923D01*
X536500Y378026D01*
X530000D01*
X529217Y377923D01*
X529129Y377886D01*
X527289D01*
X526497Y378494D01*
X525524Y378897D01*
X524480Y379034D01*
X519500D01*
X519500Y379034D01*
X518456Y378897D01*
X517483Y378494D01*
X516647Y377853D01*
X516647Y377853D01*
X511647Y372853D01*
X511030Y372049D01*
X510977Y372046D01*
X510530Y372310D01*
Y410271D01*
X510410Y411185D01*
X510057Y412036D01*
X510000Y412111D01*
Y417000D01*
X588500D01*
Y407033D01*
X588470Y406803D01*
Y308530D01*
X584760D01*
X583847Y308410D01*
X582995Y308057D01*
X582772Y307886D01*
X581228D01*
X581005Y308057D01*
X580154Y308410D01*
X579240Y308530D01*
X573716D01*
X573362Y308882D01*
Y314032D01*
X570984D01*
X570596Y314192D01*
X569813Y314295D01*
X569030Y314192D01*
X568642Y314032D01*
X566638D01*
Y308882D01*
X566787D01*
Y308026D01*
X565500D01*
X564717Y307923D01*
X564518Y307840D01*
X559701D01*
X558725Y307646D01*
X557898Y307094D01*
X557757Y306882D01*
X557028D01*
Y303701D01*
X557757D01*
X557898Y303489D01*
X558725Y302936D01*
X559701Y302742D01*
X563514D01*
X563987Y302379D01*
X564717Y302077D01*
X565500Y301974D01*
X569813D01*
X570596Y302077D01*
X571019Y302252D01*
X571422Y301943D01*
X572274Y301590D01*
X573187Y301470D01*
X579240D01*
X580154Y301590D01*
X581005Y301943D01*
X581228Y302114D01*
X582772D01*
X582995Y301943D01*
X583847Y301590D01*
X584760Y301470D01*
X589114D01*
Y300603D01*
X588905Y300099D01*
X588785Y299185D01*
Y231090D01*
X588285Y230756D01*
X587914Y230910D01*
X587000Y231030D01*
X586086Y230910D01*
X585235Y230557D01*
X584504Y229996D01*
X584259Y229677D01*
X583759D01*
X583575Y229918D01*
X582844Y230479D01*
X581992Y230831D01*
X581079Y230951D01*
X580165Y230831D01*
X579314Y230479D01*
X578776Y230066D01*
X578421Y229964D01*
X578066Y230066D01*
X577529Y230479D01*
X576678Y230831D01*
X575764Y230951D01*
X574850Y230831D01*
X573999Y230479D01*
X573268Y229918D01*
X572707Y229186D01*
X572354Y228335D01*
X572234Y227421D01*
Y223500D01*
X566190D01*
X565961Y223530D01*
X565731Y223500D01*
X562367D01*
X562344Y223518D01*
X561492Y223870D01*
X560579Y223991D01*
X557000D01*
Y226519D01*
X557055Y226996D01*
X557500Y226996D01*
X563543D01*
Y231312D01*
X574500D01*
X575675Y231466D01*
X576769Y231920D01*
X577664Y232606D01*
X581504D01*
Y239094D01*
X577664D01*
X576769Y239781D01*
X575675Y240235D01*
X574500Y240389D01*
X563543D01*
Y241004D01*
X557055D01*
Y238697D01*
X556613Y238120D01*
X556159Y237025D01*
X556004Y235850D01*
X556159Y234676D01*
X556265Y234421D01*
Y234000D01*
X556402Y232956D01*
X556805Y231983D01*
X557055Y231657D01*
Y228477D01*
X557000Y228000D01*
X556555Y228000D01*
X548034D01*
Y233967D01*
X548039Y234000D01*
X547884Y235175D01*
X547431Y236269D01*
X547244Y236513D01*
Y241004D01*
X540756D01*
Y238539D01*
X534493D01*
X534402Y238591D01*
X533149Y238927D01*
X531851D01*
X530598Y238591D01*
X529475Y237943D01*
X528557Y237025D01*
X528030Y236112D01*
X527530Y236246D01*
Y258000D01*
X527410Y258914D01*
X527057Y259765D01*
X526496Y260496D01*
X523996Y262996D01*
X523265Y263557D01*
X522414Y263910D01*
X521500Y264030D01*
X453874D01*
Y266528D01*
X448331D01*
Y263137D01*
X448045Y262765D01*
X447692Y261914D01*
X447572Y261000D01*
Y254874D01*
X444972D01*
Y249331D01*
X448363D01*
X448735Y249045D01*
X449586Y248692D01*
X450500Y248572D01*
X450831D01*
X451744Y248692D01*
X452596Y249045D01*
X452968Y249331D01*
X456028D01*
Y254874D01*
X454633D01*
Y256970D01*
X520038D01*
X520470Y256538D01*
Y228500D01*
X520590Y227586D01*
X520943Y226735D01*
X521504Y226004D01*
X523895Y223613D01*
X524626Y223052D01*
X525477Y222699D01*
X526391Y222579D01*
X527573D01*
Y219073D01*
X537427D01*
Y228927D01*
X535127D01*
X534880Y229427D01*
X534906Y229461D01*
X539466D01*
Y222000D01*
X539466Y222000D01*
X539603Y220956D01*
X540000Y219997D01*
Y218000D01*
X541228D01*
Y217984D01*
X543357D01*
X543500Y217966D01*
X543643Y217984D01*
X553989D01*
X554004Y217964D01*
X554735Y217403D01*
X555586Y217051D01*
X556000Y216996D01*
Y206500D01*
X558548D01*
X558563Y206488D01*
Y206228D01*
X558902D01*
X559274Y205943D01*
X560126Y205590D01*
X561039Y205470D01*
X561953Y205590D01*
X562805Y205943D01*
X563177Y206228D01*
X563823D01*
X564195Y205943D01*
X565047Y205590D01*
X565961Y205470D01*
X568542D01*
X568577Y205443D01*
X569429Y205090D01*
X570342Y204970D01*
X571256Y205090D01*
X572108Y205443D01*
X572839Y206004D01*
X573434Y205958D01*
X573985Y205535D01*
X574836Y205183D01*
X575750Y205062D01*
X576664Y205183D01*
X577515Y205535D01*
X578246Y206096D01*
X578807Y206827D01*
X579014Y207326D01*
X579622Y207490D01*
X579735Y207403D01*
X580586Y207051D01*
X581500Y206930D01*
X581679Y206954D01*
X586728D01*
X586774Y206960D01*
X587000Y206930D01*
X592500D01*
X593414Y207051D01*
X594265Y207403D01*
X594996Y207964D01*
X595012Y207984D01*
X595272D01*
Y208000D01*
X600000D01*
Y218000D01*
X596030D01*
Y220359D01*
X595910Y221272D01*
X595845Y221429D01*
Y227500D01*
Y299185D01*
X595725Y300099D01*
X595372Y300950D01*
X594974Y301470D01*
X595141Y301970D01*
X612000D01*
X612914Y302090D01*
X613765Y302443D01*
X614496Y303004D01*
X614496Y303004D01*
X615756D01*
Y307996D01*
X614496D01*
X614496Y307996D01*
X613765Y308557D01*
X612914Y308910D01*
X612000Y309030D01*
X595530D01*
Y406803D01*
X595500Y407033D01*
Y417000D01*
X702000D01*
Y98500D01*
D02*
G37*
G36*
X400360Y299185D02*
X400583Y298752D01*
X400346Y298397D01*
X400199Y297661D01*
X400346Y296926D01*
X400762Y296302D01*
X401386Y295885D01*
X401837Y295795D01*
X401788Y295295D01*
X396022D01*
X395304Y295201D01*
X394635Y294924D01*
X394060Y294483D01*
X394051Y294471D01*
X394039Y294461D01*
X393598Y293887D01*
X393321Y293218D01*
X393226Y292500D01*
Y278931D01*
X389500D01*
X388782Y278837D01*
X388768Y278831D01*
X386531D01*
Y273484D01*
X388768D01*
X388782Y273478D01*
X389500Y273384D01*
X395845D01*
X396562Y273478D01*
X396577Y273484D01*
X398969D01*
Y278831D01*
X398774D01*
Y289748D01*
X400246D01*
X400346Y289248D01*
X400709Y288705D01*
X400346Y288161D01*
X400199Y287425D01*
X400346Y286689D01*
X400709Y286146D01*
X400346Y285602D01*
X400199Y284866D01*
X400346Y284130D01*
X400762Y283506D01*
X401386Y283090D01*
X401990Y282970D01*
Y263500D01*
X402024Y263245D01*
Y260728D01*
X403868D01*
X404233Y260577D01*
X405016Y260474D01*
X407825D01*
Y257000D01*
X407928Y256217D01*
X408079Y255852D01*
Y254031D01*
X410415D01*
X410850Y253974D01*
X411286Y254031D01*
X413622D01*
Y255852D01*
X413740Y256136D01*
X414000Y256179D01*
X414260Y256136D01*
X414378Y255852D01*
Y254031D01*
X416714D01*
X417150Y253974D01*
X419328D01*
X419457Y253664D01*
X419487Y253474D01*
X418943Y252765D01*
X418590Y251914D01*
X418470Y251000D01*
Y245530D01*
X390962D01*
X385290Y251202D01*
Y275000D01*
X385170Y275914D01*
X384817Y276765D01*
X384741Y276865D01*
Y277886D01*
X383748D01*
X383525Y278057D01*
X382674Y278410D01*
X381760Y278530D01*
X380847Y278410D01*
X380073Y278089D01*
X379803Y278197D01*
X379573Y278363D01*
Y282943D01*
X379878D01*
X380614Y283090D01*
X381238Y283506D01*
X381654Y284130D01*
X381801Y284866D01*
X381654Y285602D01*
X381291Y286146D01*
X381654Y286689D01*
X381801Y287425D01*
X381654Y288161D01*
X381291Y288705D01*
X381654Y289248D01*
X381758Y289770D01*
X385043D01*
X385761Y289864D01*
X386430Y290141D01*
X387005Y290582D01*
X388961Y292539D01*
X389402Y293113D01*
X389679Y293782D01*
X389774Y294500D01*
Y298500D01*
X390274Y298647D01*
X391024Y298145D01*
X392000Y297951D01*
X397500D01*
X398476Y298145D01*
X399302Y298698D01*
X399865Y299260D01*
X400360Y299185D01*
D02*
G37*
G36*
X355384Y297989D02*
X352198Y294803D01*
X351646Y293976D01*
X351469Y293087D01*
X350882D01*
Y285575D01*
X356819D01*
Y292214D01*
X359717Y295112D01*
X367359D01*
X367451Y295000D01*
X367577Y294365D01*
X367525Y294355D01*
X366698Y293802D01*
X366145Y292975D01*
X365951Y292000D01*
X366145Y291024D01*
X366698Y290198D01*
X367172Y289724D01*
X367123Y289228D01*
X365698Y287802D01*
X365145Y286976D01*
X364951Y286000D01*
Y282500D01*
X365145Y281524D01*
X365698Y280698D01*
X366525Y280145D01*
X367500Y279951D01*
X368476Y280145D01*
X369302Y280698D01*
X369855Y281524D01*
X370049Y282500D01*
Y284876D01*
X372238D01*
X372247Y284866D01*
X372393Y284130D01*
X372810Y283506D01*
X373433Y283090D01*
X374169Y282943D01*
X374475D01*
Y277886D01*
X373259D01*
Y272114D01*
X378230D01*
Y249740D01*
X378350Y248826D01*
X378703Y247975D01*
X379264Y247244D01*
X387004Y239504D01*
X387735Y238943D01*
X388586Y238590D01*
X389500Y238470D01*
X419114D01*
Y237284D01*
X419008Y237147D01*
X418731Y236478D01*
X418636Y235760D01*
X418731Y235042D01*
X419008Y234373D01*
X419114Y234235D01*
Y233499D01*
X419839D01*
X420023Y233358D01*
X420692Y233081D01*
X421410Y232986D01*
X430667D01*
X431385Y233081D01*
X432054Y233358D01*
X432366Y233597D01*
X432509D01*
X433337Y233761D01*
X434038Y234230D01*
X434507Y234932D01*
X434672Y235760D01*
X434507Y236588D01*
X434038Y237290D01*
X433605Y237579D01*
X433355Y237901D01*
X433399Y238256D01*
X433590Y238717D01*
X433693Y239500D01*
Y243240D01*
Y244914D01*
X434508Y245729D01*
X434970Y245537D01*
Y243583D01*
X435090Y242670D01*
X435443Y241818D01*
X435714Y241465D01*
X435962Y241030D01*
X435493Y240328D01*
X435328Y239500D01*
X435493Y238672D01*
X435687Y238382D01*
X435420Y237881D01*
X435369D01*
Y233638D01*
X436474D01*
Y229756D01*
X436577Y228973D01*
X436879Y228243D01*
X437122Y227927D01*
Y227378D01*
X437671D01*
X437987Y227135D01*
X438717Y226833D01*
X439500Y226730D01*
X448003D01*
X448224Y226282D01*
X448006Y225997D01*
X447603Y225024D01*
X447466Y223980D01*
Y212534D01*
X366000D01*
X364956Y212397D01*
X363983Y211994D01*
X363147Y211353D01*
X362506Y210517D01*
X362103Y209544D01*
X361965Y208500D01*
X362103Y207456D01*
X362506Y206483D01*
X363147Y205647D01*
X363983Y205006D01*
X364956Y204603D01*
X366000Y204466D01*
X447466D01*
Y201000D01*
X447466Y201000D01*
X447603Y199956D01*
X448006Y198983D01*
X448647Y198147D01*
X457647Y189147D01*
X457647Y189147D01*
X458483Y188506D01*
X459456Y188103D01*
X460500Y187966D01*
X460500Y187966D01*
X547466D01*
Y166500D01*
X547531Y166000D01*
X547466Y165500D01*
X547466Y165500D01*
Y151661D01*
X546465D01*
Y145331D01*
X549054D01*
X549483Y145002D01*
X550456Y144599D01*
X551500Y144462D01*
X552544Y144599D01*
X553517Y145002D01*
X553946Y145331D01*
X556535D01*
Y151661D01*
X555535D01*
Y162053D01*
X556035Y162260D01*
X558465Y159829D01*
Y146535D01*
X558603Y145491D01*
X559006Y144518D01*
X559126Y144362D01*
Y143653D01*
X559686D01*
X560483Y143041D01*
X561456Y142638D01*
X562500Y142501D01*
X563544Y142638D01*
X564517Y143041D01*
X565314Y143653D01*
X565874D01*
Y143986D01*
X567409D01*
X569920Y141475D01*
X569728Y141014D01*
X565874D01*
Y141347D01*
X559126D01*
Y135582D01*
X565874D01*
Y135916D01*
X571420D01*
X571658Y135868D01*
X572517Y136039D01*
X572766D01*
X573045Y135984D01*
Y133693D01*
X573179Y133020D01*
X571824Y131665D01*
X571271Y130838D01*
X571077Y129862D01*
Y129549D01*
X565193D01*
Y129929D01*
X549807D01*
Y124071D01*
X565193D01*
Y124451D01*
X571658D01*
X572517Y124622D01*
X572766D01*
X573045Y124566D01*
Y123321D01*
X571273D01*
X570297Y123127D01*
X570197Y123061D01*
X565106D01*
X564131Y122867D01*
X563304Y122314D01*
X561588Y120598D01*
X560924D01*
X560709Y120879D01*
X559769Y121600D01*
X558675Y122054D01*
X557500Y122208D01*
X556325Y122054D01*
X555231Y121600D01*
X554291Y120879D01*
X554075Y120598D01*
X549807D01*
Y114740D01*
X552961D01*
Y108809D01*
X552691Y108539D01*
X536034D01*
Y123000D01*
X536002Y123250D01*
X536034Y123500D01*
Y130252D01*
X535897Y131296D01*
X535494Y132269D01*
X535245Y132593D01*
Y135234D01*
X535565Y136004D01*
X535685Y136918D01*
Y145956D01*
X535565Y146869D01*
X535212Y147721D01*
X534842Y148202D01*
Y150453D01*
X526937D01*
Y142547D01*
X528624D01*
Y136918D01*
X528745Y136004D01*
X529064Y135234D01*
Y132996D01*
X528506Y132269D01*
X528103Y131296D01*
X527965Y130252D01*
Y127034D01*
X525920D01*
X524876Y126897D01*
X523903Y126494D01*
X523616Y126274D01*
X521481D01*
X520720Y126425D01*
X519638D01*
X519638Y126425D01*
X519462D01*
X518681Y126270D01*
X518356Y126135D01*
X517694Y125693D01*
X517445Y125444D01*
X517445Y125444D01*
X517445Y125444D01*
X517225Y125115D01*
X517003Y124782D01*
X517003Y124782D01*
X517003Y124782D01*
X516868Y124457D01*
X516713Y123676D01*
Y123324D01*
X516868Y122544D01*
X517003Y122218D01*
X517003Y122218D01*
X517003Y122218D01*
X517272Y121816D01*
Y121444D01*
X517003Y121042D01*
X517003Y121042D01*
X517003Y121042D01*
X516868Y120716D01*
X516713Y119936D01*
Y119584D01*
X516868Y118803D01*
X517003Y118478D01*
X517003Y118478D01*
X517003Y118478D01*
X517396Y117890D01*
X517003Y117302D01*
X517003Y117302D01*
X517003Y117302D01*
X516868Y116976D01*
X516713Y116196D01*
Y115843D01*
X516868Y115063D01*
X517003Y114738D01*
X517003Y114738D01*
X517003Y114737D01*
X517225Y114405D01*
X517445Y114076D01*
X517445Y114076D01*
X517445Y114076D01*
X517694Y113827D01*
X517694Y113827D01*
X517694Y113827D01*
X518023Y113607D01*
X518356Y113385D01*
X518356Y113385D01*
X518356Y113385D01*
X518681Y113250D01*
X519462Y113095D01*
X520720Y113095D01*
X521501Y113250D01*
X522162Y113692D01*
X522604Y114354D01*
X522760Y115134D01*
Y116905D01*
X522604Y117686D01*
X522468Y117890D01*
X522604Y118094D01*
X522760Y118874D01*
Y119773D01*
X523555D01*
X523903Y119506D01*
X524876Y119103D01*
X525920Y118965D01*
X527965D01*
Y108539D01*
X508133D01*
X507855Y108955D01*
X507910Y109086D01*
X508030Y110000D01*
Y112439D01*
X508223D01*
X509199Y112633D01*
X509938Y113127D01*
X510555Y113250D01*
X510881Y113385D01*
X510881Y113385D01*
X510881Y113385D01*
X511213Y113607D01*
X511542Y113827D01*
X511542Y113827D01*
X511542Y113827D01*
X511791Y114076D01*
X512233Y114737D01*
X512233Y114738D01*
X512368Y115063D01*
X512523Y115843D01*
Y116196D01*
X512368Y116976D01*
X512233Y117302D01*
X511840Y117890D01*
X512233Y118478D01*
X512233Y118478D01*
X512368Y118803D01*
X512523Y119584D01*
Y119936D01*
X512368Y120716D01*
X512233Y121042D01*
X511840Y121630D01*
X512233Y122218D01*
X512233Y122218D01*
X512368Y122543D01*
X512523Y123324D01*
Y123676D01*
X512368Y124457D01*
X512233Y124782D01*
X511791Y125444D01*
X511542Y125693D01*
X510881Y126135D01*
X510881Y126135D01*
X510555Y126270D01*
X509775Y126425D01*
X508530Y126425D01*
X508514Y126426D01*
X508030Y126802D01*
Y140000D01*
X507910Y140914D01*
X507557Y141765D01*
X506996Y142496D01*
X506265Y143057D01*
X505414Y143410D01*
X504500Y143530D01*
X503586Y143410D01*
X502735Y143057D01*
X502004Y142496D01*
X501443Y141765D01*
X501090Y140914D01*
X500970Y140000D01*
Y120500D01*
X501090Y119586D01*
X501443Y118735D01*
X501950Y118074D01*
X502016Y117817D01*
Y117671D01*
X501950Y117415D01*
X501443Y116753D01*
X501090Y115902D01*
X500970Y114988D01*
Y110000D01*
X501090Y109086D01*
X501145Y108955D01*
X500867Y108539D01*
X478720D01*
Y113386D01*
X473455D01*
Y115590D01*
X473896Y115826D01*
X474166Y115645D01*
X475142Y115451D01*
X475925D01*
Y114933D01*
X481075D01*
Y120728D01*
X483679D01*
X484655Y120922D01*
X485396Y121417D01*
X485539D01*
Y121561D01*
X486034Y122302D01*
X486228Y123277D01*
X486034Y124253D01*
X485539Y124994D01*
Y125583D01*
X484729D01*
X484655Y125632D01*
X483679Y125826D01*
X477391D01*
Y127083D01*
X477198Y128058D01*
X476645Y128885D01*
X476335Y129092D01*
Y129461D01*
X475702D01*
X474843Y129632D01*
X473983Y129461D01*
X473734D01*
X472874Y129632D01*
X472014Y129461D01*
X471765D01*
X470957Y129621D01*
X470688Y130059D01*
X471403Y130775D01*
X471724Y130989D01*
X472276Y131816D01*
X472470Y132791D01*
X472276Y133767D01*
X471724Y134594D01*
X471486Y134831D01*
Y136066D01*
X471765Y136122D01*
X472014D01*
X472874Y135951D01*
X473734Y136122D01*
X473983D01*
X474843Y135951D01*
X479702D01*
X480020Y135564D01*
X479951Y135220D01*
Y130772D01*
X480145Y129796D01*
X480417Y129389D01*
Y128689D01*
X481117D01*
X481525Y128417D01*
X482500Y128223D01*
X483475Y128417D01*
X483883Y128689D01*
X484583D01*
Y129389D01*
X484855Y129796D01*
X485049Y130772D01*
Y135220D01*
X484980Y135564D01*
X485298Y135951D01*
X487350D01*
X488326Y136145D01*
X488822Y136476D01*
X489374D01*
Y137029D01*
X489705Y137524D01*
X489899Y138500D01*
X489705Y139476D01*
X489374Y139971D01*
Y140524D01*
X488822D01*
X488326Y140855D01*
X487843Y140951D01*
X487892Y141451D01*
X490031D01*
X491007Y141645D01*
X491285Y141831D01*
X496469D01*
Y148821D01*
X496469Y149169D01*
X496469D01*
Y149321D01*
X496469D01*
Y153992D01*
X496534Y154490D01*
Y160914D01*
X496397Y161958D01*
X495994Y162932D01*
X495353Y163767D01*
X495353Y163767D01*
X488767Y170353D01*
X487931Y170994D01*
X486958Y171397D01*
X485914Y171535D01*
X485914Y171535D01*
X452534D01*
Y177965D01*
X541000D01*
X542044Y178103D01*
X543017Y178506D01*
X543853Y179147D01*
X544494Y179983D01*
X544897Y180956D01*
X545035Y182000D01*
X544897Y183044D01*
X544494Y184017D01*
X543853Y184853D01*
X543017Y185494D01*
X542044Y185897D01*
X541000Y186035D01*
X452398D01*
X452397Y186044D01*
X451994Y187017D01*
X451353Y187853D01*
X451353Y187853D01*
X442353Y196853D01*
X441517Y197494D01*
X440544Y197897D01*
X439500Y198035D01*
X439500Y198035D01*
X423500D01*
X423500Y198035D01*
X360500D01*
X360500Y198035D01*
X356000D01*
X354956Y197897D01*
X353983Y197494D01*
X353691Y197270D01*
X353204D01*
X352937Y197659D01*
Y199031D01*
X358016D01*
Y204969D01*
X357793D01*
Y208500D01*
X357622Y209360D01*
Y210878D01*
X356471D01*
X354606Y212742D01*
X354798Y213205D01*
X357705D01*
Y218795D01*
X352309D01*
X350147Y220958D01*
X350339Y221420D01*
X360779D01*
Y220133D01*
X367719D01*
Y227867D01*
X360779D01*
Y226518D01*
X354226D01*
Y231295D01*
X347774D01*
Y230454D01*
X343911D01*
Y231306D01*
X345556Y232951D01*
X346500D01*
X347476Y233145D01*
X348302Y233698D01*
X348855Y234524D01*
X349049Y235500D01*
X348855Y236475D01*
X348302Y237302D01*
X347476Y237855D01*
X346500Y238049D01*
X344500D01*
X343525Y237855D01*
X342698Y237302D01*
X339560Y234165D01*
X339007Y233338D01*
X338813Y232362D01*
Y229874D01*
X338815Y229866D01*
X338498Y229479D01*
X338429D01*
X337985Y229391D01*
X337609Y229139D01*
X337357Y228763D01*
X337269Y228319D01*
Y227492D01*
X337357Y227048D01*
X337442Y226921D01*
X337357Y226794D01*
X337269Y226350D01*
Y225524D01*
X337357Y225080D01*
X337442Y224953D01*
X337357Y224826D01*
X337269Y224382D01*
Y223555D01*
X337357Y223111D01*
X337442Y222984D01*
X337357Y222857D01*
X337269Y222413D01*
Y221587D01*
X337357Y221143D01*
X337407Y221069D01*
X337215Y220612D01*
X335334D01*
X334358Y220418D01*
X333531Y219865D01*
X333013Y219347D01*
X332198Y218802D01*
X331645Y217975D01*
X331451Y217000D01*
X331184Y216675D01*
X320056D01*
X318834Y217897D01*
X310960Y225771D01*
X310133Y226324D01*
X309157Y226518D01*
X303276D01*
X303084Y226979D01*
X304802Y228698D01*
X305355Y229524D01*
X305875Y229575D01*
X306500Y229451D01*
X307475Y229645D01*
X308302Y230198D01*
X308855Y231025D01*
X309049Y232000D01*
X308909Y232705D01*
Y234742D01*
X308819Y235197D01*
X309280Y235439D01*
X309284Y235436D01*
X309728Y235348D01*
X310555D01*
X310964Y235429D01*
X311033Y235417D01*
X311451Y235176D01*
Y233000D01*
X311645Y232025D01*
X312198Y231198D01*
X313024Y230645D01*
X314000Y230451D01*
X314976Y230645D01*
X315026Y230679D01*
X315467Y230443D01*
Y230016D01*
X315661Y229040D01*
X316213Y228213D01*
X317040Y227661D01*
X318016Y227467D01*
X318991Y227661D01*
X319818Y228213D01*
X320344Y228100D01*
X321024Y227645D01*
X322000Y227451D01*
X322975Y227645D01*
X323802Y228198D01*
X324355Y229025D01*
X324451Y229506D01*
X324729Y229451D01*
X325000D01*
X325975Y229645D01*
X326802Y230198D01*
X326889Y230328D01*
X327571Y230448D01*
X328025Y230145D01*
X329000Y229951D01*
X329976Y230145D01*
X330802Y230698D01*
X331355Y231524D01*
X331549Y232500D01*
X331355Y233475D01*
X330802Y234302D01*
X330407Y234698D01*
Y235294D01*
X330864Y235486D01*
X330938Y235436D01*
X331382Y235348D01*
X332209D01*
X332653Y235436D01*
X333029Y235688D01*
X333280Y236064D01*
X333369Y236508D01*
Y236577D01*
X333755Y236894D01*
X333764Y236892D01*
X334739Y237086D01*
X335566Y237638D01*
X336119Y238465D01*
X336290Y239325D01*
X338374D01*
X339350Y239519D01*
X340176Y240072D01*
X341302Y241198D01*
X341855Y242024D01*
X342049Y243000D01*
X341855Y243975D01*
X341302Y244802D01*
X340476Y245355D01*
X339801Y245489D01*
X339636Y246032D01*
X342230Y248625D01*
X342782Y249452D01*
X342976Y250428D01*
Y256377D01*
X343477Y256528D01*
X343698Y256198D01*
X344525Y255645D01*
X345500Y255451D01*
X346476Y255645D01*
X347302Y256198D01*
X347855Y257025D01*
X348049Y258000D01*
Y272268D01*
X348549Y272420D01*
X348698Y272198D01*
X349524Y271645D01*
X350500Y271451D01*
X358000D01*
X358976Y271645D01*
X359802Y272198D01*
X361952Y274347D01*
X362505Y275174D01*
X362699Y276150D01*
Y276913D01*
X363118D01*
Y284425D01*
X357181D01*
Y284425D01*
X356819D01*
Y284425D01*
X353929D01*
X353307Y284549D01*
X349000D01*
X348435Y284437D01*
X348049Y284754D01*
Y289000D01*
X347855Y289976D01*
X347302Y290802D01*
X340154Y297951D01*
X340361Y298451D01*
X355193D01*
X355384Y297989D01*
D02*
G37*
G36*
X316427Y299698D02*
X317254Y299145D01*
X318229Y298951D01*
X318500D01*
X319476Y299145D01*
X319768Y299341D01*
X320198Y298698D01*
X320205Y298690D01*
X320494Y298497D01*
X320145Y297975D01*
X319951Y297000D01*
X320145Y296024D01*
X320698Y295198D01*
X321525Y294645D01*
X322500Y294451D01*
X322771D01*
X323746Y294645D01*
X324350Y295049D01*
X324424Y295041D01*
X324850Y294781D01*
Y293029D01*
Y289092D01*
X326679D01*
X326848Y288839D01*
X327675Y288287D01*
X328650Y288093D01*
X332802D01*
X335951Y284944D01*
Y259556D01*
X332838Y256442D01*
X332376Y256634D01*
Y259673D01*
X332182Y260649D01*
X331629Y261476D01*
X328302Y264802D01*
X327476Y265355D01*
X326500Y265549D01*
X308556D01*
X307549Y266556D01*
Y288093D01*
X311350D01*
X312101Y288242D01*
X312601Y287915D01*
Y281036D01*
X311909D01*
Y274476D01*
Y272928D01*
X311590Y272158D01*
X311470Y271244D01*
X311590Y270330D01*
X311909Y269560D01*
Y267964D01*
X313772D01*
X314086Y267834D01*
X315000Y267714D01*
X320350D01*
Y266839D01*
X328650D01*
Y274350D01*
X325497D01*
X324764Y274654D01*
X323850Y274774D01*
X318091D01*
Y281036D01*
X317699D01*
Y291974D01*
X317505Y292950D01*
X316952Y293777D01*
X316367Y294363D01*
X315540Y294915D01*
X315150Y294993D01*
Y296129D01*
X314210D01*
X313893Y296515D01*
X313899Y296547D01*
X313893Y296579D01*
X314210Y296966D01*
X315150D01*
Y299904D01*
X316221D01*
X316427Y299698D01*
D02*
G37*
G36*
X425539Y297380D02*
X425759Y297211D01*
Y296614D01*
X425966D01*
Y292541D01*
X425893Y292446D01*
X425616Y291777D01*
X425522Y291059D01*
X425616Y290341D01*
X425893Y289672D01*
X426334Y289098D01*
X426425Y289028D01*
Y288575D01*
X427107D01*
X427577Y288380D01*
X428295Y288285D01*
X429013Y288380D01*
X429484Y288575D01*
X430730D01*
Y264722D01*
X424845Y258838D01*
X424346Y258870D01*
X424140Y259140D01*
X423513Y259620D01*
X422783Y259923D01*
X422000Y260026D01*
X417150D01*
X416714Y259968D01*
X414378D01*
Y258653D01*
X414376Y258652D01*
X413876Y258889D01*
Y261285D01*
X414376Y261542D01*
X414378Y261541D01*
Y260531D01*
X419921D01*
Y266469D01*
X419786D01*
Y268226D01*
X421194D01*
X421912Y268321D01*
X422581Y268598D01*
X423155Y269039D01*
X423741Y269624D01*
X424182Y270199D01*
X424459Y270868D01*
X424553Y271586D01*
Y297447D01*
X425472D01*
X425539Y297380D01*
D02*
G37*
G36*
X434970Y258324D02*
Y253343D01*
X434594Y253013D01*
X434500Y253026D01*
X433717Y252923D01*
X432987Y252621D01*
X432360Y252140D01*
X428528Y248307D01*
X428047Y247680D01*
X427745Y246951D01*
X427641Y246167D01*
Y243240D01*
Y239500D01*
X427703Y239034D01*
X427317Y238534D01*
X424886D01*
Y240012D01*
X425057Y240235D01*
X425410Y241086D01*
X425530Y242000D01*
Y249538D01*
X434508Y258515D01*
X434970Y258324D01*
D02*
G37*
G36*
X591466Y153420D02*
X591603Y152376D01*
X592006Y151403D01*
X592409Y150878D01*
Y149049D01*
X587500D01*
X587135Y148976D01*
X584531D01*
Y148649D01*
X583642Y148472D01*
X582815Y147920D01*
X581208Y146313D01*
X580710Y146362D01*
X580416Y146802D01*
X580386Y146822D01*
Y150133D01*
X580401Y150152D01*
X580753Y151003D01*
X580873Y151917D01*
Y157883D01*
X580946Y157966D01*
X584749D01*
X585066Y157579D01*
X584951Y157000D01*
Y152406D01*
X585145Y151430D01*
X585698Y150603D01*
X586524Y150051D01*
X587500Y149856D01*
X588476Y150051D01*
X589302Y150603D01*
X589855Y151430D01*
X590049Y152406D01*
Y157000D01*
X589934Y157579D01*
X590251Y157966D01*
X591466D01*
Y153420D01*
D02*
G37*
G36*
X488465Y159243D02*
Y154490D01*
X488531Y153992D01*
Y149321D01*
X488531Y149321D01*
Y149169D01*
X488531D01*
X488531Y148821D01*
Y146549D01*
X486078D01*
Y146784D01*
X478922D01*
Y146549D01*
X477886D01*
Y150697D01*
X478305Y151243D01*
X478658Y152095D01*
X478778Y153008D01*
Y154970D01*
X481000D01*
X481613Y155051D01*
X482039Y154629D01*
X482029Y154578D01*
Y152566D01*
X481525Y152466D01*
X480698Y151913D01*
X480145Y151086D01*
X479951Y150111D01*
X480145Y149135D01*
X480698Y148309D01*
X481525Y147756D01*
X482500Y147562D01*
X483295D01*
X484270Y147756D01*
X485097Y148309D01*
X486381Y149592D01*
X486933Y150419D01*
X487127Y151394D01*
Y153684D01*
X487355Y154025D01*
X487549Y155000D01*
X487355Y155975D01*
X486802Y156802D01*
X485976Y157355D01*
X485000Y157549D01*
X484907Y157530D01*
X484458Y157951D01*
X484530Y158500D01*
X484410Y159414D01*
X484057Y160265D01*
X483496Y160996D01*
X482765Y161557D01*
X481914Y161910D01*
X481000Y162030D01*
X477005D01*
X476092Y161910D01*
X475240Y161557D01*
X474509Y160996D01*
X472752Y159239D01*
X472191Y158508D01*
X471838Y157656D01*
X471718Y156743D01*
Y153983D01*
X471590Y153674D01*
X471470Y152760D01*
X471590Y151847D01*
X471943Y150995D01*
X472114Y150772D01*
Y147864D01*
X472001Y147751D01*
X471717Y147562D01*
X470344Y146189D01*
X469882Y146380D01*
Y149374D01*
X469049D01*
Y150626D01*
X469382D01*
Y152007D01*
X469557Y152235D01*
X469910Y153086D01*
X470030Y154000D01*
Y163465D01*
X484243D01*
X488465Y159243D01*
D02*
G37*
G36*
X573813Y157883D02*
Y151917D01*
X573933Y151003D01*
X574286Y150152D01*
X574614Y149725D01*
Y144644D01*
X574152Y144453D01*
X570267Y148338D01*
X569440Y148890D01*
X568465Y149084D01*
X566535D01*
Y157966D01*
X573740D01*
X573813Y157883D01*
D02*
G37*
G36*
X519638Y124386D02*
X520720D01*
Y122614D01*
X519462D01*
X519136Y122749D01*
X518887Y122998D01*
X518752Y123324D01*
Y123500D01*
Y123676D01*
X518887Y124002D01*
X519136Y124251D01*
X519462Y124386D01*
X519638D01*
Y124386D01*
D02*
G37*
G36*
X510100Y124251D02*
X510349Y124002D01*
X510484Y123676D01*
Y123500D01*
Y123324D01*
X510349Y122998D01*
X510100Y122749D01*
X509775Y122614D01*
X508516D01*
Y124386D01*
X509598Y124386D01*
X509775D01*
X510100Y124251D01*
D02*
G37*
G36*
X520720Y118874D02*
X519462D01*
X519136Y119009D01*
X518887Y119258D01*
X518752Y119584D01*
Y119760D01*
Y119936D01*
X518887Y120262D01*
X519136Y120511D01*
X519462Y120646D01*
X520720D01*
Y118874D01*
D02*
G37*
G36*
X510100Y120511D02*
X510349Y120262D01*
X510484Y119936D01*
Y119760D01*
Y119584D01*
X510349Y119258D01*
X510100Y119009D01*
X509775Y118874D01*
X508516D01*
Y120646D01*
X509775D01*
X510100Y120511D01*
D02*
G37*
G36*
X520720Y115134D02*
X519638Y115134D01*
X519462D01*
X519136Y115269D01*
X518887Y115518D01*
X518752Y115843D01*
Y116020D01*
Y116196D01*
X518887Y116522D01*
X519136Y116771D01*
X519462Y116905D01*
X520720D01*
Y115134D01*
D02*
G37*
G36*
X510100Y116771D02*
X510349Y116522D01*
X510484Y116196D01*
Y116020D01*
Y115843D01*
X510349Y115518D01*
X510100Y115269D01*
X509775Y115134D01*
X509598D01*
Y115134D01*
X508516D01*
Y116905D01*
X509775D01*
X510100Y116771D01*
D02*
G37*
G36*
X468346Y118642D02*
X468357Y118146D01*
Y112094D01*
X468551Y111119D01*
X469103Y110292D01*
X470356Y109039D01*
X470149Y108539D01*
X467522D01*
X467188Y109039D01*
X467410Y109574D01*
X467530Y110488D01*
X467410Y111402D01*
X467057Y112253D01*
X466496Y112984D01*
X465765Y113545D01*
X464914Y113898D01*
X464000Y114018D01*
X459465D01*
X459193Y114406D01*
Y118547D01*
X459654Y118642D01*
Y118642D01*
X468346D01*
D02*
G37*
%LPC*%
G36*
X397456Y407461D02*
X396544D01*
X395664Y407225D01*
X394875Y406769D01*
X394231Y406125D01*
X393775Y405336D01*
X393539Y404456D01*
Y403544D01*
X393775Y402664D01*
X394231Y401875D01*
X394875Y401231D01*
X395664Y400775D01*
X396544Y400539D01*
X397456D01*
X398336Y400775D01*
X399125Y401231D01*
X399769Y401875D01*
X400225Y402664D01*
X400461Y403544D01*
Y404456D01*
X400225Y405336D01*
X399769Y406125D01*
X399125Y406769D01*
X398336Y407225D01*
X397456Y407461D01*
D02*
G37*
G36*
X400461Y387461D02*
X393539D01*
Y380539D01*
X400461D01*
Y387461D01*
D02*
G37*
G36*
X356526Y381142D02*
X355474D01*
X354459Y380870D01*
X353549Y380344D01*
X352805Y379601D01*
X352280Y378690D01*
X352008Y377675D01*
Y376624D01*
X352280Y375609D01*
X352805Y374698D01*
X353549Y373955D01*
X354459Y373429D01*
X355474Y373157D01*
X356526D01*
X357541Y373429D01*
X358451Y373955D01*
X359194Y374698D01*
X359720Y375609D01*
X359992Y376624D01*
Y377675D01*
X359720Y378690D01*
X359194Y379601D01*
X358451Y380344D01*
X357541Y380870D01*
X356526Y381142D01*
D02*
G37*
G36*
X346526D02*
X345474D01*
X344459Y380870D01*
X343549Y380344D01*
X342806Y379601D01*
X342280Y378690D01*
X342008Y377675D01*
Y376624D01*
X342280Y375609D01*
X342806Y374698D01*
X343549Y373955D01*
X344459Y373429D01*
X345474Y373157D01*
X346526D01*
X347541Y373429D01*
X348451Y373955D01*
X349195Y374698D01*
X349720Y375609D01*
X349992Y376624D01*
Y377675D01*
X349720Y378690D01*
X349195Y379601D01*
X348451Y380344D01*
X347541Y380870D01*
X346526Y381142D01*
D02*
G37*
G36*
X336526D02*
X335474D01*
X334459Y380870D01*
X333549Y380344D01*
X332805Y379601D01*
X332280Y378690D01*
X332008Y377675D01*
Y376624D01*
X332280Y375609D01*
X332805Y374698D01*
X333549Y373955D01*
X334459Y373429D01*
X335474Y373157D01*
X336526D01*
X337541Y373429D01*
X338451Y373955D01*
X339194Y374698D01*
X339720Y375609D01*
X339992Y376624D01*
Y377675D01*
X339720Y378690D01*
X339194Y379601D01*
X338451Y380344D01*
X337541Y380870D01*
X336526Y381142D01*
D02*
G37*
G36*
X326526D02*
X325474D01*
X324459Y380870D01*
X323549Y380344D01*
X322806Y379601D01*
X322280Y378690D01*
X322008Y377675D01*
Y376624D01*
X322280Y375609D01*
X322806Y374698D01*
X323549Y373955D01*
X324459Y373429D01*
X325474Y373157D01*
X326526D01*
X327541Y373429D01*
X328451Y373955D01*
X329194Y374698D01*
X329720Y375609D01*
X329992Y376624D01*
Y377675D01*
X329720Y378690D01*
X329194Y379601D01*
X328451Y380344D01*
X327541Y380870D01*
X326526Y381142D01*
D02*
G37*
G36*
X316526D02*
X315474D01*
X314459Y380870D01*
X313549Y380344D01*
X312806Y379601D01*
X312280Y378690D01*
X312008Y377675D01*
Y376624D01*
X312280Y375609D01*
X312806Y374698D01*
X313549Y373955D01*
X314459Y373429D01*
X315474Y373157D01*
X316526D01*
X317541Y373429D01*
X318451Y373955D01*
X319195Y374698D01*
X319720Y375609D01*
X319992Y376624D01*
Y377675D01*
X319720Y378690D01*
X319195Y379601D01*
X318451Y380344D01*
X317541Y380870D01*
X316526Y381142D01*
D02*
G37*
G36*
X306526D02*
X305474D01*
X304459Y380870D01*
X303549Y380344D01*
X302805Y379601D01*
X302280Y378690D01*
X302008Y377675D01*
Y376624D01*
X302280Y375609D01*
X302805Y374698D01*
X303549Y373955D01*
X304459Y373429D01*
X305474Y373157D01*
X306526D01*
X307541Y373429D01*
X308451Y373955D01*
X309194Y374698D01*
X309720Y375609D01*
X309992Y376624D01*
Y377675D01*
X309720Y378690D01*
X309194Y379601D01*
X308451Y380344D01*
X307541Y380870D01*
X306526Y381142D01*
D02*
G37*
G36*
X367496Y381190D02*
X364504D01*
X363530Y380997D01*
X362704Y380445D01*
X362153Y379620D01*
X361959Y378645D01*
Y375653D01*
X362153Y374679D01*
X362704Y373854D01*
X363530Y373302D01*
X364504Y373109D01*
X367496D01*
X368470Y373302D01*
X369296Y373854D01*
X369847Y374679D01*
X370041Y375653D01*
Y378645D01*
X369847Y379620D01*
X369296Y380445D01*
X368470Y380997D01*
X367496Y381190D01*
D02*
G37*
G36*
X693000Y376030D02*
X664500D01*
X663586Y375910D01*
X662735Y375557D01*
X662004Y374996D01*
X640682Y353674D01*
X640121Y352943D01*
X639768Y352092D01*
X639648Y351178D01*
Y336375D01*
X639590Y336236D01*
X639470Y335322D01*
Y319030D01*
X625504D01*
X624590Y318910D01*
X623739Y318557D01*
X623008Y317996D01*
X623008Y317996D01*
X621748D01*
Y313004D01*
X623008D01*
X623008Y313004D01*
X623739Y312443D01*
X624590Y312090D01*
X625504Y311970D01*
X639330D01*
Y309030D01*
X625504D01*
X624590Y308910D01*
X623739Y308557D01*
X623008Y307996D01*
X623008Y307996D01*
X621748D01*
Y303004D01*
X623008D01*
X623008Y303004D01*
X623739Y302443D01*
X624590Y302090D01*
X625504Y301970D01*
X640358D01*
Y289447D01*
X640396Y289161D01*
X640309Y288500D01*
Y273661D01*
X640429Y272747D01*
X640782Y271896D01*
X641343Y271165D01*
X657626Y254882D01*
X658357Y254321D01*
X659208Y253968D01*
X660122Y253848D01*
X693287D01*
X693517Y253878D01*
X701374D01*
Y260878D01*
X693517D01*
X693287Y260908D01*
X661584D01*
X647369Y275123D01*
Y284077D01*
X647740Y284325D01*
X647869Y284327D01*
X648888Y284193D01*
X649933Y284331D01*
X650259Y284466D01*
X679500D01*
Y282500D01*
X701500D01*
Y304500D01*
X679500D01*
Y292534D01*
X649161D01*
X648117Y292397D01*
X647919Y292315D01*
X647419Y292649D01*
Y305500D01*
Y308000D01*
X647298Y308914D01*
X646946Y309765D01*
X646670Y310125D01*
Y316434D01*
X646530D01*
Y331830D01*
X649071D01*
X649773Y331738D01*
X679500D01*
Y324500D01*
X701500D01*
Y346500D01*
X679500D01*
Y339807D01*
X649773D01*
X648728Y339669D01*
X647755Y339266D01*
X647629Y339170D01*
X646708D01*
Y349716D01*
X665962Y368970D01*
X693000D01*
X693229Y369000D01*
X701087D01*
Y376000D01*
X693229D01*
X693000Y376030D01*
D02*
G37*
G36*
X555260Y329530D02*
X554347Y329410D01*
X553495Y329057D01*
X553272Y328886D01*
X552280D01*
Y327961D01*
X551886Y327448D01*
X551533Y326597D01*
X551413Y325683D01*
Y320643D01*
X551291Y320529D01*
X550913Y320317D01*
X550062Y320486D01*
X549087Y320292D01*
X548839Y320127D01*
X546976D01*
Y315873D01*
X548522D01*
X549443Y314952D01*
Y311040D01*
X549435Y311000D01*
X549629Y310024D01*
X550182Y309198D01*
X550394Y309056D01*
Y308327D01*
X557590D01*
Y309056D01*
X557802Y309198D01*
X558355Y310024D01*
X558549Y311000D01*
X558420Y311649D01*
X558473Y312057D01*
Y324612D01*
X558670Y325086D01*
X558790Y326000D01*
X558670Y326914D01*
X558317Y327765D01*
X558241Y327865D01*
Y328886D01*
X557248D01*
X557025Y329057D01*
X556174Y329410D01*
X555260Y329530D01*
D02*
G37*
G36*
X341882Y340309D02*
X334760D01*
X333784Y340115D01*
X332957Y339562D01*
X310615Y317220D01*
X310108Y316881D01*
X309698Y316471D01*
X309145Y315644D01*
X308951Y314668D01*
Y314500D01*
X309145Y313525D01*
X309698Y312698D01*
X310525Y312145D01*
X311500Y311951D01*
X312475Y312145D01*
X313302Y312698D01*
X313534Y313045D01*
X313881Y313276D01*
X335816Y335211D01*
X341882D01*
X342857Y335405D01*
X343082Y335555D01*
X343847D01*
X344315Y335648D01*
X344712Y335914D01*
X344978Y336311D01*
X345071Y336779D01*
Y338740D01*
X344978Y339209D01*
X344712Y339606D01*
X344315Y339871D01*
X343847Y339965D01*
X343082D01*
X342857Y340115D01*
X341882Y340309D01*
D02*
G37*
G36*
X305968Y315016D02*
X300031D01*
Y314892D01*
X297843D01*
X296867Y314698D01*
X296040Y314145D01*
X295698Y313802D01*
X295145Y312976D01*
X294951Y312000D01*
X295145Y311024D01*
X295698Y310198D01*
X296525Y309645D01*
X297500Y309451D01*
X298476Y309645D01*
X298698Y309793D01*
X300031D01*
Y309669D01*
X305968D01*
Y315016D01*
D02*
G37*
G36*
X531862Y300488D02*
X525138D01*
Y295339D01*
X525951D01*
Y292201D01*
X526145Y291225D01*
X526299Y290995D01*
Y289951D01*
X527367D01*
X527525Y289846D01*
X528500Y289652D01*
X529475Y289846D01*
X529633Y289951D01*
X530701D01*
Y290995D01*
X530855Y291225D01*
X531049Y292201D01*
Y295339D01*
X531862D01*
Y300488D01*
D02*
G37*
G36*
X557590Y302256D02*
X550394D01*
Y301527D01*
X550182Y301385D01*
X549629Y300558D01*
X549435Y299583D01*
Y291386D01*
X548999D01*
Y285614D01*
X554960D01*
Y291386D01*
X554533D01*
Y296909D01*
X557590D01*
Y297639D01*
X557802Y297780D01*
X558355Y298607D01*
X558549Y299583D01*
X558355Y300558D01*
X557802Y301385D01*
X557590Y301527D01*
Y302256D01*
D02*
G37*
G36*
X241376Y290492D02*
X240325D01*
X239310Y290220D01*
X238399Y289694D01*
X237656Y288951D01*
X237130Y288041D01*
X236858Y287026D01*
Y285974D01*
X237130Y284959D01*
X237656Y284049D01*
X238399Y283306D01*
X239310Y282780D01*
X240325Y282508D01*
X241376D01*
X242391Y282780D01*
X243302Y283306D01*
X244045Y284049D01*
X244571Y284959D01*
X244843Y285974D01*
Y287026D01*
X244571Y288041D01*
X244045Y288951D01*
X243302Y289694D01*
X242391Y290220D01*
X241376Y290492D01*
D02*
G37*
G36*
Y280492D02*
X240325D01*
X239310Y280220D01*
X238399Y279695D01*
X237656Y278951D01*
X237130Y278041D01*
X236858Y277026D01*
Y275974D01*
X237130Y274959D01*
X237656Y274049D01*
X238399Y273306D01*
X239310Y272780D01*
X240325Y272508D01*
X241376D01*
X242391Y272780D01*
X243302Y273306D01*
X244045Y274049D01*
X244571Y274959D01*
X244843Y275974D01*
Y277026D01*
X244571Y278041D01*
X244045Y278951D01*
X243302Y279695D01*
X242391Y280220D01*
X241376Y280492D01*
D02*
G37*
G36*
X533500Y274530D02*
X532586Y274410D01*
X531735Y274057D01*
X531004Y273496D01*
X530443Y272765D01*
X530090Y271914D01*
X529970Y271000D01*
Y265000D01*
X530090Y264086D01*
X530443Y263235D01*
X530614Y263012D01*
Y262282D01*
X530030Y261521D01*
X529627Y260548D01*
X529490Y259504D01*
X529627Y258460D01*
X530030Y257487D01*
X530614Y256726D01*
Y256499D01*
X530869D01*
X531507Y256010D01*
X532480Y255607D01*
X533524Y255469D01*
X539820D01*
X539953Y254456D01*
X540356Y253483D01*
X540606Y253157D01*
Y248496D01*
X547094D01*
Y253157D01*
X547344Y253483D01*
X547747Y254456D01*
X547885Y255500D01*
Y259260D01*
X547885Y259260D01*
X547747Y260304D01*
X547344Y261277D01*
X547094Y261603D01*
Y262504D01*
X546267D01*
X545623Y262998D01*
X544651Y263401D01*
X543606Y263539D01*
X543606Y263539D01*
X537133D01*
X536855Y263954D01*
X536910Y264086D01*
X537030Y265000D01*
Y271000D01*
X536910Y271914D01*
X536557Y272765D01*
X535996Y273496D01*
X535265Y274057D01*
X534414Y274410D01*
X533500Y274530D01*
D02*
G37*
G36*
X563394Y262504D02*
X556906D01*
Y248496D01*
X559263D01*
X559624Y248219D01*
X560719Y247765D01*
X561894Y247611D01*
X574500D01*
X575675Y247765D01*
X576769Y248219D01*
X577664Y248905D01*
X581504D01*
Y255394D01*
X577664D01*
X576769Y256080D01*
X575675Y256534D01*
X574500Y256688D01*
X563394D01*
Y262504D01*
D02*
G37*
G36*
X263500Y270534D02*
X263500Y270534D01*
X240850D01*
X240528Y270492D01*
X240325D01*
X240128Y270439D01*
X239806Y270397D01*
X239506Y270273D01*
X239310Y270220D01*
X239133Y270118D01*
X238833Y269994D01*
X238576Y269796D01*
X238399Y269694D01*
X238255Y269551D01*
X237998Y269353D01*
X237800Y269095D01*
X237656Y268951D01*
X237554Y268775D01*
X237356Y268517D01*
X237232Y268217D01*
X237130Y268041D01*
X237078Y267844D01*
X236953Y267544D01*
X236911Y267222D01*
X236858Y267026D01*
Y266822D01*
X236816Y266500D01*
X236858Y266178D01*
Y265974D01*
X236911Y265778D01*
X236953Y265456D01*
X237078Y265156D01*
X237130Y264959D01*
X237232Y264783D01*
X237356Y264483D01*
X237554Y264225D01*
X237656Y264049D01*
X237800Y263905D01*
X237998Y263647D01*
X238255Y263449D01*
X238399Y263305D01*
X238576Y263204D01*
X238833Y263006D01*
X239133Y262882D01*
X239310Y262780D01*
X239506Y262727D01*
X239806Y262603D01*
X240128Y262561D01*
X240325Y262508D01*
X240528D01*
X240850Y262466D01*
X261829D01*
X279147Y245147D01*
X279983Y244506D01*
X280956Y244103D01*
X282000Y243966D01*
X283044Y244103D01*
X284017Y244506D01*
X284853Y245147D01*
X285494Y245983D01*
X285897Y246956D01*
X286034Y248000D01*
X285897Y249044D01*
X285494Y250017D01*
X284853Y250853D01*
X266353Y269353D01*
X265517Y269994D01*
X264544Y270397D01*
X263500Y270534D01*
D02*
G37*
G36*
X241376Y250492D02*
X240325D01*
X239310Y250220D01*
X238399Y249694D01*
X237656Y248951D01*
X237130Y248041D01*
X236858Y247026D01*
Y245974D01*
X237130Y244959D01*
X237656Y244049D01*
X238399Y243305D01*
X239310Y242780D01*
X240325Y242508D01*
X241376D01*
X242391Y242780D01*
X243302Y243305D01*
X244045Y244049D01*
X244571Y244959D01*
X244843Y245974D01*
Y247026D01*
X244571Y248041D01*
X244045Y248951D01*
X243302Y249694D01*
X242391Y250220D01*
X241376Y250492D01*
D02*
G37*
G36*
X252500Y260535D02*
X252500Y260535D01*
X240850D01*
X240528Y260492D01*
X240325D01*
X240128Y260439D01*
X239806Y260397D01*
X239506Y260273D01*
X239310Y260220D01*
X239133Y260118D01*
X238833Y259994D01*
X238576Y259796D01*
X238399Y259695D01*
X238255Y259551D01*
X237998Y259353D01*
X237800Y259095D01*
X237656Y258951D01*
X237554Y258775D01*
X237356Y258517D01*
X237232Y258217D01*
X237130Y258041D01*
X237078Y257844D01*
X236953Y257544D01*
X236911Y257222D01*
X236858Y257026D01*
Y256822D01*
X236816Y256500D01*
X236858Y256178D01*
Y255974D01*
X236911Y255778D01*
X236953Y255456D01*
X237078Y255156D01*
X237130Y254959D01*
X237232Y254783D01*
X237356Y254483D01*
X237554Y254225D01*
X237656Y254049D01*
X237800Y253905D01*
X237998Y253647D01*
X238255Y253449D01*
X238399Y253306D01*
X238576Y253204D01*
X238833Y253006D01*
X239133Y252882D01*
X239310Y252780D01*
X239506Y252727D01*
X239806Y252603D01*
X240128Y252561D01*
X240325Y252508D01*
X240528D01*
X240850Y252466D01*
X250829D01*
X270147Y233147D01*
X270983Y232506D01*
X271956Y232103D01*
X273000Y231965D01*
X274044Y232103D01*
X275017Y232506D01*
X275853Y233147D01*
X276494Y233983D01*
X276897Y234956D01*
X277034Y236000D01*
X276897Y237044D01*
X276494Y238017D01*
X275853Y238853D01*
X255353Y259353D01*
X254517Y259994D01*
X253544Y260397D01*
X252500Y260535D01*
D02*
G37*
G36*
X254925Y183051D02*
X248004D01*
Y181549D01*
X244180D01*
X243488Y182242D01*
X242564Y182775D01*
X241533Y183051D01*
X240467D01*
X239436Y182775D01*
X238512Y182242D01*
X237758Y181488D01*
X237225Y180564D01*
X236949Y179533D01*
Y178467D01*
X237225Y177436D01*
X237758Y176513D01*
X238512Y175758D01*
X239436Y175225D01*
X240467Y174949D01*
X241533D01*
X242564Y175225D01*
X243488Y175758D01*
X244180Y176451D01*
X248004D01*
Y174949D01*
X254925D01*
Y183051D01*
D02*
G37*
G36*
X245051Y173051D02*
X236949D01*
Y164949D01*
X245051D01*
Y166451D01*
X248039D01*
Y163449D01*
X254961D01*
Y171551D01*
X248039D01*
Y171549D01*
X245051D01*
Y173051D01*
D02*
G37*
G36*
X241533Y159051D02*
X240467D01*
X239436Y158775D01*
X238512Y158242D01*
X237758Y157487D01*
X237225Y156564D01*
X236949Y155533D01*
Y154467D01*
X237225Y153436D01*
X237758Y152513D01*
X238512Y151758D01*
X239436Y151225D01*
X240467Y150949D01*
X241533D01*
X242564Y151225D01*
X243488Y151758D01*
X244180Y152451D01*
X247539D01*
Y150449D01*
X254461D01*
Y158551D01*
X247539D01*
Y157549D01*
X244180D01*
X243488Y158242D01*
X242564Y158775D01*
X241533Y159051D01*
D02*
G37*
G36*
X611500Y148049D02*
X611144Y147978D01*
X605000D01*
X604025Y147784D01*
X603198Y147231D01*
X602645Y146405D01*
X602451Y145429D01*
X602645Y144454D01*
X603198Y143627D01*
X604025Y143074D01*
X605000Y142880D01*
X611429D01*
X612405Y143074D01*
X613232Y143627D01*
X613302Y143698D01*
X613855Y144525D01*
X614049Y145500D01*
X613855Y146476D01*
X613302Y147302D01*
X612475Y147855D01*
X611500Y148049D01*
D02*
G37*
G36*
X245051Y149051D02*
X236949D01*
Y140949D01*
X245051D01*
Y142451D01*
X248004D01*
Y139449D01*
X254925D01*
Y147551D01*
X248004D01*
Y147549D01*
X245051D01*
Y149051D01*
D02*
G37*
G36*
X367026Y141843D02*
X365974D01*
X364959Y141571D01*
X364049Y141045D01*
X363305Y140302D01*
X362780Y139391D01*
X362508Y138376D01*
Y137325D01*
X362780Y136310D01*
X363305Y135399D01*
X364049Y134656D01*
X364959Y134130D01*
X365974Y133858D01*
X367026D01*
X368041Y134130D01*
X368951Y134656D01*
X369694Y135399D01*
X370220Y136310D01*
X370492Y137325D01*
Y138376D01*
X370220Y139391D01*
X369694Y140302D01*
X368951Y141045D01*
X368041Y141571D01*
X367026Y141843D01*
D02*
G37*
G36*
X357026D02*
X355974D01*
X354959Y141571D01*
X354049Y141045D01*
X353306Y140302D01*
X352780Y139391D01*
X352508Y138376D01*
Y137325D01*
X352780Y136310D01*
X353306Y135399D01*
X354049Y134656D01*
X354959Y134130D01*
X355974Y133858D01*
X357026D01*
X358041Y134130D01*
X358951Y134656D01*
X359695Y135399D01*
X360220Y136310D01*
X360492Y137325D01*
Y138376D01*
X360220Y139391D01*
X359695Y140302D01*
X358951Y141045D01*
X358041Y141571D01*
X357026Y141843D01*
D02*
G37*
G36*
X347026D02*
X345974D01*
X344959Y141571D01*
X344049Y141045D01*
X343305Y140302D01*
X342780Y139391D01*
X342508Y138376D01*
Y137325D01*
X342780Y136310D01*
X343305Y135399D01*
X344049Y134656D01*
X344959Y134130D01*
X345974Y133858D01*
X347026D01*
X348041Y134130D01*
X348951Y134656D01*
X349694Y135399D01*
X350220Y136310D01*
X350492Y137325D01*
Y138376D01*
X350220Y139391D01*
X349694Y140302D01*
X348951Y141045D01*
X348041Y141571D01*
X347026Y141843D01*
D02*
G37*
G36*
X337026D02*
X335974D01*
X334959Y141571D01*
X334049Y141045D01*
X333306Y140302D01*
X332780Y139391D01*
X332508Y138376D01*
Y137325D01*
X332780Y136310D01*
X333306Y135399D01*
X334049Y134656D01*
X334959Y134130D01*
X335974Y133858D01*
X337026D01*
X338041Y134130D01*
X338951Y134656D01*
X339694Y135399D01*
X340220Y136310D01*
X340492Y137325D01*
Y138376D01*
X340220Y139391D01*
X339694Y140302D01*
X338951Y141045D01*
X338041Y141571D01*
X337026Y141843D01*
D02*
G37*
G36*
X327026D02*
X325974D01*
X324959Y141571D01*
X324049Y141045D01*
X323306Y140302D01*
X322780Y139391D01*
X322508Y138376D01*
Y137325D01*
X322780Y136310D01*
X323306Y135399D01*
X324049Y134656D01*
X324959Y134130D01*
X325974Y133858D01*
X327026D01*
X328041Y134130D01*
X328951Y134656D01*
X329695Y135399D01*
X330220Y136310D01*
X330492Y137325D01*
Y138376D01*
X330220Y139391D01*
X329695Y140302D01*
X328951Y141045D01*
X328041Y141571D01*
X327026Y141843D01*
D02*
G37*
G36*
X317026D02*
X315974D01*
X314959Y141571D01*
X314049Y141045D01*
X313305Y140302D01*
X312780Y139391D01*
X312508Y138376D01*
Y137325D01*
X312780Y136310D01*
X313305Y135399D01*
X314049Y134656D01*
X314959Y134130D01*
X315974Y133858D01*
X317026D01*
X318041Y134130D01*
X318951Y134656D01*
X319694Y135399D01*
X320220Y136310D01*
X320492Y137325D01*
Y138376D01*
X320220Y139391D01*
X319694Y140302D01*
X318951Y141045D01*
X318041Y141571D01*
X317026Y141843D01*
D02*
G37*
G36*
X307026D02*
X305974D01*
X304959Y141571D01*
X304049Y141045D01*
X303306Y140302D01*
X302780Y139391D01*
X302508Y138376D01*
Y137325D01*
X302780Y136310D01*
X303306Y135399D01*
X304049Y134656D01*
X304959Y134130D01*
X305974Y133858D01*
X307026D01*
X308041Y134130D01*
X308951Y134656D01*
X309695Y135399D01*
X310220Y136310D01*
X310492Y137325D01*
Y138376D01*
X310220Y139391D01*
X309695Y140302D01*
X308951Y141045D01*
X308041Y141571D01*
X307026Y141843D01*
D02*
G37*
G36*
X297026D02*
X295974D01*
X294959Y141571D01*
X294049Y141045D01*
X293305Y140302D01*
X292780Y139391D01*
X292508Y138376D01*
Y137325D01*
X292780Y136310D01*
X293305Y135399D01*
X294049Y134656D01*
X294959Y134130D01*
X295974Y133858D01*
X297026D01*
X298041Y134130D01*
X298951Y134656D01*
X299694Y135399D01*
X300220Y136310D01*
X300492Y137325D01*
Y138376D01*
X300220Y139391D01*
X299694Y140302D01*
X298951Y141045D01*
X298041Y141571D01*
X297026Y141843D01*
D02*
G37*
G36*
X224827Y121327D02*
X216173D01*
Y112673D01*
X224827D01*
Y121327D01*
D02*
G37*
G36*
X219759Y378500D02*
X217241D01*
X214753Y378106D01*
X212358Y377328D01*
X210114Y376184D01*
X208077Y374704D01*
X206296Y372923D01*
X204816Y370886D01*
X203672Y368642D01*
X202894Y366247D01*
X202500Y363759D01*
Y361241D01*
X202894Y358753D01*
X203672Y356358D01*
X204816Y354114D01*
X206296Y352077D01*
X208077Y350296D01*
X210114Y348816D01*
X212358Y347672D01*
X213961Y347151D01*
Y249000D01*
X214116Y247825D01*
X214569Y246731D01*
X215291Y245791D01*
X225961Y235120D01*
Y116553D01*
X226116Y115378D01*
X226569Y114283D01*
X227291Y113343D01*
X228231Y112622D01*
X229325Y112169D01*
X230500Y112014D01*
X231675Y112169D01*
X232769Y112622D01*
X233709Y113343D01*
X234431Y114283D01*
X234884Y115378D01*
X235039Y116553D01*
Y231961D01*
X240850D01*
X242025Y232116D01*
X243120Y232569D01*
X244060Y233291D01*
X244781Y234231D01*
X245235Y235325D01*
X245389Y236500D01*
X245235Y237675D01*
X244781Y238769D01*
X244060Y239709D01*
X243120Y240431D01*
X242025Y240884D01*
X240850Y241039D01*
X232880D01*
X223039Y250880D01*
Y347151D01*
X224642Y347672D01*
X226886Y348816D01*
X228923Y350296D01*
X230704Y352077D01*
X232184Y354114D01*
X233328Y356358D01*
X234106Y358753D01*
X234500Y361241D01*
Y363759D01*
X234106Y366247D01*
X233328Y368642D01*
X232184Y370886D01*
X230704Y372923D01*
X228923Y374704D01*
X226886Y376184D01*
X224642Y377328D01*
X222247Y378106D01*
X219759Y378500D01*
D02*
G37*
G36*
X537500Y170026D02*
X528500D01*
X527717Y169923D01*
X526987Y169621D01*
X526360Y169140D01*
X525879Y168513D01*
X525577Y167783D01*
X525474Y167000D01*
X525577Y166217D01*
X525879Y165487D01*
X526360Y164860D01*
X526987Y164380D01*
X527717Y164077D01*
X528500Y163974D01*
X536247D01*
X539023Y161197D01*
Y153260D01*
X539126Y152477D01*
X539429Y151747D01*
X539910Y151121D01*
X540536Y150640D01*
X541266Y150338D01*
X542049Y150234D01*
X542832Y150338D01*
X543562Y150640D01*
X544189Y151121D01*
X544670Y151747D01*
X544972Y152477D01*
X545075Y153260D01*
Y162451D01*
X545075Y162451D01*
X544972Y163234D01*
X544670Y163964D01*
X544189Y164591D01*
X539640Y169140D01*
X539013Y169621D01*
X538283Y169923D01*
X537500Y170026D01*
D02*
G37*
%LPD*%
D17*
X415500Y285516D02*
X416366D01*
X417500Y277654D02*
Y284382D01*
X416366Y285516D02*
X417500Y284382D01*
X417346Y277500D02*
X417500Y277654D01*
X404976Y295102D02*
X410217D01*
X411819Y293500D01*
X411925D01*
X334000Y217000D02*
X334271D01*
X335334Y218063D02*
X341362D01*
X334271Y217000D02*
X335334Y218063D01*
X409398Y307898D02*
X412191Y310691D01*
X404976Y307898D02*
X409398D01*
X384000D02*
X384500Y308398D01*
X386898D01*
X387000Y308500D01*
X377024Y307898D02*
X384000D01*
X304614Y294579D02*
X311350D01*
X301771Y295000D02*
X303318Y296547D01*
X311350D01*
X300500Y264500D02*
Y270000D01*
X301500Y295000D02*
X301771D01*
X300500Y290464D02*
X304614Y294579D01*
X300500Y270000D02*
Y290464D01*
X299000Y297000D02*
X299271D01*
X300786Y298516D01*
X311350D01*
X296484Y300484D02*
X311350D01*
X294500Y298500D02*
X296484Y300484D01*
X338374Y241874D02*
X339500Y243000D01*
X333764Y239441D02*
Y241823D01*
X333815Y241874D01*
X338374D01*
X341362Y231842D02*
Y232362D01*
Y229874D02*
Y231842D01*
X344500Y235500D02*
X346500D01*
X341362Y232362D02*
X344500Y235500D01*
X289000Y210000D02*
X289189Y210189D01*
X296638D01*
X303000Y230500D02*
Y233500D01*
X300457Y227957D02*
X303000Y230500D01*
X296689Y227957D02*
X300457D01*
X296638Y227906D02*
X296689Y227957D01*
X295000Y240500D02*
X296638Y238862D01*
Y231842D02*
Y238862D01*
X370000Y295000D02*
X370102Y295102D01*
X377024D01*
X553992Y311000D02*
X555260D01*
X550062Y317938D02*
X551992Y316008D01*
Y311008D02*
Y316008D01*
X451000Y208500D02*
X451500Y209000D01*
X611429Y145429D02*
X611500Y145500D01*
X605000Y145429D02*
X611429D01*
X588272Y122000D02*
X592000D01*
X596126Y130126D02*
X596500Y130500D01*
X592398Y130126D02*
X596126D01*
X597075Y139000D02*
X601000D01*
X575595Y133693D02*
X576579Y132709D01*
X573626Y129862D02*
X576472Y132709D01*
X575595Y133693D02*
Y138417D01*
X346500Y189000D02*
X354500Y181000D01*
Y177000D02*
Y181000D01*
X346500Y189000D02*
Y203500D01*
X345717Y204283D02*
X346500Y203500D01*
X341362Y204283D02*
X345717D01*
X350388Y195112D02*
Y206252D01*
X341362D02*
X350388D01*
X341391Y210218D02*
X350388D01*
Y206252D02*
Y210218D01*
X348500Y212106D02*
X350388Y210218D01*
Y195112D02*
X351500Y194000D01*
X356000D01*
X474843Y123863D02*
X475428Y123277D01*
X483679D01*
X474843Y123863D02*
Y127083D01*
X470905Y112094D02*
Y127083D01*
Y112094D02*
X472500Y110500D01*
X475740D01*
X475142Y118000D02*
X478500D01*
X472874Y120268D02*
Y127083D01*
Y120268D02*
X475142Y118000D01*
X465370Y122882D02*
X467882D01*
X468937Y123937D01*
Y127083D01*
X464000Y121512D02*
X465370Y122882D01*
X455689Y121524D02*
X464000D01*
X341362Y223969D02*
X364249D01*
X341362Y185638D02*
X347000Y180000D01*
Y177000D02*
Y180000D01*
X341362Y185638D02*
Y202315D01*
X338000Y179401D02*
Y197500D01*
X335000Y200500D02*
X338000Y197500D01*
X527905Y338905D02*
Y340641D01*
X525260Y336260D02*
X527905Y338905D01*
X519500Y336260D02*
X525260D01*
X527905Y340641D02*
X528264Y341000D01*
X531500D01*
X458429Y160429D02*
X458500Y160500D01*
X458429Y154000D02*
Y160429D01*
X484578Y154578D02*
X485000Y155000D01*
X482500Y150111D02*
X483295D01*
X484578Y151394D01*
Y154578D01*
X587500Y152406D02*
Y157000D01*
X577500Y117000D02*
X577555Y117055D01*
Y126992D02*
X577563Y127000D01*
X577555Y117055D02*
Y126992D01*
X575595Y121358D02*
Y127000D01*
X575009Y120773D02*
X575595Y121358D01*
X565106Y120512D02*
X571273D01*
Y120773D02*
X575009D01*
X570500Y120000D02*
X571273Y120773D01*
X573626Y127000D02*
Y129862D01*
X576472Y132709D02*
X576579D01*
X525000Y123500D02*
X525500Y123000D01*
X509255Y116020D02*
X509416D01*
X508223Y114988D02*
X509255Y116020D01*
X504500Y114988D02*
X508223D01*
X562500Y146535D02*
X568465D01*
X573626Y141374D01*
Y138417D02*
Y141374D01*
X416935Y310691D02*
X417500Y311256D01*
X412191Y310691D02*
X416935D01*
X318016Y230016D02*
Y239441D01*
X321976Y234753D02*
Y239417D01*
Y234753D02*
X324729Y232000D01*
X325000D01*
X319984Y232016D02*
Y239441D01*
X321953D02*
X321976Y239417D01*
X319984Y232016D02*
X322000Y230000D01*
X304000Y218595D02*
Y221257D01*
Y218500D02*
Y218595D01*
X303729D02*
X304000D01*
X303198Y218063D02*
X303729Y218595D01*
X296638Y218063D02*
X303198D01*
X303257Y222000D02*
X304000Y221257D01*
X296638Y222000D02*
X303257D01*
X352177Y337819D02*
X358980D01*
X359661Y338228D02*
X360311Y338878D01*
X358980Y337819D02*
X359390Y338228D01*
X352118Y337760D02*
X352177Y337819D01*
X359390Y338228D02*
X359661D01*
X360311Y338878D02*
Y339449D01*
X368500Y292000D02*
X370516Y289984D01*
X377024D01*
X397022Y310478D02*
X404955D01*
X397000Y310500D02*
X397022Y310478D01*
X404955Y292522D02*
X404976Y292543D01*
X395845Y276157D02*
X396000Y276313D01*
Y292500D02*
X396022Y292522D01*
X604571Y153929D02*
X605000Y153500D01*
X555260Y311000D02*
X556000D01*
X289000Y241440D02*
X289068Y241508D01*
X289000Y232500D02*
Y241440D01*
Y232500D02*
X291626Y229874D01*
X289000Y228500D02*
Y232500D01*
X533500Y343000D02*
Y345000D01*
X531500Y341000D02*
X533500Y343000D01*
X557500Y117669D02*
X562264D01*
X504500Y120500D02*
X507386Y123386D01*
X504500Y120500D02*
X505126Y119874D01*
X349000Y282000D02*
X353307D01*
X353850Y281457D01*
Y280669D02*
Y281457D01*
X410653Y277500D02*
Y286839D01*
X329000Y311500D02*
X334500Y317000D01*
X367500Y282500D02*
Y286000D01*
X368925Y287425D01*
X377024D01*
X341229Y303500D02*
X351385D01*
X351885Y304000D02*
X361500D01*
X351385Y303500D02*
X351885Y304000D01*
X351000Y306500D02*
X365509D01*
X350940Y306440D02*
X351000Y306500D01*
X328700Y306440D02*
X350940D01*
X334500Y301000D02*
X360500D01*
X361280Y300220D01*
X340308Y304421D02*
X341229Y303500D01*
X328650Y304421D02*
X340308D01*
X347000Y333500D02*
X363865D01*
X365865Y335500D01*
X317961Y304461D02*
X347000Y333500D01*
X341894Y345240D02*
X342575Y345921D01*
X341882Y345240D02*
X341894D01*
X270500Y301000D02*
X276988D01*
X293500Y281256D02*
Y288744D01*
X287000Y281256D02*
X293500D01*
X299009Y241500D02*
X304185D01*
X350500Y274000D02*
X358000D01*
X360150Y276150D02*
Y280669D01*
X358000Y274000D02*
X360150Y276150D01*
X311350Y302453D02*
X317277D01*
X284492D02*
X311350D01*
X311500Y314500D02*
Y314668D01*
X316908Y308408D02*
X317000Y308500D01*
X311400Y308408D02*
X316908D01*
X311350Y308358D02*
X311400Y308408D01*
X318229Y301500D02*
X318500D01*
X317277Y302453D02*
X318229Y301500D01*
X584617Y146117D02*
X587117D01*
X579531Y141032D02*
X584617Y146117D01*
X587117D02*
X587500Y146500D01*
X595000D01*
X553992Y299583D02*
X556000D01*
X551984D02*
X553992D01*
X551980Y288500D02*
X551984Y288505D01*
Y299583D01*
X563000Y161500D02*
X563500Y162000D01*
X577343Y151917D02*
X577500Y151760D01*
X451500Y117335D02*
X455689Y121524D01*
X305240Y184500D02*
X305740Y185000D01*
X327858Y233642D02*
X329000Y232500D01*
X327858Y233642D02*
Y239441D01*
X335000Y247500D02*
X337500D01*
X331795Y239441D02*
Y244295D01*
X335000Y247500D01*
X337500D02*
X340427Y250428D01*
Y287072D01*
X305000Y265500D02*
Y289500D01*
Y265500D02*
X307500Y263000D01*
X575750Y220565D02*
X575764Y220579D01*
X575658Y208500D02*
X575750Y208593D01*
X565961Y214500D02*
X566461Y214000D01*
X565961Y209000D02*
X566461Y208500D01*
X560579Y220461D02*
X561039Y220000D01*
X314000Y233000D02*
Y235500D01*
X325500Y202500D02*
X330000D01*
X315843Y212158D02*
X325500Y202500D01*
X395845Y276157D02*
X396000D01*
X328650Y306390D02*
X328700Y306440D01*
X311500Y314668D02*
X311910Y315079D01*
X312079D01*
X334760Y337760D02*
X341882D01*
X312079Y315079D02*
X334760Y337760D01*
X329000Y308408D02*
X334000D01*
X328700D02*
X329000D01*
X366729Y305279D02*
X367000D01*
X365509Y306500D02*
X366729Y305279D01*
X361500Y304000D02*
X362720Y302780D01*
X335092Y309500D02*
X367773D01*
X334000Y308408D02*
X335092Y309500D01*
X328650Y308358D02*
X328700Y308408D01*
X328650Y302453D02*
X333047D01*
X334500Y301000D01*
X367773Y309500D02*
X369773Y307500D01*
X329000Y308408D02*
Y311500D01*
X410068Y287425D02*
X410653Y286839D01*
X404976Y287425D02*
X410068D01*
X410653Y271586D02*
Y277500D01*
Y271586D02*
X411240Y271000D01*
X392000Y300500D02*
X397500D01*
X399780Y302780D01*
X404976D01*
X306205Y234898D02*
X306360Y234742D01*
Y232140D02*
X306500Y232000D01*
X306360Y232140D02*
Y234742D01*
X306205Y234898D02*
Y239441D01*
X311389Y304461D02*
X317961D01*
X365865Y335500D02*
X373000D01*
X311350Y304421D02*
X311389Y304461D01*
X322771Y297000D02*
X324286Y298516D01*
X322500Y297000D02*
X322771D01*
X530890Y146500D02*
X531044Y146654D01*
X532000Y130252D02*
X532155Y130406D01*
X519821Y119760D02*
Y123500D01*
X505126Y119874D02*
X509302D01*
X509416Y119760D01*
X507386Y123386D02*
X509386D01*
X509500Y123500D01*
X297500Y312000D02*
X297843Y312343D01*
X303000D01*
X289000Y228500D02*
X291563Y225937D01*
X296638D01*
X291626Y229874D02*
X296638D01*
X285157Y220031D02*
X296638D01*
X285022Y220136D02*
X285157Y220000D01*
X285022Y220136D02*
Y227000D01*
X335000Y200500D02*
Y208221D01*
X341362D01*
X324905D02*
X335000D01*
X296638Y212158D02*
X315843D01*
X312110Y185130D02*
X312740Y184500D01*
X312110Y185130D02*
Y194717D01*
X321059Y176059D02*
X327858Y182858D01*
X268500Y176059D02*
X321059D01*
X327858Y182858D02*
Y194717D01*
X329827Y180327D02*
Y194717D01*
X320441Y170941D02*
X329827Y180327D01*
X268500Y170941D02*
X320441D01*
X269000Y151059D02*
X306559D01*
X331795Y176295D02*
Y194717D01*
X306559Y151059D02*
X331795Y176295D01*
X333764Y173764D02*
Y194717D01*
X305941Y145941D02*
X333764Y173764D01*
X269000Y145941D02*
X305941D01*
X341413Y216043D02*
X347701D01*
X355244Y208500D01*
X341413Y212106D02*
X348500D01*
X341362Y212158D02*
X341413Y212106D01*
X451244Y229756D02*
X451500Y229500D01*
X307500Y263000D02*
X326500D01*
X338500Y258500D02*
Y286000D01*
X333500Y253500D02*
X338500Y258500D01*
X345500Y258000D02*
Y289000D01*
X337953Y296547D02*
X345500Y289000D01*
X343000Y261000D02*
Y288000D01*
X336421Y294579D02*
X343000Y288000D01*
X334890Y292610D02*
X340427Y287072D01*
X329827Y239441D02*
Y259673D01*
X326500Y263000D02*
X329827Y259673D01*
X324379Y260000D02*
X327500Y256879D01*
X323972Y243472D02*
X327500Y247000D01*
Y256879D01*
X323921Y239441D02*
X323972Y239492D01*
Y243472D01*
X305000Y260000D02*
X324379D01*
X333858Y290642D02*
X338500Y286000D01*
X300500Y264500D02*
X305000Y260000D01*
X323850Y271244D02*
X324500Y270595D01*
X311350Y292610D02*
X311400Y292560D01*
X315150Y277906D02*
Y291974D01*
X315000Y277756D02*
X315150Y277906D01*
X314564Y292560D02*
X315150Y291974D01*
X311400Y292560D02*
X314564D01*
X562264Y117669D02*
X565106Y120512D01*
X557500Y127000D02*
X571658D01*
X589000Y130272D02*
Y135220D01*
Y138500D02*
X589250Y138750D01*
X593675D01*
X593925Y139000D01*
X581500Y138451D02*
X581508Y138459D01*
X581500Y138417D02*
Y138451D01*
X581508Y138459D02*
X588959D01*
X589000Y138500D01*
X595000Y146500D02*
X595500Y147000D01*
X571650Y138465D02*
X571658Y138457D01*
X562500Y138465D02*
X571650D01*
X571658Y138417D02*
Y138457D01*
X577563Y138417D02*
Y144413D01*
X578149Y144999D01*
X578614D01*
X579531Y138417D02*
Y141032D01*
X584646Y122583D02*
Y125354D01*
X581500Y127000D02*
X583000D01*
X584646Y125354D01*
Y122583D02*
X585228Y122000D01*
X579531Y118819D02*
X584858Y113492D01*
X579531Y118819D02*
Y127000D01*
X584858Y113000D02*
Y113492D01*
X490031Y144000D02*
X492500Y146469D01*
X482500Y144000D02*
X490031D01*
X492500Y146469D02*
Y147000D01*
X466500Y146500D02*
X467000Y146000D01*
X466500Y146500D02*
Y154000D01*
X482500Y130772D02*
Y135220D01*
Y138500D02*
X487350D01*
X474843D02*
X482500D01*
X472874Y141374D02*
X475500Y144000D01*
X472874Y138500D02*
Y141374D01*
X475500Y144000D02*
X482500D01*
X475000Y147146D02*
Y147240D01*
X473614Y145759D02*
X475000Y147146D01*
X470913Y143153D02*
X473520Y145759D01*
X470913Y138508D02*
Y143153D01*
X473520Y145759D02*
X473614D01*
X470905Y138500D02*
X470913Y138508D01*
X462500Y138500D02*
X465000D01*
X458929Y142071D02*
X462500Y138500D01*
X458929Y142071D02*
Y146000D01*
X466968Y139370D02*
X467000Y139402D01*
X466968Y138500D02*
Y139370D01*
X467000Y139402D02*
Y146000D01*
X464992Y126665D02*
X465000Y126673D01*
Y127083D01*
X451500Y126665D02*
X464992D01*
X466968Y129945D02*
X469815Y132791D01*
X468937Y133776D02*
Y138500D01*
Y133776D02*
X469921Y132791D01*
X469815D02*
X469921D01*
X466968Y127083D02*
Y129945D01*
X319000Y214126D02*
X324905Y208221D01*
X317032Y216094D02*
X319000Y214126D01*
X296638D02*
X319000D01*
X309157Y223969D02*
X317032Y216094D01*
X296638Y223969D02*
X309157D01*
X319000Y214126D02*
X341362D01*
X296638Y216094D02*
X317032D01*
X271980Y214126D02*
X296638D01*
X257760Y200000D02*
X257854D01*
X271980Y214126D01*
X242000Y200000D02*
X252240D01*
X294500Y295256D02*
Y298500D01*
X293500Y295256D02*
X294500D01*
X239606D02*
X293500D01*
X240961Y306390D02*
X311350D01*
X240850Y306500D02*
X240961Y306390D01*
X538500Y348480D02*
X538819D01*
X559701Y305291D02*
X565209D01*
X565500Y305000D01*
X439333Y235760D02*
X439500Y235593D01*
X450398Y240000D02*
X450500Y239898D01*
X422000Y236480D02*
X422260Y236220D01*
X264961Y167500D02*
X268402Y170941D01*
X259571Y167500D02*
X264961D01*
X268402Y170941D02*
X268500D01*
X265461Y179000D02*
X268402Y176059D01*
X268500D01*
X259535Y179000D02*
X265461D01*
X259535Y143500D02*
X266461D01*
X268902Y145941D01*
X269000D01*
X268902Y151059D02*
X269000D01*
X259071Y154500D02*
X265461D01*
X268902Y151059D01*
X250000Y169000D02*
X251500Y167500D01*
X241000Y169000D02*
X250000D01*
X241000Y179000D02*
X251465D01*
X241000Y145000D02*
X249965D01*
X251465Y143500D01*
X241000Y155000D02*
X250500D01*
X251000Y154500D01*
X323921Y194717D02*
X325890D01*
X321953D02*
X323921D01*
X319984D02*
X321953D01*
X318016D02*
X319984D01*
X316047D02*
X318016D01*
X314079D02*
X316047D01*
X312110D02*
X314079D01*
X310142D02*
X312110D01*
X308173D02*
X310142D01*
X306205D02*
X308173D01*
X304236D02*
X306205D01*
X388000Y325941D02*
X388500Y326441D01*
X362720Y302780D02*
X377024D01*
X369773Y307500D02*
X369961D01*
X365500Y316500D02*
X366425Y315575D01*
X551984Y311000D02*
X551992Y311008D01*
X467740Y288740D02*
X468000Y289000D01*
X441000Y299740D02*
X441240Y299500D01*
X592000Y305020D02*
X592480Y305500D01*
X591980Y305000D02*
X592000Y305020D01*
X314028Y239390D02*
X314079Y239441D01*
X314028Y235528D02*
Y239390D01*
X314000Y235500D02*
X314028Y235528D01*
X542756Y305291D02*
X548283D01*
X542482Y305018D02*
X542756Y305291D01*
X376240Y275000D02*
X377024Y275784D01*
Y284866D01*
X341683Y345439D02*
X341882Y345240D01*
X459854Y300000D02*
X459913Y299941D01*
X466563D01*
X453646Y299500D02*
X454146Y300000D01*
X560150Y253894D02*
Y255500D01*
X586141Y220000D02*
X586641Y220500D01*
X587000Y220859D01*
X560150Y253894D02*
X561894Y252150D01*
X575685Y227500D02*
X575764Y227421D01*
X581000Y227500D02*
X581079Y227421D01*
Y220579D02*
X581157Y220500D01*
X569957Y318500D02*
X570000Y318543D01*
X569813Y311269D02*
X570000Y311457D01*
X528500Y292201D02*
Y297913D01*
X514980Y305000D02*
X515000Y304980D01*
X538187Y305000D02*
X538205Y305018D01*
X341362Y220031D02*
X347468D01*
X354316Y216162D02*
X354478Y216000D01*
X347468Y220031D02*
X351338Y216162D01*
X354316D01*
X355244Y202000D02*
Y208500D01*
X316098Y243361D02*
X321528Y248791D01*
X323259D01*
X324000Y249532D01*
X327858Y239441D02*
X327909Y239492D01*
X303000Y249031D02*
X303872Y248160D01*
X305341D02*
X308173Y245327D01*
X303872Y248160D02*
X305341D01*
X308173Y239441D02*
Y245327D01*
X315910Y248539D02*
X316902Y249532D01*
X312110Y243610D02*
X315910Y247410D01*
Y248539D01*
X312110Y239441D02*
Y243610D01*
X316902Y249532D02*
X317000D01*
X316098Y239492D02*
Y243361D01*
X316047Y239441D02*
X316098Y239492D01*
X304185Y241500D02*
X304236Y241449D01*
Y239441D02*
Y241449D01*
X310052Y249084D02*
X310142Y248995D01*
Y239441D02*
Y247495D01*
X341362Y216094D02*
X341413Y216043D01*
X350406Y227906D02*
X351000Y228500D01*
X341362Y227906D02*
X350406D01*
X405016Y263500D02*
X405016Y263500D01*
X416760Y263889D02*
X417150Y263500D01*
X361280Y300220D02*
X377024D01*
X482358Y318500D02*
X482500Y318358D01*
X482000Y325382D02*
X482500Y324882D01*
Y312642D02*
X482646Y312497D01*
X474437Y305059D02*
X481941D01*
X404955Y310478D02*
X404976Y310457D01*
X353850Y289331D02*
X354001Y289481D01*
X358661Y297661D02*
X377024D01*
X354001Y289481D02*
Y293001D01*
X358661Y297661D01*
X328642Y300492D02*
X328650Y300484D01*
X322008Y300492D02*
X328642D01*
X322000Y300500D02*
X322008Y300492D01*
X324286Y298516D02*
X328650D01*
X283992Y301953D02*
Y301964D01*
X328650Y296547D02*
X337953D01*
X328650Y294579D02*
X336421D01*
X328650Y292610D02*
X334890D01*
X328650Y290642D02*
X333858D01*
X305000Y289500D02*
X306142Y290642D01*
X311350D01*
X592398Y130126D02*
X592650Y130378D01*
D20*
X377024Y318134D02*
D03*
Y315575D02*
D03*
Y313016D02*
D03*
Y310457D02*
D03*
Y307898D02*
D03*
Y305339D02*
D03*
Y302780D02*
D03*
Y300220D02*
D03*
Y297661D02*
D03*
Y295102D02*
D03*
Y292543D02*
D03*
Y289984D02*
D03*
Y287425D02*
D03*
Y284866D02*
D03*
X404976Y318134D02*
D03*
Y315575D02*
D03*
Y313016D02*
D03*
Y310457D02*
D03*
Y307898D02*
D03*
Y305339D02*
D03*
Y302780D02*
D03*
Y300220D02*
D03*
Y297661D02*
D03*
Y295102D02*
D03*
Y292543D02*
D03*
Y289984D02*
D03*
Y287425D02*
D03*
Y284866D02*
D03*
D21*
X341362Y202315D02*
D03*
Y204283D02*
D03*
Y206252D02*
D03*
Y208221D02*
D03*
Y210189D02*
D03*
Y212158D02*
D03*
Y214126D02*
D03*
Y216094D02*
D03*
Y218063D02*
D03*
Y220031D02*
D03*
Y222000D02*
D03*
Y223969D02*
D03*
Y225937D02*
D03*
Y227906D02*
D03*
Y229874D02*
D03*
Y231842D02*
D03*
X296638D02*
D03*
Y229874D02*
D03*
Y227906D02*
D03*
Y225937D02*
D03*
Y223969D02*
D03*
Y222000D02*
D03*
Y220031D02*
D03*
Y218063D02*
D03*
Y216094D02*
D03*
Y214126D02*
D03*
Y212158D02*
D03*
Y210189D02*
D03*
Y208221D02*
D03*
Y206252D02*
D03*
Y204283D02*
D03*
Y202315D02*
D03*
D22*
X304236Y194717D02*
D03*
X306205D02*
D03*
X308173D02*
D03*
X310142D02*
D03*
X312110D02*
D03*
X314079D02*
D03*
X316047D02*
D03*
X318016D02*
D03*
X319984D02*
D03*
X321953D02*
D03*
X323921D02*
D03*
X325890D02*
D03*
X327858D02*
D03*
X329827D02*
D03*
X331795D02*
D03*
X333764D02*
D03*
Y239441D02*
D03*
X331795D02*
D03*
X329827D02*
D03*
X327858D02*
D03*
X325890D02*
D03*
X323921D02*
D03*
X321953D02*
D03*
X319984D02*
D03*
X318016D02*
D03*
X316047D02*
D03*
X314079D02*
D03*
X312110D02*
D03*
X310142D02*
D03*
X308173D02*
D03*
X306205D02*
D03*
X304236D02*
D03*
D23*
X548500Y213000D02*
D03*
Y223000D02*
D03*
D24*
X560000Y215000D02*
D03*
D25*
X544000Y215539D02*
D03*
Y220461D02*
D03*
X587000Y205539D02*
D03*
Y210461D02*
D03*
X581500D02*
D03*
Y205539D02*
D03*
X554000Y220461D02*
D03*
Y215539D02*
D03*
X549000Y220461D02*
D03*
Y215539D02*
D03*
X592500Y210461D02*
D03*
Y205539D02*
D03*
D26*
X568500Y215000D02*
D03*
D27*
X589000Y213000D02*
D03*
Y203000D02*
D03*
D28*
X354500Y171480D02*
D03*
Y177000D02*
D03*
X519500Y330740D02*
D03*
Y336260D02*
D03*
X347000Y177000D02*
D03*
Y171480D02*
D03*
X339000Y177260D02*
D03*
Y171740D02*
D03*
X422000Y236480D02*
D03*
Y242000D02*
D03*
X451500Y223980D02*
D03*
Y229500D02*
D03*
X475000Y147240D02*
D03*
Y152760D02*
D03*
X570000Y336760D02*
D03*
Y331240D02*
D03*
X533500Y265000D02*
D03*
Y259480D02*
D03*
X592000Y305020D02*
D03*
Y299500D02*
D03*
X577500Y146240D02*
D03*
Y151760D02*
D03*
D29*
X407249Y115000D02*
D03*
X413751D02*
D03*
X407249Y123500D02*
D03*
X413751D02*
D03*
X407498Y133500D02*
D03*
X414000D02*
D03*
X407749Y142500D02*
D03*
X414251D02*
D03*
X407749Y151500D02*
D03*
X414251D02*
D03*
X427751Y115000D02*
D03*
X421249D02*
D03*
X427751Y124000D02*
D03*
X421249D02*
D03*
X427751Y133000D02*
D03*
X421249D02*
D03*
X428251Y151500D02*
D03*
X421749D02*
D03*
X428000Y142000D02*
D03*
X421498D02*
D03*
X370751Y224000D02*
D03*
X364249D02*
D03*
D30*
X475740Y110500D02*
D03*
X481260D02*
D03*
X555260Y326000D02*
D03*
X549740D02*
D03*
X551980Y288500D02*
D03*
X557500D02*
D03*
X311260Y185000D02*
D03*
X305740D02*
D03*
X252240Y200000D02*
D03*
X257760D02*
D03*
X468000Y289000D02*
D03*
X473520D02*
D03*
X586641Y220500D02*
D03*
X592359D02*
D03*
X579240Y305000D02*
D03*
X584760D02*
D03*
X514980D02*
D03*
X520500D02*
D03*
X524480Y375000D02*
D03*
X530000D02*
D03*
X542020D02*
D03*
X536500D02*
D03*
X501480Y305000D02*
D03*
X507000D02*
D03*
X441240Y299500D02*
D03*
X446760D02*
D03*
X416760Y271000D02*
D03*
X411240D02*
D03*
X428740Y299500D02*
D03*
X434260D02*
D03*
X381760Y275000D02*
D03*
X376240D02*
D03*
X530740Y365500D02*
D03*
X536260D02*
D03*
X350260Y353000D02*
D03*
X344740D02*
D03*
D31*
X553992Y305291D02*
D03*
D32*
X551984Y311000D02*
D03*
X553992D02*
D03*
X556000D02*
D03*
Y299583D02*
D03*
X553992D02*
D03*
X551984D02*
D03*
D33*
X559701Y307299D02*
D03*
Y305291D02*
D03*
Y303284D02*
D03*
X548283D02*
D03*
Y305291D02*
D03*
Y307299D02*
D03*
D34*
X311350Y308358D02*
D03*
Y306390D02*
D03*
Y304421D02*
D03*
Y302453D02*
D03*
Y300484D02*
D03*
Y298516D02*
D03*
Y296547D02*
D03*
Y294579D02*
D03*
Y292610D02*
D03*
Y290642D02*
D03*
X328650D02*
D03*
Y292610D02*
D03*
Y294579D02*
D03*
Y296547D02*
D03*
Y298516D02*
D03*
Y300484D02*
D03*
Y302453D02*
D03*
Y304421D02*
D03*
Y306390D02*
D03*
Y308358D02*
D03*
D35*
X417346Y277500D02*
D03*
X410653D02*
D03*
D36*
X605000Y153500D02*
D03*
Y145429D02*
D03*
X562500Y146535D02*
D03*
Y138465D02*
D03*
D37*
X315000Y277756D02*
D03*
Y271244D02*
D03*
X532155Y130406D02*
D03*
Y136918D02*
D03*
D38*
X324000Y249532D02*
D03*
Y254468D02*
D03*
X310000Y253969D02*
D03*
Y249031D02*
D03*
X317000Y254468D02*
D03*
Y249532D02*
D03*
X303000Y253969D02*
D03*
Y249031D02*
D03*
D39*
X530890Y146500D02*
D03*
X517110D02*
D03*
D40*
X324500Y282405D02*
D03*
Y270595D02*
D03*
D41*
X561039Y220000D02*
D03*
X565961D02*
D03*
X561039Y214500D02*
D03*
X565961D02*
D03*
X561039Y209000D02*
D03*
X565961D02*
D03*
X399579Y263500D02*
D03*
X404500D02*
D03*
D42*
X416500Y285653D02*
D03*
Y292347D02*
D03*
X429000Y284653D02*
D03*
Y291347D02*
D03*
D43*
X439333Y235760D02*
D03*
D44*
Y239500D02*
D03*
Y243240D02*
D03*
X430667D02*
D03*
Y239500D02*
D03*
Y235760D02*
D03*
D45*
X439500Y229756D02*
D03*
Y224244D02*
D03*
X293500Y281256D02*
D03*
Y275744D02*
D03*
X417500Y305744D02*
D03*
Y311256D02*
D03*
X287000Y281256D02*
D03*
Y275744D02*
D03*
X504500Y120500D02*
D03*
Y114988D02*
D03*
D46*
X450500Y239898D02*
D03*
Y252102D02*
D03*
D47*
X438898Y261000D02*
D03*
X451102D02*
D03*
D48*
X690500Y335500D02*
D03*
Y293500D02*
D03*
D49*
X341882Y345240D02*
D03*
Y341500D02*
D03*
Y337760D02*
D03*
X352118D02*
D03*
Y341500D02*
D03*
Y345240D02*
D03*
X538500Y348480D02*
D03*
Y344740D02*
D03*
Y341000D02*
D03*
X528264D02*
D03*
Y344740D02*
D03*
Y348480D02*
D03*
D50*
X251465Y179000D02*
D03*
X259535D02*
D03*
X251500Y167500D02*
D03*
X259571D02*
D03*
X251000Y154500D02*
D03*
X259071D02*
D03*
X251465Y143500D02*
D03*
X259535D02*
D03*
D51*
X268500Y170941D02*
D03*
Y176059D02*
D03*
X269000Y145941D02*
D03*
Y151059D02*
D03*
D52*
X543850Y255500D02*
D03*
X560150D02*
D03*
X560299Y234000D02*
D03*
X544000D02*
D03*
D53*
X575815Y214000D02*
D03*
X570500D02*
D03*
X581157Y220500D02*
D03*
X575843D02*
D03*
X592315Y227500D02*
D03*
X587000D02*
D03*
X575685D02*
D03*
X581000D02*
D03*
X575658Y208500D02*
D03*
X570342D02*
D03*
D54*
X574500Y252150D02*
D03*
Y235850D02*
D03*
D55*
X488500Y234500D02*
D03*
D56*
X625504Y315500D02*
D03*
Y310500D02*
D03*
Y305500D02*
D03*
X612000D02*
D03*
Y315500D02*
D03*
D57*
X451500Y126665D02*
D03*
Y117335D02*
D03*
X557500Y117669D02*
D03*
Y127000D02*
D03*
D58*
X465000Y127083D02*
D03*
X466968D02*
D03*
X468937D02*
D03*
X470905D02*
D03*
X472874D02*
D03*
X474843D02*
D03*
X465000Y138500D02*
D03*
X466968D02*
D03*
X468937D02*
D03*
X470905D02*
D03*
X472874D02*
D03*
X474843D02*
D03*
X571658Y127000D02*
D03*
X573626D02*
D03*
X575595D02*
D03*
X577563D02*
D03*
X579531D02*
D03*
X581500D02*
D03*
X571658Y138417D02*
D03*
X573626D02*
D03*
X575595D02*
D03*
X577563D02*
D03*
X579531D02*
D03*
X581500D02*
D03*
D59*
X469921Y132791D02*
D03*
X576579Y132709D02*
D03*
D60*
X458929Y146000D02*
D03*
X467000D02*
D03*
X458429Y154000D02*
D03*
X466500D02*
D03*
D61*
X448500Y135004D02*
D03*
Y147996D02*
D03*
X551500Y148496D02*
D03*
Y135504D02*
D03*
D62*
X464000Y110488D02*
D03*
Y121512D02*
D03*
X570500Y108976D02*
D03*
Y120000D02*
D03*
D63*
X492500Y152990D02*
D03*
Y145500D02*
D03*
D64*
X487000Y123500D02*
D03*
X483457D02*
D03*
X592398Y130126D02*
D03*
X588854D02*
D03*
X588272Y122000D02*
D03*
X584728D02*
D03*
D65*
X490500Y138500D02*
D03*
X487350D02*
D03*
X597075Y139000D02*
D03*
X593925D02*
D03*
D66*
X482500Y135220D02*
D03*
Y138500D02*
D03*
X589000Y135220D02*
D03*
Y138500D02*
D03*
D67*
X482500Y144000D02*
D03*
Y150111D02*
D03*
D68*
X485783Y118000D02*
D03*
X478500D02*
D03*
X592142Y113000D02*
D03*
X584858D02*
D03*
D69*
X482500Y127228D02*
D03*
Y130772D02*
D03*
D70*
X355000Y320559D02*
D03*
Y314441D02*
D03*
X388500Y332559D02*
D03*
Y326441D02*
D03*
X365500Y322000D02*
D03*
Y315882D02*
D03*
X482000Y331500D02*
D03*
Y325382D02*
D03*
D71*
X528500Y292201D02*
D03*
Y287500D02*
D03*
D72*
X563500Y318500D02*
D03*
X560125D02*
D03*
X549187Y318000D02*
D03*
X545813D02*
D03*
X570000Y325000D02*
D03*
X566625D02*
D03*
X573187Y305000D02*
D03*
X569813D02*
D03*
X538187D02*
D03*
X534813D02*
D03*
D73*
X570000Y318543D02*
D03*
Y311457D02*
D03*
X528500Y305000D02*
D03*
Y297913D02*
D03*
D74*
X565500Y305000D02*
D03*
Y301929D02*
D03*
X542500Y305035D02*
D03*
Y301965D02*
D03*
D75*
X410850Y263500D02*
D03*
X417150D02*
D03*
X410850Y257000D02*
D03*
X417150D02*
D03*
D76*
X355343Y202000D02*
D03*
X360658D02*
D03*
X279842Y220000D02*
D03*
X285157D02*
D03*
D77*
X643839Y288500D02*
D03*
X649161D02*
D03*
X643178Y335500D02*
D03*
X648500D02*
D03*
D78*
X519000Y348724D02*
D03*
Y344000D02*
D03*
X546000Y340862D02*
D03*
Y336138D02*
D03*
X332500Y345362D02*
D03*
Y340638D02*
D03*
D79*
X360638Y339500D02*
D03*
X365362D02*
D03*
D80*
X279978Y227000D02*
D03*
X285022D02*
D03*
X283478Y241500D02*
D03*
X288522D02*
D03*
X359522Y216000D02*
D03*
X354478D02*
D03*
X356044Y228500D02*
D03*
X351000D02*
D03*
D81*
X356000Y189000D02*
D03*
Y194044D02*
D03*
X525500Y117956D02*
D03*
Y123000D02*
D03*
D82*
X355244Y208500D02*
D03*
X360756D02*
D03*
D83*
X482646Y305000D02*
D03*
X488354D02*
D03*
X469000Y318500D02*
D03*
X474709D02*
D03*
X459854Y300000D02*
D03*
X454146D02*
D03*
D84*
X452244Y408500D02*
D03*
X430000D02*
D03*
X517622Y408713D02*
D03*
X495378D02*
D03*
X603122D02*
D03*
X580878D02*
D03*
D85*
X441122Y409287D02*
D03*
X506500Y409500D02*
D03*
X592000D02*
D03*
D86*
X692213Y361378D02*
D03*
Y383622D02*
D03*
X692500Y246256D02*
D03*
Y268500D02*
D03*
D87*
X693000Y372500D02*
D03*
X693287Y257378D02*
D03*
D88*
X303000Y317657D02*
D03*
Y312343D02*
D03*
X396000Y276157D02*
D03*
Y270843D02*
D03*
X397000Y332157D02*
D03*
Y326842D02*
D03*
X404000Y332000D02*
D03*
Y326685D02*
D03*
X389500Y276157D02*
D03*
Y270843D02*
D03*
D89*
X474437Y305059D02*
D03*
Y302500D02*
D03*
Y299941D02*
D03*
X466563D02*
D03*
Y302500D02*
D03*
Y305059D02*
D03*
D90*
X643000Y307839D02*
D03*
Y313161D02*
D03*
D91*
X514618Y119760D02*
D03*
D92*
X519821Y123500D02*
D03*
Y119760D02*
D03*
X519736Y116020D02*
D03*
X509416D02*
D03*
Y119760D02*
D03*
X509500Y123500D02*
D03*
D93*
X283500Y301000D02*
D03*
X276988D02*
D03*
D94*
X482500Y318358D02*
D03*
Y312642D02*
D03*
D95*
X360150Y280669D02*
D03*
Y289331D02*
D03*
X353850D02*
D03*
Y280669D02*
D03*
D96*
X595500Y147000D02*
D03*
Y153420D02*
D03*
D97*
X587500Y152406D02*
D03*
Y146500D02*
D03*
D98*
X293500Y295256D02*
D03*
Y288744D02*
D03*
D122*
X220500Y117000D02*
D03*
D123*
X230500D02*
D03*
X240500D02*
D03*
D135*
X404976Y297661D02*
X414839D01*
X416023Y296477D01*
X387000Y305339D02*
X404976D01*
X377024D02*
X387000D01*
Y294500D02*
Y305339D01*
X383016Y313016D02*
X388000Y318000D01*
X377024Y313016D02*
X383016D01*
X388000Y318000D02*
Y325941D01*
X396000Y276313D02*
Y292500D01*
X396022Y292522D02*
X404955D01*
X355795Y314441D02*
X358236Y312000D01*
X370500D02*
X372043Y310457D01*
X358236Y312000D02*
X370500D01*
X519821Y123500D02*
X525000D01*
X372043Y310457D02*
X377024D01*
X389500Y276157D02*
X395845D01*
X385043Y292543D02*
X387000Y294500D01*
X377024Y292543D02*
X385043D01*
X438843Y243240D02*
X439333D01*
X438500Y243583D02*
X438843Y243240D01*
X439333Y239500D02*
X450500D01*
X421410Y235760D02*
X430667D01*
X366425Y315575D02*
X377024D01*
X416000Y296441D02*
X416770Y295672D01*
Y291790D02*
Y295672D01*
X428740Y291504D02*
Y299500D01*
X428295Y291059D02*
X428740Y291504D01*
X421194Y271000D02*
X421779Y271586D01*
Y300220D01*
X416760Y271000D02*
X421194D01*
X404976Y300220D02*
X421779D01*
X426621D01*
X427500Y299342D01*
D136*
X562000Y162000D02*
X563500D01*
X557500Y166500D02*
X562000Y162000D01*
X551500Y166500D02*
X557500D01*
X519500Y375000D02*
X524480D01*
X514500Y364500D02*
Y370000D01*
X519500Y375000D01*
X542020D02*
X552000D01*
X460500Y192000D02*
X549157D01*
X451500Y201000D02*
Y209000D01*
Y201000D02*
X460500Y192000D01*
X551500Y166500D02*
Y189657D01*
X549157Y192000D02*
X551500Y189657D01*
X451500Y209000D02*
Y223980D01*
X366000Y208500D02*
X451000D01*
X448500Y182000D02*
Y185000D01*
X439500Y194000D02*
X448500Y185000D01*
X423500Y194000D02*
X439500D01*
X644500Y182000D02*
X658000Y168500D01*
Y121000D02*
Y168500D01*
X559500Y182000D02*
X644500D01*
X543500Y222000D02*
Y234000D01*
X544000Y223000D02*
Y234000D01*
X543500Y222000D02*
X544500Y223000D01*
X532957Y233581D02*
X534369D01*
X532500Y234000D02*
X532957Y233581D01*
X544500Y223000D02*
X548500D01*
X448500Y182000D02*
X541000D01*
X466500Y167500D02*
X485914D01*
X448500D02*
X466500D01*
X448500D02*
Y182000D01*
X356000Y194000D02*
X360500D01*
X485914Y167500D02*
X492500Y160914D01*
X532000Y104500D02*
X532000Y104500D01*
X473500Y331500D02*
X482000D01*
X662500Y116500D02*
X684000D01*
X658000Y121000D02*
X662500Y116500D01*
X448500Y147996D02*
Y167500D01*
X360500Y194000D02*
X423500D01*
X623500Y162000D02*
X632000Y153500D01*
X603500Y162000D02*
X623500D01*
X632000Y116000D02*
Y153500D01*
X603500Y162000D02*
X605000Y160500D01*
X649773Y335772D02*
X684767D01*
X649161Y288500D02*
X684155D01*
X648888Y288228D02*
X649161Y288500D01*
X240850Y256500D02*
X252500D01*
X273000Y236000D01*
X240850Y266500D02*
X263500D01*
X282000Y248000D01*
X551500Y165500D02*
X552000Y166000D01*
X551500Y148496D02*
Y165500D01*
X532000Y104500D02*
Y123000D01*
X525920D02*
X532000D01*
X562500Y161000D02*
X563000Y161500D01*
X563500Y162000D02*
X594000D01*
X603500D01*
X562500Y146535D02*
Y161000D01*
X605000Y153500D02*
Y160500D01*
X532000Y123500D02*
Y130252D01*
X594000Y162000D02*
X595500Y160500D01*
Y153420D02*
Y160500D01*
X492500Y154490D02*
Y160914D01*
X533524Y259504D02*
X543606D01*
X543850Y259260D01*
Y255500D02*
Y259260D01*
X581157Y220500D02*
X586141D01*
X560299Y234000D02*
Y235606D01*
X560543Y235850D01*
X488354Y305000D02*
X501000D01*
D137*
X450500Y252102D02*
X450831D01*
X451102Y252374D01*
Y261000D01*
X422000Y242000D02*
Y251000D01*
X434260Y263260D02*
Y299500D01*
X422000Y251000D02*
X434260Y263260D01*
X554943Y325683D02*
X555260Y326000D01*
X554943Y312057D02*
Y325683D01*
X507000Y305000D02*
Y410271D01*
X457500Y110000D02*
X457988Y110488D01*
X464000D01*
X556500Y220461D02*
X560579D01*
X561039Y214500D02*
Y220000D01*
X565961Y209000D02*
X569842D01*
X570342Y208500D01*
X524000Y228500D02*
X526391Y226109D01*
X530391D01*
X532500Y224000D01*
X524000Y228500D02*
Y258000D01*
X521500Y260500D02*
X524000Y258000D01*
X581524Y210484D02*
X586728D01*
X587000Y210461D02*
X592500D01*
X581500D02*
X581524Y210484D01*
X305500Y184854D02*
Y189000D01*
X504500Y110000D02*
Y114988D01*
X507000Y296257D02*
Y305000D01*
X499743Y289000D02*
X507000Y296257D01*
X473520Y289000D02*
X499743D01*
X451374Y260500D02*
X521500D01*
X451102Y260772D02*
X451374Y260500D01*
X451102Y260772D02*
Y261000D01*
X475000Y152760D02*
X475248Y153008D01*
X477005Y158500D02*
X481000D01*
X475248Y153008D02*
Y156743D01*
X477005Y158500D01*
X504500Y120500D02*
Y140000D01*
X643839Y273661D02*
X660122Y257378D01*
X693287D01*
X643839Y273661D02*
Y288500D01*
X664500Y372500D02*
X693000D01*
X643178Y351178D02*
X664500Y372500D01*
X643178Y335500D02*
Y351178D01*
X533500Y265000D02*
Y271000D01*
X305259Y184614D02*
X305500Y184854D01*
X451500Y104000D02*
Y117335D01*
Y104000D02*
X451500Y104000D01*
X577343Y151917D02*
Y157883D01*
X466500Y154000D02*
Y166000D01*
X575750Y208593D02*
Y220565D01*
X566461Y214000D02*
X570500D01*
X565961Y214500D02*
Y220000D01*
Y209000D02*
Y214500D01*
X561039Y209000D02*
Y214500D01*
X389500Y242000D02*
X422000D01*
X381760Y249740D02*
X389500Y242000D01*
X381760Y249740D02*
Y275000D01*
X532155Y136918D02*
Y145956D01*
X315000Y271244D02*
X323850D01*
X592315Y220544D02*
Y227500D01*
Y299185D01*
X592500Y210461D02*
Y220359D01*
X434260Y299500D02*
X441240D01*
X438500Y243583D02*
Y260309D01*
X442997Y288740D02*
X467740D01*
X441240Y290497D02*
X442997Y288740D01*
X441240Y290497D02*
Y299500D01*
X592000Y305020D02*
Y406803D01*
X570000Y325000D02*
Y331240D01*
X441000Y299740D02*
Y408000D01*
X625504Y315500D02*
X643000D01*
Y312661D02*
Y316000D01*
Y316000D02*
Y335322D01*
X643889Y305500D02*
Y308000D01*
Y289447D02*
Y305500D01*
X625504D02*
X643889D01*
X592480D02*
X612000D01*
X446760Y299500D02*
X453646D01*
X587000Y221359D02*
Y227500D01*
X581079Y220579D02*
Y227421D01*
X575764Y220579D02*
Y227421D01*
X507000Y305000D02*
X514980D01*
X584760D02*
X591980D01*
X573187D02*
X579240D01*
X563500Y318500D02*
X569957D01*
X570000Y318543D02*
Y325000D01*
X520500Y305000D02*
X528500D01*
X534813D01*
X474709Y318500D02*
X482358D01*
X482500Y318358D02*
Y324882D01*
X482646Y305000D02*
Y312497D01*
D138*
X430667Y239500D02*
Y243240D01*
Y246167D02*
X434500Y250000D01*
X430667Y243240D02*
Y246167D01*
X538631Y348611D02*
X568389D01*
X570000Y336760D02*
Y347000D01*
X568389Y348611D02*
X570000Y347000D01*
X542049Y153260D02*
Y162451D01*
X537500Y167000D02*
X542049Y162451D01*
X528500Y167000D02*
X537500D01*
X519500Y322500D02*
Y330740D01*
X417150Y257000D02*
X422000D01*
X421187Y305744D02*
X422523Y307081D01*
X417500Y305744D02*
X421187D01*
X422523Y307081D02*
Y317977D01*
X411713Y305510D02*
X417266D01*
X417500Y305744D01*
X408500Y332000D02*
X422523Y317977D01*
X332346Y345517D02*
X332500Y345362D01*
X329000Y345517D02*
X332346D01*
X405016Y263500D02*
Y284827D01*
X396599Y332559D02*
X397000Y332157D01*
X403842D02*
X404000Y332000D01*
X355000Y320559D02*
Y326000D01*
X356500Y327500D01*
X374000D01*
X379059Y332559D01*
X388500D01*
X342575Y345921D02*
Y347336D01*
X344740Y349500D01*
Y353000D01*
X388500Y332559D02*
Y339000D01*
X382260Y345240D02*
X388500Y339000D01*
X352118Y345240D02*
X382260D01*
X404976Y305339D02*
X411542D01*
X404000Y332000D02*
X408500D01*
X397000Y332157D02*
X403842D01*
X388500Y332559D02*
X396599D01*
X439500Y229756D02*
X451244D01*
X592000Y299500D02*
X592315Y299185D01*
X439500Y229756D02*
Y235593D01*
X519244Y348480D02*
X528264D01*
X519000Y348724D02*
X519244Y348480D01*
X538500Y341000D02*
X545862D01*
X530000Y375000D02*
X530740D01*
X536500D01*
X530000D02*
X530740Y374260D01*
Y365500D02*
Y374260D01*
X531000Y360354D02*
Y364000D01*
X528264Y357618D02*
X531000Y360354D01*
X539500Y349161D02*
Y356854D01*
X536260Y360094D02*
X539500Y356854D01*
X536260Y360094D02*
Y365500D01*
X528264Y348480D02*
Y357618D01*
X352118Y345240D02*
Y348642D01*
X350561Y350200D02*
X352118Y348642D01*
X350561Y350200D02*
Y352699D01*
X333199Y345439D02*
X341683D01*
X569813Y305000D02*
Y311269D01*
X565500Y305000D02*
X569813D01*
X538205Y305018D02*
X542482D01*
X405016Y263500D02*
X410850D01*
X416760Y263889D02*
Y271000D01*
X410850Y257000D02*
Y263500D01*
D139*
X532500Y234000D02*
X543500D01*
X414251Y145000D02*
Y151500D01*
X413751Y133500D02*
Y142500D01*
Y145000D01*
Y123500D02*
Y133500D01*
X421249Y133000D02*
Y142000D01*
X481000Y104000D02*
X531500D01*
X554571D01*
X413751Y115000D02*
Y123500D01*
X421249Y124000D02*
Y133000D01*
Y115000D02*
Y124000D01*
Y104749D02*
Y115000D01*
X421498Y142000D02*
Y151249D01*
X413751Y105251D02*
Y115000D01*
X420500Y104000D02*
X421249Y104749D01*
X420500Y104000D02*
X451500D01*
X412500D02*
X420500D01*
X253000D02*
X412500D01*
X414251Y142500D02*
Y145000D01*
X412500Y104000D02*
X413751Y105251D01*
X451500Y104000D02*
X481000D01*
X218500Y249000D02*
X231000Y236500D01*
X218500Y249000D02*
Y362500D01*
X230500Y116553D02*
Y236500D01*
X230500Y236500D01*
X240850D01*
X557500Y106929D02*
Y117669D01*
X554571Y104000D02*
X557500Y106929D01*
X241000Y116000D02*
X253000Y104000D01*
X561894Y252150D02*
X574500D01*
X560543Y235850D02*
X574500D01*
D140*
X240850Y236500D02*
D03*
Y246500D02*
D03*
Y266500D02*
D03*
Y286500D02*
D03*
Y296500D02*
D03*
Y306500D02*
D03*
Y316500D02*
D03*
Y276500D02*
D03*
Y256500D02*
D03*
X366500Y137850D02*
D03*
X356500D02*
D03*
X336500D02*
D03*
X316500D02*
D03*
X306500D02*
D03*
X296500D02*
D03*
X286500D02*
D03*
X326500D02*
D03*
X346500D02*
D03*
X276000Y377150D02*
D03*
X286000D02*
D03*
X306000D02*
D03*
X326000D02*
D03*
X336000D02*
D03*
X346000D02*
D03*
X356000D02*
D03*
X316000D02*
D03*
X296000D02*
D03*
D141*
X240850Y326500D02*
D03*
D142*
X242000Y200000D02*
D03*
X241000Y169000D02*
D03*
Y145000D02*
D03*
D143*
X242000Y210000D02*
D03*
X241000Y179000D02*
D03*
Y155000D02*
D03*
D144*
X532500Y244000D02*
D03*
Y234000D02*
D03*
D145*
Y224000D02*
D03*
D146*
X276500Y137850D02*
D03*
X366000Y377150D02*
D03*
D147*
X397000Y384000D02*
D03*
D148*
X387000Y394000D02*
D03*
X397000Y404000D02*
D03*
D149*
X417500Y281500D02*
D03*
X411925Y293500D02*
D03*
X334000Y217000D02*
D03*
X597000Y327500D02*
D03*
Y323500D02*
D03*
Y319500D02*
D03*
Y315000D02*
D03*
Y345500D02*
D03*
Y341500D02*
D03*
Y337500D02*
D03*
Y333000D02*
D03*
Y363500D02*
D03*
Y359500D02*
D03*
Y355500D02*
D03*
Y351000D02*
D03*
Y381000D02*
D03*
Y377000D02*
D03*
Y373000D02*
D03*
Y368500D02*
D03*
Y398000D02*
D03*
Y394000D02*
D03*
Y390000D02*
D03*
Y385500D02*
D03*
X586500Y386000D02*
D03*
Y390500D02*
D03*
Y394500D02*
D03*
Y398500D02*
D03*
Y369000D02*
D03*
Y373500D02*
D03*
Y377500D02*
D03*
Y381500D02*
D03*
Y351500D02*
D03*
Y356000D02*
D03*
Y360000D02*
D03*
Y364000D02*
D03*
Y333500D02*
D03*
Y338000D02*
D03*
Y342000D02*
D03*
Y346000D02*
D03*
Y315500D02*
D03*
Y320000D02*
D03*
Y324000D02*
D03*
Y328000D02*
D03*
X446500Y293000D02*
D03*
X502500Y328000D02*
D03*
Y324000D02*
D03*
Y320000D02*
D03*
Y315500D02*
D03*
X436500Y318000D02*
D03*
Y314000D02*
D03*
Y310000D02*
D03*
Y305500D02*
D03*
X388000Y287000D02*
D03*
X387000Y308500D02*
D03*
X404000Y256500D02*
D03*
X399500D02*
D03*
X394500D02*
D03*
X389000D02*
D03*
X425000Y281000D02*
D03*
X301500Y295000D02*
D03*
X299000Y297000D02*
D03*
X606500Y315500D02*
D03*
X612000Y322000D02*
D03*
X544500Y288500D02*
D03*
X547000Y283000D02*
D03*
X552500D02*
D03*
X558000D02*
D03*
X562500Y288000D02*
D03*
X528500Y283000D02*
D03*
X439500Y220500D02*
D03*
X434500Y250000D02*
D03*
X339700Y243215D02*
D03*
X347284Y235475D02*
D03*
X289000Y210000D02*
D03*
X303000Y233500D02*
D03*
X294988Y240677D02*
D03*
X412000Y318500D02*
D03*
X408500Y326000D02*
D03*
X370169Y295020D02*
D03*
X635500Y310500D02*
D03*
X631500D02*
D03*
X464500D02*
D03*
X448500Y307500D02*
D03*
X453000D02*
D03*
X514500Y364500D02*
D03*
X552000Y375000D02*
D03*
X611500Y145500D02*
D03*
X592208Y122075D02*
D03*
X596313Y130313D02*
D03*
X601086Y138992D02*
D03*
X457500Y110000D02*
D03*
X697500Y246500D02*
D03*
X694000D02*
D03*
X690500D02*
D03*
X687000D02*
D03*
X697500Y268500D02*
D03*
X694000D02*
D03*
X690500D02*
D03*
X687000D02*
D03*
X697000Y361000D02*
D03*
X693500D02*
D03*
X690000D02*
D03*
X686500D02*
D03*
X697500Y383500D02*
D03*
X694000D02*
D03*
X690500D02*
D03*
X687000D02*
D03*
X603500Y403500D02*
D03*
Y407000D02*
D03*
Y410500D02*
D03*
Y414000D02*
D03*
X581000Y403000D02*
D03*
Y406500D02*
D03*
Y410000D02*
D03*
Y413500D02*
D03*
X517500Y403500D02*
D03*
Y407000D02*
D03*
Y410500D02*
D03*
Y414000D02*
D03*
X495500Y403000D02*
D03*
Y406500D02*
D03*
Y410000D02*
D03*
Y413500D02*
D03*
X430000Y413000D02*
D03*
X452500Y414000D02*
D03*
Y410000D02*
D03*
Y406500D02*
D03*
Y403000D02*
D03*
X430000Y409500D02*
D03*
Y406000D02*
D03*
Y402500D02*
D03*
X613500Y299500D02*
D03*
X606500Y311000D02*
D03*
X582000Y299500D02*
D03*
X575500Y311000D02*
D03*
X574500Y299500D02*
D03*
X538500Y310500D02*
D03*
X563500Y294500D02*
D03*
X544500D02*
D03*
X553000Y210500D02*
D03*
X548500D02*
D03*
X544000D02*
D03*
X594000Y201000D02*
D03*
X559500Y182000D02*
D03*
X541000D02*
D03*
X588500Y201000D02*
D03*
X582000D02*
D03*
X561500Y328500D02*
D03*
X558500Y332000D02*
D03*
X554500D02*
D03*
X542500Y326500D02*
D03*
Y322000D02*
D03*
X474000Y325500D02*
D03*
X469000D02*
D03*
X457000Y307500D02*
D03*
X461000D02*
D03*
X468500Y310500D02*
D03*
X472000D02*
D03*
X475500D02*
D03*
X522500Y299000D02*
D03*
X502000D02*
D03*
X490500Y311500D02*
D03*
X494500D02*
D03*
X498000D02*
D03*
X502000D02*
D03*
X515000D02*
D03*
X510500D02*
D03*
X529500D02*
D03*
X526000D02*
D03*
X522500D02*
D03*
X583000Y311000D02*
D03*
X579000D02*
D03*
X602500D02*
D03*
X599000D02*
D03*
X610000Y299500D02*
D03*
X555500Y304000D02*
D03*
X552500D02*
D03*
X555500Y306500D02*
D03*
X552500D02*
D03*
X564500Y309500D02*
D03*
Y313000D02*
D03*
X561500Y324500D02*
D03*
X542500Y318000D02*
D03*
Y314000D02*
D03*
Y310500D02*
D03*
X606000Y299500D02*
D03*
X602000D02*
D03*
X598000D02*
D03*
X585500D02*
D03*
X578500D02*
D03*
X565000Y298000D02*
D03*
X559500Y294500D02*
D03*
X555500D02*
D03*
X549000D02*
D03*
X542500Y298500D02*
D03*
X538500D02*
D03*
X515500Y299000D02*
D03*
X511000D02*
D03*
X498000D02*
D03*
X493500D02*
D03*
X489000D02*
D03*
X484500D02*
D03*
X480000D02*
D03*
X475000Y295000D02*
D03*
X470500D02*
D03*
X466000D02*
D03*
X460500Y293000D02*
D03*
X455500D02*
D03*
X451000D02*
D03*
X370000Y342000D02*
D03*
X504507Y110016D02*
D03*
X318016Y230016D02*
D03*
X542049Y153260D02*
D03*
X528500Y167000D02*
D03*
X519500Y322500D02*
D03*
X458255Y160132D02*
D03*
X485000Y155000D02*
D03*
X587500Y157000D02*
D03*
X577500Y117000D02*
D03*
X531500Y104000D02*
D03*
X465475Y220975D02*
D03*
X422000Y257000D02*
D03*
X473500Y331500D02*
D03*
X514500Y219500D02*
D03*
X509000D02*
D03*
X514500Y225000D02*
D03*
X481000Y158500D02*
D03*
X514500Y122500D02*
D03*
X514618Y119760D02*
D03*
X514500Y116500D02*
D03*
X504500Y127000D02*
D03*
Y131500D02*
D03*
Y135500D02*
D03*
Y140000D02*
D03*
X412000Y310500D02*
D03*
X379500Y323500D02*
D03*
X325000Y232000D02*
D03*
X322000Y230000D02*
D03*
X304000Y218595D02*
D03*
X332336Y274519D02*
D03*
Y278519D02*
D03*
Y283019D02*
D03*
X368500Y292000D02*
D03*
X397000Y310500D02*
D03*
X396000Y292500D02*
D03*
X481000Y104000D02*
D03*
X544090Y348716D02*
D03*
X533500Y271000D02*
D03*
X329000Y345517D02*
D03*
X273000Y236000D02*
D03*
X282000Y248000D02*
D03*
X300500Y270000D02*
D03*
X366000Y208500D02*
D03*
X305500Y189000D02*
D03*
X289018Y234018D02*
D03*
X551500Y166500D02*
D03*
X533500Y345000D02*
D03*
X349000Y282000D02*
D03*
X334500Y317000D02*
D03*
X367500Y282500D02*
D03*
X348500Y303500D02*
D03*
X351000Y306500D02*
D03*
X355500Y301000D02*
D03*
X410662Y282179D02*
D03*
X405009Y270009D02*
D03*
X270509Y301009D02*
D03*
X293500Y284500D02*
D03*
X299009Y241509D02*
D03*
X350516Y274016D02*
D03*
X317000Y308500D02*
D03*
X318500Y301500D02*
D03*
X486000Y167500D02*
D03*
X577343Y157883D02*
D03*
X329000Y232500D02*
D03*
X337500Y247500D02*
D03*
X305307Y265693D02*
D03*
X314000Y233000D02*
D03*
X330000Y202500D02*
D03*
X360500Y194000D02*
D03*
X411713Y305510D02*
D03*
X392000Y300500D02*
D03*
X306500Y232000D02*
D03*
X373000Y335500D02*
D03*
X322500Y297000D02*
D03*
X311140Y314579D02*
D03*
X297671Y312171D02*
D03*
X333500Y253500D02*
D03*
X345500Y258000D02*
D03*
X343000Y261000D02*
D03*
X367000Y305279D02*
D03*
X370000Y307500D02*
D03*
X416000Y296441D02*
D03*
X503000Y225000D02*
D03*
Y230000D02*
D03*
Y235000D02*
D03*
Y249500D02*
D03*
Y244000D02*
D03*
Y239500D02*
D03*
X481000Y230000D02*
D03*
Y235000D02*
D03*
Y239500D02*
D03*
X486500Y235000D02*
D03*
Y230000D02*
D03*
Y239500D02*
D03*
X470000D02*
D03*
Y230000D02*
D03*
X464000Y244000D02*
D03*
X470000Y235000D02*
D03*
Y244000D02*
D03*
X464000Y230000D02*
D03*
Y235000D02*
D03*
Y239500D02*
D03*
X481000Y219500D02*
D03*
X470000D02*
D03*
X497500D02*
D03*
X464000Y225000D02*
D03*
X470000D02*
D03*
X492000Y219500D02*
D03*
X475500D02*
D03*
X486500D02*
D03*
X509000Y249500D02*
D03*
Y235000D02*
D03*
Y244000D02*
D03*
Y230000D02*
D03*
Y239500D02*
D03*
X514500Y244000D02*
D03*
Y239500D02*
D03*
Y249500D02*
D03*
X509000Y225000D02*
D03*
X514500Y230000D02*
D03*
Y235000D02*
D03*
X492000Y249500D02*
D03*
X497500D02*
D03*
X464000D02*
D03*
X470000D02*
D03*
X475500D02*
D03*
X481000D02*
D03*
X486500D02*
D03*
X475500Y244000D02*
D03*
X481000D02*
D03*
X486500D02*
D03*
X492000Y239500D02*
D03*
X497500D02*
D03*
X492000Y244000D02*
D03*
X497500D02*
D03*
X475500Y239500D02*
D03*
Y235000D02*
D03*
X492000D02*
D03*
X497500D02*
D03*
X503000Y219500D02*
D03*
X497500Y225000D02*
D03*
X481000D02*
D03*
X486500D02*
D03*
X475500Y230000D02*
D03*
X492000D02*
D03*
X497500D02*
D03*
X475500Y225000D02*
D03*
X492000D02*
D03*
X322000Y300500D02*
D03*
D150*
X218500Y362500D02*
D03*
X632000Y116000D02*
D03*
X684000Y116500D02*
D03*
X684500Y170000D02*
D03*
X219000Y399000D02*
D03*
D151*
X465984Y130823D02*
D03*
Y134760D02*
D03*
X469921Y130823D02*
D03*
Y134760D02*
D03*
X473858Y130823D02*
D03*
Y134760D02*
D03*
X572642Y130740D02*
D03*
Y134677D02*
D03*
X576579Y130740D02*
D03*
Y134677D02*
D03*
X580516Y130740D02*
D03*
Y134677D02*
D03*
M02*
