G04*
G04 #@! TF.GenerationSoftware,Altium Limited,Altium Designer,23.8.1 (32)*
G04*
G04 Layer_Color=255*
%FSLAX25Y25*%
%MOIN*%
G70*
G04*
G04 #@! TF.SameCoordinates,93D85A25-96AA-4E13-9423-ABE69869F54E*
G04*
G04*
G04 #@! TF.FilePolarity,Positive*
G04*
G01*
G75*
%ADD20O,0.07480X0.01772*%
G04:AMPARAMS|DCode=21|XSize=61.42mil|YSize=11.02mil|CornerRadius=1.38mil|HoleSize=0mil|Usage=FLASHONLY|Rotation=180.000|XOffset=0mil|YOffset=0mil|HoleType=Round|Shape=RoundedRectangle|*
%AMROUNDEDRECTD21*
21,1,0.06142,0.00827,0,0,180.0*
21,1,0.05866,0.01102,0,0,180.0*
1,1,0.00276,-0.02933,0.00413*
1,1,0.00276,0.02933,0.00413*
1,1,0.00276,0.02933,-0.00413*
1,1,0.00276,-0.02933,-0.00413*
%
%ADD21ROUNDEDRECTD21*%
G04:AMPARAMS|DCode=22|XSize=61.42mil|YSize=11.02mil|CornerRadius=1.38mil|HoleSize=0mil|Usage=FLASHONLY|Rotation=90.000|XOffset=0mil|YOffset=0mil|HoleType=Round|Shape=RoundedRectangle|*
%AMROUNDEDRECTD22*
21,1,0.06142,0.00827,0,0,90.0*
21,1,0.05866,0.01102,0,0,90.0*
1,1,0.00276,0.00413,0.02933*
1,1,0.00276,0.00413,-0.02933*
1,1,0.00276,-0.00413,-0.02933*
1,1,0.00276,-0.00413,0.02933*
%
%ADD22ROUNDEDRECTD22*%
%ADD23R,0.15000X0.08000*%
%ADD24R,0.06000X0.15000*%
%ADD25R,0.03543X0.02953*%
%ADD26R,0.08000X0.15000*%
%ADD27R,0.20000X0.08000*%
%ADD28R,0.03773X0.03961*%
%ADD29R,0.04940X0.05733*%
%ADD30R,0.03961X0.03773*%
%ADD31R,0.05709X0.05709*%
%ADD32R,0.01181X0.03347*%
%ADD33R,0.03347X0.01181*%
%ADD34R,0.05600X0.01100*%
%ADD35R,0.03543X0.03150*%
%ADD36R,0.04749X0.03765*%
%ADD37R,0.04182X0.04560*%
%ADD38R,0.03197X0.02985*%
%ADD39R,0.05906X0.05906*%
%ADD40R,0.06299X0.05512*%
%ADD41R,0.02953X0.03543*%
%ADD42R,0.03150X0.03543*%
%ADD43R,0.05926X0.02243*%
G04:AMPARAMS|DCode=44|XSize=59.26mil|YSize=22.43mil|CornerRadius=11.22mil|HoleSize=0mil|Usage=FLASHONLY|Rotation=180.000|XOffset=0mil|YOffset=0mil|HoleType=Round|Shape=RoundedRectangle|*
%AMROUNDEDRECTD44*
21,1,0.05926,0.00000,0,0,180.0*
21,1,0.03683,0.02243,0,0,180.0*
1,1,0.02243,-0.01841,0.00000*
1,1,0.02243,0.01841,0.00000*
1,1,0.02243,0.01841,0.00000*
1,1,0.02243,-0.01841,0.00000*
%
%ADD44ROUNDEDRECTD44*%
%ADD45R,0.02756X0.02756*%
%ADD46R,0.09055X0.03543*%
%ADD47R,0.03543X0.09055*%
%ADD48R,0.20000X0.20000*%
G04:AMPARAMS|DCode=49|XSize=43.31mil|YSize=23.62mil|CornerRadius=2.01mil|HoleSize=0mil|Usage=FLASHONLY|Rotation=0.000|XOffset=0mil|YOffset=0mil|HoleType=Round|Shape=RoundedRectangle|*
%AMROUNDEDRECTD49*
21,1,0.04331,0.01961,0,0,0.0*
21,1,0.03929,0.02362,0,0,0.0*
1,1,0.00402,0.01965,-0.00980*
1,1,0.00402,-0.01965,-0.00980*
1,1,0.00402,-0.01965,0.00980*
1,1,0.00402,0.01965,0.00980*
%
%ADD49ROUNDEDRECTD49*%
%ADD50R,0.04921X0.06102*%
%ADD51R,0.03543X0.03347*%
%ADD52R,0.04488X0.12008*%
%ADD53R,0.02559X0.02756*%
%ADD54R,0.12008X0.04488*%
%ADD55R,0.60000X0.40000*%
%ADD56R,0.05512X0.02992*%
%ADD57R,0.13386X0.03858*%
%ADD58R,0.00984X0.02756*%
%ADD59R,0.12992X0.06693*%
%ADD60R,0.03765X0.04749*%
%ADD61R,0.08071X0.04331*%
%ADD62R,0.06693X0.03740*%
%ADD63R,0.05938X0.05337*%
%ADD64R,0.02165X0.02165*%
%ADD65R,0.02047X0.02047*%
%ADD66R,0.02254X0.02517*%
%ADD67R,0.05157X0.03567*%
%ADD68R,0.03150X0.04134*%
%ADD69R,0.02165X0.02165*%
%ADD70R,0.04969X0.03378*%
%ADD71R,0.02402X0.02500*%
%ADD72R,0.02423X0.02254*%
%ADD73R,0.04724X0.03150*%
%ADD74R,0.02047X0.02205*%
%ADD75R,0.03543X0.03937*%
%ADD76R,0.03347X0.03937*%
%ADD77R,0.04545X0.05339*%
%ADD78R,0.03543X0.02953*%
%ADD79R,0.02953X0.03543*%
%ADD80R,0.04453X0.03591*%
%ADD81R,0.03591X0.04453*%
%ADD82R,0.02756X0.02756*%
%ADD83R,0.03740X0.04331*%
%ADD84R,0.05315X0.16535*%
%ADD85R,0.05000X0.14173*%
%ADD86R,0.16535X0.05315*%
%ADD87R,0.14173X0.05000*%
%ADD88R,0.03937X0.03347*%
%ADD89R,0.03740X0.01575*%
%ADD90R,0.05339X0.04545*%
%ADD91R,0.06890X0.09843*%
%ADD92C,0.01595*%
%ADD93R,0.04560X0.03985*%
%ADD94R,0.03773X0.03963*%
%ADD95R,0.03937X0.05512*%
%ADD96R,0.04182X0.04469*%
%ADD97R,0.03937X0.02953*%
%ADD98R,0.03985X0.04560*%
%ADD122R,0.06653X0.06653*%
%ADD123C,0.06653*%
%ADD140C,0.05984*%
G04:AMPARAMS|DCode=141|XSize=59.84mil|YSize=59.84mil|CornerRadius=14.96mil|HoleSize=0mil|Usage=FLASHONLY|Rotation=270.000|XOffset=0mil|YOffset=0mil|HoleType=Round|Shape=RoundedRectangle|*
%AMROUNDEDRECTD141*
21,1,0.05984,0.02992,0,0,270.0*
21,1,0.02992,0.05984,0,0,270.0*
1,1,0.02992,-0.01496,-0.01496*
1,1,0.02992,-0.01496,0.01496*
1,1,0.02992,0.01496,0.01496*
1,1,0.02992,0.01496,-0.01496*
%
%ADD141ROUNDEDRECTD141*%
%ADD142R,0.06102X0.06102*%
%ADD143C,0.06102*%
%ADD144C,0.07854*%
%ADD145R,0.07854X0.07854*%
G04:AMPARAMS|DCode=146|XSize=59.84mil|YSize=59.84mil|CornerRadius=14.96mil|HoleSize=0mil|Usage=FLASHONLY|Rotation=0.000|XOffset=0mil|YOffset=0mil|HoleType=Round|Shape=RoundedRectangle|*
%AMROUNDEDRECTD146*
21,1,0.05984,0.02992,0,0,0.0*
21,1,0.02992,0.05984,0,0,0.0*
1,1,0.02992,0.01496,-0.01496*
1,1,0.02992,-0.01496,-0.01496*
1,1,0.02992,-0.01496,0.01496*
1,1,0.02992,0.01496,0.01496*
%
%ADD146ROUNDEDRECTD146*%
%ADD147R,0.04921X0.04921*%
%ADD148C,0.04921*%
D20*
X377024Y318134D02*
D03*
Y315575D02*
D03*
Y313016D02*
D03*
Y310457D02*
D03*
Y307898D02*
D03*
Y305339D02*
D03*
Y302780D02*
D03*
Y300220D02*
D03*
Y297661D02*
D03*
Y295102D02*
D03*
Y292543D02*
D03*
Y289984D02*
D03*
Y287425D02*
D03*
Y284866D02*
D03*
X404976Y318134D02*
D03*
Y315575D02*
D03*
Y313016D02*
D03*
Y310457D02*
D03*
Y307898D02*
D03*
Y305339D02*
D03*
Y302780D02*
D03*
Y300220D02*
D03*
Y297661D02*
D03*
Y295102D02*
D03*
Y292543D02*
D03*
Y289984D02*
D03*
Y287425D02*
D03*
Y284866D02*
D03*
D21*
X341362Y202315D02*
D03*
Y204283D02*
D03*
Y206252D02*
D03*
Y208221D02*
D03*
Y210189D02*
D03*
Y212158D02*
D03*
Y214126D02*
D03*
Y216094D02*
D03*
Y218063D02*
D03*
Y220031D02*
D03*
Y222000D02*
D03*
Y223969D02*
D03*
Y225937D02*
D03*
Y227906D02*
D03*
Y229874D02*
D03*
Y231842D02*
D03*
X296638D02*
D03*
Y229874D02*
D03*
Y227906D02*
D03*
Y225937D02*
D03*
Y223969D02*
D03*
Y222000D02*
D03*
Y220031D02*
D03*
Y218063D02*
D03*
Y216094D02*
D03*
Y214126D02*
D03*
Y212158D02*
D03*
Y210189D02*
D03*
Y208221D02*
D03*
Y206252D02*
D03*
Y204283D02*
D03*
Y202315D02*
D03*
D22*
X304236Y194717D02*
D03*
X306205D02*
D03*
X308173D02*
D03*
X310142D02*
D03*
X312110D02*
D03*
X314079D02*
D03*
X316047D02*
D03*
X318016D02*
D03*
X319984D02*
D03*
X321953D02*
D03*
X323921D02*
D03*
X325890D02*
D03*
X327858D02*
D03*
X329827D02*
D03*
X331795D02*
D03*
X333764D02*
D03*
Y239441D02*
D03*
X331795D02*
D03*
X329827D02*
D03*
X327858D02*
D03*
X325890D02*
D03*
X323921D02*
D03*
X321953D02*
D03*
X319984D02*
D03*
X318016D02*
D03*
X316047D02*
D03*
X314079D02*
D03*
X312110D02*
D03*
X310142D02*
D03*
X308173D02*
D03*
X306205D02*
D03*
X304236D02*
D03*
D23*
X548500Y213000D02*
D03*
Y223000D02*
D03*
D24*
X560000Y215000D02*
D03*
D25*
X544000Y215539D02*
D03*
Y220461D02*
D03*
X587000Y205539D02*
D03*
Y210461D02*
D03*
X581500D02*
D03*
Y205539D02*
D03*
X554000Y220461D02*
D03*
Y215539D02*
D03*
X549000Y220461D02*
D03*
Y215539D02*
D03*
X592500Y210461D02*
D03*
Y205539D02*
D03*
D26*
X568500Y215000D02*
D03*
D27*
X589000Y213000D02*
D03*
Y203000D02*
D03*
D28*
X354500Y171480D02*
D03*
Y177000D02*
D03*
X519500Y330740D02*
D03*
Y336260D02*
D03*
X347000Y177000D02*
D03*
Y171480D02*
D03*
X339000Y177260D02*
D03*
Y171740D02*
D03*
X422000Y236480D02*
D03*
Y242000D02*
D03*
X451500Y223980D02*
D03*
Y229500D02*
D03*
X475000Y147240D02*
D03*
Y152760D02*
D03*
X570000Y336760D02*
D03*
Y331240D02*
D03*
X533500Y265000D02*
D03*
Y259480D02*
D03*
X592000Y305020D02*
D03*
Y299500D02*
D03*
X577500Y146240D02*
D03*
Y151760D02*
D03*
D29*
X407249Y115000D02*
D03*
X413751D02*
D03*
X407249Y123500D02*
D03*
X413751D02*
D03*
X407498Y133500D02*
D03*
X414000D02*
D03*
X407749Y142500D02*
D03*
X414251D02*
D03*
X407749Y151500D02*
D03*
X414251D02*
D03*
X427751Y115000D02*
D03*
X421249D02*
D03*
X427751Y124000D02*
D03*
X421249D02*
D03*
X427751Y133000D02*
D03*
X421249D02*
D03*
X428251Y151500D02*
D03*
X421749D02*
D03*
X428000Y142000D02*
D03*
X421498D02*
D03*
X370751Y224000D02*
D03*
X364249D02*
D03*
D30*
X475740Y110500D02*
D03*
X481260D02*
D03*
X555260Y326000D02*
D03*
X549740D02*
D03*
X551980Y288500D02*
D03*
X557500D02*
D03*
X311260Y185000D02*
D03*
X305740D02*
D03*
X252240Y200000D02*
D03*
X257760D02*
D03*
X468000Y289000D02*
D03*
X473520D02*
D03*
X586641Y220500D02*
D03*
X592359D02*
D03*
X579240Y305000D02*
D03*
X584760D02*
D03*
X514980D02*
D03*
X520500D02*
D03*
X524480Y375000D02*
D03*
X530000D02*
D03*
X542020D02*
D03*
X536500D02*
D03*
X501480Y305000D02*
D03*
X507000D02*
D03*
X441240Y299500D02*
D03*
X446760D02*
D03*
X416760Y271000D02*
D03*
X411240D02*
D03*
X428740Y299500D02*
D03*
X434260D02*
D03*
X381760Y275000D02*
D03*
X376240D02*
D03*
X530740Y365500D02*
D03*
X536260D02*
D03*
X350260Y353000D02*
D03*
X344740D02*
D03*
D31*
X553992Y305291D02*
D03*
D32*
X551984Y311000D02*
D03*
X553992D02*
D03*
X556000D02*
D03*
Y299583D02*
D03*
X553992D02*
D03*
X551984D02*
D03*
D33*
X559701Y307299D02*
D03*
Y305291D02*
D03*
Y303284D02*
D03*
X548283D02*
D03*
Y305291D02*
D03*
Y307299D02*
D03*
D34*
X311350Y308358D02*
D03*
Y306390D02*
D03*
Y304421D02*
D03*
Y302453D02*
D03*
Y300484D02*
D03*
Y298516D02*
D03*
Y296547D02*
D03*
Y294579D02*
D03*
Y292610D02*
D03*
Y290642D02*
D03*
X328650D02*
D03*
Y292610D02*
D03*
Y294579D02*
D03*
Y296547D02*
D03*
Y298516D02*
D03*
Y300484D02*
D03*
Y302453D02*
D03*
Y304421D02*
D03*
Y306390D02*
D03*
Y308358D02*
D03*
D35*
X417346Y277500D02*
D03*
X410653D02*
D03*
D36*
X605000Y153500D02*
D03*
Y145429D02*
D03*
X562500Y146535D02*
D03*
Y138465D02*
D03*
D37*
X315000Y277756D02*
D03*
Y271244D02*
D03*
X532155Y130406D02*
D03*
Y136918D02*
D03*
D38*
X324000Y249532D02*
D03*
Y254468D02*
D03*
X310000Y253969D02*
D03*
Y249031D02*
D03*
X317000Y254468D02*
D03*
Y249532D02*
D03*
X303000Y253969D02*
D03*
Y249031D02*
D03*
D39*
X530890Y146500D02*
D03*
X517110D02*
D03*
D40*
X324500Y282405D02*
D03*
Y270595D02*
D03*
D41*
X561039Y220000D02*
D03*
X565961D02*
D03*
X561039Y214500D02*
D03*
X565961D02*
D03*
X561039Y209000D02*
D03*
X565961D02*
D03*
X399579Y263500D02*
D03*
X404500D02*
D03*
D42*
X416500Y285653D02*
D03*
Y292347D02*
D03*
X429000Y284653D02*
D03*
Y291347D02*
D03*
D43*
X439333Y235760D02*
D03*
D44*
Y239500D02*
D03*
Y243240D02*
D03*
X430667D02*
D03*
Y239500D02*
D03*
Y235760D02*
D03*
D45*
X439500Y229756D02*
D03*
Y224244D02*
D03*
X293500Y281256D02*
D03*
Y275744D02*
D03*
X417500Y305744D02*
D03*
Y311256D02*
D03*
X287000Y281256D02*
D03*
Y275744D02*
D03*
X504500Y120500D02*
D03*
Y114988D02*
D03*
D46*
X450500Y239898D02*
D03*
Y252102D02*
D03*
D47*
X438898Y261000D02*
D03*
X451102D02*
D03*
D48*
X690500Y335500D02*
D03*
Y293500D02*
D03*
D49*
X341882Y345240D02*
D03*
Y341500D02*
D03*
Y337760D02*
D03*
X352118D02*
D03*
Y341500D02*
D03*
Y345240D02*
D03*
X538500Y348480D02*
D03*
Y344740D02*
D03*
Y341000D02*
D03*
X528264D02*
D03*
Y344740D02*
D03*
Y348480D02*
D03*
D50*
X251465Y179000D02*
D03*
X259535D02*
D03*
X251500Y167500D02*
D03*
X259571D02*
D03*
X251000Y154500D02*
D03*
X259071D02*
D03*
X251465Y143500D02*
D03*
X259535D02*
D03*
D51*
X268500Y170941D02*
D03*
Y176059D02*
D03*
X269000Y145941D02*
D03*
Y151059D02*
D03*
D52*
X543850Y255500D02*
D03*
X560150D02*
D03*
X560299Y234000D02*
D03*
X544000D02*
D03*
D53*
X575815Y214000D02*
D03*
X570500D02*
D03*
X581157Y220500D02*
D03*
X575843D02*
D03*
X592315Y227500D02*
D03*
X587000D02*
D03*
X575685D02*
D03*
X581000D02*
D03*
X575658Y208500D02*
D03*
X570342D02*
D03*
D54*
X574500Y252150D02*
D03*
Y235850D02*
D03*
D55*
X488500Y234500D02*
D03*
D56*
X625504Y315500D02*
D03*
Y310500D02*
D03*
Y305500D02*
D03*
X612000D02*
D03*
Y315500D02*
D03*
D57*
X451500Y126665D02*
D03*
Y117335D02*
D03*
X557500Y117669D02*
D03*
Y127000D02*
D03*
D58*
X465000Y127083D02*
D03*
X466968D02*
D03*
X468937D02*
D03*
X470905D02*
D03*
X472874D02*
D03*
X474843D02*
D03*
X465000Y138500D02*
D03*
X466968D02*
D03*
X468937D02*
D03*
X470905D02*
D03*
X472874D02*
D03*
X474843D02*
D03*
X571658Y127000D02*
D03*
X573626D02*
D03*
X575595D02*
D03*
X577563D02*
D03*
X579531D02*
D03*
X581500D02*
D03*
X571658Y138417D02*
D03*
X573626D02*
D03*
X575595D02*
D03*
X577563D02*
D03*
X579531D02*
D03*
X581500D02*
D03*
D59*
X469921Y132791D02*
D03*
X576579Y132709D02*
D03*
D60*
X458929Y146000D02*
D03*
X467000D02*
D03*
X458429Y154000D02*
D03*
X466500D02*
D03*
D61*
X448500Y135004D02*
D03*
Y147996D02*
D03*
X551500Y148496D02*
D03*
Y135504D02*
D03*
D62*
X464000Y110488D02*
D03*
Y121512D02*
D03*
X570500Y108976D02*
D03*
Y120000D02*
D03*
D63*
X492500Y152990D02*
D03*
Y145500D02*
D03*
D64*
X487000Y123500D02*
D03*
X483457D02*
D03*
X592398Y130126D02*
D03*
X588854D02*
D03*
X588272Y122000D02*
D03*
X584728D02*
D03*
D65*
X490500Y138500D02*
D03*
X487350D02*
D03*
X597075Y139000D02*
D03*
X593925D02*
D03*
D66*
X482500Y135220D02*
D03*
Y138500D02*
D03*
X589000Y135220D02*
D03*
Y138500D02*
D03*
D67*
X482500Y144000D02*
D03*
Y150111D02*
D03*
D68*
X485783Y118000D02*
D03*
X478500D02*
D03*
X592142Y113000D02*
D03*
X584858D02*
D03*
D69*
X482500Y127228D02*
D03*
Y130772D02*
D03*
D70*
X355000Y320559D02*
D03*
Y314441D02*
D03*
X388500Y332559D02*
D03*
Y326441D02*
D03*
X365500Y322000D02*
D03*
Y315882D02*
D03*
X482000Y331500D02*
D03*
Y325382D02*
D03*
D71*
X528500Y292201D02*
D03*
Y287500D02*
D03*
D72*
X563500Y318500D02*
D03*
X560125D02*
D03*
X549187Y318000D02*
D03*
X545813D02*
D03*
X570000Y325000D02*
D03*
X566625D02*
D03*
X573187Y305000D02*
D03*
X569813D02*
D03*
X538187D02*
D03*
X534813D02*
D03*
D73*
X570000Y318543D02*
D03*
Y311457D02*
D03*
X528500Y305000D02*
D03*
Y297913D02*
D03*
D74*
X565500Y305000D02*
D03*
Y301929D02*
D03*
X542500Y305035D02*
D03*
Y301965D02*
D03*
D75*
X410850Y263500D02*
D03*
X417150D02*
D03*
X410850Y257000D02*
D03*
X417150D02*
D03*
D76*
X355343Y202000D02*
D03*
X360658D02*
D03*
X279842Y220000D02*
D03*
X285157D02*
D03*
D77*
X643839Y288500D02*
D03*
X649161D02*
D03*
X643178Y335500D02*
D03*
X648500D02*
D03*
D78*
X519000Y348724D02*
D03*
Y344000D02*
D03*
X546000Y340862D02*
D03*
Y336138D02*
D03*
X332500Y345362D02*
D03*
Y340638D02*
D03*
D79*
X360638Y339500D02*
D03*
X365362D02*
D03*
D80*
X279978Y227000D02*
D03*
X285022D02*
D03*
X283478Y241500D02*
D03*
X288522D02*
D03*
X359522Y216000D02*
D03*
X354478D02*
D03*
X356044Y228500D02*
D03*
X351000D02*
D03*
D81*
X356000Y189000D02*
D03*
Y194044D02*
D03*
X525500Y117956D02*
D03*
Y123000D02*
D03*
D82*
X355244Y208500D02*
D03*
X360756D02*
D03*
D83*
X482646Y305000D02*
D03*
X488354D02*
D03*
X469000Y318500D02*
D03*
X474709D02*
D03*
X459854Y300000D02*
D03*
X454146D02*
D03*
D84*
X452244Y408500D02*
D03*
X430000D02*
D03*
X517622Y408713D02*
D03*
X495378D02*
D03*
X603122D02*
D03*
X580878D02*
D03*
D85*
X441122Y409287D02*
D03*
X506500Y409500D02*
D03*
X592000D02*
D03*
D86*
X692213Y361378D02*
D03*
Y383622D02*
D03*
X692500Y246256D02*
D03*
Y268500D02*
D03*
D87*
X693000Y372500D02*
D03*
X693287Y257378D02*
D03*
D88*
X303000Y317657D02*
D03*
Y312343D02*
D03*
X396000Y276157D02*
D03*
Y270843D02*
D03*
X397000Y332157D02*
D03*
Y326842D02*
D03*
X404000Y332000D02*
D03*
Y326685D02*
D03*
X389500Y276157D02*
D03*
Y270843D02*
D03*
D89*
X474437Y305059D02*
D03*
Y302500D02*
D03*
Y299941D02*
D03*
X466563D02*
D03*
Y302500D02*
D03*
Y305059D02*
D03*
D90*
X643000Y307839D02*
D03*
Y313161D02*
D03*
D91*
X514618Y119760D02*
D03*
D92*
X519821Y123500D02*
D03*
Y119760D02*
D03*
X519736Y116020D02*
D03*
X509416D02*
D03*
Y119760D02*
D03*
X509500Y123500D02*
D03*
D93*
X283500Y301000D02*
D03*
X276988D02*
D03*
D94*
X482500Y318358D02*
D03*
Y312642D02*
D03*
D95*
X360150Y280669D02*
D03*
Y289331D02*
D03*
X353850D02*
D03*
Y280669D02*
D03*
D96*
X595500Y147000D02*
D03*
Y153420D02*
D03*
D97*
X587500Y152406D02*
D03*
Y146500D02*
D03*
D98*
X293500Y295256D02*
D03*
Y288744D02*
D03*
D122*
X220500Y117000D02*
D03*
D123*
X230500D02*
D03*
X240500D02*
D03*
D140*
X240850Y236500D02*
D03*
Y246500D02*
D03*
Y266500D02*
D03*
Y286500D02*
D03*
Y296500D02*
D03*
Y306500D02*
D03*
Y316500D02*
D03*
Y276500D02*
D03*
Y256500D02*
D03*
X366500Y137850D02*
D03*
X356500D02*
D03*
X336500D02*
D03*
X316500D02*
D03*
X306500D02*
D03*
X296500D02*
D03*
X286500D02*
D03*
X326500D02*
D03*
X346500D02*
D03*
X276000Y377150D02*
D03*
X286000D02*
D03*
X306000D02*
D03*
X326000D02*
D03*
X336000D02*
D03*
X346000D02*
D03*
X356000D02*
D03*
X316000D02*
D03*
X296000D02*
D03*
D141*
X240850Y326500D02*
D03*
D142*
X242000Y200000D02*
D03*
X241000Y169000D02*
D03*
Y145000D02*
D03*
D143*
X242000Y210000D02*
D03*
X241000Y179000D02*
D03*
Y155000D02*
D03*
D144*
X532500Y244000D02*
D03*
Y234000D02*
D03*
D145*
Y224000D02*
D03*
D146*
X276500Y137850D02*
D03*
X366000Y377150D02*
D03*
D147*
X397000Y384000D02*
D03*
D148*
X387000Y394000D02*
D03*
X397000Y404000D02*
D03*
M02*
