G04*
G04 #@! TF.GenerationSoftware,Altium Limited,Altium Designer,23.8.1 (32)*
G04*
G04 Layer_Color=32768*
%FSLAX25Y25*%
%MOIN*%
G70*
G04*
G04 #@! TF.SameCoordinates,153C8A97-D4D0-4ED2-B9B7-1791E5601574*
G04*
G04*
G04 #@! TF.FilePolarity,Positive*
G04*
G01*
G75*
%ADD11C,0.00787*%
%ADD14C,0.00394*%
%ADD16C,0.00600*%
%ADD157C,0.00197*%
G36*
X312900Y289092D02*
X307550D01*
Y309908D01*
X312900D01*
Y310750D01*
X327100D01*
Y309908D01*
X332450D01*
Y289092D01*
X327100D01*
Y288250D01*
X312900D01*
Y289092D01*
D02*
G37*
D11*
X499299Y260961D02*
X510598D01*
Y283244D01*
X499299D02*
X510598D01*
X499299Y260961D02*
Y283244D01*
X472535Y246630D02*
Y252371D01*
Y246630D02*
X483985D01*
Y252371D01*
X472535D02*
X483985D01*
X574169Y237264D02*
X582831D01*
Y232736D02*
Y237264D01*
X574169Y232736D02*
X582831D01*
X574169D02*
Y237264D01*
X408275Y273870D02*
X419725D01*
Y268129D02*
Y273870D01*
X408275Y268129D02*
X419725D01*
X408275D02*
Y273870D01*
X351629Y179965D02*
X357370D01*
X351629Y168515D02*
Y179965D01*
Y168515D02*
X357370D01*
Y179965D01*
X399205Y162649D02*
Y170351D01*
X385795D02*
X399205D01*
X385795Y162649D02*
Y170351D01*
Y162649D02*
X399205D01*
X516630Y339225D02*
X522370D01*
X516630Y327775D02*
Y339225D01*
Y327775D02*
X522370D01*
Y339225D01*
X476725Y160129D02*
Y165870D01*
X465275D02*
X476725D01*
X465275Y160129D02*
Y165870D01*
Y160129D02*
X476725D01*
X344129Y168515D02*
X349870D01*
Y179965D01*
X344129D02*
X349870D01*
X344129Y168515D02*
Y179965D01*
X399205Y171149D02*
Y178851D01*
X385795D02*
X399205D01*
X385795Y171149D02*
Y178851D01*
Y171149D02*
X399205D01*
X399454Y181149D02*
Y188851D01*
X386044D02*
X399454D01*
X386044Y181149D02*
Y188851D01*
Y181149D02*
X399454D01*
X399705Y190149D02*
Y197851D01*
X386295D02*
X399705D01*
X386295Y190149D02*
Y197851D01*
Y190149D02*
X399705D01*
Y199149D02*
Y206851D01*
X386295D02*
X399705D01*
X386295Y199149D02*
Y206851D01*
Y199149D02*
X399705D01*
X399795Y162649D02*
Y170351D01*
Y162649D02*
X413205D01*
Y170351D01*
X399795D02*
X413205D01*
X399795Y171649D02*
Y179351D01*
Y171649D02*
X413205D01*
Y179351D01*
X399795D02*
X413205D01*
X399795Y180649D02*
Y188351D01*
Y180649D02*
X413205D01*
Y188351D01*
X399795D02*
X413205D01*
X400295Y199149D02*
Y206851D01*
Y199149D02*
X413705D01*
Y206851D01*
X400295D02*
X413705D01*
X400044Y189649D02*
Y197351D01*
Y189649D02*
X413454D01*
Y197351D01*
X400044D02*
X413454D01*
X214102Y129185D02*
X246898D01*
Y104815D02*
Y129185D01*
X214102Y104815D02*
X246898D01*
X214102D02*
Y129185D01*
X546775Y323130D02*
Y328871D01*
Y323130D02*
X558225D01*
Y328871D01*
X546775D02*
X558225D01*
X560465Y285630D02*
Y291371D01*
X549015D02*
X560465D01*
X549015Y285630D02*
Y291371D01*
Y285630D02*
X560465D01*
X302775Y182130D02*
X314225D01*
X302775D02*
Y187871D01*
X314225D01*
Y182130D02*
Y187871D01*
X408488Y275335D02*
Y279665D01*
Y275335D02*
X419512D01*
Y279665D01*
X408488D02*
X419512D01*
X601843Y194078D02*
Y209851D01*
X593157Y194078D02*
X601843D01*
X593157D02*
Y209851D01*
X601843D01*
X310941Y266996D02*
X319059D01*
Y282004D01*
X310941D02*
X319059D01*
X310941Y266996D02*
Y282004D01*
X321835Y247645D02*
Y256355D01*
X326165D01*
Y247645D02*
Y256355D01*
X321835Y247645D02*
X326165D01*
X506264Y195260D02*
Y202740D01*
Y195260D02*
X526736D01*
Y202740D01*
X506264D02*
X526736D01*
X336129Y168775D02*
X341870D01*
Y180225D01*
X336129D02*
X341870D01*
X336129Y168775D02*
Y180225D01*
X260725Y197129D02*
Y202870D01*
X249275D02*
X260725D01*
X249275Y197129D02*
Y202870D01*
Y197129D02*
X260725D01*
X520595Y193667D02*
X528714D01*
X520595Y178658D02*
Y193667D01*
Y178658D02*
X528714D01*
Y193667D01*
X414335Y294512D02*
X418665D01*
X414335Y283488D02*
Y294512D01*
Y283488D02*
X418665D01*
Y294512D01*
X426835Y293512D02*
X431165D01*
X426835Y282488D02*
Y293512D01*
Y282488D02*
X431165D01*
Y293512D01*
X462720Y257807D02*
X479280D01*
X462720D02*
Y271193D01*
X479280D01*
Y257807D02*
Y271193D01*
X470665Y241972D02*
Y251028D01*
X466335Y241972D02*
X470665D01*
X466335D02*
Y251028D01*
X470665D01*
X480890Y262732D02*
Y279268D01*
X492110D01*
Y262732D02*
Y279268D01*
X480890Y262732D02*
X492110D01*
X450130Y257775D02*
Y269225D01*
X455870D01*
Y257775D02*
Y269225D01*
X450130Y257775D02*
X455870D01*
X463732Y283110D02*
X480268D01*
Y271890D02*
Y283110D01*
X463732Y271890D02*
X480268D01*
X463732D02*
Y283110D01*
X476485Y286129D02*
Y291870D01*
X465035D02*
X476485D01*
X465035Y286129D02*
Y291870D01*
Y286129D02*
X476485D01*
X339323Y348488D02*
X354677D01*
Y334512D02*
Y348488D01*
X339323Y334512D02*
X354677D01*
X339323D02*
Y348488D01*
X563949Y259803D02*
Y280197D01*
X540051D02*
X563949D01*
X540051Y259803D02*
Y280197D01*
Y259803D02*
X563949D01*
X568827Y226236D02*
Y230764D01*
Y226236D02*
X577488D01*
Y230764D01*
X568827D02*
X577488D01*
X583677Y237871D02*
X595323D01*
Y232130D02*
Y237871D01*
X583677Y232130D02*
X595323D01*
X583677D02*
Y237871D01*
X585327Y239736D02*
Y244264D01*
Y239736D02*
X593988D01*
Y244264D01*
X585327D02*
X593988D01*
X574012D02*
X582673D01*
Y239736D02*
Y244264D01*
X574012Y239736D02*
X582673D01*
X574012D02*
Y244264D01*
X568669Y220736D02*
Y225264D01*
Y220736D02*
X577331D01*
Y225264D01*
X568669D02*
X577331D01*
X540201Y238303D02*
Y258697D01*
Y238303D02*
X564098D01*
Y258697D01*
X540201D02*
X564098D01*
X564303Y246551D02*
X584697D01*
Y270449D01*
X564303D02*
X584697D01*
X564303Y246551D02*
Y270449D01*
X608850Y319142D02*
X628653D01*
Y301858D02*
Y319142D01*
X608850Y301858D02*
X628653D01*
X608850D02*
Y319142D01*
X435142Y165642D02*
X452858D01*
Y183358D01*
X435142D02*
X452858D01*
X435142Y165642D02*
Y183358D01*
X463351Y194157D02*
Y202843D01*
X447578D02*
X463351D01*
X447578Y194157D02*
Y202843D01*
Y194157D02*
X463351D01*
X462851Y202157D02*
Y210843D01*
X447078D02*
X462851D01*
X447078Y202157D02*
Y210843D01*
Y202157D02*
X462851D01*
X435291Y203055D02*
X446709D01*
X435291Y184945D02*
Y203055D01*
Y184945D02*
X446709D01*
Y203055D01*
X464630Y208225D02*
X470370D01*
X464630Y196775D02*
Y208225D01*
Y196775D02*
X470370D01*
Y208225D01*
X480063Y193363D02*
X489937D01*
Y210127D01*
X480063D02*
X489937D01*
X480063Y193363D02*
Y210127D01*
X478276Y189425D02*
Y192575D01*
Y189425D02*
X484575D01*
Y192575D01*
X478276D02*
X484575D01*
X473282Y192849D02*
X476718D01*
X473282Y185871D02*
Y192849D01*
Y185871D02*
X476718D01*
Y192849D01*
X471850Y204788D02*
X478150D01*
X471850Y194323D02*
Y204788D01*
Y194323D02*
X478150D01*
Y204788D01*
X469031Y167252D02*
Y173748D01*
Y167252D02*
X480252D01*
Y173748D01*
X469031D02*
X480252D01*
X351949Y312358D02*
X358051D01*
Y322642D01*
X351949D02*
X358051D01*
X351949Y312358D02*
Y322642D01*
X385449Y324358D02*
X391551D01*
Y334642D01*
X385449D02*
X391551D01*
X385449Y324358D02*
Y334642D01*
X362449Y313799D02*
X368551D01*
Y324083D01*
X362449D02*
X368551D01*
X362449Y313799D02*
Y324083D01*
X567130Y328275D02*
X572870D01*
Y339725D01*
X567130D02*
X572870D01*
X567130Y328275D02*
Y339725D01*
X530629Y271015D02*
X536371D01*
Y282465D01*
X530629D02*
X536371D01*
X530629Y271015D02*
Y282465D01*
X587725Y302130D02*
Y307871D01*
X576275D02*
X587725D01*
X576275Y302130D02*
Y307871D01*
Y302130D02*
X587725D01*
X523465D02*
Y307871D01*
X512015D02*
X523465D01*
X512015Y302130D02*
Y307871D01*
Y302130D02*
X523465D01*
X589129Y296535D02*
X594871D01*
Y307985D01*
X589129D02*
X594871D01*
X589129Y296535D02*
Y307985D01*
X532965Y372130D02*
Y377870D01*
X521515D02*
X532965D01*
X521515Y372130D02*
Y377870D01*
Y372130D02*
X532965D01*
X533535D02*
Y377870D01*
Y372130D02*
X544985D01*
Y377870D01*
X533535D02*
X544985D01*
X360795Y220149D02*
Y227851D01*
Y220149D02*
X374205D01*
Y227851D01*
X360795D02*
X374205D01*
X526756Y285856D02*
X530244D01*
Y293845D01*
X526756D02*
X530244D01*
X526756Y285856D02*
Y293845D01*
X558324Y316782D02*
Y320217D01*
Y316782D02*
X565302D01*
Y320217D01*
X558324D02*
X565302D01*
X544011Y316283D02*
Y319718D01*
Y316283D02*
X550989D01*
Y319718D01*
X544011D02*
X550989D01*
X564824Y323283D02*
Y326717D01*
Y323283D02*
X571802D01*
Y326717D01*
X564824D02*
X571802D01*
X566850Y309488D02*
X573150D01*
Y320512D01*
X566850D02*
X573150D01*
X566850Y309488D02*
Y320512D01*
X568011Y303282D02*
Y306717D01*
Y303282D02*
X574989D01*
Y306717D01*
X568011D02*
X574989D01*
X533011Y303282D02*
Y306717D01*
Y303282D02*
X539989D01*
Y306717D01*
X533011D02*
X539989D01*
X525350Y295945D02*
X531650D01*
Y306968D01*
X525350D02*
X531650D01*
X525350Y295945D02*
Y306968D01*
X509965Y302130D02*
Y307871D01*
X498515D02*
X509965D01*
X498515Y302130D02*
Y307871D01*
Y302130D02*
X509965D01*
X449725Y296630D02*
Y302371D01*
X438275D02*
X449725D01*
X438275Y296630D02*
Y302371D01*
Y296630D02*
X449725D01*
X437225D02*
Y302371D01*
X425775D02*
X437225D01*
X425775Y296630D02*
Y302371D01*
Y296630D02*
X437225D01*
X373275Y272130D02*
Y277870D01*
Y272130D02*
X384725D01*
Y277870D01*
X373275D02*
X384725D01*
X641173Y291748D02*
X651827D01*
Y285252D02*
Y291748D01*
X641173Y285252D02*
X651827D01*
X641173D02*
Y291748D01*
X516638Y341638D02*
X521362D01*
Y351087D01*
X516638D02*
X521362D01*
X516638Y341638D02*
Y351087D01*
X525705Y337752D02*
Y351728D01*
Y337752D02*
X541059D01*
Y351728D01*
X525705D02*
X541059D01*
X543638Y333776D02*
X548362D01*
Y343224D01*
X543638D02*
X548362D01*
X543638Y333776D02*
Y343224D01*
X330138Y338276D02*
X334862D01*
Y347724D01*
X330138D02*
X334862D01*
X330138Y338276D02*
Y347724D01*
X367724Y337138D02*
Y341862D01*
X358276D02*
X367724D01*
X358276Y337138D02*
Y341862D01*
Y337138D02*
X367724D01*
X291335Y273972D02*
X295665D01*
Y283028D01*
X291335D02*
X295665D01*
X291335Y273972D02*
Y283028D01*
X415335Y313028D02*
X419665D01*
X415335Y303972D02*
Y313028D01*
Y303972D02*
X419665D01*
Y313028D01*
X288232Y224220D02*
Y229780D01*
X276767D02*
X288232D01*
X276767Y224220D02*
Y229780D01*
Y224220D02*
X288232D01*
X353220Y197254D02*
X358780D01*
X353220Y185789D02*
Y197254D01*
Y185789D02*
X358780D01*
Y197254D01*
X291733Y238720D02*
Y244280D01*
X280268D02*
X291733D01*
X280268Y238720D02*
Y244280D01*
Y238720D02*
X291733D01*
X307835Y247145D02*
X312165D01*
Y255855D01*
X307835D02*
X312165D01*
X307835Y247145D02*
Y255855D01*
X314835Y247645D02*
X319165D01*
Y256355D01*
X314835D02*
X319165D01*
X314835Y247645D02*
Y256355D01*
X362528Y206335D02*
Y210665D01*
X353472D02*
X362528D01*
X353472Y206335D02*
Y210665D01*
Y206335D02*
X362528D01*
X351268Y213220D02*
Y218780D01*
Y213220D02*
X362733D01*
Y218780D01*
X351268D02*
X362733D01*
X284835Y273972D02*
X289165D01*
Y283028D01*
X284835D02*
X289165D01*
X284835Y273972D02*
Y283028D01*
X347789Y225720D02*
Y231280D01*
Y225720D02*
X359254D01*
Y231280D01*
X347789D02*
X359254D01*
X300835Y247145D02*
X305165D01*
Y255855D01*
X300835D02*
X305165D01*
X300835Y247145D02*
Y255855D01*
X455295Y399839D02*
Y454898D01*
X426949D02*
X455295D01*
X426949Y399839D02*
Y454898D01*
Y399839D02*
X455295D01*
X520673Y400051D02*
Y455110D01*
X492327D02*
X520673D01*
X492327Y400051D02*
Y455110D01*
Y400051D02*
X520673D01*
X683551Y358327D02*
X738610D01*
Y386673D01*
X683551D02*
X738610D01*
X683551Y358327D02*
Y386673D01*
X606173Y400051D02*
Y455110D01*
X577827D02*
X606173D01*
X577827Y400051D02*
Y455110D01*
Y400051D02*
X606173D01*
X683839Y243205D02*
X738898D01*
Y271551D01*
X683839D02*
X738898D01*
X683839Y243205D02*
Y271551D01*
X478949Y323299D02*
X485051D01*
Y333583D01*
X478949D02*
X485051D01*
X478949Y323299D02*
Y333583D01*
X639752Y315827D02*
X646248D01*
X639752Y305173D02*
Y315827D01*
Y305173D02*
X646248D01*
Y315827D01*
X651166Y332252D02*
Y338748D01*
X640512D02*
X651166D01*
X640512Y332252D02*
Y338748D01*
Y332252D02*
X651166D01*
X500622Y165764D02*
Y178756D01*
Y165764D02*
X513614D01*
Y178756D01*
X500622D02*
X513614D01*
X272740Y297039D02*
Y304961D01*
Y297039D02*
X287748D01*
Y304961D01*
X272740D02*
X287748D01*
X494835Y165717D02*
X499165D01*
Y174772D01*
X494835D02*
X499165D01*
X494835Y165717D02*
Y174772D01*
X515220Y178711D02*
X520780D01*
X515220Y167246D02*
Y178711D01*
Y167246D02*
X520780D01*
Y178711D01*
X479630Y309677D02*
X485370D01*
Y321323D01*
X479630D02*
X485370D01*
X479630Y309677D02*
Y321323D01*
X539225Y362630D02*
Y368371D01*
X527775D02*
X539225D01*
X527775Y362630D02*
Y368371D01*
Y362630D02*
X539225D01*
X583941Y195297D02*
Y210123D01*
X592059D01*
Y195297D02*
Y210123D01*
X583941Y195297D02*
X592059D01*
X549709Y185445D02*
Y203555D01*
X538291Y185445D02*
X549709D01*
X538291D02*
Y203555D01*
X549709D01*
X559343Y187114D02*
Y202886D01*
X550657Y187114D02*
X559343D01*
X550657D02*
Y202886D01*
X559343D01*
X353225Y350130D02*
Y355871D01*
X341775D02*
X353225D01*
X341775Y350130D02*
Y355871D01*
Y350130D02*
X353225D01*
X582362Y197130D02*
Y206776D01*
X577638Y197130D02*
X582362D01*
X577638D02*
Y206776D01*
X582362D01*
X567130Y207225D02*
X572870D01*
X567130Y195775D02*
Y207225D01*
Y195775D02*
X572870D01*
Y207225D01*
X297461Y284496D02*
Y299504D01*
X289539Y284496D02*
X297461D01*
X289539D02*
Y299504D01*
X297461D01*
X541142Y165976D02*
Y183693D01*
X558858D01*
Y165976D02*
Y183693D01*
X541142Y165976D02*
X558858D01*
X575390Y162252D02*
Y168748D01*
Y162252D02*
X586610D01*
Y168748D01*
X575390D02*
X586610D01*
X584850Y189925D02*
Y193075D01*
Y189925D02*
X591150D01*
Y193075D01*
X584850D02*
X591150D01*
X579782Y192849D02*
X583217D01*
X579782Y185871D02*
Y192849D01*
Y185871D02*
X583217D01*
Y192849D01*
D14*
X395532Y388500D02*
X399468D01*
X397500Y386531D02*
Y390469D01*
X389032Y301500D02*
X392969D01*
X391000Y299532D02*
Y303468D01*
X544000Y230630D02*
Y234370D01*
X542130Y232500D02*
X545870D01*
X593130Y254000D02*
X596870D01*
X595000Y252130D02*
Y255870D01*
X563500Y232630D02*
Y236370D01*
X561630Y234500D02*
X565370D01*
X563500Y227130D02*
Y230870D01*
X561630Y229000D02*
X565370D01*
X563500Y221630D02*
Y225370D01*
X561630Y223500D02*
X565370D01*
X595000Y246630D02*
Y250370D01*
X593130Y248500D02*
X596870D01*
X253532Y179000D02*
X257469D01*
X255500Y177032D02*
Y180968D01*
X266610Y173500D02*
X270390D01*
X268500Y171610D02*
Y175390D01*
X253567Y167500D02*
X257504D01*
X255535Y165532D02*
Y169468D01*
X253067Y154500D02*
X257004D01*
X255035Y152532D02*
Y156468D01*
X552130Y232500D02*
X555870D01*
X554000Y230630D02*
Y234370D01*
X547130Y232500D02*
X550870D01*
X549000Y230630D02*
Y234370D01*
X462421Y183323D02*
Y187260D01*
X460453Y185291D02*
X464390D01*
X456500Y166532D02*
Y170468D01*
X454531Y168500D02*
X458468D01*
X476646Y176000D02*
X478811D01*
X477728Y174917D02*
Y177083D01*
X475646Y182500D02*
X477811D01*
X476728Y181417D02*
Y183583D01*
X595000Y257630D02*
Y261370D01*
X593130Y259500D02*
X596870D01*
X564417Y303465D02*
X566583D01*
X565500Y302382D02*
Y304547D01*
X541417Y303500D02*
X543583D01*
X542500Y302417D02*
Y304583D01*
X402039Y261630D02*
Y265370D01*
X400169Y263500D02*
X403909D01*
X358000Y200130D02*
Y203870D01*
X356130Y202000D02*
X359870D01*
X282500Y218130D02*
Y221870D01*
X280630Y220000D02*
X284370D01*
X267110Y148500D02*
X270890D01*
X269000Y146610D02*
Y150390D01*
X253532Y143500D02*
X257469D01*
X255500Y141532D02*
Y145468D01*
X483630Y305000D02*
X487370D01*
X485500Y303130D02*
Y306870D01*
X303000Y313130D02*
Y316870D01*
X301130Y315000D02*
X304870D01*
X468039Y303878D02*
X470598Y306437D01*
X468039Y298563D02*
Y306437D01*
Y298563D02*
X472961D01*
Y306437D01*
X468039D02*
X472961D01*
X394130Y273500D02*
X397870D01*
X396000Y271630D02*
Y275370D01*
X395130Y329500D02*
X398870D01*
X397000Y327630D02*
Y331370D01*
X402130Y329343D02*
X405870D01*
X404000Y327472D02*
Y331213D01*
X471854Y316630D02*
Y320370D01*
X469984Y318500D02*
X473724D01*
X457000Y298130D02*
Y301870D01*
X455130Y300000D02*
X458870D01*
X387630Y273500D02*
X391370D01*
X389500Y271630D02*
Y275370D01*
X569079Y183240D02*
Y187177D01*
X567110Y185209D02*
X571047D01*
X582043Y182626D02*
X584209D01*
X583126Y181543D02*
Y183709D01*
X577917Y174500D02*
X580083D01*
X579000Y173417D02*
Y175583D01*
X563000Y165020D02*
Y168957D01*
X561031Y166988D02*
X564968D01*
D16*
X307550Y289092D02*
Y309908D01*
X312900D01*
Y310750D01*
X327100D01*
Y309908D02*
Y310750D01*
Y309908D02*
X332450D01*
Y289092D02*
Y309908D01*
X327100Y289092D02*
X332450D01*
X327100Y288250D02*
Y289092D01*
X312900Y288250D02*
X327100D01*
X312900D02*
Y289092D01*
X307550D02*
X312900D01*
D157*
X383347Y401886D02*
X411654D01*
X383347Y375114D02*
X411654D01*
Y401886D01*
X383347Y375114D02*
Y401886D01*
X515480Y268847D02*
X535520D01*
X515480Y237154D02*
Y268847D01*
Y237154D02*
X535520D01*
Y268847D01*
X372299Y280043D02*
Y322957D01*
X409701Y280043D02*
Y322957D01*
X372299D02*
X409701D01*
X372299Y280043D02*
X409701D01*
X345417Y190661D02*
Y243496D01*
X292583Y190661D02*
Y243496D01*
Y190661D02*
X345417D01*
X292583Y243496D02*
X345417D01*
X541638Y228169D02*
X546362D01*
X541638Y236831D02*
X546362D01*
X541638Y228169D02*
Y236831D01*
X546362Y228169D02*
Y236831D01*
X599331Y251638D02*
Y256362D01*
X590669Y251638D02*
Y256362D01*
Y251638D02*
X599331D01*
X590669Y256362D02*
X599331D01*
X545626Y296925D02*
Y313657D01*
Y296925D02*
X562358D01*
Y313657D01*
X545626D02*
X562358D01*
X320366Y285949D02*
X328634D01*
X320366Y267051D02*
Y285949D01*
Y267051D02*
X328634D01*
Y285949D01*
X244630Y229236D02*
Y333764D01*
X201087Y229236D02*
X244630D01*
X201087D02*
Y333764D01*
X244630D01*
X559169Y236862D02*
X567831D01*
X559169Y232138D02*
X567831D01*
X559169D02*
Y236862D01*
X567831Y232138D02*
Y236862D01*
X559169Y231362D02*
X567831D01*
X559169Y226638D02*
X567831D01*
X559169D02*
Y231362D01*
X567831Y226638D02*
Y231362D01*
X559169Y225862D02*
X567831D01*
X559169Y221138D02*
X567831D01*
X559169D02*
Y225862D01*
X567831Y221138D02*
Y225862D01*
X202532Y216634D02*
X245543D01*
Y193366D02*
Y216634D01*
X202532Y193366D02*
X245543D01*
X202532D02*
Y216634D01*
X590669Y250862D02*
X599331D01*
X590669Y246138D02*
X599331D01*
X590669D02*
Y250862D01*
X599331Y246138D02*
Y250862D01*
X201532Y185634D02*
X244543D01*
Y162366D02*
Y185634D01*
X201532Y162366D02*
X244543D01*
X201532D02*
Y185634D01*
Y161634D02*
X244543D01*
Y138366D02*
Y161634D01*
X201532Y138366D02*
X244543D01*
X201532D02*
Y161634D01*
X247035Y173882D02*
Y184118D01*
X263965Y173882D02*
Y184118D01*
X247035D02*
X263965D01*
X247035Y173882D02*
X263965D01*
X266138Y168973D02*
Y178028D01*
X270862Y168973D02*
Y178028D01*
X266138Y168973D02*
X270862D01*
X266138Y178028D02*
X270862D01*
X247071Y162382D02*
Y172618D01*
X264000Y162382D02*
Y172618D01*
X247071D02*
X264000D01*
X247071Y162382D02*
X264000D01*
X246571Y149382D02*
Y159618D01*
X263500Y149382D02*
Y159618D01*
X246571D02*
X263500D01*
X246571Y149382D02*
X263500D01*
X556362Y228169D02*
Y236831D01*
X551638Y228169D02*
Y236831D01*
X556362D01*
X551638Y228169D02*
X556362D01*
X551362D02*
Y236831D01*
X546638Y228169D02*
Y236831D01*
X551362D01*
X546638Y228169D02*
X551362D01*
X453957Y177811D02*
X470886D01*
X453957Y192772D02*
X470886D01*
X453957Y177811D02*
Y192772D01*
X470886Y177811D02*
Y192772D01*
X452760Y160626D02*
X460240D01*
X452760Y176374D02*
X460240D01*
X452760Y160626D02*
Y176374D01*
X460240Y160626D02*
Y176374D01*
X481272Y174228D02*
Y177772D01*
X474185Y174228D02*
Y177772D01*
Y174228D02*
X481272D01*
X474185Y177772D02*
X481272D01*
X480272Y180728D02*
Y184272D01*
X473185Y180728D02*
Y184272D01*
Y180728D02*
X480272D01*
X473185Y184272D02*
X480272D01*
X590669Y261862D02*
X599331D01*
X590669Y257138D02*
X599331D01*
X590669D02*
Y261862D01*
X599331Y257138D02*
Y261862D01*
X567075Y300315D02*
Y306614D01*
X563925Y300315D02*
Y306614D01*
X567075D01*
X563925Y300315D02*
X567075D01*
X544075Y300350D02*
Y306650D01*
X540925Y300350D02*
Y306650D01*
X544075D01*
X540925Y300350D02*
X544075D01*
X397709Y265862D02*
X406370D01*
X397709Y261138D02*
X406370D01*
X397709D02*
Y265862D01*
X406370Y261138D02*
Y265862D01*
X414000Y261630D02*
Y265370D01*
X412130Y263500D02*
X415870D01*
X408095Y266453D02*
X419906D01*
X408095Y260547D02*
X419906D01*
X408095D02*
Y266453D01*
X419906Y260547D02*
Y266453D01*
X414000Y255130D02*
Y258870D01*
X412130Y257000D02*
X415870D01*
X408095Y259953D02*
X419906D01*
X408095Y254047D02*
X419906D01*
X408095D02*
Y259953D01*
X419906Y254047D02*
Y259953D01*
X352685Y204953D02*
X363315D01*
X352685Y199047D02*
X363315D01*
X352685D02*
Y204953D01*
X363315Y199047D02*
Y204953D01*
X277185Y222953D02*
X287815D01*
X277185Y217047D02*
X287815D01*
X277185D02*
Y222953D01*
X287815Y217047D02*
Y222953D01*
X266638Y143973D02*
Y153028D01*
X271362Y143973D02*
Y153028D01*
X266638Y143973D02*
X271362D01*
X266638Y153028D02*
X271362D01*
X247035Y138382D02*
Y148618D01*
X263965Y138382D02*
Y148618D01*
X247035D02*
X263965D01*
X247035Y138382D02*
X263965D01*
X478807Y300866D02*
Y309134D01*
X492193Y300866D02*
Y309134D01*
X478807D02*
X492193D01*
X478807Y300866D02*
X492193D01*
X300047Y320315D02*
X305953D01*
X300047Y309685D02*
X305953D01*
Y320315D01*
X300047Y309685D02*
Y320315D01*
X269236Y141630D02*
X373764D01*
Y98087D02*
Y141630D01*
X269236Y98087D02*
X373764D01*
X269236D02*
Y141630D01*
X268736Y373370D02*
X373264D01*
X268736D02*
Y416913D01*
X373264D01*
Y373370D02*
Y416913D01*
X398953Y268185D02*
Y278815D01*
X393047Y268185D02*
Y278815D01*
X398953D01*
X393047Y268185D02*
X398953D01*
X399953Y324185D02*
Y334815D01*
X394047Y324185D02*
Y334815D01*
X399953D01*
X394047Y324185D02*
X399953D01*
X406953Y324028D02*
Y334658D01*
X401047Y324028D02*
Y334658D01*
X406953D01*
X401047Y324028D02*
X406953D01*
X465161Y322634D02*
X478547D01*
X465161Y314366D02*
X478547D01*
X465161D02*
Y322634D01*
X478547Y314366D02*
Y322634D01*
X450307Y295866D02*
X463693D01*
X450307Y304134D02*
X463693D01*
Y295866D02*
Y304134D01*
X450307Y295866D02*
Y304134D01*
X392453Y268185D02*
Y278815D01*
X386547Y268185D02*
Y278815D01*
X392453D01*
X386547Y268185D02*
X392453D01*
X560614Y177728D02*
X577543D01*
X560614Y192689D02*
X577543D01*
X560614Y177728D02*
Y192689D01*
X577543Y177728D02*
Y192689D01*
X351095Y277126D02*
X362906D01*
Y292874D01*
X351095D02*
X362906D01*
X351095Y277126D02*
Y292874D01*
X355031Y285000D02*
X358968D01*
X357000Y283032D02*
Y286968D01*
X586669Y180854D02*
Y184398D01*
X579583Y180854D02*
Y184398D01*
Y180854D02*
X586669D01*
X579583Y184398D02*
X586669D01*
X582543Y172728D02*
Y176272D01*
X575457Y172728D02*
Y176272D01*
Y172728D02*
X582543D01*
X575457Y176272D02*
X582543D01*
X559260Y159114D02*
X566740D01*
X559260Y174862D02*
X566740D01*
X559260Y159114D02*
Y174862D01*
X566740Y159114D02*
Y174862D01*
M02*
