G04*
G04 #@! TF.GenerationSoftware,Altium Limited,Altium Designer,23.8.1 (32)*
G04*
G04 Layer_Physical_Order=3*
G04 Layer_Color=16440176*
%FSLAX25Y25*%
%MOIN*%
G70*
G04*
G04 #@! TF.SameCoordinates,9FE1DFA8-D547-43E1-8EB2-FABD993C7150*
G04*
G04*
G04 #@! TF.FilePolarity,Positive*
G04*
G01*
G75*
%ADD147C,0.05984*%
%ADD152C,0.02000*%
%ADD153C,0.30000*%
G36*
X702000Y98500D02*
X200000D01*
Y417000D01*
X702000D01*
Y98500D01*
D02*
G37*
%LPC*%
G36*
X603898Y416000D02*
X603102D01*
X602367Y415695D01*
X601804Y415133D01*
X601500Y414398D01*
Y413602D01*
X601804Y412867D01*
X602095Y412577D01*
X602328Y412250D01*
X602095Y411923D01*
X601804Y411633D01*
X601500Y410898D01*
Y410102D01*
X601804Y409367D01*
X602095Y409077D01*
X602328Y408750D01*
X602095Y408423D01*
X601804Y408133D01*
X601500Y407398D01*
Y406602D01*
X601804Y405867D01*
X602095Y405577D01*
X602328Y405250D01*
X602095Y404923D01*
X601804Y404633D01*
X601500Y403898D01*
Y403102D01*
X601804Y402367D01*
X602367Y401804D01*
X603102Y401500D01*
X603898D01*
X604633Y401804D01*
X605196Y402367D01*
X605500Y403102D01*
Y403898D01*
X605196Y404633D01*
X604905Y404923D01*
X604672Y405250D01*
X604905Y405577D01*
X605196Y405867D01*
X605500Y406602D01*
Y407398D01*
X605196Y408133D01*
X604905Y408423D01*
X604672Y408750D01*
X604905Y409077D01*
X605196Y409367D01*
X605500Y410102D01*
Y410898D01*
X605196Y411633D01*
X604905Y411923D01*
X604672Y412250D01*
X604905Y412577D01*
X605196Y412867D01*
X605500Y413602D01*
Y414398D01*
X605196Y415133D01*
X604633Y415695D01*
X603898Y416000D01*
D02*
G37*
G36*
X517898D02*
X517102D01*
X516367Y415695D01*
X515804Y415133D01*
X515500Y414398D01*
Y413602D01*
X515804Y412867D01*
X516095Y412577D01*
X516328Y412250D01*
X516095Y411923D01*
X515804Y411633D01*
X515500Y410898D01*
Y410102D01*
X515804Y409367D01*
X516095Y409077D01*
X516328Y408750D01*
X516095Y408423D01*
X515804Y408133D01*
X515500Y407398D01*
Y406602D01*
X515804Y405867D01*
X516095Y405577D01*
X516328Y405250D01*
X516095Y404923D01*
X515804Y404633D01*
X515500Y403898D01*
Y403102D01*
X515804Y402367D01*
X516367Y401804D01*
X517102Y401500D01*
X517898D01*
X518633Y401804D01*
X519196Y402367D01*
X519500Y403102D01*
Y403898D01*
X519196Y404633D01*
X518905Y404923D01*
X518672Y405250D01*
X518905Y405577D01*
X519196Y405867D01*
X519500Y406602D01*
Y407398D01*
X519196Y408133D01*
X518905Y408423D01*
X518672Y408750D01*
X518905Y409077D01*
X519196Y409367D01*
X519500Y410102D01*
Y410898D01*
X519196Y411633D01*
X518905Y411923D01*
X518672Y412250D01*
X518905Y412577D01*
X519196Y412867D01*
X519500Y413602D01*
Y414398D01*
X519196Y415133D01*
X518633Y415695D01*
X517898Y416000D01*
D02*
G37*
G36*
X581398Y415500D02*
X580602D01*
X579867Y415196D01*
X579305Y414633D01*
X579000Y413898D01*
Y413102D01*
X579305Y412367D01*
X579595Y412077D01*
X579828Y411750D01*
X579595Y411423D01*
X579305Y411133D01*
X579000Y410398D01*
Y409602D01*
X579305Y408867D01*
X579595Y408577D01*
X579828Y408250D01*
X579595Y407923D01*
X579305Y407633D01*
X579000Y406898D01*
Y406102D01*
X579305Y405367D01*
X579595Y405077D01*
X579828Y404750D01*
X579595Y404423D01*
X579305Y404133D01*
X579000Y403398D01*
Y402602D01*
X579305Y401867D01*
X579867Y401304D01*
X580602Y401000D01*
X581398D01*
X582133Y401304D01*
X582695Y401867D01*
X583000Y402602D01*
Y403398D01*
X582695Y404133D01*
X582405Y404423D01*
X582172Y404750D01*
X582405Y405077D01*
X582695Y405367D01*
X583000Y406102D01*
Y406898D01*
X582695Y407633D01*
X582405Y407923D01*
X582172Y408250D01*
X582405Y408577D01*
X582695Y408867D01*
X583000Y409602D01*
Y410398D01*
X582695Y411133D01*
X582405Y411423D01*
X582172Y411750D01*
X582405Y412077D01*
X582695Y412367D01*
X583000Y413102D01*
Y413898D01*
X582695Y414633D01*
X582133Y415196D01*
X581398Y415500D01*
D02*
G37*
G36*
X495898D02*
X495102D01*
X494367Y415196D01*
X493805Y414633D01*
X493500Y413898D01*
Y413102D01*
X493805Y412367D01*
X494095Y412077D01*
X494328Y411750D01*
X494095Y411423D01*
X493805Y411133D01*
X493500Y410398D01*
Y409602D01*
X493805Y408867D01*
X494095Y408577D01*
X494328Y408250D01*
X494095Y407923D01*
X493805Y407633D01*
X493500Y406898D01*
Y406102D01*
X493805Y405367D01*
X494095Y405077D01*
X494328Y404750D01*
X494095Y404423D01*
X493805Y404133D01*
X493500Y403398D01*
Y402602D01*
X493805Y401867D01*
X494367Y401304D01*
X495102Y401000D01*
X495898D01*
X496633Y401304D01*
X497195Y401867D01*
X497500Y402602D01*
Y403398D01*
X497195Y404133D01*
X496905Y404423D01*
X496672Y404750D01*
X496905Y405077D01*
X497195Y405367D01*
X497500Y406102D01*
Y406898D01*
X497195Y407633D01*
X496905Y407923D01*
X496672Y408250D01*
X496905Y408577D01*
X497195Y408867D01*
X497500Y409602D01*
Y410398D01*
X497195Y411133D01*
X496905Y411423D01*
X496672Y411750D01*
X496905Y412077D01*
X497195Y412367D01*
X497500Y413102D01*
Y413898D01*
X497195Y414633D01*
X496633Y415196D01*
X495898Y415500D01*
D02*
G37*
G36*
X452898Y416000D02*
X452102D01*
X451367Y415695D01*
X450805Y415133D01*
X450500Y414398D01*
Y413602D01*
X450805Y412867D01*
X451367Y412304D01*
X451499Y412250D01*
Y411750D01*
X451367Y411695D01*
X450805Y411133D01*
X450500Y410398D01*
Y409602D01*
X450805Y408867D01*
X451095Y408577D01*
X451328Y408250D01*
X451095Y407923D01*
X450805Y407633D01*
X450500Y406898D01*
Y406102D01*
X450805Y405367D01*
X451095Y405077D01*
X451328Y404750D01*
X451095Y404423D01*
X450805Y404133D01*
X450500Y403398D01*
Y402602D01*
X450805Y401867D01*
X451367Y401304D01*
X452102Y401000D01*
X452898D01*
X453633Y401304D01*
X454195Y401867D01*
X454500Y402602D01*
Y403398D01*
X454195Y404133D01*
X453905Y404423D01*
X453672Y404750D01*
X453905Y405077D01*
X454195Y405367D01*
X454500Y406102D01*
Y406898D01*
X454195Y407633D01*
X453905Y407923D01*
X453672Y408250D01*
X453905Y408577D01*
X454195Y408867D01*
X454500Y409602D01*
Y410398D01*
X454195Y411133D01*
X453633Y411695D01*
X453501Y411750D01*
Y412250D01*
X453633Y412304D01*
X454195Y412867D01*
X454500Y413602D01*
Y414398D01*
X454195Y415133D01*
X453633Y415695D01*
X452898Y416000D01*
D02*
G37*
G36*
X430398Y415000D02*
X429602D01*
X428867Y414696D01*
X428304Y414133D01*
X428000Y413398D01*
Y412602D01*
X428304Y411867D01*
X428595Y411577D01*
X428828Y411250D01*
X428595Y410923D01*
X428304Y410633D01*
X428000Y409898D01*
Y409102D01*
X428304Y408367D01*
X428595Y408077D01*
X428828Y407750D01*
X428595Y407423D01*
X428304Y407133D01*
X428000Y406398D01*
Y405602D01*
X428304Y404867D01*
X428595Y404577D01*
X428828Y404250D01*
X428595Y403923D01*
X428304Y403633D01*
X428000Y402898D01*
Y402102D01*
X428304Y401367D01*
X428867Y400805D01*
X429602Y400500D01*
X430398D01*
X431133Y400805D01*
X431696Y401367D01*
X432000Y402102D01*
Y402898D01*
X431696Y403633D01*
X431405Y403923D01*
X431172Y404250D01*
X431405Y404577D01*
X431696Y404867D01*
X432000Y405602D01*
Y406398D01*
X431696Y407133D01*
X431405Y407423D01*
X431172Y407750D01*
X431405Y408077D01*
X431696Y408367D01*
X432000Y409102D01*
Y409898D01*
X431696Y410633D01*
X431405Y410923D01*
X431172Y411250D01*
X431405Y411577D01*
X431696Y411867D01*
X432000Y412602D01*
Y413398D01*
X431696Y414133D01*
X431133Y414696D01*
X430398Y415000D01*
D02*
G37*
G36*
X397818Y401961D02*
X396907D01*
X396026Y401725D01*
X395237Y401269D01*
X394593Y400625D01*
X394137Y399836D01*
X393902Y398956D01*
Y398044D01*
X394137Y397164D01*
X394593Y396375D01*
X395237Y395731D01*
X396026Y395275D01*
X396907Y395039D01*
X397818D01*
X398698Y395275D01*
X399487Y395731D01*
X400131Y396375D01*
X400587Y397164D01*
X400823Y398044D01*
Y398956D01*
X400587Y399836D01*
X400131Y400625D01*
X399487Y401269D01*
X398698Y401725D01*
X397818Y401961D01*
D02*
G37*
G36*
X586898Y400500D02*
X586102D01*
X585367Y400196D01*
X584804Y399633D01*
X584500Y398898D01*
Y398102D01*
X584804Y397367D01*
X585367Y396804D01*
X585499Y396750D01*
Y396250D01*
X585367Y396196D01*
X584804Y395633D01*
X584500Y394898D01*
Y394102D01*
X584804Y393367D01*
X585367Y392805D01*
X585499Y392750D01*
Y392250D01*
X585367Y392196D01*
X584804Y391633D01*
X584500Y390898D01*
Y390102D01*
X584804Y389367D01*
X585367Y388805D01*
X586102Y388500D01*
X586898D01*
X587633Y388805D01*
X588196Y389367D01*
X588500Y390102D01*
Y390898D01*
X588196Y391633D01*
X587633Y392196D01*
X587501Y392250D01*
Y392750D01*
X587633Y392805D01*
X588196Y393367D01*
X588500Y394102D01*
Y394898D01*
X588196Y395633D01*
X587633Y396196D01*
X587501Y396250D01*
Y396750D01*
X587633Y396804D01*
X588196Y397367D01*
X588500Y398102D01*
Y398898D01*
X588196Y399633D01*
X587633Y400196D01*
X586898Y400500D01*
D02*
G37*
G36*
X597398Y400000D02*
X596602D01*
X595867Y399695D01*
X595304Y399133D01*
X595000Y398398D01*
Y397602D01*
X595304Y396867D01*
X595867Y396304D01*
X595999Y396250D01*
Y395750D01*
X595867Y395695D01*
X595304Y395133D01*
X595000Y394398D01*
Y393602D01*
X595304Y392867D01*
X595867Y392304D01*
X595999Y392250D01*
Y391750D01*
X595867Y391695D01*
X595304Y391133D01*
X595000Y390398D01*
Y389602D01*
X595304Y388867D01*
X595867Y388304D01*
X596602Y388000D01*
X597398D01*
X598133Y388304D01*
X598696Y388867D01*
X599000Y389602D01*
Y390398D01*
X598696Y391133D01*
X598133Y391695D01*
X598001Y391750D01*
Y392250D01*
X598133Y392304D01*
X598696Y392867D01*
X599000Y393602D01*
Y394398D01*
X598696Y395133D01*
X598133Y395695D01*
X598001Y395750D01*
Y396250D01*
X598133Y396304D01*
X598696Y396867D01*
X599000Y397602D01*
Y398398D01*
X598696Y399133D01*
X598133Y399695D01*
X597398Y400000D01*
D02*
G37*
G36*
X387818Y391961D02*
X386907D01*
X386027Y391725D01*
X385237Y391269D01*
X384593Y390625D01*
X384137Y389836D01*
X383902Y388956D01*
Y388044D01*
X384137Y387164D01*
X384593Y386375D01*
X385237Y385731D01*
X386027Y385275D01*
X386907Y385039D01*
X387818D01*
X388698Y385275D01*
X389487Y385731D01*
X390131Y386375D01*
X390587Y387164D01*
X390823Y388044D01*
Y388956D01*
X390587Y389836D01*
X390131Y390625D01*
X389487Y391269D01*
X388698Y391725D01*
X387818Y391961D01*
D02*
G37*
G36*
X697898Y385500D02*
X697102D01*
X696367Y385195D01*
X696077Y384905D01*
X695750Y384672D01*
X695423Y384905D01*
X695133Y385195D01*
X694398Y385500D01*
X693602D01*
X692867Y385195D01*
X692577Y384905D01*
X692250Y384672D01*
X691923Y384905D01*
X691633Y385195D01*
X690898Y385500D01*
X690102D01*
X689367Y385195D01*
X689077Y384905D01*
X688750Y384672D01*
X688423Y384905D01*
X688133Y385195D01*
X687398Y385500D01*
X686602D01*
X685867Y385195D01*
X685304Y384633D01*
X685000Y383898D01*
Y383102D01*
X685304Y382367D01*
X685867Y381804D01*
X686602Y381500D01*
X687398D01*
X688133Y381804D01*
X688423Y382095D01*
X688750Y382328D01*
X689077Y382095D01*
X689367Y381804D01*
X690102Y381500D01*
X690898D01*
X691633Y381804D01*
X691923Y382095D01*
X692250Y382328D01*
X692577Y382095D01*
X692867Y381804D01*
X693602Y381500D01*
X694398D01*
X695133Y381804D01*
X695423Y382095D01*
X695750Y382328D01*
X696077Y382095D01*
X696367Y381804D01*
X697102Y381500D01*
X697898D01*
X698633Y381804D01*
X699195Y382367D01*
X699500Y383102D01*
Y383898D01*
X699195Y384633D01*
X698633Y385195D01*
X697898Y385500D01*
D02*
G37*
G36*
X586898Y388000D02*
X586102D01*
X585367Y387696D01*
X584804Y387133D01*
X584500Y386398D01*
Y385602D01*
X584804Y384867D01*
X585367Y384304D01*
X586102Y384000D01*
X586898D01*
X587633Y384304D01*
X588196Y384867D01*
X588500Y385602D01*
Y386398D01*
X588196Y387133D01*
X587633Y387696D01*
X586898Y388000D01*
D02*
G37*
G36*
X597398Y387500D02*
X596602D01*
X595867Y387195D01*
X595304Y386633D01*
X595000Y385898D01*
Y385102D01*
X595304Y384367D01*
X595867Y383804D01*
X596602Y383500D01*
X597398D01*
X598133Y383804D01*
X598696Y384367D01*
X599000Y385102D01*
Y385898D01*
X598696Y386633D01*
X598133Y387195D01*
X597398Y387500D01*
D02*
G37*
G36*
X220259Y415000D02*
X217741D01*
X215253Y414606D01*
X212858Y413828D01*
X210614Y412684D01*
X208577Y411204D01*
X206796Y409423D01*
X205316Y407386D01*
X204172Y405142D01*
X203394Y402747D01*
X203000Y400259D01*
Y397741D01*
X203394Y395253D01*
X204172Y392858D01*
X205316Y390614D01*
X206796Y388577D01*
X208577Y386796D01*
X210614Y385316D01*
X212858Y384172D01*
X215253Y383394D01*
X217741Y383000D01*
X220259D01*
X222747Y383394D01*
X225142Y384172D01*
X227386Y385316D01*
X229423Y386796D01*
X231204Y388577D01*
X232684Y390614D01*
X233828Y392858D01*
X234606Y395253D01*
X235000Y397741D01*
Y400259D01*
X234606Y402747D01*
X233828Y405142D01*
X232684Y407386D01*
X231204Y409423D01*
X229423Y411204D01*
X227386Y412684D01*
X225142Y413828D01*
X222747Y414606D01*
X220259Y415000D01*
D02*
G37*
G36*
X677898Y379500D02*
X677102D01*
X676367Y379195D01*
X675805Y378633D01*
X675750Y378501D01*
X675250D01*
X675196Y378633D01*
X674633Y379195D01*
X673898Y379500D01*
X673102D01*
X672367Y379195D01*
X671805Y378633D01*
X671750Y378501D01*
X671250D01*
X671196Y378633D01*
X670633Y379195D01*
X669898Y379500D01*
X669102D01*
X668367Y379195D01*
X667804Y378633D01*
X667500Y377898D01*
Y377102D01*
X667804Y376367D01*
X668367Y375804D01*
X669102Y375500D01*
X669898D01*
X670633Y375804D01*
X671196Y376367D01*
X671250Y376499D01*
X671750D01*
X671805Y376367D01*
X672367Y375804D01*
X673102Y375500D01*
X673898D01*
X674633Y375804D01*
X675196Y376367D01*
X675250Y376499D01*
X675750D01*
X675805Y376367D01*
X676367Y375804D01*
X677102Y375500D01*
X677898D01*
X678633Y375804D01*
X679195Y376367D01*
X679500Y377102D01*
Y377898D01*
X679195Y378633D01*
X678633Y379195D01*
X677898Y379500D01*
D02*
G37*
G36*
X400823Y381961D02*
X393902D01*
Y375039D01*
X400823D01*
Y381961D01*
D02*
G37*
G36*
X482398Y378500D02*
X481602D01*
X480867Y378196D01*
X480304Y377633D01*
X480000Y376898D01*
Y376102D01*
X480304Y375367D01*
X480867Y374804D01*
X481602Y374500D01*
X482398D01*
X483133Y374804D01*
X483696Y375367D01*
X484000Y376102D01*
Y376898D01*
X483696Y377633D01*
X483133Y378196D01*
X482398Y378500D01*
D02*
G37*
G36*
X356526Y381142D02*
X355474D01*
X354459Y380870D01*
X353549Y380344D01*
X352805Y379601D01*
X352280Y378690D01*
X352008Y377675D01*
Y376624D01*
X352280Y375609D01*
X352805Y374698D01*
X353549Y373955D01*
X354459Y373429D01*
X355474Y373157D01*
X356526D01*
X357541Y373429D01*
X358451Y373955D01*
X359194Y374698D01*
X359720Y375609D01*
X359992Y376624D01*
Y377675D01*
X359720Y378690D01*
X359194Y379601D01*
X358451Y380344D01*
X357541Y380870D01*
X356526Y381142D01*
D02*
G37*
G36*
X346526D02*
X345474D01*
X344459Y380870D01*
X343549Y380344D01*
X342806Y379601D01*
X342280Y378690D01*
X342008Y377675D01*
Y376624D01*
X342280Y375609D01*
X342806Y374698D01*
X343549Y373955D01*
X344459Y373429D01*
X345474Y373157D01*
X346526D01*
X347541Y373429D01*
X348451Y373955D01*
X349195Y374698D01*
X349720Y375609D01*
X349992Y376624D01*
Y377675D01*
X349720Y378690D01*
X349195Y379601D01*
X348451Y380344D01*
X347541Y380870D01*
X346526Y381142D01*
D02*
G37*
G36*
X336526D02*
X335474D01*
X334459Y380870D01*
X333549Y380344D01*
X332805Y379601D01*
X332280Y378690D01*
X332008Y377675D01*
Y376624D01*
X332280Y375609D01*
X332805Y374698D01*
X333549Y373955D01*
X334459Y373429D01*
X335474Y373157D01*
X336526D01*
X337541Y373429D01*
X338451Y373955D01*
X339194Y374698D01*
X339720Y375609D01*
X339992Y376624D01*
Y377675D01*
X339720Y378690D01*
X339194Y379601D01*
X338451Y380344D01*
X337541Y380870D01*
X336526Y381142D01*
D02*
G37*
G36*
X326526D02*
X325474D01*
X324459Y380870D01*
X323549Y380344D01*
X322806Y379601D01*
X322280Y378690D01*
X322008Y377675D01*
Y376624D01*
X322280Y375609D01*
X322806Y374698D01*
X323549Y373955D01*
X324459Y373429D01*
X325474Y373157D01*
X326526D01*
X327541Y373429D01*
X328451Y373955D01*
X329194Y374698D01*
X329720Y375609D01*
X329992Y376624D01*
Y377675D01*
X329720Y378690D01*
X329194Y379601D01*
X328451Y380344D01*
X327541Y380870D01*
X326526Y381142D01*
D02*
G37*
G36*
X316526D02*
X315474D01*
X314459Y380870D01*
X313549Y380344D01*
X312806Y379601D01*
X312280Y378690D01*
X312008Y377675D01*
Y376624D01*
X312280Y375609D01*
X312806Y374698D01*
X313549Y373955D01*
X314459Y373429D01*
X315474Y373157D01*
X316526D01*
X317541Y373429D01*
X318451Y373955D01*
X319195Y374698D01*
X319720Y375609D01*
X319992Y376624D01*
Y377675D01*
X319720Y378690D01*
X319195Y379601D01*
X318451Y380344D01*
X317541Y380870D01*
X316526Y381142D01*
D02*
G37*
G36*
X306526D02*
X305474D01*
X304459Y380870D01*
X303549Y380344D01*
X302805Y379601D01*
X302280Y378690D01*
X302008Y377675D01*
Y376624D01*
X302280Y375609D01*
X302805Y374698D01*
X303549Y373955D01*
X304459Y373429D01*
X305474Y373157D01*
X306526D01*
X307541Y373429D01*
X308451Y373955D01*
X309194Y374698D01*
X309720Y375609D01*
X309992Y376624D01*
Y377675D01*
X309720Y378690D01*
X309194Y379601D01*
X308451Y380344D01*
X307541Y380870D01*
X306526Y381142D01*
D02*
G37*
G36*
X296526D02*
X295474D01*
X294459Y380870D01*
X293549Y380344D01*
X292806Y379601D01*
X292280Y378690D01*
X292008Y377675D01*
Y376624D01*
X292280Y375609D01*
X292806Y374698D01*
X293549Y373955D01*
X294459Y373429D01*
X295474Y373157D01*
X296526D01*
X297541Y373429D01*
X298451Y373955D01*
X299195Y374698D01*
X299720Y375609D01*
X299992Y376624D01*
Y377675D01*
X299720Y378690D01*
X299195Y379601D01*
X298451Y380344D01*
X297541Y380870D01*
X296526Y381142D01*
D02*
G37*
G36*
X286526D02*
X285474D01*
X284459Y380870D01*
X283549Y380344D01*
X282805Y379601D01*
X282280Y378690D01*
X282008Y377675D01*
Y376624D01*
X282280Y375609D01*
X282805Y374698D01*
X283549Y373955D01*
X284459Y373429D01*
X285474Y373157D01*
X286526D01*
X287541Y373429D01*
X288451Y373955D01*
X289194Y374698D01*
X289720Y375609D01*
X289992Y376624D01*
Y377675D01*
X289720Y378690D01*
X289194Y379601D01*
X288451Y380344D01*
X287541Y380870D01*
X286526Y381142D01*
D02*
G37*
G36*
X276526D02*
X275474D01*
X274459Y380870D01*
X273549Y380344D01*
X272806Y379601D01*
X272280Y378690D01*
X272008Y377675D01*
Y376624D01*
X272280Y375609D01*
X272806Y374698D01*
X273549Y373955D01*
X274459Y373429D01*
X275474Y373157D01*
X276526D01*
X277541Y373429D01*
X278451Y373955D01*
X279194Y374698D01*
X279720Y375609D01*
X279992Y376624D01*
Y377675D01*
X279720Y378690D01*
X279194Y379601D01*
X278451Y380344D01*
X277541Y380870D01*
X276526Y381142D01*
D02*
G37*
G36*
X367496Y381190D02*
X364504D01*
X363530Y380997D01*
X362704Y380445D01*
X362153Y379620D01*
X361959Y378645D01*
Y375653D01*
X362153Y374679D01*
X362704Y373854D01*
X363530Y373302D01*
X364504Y373109D01*
X367496D01*
X368470Y373302D01*
X369296Y373854D01*
X369847Y374679D01*
X370041Y375653D01*
Y378645D01*
X369847Y379620D01*
X369296Y380445D01*
X368470Y380997D01*
X367496Y381190D01*
D02*
G37*
G36*
X552398Y377000D02*
X551602D01*
X550867Y376695D01*
X550305Y376133D01*
X550000Y375398D01*
Y374602D01*
X550305Y373867D01*
X550867Y373305D01*
X551602Y373000D01*
X552398D01*
X553133Y373305D01*
X553695Y373867D01*
X554000Y374602D01*
Y375398D01*
X553695Y376133D01*
X553133Y376695D01*
X552398Y377000D01*
D02*
G37*
G36*
X586898Y383500D02*
X586102D01*
X585367Y383195D01*
X584804Y382633D01*
X584500Y381898D01*
Y381102D01*
X584804Y380367D01*
X585367Y379804D01*
X585499Y379750D01*
Y379250D01*
X585367Y379195D01*
X584804Y378633D01*
X584500Y377898D01*
Y377102D01*
X584804Y376367D01*
X585367Y375804D01*
X585499Y375750D01*
Y375250D01*
X585367Y375196D01*
X584804Y374633D01*
X584500Y373898D01*
Y373102D01*
X584804Y372367D01*
X585367Y371804D01*
X586102Y371500D01*
X586898D01*
X587633Y371804D01*
X588196Y372367D01*
X588500Y373102D01*
Y373898D01*
X588196Y374633D01*
X587633Y375196D01*
X587501Y375250D01*
Y375750D01*
X587633Y375804D01*
X588196Y376367D01*
X588500Y377102D01*
Y377898D01*
X588196Y378633D01*
X587633Y379195D01*
X587501Y379250D01*
Y379750D01*
X587633Y379804D01*
X588196Y380367D01*
X588500Y381102D01*
Y381898D01*
X588196Y382633D01*
X587633Y383195D01*
X586898Y383500D01*
D02*
G37*
G36*
X597398Y383000D02*
X596602D01*
X595867Y382696D01*
X595304Y382133D01*
X595000Y381398D01*
Y380602D01*
X595304Y379867D01*
X595867Y379305D01*
X595999Y379250D01*
Y378750D01*
X595867Y378696D01*
X595304Y378133D01*
X595000Y377398D01*
Y376602D01*
X595304Y375867D01*
X595867Y375305D01*
X595999Y375250D01*
Y374750D01*
X595867Y374695D01*
X595304Y374133D01*
X595000Y373398D01*
Y372602D01*
X595304Y371867D01*
X595867Y371304D01*
X596602Y371000D01*
X597398D01*
X598133Y371304D01*
X598696Y371867D01*
X599000Y372602D01*
Y373398D01*
X598696Y374133D01*
X598133Y374695D01*
X598001Y374750D01*
Y375250D01*
X598133Y375305D01*
X598696Y375867D01*
X599000Y376602D01*
Y377398D01*
X598696Y378133D01*
X598133Y378696D01*
X598001Y378750D01*
Y379250D01*
X598133Y379305D01*
X598696Y379867D01*
X599000Y380602D01*
Y381398D01*
X598696Y382133D01*
X598133Y382696D01*
X597398Y383000D01*
D02*
G37*
G36*
X677898Y370000D02*
X677102D01*
X676367Y369695D01*
X675805Y369133D01*
X675750Y369001D01*
X675250D01*
X675196Y369133D01*
X674633Y369695D01*
X673898Y370000D01*
X673102D01*
X672367Y369695D01*
X671805Y369133D01*
X671750Y369001D01*
X671250D01*
X671196Y369133D01*
X670633Y369695D01*
X669898Y370000D01*
X669102D01*
X668367Y369695D01*
X667804Y369133D01*
X667500Y368398D01*
Y367602D01*
X667804Y366867D01*
X668367Y366304D01*
X669102Y366000D01*
X669898D01*
X670633Y366304D01*
X671196Y366867D01*
X671250Y366999D01*
X671750D01*
X671805Y366867D01*
X672367Y366304D01*
X673102Y366000D01*
X673898D01*
X674633Y366304D01*
X675196Y366867D01*
X675250Y366999D01*
X675750D01*
X675805Y366867D01*
X676367Y366304D01*
X677102Y366000D01*
X677898D01*
X678633Y366304D01*
X679195Y366867D01*
X679500Y367602D01*
Y368398D01*
X679195Y369133D01*
X678633Y369695D01*
X677898Y370000D01*
D02*
G37*
G36*
X586898Y371000D02*
X586102D01*
X585367Y370695D01*
X584804Y370133D01*
X584500Y369398D01*
Y368602D01*
X584804Y367867D01*
X585367Y367304D01*
X586102Y367000D01*
X586898D01*
X587633Y367304D01*
X588196Y367867D01*
X588500Y368602D01*
Y369398D01*
X588196Y370133D01*
X587633Y370695D01*
X586898Y371000D01*
D02*
G37*
G36*
X597398Y370500D02*
X596602D01*
X595867Y370196D01*
X595304Y369633D01*
X595000Y368898D01*
Y368102D01*
X595304Y367367D01*
X595867Y366805D01*
X596602Y366500D01*
X597398D01*
X598133Y366805D01*
X598696Y367367D01*
X599000Y368102D01*
Y368898D01*
X598696Y369633D01*
X598133Y370196D01*
X597398Y370500D01*
D02*
G37*
G36*
X514398Y370000D02*
X513602D01*
X512867Y369695D01*
X512304Y369133D01*
X512000Y368398D01*
Y367602D01*
X512304Y366867D01*
X512867Y366304D01*
X513602Y366000D01*
X514398D01*
X515133Y366304D01*
X515695Y366867D01*
X516000Y367602D01*
Y368398D01*
X515695Y369133D01*
X515133Y369695D01*
X514398Y370000D01*
D02*
G37*
G36*
X542898Y367500D02*
X542102D01*
X541367Y367196D01*
X540804Y366633D01*
X540500Y365898D01*
Y365102D01*
X540804Y364367D01*
X541367Y363805D01*
X542102Y363500D01*
X542898D01*
X543633Y363805D01*
X544196Y364367D01*
X544500Y365102D01*
Y365898D01*
X544196Y366633D01*
X543633Y367196D01*
X542898Y367500D01*
D02*
G37*
G36*
X697398Y363000D02*
X696602D01*
X695867Y362696D01*
X695577Y362405D01*
X695250Y362172D01*
X694923Y362405D01*
X694633Y362696D01*
X693898Y363000D01*
X693102D01*
X692367Y362696D01*
X692077Y362405D01*
X691750Y362172D01*
X691423Y362405D01*
X691133Y362696D01*
X690398Y363000D01*
X689602D01*
X688867Y362696D01*
X688577Y362405D01*
X688250Y362172D01*
X687923Y362405D01*
X687633Y362696D01*
X686898Y363000D01*
X686102D01*
X685367Y362696D01*
X684804Y362133D01*
X684500Y361398D01*
Y360602D01*
X684804Y359867D01*
X685367Y359304D01*
X686102Y359000D01*
X686898D01*
X687633Y359304D01*
X687923Y359595D01*
X688250Y359828D01*
X688577Y359595D01*
X688867Y359304D01*
X689602Y359000D01*
X690398D01*
X691133Y359304D01*
X691423Y359595D01*
X691750Y359828D01*
X692077Y359595D01*
X692367Y359304D01*
X693102Y359000D01*
X693898D01*
X694633Y359304D01*
X694923Y359595D01*
X695250Y359828D01*
X695577Y359595D01*
X695867Y359304D01*
X696602Y359000D01*
X697398D01*
X698133Y359304D01*
X698696Y359867D01*
X699000Y360602D01*
Y361398D01*
X698696Y362133D01*
X698133Y362696D01*
X697398Y363000D01*
D02*
G37*
G36*
X586898Y366000D02*
X586102D01*
X585367Y365696D01*
X584804Y365133D01*
X584500Y364398D01*
Y363602D01*
X584804Y362867D01*
X585367Y362304D01*
X585499Y362250D01*
Y361750D01*
X585367Y361696D01*
X584804Y361133D01*
X584500Y360398D01*
Y359602D01*
X584804Y358867D01*
X585367Y358305D01*
X585499Y358250D01*
Y357750D01*
X585367Y357696D01*
X584804Y357133D01*
X584500Y356398D01*
Y355602D01*
X584804Y354867D01*
X585367Y354305D01*
X586102Y354000D01*
X586898D01*
X587633Y354305D01*
X588196Y354867D01*
X588500Y355602D01*
Y356398D01*
X588196Y357133D01*
X587633Y357696D01*
X587501Y357750D01*
Y358250D01*
X587633Y358305D01*
X588196Y358867D01*
X588500Y359602D01*
Y360398D01*
X588196Y361133D01*
X587633Y361696D01*
X587501Y361750D01*
Y362250D01*
X587633Y362304D01*
X588196Y362867D01*
X588500Y363602D01*
Y364398D01*
X588196Y365133D01*
X587633Y365696D01*
X586898Y366000D01*
D02*
G37*
G36*
X597398Y365500D02*
X596602D01*
X595867Y365195D01*
X595304Y364633D01*
X595000Y363898D01*
Y363102D01*
X595304Y362367D01*
X595867Y361805D01*
X595999Y361750D01*
Y361250D01*
X595867Y361195D01*
X595304Y360633D01*
X595000Y359898D01*
Y359102D01*
X595304Y358367D01*
X595867Y357804D01*
X595999Y357750D01*
Y357250D01*
X595867Y357195D01*
X595304Y356633D01*
X595000Y355898D01*
Y355102D01*
X595304Y354367D01*
X595867Y353804D01*
X596602Y353500D01*
X597398D01*
X598133Y353804D01*
X598696Y354367D01*
X599000Y355102D01*
Y355898D01*
X598696Y356633D01*
X598133Y357195D01*
X598001Y357250D01*
Y357750D01*
X598133Y357804D01*
X598696Y358367D01*
X599000Y359102D01*
Y359898D01*
X598696Y360633D01*
X598133Y361195D01*
X598001Y361250D01*
Y361750D01*
X598133Y361805D01*
X598696Y362367D01*
X599000Y363102D01*
Y363898D01*
X598696Y364633D01*
X598133Y365195D01*
X597398Y365500D01*
D02*
G37*
G36*
X446398Y362000D02*
X445602D01*
X444867Y361696D01*
X444305Y361133D01*
X444000Y360398D01*
Y359602D01*
X444305Y358867D01*
X444867Y358305D01*
X444999Y358250D01*
Y357750D01*
X444867Y357696D01*
X444305Y357133D01*
X444000Y356398D01*
Y355602D01*
X444305Y354867D01*
X444867Y354305D01*
X444999Y354250D01*
Y353750D01*
X444867Y353696D01*
X444305Y353133D01*
X444000Y352398D01*
Y351602D01*
X444305Y350867D01*
X444867Y350305D01*
X445602Y350000D01*
X446398D01*
X447133Y350305D01*
X447695Y350867D01*
X448000Y351602D01*
Y352398D01*
X447695Y353133D01*
X447133Y353696D01*
X447001Y353750D01*
Y354250D01*
X447133Y354305D01*
X447695Y354867D01*
X448000Y355602D01*
Y356398D01*
X447695Y357133D01*
X447133Y357696D01*
X447001Y357750D01*
Y358250D01*
X447133Y358305D01*
X447695Y358867D01*
X448000Y359602D01*
Y360398D01*
X447695Y361133D01*
X447133Y361696D01*
X446398Y362000D01*
D02*
G37*
G36*
X436898D02*
X436102D01*
X435367Y361696D01*
X434804Y361133D01*
X434500Y360398D01*
Y359602D01*
X434804Y358867D01*
X435367Y358305D01*
X435499Y358250D01*
Y357750D01*
X435367Y357696D01*
X434804Y357133D01*
X434500Y356398D01*
Y355602D01*
X434804Y354867D01*
X435367Y354305D01*
X435499Y354250D01*
Y353750D01*
X435367Y353696D01*
X434804Y353133D01*
X434500Y352398D01*
Y351602D01*
X434804Y350867D01*
X435367Y350305D01*
X436102Y350000D01*
X436898D01*
X437633Y350305D01*
X438196Y350867D01*
X438500Y351602D01*
Y352398D01*
X438196Y353133D01*
X437633Y353696D01*
X437501Y353750D01*
Y354250D01*
X437633Y354305D01*
X438196Y354867D01*
X438500Y355602D01*
Y356398D01*
X438196Y357133D01*
X437633Y357696D01*
X437501Y357750D01*
Y358250D01*
X437633Y358305D01*
X438196Y358867D01*
X438500Y359602D01*
Y360398D01*
X438196Y361133D01*
X437633Y361696D01*
X436898Y362000D01*
D02*
G37*
G36*
X586898Y353500D02*
X586102D01*
X585367Y353196D01*
X584804Y352633D01*
X584500Y351898D01*
Y351102D01*
X584804Y350367D01*
X585367Y349804D01*
X586102Y349500D01*
X586898D01*
X587633Y349804D01*
X588196Y350367D01*
X588500Y351102D01*
Y351898D01*
X588196Y352633D01*
X587633Y353196D01*
X586898Y353500D01*
D02*
G37*
G36*
X597398Y353000D02*
X596602D01*
X595867Y352695D01*
X595304Y352133D01*
X595000Y351398D01*
Y350602D01*
X595304Y349867D01*
X595867Y349305D01*
X596602Y349000D01*
X597398D01*
X598133Y349305D01*
X598696Y349867D01*
X599000Y350602D01*
Y351398D01*
X598696Y352133D01*
X598133Y352695D01*
X597398Y353000D01*
D02*
G37*
G36*
X544487Y350716D02*
X543692D01*
X542957Y350412D01*
X542394Y349849D01*
X542090Y349114D01*
Y348319D01*
X542394Y347584D01*
X542957Y347021D01*
X543692Y346716D01*
X544487D01*
X545223Y347021D01*
X545785Y347584D01*
X546090Y348319D01*
Y349114D01*
X545785Y349849D01*
X545223Y350412D01*
X544487Y350716D01*
D02*
G37*
G36*
X669898Y344000D02*
X669102D01*
X668367Y343695D01*
X667804Y343133D01*
X667750Y343001D01*
X667250D01*
X667196Y343133D01*
X666633Y343695D01*
X665898Y344000D01*
X665102D01*
X664367Y343695D01*
X663804Y343133D01*
X663750Y343001D01*
X663250D01*
X663196Y343133D01*
X662633Y343695D01*
X661898Y344000D01*
X661102D01*
X660367Y343695D01*
X659804Y343133D01*
X659500Y342398D01*
Y341602D01*
X659804Y340867D01*
X660367Y340304D01*
X661102Y340000D01*
X661898D01*
X662633Y340304D01*
X663196Y340867D01*
X663250Y340999D01*
X663750D01*
X663804Y340867D01*
X664367Y340304D01*
X665102Y340000D01*
X665898D01*
X666633Y340304D01*
X667196Y340867D01*
X667250Y340999D01*
X667750D01*
X667804Y340867D01*
X668367Y340304D01*
X669102Y340000D01*
X669898D01*
X670633Y340304D01*
X671196Y340867D01*
X671500Y341602D01*
Y342398D01*
X671196Y343133D01*
X670633Y343695D01*
X669898Y344000D01*
D02*
G37*
G36*
X533898Y347000D02*
X533102D01*
X532367Y346695D01*
X531805Y346133D01*
X531500Y345398D01*
Y344602D01*
X531805Y343867D01*
X532367Y343304D01*
X533102Y343000D01*
X533898D01*
X534633Y343304D01*
X535195Y343867D01*
X535500Y344602D01*
Y345398D01*
X535195Y346133D01*
X534633Y346695D01*
X533898Y347000D01*
D02*
G37*
G36*
X649398Y352000D02*
X648602D01*
X647867Y351695D01*
X647304Y351133D01*
X647000Y350398D01*
Y349602D01*
X647304Y348867D01*
X647867Y348305D01*
X647999Y348250D01*
Y347750D01*
X647867Y347695D01*
X647304Y347133D01*
X647000Y346398D01*
Y345602D01*
X647304Y344867D01*
X647867Y344304D01*
X647999Y344250D01*
Y343750D01*
X647867Y343695D01*
X647304Y343133D01*
X647000Y342398D01*
Y341602D01*
X647304Y340867D01*
X647867Y340304D01*
X648602Y340000D01*
X649398D01*
X650133Y340304D01*
X650696Y340867D01*
X651000Y341602D01*
Y342398D01*
X650696Y343133D01*
X650133Y343695D01*
X650001Y343750D01*
Y344250D01*
X650133Y344304D01*
X650696Y344867D01*
X651000Y345602D01*
Y346398D01*
X650696Y347133D01*
X650133Y347695D01*
X650001Y347750D01*
Y348250D01*
X650133Y348305D01*
X650696Y348867D01*
X651000Y349602D01*
Y350398D01*
X650696Y351133D01*
X650133Y351695D01*
X649398Y352000D01*
D02*
G37*
G36*
X637398D02*
X636602D01*
X635867Y351695D01*
X635304Y351133D01*
X635000Y350398D01*
Y349602D01*
X635304Y348867D01*
X635867Y348305D01*
X635999Y348250D01*
Y347750D01*
X635867Y347695D01*
X635304Y347133D01*
X635000Y346398D01*
Y345602D01*
X635304Y344867D01*
X635867Y344304D01*
X635999Y344250D01*
Y343750D01*
X635867Y343695D01*
X635304Y343133D01*
X635000Y342398D01*
Y341602D01*
X635304Y340867D01*
X635867Y340304D01*
X636602Y340000D01*
X637398D01*
X638133Y340304D01*
X638695Y340867D01*
X639000Y341602D01*
Y342398D01*
X638695Y343133D01*
X638133Y343695D01*
X638001Y343750D01*
Y344250D01*
X638133Y344304D01*
X638695Y344867D01*
X639000Y345602D01*
Y346398D01*
X638695Y347133D01*
X638133Y347695D01*
X638001Y347750D01*
Y348250D01*
X638133Y348305D01*
X638695Y348867D01*
X639000Y349602D01*
Y350398D01*
X638695Y351133D01*
X638133Y351695D01*
X637398Y352000D01*
D02*
G37*
G36*
X370398Y344000D02*
X369602D01*
X368867Y343695D01*
X368304Y343133D01*
X368000Y342398D01*
Y341602D01*
X368304Y340867D01*
X368867Y340304D01*
X369602Y340000D01*
X370398D01*
X371133Y340304D01*
X371695Y340867D01*
X372000Y341602D01*
Y342398D01*
X371695Y343133D01*
X371133Y343695D01*
X370398Y344000D01*
D02*
G37*
G36*
X488898Y351500D02*
X488102D01*
X487367Y351196D01*
X486804Y350633D01*
X486500Y349898D01*
Y349102D01*
X486804Y348367D01*
X487367Y347804D01*
X487499Y347750D01*
Y347250D01*
X487367Y347196D01*
X486804Y346633D01*
X486500Y345898D01*
Y345102D01*
X486804Y344367D01*
X487367Y343805D01*
X487499Y343750D01*
Y343250D01*
X487367Y343196D01*
X486804Y342633D01*
X486500Y341898D01*
Y341102D01*
X486804Y340367D01*
X487367Y339805D01*
X488102Y339500D01*
X488898D01*
X489633Y339805D01*
X490196Y340367D01*
X490500Y341102D01*
Y341898D01*
X490196Y342633D01*
X489633Y343196D01*
X489501Y343250D01*
Y343750D01*
X489633Y343805D01*
X490196Y344367D01*
X490500Y345102D01*
Y345898D01*
X490196Y346633D01*
X489633Y347196D01*
X489501Y347250D01*
Y347750D01*
X489633Y347804D01*
X490196Y348367D01*
X490500Y349102D01*
Y349898D01*
X490196Y350633D01*
X489633Y351196D01*
X488898Y351500D01*
D02*
G37*
G36*
X475898D02*
X475102D01*
X474367Y351196D01*
X473805Y350633D01*
X473500Y349898D01*
Y349102D01*
X473805Y348367D01*
X474367Y347804D01*
X474499Y347750D01*
Y347250D01*
X474367Y347196D01*
X473805Y346633D01*
X473500Y345898D01*
Y345102D01*
X473805Y344367D01*
X474367Y343805D01*
X474499Y343750D01*
Y343250D01*
X474367Y343196D01*
X473805Y342633D01*
X473500Y341898D01*
Y341102D01*
X473805Y340367D01*
X474367Y339805D01*
X475102Y339500D01*
X475898D01*
X476633Y339805D01*
X477196Y340367D01*
X477500Y341102D01*
Y341898D01*
X477196Y342633D01*
X476633Y343196D01*
X476501Y343250D01*
Y343750D01*
X476633Y343805D01*
X477196Y344367D01*
X477500Y345102D01*
Y345898D01*
X477196Y346633D01*
X476633Y347196D01*
X476501Y347250D01*
Y347750D01*
X476633Y347804D01*
X477196Y348367D01*
X477500Y349102D01*
Y349898D01*
X477196Y350633D01*
X476633Y351196D01*
X475898Y351500D01*
D02*
G37*
G36*
X586898Y348000D02*
X586102D01*
X585367Y347695D01*
X584804Y347133D01*
X584500Y346398D01*
Y345602D01*
X584804Y344867D01*
X585367Y344304D01*
X585499Y344250D01*
Y343750D01*
X585367Y343695D01*
X584804Y343133D01*
X584500Y342398D01*
Y341602D01*
X584804Y340867D01*
X585367Y340304D01*
X585499Y340250D01*
Y339750D01*
X585367Y339696D01*
X584804Y339133D01*
X584500Y338398D01*
Y337602D01*
X584804Y336867D01*
X585367Y336304D01*
X586102Y336000D01*
X586898D01*
X587633Y336304D01*
X588196Y336867D01*
X588500Y337602D01*
Y338398D01*
X588196Y339133D01*
X587633Y339696D01*
X587501Y339750D01*
Y340250D01*
X587633Y340304D01*
X588196Y340867D01*
X588500Y341602D01*
Y342398D01*
X588196Y343133D01*
X587633Y343695D01*
X587501Y343750D01*
Y344250D01*
X587633Y344304D01*
X588196Y344867D01*
X588500Y345602D01*
Y346398D01*
X588196Y347133D01*
X587633Y347695D01*
X586898Y348000D01*
D02*
G37*
G36*
X597398Y347500D02*
X596602D01*
X595867Y347196D01*
X595304Y346633D01*
X595000Y345898D01*
Y345102D01*
X595304Y344367D01*
X595867Y343805D01*
X595999Y343750D01*
Y343250D01*
X595867Y343196D01*
X595304Y342633D01*
X595000Y341898D01*
Y341102D01*
X595304Y340367D01*
X595867Y339805D01*
X595999Y339750D01*
Y339250D01*
X595867Y339195D01*
X595304Y338633D01*
X595000Y337898D01*
Y337102D01*
X595304Y336367D01*
X595867Y335805D01*
X596602Y335500D01*
X597398D01*
X598133Y335805D01*
X598696Y336367D01*
X599000Y337102D01*
Y337898D01*
X598696Y338633D01*
X598133Y339195D01*
X598001Y339250D01*
Y339750D01*
X598133Y339805D01*
X598696Y340367D01*
X599000Y341102D01*
Y341898D01*
X598696Y342633D01*
X598133Y343196D01*
X598001Y343250D01*
Y343750D01*
X598133Y343805D01*
X598696Y344367D01*
X599000Y345102D01*
Y345898D01*
X598696Y346633D01*
X598133Y347196D01*
X597398Y347500D01*
D02*
G37*
G36*
X511898D02*
X511102D01*
X510367Y347196D01*
X509804Y346633D01*
X509500Y345898D01*
Y345102D01*
X509804Y344367D01*
X510367Y343805D01*
X510499Y343750D01*
Y343250D01*
X510367Y343196D01*
X509804Y342633D01*
X509500Y341898D01*
Y341102D01*
X509804Y340367D01*
X510367Y339805D01*
X510499Y339750D01*
Y339250D01*
X510367Y339195D01*
X509804Y338633D01*
X509500Y337898D01*
Y337102D01*
X509804Y336367D01*
X510367Y335805D01*
X511102Y335500D01*
X511898D01*
X512633Y335805D01*
X513196Y336367D01*
X513500Y337102D01*
Y337898D01*
X513196Y338633D01*
X512633Y339195D01*
X512501Y339250D01*
Y339750D01*
X512633Y339805D01*
X513196Y340367D01*
X513500Y341102D01*
Y341898D01*
X513196Y342633D01*
X512633Y343196D01*
X512501Y343250D01*
Y343750D01*
X512633Y343805D01*
X513196Y344367D01*
X513500Y345102D01*
Y345898D01*
X513196Y346633D01*
X512633Y347196D01*
X511898Y347500D01*
D02*
G37*
G36*
X502398D02*
X501602D01*
X500867Y347196D01*
X500305Y346633D01*
X500000Y345898D01*
Y345102D01*
X500305Y344367D01*
X500867Y343805D01*
X500999Y343750D01*
Y343250D01*
X500867Y343196D01*
X500305Y342633D01*
X500000Y341898D01*
Y341102D01*
X500305Y340367D01*
X500867Y339805D01*
X500999Y339750D01*
Y339250D01*
X500867Y339195D01*
X500305Y338633D01*
X500000Y337898D01*
Y337102D01*
X500305Y336367D01*
X500867Y335805D01*
X501602Y335500D01*
X502398D01*
X503133Y335805D01*
X503695Y336367D01*
X504000Y337102D01*
Y337898D01*
X503695Y338633D01*
X503133Y339195D01*
X503001Y339250D01*
Y339750D01*
X503133Y339805D01*
X503695Y340367D01*
X504000Y341102D01*
Y341898D01*
X503695Y342633D01*
X503133Y343196D01*
X503001Y343250D01*
Y343750D01*
X503133Y343805D01*
X503695Y344367D01*
X504000Y345102D01*
Y345898D01*
X503695Y346633D01*
X503133Y347196D01*
X502398Y347500D01*
D02*
G37*
G36*
X482398Y339500D02*
X481602D01*
X480867Y339195D01*
X480304Y338633D01*
X480000Y337898D01*
Y337102D01*
X480304Y336367D01*
X480867Y335805D01*
X481602Y335500D01*
X482398D01*
X483133Y335805D01*
X483696Y336367D01*
X484000Y337102D01*
Y337898D01*
X483696Y338633D01*
X483133Y339195D01*
X482398Y339500D01*
D02*
G37*
G36*
X488898Y339000D02*
X488102D01*
X487367Y338696D01*
X486804Y338133D01*
X486500Y337398D01*
Y336602D01*
X486804Y335867D01*
X487367Y335304D01*
X488102Y335000D01*
X488898D01*
X489633Y335304D01*
X490196Y335867D01*
X490500Y336602D01*
Y337398D01*
X490196Y338133D01*
X489633Y338696D01*
X488898Y339000D01*
D02*
G37*
G36*
X475898D02*
X475102D01*
X474367Y338696D01*
X473805Y338133D01*
X473500Y337398D01*
Y336602D01*
X473805Y335867D01*
X474367Y335304D01*
X475102Y335000D01*
X475898D01*
X476633Y335304D01*
X477196Y335867D01*
X477500Y336602D01*
Y337398D01*
X477196Y338133D01*
X476633Y338696D01*
X475898Y339000D01*
D02*
G37*
G36*
X373398Y337500D02*
X372602D01*
X371867Y337195D01*
X371304Y336633D01*
X371000Y335898D01*
Y335102D01*
X371304Y334367D01*
X371867Y333804D01*
X372602Y333500D01*
X373398D01*
X374133Y333804D01*
X374695Y334367D01*
X375000Y335102D01*
Y335898D01*
X374695Y336633D01*
X374133Y337195D01*
X373398Y337500D01*
D02*
G37*
G36*
X558898Y334000D02*
X558102D01*
X557367Y333696D01*
X556805Y333133D01*
X556750Y333001D01*
X556250D01*
X556195Y333133D01*
X555633Y333696D01*
X554898Y334000D01*
X554102D01*
X553367Y333696D01*
X552805Y333133D01*
X552750Y333001D01*
X552250D01*
X552196Y333133D01*
X551633Y333696D01*
X550898Y334000D01*
X550102D01*
X549367Y333696D01*
X548805Y333133D01*
X548500Y332398D01*
Y331602D01*
X548805Y330867D01*
X549367Y330305D01*
X550102Y330000D01*
X550898D01*
X551633Y330305D01*
X552196Y330867D01*
X552250Y330999D01*
X552750D01*
X552805Y330867D01*
X553367Y330305D01*
X554102Y330000D01*
X554898D01*
X555633Y330305D01*
X556195Y330867D01*
X556250Y330999D01*
X556750D01*
X556805Y330867D01*
X557367Y330305D01*
X558102Y330000D01*
X558898D01*
X559633Y330305D01*
X560195Y330867D01*
X560500Y331602D01*
Y332398D01*
X560195Y333133D01*
X559633Y333696D01*
X558898Y334000D01*
D02*
G37*
G36*
X586898Y335500D02*
X586102D01*
X585367Y335195D01*
X584804Y334633D01*
X584500Y333898D01*
Y333102D01*
X584804Y332367D01*
X585367Y331804D01*
X586102Y331500D01*
X586898D01*
X587633Y331804D01*
X588196Y332367D01*
X588500Y333102D01*
Y333898D01*
X588196Y334633D01*
X587633Y335195D01*
X586898Y335500D01*
D02*
G37*
G36*
X597398Y335000D02*
X596602D01*
X595867Y334696D01*
X595304Y334133D01*
X595000Y333398D01*
Y332602D01*
X595304Y331867D01*
X595867Y331305D01*
X596602Y331000D01*
X597398D01*
X598133Y331305D01*
X598696Y331867D01*
X599000Y332602D01*
Y333398D01*
X598696Y334133D01*
X598133Y334696D01*
X597398Y335000D01*
D02*
G37*
G36*
X576398Y346500D02*
X575602D01*
X574867Y346196D01*
X574304Y345633D01*
X574000Y344898D01*
Y344102D01*
X574304Y343367D01*
X574867Y342805D01*
X574999Y342750D01*
Y342250D01*
X574867Y342196D01*
X574304Y341633D01*
X574000Y340898D01*
Y340102D01*
X574304Y339367D01*
X574867Y338805D01*
X574999Y338750D01*
Y338250D01*
X574867Y338195D01*
X574304Y337633D01*
X574000Y336898D01*
Y336102D01*
X574304Y335367D01*
X574595Y335077D01*
X574828Y334750D01*
X574595Y334423D01*
X574304Y334133D01*
X574000Y333398D01*
Y332602D01*
X574304Y331867D01*
X574867Y331305D01*
X575602Y331000D01*
X576398D01*
X577133Y331305D01*
X577696Y331867D01*
X578000Y332602D01*
Y333398D01*
X577696Y334133D01*
X577405Y334423D01*
X577172Y334750D01*
X577405Y335077D01*
X577696Y335367D01*
X578000Y336102D01*
Y336898D01*
X577696Y337633D01*
X577133Y338195D01*
X577001Y338250D01*
Y338750D01*
X577133Y338805D01*
X577696Y339367D01*
X578000Y340102D01*
Y340898D01*
X577696Y341633D01*
X577133Y342196D01*
X577001Y342250D01*
Y342750D01*
X577133Y342805D01*
X577696Y343367D01*
X578000Y344102D01*
Y344898D01*
X577696Y345633D01*
X577133Y346196D01*
X576398Y346500D01*
D02*
G37*
G36*
X511898Y335000D02*
X511102D01*
X510367Y334696D01*
X509804Y334133D01*
X509500Y333398D01*
Y332602D01*
X509804Y331867D01*
X510367Y331305D01*
X511102Y331000D01*
X511898D01*
X512633Y331305D01*
X513196Y331867D01*
X513500Y332602D01*
Y333398D01*
X513196Y334133D01*
X512633Y334696D01*
X511898Y335000D01*
D02*
G37*
G36*
X502398D02*
X501602D01*
X500867Y334696D01*
X500305Y334133D01*
X500000Y333398D01*
Y332602D01*
X500305Y331867D01*
X500867Y331305D01*
X501602Y331000D01*
X502398D01*
X503133Y331305D01*
X503695Y331867D01*
X504000Y332602D01*
Y333398D01*
X503695Y334133D01*
X503133Y334696D01*
X502398Y335000D01*
D02*
G37*
G36*
X669898Y331500D02*
X669102D01*
X668367Y331195D01*
X667804Y330633D01*
X667750Y330501D01*
X667250D01*
X667196Y330633D01*
X666633Y331195D01*
X665898Y331500D01*
X665102D01*
X664367Y331195D01*
X663804Y330633D01*
X663750Y330501D01*
X663250D01*
X663196Y330633D01*
X662633Y331195D01*
X661898Y331500D01*
X661102D01*
X660367Y331195D01*
X659804Y330633D01*
X659500Y329898D01*
Y329102D01*
X659804Y328367D01*
X660367Y327804D01*
X661102Y327500D01*
X661898D01*
X662633Y327804D01*
X663196Y328367D01*
X663250Y328499D01*
X663750D01*
X663804Y328367D01*
X664367Y327804D01*
X665102Y327500D01*
X665898D01*
X666633Y327804D01*
X667196Y328367D01*
X667250Y328499D01*
X667750D01*
X667804Y328367D01*
X668367Y327804D01*
X669102Y327500D01*
X669898D01*
X670633Y327804D01*
X671196Y328367D01*
X671500Y329102D01*
Y329898D01*
X671196Y330633D01*
X670633Y331195D01*
X669898Y331500D01*
D02*
G37*
G36*
X489398Y334500D02*
X488602D01*
X487867Y334195D01*
X487304Y333633D01*
X487000Y332898D01*
Y332102D01*
X487304Y331367D01*
X487867Y330804D01*
X488602Y330500D01*
X489398D01*
X490133Y330804D01*
X490695Y331367D01*
X491000Y332102D01*
Y332898D01*
X490695Y333633D01*
X490133Y334195D01*
X489398Y334500D01*
D02*
G37*
G36*
X546398Y334000D02*
X545602D01*
X544867Y333696D01*
X544305Y333133D01*
X544000Y332398D01*
Y331602D01*
X544305Y330867D01*
X544867Y330305D01*
X545602Y330000D01*
X546398D01*
X547133Y330305D01*
X547695Y330867D01*
X548000Y331602D01*
Y332398D01*
X547695Y333133D01*
X547133Y333696D01*
X546398Y334000D01*
D02*
G37*
G36*
X475398D02*
X474602D01*
X473867Y333696D01*
X473305Y333133D01*
X473000Y332398D01*
Y331602D01*
X473305Y330867D01*
X473867Y330305D01*
X474602Y330000D01*
X475398D01*
X476133Y330305D01*
X476695Y330867D01*
X477000Y331602D01*
Y332398D01*
X476695Y333133D01*
X476133Y333696D01*
X475398Y334000D01*
D02*
G37*
G36*
Y329000D02*
X474602D01*
X473867Y328696D01*
X473305Y328133D01*
X473000Y327398D01*
Y326602D01*
X473305Y325867D01*
X473867Y325305D01*
X474602Y325000D01*
X475398D01*
X476133Y325305D01*
X476695Y325867D01*
X477000Y326602D01*
Y327398D01*
X476695Y328133D01*
X476133Y328696D01*
X475398Y329000D01*
D02*
G37*
G36*
X542898Y328500D02*
X542102D01*
X541367Y328196D01*
X540804Y327633D01*
X540500Y326898D01*
Y326102D01*
X540804Y325367D01*
X541367Y324804D01*
X542102Y324500D01*
X542898D01*
X543633Y324804D01*
X544196Y325367D01*
X544500Y326102D01*
Y326898D01*
X544196Y327633D01*
X543633Y328196D01*
X542898Y328500D01*
D02*
G37*
G36*
X408898Y328000D02*
X408102D01*
X407367Y327695D01*
X406805Y327133D01*
X406500Y326398D01*
Y325602D01*
X406805Y324867D01*
X407367Y324305D01*
X408102Y324000D01*
X408898D01*
X409633Y324305D01*
X410195Y324867D01*
X410500Y325602D01*
Y326398D01*
X410195Y327133D01*
X409633Y327695D01*
X408898Y328000D01*
D02*
G37*
G36*
X561898Y330500D02*
X561102D01*
X560367Y330195D01*
X559804Y329633D01*
X559500Y328898D01*
Y328102D01*
X559804Y327367D01*
X560367Y326804D01*
X560499Y326750D01*
Y326250D01*
X560367Y326196D01*
X559804Y325633D01*
X559500Y324898D01*
Y324102D01*
X559804Y323367D01*
X560367Y322804D01*
X561102Y322500D01*
X561898D01*
X562633Y322804D01*
X563196Y323367D01*
X563500Y324102D01*
Y324898D01*
X563196Y325633D01*
X562633Y326196D01*
X562501Y326250D01*
Y326750D01*
X562633Y326804D01*
X563196Y327367D01*
X563500Y328102D01*
Y328898D01*
X563196Y329633D01*
X562633Y330195D01*
X561898Y330500D01*
D02*
G37*
G36*
X242347Y330541D02*
X239354D01*
X238381Y330347D01*
X237555Y329796D01*
X237003Y328970D01*
X236809Y327996D01*
Y325004D01*
X237003Y324030D01*
X237555Y323204D01*
X238381Y322653D01*
X239354Y322459D01*
X242347D01*
X243320Y322653D01*
X244146Y323204D01*
X244698Y324030D01*
X244892Y325004D01*
Y327996D01*
X244698Y328970D01*
X244146Y329796D01*
X243320Y330347D01*
X242347Y330541D01*
D02*
G37*
G36*
X627898Y323000D02*
X627102D01*
X626367Y322695D01*
X625805Y322133D01*
X625750Y322001D01*
X625250D01*
X625196Y322133D01*
X624633Y322695D01*
X623898Y323000D01*
X623102D01*
X622367Y322695D01*
X621805Y322133D01*
X621750Y322001D01*
X621250D01*
X621196Y322133D01*
X620633Y322695D01*
X619898Y323000D01*
X619102D01*
X618367Y322695D01*
X617804Y322133D01*
X617500Y321398D01*
Y320602D01*
X617804Y319867D01*
X618367Y319304D01*
X619102Y319000D01*
X619898D01*
X620633Y319304D01*
X621196Y319867D01*
X621250Y319999D01*
X621750D01*
X621805Y319867D01*
X622367Y319304D01*
X623102Y319000D01*
X623898D01*
X624633Y319304D01*
X625196Y319867D01*
X625250Y319999D01*
X625750D01*
X625805Y319867D01*
X626367Y319304D01*
X627102Y319000D01*
X627898D01*
X628633Y319304D01*
X629195Y319867D01*
X629500Y320602D01*
Y321398D01*
X629195Y322133D01*
X628633Y322695D01*
X627898Y323000D01*
D02*
G37*
G36*
X610898D02*
X610102D01*
X609367Y322695D01*
X608805Y322133D01*
X608750Y322001D01*
X608250D01*
X608195Y322133D01*
X607633Y322695D01*
X606898Y323000D01*
X606102D01*
X605367Y322695D01*
X604805Y322133D01*
X604500Y321398D01*
Y320602D01*
X604805Y319867D01*
X605367Y319304D01*
X606102Y319000D01*
X606898D01*
X607633Y319304D01*
X608195Y319867D01*
X608250Y319999D01*
X608750D01*
X608805Y319867D01*
X609367Y319304D01*
X610102Y319000D01*
X610898D01*
X611633Y319304D01*
X612195Y319867D01*
X612500Y320602D01*
Y321398D01*
X612195Y322133D01*
X611633Y322695D01*
X610898Y323000D01*
D02*
G37*
G36*
X489398Y329500D02*
X488602D01*
X487867Y329195D01*
X487304Y328633D01*
X487000Y327898D01*
Y327102D01*
X487304Y326367D01*
X487867Y325804D01*
X487999Y325750D01*
Y325250D01*
X487867Y325196D01*
X487304Y324633D01*
X487000Y323898D01*
Y323102D01*
X487304Y322367D01*
X487867Y321804D01*
X488602Y321500D01*
X489398D01*
X490133Y321804D01*
X490695Y322367D01*
X491000Y323102D01*
Y323898D01*
X490695Y324633D01*
X490133Y325196D01*
X490001Y325250D01*
Y325750D01*
X490133Y325804D01*
X490695Y326367D01*
X491000Y327102D01*
Y327898D01*
X490695Y328633D01*
X490133Y329195D01*
X489398Y329500D01*
D02*
G37*
G36*
X379898Y325500D02*
X379102D01*
X378367Y325196D01*
X377804Y324633D01*
X377500Y323898D01*
Y323102D01*
X377804Y322367D01*
X378367Y321804D01*
X379102Y321500D01*
X379898D01*
X380633Y321804D01*
X381195Y322367D01*
X381500Y323102D01*
Y323898D01*
X381195Y324633D01*
X380633Y325196D01*
X379898Y325500D01*
D02*
G37*
G36*
X519898Y324500D02*
X519102D01*
X518367Y324196D01*
X517804Y323633D01*
X517500Y322898D01*
Y322102D01*
X517804Y321367D01*
X518367Y320805D01*
X519102Y320500D01*
X519898D01*
X520633Y320805D01*
X521196Y321367D01*
X521500Y322102D01*
Y322898D01*
X521196Y323633D01*
X520633Y324196D01*
X519898Y324500D01*
D02*
G37*
G36*
X615398Y323000D02*
X614602D01*
X613867Y322695D01*
X613305Y322133D01*
X613000Y321398D01*
Y320602D01*
X613305Y319867D01*
X613867Y319304D01*
X614602Y319000D01*
X615398D01*
X616133Y319304D01*
X616695Y319867D01*
X617000Y320602D01*
Y321398D01*
X616695Y322133D01*
X616133Y322695D01*
X615398Y323000D01*
D02*
G37*
G36*
X637398Y330000D02*
X636602D01*
X635867Y329696D01*
X635304Y329133D01*
X635000Y328398D01*
Y327602D01*
X635304Y326867D01*
X635867Y326305D01*
X635999Y326250D01*
Y325750D01*
X635867Y325695D01*
X635304Y325133D01*
X635000Y324398D01*
Y323602D01*
X635304Y322867D01*
X635867Y322305D01*
X635999Y322250D01*
Y321750D01*
X635867Y321695D01*
X635304Y321133D01*
X635000Y320398D01*
Y319602D01*
X635304Y318867D01*
X635867Y318304D01*
X636602Y318000D01*
X637398D01*
X638133Y318304D01*
X638695Y318867D01*
X639000Y319602D01*
Y320398D01*
X638695Y321133D01*
X638133Y321695D01*
X638001Y321750D01*
Y322250D01*
X638133Y322305D01*
X638695Y322867D01*
X639000Y323602D01*
Y324398D01*
X638695Y325133D01*
X638133Y325695D01*
X638001Y325750D01*
Y326250D01*
X638133Y326305D01*
X638695Y326867D01*
X639000Y327602D01*
Y328398D01*
X638695Y329133D01*
X638133Y329696D01*
X637398Y330000D01*
D02*
G37*
G36*
X511898D02*
X511102D01*
X510367Y329696D01*
X509804Y329133D01*
X509500Y328398D01*
Y327602D01*
X509804Y326867D01*
X510367Y326305D01*
X510499Y326250D01*
Y325750D01*
X510367Y325695D01*
X509804Y325133D01*
X509500Y324398D01*
Y323602D01*
X509804Y322867D01*
X510367Y322305D01*
X510499Y322250D01*
Y321750D01*
X510367Y321695D01*
X509804Y321133D01*
X509500Y320398D01*
Y319602D01*
X509804Y318867D01*
X510367Y318304D01*
X511102Y318000D01*
X511898D01*
X512633Y318304D01*
X513196Y318867D01*
X513500Y319602D01*
Y320398D01*
X513196Y321133D01*
X512633Y321695D01*
X512501Y321750D01*
Y322250D01*
X512633Y322305D01*
X513196Y322867D01*
X513500Y323602D01*
Y324398D01*
X513196Y325133D01*
X512633Y325695D01*
X512501Y325750D01*
Y326250D01*
X512633Y326305D01*
X513196Y326867D01*
X513500Y327602D01*
Y328398D01*
X513196Y329133D01*
X512633Y329696D01*
X511898Y330000D01*
D02*
G37*
G36*
X502398D02*
X501602D01*
X500867Y329696D01*
X500305Y329133D01*
X500000Y328398D01*
Y327602D01*
X500305Y326867D01*
X500867Y326305D01*
X500999Y326250D01*
Y325750D01*
X500867Y325695D01*
X500305Y325133D01*
X500000Y324398D01*
Y323602D01*
X500305Y322867D01*
X500867Y322305D01*
X500999Y322250D01*
Y321750D01*
X500867Y321695D01*
X500305Y321133D01*
X500000Y320398D01*
Y319602D01*
X500305Y318867D01*
X500867Y318304D01*
X501602Y318000D01*
X502398D01*
X503133Y318304D01*
X503695Y318867D01*
X504000Y319602D01*
Y320398D01*
X503695Y321133D01*
X503133Y321695D01*
X503001Y321750D01*
Y322250D01*
X503133Y322305D01*
X503695Y322867D01*
X504000Y323602D01*
Y324398D01*
X503695Y325133D01*
X503133Y325695D01*
X503001Y325750D01*
Y326250D01*
X503133Y326305D01*
X503695Y326867D01*
X504000Y327602D01*
Y328398D01*
X503695Y329133D01*
X503133Y329696D01*
X502398Y330000D01*
D02*
G37*
G36*
X597398Y329500D02*
X596602D01*
X595867Y329195D01*
X595304Y328633D01*
X595000Y327898D01*
Y327102D01*
X595304Y326367D01*
X595867Y325804D01*
X595999Y325750D01*
Y325250D01*
X595867Y325196D01*
X595304Y324633D01*
X595000Y323898D01*
Y323102D01*
X595304Y322367D01*
X595867Y321804D01*
X595999Y321750D01*
Y321250D01*
X595867Y321196D01*
X595304Y320633D01*
X595000Y319898D01*
Y319102D01*
X595304Y318367D01*
X595867Y317805D01*
X596602Y317500D01*
X597398D01*
X598133Y317805D01*
X598696Y318367D01*
X599000Y319102D01*
Y319898D01*
X598696Y320633D01*
X598133Y321196D01*
X598001Y321250D01*
Y321750D01*
X598133Y321804D01*
X598696Y322367D01*
X599000Y323102D01*
Y323898D01*
X598696Y324633D01*
X598133Y325196D01*
X598001Y325250D01*
Y325750D01*
X598133Y325804D01*
X598696Y326367D01*
X599000Y327102D01*
Y327898D01*
X598696Y328633D01*
X598133Y329195D01*
X597398Y329500D01*
D02*
G37*
G36*
X649898Y328500D02*
X649102D01*
X648367Y328196D01*
X647804Y327633D01*
X647500Y326898D01*
Y326102D01*
X647804Y325367D01*
X648367Y324804D01*
X648499Y324750D01*
Y324250D01*
X648367Y324196D01*
X647804Y323633D01*
X647500Y322898D01*
Y322102D01*
X647804Y321367D01*
X648367Y320805D01*
X648499Y320750D01*
Y320250D01*
X648367Y320196D01*
X647804Y319633D01*
X647500Y318898D01*
Y318102D01*
X647804Y317367D01*
X648367Y316805D01*
X649102Y316500D01*
X649898D01*
X650633Y316805D01*
X651195Y317367D01*
X651500Y318102D01*
Y318898D01*
X651195Y319633D01*
X650633Y320196D01*
X650501Y320250D01*
Y320750D01*
X650633Y320805D01*
X651195Y321367D01*
X651500Y322102D01*
Y322898D01*
X651195Y323633D01*
X650633Y324196D01*
X650501Y324250D01*
Y324750D01*
X650633Y324804D01*
X651195Y325367D01*
X651500Y326102D01*
Y326898D01*
X651195Y327633D01*
X650633Y328196D01*
X649898Y328500D01*
D02*
G37*
G36*
X412398Y320500D02*
X411602D01*
X410867Y320196D01*
X410304Y319633D01*
X410000Y318898D01*
Y318102D01*
X410304Y317367D01*
X410867Y316805D01*
X411602Y316500D01*
X412398D01*
X413133Y316805D01*
X413695Y317367D01*
X414000Y318102D01*
Y318898D01*
X413695Y319633D01*
X413133Y320196D01*
X412398Y320500D01*
D02*
G37*
G36*
X334898Y319000D02*
X334102D01*
X333367Y318695D01*
X332804Y318133D01*
X332500Y317398D01*
Y316602D01*
X332804Y315867D01*
X333367Y315304D01*
X334102Y315000D01*
X334898D01*
X335633Y315304D01*
X336195Y315867D01*
X336500Y316602D01*
Y317398D01*
X336195Y318133D01*
X335633Y318695D01*
X334898Y319000D01*
D02*
G37*
G36*
X586898Y330000D02*
X586102D01*
X585367Y329696D01*
X584804Y329133D01*
X584500Y328398D01*
Y327602D01*
X584804Y326867D01*
X585367Y326305D01*
X585499Y326250D01*
Y325750D01*
X585367Y325695D01*
X584804Y325133D01*
X584500Y324398D01*
Y323602D01*
X584804Y322867D01*
X585367Y322305D01*
X585499Y322250D01*
Y321750D01*
X585367Y321695D01*
X584804Y321133D01*
X584500Y320398D01*
Y319602D01*
X584804Y318867D01*
X585095Y318577D01*
X585328Y318250D01*
X585095Y317923D01*
X584804Y317633D01*
X584500Y316898D01*
Y316102D01*
X584804Y315367D01*
X585367Y314805D01*
X586102Y314500D01*
X586898D01*
X587633Y314805D01*
X588196Y315367D01*
X588500Y316102D01*
Y316898D01*
X588196Y317633D01*
X587905Y317923D01*
X587672Y318250D01*
X587905Y318577D01*
X588196Y318867D01*
X588500Y319602D01*
Y320398D01*
X588196Y321133D01*
X587633Y321695D01*
X587501Y321750D01*
Y322250D01*
X587633Y322305D01*
X588196Y322867D01*
X588500Y323602D01*
Y324398D01*
X588196Y325133D01*
X587633Y325695D01*
X587501Y325750D01*
Y326250D01*
X587633Y326305D01*
X588196Y326867D01*
X588500Y327602D01*
Y328398D01*
X588196Y329133D01*
X587633Y329696D01*
X586898Y330000D01*
D02*
G37*
G36*
X606898Y317500D02*
X606102D01*
X605367Y317196D01*
X604805Y316633D01*
X604500Y315898D01*
Y315102D01*
X604805Y314367D01*
X605367Y313805D01*
X606102Y313500D01*
X606898D01*
X607633Y313805D01*
X608195Y314367D01*
X608500Y315102D01*
Y315898D01*
X608195Y316633D01*
X607633Y317196D01*
X606898Y317500D01*
D02*
G37*
G36*
X529898Y313500D02*
X529102D01*
X528367Y313195D01*
X528000Y312828D01*
X527633Y313195D01*
X526898Y313500D01*
X526102D01*
X525367Y313195D01*
X524804Y312633D01*
X524750Y312501D01*
X524250D01*
X524195Y312633D01*
X523633Y313195D01*
X522898Y313500D01*
X522102D01*
X521367Y313195D01*
X520805Y312633D01*
X520500Y311898D01*
Y311102D01*
X520805Y310367D01*
X521367Y309805D01*
X522102Y309500D01*
X522898D01*
X523633Y309805D01*
X524195Y310367D01*
X524250Y310499D01*
X524750D01*
X524804Y310367D01*
X525367Y309805D01*
X526102Y309500D01*
X526898D01*
X527633Y309805D01*
X528000Y310172D01*
X528367Y309805D01*
X529102Y309500D01*
X529898D01*
X530633Y309805D01*
X531195Y310367D01*
X531500Y311102D01*
Y311898D01*
X531195Y312633D01*
X530633Y313195D01*
X529898Y313500D01*
D02*
G37*
G36*
X311537Y316579D02*
X310742D01*
X310007Y316274D01*
X309444Y315712D01*
X309140Y314977D01*
Y314181D01*
X309444Y313446D01*
X310007Y312883D01*
X310742Y312579D01*
X311537D01*
X312273Y312883D01*
X312835Y313446D01*
X313140Y314181D01*
Y314977D01*
X312835Y315712D01*
X312273Y316274D01*
X311537Y316579D01*
D02*
G37*
G36*
X241376Y320492D02*
X240325D01*
X239310Y320220D01*
X238399Y319694D01*
X237656Y318951D01*
X237130Y318041D01*
X236858Y317026D01*
Y315974D01*
X237130Y314959D01*
X237656Y314049D01*
X238399Y313305D01*
X239310Y312780D01*
X240325Y312508D01*
X241376D01*
X242391Y312780D01*
X243302Y313305D01*
X244045Y314049D01*
X244571Y314959D01*
X244843Y315974D01*
Y317026D01*
X244571Y318041D01*
X244045Y318951D01*
X243302Y319694D01*
X242391Y320220D01*
X241376Y320492D01*
D02*
G37*
G36*
X502398Y317500D02*
X501602D01*
X500867Y317196D01*
X500305Y316633D01*
X500000Y315898D01*
Y315102D01*
X500305Y314367D01*
X500867Y313805D01*
X500999Y313750D01*
Y313250D01*
X500867Y313195D01*
X500305Y312633D01*
X500250Y312501D01*
X499750D01*
X499695Y312633D01*
X499133Y313195D01*
X498398Y313500D01*
X497602D01*
X496867Y313195D01*
X496577Y312905D01*
X496250Y312672D01*
X495923Y312905D01*
X495633Y313195D01*
X494898Y313500D01*
X494102D01*
X493367Y313195D01*
X492804Y312633D01*
X492500Y311898D01*
Y311102D01*
X492804Y310367D01*
X493367Y309805D01*
X494102Y309500D01*
X494898D01*
X495633Y309805D01*
X495923Y310095D01*
X496250Y310328D01*
X496577Y310095D01*
X496867Y309805D01*
X497602Y309500D01*
X498398D01*
X499133Y309805D01*
X499695Y310367D01*
X499750Y310499D01*
X500250D01*
X500305Y310367D01*
X500867Y309805D01*
X501602Y309500D01*
X502398D01*
X503133Y309805D01*
X503695Y310367D01*
X504000Y311102D01*
Y311898D01*
X503695Y312633D01*
X503133Y313195D01*
X503001Y313250D01*
Y313750D01*
X503133Y313805D01*
X503695Y314367D01*
X504000Y315102D01*
Y315898D01*
X503695Y316633D01*
X503133Y317196D01*
X502398Y317500D01*
D02*
G37*
G36*
X475898Y312500D02*
X475102D01*
X474367Y312195D01*
X474077Y311905D01*
X473750Y311672D01*
X473423Y311905D01*
X473133Y312195D01*
X472398Y312500D01*
X471602D01*
X470867Y312195D01*
X470577Y311905D01*
X470250Y311672D01*
X469923Y311905D01*
X469633Y312195D01*
X468898Y312500D01*
X468102D01*
X467367Y312195D01*
X466805Y311633D01*
X466750Y311501D01*
X466250D01*
X466195Y311633D01*
X465633Y312195D01*
X464898Y312500D01*
X464102D01*
X463367Y312195D01*
X462805Y311633D01*
X462500Y310898D01*
Y310102D01*
X462805Y309367D01*
X463367Y308804D01*
X464102Y308500D01*
X464898D01*
X465633Y308804D01*
X466195Y309367D01*
X466250Y309499D01*
X466750D01*
X466805Y309367D01*
X467367Y308804D01*
X468102Y308500D01*
X468898D01*
X469633Y308804D01*
X469923Y309095D01*
X470250Y309328D01*
X470577Y309095D01*
X470867Y308804D01*
X471602Y308500D01*
X472398D01*
X473133Y308804D01*
X473423Y309095D01*
X473750Y309328D01*
X474077Y309095D01*
X474367Y308804D01*
X475102Y308500D01*
X475898D01*
X476633Y308804D01*
X477196Y309367D01*
X477500Y310102D01*
Y310898D01*
X477196Y311633D01*
X476633Y312195D01*
X475898Y312500D01*
D02*
G37*
G36*
X635898D02*
X635102D01*
X634367Y312195D01*
X633805Y311633D01*
X633750Y311501D01*
X633250D01*
X633195Y311633D01*
X632633Y312195D01*
X631898Y312500D01*
X631102D01*
X630367Y312195D01*
X629805Y311633D01*
X629500Y310898D01*
Y310102D01*
X629805Y309367D01*
X630367Y308804D01*
X631102Y308500D01*
X631898D01*
X632633Y308804D01*
X633195Y309367D01*
X633250Y309499D01*
X633750D01*
X633805Y309367D01*
X634367Y308804D01*
X635102Y308500D01*
X635898D01*
X636633Y308804D01*
X637195Y309367D01*
X637500Y310102D01*
Y310898D01*
X637195Y311633D01*
X636633Y312195D01*
X635898Y312500D01*
D02*
G37*
G36*
X542898Y324000D02*
X542102D01*
X541367Y323695D01*
X540804Y323133D01*
X540500Y322398D01*
Y321602D01*
X540804Y320867D01*
X541367Y320304D01*
X541499Y320250D01*
Y319750D01*
X541367Y319695D01*
X540804Y319133D01*
X540500Y318398D01*
Y317602D01*
X540804Y316867D01*
X541367Y316304D01*
X541499Y316250D01*
Y315750D01*
X541367Y315696D01*
X540804Y315133D01*
X540500Y314398D01*
Y313602D01*
X540804Y312867D01*
X541095Y312577D01*
X541328Y312250D01*
X541095Y311923D01*
X540804Y311633D01*
X540750Y311501D01*
X540250D01*
X540196Y311633D01*
X539633Y312195D01*
X538898Y312500D01*
X538102D01*
X537367Y312195D01*
X536804Y311633D01*
X536500Y310898D01*
Y310102D01*
X536804Y309367D01*
X537367Y308804D01*
X538102Y308500D01*
X538898D01*
X539633Y308804D01*
X540196Y309367D01*
X540250Y309499D01*
X540750D01*
X540804Y309367D01*
X541367Y308804D01*
X542102Y308500D01*
X542898D01*
X543633Y308804D01*
X544196Y309367D01*
X544500Y310102D01*
Y310898D01*
X544196Y311633D01*
X543905Y311923D01*
X543672Y312250D01*
X543905Y312577D01*
X544196Y312867D01*
X544500Y313602D01*
Y314398D01*
X544196Y315133D01*
X543633Y315696D01*
X543501Y315750D01*
Y316250D01*
X543633Y316304D01*
X544196Y316867D01*
X544500Y317602D01*
Y318398D01*
X544196Y319133D01*
X543633Y319695D01*
X543501Y319750D01*
Y320250D01*
X543633Y320304D01*
X544196Y320867D01*
X544500Y321602D01*
Y322398D01*
X544196Y323133D01*
X543633Y323695D01*
X542898Y324000D01*
D02*
G37*
G36*
X576398Y329500D02*
X575602D01*
X574867Y329195D01*
X574304Y328633D01*
X574000Y327898D01*
Y327102D01*
X574304Y326367D01*
X574867Y325804D01*
X574999Y325750D01*
Y325250D01*
X574867Y325196D01*
X574304Y324633D01*
X574000Y323898D01*
Y323102D01*
X574304Y322367D01*
X574867Y321804D01*
X574999Y321750D01*
Y321250D01*
X574867Y321196D01*
X574304Y320633D01*
X574000Y319898D01*
Y319102D01*
X574304Y318367D01*
X574595Y318077D01*
X574828Y317750D01*
X574595Y317423D01*
X574304Y317133D01*
X574000Y316398D01*
Y315602D01*
X574304Y314867D01*
X574769Y314403D01*
X574753Y313986D01*
X574699Y313833D01*
X574367Y313696D01*
X573805Y313133D01*
X573500Y312398D01*
Y311602D01*
X573805Y310867D01*
X574367Y310304D01*
X575102Y310000D01*
X575898D01*
X576633Y310304D01*
X576923Y310595D01*
X577250Y310828D01*
X577577Y310595D01*
X577867Y310304D01*
X578602Y310000D01*
X579398D01*
X580133Y310304D01*
X580695Y310867D01*
X580750Y310999D01*
X581250D01*
X581305Y310867D01*
X581867Y310304D01*
X582602Y310000D01*
X583398D01*
X584133Y310304D01*
X584423Y310595D01*
X584750Y310828D01*
X585077Y310595D01*
X585367Y310304D01*
X586102Y310000D01*
X586898D01*
X587633Y310304D01*
X588196Y310867D01*
X588500Y311602D01*
Y312398D01*
X588196Y313133D01*
X587633Y313696D01*
X586898Y314000D01*
X586102D01*
X585367Y313696D01*
X585077Y313405D01*
X584750Y313172D01*
X584423Y313405D01*
X584133Y313696D01*
X583398Y314000D01*
X582602D01*
X581867Y313696D01*
X581305Y313133D01*
X581250Y313001D01*
X580750D01*
X580695Y313133D01*
X580133Y313696D01*
X579398Y314000D01*
X578602D01*
X577867Y313696D01*
X577577Y313405D01*
X577250Y313172D01*
X576923Y313405D01*
X576731Y313597D01*
X576747Y314014D01*
X576801Y314167D01*
X577133Y314304D01*
X577696Y314867D01*
X578000Y315602D01*
Y316398D01*
X577696Y317133D01*
X577405Y317423D01*
X577172Y317750D01*
X577405Y318077D01*
X577696Y318367D01*
X578000Y319102D01*
Y319898D01*
X577696Y320633D01*
X577133Y321196D01*
X577001Y321250D01*
Y321750D01*
X577133Y321804D01*
X577696Y322367D01*
X578000Y323102D01*
Y323898D01*
X577696Y324633D01*
X577133Y325196D01*
X577001Y325250D01*
Y325750D01*
X577133Y325804D01*
X577696Y326367D01*
X578000Y327102D01*
Y327898D01*
X577696Y328633D01*
X577133Y329195D01*
X576398Y329500D01*
D02*
G37*
G36*
X489398Y321000D02*
X488602D01*
X487867Y320695D01*
X487304Y320133D01*
X487000Y319398D01*
Y318602D01*
X487304Y317867D01*
X487867Y317304D01*
X487999Y317250D01*
Y316750D01*
X487867Y316695D01*
X487304Y316133D01*
X487000Y315398D01*
Y314602D01*
X487304Y313867D01*
X487527Y313645D01*
X487806Y313271D01*
X487527Y312992D01*
X487243Y312708D01*
X486938Y311973D01*
Y311177D01*
X487243Y310442D01*
X487806Y309880D01*
X488541Y309575D01*
X489336D01*
X490071Y309880D01*
X490634Y310442D01*
X490938Y311177D01*
Y311973D01*
X490634Y312708D01*
X490412Y312930D01*
X490133Y313304D01*
X490412Y313583D01*
X490695Y313867D01*
X491000Y314602D01*
Y315398D01*
X490695Y316133D01*
X490133Y316695D01*
X490001Y316750D01*
Y317250D01*
X490133Y317304D01*
X490695Y317867D01*
X491000Y318602D01*
Y319398D01*
X490695Y320133D01*
X490133Y320695D01*
X489398Y321000D01*
D02*
G37*
G36*
X515398Y313500D02*
X514602D01*
X513867Y313195D01*
X513305Y312633D01*
X513000Y311898D01*
Y311102D01*
X513305Y310367D01*
X513867Y309805D01*
X514602Y309500D01*
X515398D01*
X516133Y309805D01*
X516695Y310367D01*
X517000Y311102D01*
Y311898D01*
X516695Y312633D01*
X516133Y313195D01*
X515398Y313500D01*
D02*
G37*
G36*
X511898Y317500D02*
X511102D01*
X510367Y317196D01*
X509804Y316633D01*
X509500Y315898D01*
Y315102D01*
X509804Y314367D01*
X510172Y314000D01*
X510144Y313801D01*
X510005Y313460D01*
X509367Y313195D01*
X508805Y312633D01*
X508500Y311898D01*
Y311102D01*
X508805Y310367D01*
X509367Y309805D01*
X510102Y309500D01*
X510898D01*
X511633Y309805D01*
X512195Y310367D01*
X512500Y311102D01*
Y311898D01*
X512195Y312633D01*
X511828Y313000D01*
X511856Y313199D01*
X511995Y313540D01*
X512633Y313805D01*
X513196Y314367D01*
X513500Y315102D01*
Y315898D01*
X513196Y316633D01*
X512633Y317196D01*
X511898Y317500D01*
D02*
G37*
G36*
X606898Y313000D02*
X606102D01*
X605367Y312696D01*
X604805Y312133D01*
X604500Y311398D01*
Y310602D01*
X604805Y309867D01*
X605367Y309304D01*
X606102Y309000D01*
X606898D01*
X607633Y309304D01*
X608195Y309867D01*
X608500Y310602D01*
Y311398D01*
X608195Y312133D01*
X607633Y312696D01*
X606898Y313000D01*
D02*
G37*
G36*
X601898D02*
X601102D01*
X600367Y312696D01*
X599804Y312133D01*
X599500Y311398D01*
Y310602D01*
X599804Y309867D01*
X600367Y309304D01*
X601102Y309000D01*
X601898D01*
X602633Y309304D01*
X603195Y309867D01*
X603500Y310602D01*
Y311398D01*
X603195Y312133D01*
X602633Y312696D01*
X601898Y313000D01*
D02*
G37*
G36*
X597398Y317000D02*
X596602D01*
X595867Y316695D01*
X595304Y316133D01*
X595000Y315398D01*
Y314602D01*
X595304Y313867D01*
X595867Y313304D01*
X595999Y313250D01*
Y312750D01*
X595867Y312696D01*
X595304Y312133D01*
X595000Y311398D01*
Y310602D01*
X595304Y309867D01*
X595867Y309304D01*
X596602Y309000D01*
X597398D01*
X598133Y309304D01*
X598696Y309867D01*
X599000Y310602D01*
Y311398D01*
X598696Y312133D01*
X598133Y312696D01*
X598001Y312750D01*
Y313250D01*
X598133Y313304D01*
X598696Y313867D01*
X599000Y314602D01*
Y315398D01*
X598696Y316133D01*
X598133Y316695D01*
X597398Y317000D01*
D02*
G37*
G36*
X458898Y309500D02*
X458102D01*
X457367Y309195D01*
X456805Y308633D01*
X456750Y308501D01*
X456250D01*
X456195Y308633D01*
X455633Y309195D01*
X454898Y309500D01*
X454102D01*
X453367Y309195D01*
X452805Y308633D01*
X452750Y308501D01*
X452250D01*
X452196Y308633D01*
X451633Y309195D01*
X450898Y309500D01*
X450102D01*
X449367Y309195D01*
X448805Y308633D01*
X448500Y307898D01*
Y307102D01*
X448805Y306367D01*
X449367Y305804D01*
X450102Y305500D01*
X450898D01*
X451633Y305804D01*
X452196Y306367D01*
X452250Y306499D01*
X452750D01*
X452805Y306367D01*
X453367Y305804D01*
X454102Y305500D01*
X454898D01*
X455633Y305804D01*
X456195Y306367D01*
X456250Y306499D01*
X456750D01*
X456805Y306367D01*
X457367Y305804D01*
X458102Y305500D01*
X458898D01*
X459633Y305804D01*
X460195Y306367D01*
X460500Y307102D01*
Y307898D01*
X460195Y308633D01*
X459633Y309195D01*
X458898Y309500D01*
D02*
G37*
G36*
X412398Y312500D02*
X411602D01*
X410867Y312195D01*
X410304Y311633D01*
X410000Y310898D01*
Y310102D01*
X410304Y309367D01*
X410867Y308804D01*
X411602Y308500D01*
X412398D01*
X413133Y308804D01*
X413695Y309367D01*
X414000Y310102D01*
Y310898D01*
X413695Y311633D01*
X413133Y312195D01*
X412398Y312500D01*
D02*
G37*
G36*
X397398D02*
X396602D01*
X395867Y312195D01*
X395304Y311633D01*
X395000Y310898D01*
Y310102D01*
X395304Y309367D01*
X395867Y308804D01*
X396602Y308500D01*
X397398D01*
X398133Y308804D01*
X398695Y309367D01*
X399000Y310102D01*
Y310898D01*
X398695Y311633D01*
X398133Y312195D01*
X397398Y312500D01*
D02*
G37*
G36*
X430898Y309000D02*
X430102D01*
X429367Y308696D01*
X428804Y308133D01*
X428750Y308001D01*
X428250D01*
X428195Y308133D01*
X427633Y308696D01*
X426898Y309000D01*
X426102D01*
X425367Y308696D01*
X424804Y308133D01*
X424500Y307398D01*
Y306602D01*
X424804Y305867D01*
X425367Y305305D01*
X426102Y305000D01*
X426898D01*
X427633Y305305D01*
X428195Y305867D01*
X428250Y305999D01*
X428750D01*
X428804Y305867D01*
X429367Y305305D01*
X430102Y305000D01*
X430898D01*
X431633Y305305D01*
X432196Y305867D01*
X432500Y306602D01*
Y307398D01*
X432196Y308133D01*
X431633Y308696D01*
X430898Y309000D01*
D02*
G37*
G36*
X555898Y308500D02*
X555102D01*
X554367Y308195D01*
X554000Y307828D01*
X553633Y308195D01*
X552898Y308500D01*
X552102D01*
X551367Y308195D01*
X550805Y307633D01*
X550500Y306898D01*
Y306102D01*
X550805Y305367D01*
X550922Y305250D01*
X550805Y305133D01*
X550500Y304398D01*
Y303602D01*
X550805Y302867D01*
X551367Y302305D01*
X552102Y302000D01*
X552898D01*
X553633Y302305D01*
X554000Y302672D01*
X554367Y302305D01*
X555102Y302000D01*
X555898D01*
X556633Y302305D01*
X557196Y302867D01*
X557500Y303602D01*
Y304398D01*
X557196Y305133D01*
X557078Y305250D01*
X557196Y305367D01*
X557500Y306102D01*
Y306898D01*
X557196Y307633D01*
X556633Y308195D01*
X555898Y308500D01*
D02*
G37*
G36*
X564898Y315000D02*
X564102D01*
X563367Y314696D01*
X562805Y314133D01*
X562500Y313398D01*
Y312602D01*
X562805Y311867D01*
X563095Y311577D01*
X563328Y311250D01*
X563095Y310923D01*
X562805Y310633D01*
X562500Y309898D01*
Y309102D01*
X562805Y308367D01*
X563367Y307804D01*
X564102Y307500D01*
X564898D01*
X565633Y307804D01*
X566195Y308367D01*
X566500Y309102D01*
Y309898D01*
X566195Y310633D01*
X565905Y310923D01*
X565672Y311250D01*
X565905Y311577D01*
X566195Y311867D01*
X566500Y312602D01*
Y313398D01*
X566195Y314133D01*
X565633Y314696D01*
X564898Y315000D01*
D02*
G37*
G36*
X370398Y309500D02*
X369602D01*
X368867Y309195D01*
X368304Y308633D01*
X368000Y307898D01*
Y307571D01*
X367500Y307237D01*
X367398Y307279D01*
X366602D01*
X365867Y306975D01*
X365304Y306412D01*
X365000Y305677D01*
Y304882D01*
X365304Y304147D01*
X365867Y303584D01*
X366602Y303279D01*
X367398D01*
X368133Y303584D01*
X368695Y304147D01*
X369000Y304882D01*
Y305208D01*
X369500Y305542D01*
X369602Y305500D01*
X370398D01*
X371133Y305804D01*
X371695Y306367D01*
X372000Y307102D01*
Y307898D01*
X371695Y308633D01*
X371133Y309195D01*
X370398Y309500D01*
D02*
G37*
G36*
X387398Y310500D02*
X386602D01*
X385867Y310195D01*
X385304Y309633D01*
X385000Y308898D01*
Y308102D01*
X385304Y307367D01*
X385867Y306804D01*
X386602Y306500D01*
X387398D01*
X388133Y306804D01*
X388696Y307367D01*
X389000Y308102D01*
Y308898D01*
X388696Y309633D01*
X388133Y310195D01*
X387398Y310500D01*
D02*
G37*
G36*
X317398D02*
X316602D01*
X315867Y310195D01*
X315304Y309633D01*
X315000Y308898D01*
Y308102D01*
X315304Y307367D01*
X315867Y306804D01*
X316602Y306500D01*
X317398D01*
X318133Y306804D01*
X318695Y307367D01*
X319000Y308102D01*
Y308898D01*
X318695Y309633D01*
X318133Y310195D01*
X317398Y310500D01*
D02*
G37*
G36*
X446398Y309500D02*
X445602D01*
X444867Y309195D01*
X444305Y308633D01*
X444000Y307898D01*
Y307102D01*
X444305Y306367D01*
X444867Y305804D01*
X445602Y305500D01*
X446398D01*
X447133Y305804D01*
X447695Y306367D01*
X448000Y307102D01*
Y307898D01*
X447695Y308633D01*
X447133Y309195D01*
X446398Y309500D01*
D02*
G37*
G36*
X436398Y320500D02*
X435602D01*
X434867Y320196D01*
X434305Y319633D01*
X434000Y318898D01*
Y318102D01*
X434305Y317367D01*
X434867Y316805D01*
X434999Y316750D01*
Y316250D01*
X434867Y316196D01*
X434305Y315633D01*
X434000Y314898D01*
Y314102D01*
X434305Y313367D01*
X434867Y312805D01*
X434999Y312750D01*
Y312250D01*
X434867Y312195D01*
X434305Y311633D01*
X434000Y310898D01*
Y310102D01*
X434305Y309367D01*
X434480Y309192D01*
X434406Y308823D01*
X434318Y308646D01*
X433805Y308133D01*
X433500Y307398D01*
Y306602D01*
X433805Y305867D01*
X434367Y305305D01*
X435102Y305000D01*
X435898D01*
X436633Y305305D01*
X437195Y305867D01*
X437500Y306602D01*
Y307398D01*
X437195Y308133D01*
X437020Y308308D01*
X437094Y308677D01*
X437182Y308854D01*
X437696Y309367D01*
X438000Y310102D01*
Y310898D01*
X437696Y311633D01*
X437133Y312195D01*
X437001Y312250D01*
Y312750D01*
X437133Y312805D01*
X437696Y313367D01*
X438000Y314102D01*
Y314898D01*
X437696Y315633D01*
X437133Y316196D01*
X437001Y316250D01*
Y316750D01*
X437133Y316805D01*
X437696Y317367D01*
X438000Y318102D01*
Y318898D01*
X437696Y319633D01*
X437133Y320196D01*
X436398Y320500D01*
D02*
G37*
G36*
X412111Y307510D02*
X411315D01*
X410580Y307205D01*
X410018Y306643D01*
X409713Y305908D01*
Y305112D01*
X410018Y304377D01*
X410580Y303814D01*
X411315Y303510D01*
X412111D01*
X412846Y303814D01*
X413409Y304377D01*
X413713Y305112D01*
Y305908D01*
X413409Y306643D01*
X412846Y307205D01*
X412111Y307510D01*
D02*
G37*
G36*
X241376Y310492D02*
X240325D01*
X239310Y310220D01*
X238399Y309695D01*
X237656Y308951D01*
X237130Y308041D01*
X236858Y307026D01*
Y305974D01*
X237130Y304959D01*
X237656Y304049D01*
X238399Y303306D01*
X239310Y302780D01*
X240325Y302508D01*
X241376D01*
X242391Y302780D01*
X243302Y303306D01*
X244045Y304049D01*
X244571Y304959D01*
X244843Y305974D01*
Y307026D01*
X244571Y308041D01*
X244045Y308951D01*
X243302Y309695D01*
X242391Y310220D01*
X241376Y310492D01*
D02*
G37*
G36*
X351398Y308500D02*
X350602D01*
X349867Y308195D01*
X349305Y307633D01*
X349000Y306898D01*
Y306102D01*
X349058Y305962D01*
X349028Y305876D01*
X348708Y305500D01*
X348102D01*
X347367Y305195D01*
X346804Y304633D01*
X346500Y303898D01*
Y303102D01*
X346804Y302367D01*
X347367Y301804D01*
X348102Y301500D01*
X348898D01*
X349633Y301804D01*
X350196Y302367D01*
X350500Y303102D01*
Y303898D01*
X350442Y304038D01*
X350472Y304124D01*
X350792Y304500D01*
X351398D01*
X352133Y304804D01*
X352695Y305367D01*
X353000Y306102D01*
Y306898D01*
X352695Y307633D01*
X352133Y308195D01*
X351398Y308500D01*
D02*
G37*
G36*
X638398Y301500D02*
X637602D01*
X636867Y301196D01*
X636305Y300633D01*
X636250Y300501D01*
X635750D01*
X635696Y300633D01*
X635133Y301196D01*
X634398Y301500D01*
X633602D01*
X632867Y301196D01*
X632304Y300633D01*
X632250Y300501D01*
X631750D01*
X631696Y300633D01*
X631133Y301196D01*
X630398Y301500D01*
X629602D01*
X628867Y301196D01*
X628304Y300633D01*
X628000Y299898D01*
Y299102D01*
X628304Y298367D01*
X628867Y297804D01*
X629602Y297500D01*
X630398D01*
X631133Y297804D01*
X631696Y298367D01*
X631750Y298499D01*
X632250D01*
X632304Y298367D01*
X632867Y297804D01*
X633602Y297500D01*
X634398D01*
X635133Y297804D01*
X635696Y298367D01*
X635750Y298499D01*
X636250D01*
X636305Y298367D01*
X636867Y297804D01*
X637602Y297500D01*
X638398D01*
X639133Y297804D01*
X639696Y298367D01*
X640000Y299102D01*
Y299898D01*
X639696Y300633D01*
X639133Y301196D01*
X638398Y301500D01*
D02*
G37*
G36*
X625898D02*
X625102D01*
X624367Y301196D01*
X623805Y300633D01*
X623750Y300501D01*
X623250D01*
X623196Y300633D01*
X622633Y301196D01*
X621898Y301500D01*
X621102D01*
X620367Y301196D01*
X619804Y300633D01*
X619750Y300501D01*
X619250D01*
X619196Y300633D01*
X618633Y301196D01*
X617898Y301500D01*
X617102D01*
X616367Y301196D01*
X615804Y300633D01*
X615750Y300501D01*
X615250D01*
X615196Y300633D01*
X614633Y301196D01*
X613898Y301500D01*
X613102D01*
X612367Y301196D01*
X612077Y300905D01*
X611750Y300672D01*
X611423Y300905D01*
X611133Y301196D01*
X610398Y301500D01*
X609602D01*
X608867Y301196D01*
X608305Y300633D01*
X608250Y300501D01*
X607750D01*
X607695Y300633D01*
X607133Y301196D01*
X606398Y301500D01*
X605602D01*
X604867Y301196D01*
X604305Y300633D01*
X604250Y300501D01*
X603750D01*
X603695Y300633D01*
X603133Y301196D01*
X602398Y301500D01*
X601602D01*
X600867Y301196D01*
X600305Y300633D01*
X600250Y300501D01*
X599750D01*
X599695Y300633D01*
X599133Y301196D01*
X598398Y301500D01*
X597602D01*
X596867Y301196D01*
X596305Y300633D01*
X596000Y299898D01*
Y299102D01*
X596305Y298367D01*
X596867Y297804D01*
X597602Y297500D01*
X598398D01*
X599133Y297804D01*
X599695Y298367D01*
X599750Y298499D01*
X600250D01*
X600305Y298367D01*
X600867Y297804D01*
X601602Y297500D01*
X602398D01*
X603133Y297804D01*
X603695Y298367D01*
X603750Y298499D01*
X604250D01*
X604305Y298367D01*
X604867Y297804D01*
X605602Y297500D01*
X606398D01*
X607133Y297804D01*
X607695Y298367D01*
X607750Y298499D01*
X608250D01*
X608305Y298367D01*
X608867Y297804D01*
X609602Y297500D01*
X610398D01*
X611133Y297804D01*
X611423Y298095D01*
X611750Y298328D01*
X612077Y298095D01*
X612367Y297804D01*
X613102Y297500D01*
X613898D01*
X614633Y297804D01*
X615196Y298367D01*
X615250Y298499D01*
X615750D01*
X615804Y298367D01*
X616367Y297804D01*
X617102Y297500D01*
X617898D01*
X618633Y297804D01*
X619196Y298367D01*
X619250Y298499D01*
X619750D01*
X619804Y298367D01*
X620367Y297804D01*
X621102Y297500D01*
X621898D01*
X622633Y297804D01*
X623196Y298367D01*
X623250Y298499D01*
X623750D01*
X623805Y298367D01*
X624367Y297804D01*
X625102Y297500D01*
X625898D01*
X626633Y297804D01*
X627196Y298367D01*
X627500Y299102D01*
Y299898D01*
X627196Y300633D01*
X626633Y301196D01*
X625898Y301500D01*
D02*
G37*
G36*
X502398Y301000D02*
X501602D01*
X500867Y300695D01*
X500305Y300133D01*
X500250Y300001D01*
X499750D01*
X499695Y300133D01*
X499133Y300695D01*
X498398Y301000D01*
X497602D01*
X496867Y300695D01*
X496305Y300133D01*
X496000Y299398D01*
Y298602D01*
X496305Y297867D01*
X496867Y297305D01*
X497602Y297000D01*
X498398D01*
X499133Y297305D01*
X499695Y297867D01*
X499750Y297999D01*
X500250D01*
X500305Y297867D01*
X500867Y297305D01*
X501602Y297000D01*
X502398D01*
X503133Y297305D01*
X503695Y297867D01*
X504000Y298602D01*
Y299398D01*
X503695Y300133D01*
X503133Y300695D01*
X502398Y301000D01*
D02*
G37*
G36*
X542898Y300500D02*
X542102D01*
X541367Y300196D01*
X540804Y299633D01*
X540750Y299501D01*
X540250D01*
X540196Y299633D01*
X539633Y300196D01*
X538898Y300500D01*
X538102D01*
X537367Y300196D01*
X536804Y299633D01*
X536500Y298898D01*
Y298102D01*
X536804Y297367D01*
X537367Y296804D01*
X538102Y296500D01*
X538898D01*
X539633Y296804D01*
X540196Y297367D01*
X540250Y297499D01*
X540750D01*
X540804Y297367D01*
X541367Y296804D01*
X542102Y296500D01*
X542898D01*
X543012Y296547D01*
X543295Y296123D01*
X542804Y295633D01*
X542500Y294898D01*
Y294102D01*
X542804Y293367D01*
X543367Y292805D01*
X544102Y292500D01*
X544898D01*
X545633Y292805D01*
X546196Y293367D01*
X546500Y294102D01*
Y294898D01*
X546196Y295633D01*
X545633Y296196D01*
X544898Y296500D01*
X544102D01*
X543988Y296453D01*
X543705Y296877D01*
X544196Y297367D01*
X544500Y298102D01*
Y298898D01*
X544196Y299633D01*
X543633Y300196D01*
X542898Y300500D01*
D02*
G37*
G36*
X585898Y300000D02*
X585102D01*
X584367Y299695D01*
X584077Y299405D01*
X583750Y299172D01*
X583423Y299405D01*
X583133Y299695D01*
X582398Y300000D01*
X581602D01*
X580867Y299695D01*
X580577Y299405D01*
X580250Y299172D01*
X579923Y299405D01*
X579633Y299695D01*
X578898Y300000D01*
X578102D01*
X577367Y299695D01*
X576804Y299133D01*
X576750Y299001D01*
X576250D01*
X576195Y299133D01*
X575633Y299695D01*
X574898Y300000D01*
X574102D01*
X573367Y299695D01*
X572804Y299133D01*
X572500Y298398D01*
Y297602D01*
X572804Y296867D01*
X573367Y296304D01*
X574102Y296000D01*
X574898D01*
X575633Y296304D01*
X576195Y296867D01*
X576250Y296999D01*
X576750D01*
X576804Y296867D01*
X577367Y296304D01*
X578102Y296000D01*
X578898D01*
X579633Y296304D01*
X579923Y296595D01*
X580250Y296828D01*
X580577Y296595D01*
X580867Y296304D01*
X581602Y296000D01*
X582398D01*
X583133Y296304D01*
X583423Y296595D01*
X583750Y296828D01*
X584077Y296595D01*
X584367Y296304D01*
X584499Y296250D01*
Y295750D01*
X584367Y295695D01*
X583805Y295133D01*
X583500Y294398D01*
Y293602D01*
X583805Y292867D01*
X584367Y292304D01*
X584499Y292250D01*
Y291750D01*
X584367Y291695D01*
X583805Y291133D01*
X583500Y290398D01*
Y289602D01*
X583805Y288867D01*
X584367Y288304D01*
X584499Y288250D01*
Y287750D01*
X584367Y287696D01*
X583805Y287133D01*
X583500Y286398D01*
Y285602D01*
X583805Y284867D01*
X584367Y284304D01*
X585102Y284000D01*
X585898D01*
X586633Y284304D01*
X587195Y284867D01*
X587500Y285602D01*
Y286398D01*
X587195Y287133D01*
X586633Y287696D01*
X586501Y287750D01*
Y288250D01*
X586633Y288304D01*
X587195Y288867D01*
X587500Y289602D01*
Y290398D01*
X587195Y291133D01*
X586633Y291695D01*
X586501Y291750D01*
Y292250D01*
X586633Y292304D01*
X587195Y292867D01*
X587500Y293602D01*
Y294398D01*
X587195Y295133D01*
X586633Y295695D01*
X586501Y295750D01*
Y296250D01*
X586633Y296304D01*
X587195Y296867D01*
X587500Y297602D01*
Y298398D01*
X587195Y299133D01*
X586633Y299695D01*
X585898Y300000D01*
D02*
G37*
G36*
X355898Y303000D02*
X355102D01*
X354367Y302695D01*
X353804Y302133D01*
X353500Y301398D01*
Y300602D01*
X353804Y299867D01*
X354367Y299305D01*
X355102Y299000D01*
X355898D01*
X356633Y299305D01*
X357195Y299867D01*
X357500Y300602D01*
Y301398D01*
X357195Y302133D01*
X356633Y302695D01*
X355898Y303000D01*
D02*
G37*
G36*
X392398Y302500D02*
X391602D01*
X390867Y302196D01*
X390304Y301633D01*
X390000Y300898D01*
Y300102D01*
X390304Y299367D01*
X390867Y298804D01*
X391602Y298500D01*
X392398D01*
X393133Y298804D01*
X393695Y299367D01*
X394000Y300102D01*
Y300898D01*
X393695Y301633D01*
X393133Y302196D01*
X392398Y302500D01*
D02*
G37*
G36*
X522898Y301000D02*
X522102D01*
X521367Y300695D01*
X520805Y300133D01*
X520500Y299398D01*
Y298602D01*
X520805Y297867D01*
X521367Y297305D01*
X522102Y297000D01*
X522898D01*
X523633Y297305D01*
X524195Y297867D01*
X524500Y298602D01*
Y299398D01*
X524195Y300133D01*
X523633Y300695D01*
X522898Y301000D01*
D02*
G37*
G36*
X515898D02*
X515102D01*
X514367Y300695D01*
X513804Y300133D01*
X513500Y299398D01*
Y298602D01*
X513804Y297867D01*
X514367Y297305D01*
X515102Y297000D01*
X515898D01*
X516633Y297305D01*
X517196Y297867D01*
X517500Y298602D01*
Y299398D01*
X517196Y300133D01*
X516633Y300695D01*
X515898Y301000D01*
D02*
G37*
G36*
X511398D02*
X510602D01*
X509867Y300695D01*
X509305Y300133D01*
X509000Y299398D01*
Y298602D01*
X509305Y297867D01*
X509867Y297305D01*
X510602Y297000D01*
X511398D01*
X512133Y297305D01*
X512696Y297867D01*
X513000Y298602D01*
Y299398D01*
X512696Y300133D01*
X512133Y300695D01*
X511398Y301000D01*
D02*
G37*
G36*
X493898D02*
X493102D01*
X492367Y300695D01*
X491805Y300133D01*
X491500Y299398D01*
Y298602D01*
X491805Y297867D01*
X492367Y297305D01*
X493102Y297000D01*
X493898D01*
X494633Y297305D01*
X495195Y297867D01*
X495500Y298602D01*
Y299398D01*
X495195Y300133D01*
X494633Y300695D01*
X493898Y301000D01*
D02*
G37*
G36*
X489398D02*
X488602D01*
X487867Y300695D01*
X487304Y300133D01*
X487000Y299398D01*
Y298602D01*
X487304Y297867D01*
X487867Y297305D01*
X488602Y297000D01*
X489398D01*
X490133Y297305D01*
X490695Y297867D01*
X491000Y298602D01*
Y299398D01*
X490695Y300133D01*
X490133Y300695D01*
X489398Y301000D01*
D02*
G37*
G36*
X565398Y300000D02*
X564602D01*
X563867Y299695D01*
X563305Y299133D01*
X563000Y298398D01*
Y297602D01*
X563249Y297000D01*
X563147Y296654D01*
X563005Y296460D01*
X562367Y296196D01*
X561804Y295633D01*
X561750Y295501D01*
X561250D01*
X561196Y295633D01*
X560633Y296196D01*
X559898Y296500D01*
X559102D01*
X558367Y296196D01*
X557804Y295633D01*
X557750Y295501D01*
X557250D01*
X557196Y295633D01*
X556633Y296196D01*
X555898Y296500D01*
X555102D01*
X554367Y296196D01*
X553804Y295633D01*
X553500Y294898D01*
Y294102D01*
X553804Y293367D01*
X554367Y292805D01*
X555102Y292500D01*
X555898D01*
X556633Y292805D01*
X557196Y293367D01*
X557250Y293499D01*
X557750D01*
X557804Y293367D01*
X558367Y292805D01*
X559102Y292500D01*
X559898D01*
X560633Y292805D01*
X561196Y293367D01*
X561250Y293499D01*
X561750D01*
X561804Y293367D01*
X562367Y292805D01*
X563102Y292500D01*
X563898D01*
X564633Y292805D01*
X565196Y293367D01*
X565500Y294102D01*
Y294898D01*
X565251Y295500D01*
X565353Y295847D01*
X565495Y296040D01*
X566133Y296304D01*
X566695Y296867D01*
X567000Y297602D01*
Y298398D01*
X566695Y299133D01*
X566133Y299695D01*
X565398Y300000D01*
D02*
G37*
G36*
X669898Y296000D02*
X669102D01*
X668367Y295695D01*
X667804Y295133D01*
X667750Y295001D01*
X667250D01*
X667196Y295133D01*
X666633Y295695D01*
X665898Y296000D01*
X665102D01*
X664367Y295695D01*
X663804Y295133D01*
X663750Y295001D01*
X663250D01*
X663196Y295133D01*
X662633Y295695D01*
X661898Y296000D01*
X661102D01*
X660367Y295695D01*
X659804Y295133D01*
X659500Y294398D01*
Y293602D01*
X659804Y292867D01*
X660367Y292304D01*
X661102Y292000D01*
X661898D01*
X662633Y292304D01*
X663196Y292867D01*
X663250Y292999D01*
X663750D01*
X663804Y292867D01*
X664367Y292304D01*
X665102Y292000D01*
X665898D01*
X666633Y292304D01*
X667196Y292867D01*
X667250Y292999D01*
X667750D01*
X667804Y292867D01*
X668367Y292304D01*
X669102Y292000D01*
X669898D01*
X670633Y292304D01*
X671196Y292867D01*
X671500Y293602D01*
Y294398D01*
X671196Y295133D01*
X670633Y295695D01*
X669898Y296000D01*
D02*
G37*
G36*
X318898Y303500D02*
X318102D01*
X317367Y303196D01*
X316805Y302633D01*
X316500Y301898D01*
Y301102D01*
X316805Y300367D01*
X317367Y299804D01*
X318102Y299500D01*
X318898D01*
X319633Y299804D01*
X320187Y299651D01*
X320304Y299367D01*
X320867Y298804D01*
X320882Y298798D01*
X320979Y298308D01*
X320805Y298133D01*
X320500Y297398D01*
Y296602D01*
X320805Y295867D01*
X321367Y295304D01*
X322102Y295000D01*
X322898D01*
X323633Y295304D01*
X324196Y295867D01*
X324500Y296602D01*
Y297398D01*
X324196Y298133D01*
X323633Y298695D01*
X323618Y298702D01*
X323520Y299192D01*
X323695Y299367D01*
X324000Y300102D01*
Y300898D01*
X323695Y301633D01*
X323133Y302196D01*
X322398Y302500D01*
X321602D01*
X320867Y302196D01*
X320313Y302349D01*
X320196Y302633D01*
X319633Y303196D01*
X318898Y303500D01*
D02*
G37*
G36*
X416398Y298441D02*
X415602D01*
X414867Y298136D01*
X414304Y297574D01*
X414000Y296839D01*
Y296043D01*
X414304Y295308D01*
X414867Y294745D01*
X415602Y294441D01*
X416398D01*
X417133Y294745D01*
X417696Y295308D01*
X418000Y296043D01*
Y296839D01*
X417696Y297574D01*
X417133Y298136D01*
X416398Y298441D01*
D02*
G37*
G36*
X649398Y306000D02*
X648602D01*
X647867Y305696D01*
X647304Y305133D01*
X647000Y304398D01*
Y303602D01*
X647304Y302867D01*
X647867Y302305D01*
X647999Y302250D01*
Y301750D01*
X647867Y301695D01*
X647304Y301133D01*
X647000Y300398D01*
Y299602D01*
X647304Y298867D01*
X647867Y298305D01*
X647999Y298250D01*
Y297750D01*
X647867Y297695D01*
X647304Y297133D01*
X647000Y296398D01*
Y295602D01*
X647304Y294867D01*
X647867Y294304D01*
X648602Y294000D01*
X649398D01*
X650133Y294304D01*
X650696Y294867D01*
X651000Y295602D01*
Y296398D01*
X650696Y297133D01*
X650133Y297695D01*
X650001Y297750D01*
Y298250D01*
X650133Y298305D01*
X650696Y298867D01*
X651000Y299602D01*
Y300398D01*
X650696Y301133D01*
X650133Y301695D01*
X650001Y301750D01*
Y302250D01*
X650133Y302305D01*
X650696Y302867D01*
X651000Y303602D01*
Y304398D01*
X650696Y305133D01*
X650133Y305696D01*
X649398Y306000D01*
D02*
G37*
G36*
X475398Y297000D02*
X474602D01*
X473867Y296695D01*
X473305Y296133D01*
X473000Y295398D01*
Y294602D01*
X473305Y293867D01*
X473867Y293304D01*
X474602Y293000D01*
X475398D01*
X476133Y293304D01*
X476695Y293867D01*
X477000Y294602D01*
Y295398D01*
X476695Y296133D01*
X476133Y296695D01*
X475398Y297000D01*
D02*
G37*
G36*
X470898D02*
X470102D01*
X469367Y296695D01*
X468805Y296133D01*
X468500Y295398D01*
Y294602D01*
X468805Y293867D01*
X469367Y293304D01*
X470102Y293000D01*
X470898D01*
X471633Y293304D01*
X472195Y293867D01*
X472500Y294602D01*
Y295398D01*
X472195Y296133D01*
X471633Y296695D01*
X470898Y297000D01*
D02*
G37*
G36*
X466398D02*
X465602D01*
X464867Y296695D01*
X464304Y296133D01*
X464000Y295398D01*
Y294602D01*
X464304Y293867D01*
X464867Y293304D01*
X465602Y293000D01*
X466398D01*
X467133Y293304D01*
X467696Y293867D01*
X468000Y294602D01*
Y295398D01*
X467696Y296133D01*
X467133Y296695D01*
X466398Y297000D01*
D02*
G37*
G36*
X301898D02*
X301102D01*
X300367Y296695D01*
X299804Y296133D01*
X299500Y295398D01*
Y294602D01*
X299804Y293867D01*
X300367Y293304D01*
X301102Y293000D01*
X301898D01*
X302633Y293304D01*
X303196Y293867D01*
X303500Y294602D01*
Y295398D01*
X303196Y296133D01*
X302633Y296695D01*
X301898Y297000D01*
D02*
G37*
G36*
X241376Y300492D02*
X240325D01*
X239310Y300220D01*
X238399Y299694D01*
X237656Y298951D01*
X237130Y298041D01*
X236858Y297026D01*
Y295974D01*
X237130Y294959D01*
X237656Y294049D01*
X238399Y293305D01*
X239310Y292780D01*
X240325Y292508D01*
X241376D01*
X242391Y292780D01*
X243302Y293305D01*
X244045Y294049D01*
X244571Y294959D01*
X244843Y295974D01*
Y297026D01*
X244571Y298041D01*
X244045Y298951D01*
X243302Y299694D01*
X242391Y300220D01*
X241376Y300492D01*
D02*
G37*
G36*
X549398Y296500D02*
X548602D01*
X547867Y296196D01*
X547304Y295633D01*
X547000Y294898D01*
Y294102D01*
X547304Y293367D01*
X547867Y292805D01*
X548602Y292500D01*
X549398D01*
X550133Y292805D01*
X550696Y293367D01*
X551000Y294102D01*
Y294898D01*
X550696Y295633D01*
X550133Y296196D01*
X549398Y296500D01*
D02*
G37*
G36*
X412323Y295500D02*
X411527D01*
X410792Y295196D01*
X410230Y294633D01*
X409925Y293898D01*
Y293102D01*
X410230Y292367D01*
X410792Y291805D01*
X411527Y291500D01*
X412323D01*
X413058Y291805D01*
X413621Y292367D01*
X413925Y293102D01*
Y293898D01*
X413621Y294633D01*
X413058Y295196D01*
X412323Y295500D01*
D02*
G37*
G36*
X460898Y295000D02*
X460102D01*
X459367Y294695D01*
X458805Y294133D01*
X458500Y293398D01*
Y292602D01*
X458805Y291867D01*
X459367Y291304D01*
X460102Y291000D01*
X460898D01*
X461633Y291304D01*
X462195Y291867D01*
X462500Y292602D01*
Y293398D01*
X462195Y294133D01*
X461633Y294695D01*
X460898Y295000D01*
D02*
G37*
G36*
X455898D02*
X455102D01*
X454367Y294695D01*
X453804Y294133D01*
X453500Y293398D01*
Y292602D01*
X453804Y291867D01*
X454367Y291304D01*
X455102Y291000D01*
X455898D01*
X456633Y291304D01*
X457196Y291867D01*
X457500Y292602D01*
Y293398D01*
X457196Y294133D01*
X456633Y294695D01*
X455898Y295000D01*
D02*
G37*
G36*
X451398D02*
X450602D01*
X449867Y294695D01*
X449304Y294133D01*
X449000Y293398D01*
Y292602D01*
X449304Y291867D01*
X449867Y291304D01*
X450602Y291000D01*
X451398D01*
X452133Y291304D01*
X452696Y291867D01*
X453000Y292602D01*
Y293398D01*
X452696Y294133D01*
X452133Y294695D01*
X451398Y295000D01*
D02*
G37*
G36*
X446898D02*
X446102D01*
X445367Y294695D01*
X444804Y294133D01*
X444500Y293398D01*
Y292602D01*
X444804Y291867D01*
X445367Y291304D01*
X446102Y291000D01*
X446898D01*
X447633Y291304D01*
X448196Y291867D01*
X448500Y292602D01*
Y293398D01*
X448196Y294133D01*
X447633Y294695D01*
X446898Y295000D01*
D02*
G37*
G36*
X396398Y294500D02*
X395602D01*
X394867Y294196D01*
X394304Y293633D01*
X394000Y292898D01*
Y292102D01*
X394304Y291367D01*
X394867Y290805D01*
X395602Y290500D01*
X396398D01*
X397133Y290805D01*
X397695Y291367D01*
X398000Y292102D01*
Y292898D01*
X397695Y293633D01*
X397133Y294196D01*
X396398Y294500D01*
D02*
G37*
G36*
X370566Y297020D02*
X369771D01*
X369036Y296716D01*
X368473Y296153D01*
X368169Y295418D01*
Y294622D01*
X368235Y294462D01*
X367917Y293923D01*
X367367Y293695D01*
X366805Y293133D01*
X366500Y292398D01*
Y291602D01*
X366805Y290867D01*
X367367Y290304D01*
X368102Y290000D01*
X368898D01*
X369633Y290304D01*
X370196Y290867D01*
X370500Y291602D01*
Y292398D01*
X370434Y292558D01*
X370752Y293097D01*
X371302Y293324D01*
X371864Y293887D01*
X372169Y294622D01*
Y295418D01*
X371864Y296153D01*
X371302Y296716D01*
X370566Y297020D01*
D02*
G37*
G36*
X563898Y290500D02*
X563102D01*
X562367Y290195D01*
X561804Y289633D01*
X561500Y288898D01*
Y288102D01*
X561804Y287367D01*
X562367Y286805D01*
X563102Y286500D01*
X563898D01*
X564633Y286805D01*
X565196Y287367D01*
X565500Y288102D01*
Y288898D01*
X565196Y289633D01*
X564633Y290195D01*
X563898Y290500D01*
D02*
G37*
G36*
X544898D02*
X544102D01*
X543367Y290195D01*
X542804Y289633D01*
X542500Y288898D01*
Y288102D01*
X542804Y287367D01*
X543367Y286805D01*
X544102Y286500D01*
X544898D01*
X545633Y286805D01*
X546196Y287367D01*
X546500Y288102D01*
Y288898D01*
X546196Y289633D01*
X545633Y290195D01*
X544898Y290500D01*
D02*
G37*
G36*
X495398Y287000D02*
X494602D01*
X493867Y286696D01*
X493304Y286133D01*
X493250Y286001D01*
X492750D01*
X492696Y286133D01*
X492133Y286696D01*
X491398Y287000D01*
X490602D01*
X489867Y286696D01*
X489304Y286133D01*
X489000Y285398D01*
Y284602D01*
X489304Y283867D01*
X489867Y283305D01*
X490602Y283000D01*
X491398D01*
X492133Y283305D01*
X492696Y283867D01*
X492750Y283999D01*
X493250D01*
X493304Y283867D01*
X493867Y283305D01*
X494602Y283000D01*
X495398D01*
X496133Y283305D01*
X496696Y283867D01*
X497000Y284602D01*
Y285398D01*
X496696Y286133D01*
X496133Y286696D01*
X495398Y287000D01*
D02*
G37*
G36*
X388398Y289000D02*
X387602D01*
X386867Y288696D01*
X386304Y288133D01*
X386000Y287398D01*
Y286602D01*
X386304Y285867D01*
X386867Y285304D01*
X387602Y285000D01*
X388398D01*
X389133Y285304D01*
X389696Y285867D01*
X390000Y286602D01*
Y287398D01*
X389696Y288133D01*
X389133Y288696D01*
X388398Y289000D01*
D02*
G37*
G36*
X527398Y285000D02*
X526602D01*
X525867Y284696D01*
X525305Y284133D01*
X525250Y284001D01*
X524750D01*
X524695Y284133D01*
X524133Y284696D01*
X523398Y285000D01*
X522602D01*
X521867Y284696D01*
X521305Y284133D01*
X521000Y283398D01*
Y282602D01*
X521305Y281867D01*
X521867Y281305D01*
X522602Y281000D01*
X523398D01*
X524133Y281305D01*
X524695Y281867D01*
X524750Y281999D01*
X525250D01*
X525305Y281867D01*
X525867Y281305D01*
X526602Y281000D01*
X527398D01*
X528133Y281305D01*
X528695Y281867D01*
X529000Y282602D01*
Y283398D01*
X528695Y284133D01*
X528133Y284696D01*
X527398Y285000D01*
D02*
G37*
G36*
X598398Y296000D02*
X597602D01*
X596867Y295695D01*
X596305Y295133D01*
X596000Y294398D01*
Y293602D01*
X596305Y292867D01*
X596867Y292304D01*
X596999Y292250D01*
Y291750D01*
X596867Y291695D01*
X596305Y291133D01*
X596000Y290398D01*
Y289602D01*
X596305Y288867D01*
X596867Y288304D01*
X596999Y288250D01*
Y287750D01*
X596867Y287696D01*
X596305Y287133D01*
X596000Y286398D01*
Y285602D01*
X596305Y284867D01*
X596867Y284304D01*
X597602Y284000D01*
X598398D01*
X599133Y284304D01*
X599695Y284867D01*
X600000Y285602D01*
Y286398D01*
X599695Y287133D01*
X599133Y287696D01*
X599001Y287750D01*
Y288250D01*
X599133Y288304D01*
X599695Y288867D01*
X600000Y289602D01*
Y290398D01*
X599695Y291133D01*
X599133Y291695D01*
X599001Y291750D01*
Y292250D01*
X599133Y292304D01*
X599695Y292867D01*
X600000Y293602D01*
Y294398D01*
X599695Y295133D01*
X599133Y295695D01*
X598398Y296000D01*
D02*
G37*
G36*
X669898Y284500D02*
X669102D01*
X668367Y284195D01*
X667804Y283633D01*
X667750Y283501D01*
X667250D01*
X667196Y283633D01*
X666633Y284195D01*
X665898Y284500D01*
X665102D01*
X664367Y284195D01*
X663804Y283633D01*
X663750Y283501D01*
X663250D01*
X663196Y283633D01*
X662633Y284195D01*
X661898Y284500D01*
X661102D01*
X660367Y284195D01*
X659804Y283633D01*
X659500Y282898D01*
Y282102D01*
X659804Y281367D01*
X660367Y280804D01*
X661102Y280500D01*
X661898D01*
X662633Y280804D01*
X663196Y281367D01*
X663250Y281499D01*
X663750D01*
X663804Y281367D01*
X664367Y280804D01*
X665102Y280500D01*
X665898D01*
X666633Y280804D01*
X667196Y281367D01*
X667250Y281499D01*
X667750D01*
X667804Y281367D01*
X668367Y280804D01*
X669102Y280500D01*
X669898D01*
X670633Y280804D01*
X671196Y281367D01*
X671500Y282102D01*
Y282898D01*
X671196Y283633D01*
X670633Y284195D01*
X669898Y284500D01*
D02*
G37*
G36*
X638398Y295500D02*
X637602D01*
X636867Y295196D01*
X636305Y294633D01*
X636000Y293898D01*
Y293102D01*
X636305Y292367D01*
X636867Y291805D01*
X636999Y291750D01*
Y291250D01*
X636867Y291196D01*
X636305Y290633D01*
X636000Y289898D01*
Y289102D01*
X636305Y288367D01*
X636867Y287805D01*
X636999Y287750D01*
Y287250D01*
X636867Y287195D01*
X636305Y286633D01*
X636000Y285898D01*
Y285102D01*
X636305Y284367D01*
X636867Y283804D01*
X637602Y283500D01*
X638398D01*
X639133Y283804D01*
X639696Y284367D01*
X640000Y285102D01*
Y285898D01*
X639696Y286633D01*
X639133Y287195D01*
X639001Y287250D01*
Y287750D01*
X639133Y287805D01*
X639696Y288367D01*
X640000Y289102D01*
Y289898D01*
X639696Y290633D01*
X639133Y291196D01*
X639001Y291250D01*
Y291750D01*
X639133Y291805D01*
X639696Y292367D01*
X640000Y293102D01*
Y293898D01*
X639696Y294633D01*
X639133Y295196D01*
X638398Y295500D01*
D02*
G37*
G36*
X533898Y287500D02*
X533102D01*
X532367Y287195D01*
X531805Y286633D01*
X531500Y285898D01*
Y285102D01*
X531805Y284367D01*
X532367Y283804D01*
X533102Y283500D01*
X533898D01*
X534633Y283804D01*
X535195Y284367D01*
X535500Y285102D01*
Y285898D01*
X535195Y286633D01*
X534633Y287195D01*
X533898Y287500D01*
D02*
G37*
G36*
X486898Y287000D02*
X486102D01*
X485367Y286696D01*
X484804Y286133D01*
X484500Y285398D01*
Y284602D01*
X484804Y283867D01*
X485367Y283305D01*
X486102Y283000D01*
X486898D01*
X487633Y283305D01*
X488196Y283867D01*
X488500Y284602D01*
Y285398D01*
X488196Y286133D01*
X487633Y286696D01*
X486898Y287000D01*
D02*
G37*
G36*
X482398D02*
X481602D01*
X480867Y286696D01*
X480304Y286133D01*
X480000Y285398D01*
Y284602D01*
X480304Y283867D01*
X480867Y283305D01*
X481602Y283000D01*
X482398D01*
X483133Y283305D01*
X483696Y283867D01*
X484000Y284602D01*
Y285398D01*
X483696Y286133D01*
X483133Y286696D01*
X482398Y287000D01*
D02*
G37*
G36*
X241376Y290492D02*
X240325D01*
X239310Y290220D01*
X238399Y289694D01*
X237656Y288951D01*
X237130Y288041D01*
X236858Y287026D01*
Y285974D01*
X237130Y284959D01*
X237656Y284049D01*
X238399Y283306D01*
X239310Y282780D01*
X240325Y282508D01*
X241376D01*
X242391Y282780D01*
X243302Y283306D01*
X244045Y284049D01*
X244571Y284959D01*
X244843Y285974D01*
Y287026D01*
X244571Y288041D01*
X244045Y288951D01*
X243302Y289694D01*
X242391Y290220D01*
X241376Y290492D01*
D02*
G37*
G36*
X435398Y294000D02*
X434602D01*
X433867Y293695D01*
X433305Y293133D01*
X433000Y292398D01*
Y291602D01*
X433305Y290867D01*
X433867Y290304D01*
X433999Y290250D01*
Y289750D01*
X433867Y289696D01*
X433305Y289133D01*
X433000Y288398D01*
Y287602D01*
X433305Y286867D01*
X433867Y286304D01*
X433999Y286250D01*
Y285750D01*
X433867Y285696D01*
X433305Y285133D01*
X433000Y284398D01*
Y283602D01*
X433305Y282867D01*
X433867Y282305D01*
X434602Y282000D01*
X435398D01*
X436133Y282305D01*
X436695Y282867D01*
X437000Y283602D01*
Y284398D01*
X436695Y285133D01*
X436133Y285696D01*
X436001Y285750D01*
Y286250D01*
X436133Y286304D01*
X436695Y286867D01*
X437000Y287602D01*
Y288398D01*
X436695Y289133D01*
X436133Y289696D01*
X436001Y289750D01*
Y290250D01*
X436133Y290304D01*
X436695Y290867D01*
X437000Y291602D01*
Y292398D01*
X436695Y293133D01*
X436133Y293695D01*
X435398Y294000D01*
D02*
G37*
G36*
X332734Y285019D02*
X331938D01*
X331203Y284715D01*
X330641Y284152D01*
X330336Y283417D01*
Y282622D01*
X330641Y281887D01*
X331203Y281324D01*
X331938Y281019D01*
X332734D01*
X333469Y281324D01*
X334032Y281887D01*
X334336Y282622D01*
Y283417D01*
X334032Y284152D01*
X333469Y284715D01*
X332734Y285019D01*
D02*
G37*
G36*
X560898Y285000D02*
X560102D01*
X559367Y284696D01*
X558805Y284133D01*
X558500Y283398D01*
Y282602D01*
X558805Y281867D01*
X559367Y281305D01*
X560102Y281000D01*
X560898D01*
X561633Y281305D01*
X562195Y281867D01*
X562500Y282602D01*
Y283398D01*
X562195Y284133D01*
X561633Y284696D01*
X560898Y285000D01*
D02*
G37*
G36*
X555898D02*
X555102D01*
X554367Y284696D01*
X553804Y284133D01*
X553500Y283398D01*
Y282602D01*
X553804Y281867D01*
X554367Y281305D01*
X555102Y281000D01*
X555898D01*
X556633Y281305D01*
X557196Y281867D01*
X557500Y282602D01*
Y283398D01*
X557196Y284133D01*
X556633Y284696D01*
X555898Y285000D01*
D02*
G37*
G36*
X550398D02*
X549602D01*
X548867Y284696D01*
X548305Y284133D01*
X548000Y283398D01*
Y282602D01*
X548305Y281867D01*
X548867Y281305D01*
X549602Y281000D01*
X550398D01*
X551133Y281305D01*
X551695Y281867D01*
X552000Y282602D01*
Y283398D01*
X551695Y284133D01*
X551133Y284696D01*
X550398Y285000D01*
D02*
G37*
G36*
X544898D02*
X544102D01*
X543367Y284696D01*
X542804Y284133D01*
X542500Y283398D01*
Y282602D01*
X542804Y281867D01*
X543367Y281305D01*
X544102Y281000D01*
X544898D01*
X545633Y281305D01*
X546196Y281867D01*
X546500Y282602D01*
Y283398D01*
X546196Y284133D01*
X545633Y284696D01*
X544898Y285000D01*
D02*
G37*
G36*
X367898Y284500D02*
X367102D01*
X366367Y284195D01*
X365805Y283633D01*
X365500Y282898D01*
Y282102D01*
X365805Y281367D01*
X366367Y280804D01*
X367102Y280500D01*
X367898D01*
X368633Y280804D01*
X369196Y281367D01*
X369500Y282102D01*
Y282898D01*
X369196Y283633D01*
X368633Y284195D01*
X367898Y284500D01*
D02*
G37*
G36*
X411060Y284179D02*
X410265D01*
X409529Y283874D01*
X408967Y283312D01*
X408662Y282576D01*
Y281781D01*
X408967Y281046D01*
X409529Y280483D01*
X410265Y280179D01*
X411060D01*
X411795Y280483D01*
X412358Y281046D01*
X412662Y281781D01*
Y282576D01*
X412358Y283312D01*
X411795Y283874D01*
X411060Y284179D01*
D02*
G37*
G36*
X598398Y283500D02*
X597602D01*
X596867Y283195D01*
X596305Y282633D01*
X596000Y281898D01*
Y281102D01*
X596305Y280367D01*
X596867Y279804D01*
X597602Y279500D01*
X598398D01*
X599133Y279804D01*
X599695Y280367D01*
X600000Y281102D01*
Y281898D01*
X599695Y282633D01*
X599133Y283195D01*
X598398Y283500D01*
D02*
G37*
G36*
X417898D02*
X417102D01*
X416367Y283195D01*
X415804Y282633D01*
X415500Y281898D01*
Y281102D01*
X415804Y280367D01*
X416367Y279804D01*
X417102Y279500D01*
X417898D01*
X418633Y279804D01*
X419196Y280367D01*
X419500Y281102D01*
Y281898D01*
X419196Y282633D01*
X418633Y283195D01*
X417898Y283500D01*
D02*
G37*
G36*
X563398Y280500D02*
X562602D01*
X561867Y280195D01*
X561305Y279633D01*
X561000Y278898D01*
Y278102D01*
X561305Y277367D01*
X561867Y276804D01*
X562602Y276500D01*
X563398D01*
X564133Y276804D01*
X564696Y277367D01*
X565000Y278102D01*
Y278898D01*
X564696Y279633D01*
X564133Y280195D01*
X563398Y280500D01*
D02*
G37*
G36*
X558398D02*
X557602D01*
X556867Y280195D01*
X556305Y279633D01*
X556000Y278898D01*
Y278102D01*
X556305Y277367D01*
X556867Y276804D01*
X557602Y276500D01*
X558398D01*
X559133Y276804D01*
X559695Y277367D01*
X560000Y278102D01*
Y278898D01*
X559695Y279633D01*
X559133Y280195D01*
X558398Y280500D01*
D02*
G37*
G36*
X552898D02*
X552102D01*
X551367Y280195D01*
X550805Y279633D01*
X550500Y278898D01*
Y278102D01*
X550805Y277367D01*
X551367Y276804D01*
X552102Y276500D01*
X552898D01*
X553633Y276804D01*
X554195Y277367D01*
X554500Y278102D01*
Y278898D01*
X554195Y279633D01*
X553633Y280195D01*
X552898Y280500D01*
D02*
G37*
G36*
X547398D02*
X546602D01*
X545867Y280195D01*
X545304Y279633D01*
X545000Y278898D01*
Y278102D01*
X545304Y277367D01*
X545867Y276804D01*
X546602Y276500D01*
X547398D01*
X548133Y276804D01*
X548696Y277367D01*
X549000Y278102D01*
Y278898D01*
X548696Y279633D01*
X548133Y280195D01*
X547398Y280500D01*
D02*
G37*
G36*
X459398Y286000D02*
X458602D01*
X457867Y285696D01*
X457304Y285133D01*
X457000Y284398D01*
Y283602D01*
X457304Y282867D01*
X457867Y282305D01*
X457999Y282250D01*
Y281750D01*
X457867Y281696D01*
X457304Y281133D01*
X457000Y280398D01*
Y279602D01*
X457304Y278867D01*
X457867Y278305D01*
X457999Y278250D01*
Y277750D01*
X457867Y277695D01*
X457304Y277133D01*
X457000Y276398D01*
Y275602D01*
X457304Y274867D01*
X457867Y274305D01*
X458602Y274000D01*
X459398D01*
X460133Y274305D01*
X460696Y274867D01*
X461000Y275602D01*
Y276398D01*
X460696Y277133D01*
X460133Y277695D01*
X460001Y277750D01*
Y278250D01*
X460133Y278305D01*
X460696Y278867D01*
X461000Y279602D01*
Y280398D01*
X460696Y281133D01*
X460133Y281696D01*
X460001Y281750D01*
Y282250D01*
X460133Y282305D01*
X460696Y282867D01*
X461000Y283602D01*
Y284398D01*
X460696Y285133D01*
X460133Y285696D01*
X459398Y286000D01*
D02*
G37*
G36*
X505487Y281193D02*
X504410D01*
X503370Y280914D01*
X502437Y280376D01*
X501676Y279614D01*
X501137Y278681D01*
X500858Y277641D01*
Y276564D01*
X501137Y275523D01*
X501676Y274591D01*
X502437Y273829D01*
X503370Y273291D01*
X504410Y273012D01*
X505487D01*
X506528Y273291D01*
X507460Y273829D01*
X508222Y274591D01*
X508761Y275523D01*
X509039Y276564D01*
Y277641D01*
X508761Y278681D01*
X508222Y279614D01*
X507460Y280376D01*
X506528Y280914D01*
X505487Y281193D01*
D02*
G37*
G36*
X332734Y280519D02*
X331938D01*
X331203Y280215D01*
X330641Y279652D01*
X330336Y278917D01*
Y278122D01*
X330641Y277386D01*
X331203Y276824D01*
X331335Y276769D01*
Y276269D01*
X331203Y276215D01*
X330641Y275652D01*
X330336Y274917D01*
Y274122D01*
X330641Y273387D01*
X331203Y272824D01*
X331938Y272519D01*
X332734D01*
X333469Y272824D01*
X334032Y273387D01*
X334336Y274122D01*
Y274917D01*
X334032Y275652D01*
X333469Y276215D01*
X333338Y276269D01*
Y276769D01*
X333469Y276824D01*
X334032Y277386D01*
X334336Y278122D01*
Y278917D01*
X334032Y279652D01*
X333469Y280215D01*
X332734Y280519D01*
D02*
G37*
G36*
X241376Y280492D02*
X240325D01*
X239310Y280220D01*
X238399Y279695D01*
X237656Y278951D01*
X237130Y278041D01*
X236858Y277026D01*
Y275974D01*
X237130Y274959D01*
X237656Y274049D01*
X238399Y273306D01*
X239310Y272780D01*
X240325Y272508D01*
X241376D01*
X242391Y272780D01*
X243302Y273306D01*
X244045Y274049D01*
X244571Y274959D01*
X244843Y275974D01*
Y277026D01*
X244571Y278041D01*
X244045Y278951D01*
X243302Y279695D01*
X242391Y280220D01*
X241376Y280492D01*
D02*
G37*
G36*
X350914Y276016D02*
X350118D01*
X349383Y275711D01*
X348820Y275149D01*
X348516Y274414D01*
Y273618D01*
X348820Y272883D01*
X349383Y272320D01*
X350118Y272016D01*
X350914D01*
X351649Y272320D01*
X352211Y272883D01*
X352516Y273618D01*
Y274414D01*
X352211Y275149D01*
X351649Y275711D01*
X350914Y276016D01*
D02*
G37*
G36*
X560898Y275500D02*
X560102D01*
X559367Y275196D01*
X558805Y274633D01*
X558500Y273898D01*
Y273102D01*
X558805Y272367D01*
X559367Y271804D01*
X560102Y271500D01*
X560898D01*
X561633Y271804D01*
X562195Y272367D01*
X562500Y273102D01*
Y273898D01*
X562195Y274633D01*
X561633Y275196D01*
X560898Y275500D01*
D02*
G37*
G36*
X555398D02*
X554602D01*
X553867Y275196D01*
X553304Y274633D01*
X553000Y273898D01*
Y273102D01*
X553304Y272367D01*
X553867Y271804D01*
X554602Y271500D01*
X555398D01*
X556133Y271804D01*
X556696Y272367D01*
X557000Y273102D01*
Y273898D01*
X556696Y274633D01*
X556133Y275196D01*
X555398Y275500D01*
D02*
G37*
G36*
X549898D02*
X549102D01*
X548367Y275196D01*
X547804Y274633D01*
X547500Y273898D01*
Y273102D01*
X547804Y272367D01*
X548367Y271804D01*
X549102Y271500D01*
X549898D01*
X550633Y271804D01*
X551195Y272367D01*
X551500Y273102D01*
Y273898D01*
X551195Y274633D01*
X550633Y275196D01*
X549898Y275500D01*
D02*
G37*
G36*
X522898Y274000D02*
X522102D01*
X521367Y273695D01*
X520805Y273133D01*
X520500Y272398D01*
Y271602D01*
X520805Y270867D01*
X521367Y270304D01*
X522102Y270000D01*
X522898D01*
X523633Y270304D01*
X524195Y270867D01*
X524500Y271602D01*
Y272398D01*
X524195Y273133D01*
X523633Y273695D01*
X522898Y274000D01*
D02*
G37*
G36*
X405407Y272009D02*
X404611D01*
X403876Y271704D01*
X403313Y271142D01*
X403009Y270407D01*
Y269611D01*
X403313Y268876D01*
X403876Y268313D01*
X404611Y268009D01*
X405407D01*
X406142Y268313D01*
X406704Y268876D01*
X407009Y269611D01*
Y270407D01*
X406704Y271142D01*
X406142Y271704D01*
X405407Y272009D01*
D02*
G37*
G36*
X585898Y283500D02*
X585102D01*
X584367Y283195D01*
X583805Y282633D01*
X583500Y281898D01*
Y281102D01*
X583805Y280367D01*
X584095Y280077D01*
X584328Y279750D01*
X584095Y279423D01*
X583805Y279133D01*
X583500Y278398D01*
Y277602D01*
X583805Y276867D01*
X584367Y276305D01*
X584499Y276250D01*
Y275750D01*
X584367Y275695D01*
X583805Y275133D01*
X583500Y274398D01*
Y273602D01*
X583805Y272867D01*
X584367Y272305D01*
X584499Y272250D01*
Y271750D01*
X584367Y271695D01*
X583805Y271133D01*
X583500Y270398D01*
Y269602D01*
X583805Y268867D01*
X584367Y268304D01*
X585102Y268000D01*
X585898D01*
X586633Y268304D01*
X587195Y268867D01*
X587500Y269602D01*
Y270398D01*
X587195Y271133D01*
X586633Y271695D01*
X586501Y271750D01*
Y272250D01*
X586633Y272305D01*
X587195Y272867D01*
X587500Y273602D01*
Y274398D01*
X587195Y275133D01*
X586633Y275695D01*
X586501Y275750D01*
Y276250D01*
X586633Y276305D01*
X587195Y276867D01*
X587500Y277602D01*
Y278398D01*
X587195Y279133D01*
X586905Y279423D01*
X586672Y279750D01*
X586905Y280077D01*
X587195Y280367D01*
X587500Y281102D01*
Y281898D01*
X587195Y282633D01*
X586633Y283195D01*
X585898Y283500D01*
D02*
G37*
G36*
X300898Y272000D02*
X300102D01*
X299367Y271695D01*
X298804Y271133D01*
X298500Y270398D01*
Y269602D01*
X298804Y268867D01*
X299367Y268304D01*
X300102Y268000D01*
X300898D01*
X301633Y268304D01*
X302196Y268867D01*
X302500Y269602D01*
Y270398D01*
X302196Y271133D01*
X301633Y271695D01*
X300898Y272000D01*
D02*
G37*
G36*
X598398Y279000D02*
X597602D01*
X596867Y278696D01*
X596305Y278133D01*
X596000Y277398D01*
Y276602D01*
X596305Y275867D01*
X596867Y275305D01*
X596999Y275250D01*
Y274750D01*
X596867Y274695D01*
X596305Y274133D01*
X596000Y273398D01*
Y272602D01*
X596305Y271867D01*
X596867Y271304D01*
X596999Y271250D01*
Y270750D01*
X596867Y270695D01*
X596305Y270133D01*
X596000Y269398D01*
Y268602D01*
X596305Y267867D01*
X596867Y267304D01*
X597602Y267000D01*
X598398D01*
X599133Y267304D01*
X599695Y267867D01*
X600000Y268602D01*
Y269398D01*
X599695Y270133D01*
X599133Y270695D01*
X599001Y270750D01*
Y271250D01*
X599133Y271304D01*
X599695Y271867D01*
X600000Y272602D01*
Y273398D01*
X599695Y274133D01*
X599133Y274695D01*
X599001Y274750D01*
Y275250D01*
X599133Y275305D01*
X599695Y275867D01*
X600000Y276602D01*
Y277398D01*
X599695Y278133D01*
X599133Y278696D01*
X598398Y279000D01*
D02*
G37*
G36*
X460398Y270000D02*
X459602D01*
X458867Y269695D01*
X458305Y269133D01*
X458000Y268398D01*
Y267602D01*
X458305Y266867D01*
X458867Y266304D01*
X459602Y266000D01*
X460398D01*
X461133Y266304D01*
X461695Y266867D01*
X462000Y267602D01*
Y268398D01*
X461695Y269133D01*
X461133Y269695D01*
X460398Y270000D01*
D02*
G37*
G36*
X581376Y267538D02*
X580580D01*
X579845Y267233D01*
X579282Y266671D01*
X578978Y265936D01*
X578500Y265898D01*
X578195Y266633D01*
X577633Y267196D01*
X576898Y267500D01*
X576102D01*
X575367Y267196D01*
X574804Y266633D01*
X574500Y265898D01*
Y265102D01*
X574804Y264367D01*
X575367Y263805D01*
X576102Y263500D01*
X576898D01*
X577633Y263805D01*
X578195Y264367D01*
X578500Y265102D01*
X578978Y265140D01*
X579282Y264405D01*
X579845Y263842D01*
X580580Y263538D01*
X581376D01*
X582111Y263842D01*
X582673Y264405D01*
X582978Y265140D01*
Y265936D01*
X582673Y266671D01*
X582111Y267233D01*
X581376Y267538D01*
D02*
G37*
G36*
X561398Y269000D02*
X560602D01*
X559867Y268695D01*
X559305Y268133D01*
X559000Y267398D01*
Y266602D01*
X559305Y265867D01*
X559867Y265304D01*
X560602Y265000D01*
X561398D01*
X562133Y265304D01*
X562696Y265867D01*
X563000Y266602D01*
Y267398D01*
X562696Y268133D01*
X562133Y268695D01*
X561398Y269000D01*
D02*
G37*
G36*
X697898Y265500D02*
X697102D01*
X696367Y265195D01*
X696077Y264905D01*
X695750Y264672D01*
X695423Y264905D01*
X695133Y265195D01*
X694398Y265500D01*
X693602D01*
X692867Y265195D01*
X692577Y264905D01*
X692250Y264672D01*
X691923Y264905D01*
X691633Y265195D01*
X690898Y265500D01*
X690102D01*
X689367Y265195D01*
X689077Y264905D01*
X688750Y264672D01*
X688423Y264905D01*
X688133Y265195D01*
X687398Y265500D01*
X686602D01*
X685867Y265195D01*
X685304Y264633D01*
X685000Y263898D01*
Y263102D01*
X685304Y262367D01*
X685867Y261805D01*
X686602Y261500D01*
X687398D01*
X688133Y261805D01*
X688423Y262095D01*
X688750Y262328D01*
X689077Y262095D01*
X689367Y261805D01*
X690102Y261500D01*
X690898D01*
X691633Y261805D01*
X691923Y262095D01*
X692250Y262328D01*
X692577Y262095D01*
X692867Y261805D01*
X693602Y261500D01*
X694398D01*
X695133Y261805D01*
X695423Y262095D01*
X695750Y262328D01*
X696077Y262095D01*
X696367Y261805D01*
X697102Y261500D01*
X697898D01*
X698633Y261805D01*
X699195Y262367D01*
X699500Y263102D01*
Y263898D01*
X699195Y264633D01*
X698633Y265195D01*
X697898Y265500D01*
D02*
G37*
G36*
X305704Y267693D02*
X304909D01*
X304174Y267388D01*
X303611Y266826D01*
X303307Y266090D01*
Y265295D01*
X303611Y264560D01*
X304174Y263997D01*
X304909Y263693D01*
X305704D01*
X306439Y263997D01*
X307002Y264560D01*
X307307Y265295D01*
Y266090D01*
X307002Y266826D01*
X306439Y267388D01*
X305704Y267693D01*
D02*
G37*
G36*
X585898Y267500D02*
X585102D01*
X584367Y267196D01*
X583805Y266633D01*
X583500Y265898D01*
Y265102D01*
X583805Y264367D01*
X584367Y263805D01*
X585102Y263500D01*
X585898D01*
X586633Y263805D01*
X587195Y264367D01*
X587500Y265102D01*
Y265898D01*
X587195Y266633D01*
X586633Y267196D01*
X585898Y267500D01*
D02*
G37*
G36*
X509039Y271193D02*
X500858D01*
Y263012D01*
X509039D01*
Y271193D01*
D02*
G37*
G36*
X512898Y267000D02*
X512102D01*
X511367Y266695D01*
X510805Y266133D01*
X510500Y265398D01*
Y264602D01*
X510805Y263867D01*
X511367Y263304D01*
X512102Y263000D01*
X512898D01*
X513633Y263304D01*
X514195Y263867D01*
X514500Y264602D01*
Y265398D01*
X514195Y266133D01*
X513633Y266695D01*
X512898Y267000D01*
D02*
G37*
G36*
X527398Y263500D02*
X526602D01*
X525867Y263195D01*
X525500Y262828D01*
X525133Y263195D01*
X524398Y263500D01*
X523602D01*
X522867Y263195D01*
X522304Y262633D01*
X522000Y261898D01*
Y261102D01*
X522304Y260367D01*
X522672Y260000D01*
X522304Y259633D01*
X522000Y258898D01*
Y258102D01*
X522304Y257367D01*
X522672Y257000D01*
X522304Y256633D01*
X522000Y255898D01*
Y255102D01*
X522304Y254367D01*
X522672Y254000D01*
X522304Y253633D01*
X522000Y252898D01*
Y252102D01*
X522304Y251367D01*
X522672Y251000D01*
X522304Y250633D01*
X522000Y249898D01*
Y249102D01*
X522304Y248367D01*
X522672Y248000D01*
X522304Y247633D01*
X522000Y246898D01*
Y246102D01*
X522304Y245367D01*
X522672Y245000D01*
X522304Y244633D01*
X522000Y243898D01*
Y243102D01*
X522304Y242367D01*
X522672Y242000D01*
X522304Y241633D01*
X522000Y240898D01*
Y240102D01*
X522304Y239367D01*
X522867Y238805D01*
X523602Y238500D01*
X524398D01*
X525133Y238805D01*
X525500Y239172D01*
X525867Y238805D01*
X526602Y238500D01*
X527398D01*
X528133Y238805D01*
X528695Y239367D01*
X529000Y240102D01*
Y240898D01*
X528695Y241633D01*
X528328Y242000D01*
X528695Y242367D01*
X529000Y243102D01*
Y243898D01*
X528695Y244633D01*
X528328Y245000D01*
X528695Y245367D01*
X529000Y246102D01*
Y246898D01*
X528695Y247633D01*
X528328Y248000D01*
X528695Y248367D01*
X529000Y249102D01*
Y249898D01*
X528695Y250633D01*
X528328Y251000D01*
X528695Y251367D01*
X529000Y252102D01*
Y252898D01*
X528695Y253633D01*
X528328Y254000D01*
X528695Y254367D01*
X529000Y255102D01*
Y255898D01*
X528695Y256633D01*
X528328Y257000D01*
X528695Y257367D01*
X529000Y258102D01*
Y258898D01*
X528695Y259633D01*
X528328Y260000D01*
X528695Y260367D01*
X529000Y261102D01*
Y261898D01*
X528695Y262633D01*
X528133Y263195D01*
X527398Y263500D01*
D02*
G37*
G36*
X241376Y270492D02*
X240325D01*
X239310Y270220D01*
X238399Y269694D01*
X237656Y268951D01*
X237130Y268041D01*
X236858Y267026D01*
Y265974D01*
X237130Y264959D01*
X237656Y264049D01*
X238399Y263305D01*
X239310Y262780D01*
X240325Y262508D01*
X241376D01*
X242391Y262780D01*
X243302Y263305D01*
X244045Y264049D01*
X244571Y264959D01*
X244843Y265974D01*
Y267026D01*
X244571Y268041D01*
X244045Y268951D01*
X243302Y269694D01*
X242391Y270220D01*
X241376Y270492D01*
D02*
G37*
G36*
X598398Y266500D02*
X597602D01*
X596867Y266196D01*
X596305Y265633D01*
X596000Y264898D01*
Y264102D01*
X596305Y263367D01*
X596867Y262805D01*
X597602Y262500D01*
X598398D01*
X599133Y262805D01*
X599695Y263367D01*
X600000Y264102D01*
Y264898D01*
X599695Y265633D01*
X599133Y266196D01*
X598398Y266500D01*
D02*
G37*
G36*
X679398Y259500D02*
X678602D01*
X677867Y259195D01*
X677305Y258633D01*
X677250Y258501D01*
X676750D01*
X676695Y258633D01*
X676133Y259195D01*
X675398Y259500D01*
X674602D01*
X673867Y259195D01*
X673305Y258633D01*
X673250Y258501D01*
X672750D01*
X672695Y258633D01*
X672133Y259195D01*
X671398Y259500D01*
X670602D01*
X669867Y259195D01*
X669305Y258633D01*
X669000Y257898D01*
Y257102D01*
X669305Y256367D01*
X669867Y255804D01*
X670602Y255500D01*
X671398D01*
X672133Y255804D01*
X672695Y256367D01*
X672750Y256499D01*
X673250D01*
X673305Y256367D01*
X673867Y255804D01*
X674602Y255500D01*
X675398D01*
X676133Y255804D01*
X676695Y256367D01*
X676750Y256499D01*
X677250D01*
X677305Y256367D01*
X677867Y255804D01*
X678602Y255500D01*
X679398D01*
X680133Y255804D01*
X680695Y256367D01*
X681000Y257102D01*
Y257898D01*
X680695Y258633D01*
X680133Y259195D01*
X679398Y259500D01*
D02*
G37*
G36*
X548398Y262500D02*
X547602D01*
X546867Y262195D01*
X546305Y261633D01*
X546000Y260898D01*
Y260102D01*
X546305Y259367D01*
X546867Y258804D01*
X547602Y258500D01*
X548398D01*
X549133Y258804D01*
X549695Y259367D01*
X550000Y260102D01*
Y260898D01*
X549695Y261633D01*
X549133Y262195D01*
X548398Y262500D01*
D02*
G37*
G36*
X543398D02*
X542602D01*
X541867Y262195D01*
X541304Y261633D01*
X541000Y260898D01*
Y260102D01*
X541304Y259367D01*
X541867Y258804D01*
X542602Y258500D01*
X543398D01*
X544133Y258804D01*
X544696Y259367D01*
X545000Y260102D01*
Y260898D01*
X544696Y261633D01*
X544133Y262195D01*
X543398Y262500D01*
D02*
G37*
G36*
X512898D02*
X512102D01*
X511367Y262195D01*
X510805Y261633D01*
X510500Y260898D01*
Y260102D01*
X510805Y259367D01*
X511367Y258804D01*
X512102Y258500D01*
X512898D01*
X513633Y258804D01*
X514195Y259367D01*
X514500Y260102D01*
Y260898D01*
X514195Y261633D01*
X513633Y262195D01*
X512898Y262500D01*
D02*
G37*
G36*
X376898Y270500D02*
X376102D01*
X375367Y270196D01*
X374804Y269633D01*
X374500Y268898D01*
Y268102D01*
X374804Y267367D01*
X375367Y266805D01*
X375499Y266750D01*
Y266250D01*
X375367Y266196D01*
X374804Y265633D01*
X374500Y264898D01*
Y264102D01*
X374804Y263367D01*
X375367Y262805D01*
X375499Y262750D01*
Y262250D01*
X375367Y262195D01*
X374804Y261633D01*
X374500Y260898D01*
Y260102D01*
X374804Y259367D01*
X375367Y258804D01*
X376102Y258500D01*
X376898D01*
X377633Y258804D01*
X378196Y259367D01*
X378500Y260102D01*
Y260898D01*
X378196Y261633D01*
X377633Y262195D01*
X377501Y262250D01*
Y262750D01*
X377633Y262805D01*
X378196Y263367D01*
X378500Y264102D01*
Y264898D01*
X378196Y265633D01*
X377633Y266196D01*
X377501Y266250D01*
Y266750D01*
X377633Y266805D01*
X378196Y267367D01*
X378500Y268102D01*
Y268898D01*
X378196Y269633D01*
X377633Y270196D01*
X376898Y270500D01*
D02*
G37*
G36*
X430898Y258500D02*
X430102D01*
X429367Y258195D01*
X428804Y257633D01*
X428750Y257501D01*
X428250D01*
X428195Y257633D01*
X427633Y258195D01*
X426898Y258500D01*
X426102D01*
X425367Y258195D01*
X424804Y257633D01*
X424500Y256898D01*
Y256102D01*
X424804Y255367D01*
X425367Y254804D01*
X426102Y254500D01*
X426898D01*
X427633Y254804D01*
X428195Y255367D01*
X428250Y255499D01*
X428750D01*
X428804Y255367D01*
X429367Y254804D01*
X430102Y254500D01*
X430898D01*
X431633Y254804D01*
X432196Y255367D01*
X432500Y256102D01*
Y256898D01*
X432196Y257633D01*
X431633Y258195D01*
X430898Y258500D01*
D02*
G37*
G36*
X399898D02*
X399102D01*
X398367Y258195D01*
X397804Y257633D01*
X397750Y257501D01*
X397250D01*
X397196Y257633D01*
X396633Y258195D01*
X395898Y258500D01*
X395102D01*
X394367Y258195D01*
X393805Y257633D01*
X393750Y257501D01*
X393250D01*
X393196Y257633D01*
X392633Y258195D01*
X391898Y258500D01*
X391102D01*
X390367Y258195D01*
X389805Y257633D01*
X389500Y256898D01*
Y256102D01*
X389805Y255367D01*
X390367Y254804D01*
X391102Y254500D01*
X391898D01*
X392633Y254804D01*
X393196Y255367D01*
X393250Y255499D01*
X393750D01*
X393805Y255367D01*
X394367Y254804D01*
X395102Y254500D01*
X395898D01*
X396633Y254804D01*
X397196Y255367D01*
X397250Y255499D01*
X397750D01*
X397804Y255367D01*
X398367Y254804D01*
X399102Y254500D01*
X399898D01*
X400633Y254804D01*
X401195Y255367D01*
X401500Y256102D01*
Y256898D01*
X401195Y257633D01*
X400633Y258195D01*
X399898Y258500D01*
D02*
G37*
G36*
X343398Y263000D02*
X342602D01*
X341867Y262696D01*
X341304Y262133D01*
X341000Y261398D01*
Y260602D01*
X341304Y259867D01*
X341867Y259304D01*
X342602Y259000D01*
X343208D01*
X343528Y258624D01*
X343558Y258538D01*
X343500Y258398D01*
Y257602D01*
X343805Y256867D01*
X344367Y256305D01*
X345102Y256000D01*
X345898D01*
X346633Y256305D01*
X347196Y256867D01*
X347500Y257602D01*
Y258398D01*
X347196Y259133D01*
X346633Y259696D01*
X345898Y260000D01*
X345292D01*
X344972Y260376D01*
X344942Y260462D01*
X345000Y260602D01*
Y261398D01*
X344695Y262133D01*
X344133Y262696D01*
X343398Y263000D01*
D02*
G37*
G36*
X422398Y259000D02*
X421602D01*
X420867Y258696D01*
X420304Y258133D01*
X420000Y257398D01*
Y256602D01*
X420304Y255867D01*
X420867Y255305D01*
X421602Y255000D01*
X422398D01*
X423133Y255305D01*
X423696Y255867D01*
X424000Y256602D01*
Y257398D01*
X423696Y258133D01*
X423133Y258696D01*
X422398Y259000D01*
D02*
G37*
G36*
X404398Y258500D02*
X403602D01*
X402867Y258195D01*
X402305Y257633D01*
X402000Y256898D01*
Y256102D01*
X402305Y255367D01*
X402867Y254804D01*
X403602Y254500D01*
X404398D01*
X405133Y254804D01*
X405695Y255367D01*
X406000Y256102D01*
Y256898D01*
X405695Y257633D01*
X405133Y258195D01*
X404398Y258500D01*
D02*
G37*
G36*
X548398Y258000D02*
X547602D01*
X546867Y257696D01*
X546305Y257133D01*
X546000Y256398D01*
Y255602D01*
X546305Y254867D01*
X546867Y254305D01*
X547602Y254000D01*
X548398D01*
X549133Y254305D01*
X549695Y254867D01*
X550000Y255602D01*
Y256398D01*
X549695Y257133D01*
X549133Y257696D01*
X548398Y258000D01*
D02*
G37*
G36*
X543398D02*
X542602D01*
X541867Y257696D01*
X541304Y257133D01*
X541000Y256398D01*
Y255602D01*
X541304Y254867D01*
X541867Y254305D01*
X542602Y254000D01*
X543398D01*
X544133Y254305D01*
X544696Y254867D01*
X545000Y255602D01*
Y256398D01*
X544696Y257133D01*
X544133Y257696D01*
X543398Y258000D01*
D02*
G37*
G36*
X512898Y257500D02*
X512102D01*
X511367Y257195D01*
X510805Y256633D01*
X510500Y255898D01*
Y255102D01*
X510805Y254367D01*
X511367Y253804D01*
X512102Y253500D01*
X512898D01*
X513633Y253804D01*
X514195Y254367D01*
X514500Y255102D01*
Y255898D01*
X514195Y256633D01*
X513633Y257195D01*
X512898Y257500D01*
D02*
G37*
G36*
X475898Y257046D02*
X475102D01*
X474367Y256742D01*
X473805Y256179D01*
X473500Y255444D01*
Y254648D01*
X473805Y253913D01*
X474367Y253351D01*
X475102Y253046D01*
X475898D01*
X476633Y253351D01*
X477196Y253913D01*
X477500Y254648D01*
Y255444D01*
X477196Y256179D01*
X476633Y256742D01*
X475898Y257046D01*
D02*
G37*
G36*
X241376Y260492D02*
X240325D01*
X239310Y260220D01*
X238399Y259695D01*
X237656Y258951D01*
X237130Y258041D01*
X236858Y257026D01*
Y255974D01*
X237130Y254959D01*
X237656Y254049D01*
X238399Y253306D01*
X239310Y252780D01*
X240325Y252508D01*
X241376D01*
X242391Y252780D01*
X243302Y253306D01*
X244045Y254049D01*
X244571Y254959D01*
X244843Y255974D01*
Y257026D01*
X244571Y258041D01*
X244045Y258951D01*
X243302Y259695D01*
X242391Y260220D01*
X241376Y260492D01*
D02*
G37*
G36*
X333898Y255500D02*
X333102D01*
X332367Y255195D01*
X331804Y254633D01*
X331500Y253898D01*
Y253102D01*
X331804Y252367D01*
X332367Y251804D01*
X333102Y251500D01*
X333898D01*
X334633Y251804D01*
X335195Y252367D01*
X335500Y253102D01*
Y253898D01*
X335195Y254633D01*
X334633Y255195D01*
X333898Y255500D01*
D02*
G37*
G36*
X598398Y261500D02*
X597602D01*
X596867Y261195D01*
X596305Y260633D01*
X596000Y259898D01*
Y259102D01*
X596305Y258367D01*
X596867Y257804D01*
X596999Y257750D01*
Y257250D01*
X596867Y257195D01*
X596305Y256633D01*
X596000Y255898D01*
Y255102D01*
X596305Y254367D01*
X596867Y253804D01*
X596999Y253750D01*
Y253250D01*
X596867Y253196D01*
X596305Y252633D01*
X596000Y251898D01*
Y251102D01*
X596305Y250367D01*
X596867Y249804D01*
X597602Y249500D01*
X598398D01*
X599133Y249804D01*
X599695Y250367D01*
X600000Y251102D01*
Y251898D01*
X599695Y252633D01*
X599133Y253196D01*
X599001Y253250D01*
Y253750D01*
X599133Y253804D01*
X599695Y254367D01*
X600000Y255102D01*
Y255898D01*
X599695Y256633D01*
X599133Y257195D01*
X599001Y257250D01*
Y257750D01*
X599133Y257804D01*
X599695Y258367D01*
X600000Y259102D01*
Y259898D01*
X599695Y260633D01*
X599133Y261195D01*
X598398Y261500D01*
D02*
G37*
G36*
X512898Y252500D02*
X512102D01*
X511367Y252196D01*
X510805Y251633D01*
X510500Y250898D01*
Y250102D01*
X510805Y249367D01*
X511367Y248804D01*
X512102Y248500D01*
X512898D01*
X513633Y248804D01*
X514195Y249367D01*
X514500Y250102D01*
Y250898D01*
X514195Y251633D01*
X513633Y252196D01*
X512898Y252500D01*
D02*
G37*
G36*
X679398Y249000D02*
X678602D01*
X677867Y248695D01*
X677305Y248133D01*
X677250Y248001D01*
X676750D01*
X676695Y248133D01*
X676133Y248695D01*
X675398Y249000D01*
X674602D01*
X673867Y248695D01*
X673305Y248133D01*
X673250Y248001D01*
X672750D01*
X672695Y248133D01*
X672133Y248695D01*
X671398Y249000D01*
X670602D01*
X669867Y248695D01*
X669305Y248133D01*
X669000Y247398D01*
Y246602D01*
X669305Y245867D01*
X669867Y245304D01*
X670602Y245000D01*
X671398D01*
X672133Y245304D01*
X672695Y245867D01*
X672750Y245999D01*
X673250D01*
X673305Y245867D01*
X673867Y245304D01*
X674602Y245000D01*
X675398D01*
X676133Y245304D01*
X676695Y245867D01*
X676750Y245999D01*
X677250D01*
X677305Y245867D01*
X677867Y245304D01*
X678602Y245000D01*
X679398D01*
X680133Y245304D01*
X680695Y245867D01*
X681000Y246602D01*
Y247398D01*
X680695Y248133D01*
X680133Y248695D01*
X679398Y249000D01*
D02*
G37*
G36*
X486398Y251500D02*
X485602D01*
X484867Y251196D01*
X484305Y250633D01*
X484000Y249898D01*
Y249102D01*
X484305Y248367D01*
X484867Y247804D01*
X485602Y247500D01*
X486398D01*
X487133Y247804D01*
X487696Y248367D01*
X488000Y249102D01*
Y249898D01*
X487696Y250633D01*
X487133Y251196D01*
X486398Y251500D01*
D02*
G37*
G36*
X282398Y250000D02*
X281602D01*
X280867Y249695D01*
X280305Y249133D01*
X280000Y248398D01*
Y247602D01*
X280305Y246867D01*
X280867Y246304D01*
X281602Y246000D01*
X282398D01*
X283133Y246304D01*
X283696Y246867D01*
X284000Y247602D01*
Y248398D01*
X283696Y249133D01*
X283133Y249695D01*
X282398Y250000D01*
D02*
G37*
G36*
X429898Y246500D02*
X429102D01*
X428367Y246196D01*
X427805Y245633D01*
X427750Y245501D01*
X427250D01*
X427196Y245633D01*
X426633Y246196D01*
X425898Y246500D01*
X425102D01*
X424367Y246196D01*
X423805Y245633D01*
X423750Y245501D01*
X423250D01*
X423196Y245633D01*
X422633Y246196D01*
X421898Y246500D01*
X421102D01*
X420367Y246196D01*
X419804Y245633D01*
X419500Y244898D01*
Y244102D01*
X419804Y243367D01*
X420367Y242805D01*
X421102Y242500D01*
X421898D01*
X422633Y242805D01*
X423196Y243367D01*
X423250Y243499D01*
X423750D01*
X423805Y243367D01*
X424367Y242805D01*
X425102Y242500D01*
X425898D01*
X426633Y242805D01*
X427196Y243367D01*
X427250Y243499D01*
X427750D01*
X427805Y243367D01*
X428367Y242805D01*
X429102Y242500D01*
X429898D01*
X430633Y242805D01*
X431195Y243367D01*
X431500Y244102D01*
Y244898D01*
X431195Y245633D01*
X430633Y246196D01*
X429898Y246500D01*
D02*
G37*
G36*
X417398D02*
X416602D01*
X415867Y246196D01*
X415305Y245633D01*
X415250Y245501D01*
X414750D01*
X414696Y245633D01*
X414133Y246196D01*
X413398Y246500D01*
X412602D01*
X411867Y246196D01*
X411305Y245633D01*
X411250Y245501D01*
X410750D01*
X410696Y245633D01*
X410133Y246196D01*
X409398Y246500D01*
X408602D01*
X407867Y246196D01*
X407304Y245633D01*
X407000Y244898D01*
Y244102D01*
X407304Y243367D01*
X407867Y242805D01*
X408602Y242500D01*
X409398D01*
X410133Y242805D01*
X410696Y243367D01*
X410750Y243499D01*
X411250D01*
X411305Y243367D01*
X411867Y242805D01*
X412602Y242500D01*
X413398D01*
X414133Y242805D01*
X414696Y243367D01*
X414750Y243499D01*
X415250D01*
X415305Y243367D01*
X415867Y242805D01*
X416602Y242500D01*
X417398D01*
X418133Y242805D01*
X418695Y243367D01*
X419000Y244102D01*
Y244898D01*
X418695Y245633D01*
X418133Y246196D01*
X417398Y246500D01*
D02*
G37*
G36*
X395898D02*
X395102D01*
X394367Y246196D01*
X393805Y245633D01*
X393750Y245501D01*
X393250D01*
X393196Y245633D01*
X392633Y246196D01*
X391898Y246500D01*
X391102D01*
X390367Y246196D01*
X389805Y245633D01*
X389500Y244898D01*
Y244102D01*
X389805Y243367D01*
X390367Y242805D01*
X391102Y242500D01*
X391898D01*
X392633Y242805D01*
X393196Y243367D01*
X393250Y243499D01*
X393750D01*
X393805Y243367D01*
X394367Y242805D01*
X395102Y242500D01*
X395898D01*
X396633Y242805D01*
X397196Y243367D01*
X397500Y244102D01*
Y244898D01*
X397196Y245633D01*
X396633Y246196D01*
X395898Y246500D01*
D02*
G37*
G36*
X337898Y249500D02*
X337102D01*
X336367Y249196D01*
X335805Y248633D01*
X335500Y247898D01*
Y247102D01*
X335805Y246367D01*
X336367Y245805D01*
X337102Y245500D01*
X337898D01*
X338633Y245805D01*
X339195Y246367D01*
X339500Y247102D01*
Y247898D01*
X339195Y248633D01*
X338633Y249196D01*
X337898Y249500D01*
D02*
G37*
G36*
X598398Y249000D02*
X597602D01*
X596867Y248695D01*
X596305Y248133D01*
X596000Y247398D01*
Y246602D01*
X596305Y245867D01*
X596867Y245304D01*
X597602Y245000D01*
X598398D01*
X599133Y245304D01*
X599695Y245867D01*
X600000Y246602D01*
Y247398D01*
X599695Y248133D01*
X599133Y248695D01*
X598398Y249000D01*
D02*
G37*
G36*
X512898Y247500D02*
X512102D01*
X511367Y247196D01*
X510805Y246633D01*
X510500Y245898D01*
Y245102D01*
X510805Y244367D01*
X511367Y243805D01*
X512102Y243500D01*
X512898D01*
X513633Y243805D01*
X514195Y244367D01*
X514500Y245102D01*
Y245898D01*
X514195Y246633D01*
X513633Y247196D01*
X512898Y247500D01*
D02*
G37*
G36*
X697898Y243500D02*
X697102D01*
X696367Y243196D01*
X696077Y242905D01*
X695750Y242672D01*
X695423Y242905D01*
X695133Y243196D01*
X694398Y243500D01*
X693602D01*
X692867Y243196D01*
X692577Y242905D01*
X692250Y242672D01*
X691923Y242905D01*
X691633Y243196D01*
X690898Y243500D01*
X690102D01*
X689367Y243196D01*
X689077Y242905D01*
X688750Y242672D01*
X688423Y242905D01*
X688133Y243196D01*
X687398Y243500D01*
X686602D01*
X685867Y243196D01*
X685304Y242633D01*
X685000Y241898D01*
Y241102D01*
X685304Y240367D01*
X685867Y239805D01*
X686602Y239500D01*
X687398D01*
X688133Y239805D01*
X688423Y240095D01*
X688750Y240328D01*
X689077Y240095D01*
X689367Y239805D01*
X690102Y239500D01*
X690898D01*
X691633Y239805D01*
X691923Y240095D01*
X692250Y240328D01*
X692577Y240095D01*
X692867Y239805D01*
X693602Y239500D01*
X694398D01*
X695133Y239805D01*
X695423Y240095D01*
X695750Y240328D01*
X696077Y240095D01*
X696367Y239805D01*
X697102Y239500D01*
X697898D01*
X698633Y239805D01*
X699195Y240367D01*
X699500Y241102D01*
Y241898D01*
X699195Y242633D01*
X698633Y243196D01*
X697898Y243500D01*
D02*
G37*
G36*
X404898Y246500D02*
X404102D01*
X403367Y246196D01*
X402805Y245633D01*
X402500Y244898D01*
Y244102D01*
X402805Y243367D01*
X403367Y242805D01*
X404102Y242500D01*
X404898D01*
X405633Y242805D01*
X406195Y243367D01*
X406500Y244102D01*
Y244898D01*
X406195Y245633D01*
X405633Y246196D01*
X404898Y246500D01*
D02*
G37*
G36*
X400398D02*
X399602D01*
X398867Y246196D01*
X398305Y245633D01*
X398000Y244898D01*
Y244102D01*
X398305Y243367D01*
X398867Y242805D01*
X399602Y242500D01*
X400398D01*
X401133Y242805D01*
X401695Y243367D01*
X402000Y244102D01*
Y244898D01*
X401695Y245633D01*
X401133Y246196D01*
X400398Y246500D01*
D02*
G37*
G36*
X340097Y245216D02*
X339302D01*
X338567Y244911D01*
X338004Y244348D01*
X337700Y243613D01*
Y242818D01*
X338004Y242083D01*
X338567Y241520D01*
X339302Y241215D01*
X340097D01*
X340833Y241520D01*
X341395Y242083D01*
X341700Y242818D01*
Y243613D01*
X341395Y244348D01*
X340833Y244911D01*
X340097Y245216D01*
D02*
G37*
G36*
X295386Y242677D02*
X294590D01*
X293855Y242373D01*
X293292Y241810D01*
X292988Y241075D01*
Y240280D01*
X293292Y239545D01*
X293855Y238982D01*
X294590Y238677D01*
X295386D01*
X296121Y238982D01*
X296683Y239545D01*
X296988Y240280D01*
Y241075D01*
X296683Y241810D01*
X296121Y242373D01*
X295386Y242677D01*
D02*
G37*
G36*
X512898Y242500D02*
X512102D01*
X511367Y242196D01*
X510805Y241633D01*
X510500Y240898D01*
Y240102D01*
X510805Y239367D01*
X511367Y238805D01*
X512102Y238500D01*
X512898D01*
X513633Y238805D01*
X514195Y239367D01*
X514500Y240102D01*
Y240898D01*
X514195Y241633D01*
X513633Y242196D01*
X512898Y242500D01*
D02*
G37*
G36*
X593898Y240500D02*
X593102D01*
X592367Y240195D01*
X591805Y239633D01*
X591500Y238898D01*
Y238102D01*
X591805Y237367D01*
X592367Y236805D01*
X593102Y236500D01*
X593898D01*
X594633Y236805D01*
X595195Y237367D01*
X595500Y238102D01*
Y238898D01*
X595195Y239633D01*
X594633Y240195D01*
X593898Y240500D01*
D02*
G37*
G36*
X273398Y238000D02*
X272602D01*
X271867Y237696D01*
X271304Y237133D01*
X271000Y236398D01*
Y235602D01*
X271304Y234867D01*
X271867Y234304D01*
X272602Y234000D01*
X273398D01*
X274133Y234304D01*
X274695Y234867D01*
X275000Y235602D01*
Y236398D01*
X274695Y237133D01*
X274133Y237696D01*
X273398Y238000D01*
D02*
G37*
G36*
X588398Y234500D02*
X587602D01*
X586867Y234195D01*
X586305Y233633D01*
X586250Y233501D01*
X585750D01*
X585696Y233633D01*
X585133Y234195D01*
X584398Y234500D01*
X583602D01*
X582867Y234195D01*
X582304Y233633D01*
X582000Y232898D01*
Y232102D01*
X582304Y231367D01*
X582867Y230804D01*
X583602Y230500D01*
X584398D01*
X585133Y230804D01*
X585696Y231367D01*
X585750Y231499D01*
X586250D01*
X586305Y231367D01*
X586867Y230804D01*
X587602Y230500D01*
X588398D01*
X589133Y230804D01*
X589696Y231367D01*
X590000Y232102D01*
Y232898D01*
X589696Y233633D01*
X589133Y234195D01*
X588398Y234500D01*
D02*
G37*
G36*
X347681Y237475D02*
X346886D01*
X346151Y237171D01*
X345588Y236608D01*
X345284Y235873D01*
Y235077D01*
X345588Y234342D01*
X346151Y233780D01*
X346886Y233475D01*
X347681D01*
X348417Y233780D01*
X348979Y234342D01*
X349284Y235077D01*
Y235873D01*
X348979Y236608D01*
X348417Y237171D01*
X347681Y237475D01*
D02*
G37*
G36*
X329398Y234500D02*
X328602D01*
X327867Y234195D01*
X327305Y233633D01*
X327167Y233301D01*
X327014Y233247D01*
X326597Y233231D01*
X326133Y233696D01*
X325398Y234000D01*
X324602D01*
X323867Y233696D01*
X323305Y233133D01*
X323000Y232398D01*
Y232201D01*
X322584Y231923D01*
X322398Y232000D01*
X321602D01*
X320867Y231696D01*
X320304Y231133D01*
X320261Y231028D01*
X319761D01*
X319711Y231149D01*
X319149Y231711D01*
X318414Y232016D01*
X317618D01*
X316883Y231711D01*
X316320Y231149D01*
X316016Y230414D01*
Y229618D01*
X316320Y228883D01*
X316883Y228320D01*
X317618Y228016D01*
X318414D01*
X319149Y228320D01*
X319711Y228883D01*
X319755Y228988D01*
X320255D01*
X320304Y228867D01*
X320867Y228305D01*
X321602Y228000D01*
X322398D01*
X323133Y228305D01*
X323695Y228867D01*
X324000Y229602D01*
Y229799D01*
X324416Y230077D01*
X324602Y230000D01*
X325398D01*
X326133Y230305D01*
X326695Y230867D01*
X326833Y231199D01*
X326986Y231253D01*
X327403Y231269D01*
X327867Y230804D01*
X328602Y230500D01*
X329398D01*
X330133Y230804D01*
X330696Y231367D01*
X331000Y232102D01*
Y232898D01*
X330696Y233633D01*
X330133Y234195D01*
X329398Y234500D01*
D02*
G37*
G36*
X241376Y240492D02*
X240325D01*
X239310Y240220D01*
X238399Y239694D01*
X237656Y238951D01*
X237130Y238041D01*
X236858Y237026D01*
Y235974D01*
X237130Y234959D01*
X237656Y234049D01*
X238399Y233306D01*
X239310Y232780D01*
X240325Y232508D01*
X241376D01*
X242391Y232780D01*
X243302Y233306D01*
X244045Y234049D01*
X244571Y234959D01*
X244843Y235974D01*
Y237026D01*
X244571Y238041D01*
X244045Y238951D01*
X243302Y239694D01*
X242391Y240220D01*
X241376Y240492D01*
D02*
G37*
G36*
X551398Y232000D02*
X550602D01*
X549867Y231696D01*
X549577Y231405D01*
X549250Y231172D01*
X548923Y231405D01*
X548633Y231696D01*
X547898Y232000D01*
X547102D01*
X546367Y231696D01*
X545805Y231133D01*
X545750Y231001D01*
X545250D01*
X545195Y231133D01*
X544633Y231696D01*
X543898Y232000D01*
X543102D01*
X542367Y231696D01*
X542077Y231405D01*
X541750Y231172D01*
X541423Y231405D01*
X541133Y231696D01*
X540398Y232000D01*
X539602D01*
X538867Y231696D01*
X538305Y231133D01*
X538000Y230398D01*
Y229602D01*
X538305Y228867D01*
X538867Y228305D01*
X539602Y228000D01*
X540398D01*
X541133Y228305D01*
X541423Y228595D01*
X541750Y228828D01*
X542077Y228595D01*
X542367Y228305D01*
X543102Y228000D01*
X543898D01*
X544633Y228305D01*
X545195Y228867D01*
X545250Y228999D01*
X545750D01*
X545805Y228867D01*
X546367Y228305D01*
X547102Y228000D01*
X547898D01*
X548633Y228305D01*
X548923Y228595D01*
X549250Y228828D01*
X549577Y228595D01*
X549867Y228305D01*
X550602Y228000D01*
X551398D01*
X552133Y228305D01*
X552696Y228867D01*
X553000Y229602D01*
Y230398D01*
X552696Y231133D01*
X552133Y231696D01*
X551398Y232000D01*
D02*
G37*
G36*
X593898Y235000D02*
X593102D01*
X592367Y234696D01*
X591805Y234133D01*
X591500Y233398D01*
Y232602D01*
X591805Y231867D01*
X592367Y231305D01*
X593102Y231000D01*
X593898D01*
X594633Y231305D01*
X595195Y231867D01*
X595500Y232602D01*
Y233398D01*
X595195Y234133D01*
X594633Y234696D01*
X593898Y235000D01*
D02*
G37*
G36*
X314398D02*
X313602D01*
X312867Y234696D01*
X312304Y234133D01*
X312000Y233398D01*
Y232602D01*
X312304Y231867D01*
X312867Y231305D01*
X313602Y231000D01*
X314398D01*
X315133Y231305D01*
X315696Y231867D01*
X316000Y232602D01*
Y233398D01*
X315696Y234133D01*
X315133Y234696D01*
X314398Y235000D01*
D02*
G37*
G36*
X579898Y234500D02*
X579102D01*
X578367Y234195D01*
X577805Y233633D01*
X577500Y232898D01*
Y232102D01*
X577805Y231367D01*
X578367Y230804D01*
X579102Y230500D01*
X579898D01*
X580633Y230804D01*
X581195Y231367D01*
X581500Y232102D01*
Y232898D01*
X581195Y233633D01*
X580633Y234195D01*
X579898Y234500D01*
D02*
G37*
G36*
X574423Y234488D02*
X573627D01*
X572892Y234183D01*
X572329Y233620D01*
X572025Y232885D01*
Y232090D01*
X572329Y231355D01*
X572892Y230792D01*
X573627Y230487D01*
X574423D01*
X575158Y230792D01*
X575720Y231355D01*
X576025Y232090D01*
Y232885D01*
X575720Y233620D01*
X575158Y234183D01*
X574423Y234488D01*
D02*
G37*
G36*
X303398Y235500D02*
X302602D01*
X301867Y235195D01*
X301305Y234633D01*
X301000Y233898D01*
Y233102D01*
X301305Y232367D01*
X301867Y231804D01*
X302602Y231500D01*
X303398D01*
X304000Y231749D01*
X304346Y231647D01*
X304540Y231505D01*
X304804Y230867D01*
X305367Y230305D01*
X306102Y230000D01*
X306898D01*
X307633Y230305D01*
X308195Y230867D01*
X308500Y231602D01*
Y232398D01*
X308195Y233133D01*
X307633Y233696D01*
X306898Y234000D01*
X306102D01*
X305500Y233751D01*
X305153Y233853D01*
X304960Y233995D01*
X304696Y234633D01*
X304133Y235195D01*
X303398Y235500D01*
D02*
G37*
G36*
X304398Y220595D02*
X303602D01*
X302867Y220290D01*
X302305Y219727D01*
X302000Y218992D01*
Y218197D01*
X302305Y217462D01*
X302867Y216899D01*
X303602Y216595D01*
X304398D01*
X305133Y216899D01*
X305696Y217462D01*
X306000Y218197D01*
Y218992D01*
X305696Y219727D01*
X305133Y220290D01*
X304398Y220595D01*
D02*
G37*
G36*
X523898Y219000D02*
X523102D01*
X522367Y218695D01*
X521805Y218133D01*
X521500Y217398D01*
Y216602D01*
X521805Y215867D01*
X522367Y215304D01*
X523102Y215000D01*
X523898D01*
X524633Y215304D01*
X525196Y215867D01*
X525500Y216602D01*
Y217398D01*
X525196Y218133D01*
X524633Y218695D01*
X523898Y219000D01*
D02*
G37*
G36*
X334398D02*
X333602D01*
X332867Y218695D01*
X332305Y218133D01*
X332000Y217398D01*
Y216602D01*
X332305Y215867D01*
X332867Y215304D01*
X333602Y215000D01*
X334398D01*
X335133Y215304D01*
X335696Y215867D01*
X336000Y216602D01*
Y217398D01*
X335696Y218133D01*
X335133Y218695D01*
X334398Y219000D01*
D02*
G37*
G36*
X441398Y217500D02*
X440602D01*
X439867Y217196D01*
X439304Y216633D01*
X439000Y215898D01*
Y215102D01*
X439304Y214367D01*
X439867Y213805D01*
X440602Y213500D01*
X441398D01*
X442133Y213805D01*
X442696Y214367D01*
X443000Y215102D01*
Y215898D01*
X442696Y216633D01*
X442133Y217196D01*
X441398Y217500D01*
D02*
G37*
G36*
X485898Y217000D02*
X485102D01*
X484367Y216695D01*
X483805Y216133D01*
X483500Y215398D01*
Y214602D01*
X483805Y213867D01*
X484367Y213304D01*
X485102Y213000D01*
X485898D01*
X486633Y213304D01*
X487195Y213867D01*
X487500Y214602D01*
Y215398D01*
X487195Y216133D01*
X486633Y216695D01*
X485898Y217000D01*
D02*
G37*
G36*
X543398Y216500D02*
X542602D01*
X541867Y216196D01*
X541304Y215633D01*
X541000Y214898D01*
Y214102D01*
X541304Y213367D01*
X541867Y212805D01*
X542602Y212500D01*
X543398D01*
X544133Y212805D01*
X544696Y213367D01*
X545000Y214102D01*
Y214898D01*
X544696Y215633D01*
X544133Y216196D01*
X543398Y216500D01*
D02*
G37*
G36*
X473898Y213000D02*
X473102D01*
X472367Y212696D01*
X471805Y212133D01*
X471500Y211398D01*
Y210602D01*
X471805Y209867D01*
X472367Y209304D01*
X473102Y209000D01*
X473898D01*
X474633Y209304D01*
X475196Y209867D01*
X475500Y210602D01*
Y211398D01*
X475196Y212133D01*
X474633Y212696D01*
X473898Y213000D01*
D02*
G37*
G36*
X570241Y212383D02*
X569446D01*
X568710Y212078D01*
X568148Y211516D01*
X567843Y210781D01*
Y209985D01*
X568148Y209250D01*
X568710Y208687D01*
X569446Y208383D01*
X570241D01*
X570976Y208687D01*
X571539Y209250D01*
X571843Y209985D01*
Y210781D01*
X571539Y211516D01*
X570976Y212078D01*
X570241Y212383D01*
D02*
G37*
G36*
X289398Y212000D02*
X288602D01*
X287867Y211696D01*
X287304Y211133D01*
X287000Y210398D01*
Y209602D01*
X287304Y208867D01*
X287867Y208305D01*
X288602Y208000D01*
X289398D01*
X290133Y208305D01*
X290696Y208867D01*
X291000Y209602D01*
Y210398D01*
X290696Y211133D01*
X290133Y211696D01*
X289398Y212000D01*
D02*
G37*
G36*
X580398Y211500D02*
X579602D01*
X578867Y211195D01*
X578304Y210633D01*
X578000Y209898D01*
Y209102D01*
X578304Y208367D01*
X578867Y207804D01*
X579602Y207500D01*
X580398D01*
X581133Y207804D01*
X581696Y208367D01*
X582000Y209102D01*
Y209898D01*
X581696Y210633D01*
X581133Y211195D01*
X580398Y211500D01*
D02*
G37*
G36*
X366398Y210500D02*
X365602D01*
X364867Y210195D01*
X364304Y209633D01*
X364000Y208898D01*
Y208102D01*
X364304Y207367D01*
X364867Y206804D01*
X365602Y206500D01*
X366398D01*
X367133Y206804D01*
X367695Y207367D01*
X368000Y208102D01*
Y208898D01*
X367695Y209633D01*
X367133Y210195D01*
X366398Y210500D01*
D02*
G37*
G36*
X242533Y214051D02*
X241467D01*
X240436Y213775D01*
X239512Y213242D01*
X238758Y212488D01*
X238225Y211564D01*
X237949Y210533D01*
Y209467D01*
X238225Y208436D01*
X238758Y207512D01*
X239512Y206758D01*
X240436Y206225D01*
X241467Y205949D01*
X242533D01*
X243564Y206225D01*
X244488Y206758D01*
X245242Y207512D01*
X245775Y208436D01*
X246051Y209467D01*
Y210533D01*
X245775Y211564D01*
X245242Y212488D01*
X244488Y213242D01*
X243564Y213775D01*
X242533Y214051D01*
D02*
G37*
G36*
X477898Y209500D02*
X477102D01*
X476367Y209195D01*
X475805Y208633D01*
X475500Y207898D01*
Y207102D01*
X475805Y206367D01*
X476367Y205804D01*
X477102Y205500D01*
X477898D01*
X478633Y205804D01*
X479195Y206367D01*
X479500Y207102D01*
Y207898D01*
X479195Y208633D01*
X478633Y209195D01*
X477898Y209500D01*
D02*
G37*
G36*
X445398Y208500D02*
X444602D01*
X443867Y208195D01*
X443304Y207633D01*
X443000Y206898D01*
Y206102D01*
X443304Y205367D01*
X443867Y204804D01*
X444602Y204500D01*
X445398D01*
X446133Y204804D01*
X446696Y205367D01*
X447000Y206102D01*
Y206898D01*
X446696Y207633D01*
X446133Y208195D01*
X445398Y208500D01*
D02*
G37*
G36*
X330398Y204500D02*
X329602D01*
X328867Y204195D01*
X328305Y203633D01*
X328000Y202898D01*
Y202102D01*
X328305Y201367D01*
X328867Y200804D01*
X329602Y200500D01*
X330398D01*
X331133Y200804D01*
X331696Y201367D01*
X332000Y202102D01*
Y202898D01*
X331696Y203633D01*
X331133Y204195D01*
X330398Y204500D01*
D02*
G37*
G36*
X604398Y200000D02*
X603602D01*
X602867Y199696D01*
X602305Y199133D01*
X602000Y198398D01*
Y197602D01*
X602305Y196867D01*
X602867Y196305D01*
X603602Y196000D01*
X604398D01*
X605133Y196305D01*
X605695Y196867D01*
X606000Y197602D01*
Y198398D01*
X605695Y199133D01*
X605133Y199696D01*
X604398Y200000D01*
D02*
G37*
G36*
X246051Y204051D02*
X237949D01*
Y195949D01*
X246051D01*
Y204051D01*
D02*
G37*
G36*
X534398Y199000D02*
X533602D01*
X532867Y198696D01*
X532304Y198133D01*
X532000Y197398D01*
Y196602D01*
X532304Y195867D01*
X532867Y195305D01*
X533602Y195000D01*
X534398D01*
X535133Y195305D01*
X535696Y195867D01*
X536000Y196602D01*
Y197398D01*
X535696Y198133D01*
X535133Y198696D01*
X534398Y199000D01*
D02*
G37*
G36*
X360898Y196000D02*
X360102D01*
X359367Y195695D01*
X358804Y195133D01*
X358500Y194398D01*
Y193602D01*
X358804Y192867D01*
X359367Y192305D01*
X360102Y192000D01*
X360898D01*
X361633Y192305D01*
X362195Y192867D01*
X362500Y193602D01*
Y194398D01*
X362195Y195133D01*
X361633Y195695D01*
X360898Y196000D01*
D02*
G37*
G36*
X593984Y193492D02*
X593188D01*
X592453Y193188D01*
X591891Y192625D01*
X591586Y191890D01*
Y191094D01*
X591891Y190359D01*
X592453Y189797D01*
X593188Y189492D01*
X593984D01*
X594719Y189797D01*
X595282Y190359D01*
X595586Y191094D01*
Y191890D01*
X595282Y192625D01*
X594719Y193188D01*
X593984Y193492D01*
D02*
G37*
G36*
X488398Y193000D02*
X487602D01*
X486867Y192695D01*
X486305Y192133D01*
X486000Y191398D01*
Y190602D01*
X486305Y189867D01*
X486867Y189304D01*
X487602Y189000D01*
X488398D01*
X489133Y189304D01*
X489696Y189867D01*
X490000Y190602D01*
Y191398D01*
X489696Y192133D01*
X489133Y192695D01*
X488398Y193000D01*
D02*
G37*
G36*
X466753Y189244D02*
X465964D01*
X465234Y188942D01*
X464676Y188384D01*
X464640Y188296D01*
X464140D01*
X464103Y188384D01*
X463545Y188942D01*
X462816Y189244D01*
X462027D01*
X461297Y188942D01*
X460739Y188384D01*
X460703Y188296D01*
X460203D01*
X460166Y188384D01*
X459608Y188942D01*
X458879Y189244D01*
X458090D01*
X457360Y188942D01*
X456802Y188384D01*
X456500Y187654D01*
Y186865D01*
X456802Y186136D01*
X457360Y185578D01*
X457448Y185541D01*
Y185041D01*
X457360Y185005D01*
X456802Y184447D01*
X456500Y183718D01*
Y182928D01*
X456802Y182199D01*
X457360Y181641D01*
X458090Y181339D01*
X458879D01*
X459608Y181641D01*
X460166Y182199D01*
X460203Y182287D01*
X460703D01*
X460739Y182199D01*
X461297Y181641D01*
X462027Y181339D01*
X462816D01*
X463545Y181641D01*
X464103Y182199D01*
X464140Y182287D01*
X464640D01*
X464676Y182199D01*
X465234Y181641D01*
X465964Y181339D01*
X466753D01*
X467482Y181641D01*
X468040Y182199D01*
X468342Y182928D01*
Y183718D01*
X468040Y184447D01*
X467482Y185005D01*
X467394Y185041D01*
Y185541D01*
X467482Y185578D01*
X468040Y186136D01*
X468342Y186865D01*
Y187654D01*
X468040Y188384D01*
X467482Y188942D01*
X466753Y189244D01*
D02*
G37*
G36*
X573410Y189161D02*
X572621D01*
X571892Y188859D01*
X571334Y188301D01*
X571297Y188213D01*
X570797D01*
X570761Y188301D01*
X570203Y188859D01*
X569473Y189161D01*
X568684D01*
X567955Y188859D01*
X567397Y188301D01*
X567360Y188213D01*
X566860D01*
X566824Y188301D01*
X566266Y188859D01*
X565536Y189161D01*
X564747D01*
X564018Y188859D01*
X563460Y188301D01*
X563158Y187572D01*
Y186783D01*
X563460Y186053D01*
X564018Y185495D01*
X564106Y185459D01*
Y184959D01*
X564018Y184922D01*
X563460Y184364D01*
X563158Y183635D01*
Y182845D01*
X563460Y182116D01*
X564018Y181558D01*
X564747Y181256D01*
X565536D01*
X566266Y181558D01*
X566824Y182116D01*
X566860Y182204D01*
X567360D01*
X567397Y182116D01*
X567955Y181558D01*
X568684Y181256D01*
X569473D01*
X570203Y181558D01*
X570761Y182116D01*
X570797Y182204D01*
X571297D01*
X571334Y182116D01*
X571892Y181558D01*
X572621Y181256D01*
X573410D01*
X574140Y181558D01*
X574698Y182116D01*
X575000Y182845D01*
Y183635D01*
X574698Y184364D01*
X574140Y184922D01*
X574052Y184959D01*
Y185459D01*
X574140Y185495D01*
X574698Y186053D01*
X575000Y186783D01*
Y187572D01*
X574698Y188301D01*
X574140Y188859D01*
X573410Y189161D01*
D02*
G37*
G36*
X305898Y191000D02*
X305102D01*
X304367Y190696D01*
X303804Y190133D01*
X303500Y189398D01*
Y188602D01*
X303804Y187867D01*
X304367Y187304D01*
X305102Y187000D01*
X305898D01*
X306633Y187304D01*
X307195Y187867D01*
X307500Y188602D01*
Y189398D01*
X307195Y190133D01*
X306633Y190696D01*
X305898Y191000D01*
D02*
G37*
G36*
X450898Y188000D02*
X450102D01*
X449367Y187696D01*
X448805Y187133D01*
X448500Y186398D01*
Y185602D01*
X448805Y184867D01*
X449367Y184304D01*
X450102Y184000D01*
X450898D01*
X451633Y184304D01*
X452196Y184867D01*
X452500Y185602D01*
Y186398D01*
X452196Y187133D01*
X451633Y187696D01*
X450898Y188000D01*
D02*
G37*
G36*
X589211Y184813D02*
X588415D01*
X587680Y184509D01*
X587117Y183946D01*
X586813Y183211D01*
Y182415D01*
X587117Y181680D01*
X587680Y181117D01*
X588415Y180813D01*
X589211D01*
X589946Y181117D01*
X590509Y181680D01*
X590813Y182415D01*
Y183211D01*
X590509Y183946D01*
X589946Y184509D01*
X589211Y184813D01*
D02*
G37*
G36*
X483398Y184500D02*
X482602D01*
X481867Y184195D01*
X481305Y183633D01*
X481000Y182898D01*
Y182102D01*
X481305Y181367D01*
X481867Y180805D01*
X482602Y180500D01*
X483398D01*
X484133Y180805D01*
X484695Y181367D01*
X485000Y182102D01*
Y182898D01*
X484695Y183633D01*
X484133Y184195D01*
X483398Y184500D01*
D02*
G37*
G36*
X241533Y183051D02*
X240467D01*
X239436Y182775D01*
X238512Y182242D01*
X237758Y181488D01*
X237225Y180564D01*
X236949Y179533D01*
Y178467D01*
X237225Y177436D01*
X237758Y176513D01*
X238512Y175758D01*
X239436Y175225D01*
X240467Y174949D01*
X241533D01*
X242564Y175225D01*
X243488Y175758D01*
X244242Y176513D01*
X244775Y177436D01*
X245051Y178467D01*
Y179533D01*
X244775Y180564D01*
X244242Y181488D01*
X243488Y182242D01*
X242564Y182775D01*
X241533Y183051D01*
D02*
G37*
G36*
X484898Y178000D02*
X484102D01*
X483367Y177696D01*
X482804Y177133D01*
X482500Y176398D01*
Y175602D01*
X482804Y174867D01*
X483367Y174304D01*
X484102Y174000D01*
X484898D01*
X485633Y174304D01*
X486196Y174867D01*
X486500Y175602D01*
Y176398D01*
X486196Y177133D01*
X485633Y177696D01*
X484898Y178000D01*
D02*
G37*
G36*
X585106Y176575D02*
X584310D01*
X583575Y176270D01*
X583012Y175708D01*
X582708Y174973D01*
Y174177D01*
X583012Y173442D01*
X583575Y172879D01*
X584310Y172575D01*
X585106D01*
X585841Y172879D01*
X586403Y173442D01*
X586708Y174177D01*
Y174973D01*
X586403Y175708D01*
X585841Y176270D01*
X585106Y176575D01*
D02*
G37*
G36*
X484898Y172500D02*
X484102D01*
X483367Y172195D01*
X482804Y171633D01*
X482500Y170898D01*
Y170102D01*
X482804Y169367D01*
X483367Y168805D01*
X484102Y168500D01*
X484898D01*
X485633Y168805D01*
X486196Y169367D01*
X486500Y170102D01*
Y170898D01*
X486196Y171633D01*
X485633Y172195D01*
X484898Y172500D01*
D02*
G37*
G36*
X507398Y177000D02*
X506602D01*
X505867Y176696D01*
X505304Y176133D01*
X505000Y175398D01*
Y174602D01*
X505304Y173867D01*
X505601Y173571D01*
X505423Y173393D01*
X505118Y172658D01*
Y171862D01*
X505423Y171127D01*
X505861Y170689D01*
X505304Y170133D01*
X505000Y169398D01*
Y168602D01*
X505304Y167867D01*
X505867Y167305D01*
X506602Y167000D01*
X507398D01*
X508133Y167305D01*
X508696Y167867D01*
X509000Y168602D01*
Y169398D01*
X508696Y170133D01*
X508258Y170571D01*
X508814Y171127D01*
X509118Y171862D01*
Y172658D01*
X508814Y173393D01*
X508517Y173689D01*
X508696Y173867D01*
X509000Y174602D01*
Y175398D01*
X508696Y176133D01*
X508133Y176696D01*
X507398Y177000D01*
D02*
G37*
G36*
X570398Y170500D02*
X569602D01*
X568867Y170195D01*
X568304Y169633D01*
X568000Y168898D01*
Y168102D01*
X568304Y167367D01*
X568867Y166805D01*
X569602Y166500D01*
X570398D01*
X571133Y166805D01*
X571696Y167367D01*
X572000Y168102D01*
Y168898D01*
X571696Y169633D01*
X571133Y170195D01*
X570398Y170500D01*
D02*
G37*
G36*
X245051Y173051D02*
X236949D01*
Y164949D01*
X245051D01*
Y173051D01*
D02*
G37*
G36*
X497405Y164516D02*
X496609D01*
X495874Y164211D01*
X495312Y163649D01*
X495007Y162914D01*
Y162118D01*
X495312Y161383D01*
X495874Y160820D01*
X496609Y160516D01*
X497405D01*
X498140Y160820D01*
X498703Y161383D01*
X499007Y162118D01*
Y162914D01*
X498703Y163649D01*
X498140Y164211D01*
X497405Y164516D01*
D02*
G37*
G36*
X456898Y161000D02*
X456102D01*
X455367Y160696D01*
X454805Y160133D01*
X454500Y159398D01*
Y158602D01*
X454805Y157867D01*
X455367Y157305D01*
X456102Y157000D01*
X456898D01*
X457633Y157305D01*
X458195Y157867D01*
X458500Y158602D01*
Y159398D01*
X458195Y160133D01*
X457633Y160696D01*
X456898Y161000D01*
D02*
G37*
G36*
X684487Y188228D02*
X681969D01*
X679481Y187834D01*
X677086Y187056D01*
X674842Y185912D01*
X672805Y184432D01*
X671024Y182651D01*
X669544Y180614D01*
X668400Y178370D01*
X667622Y175975D01*
X667228Y173487D01*
Y170969D01*
X667622Y168481D01*
X668400Y166086D01*
X669544Y163842D01*
X671024Y161805D01*
X672805Y160024D01*
X674842Y158544D01*
X677086Y157400D01*
X679481Y156622D01*
X681969Y156228D01*
X684487D01*
X686975Y156622D01*
X689370Y157400D01*
X691614Y158544D01*
X693651Y160024D01*
X695432Y161805D01*
X696912Y163842D01*
X698056Y166086D01*
X698834Y168481D01*
X699228Y170969D01*
Y173487D01*
X698834Y175975D01*
X698056Y178370D01*
X696912Y180614D01*
X695432Y182651D01*
X693651Y184432D01*
X691614Y185912D01*
X689370Y187056D01*
X686975Y187834D01*
X684487Y188228D01*
D02*
G37*
G36*
X473898Y158500D02*
X473102D01*
X472367Y158195D01*
X471805Y157633D01*
X471500Y156898D01*
Y156102D01*
X471805Y155367D01*
X472367Y154805D01*
X473102Y154500D01*
X473898D01*
X474633Y154805D01*
X475196Y155367D01*
X475500Y156102D01*
Y156898D01*
X475196Y157633D01*
X474633Y158195D01*
X473898Y158500D01*
D02*
G37*
G36*
X241533Y159051D02*
X240467D01*
X239436Y158775D01*
X238512Y158242D01*
X237758Y157487D01*
X237225Y156564D01*
X236949Y155533D01*
Y154467D01*
X237225Y153436D01*
X237758Y152513D01*
X238512Y151758D01*
X239436Y151225D01*
X240467Y150949D01*
X241533D01*
X242564Y151225D01*
X243488Y151758D01*
X244242Y152513D01*
X244775Y153436D01*
X245051Y154467D01*
Y155533D01*
X244775Y156564D01*
X244242Y157487D01*
X243488Y158242D01*
X242564Y158775D01*
X241533Y159051D01*
D02*
G37*
G36*
X245051Y149051D02*
X236949D01*
Y140949D01*
X245051D01*
Y149051D01*
D02*
G37*
G36*
X367026Y141843D02*
X365974D01*
X364959Y141571D01*
X364049Y141045D01*
X363305Y140302D01*
X362780Y139391D01*
X362508Y138376D01*
Y137325D01*
X362780Y136310D01*
X363305Y135399D01*
X364049Y134656D01*
X364959Y134130D01*
X365974Y133858D01*
X367026D01*
X368041Y134130D01*
X368951Y134656D01*
X369694Y135399D01*
X370220Y136310D01*
X370492Y137325D01*
Y138376D01*
X370220Y139391D01*
X369694Y140302D01*
X368951Y141045D01*
X368041Y141571D01*
X367026Y141843D01*
D02*
G37*
G36*
X357026D02*
X355974D01*
X354959Y141571D01*
X354049Y141045D01*
X353306Y140302D01*
X352780Y139391D01*
X352508Y138376D01*
Y137325D01*
X352780Y136310D01*
X353306Y135399D01*
X354049Y134656D01*
X354959Y134130D01*
X355974Y133858D01*
X357026D01*
X358041Y134130D01*
X358951Y134656D01*
X359695Y135399D01*
X360220Y136310D01*
X360492Y137325D01*
Y138376D01*
X360220Y139391D01*
X359695Y140302D01*
X358951Y141045D01*
X358041Y141571D01*
X357026Y141843D01*
D02*
G37*
G36*
X347026D02*
X345974D01*
X344959Y141571D01*
X344049Y141045D01*
X343305Y140302D01*
X342780Y139391D01*
X342508Y138376D01*
Y137325D01*
X342780Y136310D01*
X343305Y135399D01*
X344049Y134656D01*
X344959Y134130D01*
X345974Y133858D01*
X347026D01*
X348041Y134130D01*
X348951Y134656D01*
X349694Y135399D01*
X350220Y136310D01*
X350492Y137325D01*
Y138376D01*
X350220Y139391D01*
X349694Y140302D01*
X348951Y141045D01*
X348041Y141571D01*
X347026Y141843D01*
D02*
G37*
G36*
X337026D02*
X335974D01*
X334959Y141571D01*
X334049Y141045D01*
X333306Y140302D01*
X332780Y139391D01*
X332508Y138376D01*
Y137325D01*
X332780Y136310D01*
X333306Y135399D01*
X334049Y134656D01*
X334959Y134130D01*
X335974Y133858D01*
X337026D01*
X338041Y134130D01*
X338951Y134656D01*
X339694Y135399D01*
X340220Y136310D01*
X340492Y137325D01*
Y138376D01*
X340220Y139391D01*
X339694Y140302D01*
X338951Y141045D01*
X338041Y141571D01*
X337026Y141843D01*
D02*
G37*
G36*
X327026D02*
X325974D01*
X324959Y141571D01*
X324049Y141045D01*
X323306Y140302D01*
X322780Y139391D01*
X322508Y138376D01*
Y137325D01*
X322780Y136310D01*
X323306Y135399D01*
X324049Y134656D01*
X324959Y134130D01*
X325974Y133858D01*
X327026D01*
X328041Y134130D01*
X328951Y134656D01*
X329695Y135399D01*
X330220Y136310D01*
X330492Y137325D01*
Y138376D01*
X330220Y139391D01*
X329695Y140302D01*
X328951Y141045D01*
X328041Y141571D01*
X327026Y141843D01*
D02*
G37*
G36*
X317026D02*
X315974D01*
X314959Y141571D01*
X314049Y141045D01*
X313305Y140302D01*
X312780Y139391D01*
X312508Y138376D01*
Y137325D01*
X312780Y136310D01*
X313305Y135399D01*
X314049Y134656D01*
X314959Y134130D01*
X315974Y133858D01*
X317026D01*
X318041Y134130D01*
X318951Y134656D01*
X319694Y135399D01*
X320220Y136310D01*
X320492Y137325D01*
Y138376D01*
X320220Y139391D01*
X319694Y140302D01*
X318951Y141045D01*
X318041Y141571D01*
X317026Y141843D01*
D02*
G37*
G36*
X307026D02*
X305974D01*
X304959Y141571D01*
X304049Y141045D01*
X303306Y140302D01*
X302780Y139391D01*
X302508Y138376D01*
Y137325D01*
X302780Y136310D01*
X303306Y135399D01*
X304049Y134656D01*
X304959Y134130D01*
X305974Y133858D01*
X307026D01*
X308041Y134130D01*
X308951Y134656D01*
X309695Y135399D01*
X310220Y136310D01*
X310492Y137325D01*
Y138376D01*
X310220Y139391D01*
X309695Y140302D01*
X308951Y141045D01*
X308041Y141571D01*
X307026Y141843D01*
D02*
G37*
G36*
X297026D02*
X295974D01*
X294959Y141571D01*
X294049Y141045D01*
X293305Y140302D01*
X292780Y139391D01*
X292508Y138376D01*
Y137325D01*
X292780Y136310D01*
X293305Y135399D01*
X294049Y134656D01*
X294959Y134130D01*
X295974Y133858D01*
X297026D01*
X298041Y134130D01*
X298951Y134656D01*
X299694Y135399D01*
X300220Y136310D01*
X300492Y137325D01*
Y138376D01*
X300220Y139391D01*
X299694Y140302D01*
X298951Y141045D01*
X298041Y141571D01*
X297026Y141843D01*
D02*
G37*
G36*
X287026D02*
X285974D01*
X284959Y141571D01*
X284049Y141045D01*
X283306Y140302D01*
X282780Y139391D01*
X282508Y138376D01*
Y137325D01*
X282780Y136310D01*
X283306Y135399D01*
X284049Y134656D01*
X284959Y134130D01*
X285974Y133858D01*
X287026D01*
X288041Y134130D01*
X288951Y134656D01*
X289694Y135399D01*
X290220Y136310D01*
X290492Y137325D01*
Y138376D01*
X290220Y139391D01*
X289694Y140302D01*
X288951Y141045D01*
X288041Y141571D01*
X287026Y141843D01*
D02*
G37*
G36*
X277996Y141892D02*
X275004D01*
X274030Y141698D01*
X273204Y141146D01*
X272653Y140321D01*
X272459Y139347D01*
Y136354D01*
X272653Y135380D01*
X273204Y134555D01*
X274030Y134003D01*
X275004Y133809D01*
X277996D01*
X278970Y134003D01*
X279796Y134555D01*
X280347Y135380D01*
X280541Y136354D01*
Y139347D01*
X280347Y140321D01*
X279796Y141146D01*
X278970Y141698D01*
X277996Y141892D01*
D02*
G37*
G36*
X241070Y121327D02*
X239930D01*
X238830Y121032D01*
X237843Y120462D01*
X237038Y119657D01*
X236468Y118670D01*
X236173Y117570D01*
Y116430D01*
X236468Y115330D01*
X237038Y114343D01*
X237843Y113538D01*
X238830Y112968D01*
X239930Y112673D01*
X241070D01*
X242170Y112968D01*
X243157Y113538D01*
X243962Y114343D01*
X244532Y115330D01*
X244827Y116430D01*
Y117570D01*
X244532Y118670D01*
X243962Y119657D01*
X243157Y120462D01*
X242170Y121032D01*
X241070Y121327D01*
D02*
G37*
G36*
X231070D02*
X229930D01*
X228830Y121032D01*
X227843Y120462D01*
X227038Y119657D01*
X226468Y118670D01*
X226173Y117570D01*
Y116430D01*
X226468Y115330D01*
X227038Y114343D01*
X227843Y113538D01*
X228830Y112968D01*
X229930Y112673D01*
X231070D01*
X232170Y112968D01*
X233157Y113538D01*
X233962Y114343D01*
X234532Y115330D01*
X234827Y116430D01*
Y117570D01*
X234532Y118670D01*
X233962Y119657D01*
X233157Y120462D01*
X232170Y121032D01*
X231070Y121327D01*
D02*
G37*
G36*
X224827D02*
X216173D01*
Y112673D01*
X224827D01*
Y121327D01*
D02*
G37*
G36*
X685259Y132000D02*
X682741D01*
X680253Y131606D01*
X677858Y130828D01*
X675614Y129684D01*
X673577Y128204D01*
X671796Y126423D01*
X670316Y124386D01*
X669172Y122142D01*
X668394Y119747D01*
X668000Y117259D01*
Y114741D01*
X668394Y112253D01*
X669172Y109858D01*
X670316Y107614D01*
X671796Y105577D01*
X673577Y103796D01*
X675614Y102316D01*
X677858Y101172D01*
X680253Y100394D01*
X682741Y100000D01*
X685259D01*
X687747Y100394D01*
X690142Y101172D01*
X692386Y102316D01*
X694423Y103796D01*
X696204Y105577D01*
X697684Y107614D01*
X698828Y109858D01*
X699606Y112253D01*
X700000Y114741D01*
Y117259D01*
X699606Y119747D01*
X698828Y122142D01*
X697684Y124386D01*
X696204Y126423D01*
X694423Y128204D01*
X692386Y129684D01*
X690142Y130828D01*
X687747Y131606D01*
X685259Y132000D01*
D02*
G37*
G36*
X633759Y131500D02*
X631241D01*
X628753Y131106D01*
X626358Y130328D01*
X624114Y129184D01*
X622077Y127704D01*
X620296Y125923D01*
X618816Y123886D01*
X617672Y121642D01*
X616894Y119247D01*
X616500Y116759D01*
Y114241D01*
X616894Y111753D01*
X617672Y109358D01*
X618816Y107114D01*
X620296Y105077D01*
X622077Y103296D01*
X624114Y101816D01*
X626358Y100672D01*
X628753Y99894D01*
X631241Y99500D01*
X633759D01*
X636247Y99894D01*
X638642Y100672D01*
X640886Y101816D01*
X642923Y103296D01*
X644704Y105077D01*
X646184Y107114D01*
X647328Y109358D01*
X648106Y111753D01*
X648500Y114241D01*
Y116759D01*
X648106Y119247D01*
X647328Y121642D01*
X646184Y123886D01*
X644704Y125923D01*
X642923Y127704D01*
X640886Y129184D01*
X638642Y130328D01*
X636247Y131106D01*
X633759Y131500D01*
D02*
G37*
G36*
X579259D02*
X576741D01*
X574253Y131106D01*
X571858Y130328D01*
X569614Y129184D01*
X567577Y127704D01*
X565796Y125923D01*
X564316Y123886D01*
X563172Y121642D01*
X562394Y119247D01*
X562000Y116759D01*
Y114241D01*
X562394Y111753D01*
X563172Y109358D01*
X564316Y107114D01*
X565796Y105077D01*
X567577Y103296D01*
X569614Y101816D01*
X571858Y100672D01*
X574253Y99894D01*
X576741Y99500D01*
X579259D01*
X581747Y99894D01*
X584142Y100672D01*
X586386Y101816D01*
X588423Y103296D01*
X590204Y105077D01*
X591684Y107114D01*
X592828Y109358D01*
X593606Y111753D01*
X594000Y114241D01*
Y116759D01*
X593606Y119247D01*
X592828Y121642D01*
X591684Y123886D01*
X590204Y125923D01*
X588423Y127704D01*
X586386Y129184D01*
X584142Y130328D01*
X581747Y131106D01*
X579259Y131500D01*
D02*
G37*
%LPD*%
D147*
X240850Y246500D02*
D03*
D152*
X299000Y297000D02*
D03*
X497000Y179500D02*
D03*
Y184000D02*
D03*
Y188000D02*
D03*
Y192500D02*
D03*
X329000Y345517D02*
D03*
X289018Y234018D02*
D03*
X349000Y282000D02*
D03*
X270509Y301009D02*
D03*
X293500Y284500D02*
D03*
X299009Y241509D02*
D03*
X297671Y312171D02*
D03*
D153*
X218500Y362500D02*
D03*
M02*
