G04*
G04 #@! TF.GenerationSoftware,Altium Limited,Altium Designer,23.8.1 (32)*
G04*
G04 Layer_Color=255*
%FSLAX25Y25*%
%MOIN*%
G70*
G04*
G04 #@! TF.SameCoordinates,9FE1DFA8-D547-43E1-8EB2-FABD993C7150*
G04*
G04*
G04 #@! TF.FilePolarity,Positive*
G04*
G01*
G75*
%ADD85R,0.05315X0.16535*%
%ADD87R,0.16535X0.05315*%
%ADD125R,0.06181X0.06181*%
%ADD126C,0.06181*%
%ADD129R,0.06653X0.06653*%
%ADD130C,0.06653*%
%ADD145C,0.04921*%
%ADD146R,0.04921X0.04921*%
%ADD147C,0.05984*%
G04:AMPARAMS|DCode=148|XSize=59.84mil|YSize=59.84mil|CornerRadius=14.96mil|HoleSize=0mil|Usage=FLASHONLY|Rotation=270.000|XOffset=0mil|YOffset=0mil|HoleType=Round|Shape=RoundedRectangle|*
%AMROUNDEDRECTD148*
21,1,0.05984,0.02992,0,0,270.0*
21,1,0.02992,0.05984,0,0,270.0*
1,1,0.02992,-0.01496,-0.01496*
1,1,0.02992,-0.01496,0.01496*
1,1,0.02992,0.01496,0.01496*
1,1,0.02992,0.01496,-0.01496*
%
%ADD148ROUNDEDRECTD148*%
%ADD149R,0.06102X0.06102*%
%ADD150C,0.06102*%
G04:AMPARAMS|DCode=151|XSize=59.84mil|YSize=59.84mil|CornerRadius=14.96mil|HoleSize=0mil|Usage=FLASHONLY|Rotation=0.000|XOffset=0mil|YOffset=0mil|HoleType=Round|Shape=RoundedRectangle|*
%AMROUNDEDRECTD151*
21,1,0.05984,0.02992,0,0,0.0*
21,1,0.02992,0.05984,0,0,0.0*
1,1,0.02992,0.01496,-0.01496*
1,1,0.02992,-0.01496,-0.01496*
1,1,0.02992,-0.01496,0.01496*
1,1,0.02992,0.01496,0.01496*
%
%ADD151ROUNDEDRECTD151*%
D85*
X430000Y408500D02*
D03*
X452244D02*
D03*
X495378Y408713D02*
D03*
X517622D02*
D03*
X580878D02*
D03*
X603122D02*
D03*
D87*
X692213Y383622D02*
D03*
Y361378D02*
D03*
X692500Y263500D02*
D03*
Y241256D02*
D03*
D125*
X504949Y267102D02*
D03*
D126*
Y277102D02*
D03*
D129*
X220500Y117000D02*
D03*
D130*
X230500D02*
D03*
X240500D02*
D03*
D145*
X397362Y398500D02*
D03*
X387362Y388500D02*
D03*
D146*
X397362Y378500D02*
D03*
D147*
X240850Y236500D02*
D03*
Y246500D02*
D03*
Y266500D02*
D03*
Y286500D02*
D03*
Y296500D02*
D03*
Y306500D02*
D03*
Y316500D02*
D03*
Y276500D02*
D03*
Y256500D02*
D03*
X366500Y137850D02*
D03*
X356500D02*
D03*
X336500D02*
D03*
X316500D02*
D03*
X306500D02*
D03*
X296500D02*
D03*
X286500D02*
D03*
X326500D02*
D03*
X346500D02*
D03*
X276000Y377150D02*
D03*
X286000D02*
D03*
X306000D02*
D03*
X326000D02*
D03*
X336000D02*
D03*
X346000D02*
D03*
X356000D02*
D03*
X316000D02*
D03*
X296000D02*
D03*
D148*
X240850Y326500D02*
D03*
D149*
X242000Y200000D02*
D03*
X241000Y169000D02*
D03*
Y145000D02*
D03*
D150*
X242000Y210000D02*
D03*
X241000Y179000D02*
D03*
Y155000D02*
D03*
D151*
X276500Y137850D02*
D03*
X366000Y377150D02*
D03*
M02*
