G04*
G04 #@! TF.GenerationSoftware,Altium Limited,Altium Designer,23.8.1 (32)*
G04*
G04 Layer_Color=0*
%FSLAX25Y25*%
%MOIN*%
G70*
G04*
G04 #@! TF.SameCoordinates,93D85A25-96AA-4E13-9423-ABE69869F54E*
G04*
G04*
G04 #@! TF.FilePolarity,Positive*
G04*
G01*
G75*
%ADD14C,0.00394*%
%ADD154C,0.00197*%
D14*
X352532Y174240D02*
X356469D01*
X354500Y172271D02*
Y176208D01*
X410500Y113031D02*
Y116969D01*
X408532Y115000D02*
X412468D01*
X517531Y333500D02*
X521468D01*
X519500Y331532D02*
Y335469D01*
X478500Y108531D02*
Y112469D01*
X476532Y110500D02*
X480469D01*
X345031Y174240D02*
X348969D01*
X347000Y172271D02*
Y176208D01*
X410500Y121531D02*
Y125469D01*
X408532Y123500D02*
X412468D01*
X410749Y131532D02*
Y135468D01*
X408780Y133500D02*
X412717D01*
X411000Y140532D02*
Y144468D01*
X409031Y142500D02*
X412968D01*
X411000Y149531D02*
Y153469D01*
X409031Y151500D02*
X412968D01*
X424500Y113031D02*
Y116969D01*
X422532Y115000D02*
X426469D01*
X424500Y122031D02*
Y125969D01*
X422532Y124000D02*
X426469D01*
X424500Y131032D02*
Y134968D01*
X422532Y133000D02*
X426469D01*
X425000Y149531D02*
Y153469D01*
X423032Y151500D02*
X426968D01*
X424749Y140032D02*
Y143968D01*
X422780Y142000D02*
X426717D01*
X228532Y117000D02*
X232469D01*
X230500Y115032D02*
Y118968D01*
X552500Y324031D02*
Y327969D01*
X550531Y326000D02*
X554468D01*
X554740Y286531D02*
Y290469D01*
X552771Y288500D02*
X556708D01*
X306532Y185000D02*
X310469D01*
X308500Y183031D02*
Y186969D01*
X414000Y275532D02*
Y279468D01*
X412032Y277500D02*
X415969D01*
X605000Y147496D02*
Y151433D01*
X603031Y149465D02*
X606968D01*
X313032Y274500D02*
X316968D01*
X315000Y272532D02*
Y276468D01*
X324000Y250031D02*
Y253969D01*
X322031Y252000D02*
X325969D01*
X524000Y144532D02*
Y148468D01*
X522031Y146500D02*
X525969D01*
X337032Y174500D02*
X340968D01*
X339000Y172531D02*
Y176469D01*
X255000Y198031D02*
Y201969D01*
X253031Y200000D02*
X256968D01*
X530186Y133662D02*
X534123D01*
X532155Y131694D02*
Y135631D01*
X414532Y289000D02*
X418469D01*
X416500Y287032D02*
Y290968D01*
X427032Y288000D02*
X430969D01*
X429000Y286032D02*
Y289968D01*
X433032Y239500D02*
X436969D01*
X435000Y237531D02*
Y241469D01*
X439500Y225031D02*
Y228969D01*
X437532Y227000D02*
X441468D01*
X450500Y244032D02*
Y247969D01*
X448531Y246000D02*
X452468D01*
X422000Y237271D02*
Y241208D01*
X420031Y239240D02*
X423969D01*
X449532Y226740D02*
X453469D01*
X451500Y224771D02*
Y228708D01*
X443032Y261000D02*
X446969D01*
X445000Y259032D02*
Y262968D01*
X470760Y287032D02*
Y290968D01*
X468792Y289000D02*
X472729D01*
X345031Y341500D02*
X348969D01*
X347000Y339531D02*
Y343468D01*
X552000Y253532D02*
Y257469D01*
X550032Y255500D02*
X553968D01*
X573158Y212032D02*
Y215968D01*
X571189Y214000D02*
X575126D01*
X587532Y220500D02*
X591468D01*
X589500Y218531D02*
Y222468D01*
X578500Y218531D02*
Y222468D01*
X576532Y220500D02*
X580469D01*
X589657Y225532D02*
Y229468D01*
X587689Y227500D02*
X591626D01*
X576374D02*
X580311D01*
X578342Y225532D02*
Y229468D01*
X573000Y206532D02*
Y210469D01*
X571032Y208500D02*
X574968D01*
X552150Y232031D02*
Y235968D01*
X550181Y234000D02*
X554118D01*
X572532Y244000D02*
X576469D01*
X574500Y242032D02*
Y245969D01*
X616784Y310500D02*
X620720D01*
X618752Y308531D02*
Y312469D01*
X449532Y122000D02*
X453469D01*
X451500Y120031D02*
Y123969D01*
X462965Y144032D02*
Y147968D01*
X460996Y146000D02*
X464933D01*
X462465Y152032D02*
Y155968D01*
X460496Y154000D02*
X464433D01*
X446531Y141500D02*
X450468D01*
X448500Y139532D02*
Y143468D01*
X473032Y150000D02*
X476968D01*
X475000Y148031D02*
Y151969D01*
X490531Y149245D02*
X494468D01*
X492500Y147276D02*
Y151214D01*
X488925Y136531D02*
Y140469D01*
X486957Y138500D02*
X490894D01*
X480532Y136860D02*
X484469D01*
X482500Y134891D02*
Y138828D01*
X480532Y147055D02*
X484469D01*
X482500Y145087D02*
Y149024D01*
X482142Y116032D02*
Y119968D01*
X480173Y118000D02*
X484110D01*
X353031Y317500D02*
X356968D01*
X355000Y315531D02*
Y319468D01*
X386531Y329500D02*
X390469D01*
X388500Y327532D02*
Y331469D01*
X363531Y318941D02*
X367469D01*
X365500Y316972D02*
Y320910D01*
X568032Y334000D02*
X571969D01*
X570000Y332031D02*
Y335968D01*
X531531Y262240D02*
X535468D01*
X533500Y260271D02*
Y264208D01*
X582000Y303031D02*
Y306968D01*
X580031Y305000D02*
X583968D01*
X517740Y303031D02*
Y306968D01*
X515771Y305000D02*
X519708D01*
X590031Y302260D02*
X593968D01*
X592000Y300292D02*
Y304229D01*
X527240Y373031D02*
Y376969D01*
X525271Y375000D02*
X529208D01*
X539260Y373031D02*
Y376969D01*
X537292Y375000D02*
X541229D01*
X367500Y222031D02*
Y225969D01*
X365531Y224000D02*
X369468D01*
X526532Y289850D02*
X530469D01*
X528500Y287882D02*
Y291819D01*
X561813Y316531D02*
Y320468D01*
X559844Y318500D02*
X563781D01*
X547500Y316032D02*
Y319969D01*
X545532Y318000D02*
X549469D01*
X568313Y323031D02*
Y326969D01*
X566344Y325000D02*
X570281D01*
X568032Y315000D02*
X571969D01*
X570000Y313032D02*
Y316968D01*
X571500Y303031D02*
Y306968D01*
X569531Y305000D02*
X573468D01*
X536500Y303031D02*
Y306968D01*
X534531Y305000D02*
X538469D01*
X526532Y301457D02*
X530469D01*
X528500Y299488D02*
Y303425D01*
X504240Y303031D02*
Y306968D01*
X502271Y305000D02*
X506208D01*
X444000Y297532D02*
Y301468D01*
X442031Y299500D02*
X445968D01*
X414000Y269032D02*
Y272969D01*
X412032Y271000D02*
X415969D01*
X431500Y297532D02*
Y301468D01*
X429531Y299500D02*
X433468D01*
X379000Y273031D02*
Y276969D01*
X377031Y275000D02*
X380968D01*
X644531Y288500D02*
X648468D01*
X646500Y286531D02*
Y290469D01*
X517031Y346362D02*
X520968D01*
X519000Y344394D02*
Y348331D01*
X533382Y342772D02*
Y346709D01*
X531413Y344740D02*
X535350D01*
X544031Y338500D02*
X547968D01*
X546000Y336531D02*
Y340469D01*
X330532Y343000D02*
X334469D01*
X332500Y341032D02*
Y344969D01*
X363000Y337531D02*
Y341469D01*
X361032Y339500D02*
X364968D01*
X291531Y278500D02*
X295468D01*
X293500Y276532D02*
Y280469D01*
X415531Y308500D02*
X419468D01*
X417500Y306532D02*
Y310469D01*
X282500Y225031D02*
Y228969D01*
X280532Y227000D02*
X284469D01*
X354031Y191522D02*
X357968D01*
X356000Y189553D02*
Y193490D01*
X286000Y239531D02*
Y243468D01*
X284032Y241500D02*
X287968D01*
X308032Y251500D02*
X311968D01*
X310000Y249532D02*
Y253468D01*
X315032Y252000D02*
X318969D01*
X317000Y250031D02*
Y253969D01*
X358000Y206532D02*
Y210469D01*
X356031Y208500D02*
X359968D01*
X357000Y214032D02*
Y217969D01*
X355031Y216000D02*
X358968D01*
X285032Y278500D02*
X288968D01*
X287000Y276532D02*
Y280469D01*
X353522Y226532D02*
Y230469D01*
X351553Y228500D02*
X355490D01*
X301031Y251500D02*
X304969D01*
X303000Y249532D02*
Y253468D01*
X441122Y433539D02*
Y437476D01*
X439153Y435508D02*
X443090D01*
X506500Y433752D02*
Y437689D01*
X504531Y435720D02*
X508468D01*
X717252Y372500D02*
X721189D01*
X719220Y370532D02*
Y374468D01*
X592000Y433752D02*
Y437689D01*
X590031Y435720D02*
X593968D01*
X717539Y257378D02*
X721476D01*
X719508Y255410D02*
Y259347D01*
X480031Y328441D02*
X483968D01*
X482000Y326472D02*
Y330410D01*
X641032Y310500D02*
X644969D01*
X643000Y308531D02*
Y312469D01*
X645839Y333531D02*
Y337469D01*
X643870Y335500D02*
X647808D01*
X514618Y117791D02*
Y121728D01*
X512650Y119760D02*
X516587D01*
X280244Y299031D02*
Y302969D01*
X278276Y301000D02*
X282213D01*
X502531Y117744D02*
X506468D01*
X504500Y115776D02*
Y119713D01*
X523531Y120478D02*
X527468D01*
X525500Y118510D02*
Y122447D01*
X480532Y315500D02*
X484469D01*
X482500Y313531D02*
Y317469D01*
X533500Y363531D02*
Y367469D01*
X531531Y365500D02*
X535468D01*
X595500Y148242D02*
Y152179D01*
X593532Y150210D02*
X597469D01*
X551500Y140032D02*
Y143968D01*
X549532Y142000D02*
X553469D01*
X562500Y140532D02*
Y144468D01*
X560532Y142500D02*
X564468D01*
X347500Y351031D02*
Y354969D01*
X345532Y353000D02*
X349468D01*
X587500Y147484D02*
Y151421D01*
X585532Y149453D02*
X589468D01*
X575531Y149000D02*
X579468D01*
X577500Y147031D02*
Y150969D01*
X293500Y290032D02*
Y293969D01*
X291531Y292000D02*
X295468D01*
X557500Y120366D02*
Y124303D01*
X555532Y122335D02*
X559469D01*
X588500Y111031D02*
Y114969D01*
X586531Y113000D02*
X590469D01*
X595500Y137031D02*
Y140969D01*
X593532Y139000D02*
X597469D01*
X587032Y136860D02*
X590969D01*
X589000Y134891D02*
Y138828D01*
D154*
X322532Y276500D02*
X326468D01*
X324500Y274532D02*
Y278468D01*
X217032Y281500D02*
X220969D01*
X219000Y279532D02*
Y283469D01*
X321500Y114032D02*
Y117968D01*
X319531Y116000D02*
X323468D01*
X321000Y397031D02*
Y400969D01*
X319032Y399000D02*
X322969D01*
M02*
