G04*
G04 #@! TF.GenerationSoftware,Altium Limited,Altium Designer,23.8.1 (32)*
G04*
G04 Layer_Color=16711935*
%FSLAX25Y25*%
%MOIN*%
G70*
G04*
G04 #@! TF.SameCoordinates,93D85A25-96AA-4E13-9423-ABE69869F54E*
G04*
G04*
G04 #@! TF.FilePolarity,Positive*
G04*
G01*
G75*
%ADD12C,0.00787*%
%ADD14C,0.00394*%
%ADD15C,0.00500*%
%ADD18C,0.00300*%
%ADD152C,0.00000*%
%ADD153C,0.00100*%
D12*
X304630Y187787D02*
G03*
X304630Y187787I-394J0D01*
G01*
X532894Y210821D02*
G03*
X532894Y210821I-394J0D01*
G01*
X352925Y177291D02*
X356075D01*
X352925Y171189D02*
Y177291D01*
Y171189D02*
X356075D01*
Y177291D01*
X414437Y112539D02*
Y117461D01*
X406563D02*
X414437D01*
X406563Y112539D02*
Y117461D01*
Y112539D02*
X414437D01*
X517925Y336551D02*
X521075D01*
X517925Y330449D02*
Y336551D01*
Y330449D02*
X521075D01*
Y336551D01*
X481551Y108925D02*
Y112075D01*
X475449D02*
X481551D01*
X475449Y108925D02*
Y112075D01*
Y108925D02*
X481551D01*
X345425Y171189D02*
X348575D01*
Y177291D01*
X345425D02*
X348575D01*
X345425Y171189D02*
Y177291D01*
X414437Y121039D02*
Y125961D01*
X406563D02*
X414437D01*
X406563Y121039D02*
Y125961D01*
Y121039D02*
X414437D01*
X414686Y131039D02*
Y135961D01*
X406812D02*
X414686D01*
X406812Y131039D02*
Y135961D01*
Y131039D02*
X414686D01*
X414937Y140039D02*
Y144961D01*
X407063D02*
X414937D01*
X407063Y140039D02*
Y144961D01*
Y140039D02*
X414937D01*
Y149039D02*
Y153961D01*
X407063D02*
X414937D01*
X407063Y149039D02*
Y153961D01*
Y149039D02*
X414937D01*
X420563Y112539D02*
Y117461D01*
Y112539D02*
X428437D01*
Y117461D01*
X420563D02*
X428437D01*
X420563Y121539D02*
Y126461D01*
Y121539D02*
X428437D01*
Y126461D01*
X420563D02*
X428437D01*
X420563Y130539D02*
Y135461D01*
Y130539D02*
X428437D01*
Y135461D01*
X420563D02*
X428437D01*
X421063Y149039D02*
Y153961D01*
Y149039D02*
X428937D01*
Y153961D01*
X421063D02*
X428937D01*
X420812Y139539D02*
Y144461D01*
Y139539D02*
X428686D01*
Y144461D01*
X420812D02*
X428686D01*
X214496Y128791D02*
X246504D01*
Y105209D02*
Y128791D01*
X214496Y105209D02*
X246504D01*
X214496D02*
Y128791D01*
X549449Y324425D02*
Y327575D01*
Y324425D02*
X555551D01*
Y327575D01*
X549449D02*
X555551D01*
X557791Y286925D02*
Y290075D01*
X551689D02*
X557791D01*
X551689Y286925D02*
Y290075D01*
Y286925D02*
X557791D01*
X305449Y183425D02*
X311551D01*
X305449D02*
Y186575D01*
X311551D01*
Y183425D02*
Y186575D01*
X410653Y275728D02*
Y279272D01*
Y275728D02*
X417346D01*
Y279272D01*
X410653D02*
X417346D01*
X606575Y146315D02*
Y152614D01*
X603425Y146315D02*
X606575D01*
X603425D02*
Y152614D01*
X606575D01*
X313327Y271350D02*
X316673D01*
Y277650D01*
X313327D02*
X316673D01*
X313327Y271350D02*
Y277650D01*
X322425Y248850D02*
Y255150D01*
X325575D01*
Y248850D02*
Y255150D01*
X322425Y248850D02*
X325575D01*
X517504Y143154D02*
Y149846D01*
Y143154D02*
X530496D01*
Y149846D01*
X517504D02*
X530496D01*
X337425Y171449D02*
X340575D01*
Y177551D01*
X337425D02*
X340575D01*
X337425Y171449D02*
Y177551D01*
X258051Y198425D02*
Y201575D01*
X251949D02*
X258051D01*
X251949Y198425D02*
Y201575D01*
Y198425D02*
X258051D01*
X530481Y136812D02*
X533828D01*
X530481Y130513D02*
Y136812D01*
Y130513D02*
X533828D01*
Y136812D01*
X414728Y292347D02*
X418272D01*
X414728Y285653D02*
Y292347D01*
Y285653D02*
X418272D01*
Y292347D01*
X427228Y291347D02*
X430772D01*
X427228Y284653D02*
Y291347D01*
Y284653D02*
X430772D01*
Y291347D01*
X431850Y233791D02*
X438150D01*
X431850D02*
Y245209D01*
X438150D01*
Y233791D02*
Y245209D01*
X441272Y223654D02*
Y230346D01*
X437728Y223654D02*
X441272D01*
X437728D02*
Y230346D01*
X441272D01*
X445284Y239405D02*
Y252594D01*
X455717D01*
Y239405D02*
Y252594D01*
X445284Y239405D02*
X455717D01*
X420425Y236189D02*
Y242291D01*
X423575D01*
Y236189D02*
Y242291D01*
X420425Y236189D02*
X423575D01*
X449925Y229791D02*
X453075D01*
X449925Y223689D02*
Y229791D01*
Y223689D02*
X453075D01*
Y229791D01*
X438406Y266216D02*
X451594D01*
Y255784D02*
Y266216D01*
X438406Y255784D02*
X451594D01*
X438406D02*
Y266216D01*
X473811Y287425D02*
Y290575D01*
X467709D02*
X473811D01*
X467709Y287425D02*
Y290575D01*
Y287425D02*
X473811D01*
X343555Y347504D02*
X350445D01*
Y335496D02*
Y347504D01*
X343555Y335496D02*
X350445D01*
X343555D02*
Y347504D01*
X563555Y245697D02*
Y265303D01*
X540445D02*
X563555D01*
X540445Y245697D02*
Y265303D01*
Y245697D02*
X563555D01*
X569713Y212130D02*
Y215870D01*
Y212130D02*
X576602D01*
Y215870D01*
X569713D02*
X576602D01*
X586350Y222075D02*
X592650D01*
Y218925D02*
Y222075D01*
X586350Y218925D02*
X592650D01*
X586350D02*
Y222075D01*
X575055Y218630D02*
Y222370D01*
Y218630D02*
X581945D01*
Y222370D01*
X575055D02*
X581945D01*
X586213Y225630D02*
Y229370D01*
Y225630D02*
X593102D01*
Y229370D01*
X586213D02*
X593102D01*
X574898D02*
X581787D01*
Y225630D02*
Y229370D01*
X574898Y225630D02*
X581787D01*
X574898D02*
Y229370D01*
X569555Y206630D02*
Y210370D01*
Y206630D02*
X576445D01*
Y210370D01*
X569555D02*
X576445D01*
X540594Y224197D02*
Y243803D01*
Y224197D02*
X563705D01*
Y243803D01*
X540594D02*
X563705D01*
X564697Y232445D02*
X584303D01*
Y255555D01*
X564697D02*
X584303D01*
X564697Y232445D02*
Y255555D01*
X610504Y318748D02*
X627000D01*
Y302252D02*
Y318748D01*
X610504Y302252D02*
X627000D01*
X610504D02*
Y318748D01*
X443035Y113535D02*
X459965D01*
Y130465D01*
X443035D02*
X459965D01*
X443035Y113535D02*
Y130465D01*
X466114Y144425D02*
Y147575D01*
X459815D02*
X466114D01*
X459815Y144425D02*
Y147575D01*
Y144425D02*
X466114D01*
X465614Y152425D02*
Y155575D01*
X459315D02*
X465614D01*
X459315Y152425D02*
Y155575D01*
Y152425D02*
X465614D01*
X443185Y148390D02*
X453815D01*
X443185Y134610D02*
Y148390D01*
Y134610D02*
X453815D01*
Y148390D01*
X473425Y153051D02*
X476575D01*
X473425Y146949D02*
Y153051D01*
Y146949D02*
X476575D01*
Y153051D01*
X490039Y145308D02*
X494961D01*
Y153182D01*
X490039D02*
X494961D01*
X490039Y145308D02*
Y153182D01*
X486858Y137417D02*
Y139583D01*
Y137417D02*
X490992D01*
Y139583D01*
X486858D02*
X490992D01*
X481516Y138828D02*
X483484D01*
X481516Y134891D02*
Y138828D01*
Y134891D02*
X483484D01*
Y138828D01*
X480039Y150993D02*
X484961D01*
X480039Y143118D02*
Y150993D01*
Y143118D02*
X484961D01*
Y150993D01*
X477811Y115146D02*
Y120854D01*
Y115146D02*
X486472D01*
Y120854D01*
X477811D02*
X486472D01*
X352539Y313563D02*
X357461D01*
Y321437D01*
X352539D02*
X357461D01*
X352539Y313563D02*
Y321437D01*
X386039Y325563D02*
X390961D01*
Y333437D01*
X386039D02*
X390961D01*
X386039Y325563D02*
Y333437D01*
X363039Y315004D02*
X367961D01*
Y322878D01*
X363039D02*
X367961D01*
X363039Y315004D02*
Y322878D01*
X568425Y330949D02*
X571575D01*
Y337051D01*
X568425D02*
X571575D01*
X568425Y330949D02*
Y337051D01*
X531925Y259189D02*
X535075D01*
Y265291D01*
X531925D02*
X535075D01*
X531925Y259189D02*
Y265291D01*
X585051Y303425D02*
Y306575D01*
X578949D02*
X585051D01*
X578949Y303425D02*
Y306575D01*
Y303425D02*
X585051D01*
X520791D02*
Y306575D01*
X514689D02*
X520791D01*
X514689Y303425D02*
Y306575D01*
Y303425D02*
X520791D01*
X590425Y299209D02*
X593575D01*
Y305311D01*
X590425D02*
X593575D01*
X590425Y299209D02*
Y305311D01*
X530291Y373425D02*
Y376575D01*
X524189D02*
X530291D01*
X524189Y373425D02*
Y376575D01*
Y373425D02*
X530291D01*
X536209D02*
Y376575D01*
Y373425D02*
X542311D01*
Y376575D01*
X536209D02*
X542311D01*
X363563Y221539D02*
Y226461D01*
Y221539D02*
X371437D01*
Y226461D01*
X363563D02*
X371437D01*
X527150Y287350D02*
X529850D01*
Y292350D01*
X527150D02*
X529850D01*
X527150Y287350D02*
Y292350D01*
X559844Y317516D02*
Y319484D01*
Y317516D02*
X563781D01*
Y319484D01*
X559844D02*
X563781D01*
X545532Y317016D02*
Y318984D01*
Y317016D02*
X549469D01*
Y318984D01*
X545532D02*
X549469D01*
X566344Y324016D02*
Y325984D01*
Y324016D02*
X570281D01*
Y325984D01*
X566344D02*
X570281D01*
X567244Y310669D02*
X572756D01*
Y319331D01*
X567244D02*
X572756D01*
X567244Y310669D02*
Y319331D01*
X569531Y304016D02*
Y305984D01*
Y304016D02*
X573468D01*
Y305984D01*
X569531D02*
X573468D01*
X534531Y304016D02*
Y305984D01*
Y304016D02*
X538469D01*
Y305984D01*
X534531D02*
X538469D01*
X525744Y297126D02*
X531256D01*
Y305787D01*
X525744D02*
X531256D01*
X525744Y297126D02*
Y305787D01*
X507291Y303425D02*
Y306575D01*
X501189D02*
X507291D01*
X501189Y303425D02*
Y306575D01*
Y303425D02*
X507291D01*
X447051Y297925D02*
Y301075D01*
X440949D02*
X447051D01*
X440949Y297925D02*
Y301075D01*
Y297925D02*
X447051D01*
X410949Y269425D02*
Y272575D01*
Y269425D02*
X417051D01*
Y272575D01*
X410949D02*
X417051D01*
X434551Y297925D02*
Y301075D01*
X428449D02*
X434551D01*
X428449Y297925D02*
Y301075D01*
Y297925D02*
X434551D01*
X375949Y273425D02*
Y276575D01*
Y273425D02*
X382051D01*
Y276575D01*
X375949D02*
X382051D01*
X642563Y290961D02*
X650437D01*
Y286039D02*
Y290961D01*
X642563Y286039D02*
X650437D01*
X642563D02*
Y290961D01*
X517031Y342819D02*
X520968D01*
Y349905D01*
X517031D02*
X520968D01*
X517031Y342819D02*
Y349905D01*
X529937Y338736D02*
Y350744D01*
Y338736D02*
X536827D01*
Y350744D01*
X529937D02*
X536827D01*
X544130Y335055D02*
X547870D01*
Y341945D01*
X544130D02*
X547870D01*
X544130Y335055D02*
Y341945D01*
X330532Y339457D02*
X334469D01*
Y346543D01*
X330532D02*
X334469D01*
X330532Y339457D02*
Y346543D01*
X366445Y337630D02*
Y341370D01*
X359555D02*
X366445D01*
X359555Y337630D02*
Y341370D01*
Y337630D02*
X366445D01*
X291728Y275153D02*
X295272D01*
Y281846D01*
X291728D02*
X295272D01*
X291728Y275153D02*
Y281846D01*
X415728Y311846D02*
X419272D01*
X415728Y305153D02*
Y311846D01*
Y305153D02*
X419272D01*
Y311846D01*
X285650Y225425D02*
Y228575D01*
X279350D02*
X285650D01*
X279350Y225425D02*
Y228575D01*
Y225425D02*
X285650D01*
X354425Y194671D02*
X357575D01*
X354425Y188372D02*
Y194671D01*
Y188372D02*
X357575D01*
Y194671D01*
X289150Y239925D02*
Y243075D01*
X282850D02*
X289150D01*
X282850Y239925D02*
Y243075D01*
Y239925D02*
X289150D01*
X308425Y248350D02*
X311575D01*
Y254650D01*
X308425D02*
X311575D01*
X308425Y248350D02*
Y254650D01*
X315425Y248850D02*
X318575D01*
Y255150D01*
X315425D02*
X318575D01*
X315425Y248850D02*
Y255150D01*
X361347Y206728D02*
Y210272D01*
X354654D02*
X361347D01*
X354654Y206728D02*
Y210272D01*
Y206728D02*
X361347D01*
X353850Y214425D02*
Y217575D01*
Y214425D02*
X360150D01*
Y217575D01*
X353850D02*
X360150D01*
X285228Y275153D02*
X288772D01*
Y281846D01*
X285228D02*
X288772D01*
X285228Y275153D02*
Y281846D01*
X350372Y226925D02*
Y230075D01*
Y226925D02*
X356671D01*
Y230075D01*
X350372D02*
X356671D01*
X301425Y248350D02*
X304575D01*
Y254650D01*
X301425D02*
X304575D01*
X301425Y248350D02*
Y254650D01*
X426949Y416768D02*
X455295D01*
X453878Y416512D02*
Y454504D01*
X428366D02*
X453878D01*
X428366Y416512D02*
Y454504D01*
Y416512D02*
X453878D01*
X492327Y416980D02*
X520673D01*
X519256Y416724D02*
Y454716D01*
X493744D02*
X519256D01*
X493744Y416724D02*
Y454716D01*
Y416724D02*
X519256D01*
X700480Y358327D02*
Y386673D01*
X700224Y359744D02*
X738216D01*
Y385256D01*
X700224D02*
X738216D01*
X700224Y359744D02*
Y385256D01*
X577827Y416980D02*
X606173D01*
X604756Y416724D02*
Y454716D01*
X579244D02*
X604756D01*
X579244Y416724D02*
Y454716D01*
Y416724D02*
X604756D01*
X700768Y243205D02*
Y271551D01*
X700512Y244622D02*
X738504D01*
Y270134D01*
X700512D02*
X738504D01*
X700512Y244622D02*
Y270134D01*
X479539Y324504D02*
X484461D01*
Y332378D01*
X479539D02*
X484461D01*
X479539Y324504D02*
Y332378D01*
X640539Y314437D02*
X645461D01*
X640539Y306563D02*
Y314437D01*
Y306563D02*
X645461D01*
Y314437D01*
X649776Y333039D02*
Y337961D01*
X641902D02*
X649776D01*
X641902Y333039D02*
Y337961D01*
Y333039D02*
X649776D01*
X508516Y113657D02*
Y125862D01*
Y113657D02*
X520720D01*
Y125862D01*
X508516D02*
X520720D01*
X277095Y299425D02*
Y302575D01*
Y299425D02*
X283394D01*
Y302575D01*
X277095D02*
X283394D01*
X502728Y114398D02*
X506272D01*
Y121091D01*
X502728D02*
X506272D01*
X502728Y114398D02*
Y121091D01*
X523925Y123628D02*
X527075D01*
X523925Y117329D02*
Y123628D01*
Y117329D02*
X527075D01*
Y123628D01*
X480925Y312350D02*
X484075D01*
Y318650D01*
X480925D02*
X484075D01*
X480925Y312350D02*
Y318650D01*
X536551Y363925D02*
Y367075D01*
X530449D02*
X536551D01*
X530449Y363925D02*
Y367075D01*
Y363925D02*
X536551D01*
X593827Y147159D02*
Y153261D01*
X597173D01*
Y147159D02*
Y153261D01*
X593827Y147159D02*
X597173D01*
X556815Y135110D02*
Y148890D01*
X546185Y135110D02*
X556815D01*
X546185D02*
Y148890D01*
X556815D01*
X564075Y139350D02*
Y145650D01*
X560925Y139350D02*
X564075D01*
X560925D02*
Y145650D01*
X564075D01*
X350551Y351425D02*
Y354575D01*
X344449D02*
X350551D01*
X344449Y351425D02*
Y354575D01*
Y351425D02*
X350551D01*
X589370Y146205D02*
Y152701D01*
X585630Y146205D02*
X589370D01*
X585630D02*
Y152701D01*
X589370D01*
X575925Y152051D02*
X579075D01*
X575925Y145949D02*
Y152051D01*
Y145949D02*
X579075D01*
Y152051D01*
X295075Y288850D02*
Y295150D01*
X291925Y288850D02*
X295075D01*
X291925D02*
Y295150D01*
X295075D01*
X549035Y113870D02*
Y130799D01*
X565965D01*
Y113870D02*
Y130799D01*
X549035Y113870D02*
X565965D01*
X584169Y110146D02*
Y115854D01*
Y110146D02*
X592831D01*
Y115854D01*
X584169D02*
X592831D01*
X593433Y137917D02*
Y140083D01*
Y137917D02*
X597567D01*
Y140083D01*
X593433D02*
X597567D01*
X588016Y138828D02*
X589984D01*
X588016Y134891D02*
Y138828D01*
Y134891D02*
X589984D01*
Y138828D01*
D14*
X385921Y318311D02*
G03*
X385921Y318311I-1969J0D01*
G01*
X467559Y130429D02*
G03*
X467559Y130429I-1969J0D01*
G01*
X574217Y130347D02*
G03*
X574217Y130347I-1969J0D01*
G01*
X360739Y280670D02*
G03*
X360739Y280670I-787J0D01*
G01*
X380410Y281146D02*
Y321854D01*
X401590Y281146D02*
Y321854D01*
X380410D02*
X401590D01*
X380410Y281146D02*
X401590D01*
X542130Y214555D02*
X545870D01*
X542130Y221445D02*
X545870D01*
X542130Y214555D02*
Y221445D01*
X545870Y214555D02*
Y221445D01*
X585130Y204555D02*
X588870D01*
X585130Y211445D02*
X588870D01*
X585130Y204555D02*
Y211445D01*
X588870Y204555D02*
Y211445D01*
X548087Y309189D02*
X550095Y311197D01*
X548087Y299386D02*
Y311197D01*
Y299386D02*
X559898D01*
Y311197D01*
X548087D02*
X559898D01*
X560055Y221870D02*
X566945D01*
X560055Y218130D02*
X566945D01*
X560055D02*
Y221870D01*
X566945Y218130D02*
Y221870D01*
X560055Y216370D02*
X566945D01*
X560055Y212630D02*
X566945D01*
X560055D02*
Y216370D01*
X566945Y212630D02*
Y216370D01*
X560055Y210870D02*
X566945D01*
X560055Y207130D02*
X566945D01*
X560055D02*
Y210870D01*
X566945Y207130D02*
Y210870D01*
X226016Y215748D02*
X236016D01*
Y194252D02*
Y215748D01*
X226016Y194252D02*
X236016D01*
X226016D02*
Y215748D01*
X583370Y204555D02*
Y211445D01*
X579630Y204555D02*
Y211445D01*
X583370D01*
X579630Y204555D02*
X583370D01*
X225016Y184748D02*
X235016D01*
Y163252D02*
Y184748D01*
X225016Y163252D02*
X235016D01*
X225016D02*
Y184748D01*
Y160748D02*
X235016D01*
Y139252D02*
Y160748D01*
X225016Y139252D02*
X235016D01*
X225016D02*
Y160748D01*
X251169Y176146D02*
Y181854D01*
X259831Y176146D02*
Y181854D01*
X251169D02*
X259831D01*
X251169Y176146D02*
X259831D01*
X266610Y170055D02*
Y176945D01*
X270390Y170055D02*
Y176945D01*
X266610Y170055D02*
X270390D01*
X266610Y176945D02*
X270390D01*
X251205Y164646D02*
Y170354D01*
X259866Y164646D02*
Y170354D01*
X251205D02*
X259866D01*
X251205Y164646D02*
X259866D01*
X250705Y151646D02*
Y157354D01*
X259366Y151646D02*
Y157354D01*
X250705D02*
X259366D01*
X250705Y151646D02*
X259366D01*
X555870Y214555D02*
Y221445D01*
X552130Y214555D02*
Y221445D01*
X555870D01*
X552130Y214555D02*
X555870D01*
X550870D02*
Y221445D01*
X547130Y214555D02*
Y221445D01*
X550870D01*
X547130Y214555D02*
X550870D01*
X462047Y126886D02*
X477795D01*
X462047Y138697D02*
X477795D01*
X462047Y126886D02*
Y138697D01*
X477795Y126886D02*
Y138697D01*
X460457Y109307D02*
X467543D01*
X460457Y122693D02*
X467543D01*
X460457Y109307D02*
Y122693D01*
X467543Y109307D02*
Y122693D01*
X487295Y122417D02*
Y124583D01*
X483161Y122417D02*
Y124583D01*
Y122417D02*
X487295D01*
X483161Y124583D02*
X487295D01*
X481417Y126933D02*
X483583D01*
X481417Y131067D02*
X483583D01*
X481417Y126933D02*
Y131067D01*
X483583Y126933D02*
Y131067D01*
X594370Y204555D02*
Y211445D01*
X590630Y204555D02*
Y211445D01*
X594370D01*
X590630Y204555D02*
X594370D01*
X566583Y301398D02*
Y305532D01*
X564417Y301398D02*
Y305532D01*
X566583D01*
X564417Y301398D02*
X566583D01*
X543583Y301433D02*
Y305567D01*
X541417Y301433D02*
Y305567D01*
X543583D01*
X541417Y301433D02*
X543583D01*
X398594Y265370D02*
X405484D01*
X398594Y261630D02*
X405484D01*
X398594D02*
Y265370D01*
X405484Y261630D02*
Y265370D01*
X410653D02*
X417346D01*
X410653Y261630D02*
X417346D01*
X410653D02*
Y265370D01*
X417346Y261630D02*
Y265370D01*
X410653Y258870D02*
X417346D01*
X410653Y255130D02*
X417346D01*
X410653D02*
Y258870D01*
X417346Y255130D02*
Y258870D01*
X354555Y203870D02*
X361445D01*
X354555Y200130D02*
X361445D01*
X354555D02*
Y203870D01*
X361445Y200130D02*
Y203870D01*
X279055Y221870D02*
X285945D01*
X279055Y218130D02*
X285945D01*
X279055D02*
Y221870D01*
X285945Y218130D02*
Y221870D01*
X267110Y145055D02*
Y151945D01*
X270890Y145055D02*
Y151945D01*
X267110Y145055D02*
X270890D01*
X267110Y151945D02*
X270890D01*
X251169Y140646D02*
Y146354D01*
X259831Y140646D02*
Y146354D01*
X251169D02*
X259831D01*
X251169Y140646D02*
X259831D01*
X482055Y303130D02*
Y306870D01*
X488945Y303130D02*
Y306870D01*
X482055D02*
X488945D01*
X482055Y303130D02*
X488945D01*
X301130Y318445D02*
X304870D01*
X301130Y311555D02*
X304870D01*
Y318445D01*
X301130Y311555D02*
Y318445D01*
X397870Y270055D02*
Y276945D01*
X394130Y270055D02*
Y276945D01*
X397870D01*
X394130Y270055D02*
X397870D01*
X398870Y326055D02*
Y332945D01*
X395130Y326055D02*
Y332945D01*
X398870D01*
X395130Y326055D02*
X398870D01*
X405870Y325898D02*
Y332787D01*
X402130Y325898D02*
Y332787D01*
X405870D01*
X402130Y325898D02*
X405870D01*
X468409Y320370D02*
X475299D01*
X468409Y316630D02*
X475299D01*
X468409D02*
Y320370D01*
X475299Y316630D02*
Y320370D01*
X453555Y298130D02*
X460445D01*
X453555Y301870D02*
X460445D01*
Y298130D02*
Y301870D01*
X453555Y298130D02*
Y301870D01*
X391370Y270055D02*
Y276945D01*
X387630Y270055D02*
Y276945D01*
X391370D01*
X387630Y270055D02*
X391370D01*
X568705Y126803D02*
X584453D01*
X568705Y138614D02*
X584453D01*
X568705Y126803D02*
Y138614D01*
X584453Y126803D02*
Y138614D01*
X352079Y278701D02*
Y291299D01*
X361921D01*
Y278701D02*
Y291299D01*
X352079Y278701D02*
X361921D01*
X383378Y406992D02*
X410898D01*
X383378Y381008D02*
X410898D01*
Y406992D01*
X383378Y381008D02*
Y406992D01*
X592693Y129043D02*
Y131209D01*
X588559Y129043D02*
Y131209D01*
Y129043D02*
X592693D01*
X588559Y131209D02*
X592693D01*
X588567Y120917D02*
Y123083D01*
X584433Y120917D02*
Y123083D01*
Y120917D02*
X588567D01*
X584433Y123083D02*
X588567D01*
X566957Y107795D02*
X574043D01*
X566957Y121181D02*
X574043D01*
X566957Y107795D02*
Y121181D01*
X574043Y107795D02*
Y121181D01*
D15*
X338685Y197394D02*
Y236764D01*
X299315Y197394D02*
Y236764D01*
X338685D01*
X299315Y197394D02*
X338685D01*
X521053Y213774D02*
X538573D01*
Y254226D01*
X521053D02*
X538573D01*
X521053Y213774D02*
Y254226D01*
D18*
X314150Y308615D02*
X317482Y305283D01*
X314150D02*
X317482Y308615D01*
X314150Y306949D02*
X317482D01*
X315816Y305283D02*
Y308615D01*
D152*
X318800Y309750D02*
G03*
X321200Y309750I1200J0D01*
G01*
D153*
X313900Y307808D02*
Y308908D01*
X309950D02*
X313900D01*
X309950Y307808D02*
Y308908D01*
Y307808D02*
X313900D01*
Y305840D02*
Y306940D01*
X309950D02*
X313900D01*
X309950Y305840D02*
Y306940D01*
Y305840D02*
X313900D01*
Y303871D02*
Y304971D01*
X309950D02*
X313900D01*
X309950Y303871D02*
Y304971D01*
Y303871D02*
X313900D01*
Y301903D02*
Y303003D01*
X309950D02*
X313900D01*
X309950Y301903D02*
Y303003D01*
Y301903D02*
X313900D01*
Y299934D02*
Y301034D01*
X309950D02*
X313900D01*
X309950Y299934D02*
Y301034D01*
Y299934D02*
X313900D01*
Y297966D02*
Y299066D01*
X309950D02*
X313900D01*
X309950Y297966D02*
Y299066D01*
Y297966D02*
X313900D01*
Y295997D02*
Y297097D01*
X309950D02*
X313900D01*
X309950Y295997D02*
Y297097D01*
Y295997D02*
X313900D01*
Y294029D02*
Y295129D01*
X309950D02*
X313900D01*
X309950Y294029D02*
Y295129D01*
Y294029D02*
X313900D01*
Y292060D02*
Y293160D01*
X309950D02*
X313900D01*
X309950Y292060D02*
Y293160D01*
Y292060D02*
X313900D01*
Y290092D02*
Y291192D01*
X309950D02*
X313900D01*
X309950Y290092D02*
Y291192D01*
Y290092D02*
X313900D01*
X326100D02*
Y291192D01*
Y290092D02*
X330050D01*
Y291192D01*
X326100D02*
X330050D01*
X326100Y292060D02*
Y293160D01*
Y292060D02*
X330050D01*
Y293160D01*
X326100D02*
X330050D01*
X326100Y294029D02*
Y295129D01*
Y294029D02*
X330050D01*
Y295129D01*
X326100D02*
X330050D01*
X326100Y295997D02*
Y297097D01*
Y295997D02*
X330050D01*
Y297097D01*
X326100D02*
X330050D01*
X326100Y297966D02*
Y299066D01*
Y297966D02*
X330050D01*
Y299066D01*
X326100D02*
X330050D01*
X326100Y299934D02*
Y301034D01*
Y299934D02*
X330050D01*
Y301034D01*
X326100D02*
X330050D01*
X326100Y301903D02*
Y303003D01*
Y301903D02*
X330050D01*
Y303003D01*
X326100D02*
X330050D01*
X326100Y303871D02*
Y304971D01*
Y303871D02*
X330050D01*
Y304971D01*
X326100D02*
X330050D01*
X326100Y305840D02*
Y306940D01*
Y305840D02*
X330050D01*
Y306940D01*
X326100D02*
X330050D01*
X326100Y307808D02*
Y308908D01*
Y307808D02*
X330050D01*
Y308908D01*
X326100D02*
X330050D01*
X313900Y289250D02*
X326100D01*
Y309750D01*
X313900D02*
X326100D01*
X313900Y289250D02*
Y309750D01*
M02*
