G04*
G04 #@! TF.GenerationSoftware,Altium Limited,Altium Designer,23.8.1 (32)*
G04*
G04 Layer_Physical_Order=4*
G04 Layer_Color=16711680*
%FSLAX25Y25*%
%MOIN*%
G70*
G04*
G04 #@! TF.SameCoordinates,153C8A97-D4D0-4ED2-B9B7-1791E5601574*
G04*
G04*
G04 #@! TF.FilePolarity,Positive*
G04*
G01*
G75*
%ADD17C,0.01000*%
%ADD84R,0.05315X0.16535*%
%ADD86R,0.16535X0.05315*%
%ADD124C,0.06181*%
%ADD125R,0.06181X0.06181*%
%ADD128R,0.06653X0.06653*%
%ADD129C,0.06653*%
%ADD138C,0.02000*%
%ADD139C,0.03000*%
%ADD140C,0.04000*%
%ADD141C,0.01500*%
%ADD143C,0.05000*%
%ADD144C,0.04921*%
%ADD145R,0.04921X0.04921*%
%ADD146C,0.05984*%
G04:AMPARAMS|DCode=147|XSize=59.84mil|YSize=59.84mil|CornerRadius=14.96mil|HoleSize=0mil|Usage=FLASHONLY|Rotation=270.000|XOffset=0mil|YOffset=0mil|HoleType=Round|Shape=RoundedRectangle|*
%AMROUNDEDRECTD147*
21,1,0.05984,0.02992,0,0,270.0*
21,1,0.02992,0.05984,0,0,270.0*
1,1,0.02992,-0.01496,-0.01496*
1,1,0.02992,-0.01496,0.01496*
1,1,0.02992,0.01496,0.01496*
1,1,0.02992,0.01496,-0.01496*
%
%ADD147ROUNDEDRECTD147*%
%ADD148R,0.06102X0.06102*%
%ADD149C,0.06102*%
G04:AMPARAMS|DCode=150|XSize=59.84mil|YSize=59.84mil|CornerRadius=14.96mil|HoleSize=0mil|Usage=FLASHONLY|Rotation=0.000|XOffset=0mil|YOffset=0mil|HoleType=Round|Shape=RoundedRectangle|*
%AMROUNDEDRECTD150*
21,1,0.05984,0.02992,0,0,0.0*
21,1,0.02992,0.05984,0,0,0.0*
1,1,0.02992,0.01496,-0.01496*
1,1,0.02992,-0.01496,-0.01496*
1,1,0.02992,-0.01496,0.01496*
1,1,0.02992,0.01496,0.01496*
%
%ADD150ROUNDEDRECTD150*%
%ADD151C,0.02000*%
%ADD152C,0.30000*%
%ADD153C,0.01968*%
G36*
X702000Y98500D02*
X200000D01*
Y417000D01*
X702000D01*
Y98500D01*
D02*
G37*
%LPC*%
G36*
X397818Y401961D02*
X396907D01*
X396026Y401725D01*
X395237Y401269D01*
X394593Y400625D01*
X394137Y399836D01*
X393902Y398956D01*
Y398044D01*
X394137Y397164D01*
X394593Y396375D01*
X395237Y395731D01*
X396026Y395275D01*
X396907Y395039D01*
X397818D01*
X398698Y395275D01*
X399487Y395731D01*
X400131Y396375D01*
X400587Y397164D01*
X400823Y398044D01*
Y398956D01*
X400587Y399836D01*
X400131Y400625D01*
X399487Y401269D01*
X398698Y401725D01*
X397818Y401961D01*
D02*
G37*
G36*
X357239Y388459D02*
X343410D01*
X342435Y388265D01*
X341608Y387713D01*
X339198Y385302D01*
X338645Y384475D01*
X338451Y383500D01*
Y380844D01*
X338018Y380594D01*
X337541Y380870D01*
X336526Y381142D01*
X335474D01*
X334459Y380870D01*
X333549Y380344D01*
X332805Y379601D01*
X332280Y378690D01*
X332008Y377675D01*
Y376624D01*
X332280Y375609D01*
X332805Y374698D01*
X333451Y374053D01*
Y319556D01*
X332732Y318837D01*
X329049Y322520D01*
Y343517D01*
X329398D01*
X330133Y343821D01*
X330696Y344384D01*
X331000Y345119D01*
Y345914D01*
X330696Y346650D01*
X330133Y347212D01*
X329398Y347517D01*
X329049D01*
Y374553D01*
X329194Y374698D01*
X329720Y375609D01*
X329992Y376624D01*
Y377675D01*
X329720Y378690D01*
X329194Y379601D01*
X328451Y380344D01*
X327541Y380870D01*
X326526Y381142D01*
X325474D01*
X324459Y380870D01*
X323549Y380344D01*
X322806Y379601D01*
X322280Y378690D01*
X322008Y377675D01*
Y376624D01*
X322280Y375609D01*
X322806Y374698D01*
X323549Y373955D01*
X323951Y373723D01*
Y323807D01*
X323489Y323616D01*
X318049Y329056D01*
Y373723D01*
X318451Y373955D01*
X319195Y374698D01*
X319720Y375609D01*
X319992Y376624D01*
Y377675D01*
X319720Y378690D01*
X319195Y379601D01*
X318451Y380344D01*
X317541Y380870D01*
X316526Y381142D01*
X315474D01*
X314459Y380870D01*
X313549Y380344D01*
X312806Y379601D01*
X312280Y378690D01*
X312008Y377675D01*
Y376624D01*
X312280Y375609D01*
X312806Y374698D01*
X312951Y374553D01*
Y330307D01*
X312489Y330116D01*
X308049Y334556D01*
Y373723D01*
X308451Y373955D01*
X309194Y374698D01*
X309720Y375609D01*
X309992Y376624D01*
Y377675D01*
X309720Y378690D01*
X309194Y379601D01*
X308451Y380344D01*
X307541Y380870D01*
X306526Y381142D01*
X305474D01*
X304459Y380870D01*
X303549Y380344D01*
X302805Y379601D01*
X302280Y378690D01*
X302008Y377675D01*
Y376624D01*
X302280Y375609D01*
X302805Y374698D01*
X302951Y374553D01*
Y333500D01*
X303145Y332525D01*
X303698Y331698D01*
X317806Y317590D01*
X317614Y317128D01*
X311140D01*
X310164Y316934D01*
X309337Y316381D01*
X308785Y315554D01*
X308591Y314579D01*
Y308860D01*
X308785Y307885D01*
X309337Y307058D01*
X316680Y299715D01*
X316910Y299562D01*
X316959Y299064D01*
X309944Y292049D01*
X243850Y292049D01*
X242875Y291855D01*
X242048Y291302D01*
X241238Y290492D01*
X240325D01*
X239310Y290220D01*
X238399Y289694D01*
X237656Y288951D01*
X237130Y288041D01*
X236858Y287026D01*
Y285974D01*
X237130Y284959D01*
X237656Y284049D01*
X238399Y283306D01*
X239310Y282780D01*
X240325Y282508D01*
X241376D01*
X242391Y282780D01*
X243302Y283306D01*
X244045Y284049D01*
X244571Y284959D01*
X244843Y285974D01*
Y286887D01*
X244906Y286951D01*
X247043D01*
X247235Y286489D01*
X241238Y280492D01*
X240325D01*
X239310Y280220D01*
X238399Y279695D01*
X237656Y278951D01*
X237130Y278041D01*
X236858Y277026D01*
Y275974D01*
X237130Y274959D01*
X237656Y274049D01*
X238399Y273306D01*
X239310Y272780D01*
X240325Y272508D01*
X241376D01*
X242391Y272780D01*
X243302Y273306D01*
X244045Y274049D01*
X244571Y274959D01*
X244843Y275974D01*
Y276887D01*
X252406Y284451D01*
X291500D01*
Y284102D01*
X291805Y283367D01*
X292367Y282804D01*
X293102Y282500D01*
X293898D01*
X294633Y282804D01*
X295196Y283367D01*
X295500Y284102D01*
Y284451D01*
X312500D01*
X313475Y284645D01*
X314302Y285198D01*
X321989Y292884D01*
X322451Y292693D01*
Y268556D01*
X304698Y250802D01*
X304145Y249975D01*
X303951Y249000D01*
Y232462D01*
X303451Y232255D01*
X284853Y250853D01*
X284017Y251494D01*
X283044Y251897D01*
X282000Y252034D01*
X280956Y251897D01*
X280534Y251723D01*
X280251Y252146D01*
X291248Y263144D01*
X305307D01*
X306282Y263338D01*
X307109Y263890D01*
X307662Y264717D01*
X307856Y265693D01*
X307662Y266668D01*
X307109Y267495D01*
X306282Y268047D01*
X305307Y268242D01*
X302862D01*
X302626Y268683D01*
X302855Y269024D01*
X303049Y270000D01*
X302855Y270975D01*
X302302Y271802D01*
X301476Y272355D01*
X300500Y272549D01*
X288000D01*
X287024Y272355D01*
X286198Y271802D01*
X260698Y246302D01*
X260145Y245476D01*
X259951Y244500D01*
Y185500D01*
X260145Y184525D01*
X260698Y183698D01*
X294451Y149944D01*
Y141277D01*
X294049Y141045D01*
X293305Y140302D01*
X292780Y139391D01*
X292508Y138376D01*
Y137325D01*
X292780Y136310D01*
X293305Y135399D01*
X294049Y134656D01*
X294959Y134130D01*
X295974Y133858D01*
X297026D01*
X298041Y134130D01*
X298951Y134656D01*
X299694Y135399D01*
X300220Y136310D01*
X300492Y137325D01*
Y138376D01*
X300220Y139391D01*
X299694Y140302D01*
X299549Y140447D01*
Y151000D01*
X299355Y151976D01*
X298802Y152802D01*
X265049Y186556D01*
Y187268D01*
X265549Y187420D01*
X265698Y187198D01*
X303451Y149444D01*
Y140447D01*
X303306Y140302D01*
X302780Y139391D01*
X302508Y138376D01*
Y137325D01*
X302780Y136310D01*
X303306Y135399D01*
X304049Y134656D01*
X304959Y134130D01*
X305974Y133858D01*
X307026D01*
X308041Y134130D01*
X308951Y134656D01*
X309695Y135399D01*
X310220Y136310D01*
X310492Y137325D01*
Y138376D01*
X310220Y139391D01*
X309695Y140302D01*
X308951Y141045D01*
X308549Y141277D01*
Y150500D01*
X308355Y151476D01*
X307802Y152302D01*
X270049Y190056D01*
Y232538D01*
X270549Y232745D01*
X294647Y208647D01*
X294647Y208647D01*
X302970Y200325D01*
Y191452D01*
X302443Y190765D01*
X302090Y189914D01*
X301970Y189000D01*
X302090Y188086D01*
X302443Y187235D01*
X303004Y186504D01*
X303735Y185943D01*
X304586Y185590D01*
X305500Y185470D01*
X306414Y185590D01*
X307265Y185943D01*
X307996Y186504D01*
X308996Y187504D01*
X309557Y188235D01*
X309910Y189086D01*
X310030Y190000D01*
Y198466D01*
X350329D01*
X357647Y191147D01*
X358483Y190506D01*
X359456Y190103D01*
X360500Y189965D01*
X361544Y190103D01*
X362517Y190506D01*
X363353Y191147D01*
X363994Y191983D01*
X364397Y192956D01*
X364534Y194000D01*
X364397Y195044D01*
X363994Y196017D01*
X363353Y196853D01*
X356202Y204004D01*
X356394Y204466D01*
X366000D01*
X367044Y204603D01*
X368017Y205006D01*
X368853Y205647D01*
X369494Y206483D01*
X369897Y207456D01*
X369945Y207817D01*
X370418Y207977D01*
X372451Y205944D01*
Y187406D01*
X326887Y141843D01*
X325974D01*
X324959Y141571D01*
X324049Y141045D01*
X323306Y140302D01*
X322780Y139391D01*
X322508Y138376D01*
Y137325D01*
X322780Y136310D01*
X323306Y135399D01*
X323639Y135066D01*
X323670Y135020D01*
X323715Y134989D01*
X324049Y134656D01*
X324959Y134130D01*
X325974Y133858D01*
X327026D01*
X328041Y134130D01*
X328951Y134656D01*
X329695Y135399D01*
X330220Y136310D01*
X330492Y137325D01*
Y138238D01*
X376451Y184197D01*
X376951Y183990D01*
Y181906D01*
X336887Y141843D01*
X335974D01*
X334959Y141571D01*
X334049Y141045D01*
X333306Y140302D01*
X332780Y139391D01*
X332508Y138376D01*
Y137325D01*
X332780Y136310D01*
X333306Y135399D01*
X334049Y134656D01*
X334959Y134130D01*
X335974Y133858D01*
X337026D01*
X338041Y134130D01*
X338951Y134656D01*
X339694Y135399D01*
X340220Y136310D01*
X340492Y137325D01*
Y138238D01*
X380951Y178697D01*
X381451Y178490D01*
Y176556D01*
X346738Y141843D01*
X345974D01*
X344959Y141571D01*
X344049Y141045D01*
X343305Y140302D01*
X342780Y139391D01*
X342508Y138376D01*
Y137325D01*
X342780Y136310D01*
X342916Y136074D01*
X342962Y135842D01*
X343515Y135015D01*
X344044Y134661D01*
X344049Y134656D01*
X344068Y134645D01*
X344342Y134462D01*
X344407Y134449D01*
X344959Y134130D01*
X345974Y133858D01*
X347026D01*
X348041Y134130D01*
X348951Y134656D01*
X349694Y135399D01*
X350220Y136310D01*
X350492Y137325D01*
Y138376D01*
X350490Y138385D01*
X385802Y173698D01*
X385951Y173920D01*
X386451Y173768D01*
Y170556D01*
X357587Y141692D01*
X357026Y141843D01*
X355974D01*
X354959Y141571D01*
X354049Y141045D01*
X353306Y140302D01*
X352780Y139391D01*
X352508Y138376D01*
Y137325D01*
X352780Y136310D01*
X353306Y135399D01*
X353795Y134910D01*
X354041Y134541D01*
X354868Y133989D01*
X355844Y133795D01*
X356164Y133858D01*
X357026D01*
X358041Y134130D01*
X358951Y134656D01*
X359695Y135399D01*
X360220Y136310D01*
X360492Y137325D01*
Y137387D01*
X362177Y139072D01*
X362625Y138813D01*
X362508Y138376D01*
Y137325D01*
X362780Y136310D01*
X363305Y135399D01*
X364049Y134656D01*
X364959Y134130D01*
X365974Y133858D01*
X367026D01*
X368041Y134130D01*
X368951Y134656D01*
X369694Y135399D01*
X370220Y136310D01*
X370492Y137325D01*
Y137887D01*
X395302Y162698D01*
X395855Y163524D01*
X395951Y164007D01*
X396451Y163958D01*
Y158056D01*
X369444Y131049D01*
X325556D01*
X320236Y136369D01*
X320492Y137325D01*
Y138376D01*
X320220Y139391D01*
X319694Y140302D01*
X318951Y141045D01*
X318041Y141571D01*
X317026Y141843D01*
X315974D01*
X314959Y141571D01*
X314049Y141045D01*
X313305Y140302D01*
X312803Y139431D01*
X312557Y139063D01*
X312363Y138088D01*
X312508Y137360D01*
Y137325D01*
X312535Y137224D01*
X312557Y137112D01*
X312570Y137093D01*
X312780Y136310D01*
X313305Y135399D01*
X314049Y134656D01*
X314959Y134130D01*
X315379Y134018D01*
X316195Y133202D01*
X316199Y133196D01*
X322698Y126698D01*
X323524Y126145D01*
X324500Y125951D01*
X370500D01*
X371476Y126145D01*
X372302Y126698D01*
X400802Y155198D01*
X401355Y156025D01*
X401549Y157000D01*
Y216000D01*
X401355Y216975D01*
X400802Y217802D01*
X363802Y254802D01*
X362976Y255355D01*
X362000Y255549D01*
X347383D01*
X347327Y255627D01*
X347302Y256198D01*
X347855Y257025D01*
X348049Y258000D01*
X347855Y258976D01*
X347302Y259802D01*
X346476Y260355D01*
X345951Y260459D01*
X345549Y261000D01*
X345355Y261976D01*
X344802Y262802D01*
X343975Y263355D01*
X343000Y263549D01*
X326500D01*
X325524Y263355D01*
X324698Y262802D01*
X312198Y250302D01*
X311645Y249476D01*
X311451Y248500D01*
Y233000D01*
Y231307D01*
X310989Y231116D01*
X309049Y233056D01*
Y247944D01*
X326802Y265698D01*
X327355Y266525D01*
X327549Y267500D01*
Y301139D01*
X328049Y301346D01*
X338480Y290915D01*
Y283503D01*
X338674Y282527D01*
X339227Y281700D01*
X348713Y272213D01*
X349540Y271661D01*
X350516Y271467D01*
X351491Y271661D01*
X352318Y272213D01*
X352871Y273040D01*
X353065Y274016D01*
X352871Y274991D01*
X352318Y275818D01*
X348636Y279500D01*
X348843Y280000D01*
X349398D01*
X350133Y280305D01*
X350695Y280867D01*
X351000Y281602D01*
Y282398D01*
X350695Y283133D01*
X350133Y283696D01*
X349398Y284000D01*
X348602D01*
X347867Y283696D01*
X347305Y283133D01*
X347000Y282398D01*
Y281843D01*
X346500Y281636D01*
X343578Y284558D01*
Y291164D01*
X344040Y291355D01*
X354698Y280698D01*
X355525Y280145D01*
X356500Y279951D01*
X367500D01*
X368476Y280145D01*
X369302Y280698D01*
X369855Y281524D01*
X369989Y282199D01*
X370532Y282364D01*
X384689Y268207D01*
X385516Y267654D01*
X386491Y267460D01*
X405009D01*
X405984Y267654D01*
X406811Y268207D01*
X407364Y269033D01*
X407558Y270009D01*
X407364Y270984D01*
X406811Y271811D01*
X405984Y272364D01*
X405009Y272558D01*
X387547D01*
X374116Y285989D01*
X374307Y286451D01*
X377944D01*
X384019Y280376D01*
X384846Y279824D01*
X385821Y279630D01*
X410662D01*
X411638Y279824D01*
X412010Y280072D01*
X412451Y279837D01*
Y268000D01*
X412645Y267024D01*
X413198Y266198D01*
X420198Y259198D01*
X421025Y258645D01*
X422000Y258451D01*
X422975Y258645D01*
X423802Y259198D01*
X424355Y260024D01*
X424549Y261000D01*
X424355Y261976D01*
X423802Y262802D01*
X417549Y269056D01*
Y295162D01*
X417696Y295308D01*
X418000Y296043D01*
Y296839D01*
X417696Y297574D01*
X417133Y298136D01*
X416829Y298262D01*
X416802Y298302D01*
X415976Y298855D01*
X415000Y299049D01*
X414024Y298855D01*
X413198Y298302D01*
X412645Y297476D01*
X412451Y296500D01*
Y284521D01*
X412010Y284285D01*
X411638Y284534D01*
X410662Y284728D01*
X386877D01*
X380802Y290802D01*
X379976Y291355D01*
X379000Y291549D01*
X371353D01*
X371036Y291935D01*
X371049Y292000D01*
X370855Y292975D01*
X370302Y293802D01*
X362049Y302056D01*
Y321944D01*
X369802Y329698D01*
X370355Y330524D01*
X370549Y331500D01*
Y333768D01*
X371018Y333910D01*
X371058Y333907D01*
X371198Y333698D01*
X372024Y333145D01*
X373000Y332951D01*
X373975Y333145D01*
X374802Y333698D01*
X407056Y365951D01*
X467092D01*
X467283Y365489D01*
X438147Y336353D01*
X437506Y335517D01*
X437103Y334544D01*
X436966Y333500D01*
X436966Y333500D01*
Y243500D01*
X436966Y243500D01*
X437103Y242456D01*
X437506Y241483D01*
X438147Y240647D01*
X469970Y208824D01*
Y156500D01*
X470090Y155586D01*
X470443Y154735D01*
X471004Y154004D01*
X471735Y153443D01*
X472586Y153090D01*
X473500Y152970D01*
X474414Y153090D01*
X475265Y153443D01*
X475996Y154004D01*
X476557Y154735D01*
X476910Y155586D01*
X477030Y156500D01*
Y209070D01*
X477397Y209956D01*
X477534Y211000D01*
X477397Y212044D01*
X476994Y213017D01*
X476353Y213853D01*
X445035Y245171D01*
Y331829D01*
X473671Y360466D01*
X514500D01*
X515544Y360603D01*
X516517Y361006D01*
X517353Y361647D01*
X517994Y362483D01*
X518397Y363456D01*
X518535Y364500D01*
X518409Y365451D01*
X518647Y365918D01*
X518669Y365951D01*
X524480D01*
X530951Y359480D01*
Y345000D01*
X531145Y344024D01*
X531698Y343198D01*
X532477Y342677D01*
X532560Y342539D01*
X532673Y342166D01*
X531004Y340496D01*
X530443Y339765D01*
X530090Y338914D01*
X529970Y338000D01*
Y285500D01*
X530090Y284586D01*
X530443Y283735D01*
X531004Y283004D01*
X531735Y282443D01*
X532586Y282090D01*
X533500Y281970D01*
X534414Y282090D01*
X535265Y282443D01*
X535996Y283004D01*
X536557Y283735D01*
X536910Y284586D01*
X537030Y285500D01*
Y336538D01*
X546496Y346004D01*
X547057Y346735D01*
X547410Y347586D01*
X547530Y348500D01*
X547410Y349414D01*
X547057Y350265D01*
X546496Y350996D01*
X545765Y351557D01*
X544914Y351910D01*
X544000Y352030D01*
X543086Y351910D01*
X542235Y351557D01*
X541504Y350996D01*
X536511Y346003D01*
X536049Y346195D01*
Y360536D01*
X535855Y361511D01*
X535302Y362338D01*
X527338Y370302D01*
X526511Y370855D01*
X525535Y371049D01*
X406000D01*
X405024Y370855D01*
X404198Y370302D01*
X400011Y366116D01*
X399549Y366307D01*
Y375039D01*
X400823D01*
Y381961D01*
X393902D01*
Y375039D01*
X394451D01*
Y365056D01*
X366198Y336802D01*
X365645Y335976D01*
X365451Y335000D01*
Y332556D01*
X358511Y325616D01*
X358049Y325807D01*
Y373723D01*
X358451Y373955D01*
X359194Y374698D01*
X359720Y375609D01*
X359992Y376624D01*
Y377675D01*
X359720Y378690D01*
X359194Y379601D01*
X358451Y380344D01*
X357541Y380870D01*
X356526Y381142D01*
X355474D01*
X354459Y380870D01*
X353549Y380344D01*
X352805Y379601D01*
X352280Y378690D01*
X352008Y377675D01*
Y376624D01*
X352280Y375609D01*
X352805Y374698D01*
X352951Y374553D01*
Y308861D01*
X352451Y308654D01*
X348049Y313056D01*
Y373723D01*
X348451Y373955D01*
X349195Y374698D01*
X349720Y375609D01*
X349992Y376624D01*
Y377675D01*
X349720Y378690D01*
X349195Y379601D01*
X348451Y380344D01*
X347541Y380870D01*
X346526Y381142D01*
X345474D01*
X344459Y380870D01*
X343982Y380594D01*
X343549Y380844D01*
Y382444D01*
X344466Y383362D01*
X356183D01*
X361959Y377586D01*
Y375653D01*
X362153Y374679D01*
X362704Y373854D01*
X363530Y373302D01*
X364504Y373109D01*
X367496D01*
X368470Y373302D01*
X369296Y373854D01*
X369847Y374679D01*
X370041Y375653D01*
Y378645D01*
X369847Y379620D01*
X369296Y380445D01*
X368470Y380997D01*
X367496Y381190D01*
X365564D01*
X359041Y387713D01*
X358214Y388265D01*
X357239Y388459D01*
D02*
G37*
G36*
X308500Y415526D02*
X307717Y415423D01*
X306987Y415121D01*
X306360Y414640D01*
X306360Y414640D01*
X283860Y392140D01*
X283380Y391513D01*
X283077Y390783D01*
X282974Y390000D01*
Y379769D01*
X282805Y379601D01*
X282280Y378690D01*
X282008Y377675D01*
Y376624D01*
X282280Y375609D01*
X282805Y374698D01*
X283549Y373955D01*
X284459Y373429D01*
X285474Y373157D01*
X286526D01*
X287541Y373429D01*
X288451Y373955D01*
X289194Y374698D01*
X289720Y375609D01*
X289992Y376624D01*
Y377675D01*
X289720Y378690D01*
X289194Y379601D01*
X289026Y379769D01*
Y388747D01*
X309753Y409474D01*
X312042D01*
X312233Y409012D01*
X293860Y390640D01*
X293379Y390013D01*
X293077Y389283D01*
X292974Y388500D01*
Y379769D01*
X292806Y379601D01*
X292280Y378690D01*
X292008Y377675D01*
Y376624D01*
X292280Y375609D01*
X292806Y374698D01*
X293549Y373955D01*
X294459Y373429D01*
X295474Y373157D01*
X296526D01*
X297541Y373429D01*
X298451Y373955D01*
X299195Y374698D01*
X299720Y375609D01*
X299992Y376624D01*
Y377675D01*
X299720Y378690D01*
X299195Y379601D01*
X299026Y379769D01*
Y387247D01*
X316253Y404474D01*
X401247D01*
X431771Y373950D01*
X431771Y373950D01*
X432398Y373469D01*
X433127Y373167D01*
X433911Y373063D01*
X433911Y373063D01*
X481589D01*
X482373Y373167D01*
X483102Y373469D01*
X483729Y373950D01*
X484140Y374360D01*
X484621Y374987D01*
X484923Y375717D01*
X485026Y376500D01*
X484923Y377283D01*
X484621Y378013D01*
X484140Y378640D01*
X483513Y379120D01*
X482783Y379423D01*
X482393Y379474D01*
X482426Y379974D01*
X525747D01*
X531628Y374092D01*
Y373346D01*
X531732Y372563D01*
X532034Y371833D01*
X532515Y371206D01*
X540360Y363360D01*
X540987Y362879D01*
X541717Y362577D01*
X542500Y362474D01*
X543283Y362577D01*
X544013Y362879D01*
X544640Y363360D01*
X545120Y363987D01*
X545423Y364717D01*
X545526Y365500D01*
X545423Y366283D01*
X545120Y367013D01*
X544640Y367640D01*
X537680Y374599D01*
Y375346D01*
X537680Y375346D01*
X537577Y376129D01*
X537275Y376859D01*
X536794Y377485D01*
X529140Y385140D01*
X528513Y385620D01*
X527783Y385923D01*
X527000Y386026D01*
X438753D01*
X410140Y414640D01*
X409513Y415121D01*
X408783Y415423D01*
X408000Y415526D01*
X308500D01*
X308500Y415526D01*
D02*
G37*
G36*
X219759Y378500D02*
X217241D01*
X214753Y378106D01*
X212358Y377328D01*
X210114Y376184D01*
X208077Y374704D01*
X206296Y372923D01*
X204816Y370886D01*
X203672Y368642D01*
X202894Y366247D01*
X202500Y363759D01*
Y361241D01*
X202894Y358753D01*
X203672Y356358D01*
X204816Y354114D01*
X206296Y352077D01*
X208077Y350296D01*
X210114Y348816D01*
X212358Y347672D01*
X214753Y346894D01*
X217241Y346500D01*
X219759D01*
X222247Y346894D01*
X224642Y347672D01*
X226886Y348816D01*
X228923Y350296D01*
X230704Y352077D01*
X232184Y354114D01*
X233328Y356358D01*
X234106Y358753D01*
X234500Y361241D01*
Y363759D01*
X234106Y366247D01*
X233328Y368642D01*
X232184Y370886D01*
X230704Y372923D01*
X228923Y374704D01*
X226886Y376184D01*
X224642Y377328D01*
X222247Y378106D01*
X219759Y378500D01*
D02*
G37*
G36*
X298069Y314171D02*
X297273D01*
X296538Y313867D01*
X295976Y313304D01*
X295671Y312569D01*
Y311773D01*
X295976Y311038D01*
X296538Y310476D01*
X297273Y310171D01*
X298069D01*
X298804Y310476D01*
X299367Y311038D01*
X299671Y311773D01*
Y312569D01*
X299367Y313304D01*
X298804Y313867D01*
X298069Y314171D01*
D02*
G37*
G36*
X396229Y313549D02*
X373500D01*
X372524Y313355D01*
X371698Y312802D01*
X368198Y309302D01*
X367645Y308475D01*
X367497Y307730D01*
X367000Y307828D01*
X366024Y307634D01*
X365198Y307082D01*
X364645Y306255D01*
X364451Y305279D01*
X364645Y304304D01*
X365198Y303477D01*
X369977Y298698D01*
X370804Y298145D01*
X371779Y297951D01*
X392000D01*
X392802Y298111D01*
X393184Y297838D01*
X393257Y297732D01*
X393226Y297500D01*
Y292500D01*
X393321Y291782D01*
X393598Y291113D01*
X394039Y290539D01*
X394613Y290098D01*
X395282Y289821D01*
X396000Y289726D01*
X396718Y289821D01*
X397387Y290098D01*
X397961Y290539D01*
X398402Y291113D01*
X398679Y291782D01*
X398774Y292500D01*
Y296351D01*
X405159Y302736D01*
X411713D01*
X412431Y302831D01*
X413100Y303108D01*
X413674Y303549D01*
X414115Y304123D01*
X414392Y304792D01*
X414487Y305510D01*
X414392Y306228D01*
X414115Y306897D01*
X413674Y307471D01*
X413100Y307912D01*
X412431Y308189D01*
X411713Y308284D01*
X404010D01*
X403292Y308189D01*
X402623Y307912D01*
X402048Y307471D01*
X395006Y300428D01*
X394519Y300649D01*
X394355Y301476D01*
X393802Y302302D01*
X392975Y302855D01*
X392000Y303049D01*
X372835D01*
X371171Y304713D01*
X371258Y305334D01*
X371802Y305698D01*
X374556Y308451D01*
X395296D01*
X395754Y308145D01*
X396729Y307951D01*
X397000D01*
X397975Y308145D01*
X398802Y308698D01*
X399355Y309524D01*
X399549Y310500D01*
X399355Y311475D01*
X398802Y312302D01*
X397975Y312855D01*
X397944Y312861D01*
X397205Y313355D01*
X396229Y313549D01*
D02*
G37*
G36*
X241376Y310492D02*
X240325D01*
X239310Y310220D01*
X238399Y309695D01*
X237656Y308951D01*
X237130Y308041D01*
X236858Y307026D01*
Y305974D01*
X237130Y304959D01*
X237656Y304049D01*
X238399Y303306D01*
X239310Y302780D01*
X240325Y302508D01*
X241376D01*
X242391Y302780D01*
X243302Y303306D01*
X244045Y304049D01*
X244571Y304959D01*
X244843Y305974D01*
Y307026D01*
X244571Y308041D01*
X244045Y308951D01*
X243302Y309695D01*
X242391Y310220D01*
X241376Y310492D01*
D02*
G37*
G36*
X270907Y303009D02*
X270111D01*
X269376Y302704D01*
X268813Y302142D01*
X268509Y301407D01*
Y300611D01*
X268813Y299876D01*
X269376Y299313D01*
X270111Y299009D01*
X270907D01*
X271642Y299313D01*
X272204Y299876D01*
X272509Y300611D01*
Y301407D01*
X272204Y302142D01*
X271642Y302704D01*
X270907Y303009D01*
D02*
G37*
G36*
X299398Y299000D02*
X298602D01*
X297867Y298695D01*
X297305Y298133D01*
X297000Y297398D01*
Y296602D01*
X297305Y295867D01*
X297867Y295304D01*
X298602Y295000D01*
X299398D01*
X300133Y295304D01*
X300695Y295867D01*
X301000Y296602D01*
Y297398D01*
X300695Y298133D01*
X300133Y298695D01*
X299398Y299000D01*
D02*
G37*
G36*
X241376Y300492D02*
X240325D01*
X239310Y300220D01*
X238399Y299694D01*
X237656Y298951D01*
X237130Y298041D01*
X236858Y297026D01*
Y295974D01*
X237130Y294959D01*
X237656Y294049D01*
X238399Y293305D01*
X239310Y292780D01*
X240325Y292508D01*
X241376D01*
X242391Y292780D01*
X243302Y293305D01*
X244045Y294049D01*
X244571Y294959D01*
X244843Y295974D01*
Y297026D01*
X244571Y298041D01*
X244045Y298951D01*
X243302Y299694D01*
X242391Y300220D01*
X241376Y300492D01*
D02*
G37*
G36*
Y270492D02*
X240325D01*
X239310Y270220D01*
X238399Y269694D01*
X237656Y268951D01*
X237130Y268041D01*
X236858Y267026D01*
Y265974D01*
X237130Y264959D01*
X237656Y264049D01*
X238399Y263305D01*
X239310Y262780D01*
X240325Y262508D01*
X241376D01*
X242391Y262780D01*
X243302Y263305D01*
X244045Y264049D01*
X244571Y264959D01*
X244843Y265974D01*
Y267026D01*
X244571Y268041D01*
X244045Y268951D01*
X243302Y269694D01*
X242391Y270220D01*
X241376Y270492D01*
D02*
G37*
G36*
Y260492D02*
X240325D01*
X239310Y260220D01*
X238399Y259695D01*
X237656Y258951D01*
X237130Y258041D01*
X236858Y257026D01*
Y255974D01*
X237130Y254959D01*
X237656Y254049D01*
X238399Y253306D01*
X239310Y252780D01*
X240325Y252508D01*
X241376D01*
X242391Y252780D01*
X243302Y253306D01*
X244045Y254049D01*
X244571Y254959D01*
X244843Y255974D01*
Y257026D01*
X244571Y258041D01*
X244045Y258951D01*
X243302Y259695D01*
X242391Y260220D01*
X241376Y260492D01*
D02*
G37*
G36*
Y250492D02*
X240325D01*
X239310Y250220D01*
X238399Y249694D01*
X237656Y248951D01*
X237130Y248041D01*
X236858Y247026D01*
Y245974D01*
X237130Y244959D01*
X237656Y244049D01*
X238399Y243305D01*
X239310Y242780D01*
X240325Y242508D01*
X241376D01*
X242391Y242780D01*
X243302Y243305D01*
X244045Y244049D01*
X244571Y244959D01*
X244843Y245974D01*
Y247026D01*
X244571Y248041D01*
X244045Y248951D01*
X243302Y249694D01*
X242391Y250220D01*
X241376Y250492D01*
D02*
G37*
G36*
X299407Y243509D02*
X298611D01*
X297876Y243204D01*
X297313Y242642D01*
X297009Y241907D01*
Y241111D01*
X297313Y240376D01*
X297876Y239813D01*
X298611Y239509D01*
X299407D01*
X300142Y239813D01*
X300704Y240376D01*
X301009Y241111D01*
Y241907D01*
X300704Y242642D01*
X300142Y243204D01*
X299407Y243509D01*
D02*
G37*
G36*
X241376Y240492D02*
X240325D01*
X239310Y240220D01*
X238399Y239694D01*
X237656Y238951D01*
X237130Y238041D01*
X236858Y237026D01*
Y235974D01*
X237130Y234959D01*
X237656Y234049D01*
X238399Y233306D01*
X239310Y232780D01*
X240325Y232508D01*
X241376D01*
X242391Y232780D01*
X243302Y233306D01*
X244045Y234049D01*
X244571Y234959D01*
X244843Y235974D01*
Y237026D01*
X244571Y238041D01*
X244045Y238951D01*
X243302Y239694D01*
X242391Y240220D01*
X241376Y240492D01*
D02*
G37*
G36*
X441398Y217500D02*
X440602D01*
X439867Y217196D01*
X439304Y216633D01*
X439000Y215898D01*
Y215102D01*
X439304Y214367D01*
X439867Y213805D01*
X440602Y213500D01*
X441398D01*
X442133Y213805D01*
X442696Y214367D01*
X443000Y215102D01*
Y215898D01*
X442696Y216633D01*
X442133Y217196D01*
X441398Y217500D01*
D02*
G37*
G36*
X552000Y379539D02*
X550825Y379384D01*
X549731Y378931D01*
X548791Y378209D01*
X548069Y377269D01*
X547616Y376175D01*
X547461Y375000D01*
X547616Y373825D01*
X548069Y372731D01*
X548791Y371791D01*
X565461Y355120D01*
Y234380D01*
X550120Y219039D01*
X543000D01*
X541825Y218884D01*
X540731Y218431D01*
X539791Y217709D01*
X539069Y216769D01*
X538616Y215675D01*
X538461Y214500D01*
X538616Y213325D01*
X539069Y212231D01*
X539791Y211291D01*
X540731Y210569D01*
X541825Y210116D01*
X542443Y210034D01*
X542410Y209535D01*
X525844D01*
X525514Y209910D01*
X525526Y210000D01*
X525423Y210783D01*
X525120Y211513D01*
X524640Y212140D01*
X522526Y214253D01*
Y322500D01*
X522423Y323283D01*
X522121Y324013D01*
X521640Y324640D01*
X521013Y325120D01*
X520283Y325423D01*
X519500Y325526D01*
X518717Y325423D01*
X517987Y325120D01*
X517360Y324640D01*
X516880Y324013D01*
X516577Y323283D01*
X516474Y322500D01*
Y213000D01*
X516577Y212217D01*
X516880Y211487D01*
X517360Y210860D01*
X518224Y209997D01*
X518033Y209535D01*
X494328D01*
X487863Y216000D01*
Y252657D01*
X487725Y253701D01*
X487322Y254674D01*
X486681Y255510D01*
X486681Y255510D01*
X484338Y257853D01*
X483502Y258494D01*
X482529Y258897D01*
X481485Y259034D01*
X481485Y259034D01*
X481000D01*
X479956Y258897D01*
X479026Y258512D01*
X478660Y258643D01*
X478526Y258709D01*
Y287247D01*
X484140Y292860D01*
X484621Y293487D01*
X484923Y294217D01*
X485026Y295000D01*
X485026Y295000D01*
Y337500D01*
X484923Y338283D01*
X484621Y339013D01*
X484140Y339640D01*
X483513Y340121D01*
X482783Y340423D01*
X482000Y340526D01*
X481217Y340423D01*
X480487Y340121D01*
X479860Y339640D01*
X479380Y339013D01*
X479077Y338283D01*
X478974Y337500D01*
Y296253D01*
X473360Y290640D01*
X472880Y290013D01*
X472577Y289283D01*
X472474Y288500D01*
Y255046D01*
X472577Y254263D01*
X472880Y253533D01*
X473360Y252907D01*
X473987Y252426D01*
X474717Y252123D01*
X475500Y252020D01*
X476283Y252123D01*
X477013Y252426D01*
X477592Y252870D01*
X478147Y252147D01*
X478983Y251506D01*
X479479Y251300D01*
X479794Y250986D01*
Y214329D01*
X479794Y214328D01*
X479931Y213284D01*
X480334Y212311D01*
X480976Y211476D01*
X489804Y202647D01*
X489804Y202647D01*
X490640Y202006D01*
X491613Y201603D01*
X492657Y201466D01*
X492657Y201466D01*
X555500D01*
X555500Y201466D01*
X556544Y201603D01*
X557517Y202006D01*
X558353Y202647D01*
X565442Y209736D01*
X565915Y209575D01*
X565946Y209338D01*
X566349Y208365D01*
X566991Y207530D01*
X576466Y198055D01*
Y131456D01*
X574253Y131106D01*
X571858Y130328D01*
X569614Y129184D01*
X567577Y127704D01*
X565796Y125923D01*
X564316Y123886D01*
X563172Y121642D01*
X562394Y119247D01*
X562000Y116759D01*
Y114241D01*
X562394Y111753D01*
X563172Y109358D01*
X564316Y107114D01*
X565796Y105077D01*
X567577Y103296D01*
X569614Y101816D01*
X571858Y100672D01*
X574253Y99894D01*
X576741Y99500D01*
X579259D01*
X581747Y99894D01*
X584142Y100672D01*
X586386Y101816D01*
X588423Y103296D01*
X590204Y105077D01*
X591684Y107114D01*
X592828Y109358D01*
X593606Y111753D01*
X594000Y114241D01*
Y116759D01*
X593606Y119247D01*
X592828Y121642D01*
X591684Y123886D01*
X590204Y125923D01*
X588423Y127704D01*
X586386Y129184D01*
X584535Y130128D01*
Y199726D01*
X584397Y200770D01*
X583994Y201743D01*
X583353Y202579D01*
X572696Y213235D01*
X571861Y213877D01*
X571009Y214229D01*
X570843Y214590D01*
X570813Y214794D01*
X570946Y214966D01*
X645329D01*
X649965Y210329D01*
Y128000D01*
X649965Y128000D01*
X650103Y126956D01*
X650506Y125983D01*
X651147Y125147D01*
X662490Y113804D01*
X662490Y113804D01*
X663326Y113163D01*
X664299Y112760D01*
X665343Y112622D01*
X665343Y112622D01*
X668335D01*
X668394Y112253D01*
X669172Y109858D01*
X670316Y107614D01*
X671796Y105577D01*
X673577Y103796D01*
X675614Y102316D01*
X677858Y101172D01*
X680253Y100394D01*
X682741Y100000D01*
X685259D01*
X687747Y100394D01*
X690142Y101172D01*
X692386Y102316D01*
X694423Y103796D01*
X696204Y105577D01*
X697684Y107614D01*
X698828Y109858D01*
X699606Y112253D01*
X700000Y114741D01*
Y117259D01*
X699606Y119747D01*
X698828Y122142D01*
X697684Y124386D01*
X696204Y126423D01*
X694423Y128204D01*
X692386Y129684D01*
X690142Y130828D01*
X687747Y131606D01*
X685259Y132000D01*
X682741D01*
X680253Y131606D01*
X677858Y130828D01*
X675614Y129684D01*
X673577Y128204D01*
X671796Y126423D01*
X670316Y124386D01*
X669172Y122142D01*
X668701Y120691D01*
X667014D01*
X658035Y129671D01*
Y212000D01*
X657897Y213044D01*
X657494Y214017D01*
X656853Y214853D01*
X656853Y214853D01*
X649853Y221853D01*
X649017Y222494D01*
X648044Y222897D01*
X647000Y223035D01*
X647000Y223035D01*
X569000D01*
X567956Y222897D01*
X567217Y222591D01*
X566934Y223015D01*
X573209Y229291D01*
X573209Y229291D01*
X573931Y230231D01*
X574384Y231325D01*
X574539Y232500D01*
Y357000D01*
X574384Y358175D01*
X573931Y359269D01*
X573209Y360209D01*
X573209Y360209D01*
X555209Y378209D01*
X554269Y378931D01*
X553175Y379384D01*
X552000Y379539D01*
D02*
G37*
G36*
X246051Y204051D02*
X237949D01*
Y195949D01*
X246051D01*
Y204051D01*
D02*
G37*
G36*
X497398Y194500D02*
X496602D01*
X495867Y194195D01*
X495304Y193633D01*
X495000Y192898D01*
Y192102D01*
X495304Y191367D01*
X495867Y190805D01*
X496602Y190500D01*
X497398D01*
X498133Y190805D01*
X498696Y191367D01*
X499000Y192102D01*
Y192898D01*
X498696Y193633D01*
X498133Y194195D01*
X497398Y194500D01*
D02*
G37*
G36*
Y190000D02*
X496602D01*
X495867Y189696D01*
X495304Y189133D01*
X495000Y188398D01*
Y187602D01*
X495304Y186867D01*
X495867Y186304D01*
X495999Y186250D01*
Y185750D01*
X495867Y185696D01*
X495304Y185133D01*
X495000Y184398D01*
Y183602D01*
X495304Y182867D01*
X495867Y182305D01*
X496602Y182000D01*
X497398D01*
X498133Y182305D01*
X498696Y182867D01*
X499000Y183602D01*
Y184398D01*
X498696Y185133D01*
X498133Y185696D01*
X498001Y185750D01*
Y186250D01*
X498133Y186304D01*
X498696Y186867D01*
X499000Y187602D01*
Y188398D01*
X498696Y189133D01*
X498133Y189696D01*
X497398Y190000D01*
D02*
G37*
G36*
Y181500D02*
X496602D01*
X495867Y181195D01*
X495304Y180633D01*
X495000Y179898D01*
Y179102D01*
X495304Y178367D01*
X495867Y177805D01*
X496602Y177500D01*
X497398D01*
X498133Y177805D01*
X498696Y178367D01*
X499000Y179102D01*
Y179898D01*
X498696Y180633D01*
X498133Y181195D01*
X497398Y181500D01*
D02*
G37*
G36*
X241533Y183051D02*
X240467D01*
X239436Y182775D01*
X238512Y182242D01*
X237758Y181488D01*
X237225Y180564D01*
X236949Y179533D01*
Y178467D01*
X237225Y177436D01*
X237758Y176513D01*
X238512Y175758D01*
X239436Y175225D01*
X240467Y174949D01*
X241533D01*
X242564Y175225D01*
X243488Y175758D01*
X244242Y176513D01*
X244775Y177436D01*
X245051Y178467D01*
Y179533D01*
X244775Y180564D01*
X244242Y181488D01*
X243488Y182242D01*
X242564Y182775D01*
X241533Y183051D01*
D02*
G37*
G36*
X534000Y200026D02*
X533217Y199923D01*
X532487Y199620D01*
X531860Y199140D01*
X531380Y198513D01*
X531077Y197783D01*
X530974Y197000D01*
Y173500D01*
X531077Y172717D01*
X531380Y171987D01*
X531860Y171360D01*
X535860Y167360D01*
X535860Y167360D01*
X536487Y166879D01*
X537217Y166577D01*
X538000Y166474D01*
X570000D01*
X570783Y166577D01*
X571513Y166879D01*
X572140Y167360D01*
X572620Y167987D01*
X572923Y168717D01*
X573026Y169500D01*
X572923Y170283D01*
X572620Y171013D01*
X572140Y171640D01*
X571513Y172120D01*
X570783Y172423D01*
X570000Y172526D01*
X539253D01*
X537026Y174753D01*
Y197000D01*
X536923Y197783D01*
X536621Y198513D01*
X536140Y199140D01*
X535513Y199620D01*
X534783Y199923D01*
X534000Y200026D01*
D02*
G37*
G36*
X245051Y173051D02*
X236949D01*
Y164949D01*
X245051D01*
Y173051D01*
D02*
G37*
G36*
X241533Y159051D02*
X240467D01*
X239436Y158775D01*
X238512Y158242D01*
X237758Y157487D01*
X237225Y156564D01*
X236949Y155533D01*
Y154467D01*
X237225Y153436D01*
X237758Y152513D01*
X238512Y151758D01*
X239436Y151225D01*
X240467Y150949D01*
X241533D01*
X242564Y151225D01*
X243488Y151758D01*
X244242Y152513D01*
X244775Y153436D01*
X245051Y154467D01*
Y155533D01*
X244775Y156564D01*
X244242Y157487D01*
X243488Y158242D01*
X242564Y158775D01*
X241533Y159051D01*
D02*
G37*
G36*
X245051Y149051D02*
X236949D01*
Y140949D01*
X245051D01*
Y149051D01*
D02*
G37*
G36*
X241070Y121327D02*
X239930D01*
X238830Y121032D01*
X237843Y120462D01*
X237038Y119657D01*
X236468Y118670D01*
X236173Y117570D01*
Y116430D01*
X236468Y115330D01*
X237038Y114343D01*
X237843Y113538D01*
X238830Y112968D01*
X239930Y112673D01*
X241070D01*
X242170Y112968D01*
X243157Y113538D01*
X243962Y114343D01*
X244532Y115330D01*
X244827Y116430D01*
Y117570D01*
X244532Y118670D01*
X243962Y119657D01*
X243157Y120462D01*
X242170Y121032D01*
X241070Y121327D01*
D02*
G37*
G36*
X231070D02*
X229930D01*
X228830Y121032D01*
X227843Y120462D01*
X227038Y119657D01*
X226468Y118670D01*
X226173Y117570D01*
Y116430D01*
X226468Y115330D01*
X227038Y114343D01*
X227843Y113538D01*
X228830Y112968D01*
X229930Y112673D01*
X231070D01*
X232170Y112968D01*
X233157Y113538D01*
X233962Y114343D01*
X234532Y115330D01*
X234827Y116430D01*
Y117570D01*
X234532Y118670D01*
X233962Y119657D01*
X233157Y120462D01*
X232170Y121032D01*
X231070Y121327D01*
D02*
G37*
G36*
X224827D02*
X216173D01*
Y112673D01*
X224827D01*
Y121327D01*
D02*
G37*
G36*
X633759Y131500D02*
X631241D01*
X628753Y131106D01*
X626358Y130328D01*
X624114Y129184D01*
X622077Y127704D01*
X620296Y125923D01*
X618816Y123886D01*
X617672Y121642D01*
X616894Y119247D01*
X616500Y116759D01*
Y114241D01*
X616894Y111753D01*
X617672Y109358D01*
X618816Y107114D01*
X620296Y105077D01*
X622077Y103296D01*
X624114Y101816D01*
X626358Y100672D01*
X628753Y99894D01*
X631241Y99500D01*
X633759D01*
X636247Y99894D01*
X638642Y100672D01*
X640886Y101816D01*
X642923Y103296D01*
X644704Y105077D01*
X646184Y107114D01*
X647328Y109358D01*
X648106Y111753D01*
X648500Y114241D01*
Y116759D01*
X648106Y119247D01*
X647328Y121642D01*
X646184Y123886D01*
X644704Y125923D01*
X642923Y127704D01*
X640886Y129184D01*
X638642Y130328D01*
X636247Y131106D01*
X633759Y131500D01*
D02*
G37*
%LPD*%
G36*
X352951Y304196D02*
Y301000D01*
X353145Y300025D01*
X353698Y299198D01*
X354524Y298645D01*
X355500Y298451D01*
X356475Y298645D01*
X357160Y299102D01*
X357471Y299158D01*
X357821Y299074D01*
X364884Y292011D01*
X364693Y291549D01*
X360020D01*
X350264Y301306D01*
X350302Y301698D01*
X350855Y302524D01*
X351049Y303500D01*
X351049Y303500D01*
X351041Y303551D01*
X351000Y303951D01*
X351975Y304145D01*
X352451Y304463D01*
X352951Y304196D01*
D02*
G37*
G36*
X335422Y246110D02*
X335698Y245698D01*
X336525Y245145D01*
X337500Y244951D01*
X357944D01*
X371044Y231851D01*
X370798Y231390D01*
X370000Y231549D01*
X331754D01*
X331437Y231936D01*
X331549Y232500D01*
Y242944D01*
X334778Y246174D01*
X335422Y246110D01*
D02*
G37*
G36*
X278277Y249466D02*
X278103Y249044D01*
X277965Y248000D01*
X278103Y246956D01*
X278506Y245983D01*
X279147Y245147D01*
X288059Y236235D01*
X287974Y235810D01*
X287879Y235708D01*
X287322Y235151D01*
X287018Y234416D01*
Y233620D01*
X287322Y232885D01*
X287885Y232322D01*
X288620Y232018D01*
X289416D01*
X290151Y232322D01*
X290713Y232885D01*
X290745Y232961D01*
X291235Y233059D01*
X302179Y222115D01*
X302065Y221522D01*
X301504Y221091D01*
X297559Y217146D01*
X275853Y238853D01*
X275017Y239494D01*
X274044Y239897D01*
X273000Y240035D01*
X271956Y239897D01*
X270983Y239494D01*
X270549Y239161D01*
X270049Y239408D01*
Y241944D01*
X277854Y249749D01*
X278277Y249466D01*
D02*
G37*
G36*
X396451Y214944D02*
Y213542D01*
X395951Y213492D01*
X395855Y213976D01*
X395302Y214802D01*
X360802Y249302D01*
X359976Y249855D01*
X359492Y249951D01*
X359542Y250451D01*
X360944D01*
X396451Y214944D01*
D02*
G37*
G36*
X365399Y212997D02*
X365207Y212534D01*
X323171D01*
X319255Y216451D01*
X319462Y216951D01*
X361444D01*
X365399Y212997D01*
D02*
G37*
G36*
X317298Y206996D02*
X317107Y206535D01*
X308171D01*
X302552Y212154D01*
X306496Y216098D01*
X306927Y216660D01*
X307521Y216774D01*
X317298Y206996D01*
D02*
G37*
G36*
X390951Y167139D02*
Y165556D01*
X367193Y141798D01*
X367026Y141843D01*
X365974D01*
X365538Y141726D01*
X365279Y142174D01*
X390451Y167346D01*
X390951Y167139D01*
D02*
G37*
G36*
X435360Y380860D02*
X435987Y380380D01*
X436717Y380077D01*
X437500Y379974D01*
X481574D01*
X481607Y379474D01*
X481217Y379423D01*
X480487Y379120D01*
X480480Y379115D01*
X435164D01*
X405267Y409012D01*
X405458Y409474D01*
X406747D01*
X435360Y380860D01*
D02*
G37*
D17*
X415000Y268000D02*
X422000Y261000D01*
X401086Y407500D02*
X402000D01*
X578000Y115500D02*
X580500Y118000D01*
X415000Y268000D02*
Y296500D01*
X379000Y289000D02*
X385821Y282179D01*
X410662D01*
X358964Y289000D02*
X379000D01*
X396729Y310500D02*
X397000D01*
X373500Y311000D02*
X396229D01*
X396729Y310500D01*
X370000Y307500D02*
X373500Y311000D01*
X311000Y289500D02*
X322000Y300500D01*
X318001Y134999D02*
X324500Y128500D01*
X370500D02*
X399000Y157000D01*
X324500Y128500D02*
X370500D01*
X365000Y223000D02*
X379500Y208500D01*
X314000Y230000D02*
X321000Y223000D01*
X365000D01*
X322000Y230000D02*
X326000Y226000D01*
X368000D02*
X384000Y210000D01*
X318000Y234000D02*
X322000Y230000D01*
X326000Y226000D02*
X368000D01*
X325000Y232000D02*
X328000Y229000D01*
X370000D01*
X389000Y210000D01*
X322000Y235000D02*
X325000Y232000D01*
X338000Y253000D02*
X362000D01*
X329000Y244000D02*
X338000Y253000D01*
X362000D02*
X399000Y216000D01*
X373000Y335500D02*
X406000Y368500D01*
X525535D01*
X368000Y331500D02*
Y335000D01*
X397000Y364000D02*
Y378000D01*
X368000Y335000D02*
X397000Y364000D01*
X314000Y230000D02*
Y233000D01*
X322000Y235000D02*
Y242000D01*
X318000Y234000D02*
Y247500D01*
X297500Y211500D02*
Y212094D01*
X359500Y301000D02*
X368500Y292000D01*
X359500Y301000D02*
Y323000D01*
X305500Y333500D02*
X356500Y282500D01*
X305500Y333500D02*
Y375988D01*
X315500Y328000D02*
Y376246D01*
Y328000D02*
X357000Y286500D01*
X326500Y321464D02*
Y376293D01*
Y321464D02*
X358964Y289000D01*
X336000Y318500D02*
Y377150D01*
X334500Y317000D02*
X336000Y318500D01*
X341000Y311000D02*
X348500Y303500D01*
X341000Y311000D02*
Y378318D01*
Y378080D02*
Y378502D01*
X345500Y312000D02*
X351000Y306500D01*
X345500Y312000D02*
Y376630D01*
X355500Y301000D02*
Y377150D01*
X343410Y385911D02*
X357239D01*
X366000Y377150D01*
X341000Y383500D02*
X343410Y385911D01*
X297000Y137324D02*
Y151000D01*
X262500Y185500D02*
Y244500D01*
Y185500D02*
X297000Y151000D01*
X267500Y243000D02*
X290193Y265693D01*
X267500Y189000D02*
Y243000D01*
Y189000D02*
X306000Y150500D01*
X262500Y244500D02*
X288000Y270000D01*
X290193Y265693D02*
X305307D01*
X288000Y270000D02*
X300500D01*
X325472Y136822D02*
X375000Y186351D01*
X362500Y219500D02*
X375000Y207000D01*
Y186351D02*
Y207000D01*
X379500Y180851D02*
Y208500D01*
X336500Y137850D02*
X379500Y180851D01*
X345317Y136817D02*
X384000Y175500D01*
Y210000D01*
X355844Y136344D02*
X389000Y169500D01*
Y210000D01*
X366351Y137350D02*
X393500Y164500D01*
X359000Y247500D02*
X393500Y213000D01*
Y164500D02*
Y213000D01*
X314912Y138088D02*
X314914D01*
X318001Y135001D01*
Y134999D02*
Y135001D01*
X306000Y137305D02*
Y150500D01*
X533500Y345000D02*
Y360536D01*
X525535Y368500D02*
X533500Y360536D01*
X357000Y286500D02*
X370000D01*
X341029Y283503D02*
X350516Y274016D01*
X318421Y314579D02*
X341029Y291971D01*
Y283503D02*
Y291971D01*
X356500Y282500D02*
X367500D01*
X311140Y314579D02*
X318421D01*
X370000Y286500D02*
X386491Y270009D01*
X405009D01*
X341000Y378502D02*
Y383500D01*
X240850Y276500D02*
X251350Y287000D01*
X312500D02*
X322500Y297000D01*
X251350Y287000D02*
X312500D01*
X311140Y308860D02*
Y314579D01*
Y308860D02*
X318482Y301518D01*
X317191Y308309D02*
X318191D01*
X317000Y308500D02*
X317191Y308309D01*
X318191D02*
X325000Y301500D01*
Y267500D02*
Y301500D01*
X337500Y247500D02*
X359000D01*
X399000Y157000D02*
Y216000D01*
X329000Y232500D02*
Y244000D01*
X306500Y249000D02*
X325000Y267500D01*
X306500Y232000D02*
Y249000D01*
X319000Y219500D02*
X362500D01*
X306500Y232000D02*
X319000Y219500D01*
X314000Y233000D02*
Y248500D01*
X367000Y305279D02*
X371779Y300500D01*
X392000D01*
X322000Y242000D02*
X333500Y253500D01*
X344414Y257000D02*
X345414Y258000D01*
X345500D01*
X318000Y247500D02*
X327500Y257000D01*
X344414D01*
X326500Y261000D02*
X343000D01*
X314000Y248500D02*
X326500Y261000D01*
X240850Y286500D02*
X243850Y289500D01*
X311000Y289500D01*
X359500Y323000D02*
X368000Y331500D01*
D84*
X430000Y408500D02*
D03*
X452244D02*
D03*
X495378Y408713D02*
D03*
X517622D02*
D03*
X580878D02*
D03*
X603122D02*
D03*
D86*
X692213Y383622D02*
D03*
Y361378D02*
D03*
X692500Y268500D02*
D03*
Y246256D02*
D03*
D124*
X504949Y277102D02*
D03*
D125*
Y267102D02*
D03*
D128*
X220500Y117000D02*
D03*
D129*
X230500D02*
D03*
X240500D02*
D03*
D138*
X433911Y376089D02*
X481589D01*
X482000Y376500D01*
X408000Y412500D02*
X437500Y383000D01*
X286000Y390000D02*
X308500Y412500D01*
X408000D01*
X437500Y383000D02*
X527000D01*
X402250Y407750D02*
X433911Y376089D01*
X315000Y407500D02*
X402000D01*
X296000Y388500D02*
X315000Y407500D01*
X534654Y373346D02*
X542500Y365500D01*
X527000Y383000D02*
X534654Y375346D01*
Y373346D02*
Y375346D01*
X286000Y377150D02*
Y390000D01*
X296000Y377150D02*
Y388500D01*
X482000Y295000D02*
Y337500D01*
X475500Y288500D02*
X482000Y295000D01*
X475500Y255046D02*
Y288500D01*
X534000Y173500D02*
X538000Y169500D01*
X534000Y173500D02*
Y197000D01*
X519500Y213000D02*
Y322500D01*
Y213000D02*
X522500Y210000D01*
X538000Y169500D02*
X570000D01*
D139*
X533500Y285500D02*
Y338000D01*
X544000Y348500D01*
X473500Y156500D02*
Y211000D01*
X297500Y212094D02*
X304000Y218595D01*
X305500Y189000D02*
X306500Y190000D01*
Y202500D01*
D140*
X472000Y364500D02*
X514500D01*
X441000Y333500D02*
X472000Y364500D01*
X441000Y243500D02*
Y333500D01*
X481485Y255000D02*
X483828Y252657D01*
Y214328D02*
Y252657D01*
X481000Y255000D02*
X481485D01*
X683343Y116657D02*
X684000Y116000D01*
X665343Y116657D02*
X683343D01*
X654000Y128000D02*
Y212000D01*
Y128000D02*
X665343Y116657D01*
X647000Y219000D02*
X654000Y212000D01*
X569000Y219000D02*
X647000D01*
X492657Y205500D02*
X555500D01*
X483828Y214328D02*
X492657Y205500D01*
X555500D02*
X569000Y219000D01*
X441000Y243500D02*
X473500Y211000D01*
X580500Y118000D02*
Y199726D01*
X569843Y210383D02*
X580500Y199726D01*
X297500Y211500D02*
X306500Y202500D01*
X273000Y236000D02*
X297500Y211500D01*
X306500Y202500D02*
X330000D01*
X282000Y248000D02*
X321500Y208500D01*
X366000D01*
X330000Y202500D02*
X352000D01*
X360500Y194000D01*
D141*
X404010Y305510D02*
X411713D01*
X396000Y297500D02*
X404010Y305510D01*
X396000Y292500D02*
Y297500D01*
D143*
X543000Y214500D02*
X552000D01*
X570000Y232500D02*
Y357000D01*
X552000Y214500D02*
X570000Y232500D01*
X552000Y375000D02*
X570000Y357000D01*
D144*
X397362Y398500D02*
D03*
X387362Y388500D02*
D03*
D145*
X397362Y378500D02*
D03*
D146*
X240850Y236500D02*
D03*
Y246500D02*
D03*
Y266500D02*
D03*
Y286500D02*
D03*
Y296500D02*
D03*
Y306500D02*
D03*
Y316500D02*
D03*
Y276500D02*
D03*
Y256500D02*
D03*
X366500Y137850D02*
D03*
X356500D02*
D03*
X336500D02*
D03*
X316500D02*
D03*
X306500D02*
D03*
X296500D02*
D03*
X286500D02*
D03*
X326500D02*
D03*
X346500D02*
D03*
X276000Y377150D02*
D03*
X286000D02*
D03*
X306000D02*
D03*
X326000D02*
D03*
X336000D02*
D03*
X346000D02*
D03*
X356000D02*
D03*
X316000D02*
D03*
X296000D02*
D03*
D147*
X240850Y326500D02*
D03*
D148*
X242000Y200000D02*
D03*
X241000Y169000D02*
D03*
Y145000D02*
D03*
D149*
X242000Y210000D02*
D03*
X241000Y179000D02*
D03*
Y155000D02*
D03*
D150*
X276500Y137850D02*
D03*
X366000Y377150D02*
D03*
D151*
X422000Y261000D02*
D03*
X671000Y262500D02*
D03*
X675000D02*
D03*
X679000D02*
D03*
X671000Y252500D02*
D03*
X675000D02*
D03*
X679000D02*
D03*
X446000Y360000D02*
D03*
Y356000D02*
D03*
Y352000D02*
D03*
X436500Y360000D02*
D03*
Y356000D02*
D03*
Y352000D02*
D03*
X637500Y289500D02*
D03*
Y285500D02*
D03*
Y281500D02*
D03*
X649000Y350000D02*
D03*
Y346000D02*
D03*
Y342000D02*
D03*
X638000Y350000D02*
D03*
Y346000D02*
D03*
Y342000D02*
D03*
X677500Y377500D02*
D03*
X673500D02*
D03*
X669500D02*
D03*
X677500Y368000D02*
D03*
X673500D02*
D03*
X669500D02*
D03*
X638000Y320000D02*
D03*
Y324000D02*
D03*
Y328000D02*
D03*
X649500Y318500D02*
D03*
Y322500D02*
D03*
Y326500D02*
D03*
X649000Y296000D02*
D03*
Y300000D02*
D03*
Y304000D02*
D03*
X630000Y299500D02*
D03*
X634000D02*
D03*
X638000D02*
D03*
X617500D02*
D03*
X621500D02*
D03*
X625500D02*
D03*
X482000Y376500D02*
D03*
X615000Y321000D02*
D03*
X606500D02*
D03*
X586500Y311000D02*
D03*
X542500Y365500D02*
D03*
X482000Y337500D02*
D03*
X475000Y295000D02*
D03*
X475500Y255046D02*
D03*
X481000Y255000D02*
D03*
X469000Y325500D02*
D03*
X474000D02*
D03*
X538500Y298500D02*
D03*
X542500Y326500D02*
D03*
Y318000D02*
D03*
Y322000D02*
D03*
X446000Y206500D02*
D03*
X534000Y197000D02*
D03*
X580000Y209500D02*
D03*
X441000Y215500D02*
D03*
X483828Y214328D02*
D03*
X460000Y268000D02*
D03*
X574500Y299500D02*
D03*
X564500Y313000D02*
D03*
X527000Y261500D02*
D03*
X523500D02*
D03*
X527000Y258500D02*
D03*
X523500D02*
D03*
X527000Y255500D02*
D03*
X523500D02*
D03*
X527000Y252500D02*
D03*
X523500D02*
D03*
X527000Y249500D02*
D03*
Y246500D02*
D03*
Y243500D02*
D03*
Y240500D02*
D03*
X523500D02*
D03*
Y249500D02*
D03*
Y246500D02*
D03*
Y243500D02*
D03*
X543000Y214500D02*
D03*
X522500Y210000D02*
D03*
X436500Y318000D02*
D03*
Y314000D02*
D03*
Y310000D02*
D03*
Y305500D02*
D03*
X446500Y293000D02*
D03*
X448500Y307500D02*
D03*
X451000Y293000D02*
D03*
X455500D02*
D03*
X453000Y307500D02*
D03*
X460500Y293000D02*
D03*
X461000Y307500D02*
D03*
X457000D02*
D03*
X417500Y281500D02*
D03*
X411925Y293500D02*
D03*
X334000Y217000D02*
D03*
X597000Y327500D02*
D03*
Y323500D02*
D03*
Y319500D02*
D03*
Y315000D02*
D03*
Y345500D02*
D03*
Y341500D02*
D03*
Y337500D02*
D03*
Y333000D02*
D03*
Y363500D02*
D03*
Y359500D02*
D03*
Y355500D02*
D03*
Y351000D02*
D03*
Y381000D02*
D03*
Y377000D02*
D03*
Y373000D02*
D03*
Y368500D02*
D03*
Y398000D02*
D03*
Y394000D02*
D03*
Y390000D02*
D03*
Y385500D02*
D03*
X586500Y386000D02*
D03*
Y390500D02*
D03*
Y394500D02*
D03*
Y398500D02*
D03*
Y369000D02*
D03*
Y373500D02*
D03*
Y377500D02*
D03*
Y381500D02*
D03*
Y351500D02*
D03*
Y356000D02*
D03*
Y360000D02*
D03*
Y364000D02*
D03*
Y333500D02*
D03*
Y338000D02*
D03*
Y342000D02*
D03*
Y346000D02*
D03*
Y315500D02*
D03*
Y320000D02*
D03*
Y324000D02*
D03*
Y328000D02*
D03*
X502500D02*
D03*
Y324000D02*
D03*
Y320000D02*
D03*
Y315500D02*
D03*
X388000Y287000D02*
D03*
X387000Y308500D02*
D03*
X404000Y256500D02*
D03*
X399500D02*
D03*
X394500D02*
D03*
X389000D02*
D03*
X425000Y281000D02*
D03*
X301500Y295000D02*
D03*
X299000Y297000D02*
D03*
X606500Y315500D02*
D03*
X610500Y321000D02*
D03*
X544500Y288500D02*
D03*
X547000Y283000D02*
D03*
X552500D02*
D03*
X558000D02*
D03*
X562500Y288000D02*
D03*
X528500Y283000D02*
D03*
X339700Y243215D02*
D03*
X347284Y235475D02*
D03*
X289000Y210000D02*
D03*
X303000Y233500D02*
D03*
X294988Y240677D02*
D03*
X412000Y318500D02*
D03*
X408500Y326000D02*
D03*
X370169Y295020D02*
D03*
X635500Y310500D02*
D03*
X631500D02*
D03*
X464500D02*
D03*
X514500Y364500D02*
D03*
X552000Y375000D02*
D03*
X604000Y198000D02*
D03*
X584708Y174575D02*
D03*
X588813Y182813D02*
D03*
X593586Y191492D02*
D03*
X450000Y162500D02*
D03*
X697500Y246500D02*
D03*
X694000D02*
D03*
X690500D02*
D03*
X687000D02*
D03*
X697500Y268500D02*
D03*
X694000D02*
D03*
X690500D02*
D03*
X687000D02*
D03*
X697000Y361000D02*
D03*
X693500D02*
D03*
X690000D02*
D03*
X686500D02*
D03*
X697500Y383500D02*
D03*
X694000D02*
D03*
X690500D02*
D03*
X687000D02*
D03*
X603500Y403500D02*
D03*
Y407000D02*
D03*
Y410500D02*
D03*
Y414000D02*
D03*
X581000Y403000D02*
D03*
Y406500D02*
D03*
Y410000D02*
D03*
Y413500D02*
D03*
X517500Y403500D02*
D03*
Y407000D02*
D03*
Y410500D02*
D03*
Y414000D02*
D03*
X495500Y403000D02*
D03*
Y406500D02*
D03*
Y410000D02*
D03*
Y413500D02*
D03*
X430000Y413000D02*
D03*
X452500Y414000D02*
D03*
Y410000D02*
D03*
Y406500D02*
D03*
Y403000D02*
D03*
X430000Y409500D02*
D03*
Y406000D02*
D03*
Y402500D02*
D03*
X613500Y299500D02*
D03*
X606500Y311000D02*
D03*
X582000Y299500D02*
D03*
X575500Y311000D02*
D03*
X538500Y310500D02*
D03*
X563500Y294500D02*
D03*
X544500D02*
D03*
X553000Y225000D02*
D03*
X548500D02*
D03*
X544000D02*
D03*
X602000Y261000D02*
D03*
Y255500D02*
D03*
Y249000D02*
D03*
X561500Y328500D02*
D03*
X558500Y332000D02*
D03*
X554500D02*
D03*
X468500Y310500D02*
D03*
X472000D02*
D03*
X475500D02*
D03*
X522500Y299000D02*
D03*
X502000D02*
D03*
X490500Y311500D02*
D03*
X494500D02*
D03*
X498000D02*
D03*
X502000D02*
D03*
X515000D02*
D03*
X510500D02*
D03*
X529500D02*
D03*
X526000D02*
D03*
X522500D02*
D03*
X583000Y311000D02*
D03*
X579000D02*
D03*
X602500D02*
D03*
X597000D02*
D03*
X610000Y299500D02*
D03*
X555500Y304000D02*
D03*
X552500D02*
D03*
X555500Y306500D02*
D03*
X552500D02*
D03*
X564500Y309500D02*
D03*
X561500Y324500D02*
D03*
X542500Y314000D02*
D03*
Y310500D02*
D03*
X606000Y299500D02*
D03*
X602000D02*
D03*
X598000D02*
D03*
X585500D02*
D03*
X578500D02*
D03*
X565000Y298000D02*
D03*
X559500Y294500D02*
D03*
X555500D02*
D03*
X549000D02*
D03*
X542500Y298500D02*
D03*
X515500Y299000D02*
D03*
X511000D02*
D03*
X498000D02*
D03*
X493500D02*
D03*
X489000D02*
D03*
X470500Y295000D02*
D03*
X466000D02*
D03*
X370000Y342000D02*
D03*
X497007Y162516D02*
D03*
X318016Y230016D02*
D03*
X519500Y322500D02*
D03*
X477500Y207500D02*
D03*
X570000Y169500D02*
D03*
X473500Y211000D02*
D03*
X507000Y175000D02*
D03*
X507118Y172260D02*
D03*
X507000Y169000D02*
D03*
X497000Y179500D02*
D03*
Y184000D02*
D03*
Y188000D02*
D03*
Y192500D02*
D03*
X412000Y310500D02*
D03*
X379500Y323500D02*
D03*
X325000Y232000D02*
D03*
X322000Y230000D02*
D03*
X304000Y218595D02*
D03*
X332336Y274519D02*
D03*
Y278519D02*
D03*
Y283019D02*
D03*
X368500Y292000D02*
D03*
X397000Y310500D02*
D03*
X396000Y292500D02*
D03*
X473500Y156500D02*
D03*
X544090Y348716D02*
D03*
X533500Y285500D02*
D03*
X329000Y345517D02*
D03*
X273000Y236000D02*
D03*
X282000Y248000D02*
D03*
X300500Y270000D02*
D03*
X366000Y208500D02*
D03*
X305500Y189000D02*
D03*
X289018Y234018D02*
D03*
X533500Y345000D02*
D03*
X349000Y282000D02*
D03*
X334500Y317000D02*
D03*
X367500Y282500D02*
D03*
X348500Y303500D02*
D03*
X351000Y306500D02*
D03*
X355500Y301000D02*
D03*
X410662Y282179D02*
D03*
X405009Y270009D02*
D03*
X270509Y301009D02*
D03*
X293500Y284500D02*
D03*
X299009Y241509D02*
D03*
X350516Y274016D02*
D03*
X317000Y308500D02*
D03*
X318500Y301500D02*
D03*
X569843Y210383D02*
D03*
X329000Y232500D02*
D03*
X337500Y247500D02*
D03*
X305307Y265693D02*
D03*
X314000Y233000D02*
D03*
X330000Y202500D02*
D03*
X360500Y194000D02*
D03*
X411713Y305510D02*
D03*
X392000Y300500D02*
D03*
X306500Y232000D02*
D03*
X373000Y335500D02*
D03*
X322500Y297000D02*
D03*
X311140Y314579D02*
D03*
X297671Y312171D02*
D03*
X333500Y253500D02*
D03*
X345500Y258000D02*
D03*
X343000Y261000D02*
D03*
X367000Y305279D02*
D03*
X370000Y307500D02*
D03*
X416000Y296441D02*
D03*
X322000Y300500D02*
D03*
D152*
X683228Y172228D02*
D03*
X578000Y115500D02*
D03*
X218500Y362500D02*
D03*
X632500Y115500D02*
D03*
X684000Y116000D02*
D03*
X219000Y399000D02*
D03*
D153*
X458484Y183323D02*
D03*
Y187260D02*
D03*
X462421Y183323D02*
D03*
Y187260D02*
D03*
X466358Y183323D02*
D03*
Y187260D02*
D03*
X565142Y183240D02*
D03*
Y187177D02*
D03*
X569079Y183240D02*
D03*
Y187177D02*
D03*
X573016Y183240D02*
D03*
Y187177D02*
D03*
M02*
