G04*
G04 #@! TF.GenerationSoftware,Altium Limited,Altium Designer,23.8.1 (32)*
G04*
G04 Layer_Physical_Order=2*
G04 Layer_Color=36540*
%FSLAX25Y25*%
%MOIN*%
G70*
G04*
G04 #@! TF.SameCoordinates,93D85A25-96AA-4E13-9423-ABE69869F54E*
G04*
G04*
G04 #@! TF.FilePolarity,Positive*
G04*
G01*
G75*
%ADD140C,0.05984*%
G04:AMPARAMS|DCode=141|XSize=59.84mil|YSize=59.84mil|CornerRadius=14.96mil|HoleSize=0mil|Usage=FLASHONLY|Rotation=270.000|XOffset=0mil|YOffset=0mil|HoleType=Round|Shape=RoundedRectangle|*
%AMROUNDEDRECTD141*
21,1,0.05984,0.02992,0,0,270.0*
21,1,0.02992,0.05984,0,0,270.0*
1,1,0.02992,-0.01496,-0.01496*
1,1,0.02992,-0.01496,0.01496*
1,1,0.02992,0.01496,0.01496*
1,1,0.02992,0.01496,-0.01496*
%
%ADD141ROUNDEDRECTD141*%
%ADD143C,0.06102*%
%ADD144C,0.07854*%
G04:AMPARAMS|DCode=146|XSize=59.84mil|YSize=59.84mil|CornerRadius=14.96mil|HoleSize=0mil|Usage=FLASHONLY|Rotation=0.000|XOffset=0mil|YOffset=0mil|HoleType=Round|Shape=RoundedRectangle|*
%AMROUNDEDRECTD146*
21,1,0.05984,0.02992,0,0,0.0*
21,1,0.02992,0.05984,0,0,0.0*
1,1,0.02992,0.01496,-0.01496*
1,1,0.02992,-0.01496,-0.01496*
1,1,0.02992,-0.01496,0.01496*
1,1,0.02992,0.01496,0.01496*
%
%ADD146ROUNDEDRECTD146*%
%ADD148C,0.04921*%
%ADD149C,0.02000*%
%ADD150C,0.30000*%
%ADD151C,0.01968*%
G36*
X702000Y98500D02*
X200000D01*
Y417000D01*
X702000D01*
Y98500D01*
D02*
G37*
%LPC*%
G36*
X397456Y407461D02*
X396544D01*
X395664Y407225D01*
X394875Y406769D01*
X394231Y406125D01*
X393775Y405336D01*
X393539Y404456D01*
Y403544D01*
X393775Y402664D01*
X394231Y401875D01*
X394875Y401231D01*
X395664Y400775D01*
X396544Y400539D01*
X397456D01*
X398336Y400775D01*
X399125Y401231D01*
X399769Y401875D01*
X400225Y402664D01*
X400461Y403544D01*
Y404456D01*
X400225Y405336D01*
X399769Y406125D01*
X399125Y406769D01*
X398336Y407225D01*
X397456Y407461D01*
D02*
G37*
G36*
X400461Y387461D02*
X393539D01*
Y380539D01*
X400461D01*
Y387461D01*
D02*
G37*
G36*
X356526Y381142D02*
X355474D01*
X354459Y380870D01*
X353549Y380344D01*
X352805Y379601D01*
X352280Y378690D01*
X352008Y377675D01*
Y376624D01*
X352280Y375609D01*
X352805Y374698D01*
X353549Y373955D01*
X354459Y373429D01*
X355474Y373157D01*
X356526D01*
X357541Y373429D01*
X358451Y373955D01*
X359194Y374698D01*
X359720Y375609D01*
X359992Y376624D01*
Y377675D01*
X359720Y378690D01*
X359194Y379601D01*
X358451Y380344D01*
X357541Y380870D01*
X356526Y381142D01*
D02*
G37*
G36*
X346526D02*
X345474D01*
X344459Y380870D01*
X343549Y380344D01*
X342806Y379601D01*
X342280Y378690D01*
X342008Y377675D01*
Y376624D01*
X342280Y375609D01*
X342806Y374698D01*
X343549Y373955D01*
X344459Y373429D01*
X345474Y373157D01*
X346526D01*
X347541Y373429D01*
X348451Y373955D01*
X349195Y374698D01*
X349720Y375609D01*
X349992Y376624D01*
Y377675D01*
X349720Y378690D01*
X349195Y379601D01*
X348451Y380344D01*
X347541Y380870D01*
X346526Y381142D01*
D02*
G37*
G36*
X336526D02*
X335474D01*
X334459Y380870D01*
X333549Y380344D01*
X332805Y379601D01*
X332280Y378690D01*
X332008Y377675D01*
Y376624D01*
X332280Y375609D01*
X332805Y374698D01*
X333549Y373955D01*
X334459Y373429D01*
X335474Y373157D01*
X336526D01*
X337541Y373429D01*
X338451Y373955D01*
X339194Y374698D01*
X339720Y375609D01*
X339992Y376624D01*
Y377675D01*
X339720Y378690D01*
X339194Y379601D01*
X338451Y380344D01*
X337541Y380870D01*
X336526Y381142D01*
D02*
G37*
G36*
X326526D02*
X325474D01*
X324459Y380870D01*
X323549Y380344D01*
X322806Y379601D01*
X322280Y378690D01*
X322008Y377675D01*
Y376624D01*
X322280Y375609D01*
X322806Y374698D01*
X323549Y373955D01*
X324459Y373429D01*
X325474Y373157D01*
X326526D01*
X327541Y373429D01*
X328451Y373955D01*
X329194Y374698D01*
X329720Y375609D01*
X329992Y376624D01*
Y377675D01*
X329720Y378690D01*
X329194Y379601D01*
X328451Y380344D01*
X327541Y380870D01*
X326526Y381142D01*
D02*
G37*
G36*
X316526D02*
X315474D01*
X314459Y380870D01*
X313549Y380344D01*
X312806Y379601D01*
X312280Y378690D01*
X312008Y377675D01*
Y376624D01*
X312280Y375609D01*
X312806Y374698D01*
X313549Y373955D01*
X314459Y373429D01*
X315474Y373157D01*
X316526D01*
X317541Y373429D01*
X318451Y373955D01*
X319195Y374698D01*
X319720Y375609D01*
X319992Y376624D01*
Y377675D01*
X319720Y378690D01*
X319195Y379601D01*
X318451Y380344D01*
X317541Y380870D01*
X316526Y381142D01*
D02*
G37*
G36*
X306526D02*
X305474D01*
X304459Y380870D01*
X303549Y380344D01*
X302805Y379601D01*
X302280Y378690D01*
X302008Y377675D01*
Y376624D01*
X302280Y375609D01*
X302805Y374698D01*
X303549Y373955D01*
X304459Y373429D01*
X305474Y373157D01*
X306526D01*
X307541Y373429D01*
X308451Y373955D01*
X309194Y374698D01*
X309720Y375609D01*
X309992Y376624D01*
Y377675D01*
X309720Y378690D01*
X309194Y379601D01*
X308451Y380344D01*
X307541Y380870D01*
X306526Y381142D01*
D02*
G37*
G36*
X367496Y381190D02*
X364504D01*
X363530Y380997D01*
X362704Y380445D01*
X362153Y379620D01*
X361959Y378645D01*
Y375653D01*
X362153Y374679D01*
X362704Y373854D01*
X363530Y373302D01*
X364504Y373109D01*
X367496D01*
X368470Y373302D01*
X369296Y373854D01*
X369847Y374679D01*
X370041Y375653D01*
Y378645D01*
X369847Y379620D01*
X369296Y380445D01*
X368470Y380997D01*
X367496Y381190D01*
D02*
G37*
G36*
X552398Y377000D02*
X551602D01*
X550867Y376695D01*
X550305Y376133D01*
X550000Y375398D01*
Y374602D01*
X550305Y373867D01*
X550867Y373305D01*
X551602Y373000D01*
X552398D01*
X553133Y373305D01*
X553695Y373867D01*
X554000Y374602D01*
Y375398D01*
X553695Y376133D01*
X553133Y376695D01*
X552398Y377000D01*
D02*
G37*
G36*
X514898Y366500D02*
X514102D01*
X513367Y366196D01*
X512805Y365633D01*
X512500Y364898D01*
Y364102D01*
X512805Y363367D01*
X513367Y362805D01*
X514102Y362500D01*
X514898D01*
X515633Y362805D01*
X516195Y363367D01*
X516500Y364102D01*
Y364898D01*
X516195Y365633D01*
X515633Y366196D01*
X514898Y366500D01*
D02*
G37*
G36*
X544487Y350716D02*
X543692D01*
X542957Y350412D01*
X542394Y349849D01*
X542090Y349114D01*
Y348319D01*
X542394Y347584D01*
X542957Y347021D01*
X543692Y346716D01*
X544487D01*
X545223Y347021D01*
X545785Y347584D01*
X546090Y348319D01*
Y349114D01*
X545785Y349849D01*
X545223Y350412D01*
X544487Y350716D01*
D02*
G37*
G36*
X219759Y378500D02*
X217241D01*
X214753Y378106D01*
X212358Y377328D01*
X210114Y376184D01*
X208077Y374704D01*
X206296Y372923D01*
X204816Y370886D01*
X203672Y368642D01*
X202894Y366247D01*
X202500Y363759D01*
Y361241D01*
X202894Y358753D01*
X203672Y356358D01*
X204816Y354114D01*
X206296Y352077D01*
X208077Y350296D01*
X210114Y348816D01*
X212358Y347672D01*
X214753Y346894D01*
X217241Y346500D01*
X219759D01*
X222247Y346894D01*
X224642Y347672D01*
X226886Y348816D01*
X228923Y350296D01*
X230704Y352077D01*
X232184Y354114D01*
X233328Y356358D01*
X234106Y358753D01*
X234500Y361241D01*
Y363759D01*
X234106Y366247D01*
X233328Y368642D01*
X232184Y370886D01*
X230704Y372923D01*
X228923Y374704D01*
X226886Y376184D01*
X224642Y377328D01*
X222247Y378106D01*
X219759Y378500D01*
D02*
G37*
G36*
X329398Y347517D02*
X328602D01*
X327867Y347212D01*
X327305Y346650D01*
X327000Y345914D01*
Y345119D01*
X327305Y344384D01*
X327867Y343821D01*
X328602Y343517D01*
X329398D01*
X330133Y343821D01*
X330696Y344384D01*
X331000Y345119D01*
Y345914D01*
X330696Y346650D01*
X330133Y347212D01*
X329398Y347517D01*
D02*
G37*
G36*
X533898Y347000D02*
X533102D01*
X532367Y346695D01*
X531805Y346133D01*
X531500Y345398D01*
Y344602D01*
X531805Y343867D01*
X532367Y343304D01*
X533102Y343000D01*
X533898D01*
X534633Y343304D01*
X535195Y343867D01*
X535500Y344602D01*
Y345398D01*
X535195Y346133D01*
X534633Y346695D01*
X533898Y347000D01*
D02*
G37*
G36*
X373398Y337500D02*
X372602D01*
X371867Y337195D01*
X371304Y336633D01*
X371000Y335898D01*
Y335102D01*
X371304Y334367D01*
X371867Y333804D01*
X372602Y333500D01*
X373398D01*
X374133Y333804D01*
X374695Y334367D01*
X375000Y335102D01*
Y335898D01*
X374695Y336633D01*
X374133Y337195D01*
X373398Y337500D01*
D02*
G37*
G36*
X473898Y333500D02*
X473102D01*
X472367Y333195D01*
X471805Y332633D01*
X471500Y331898D01*
Y331102D01*
X471805Y330367D01*
X472367Y329804D01*
X473102Y329500D01*
X473898D01*
X474633Y329804D01*
X475196Y330367D01*
X475500Y331102D01*
Y331898D01*
X475196Y332633D01*
X474633Y333195D01*
X473898Y333500D01*
D02*
G37*
G36*
X519898Y324500D02*
X519102D01*
X518367Y324196D01*
X517804Y323633D01*
X517500Y322898D01*
Y322102D01*
X517804Y321367D01*
X518367Y320805D01*
X519102Y320500D01*
X519898D01*
X520633Y320805D01*
X521196Y321367D01*
X521500Y322102D01*
Y322898D01*
X521196Y323633D01*
X520633Y324196D01*
X519898Y324500D01*
D02*
G37*
G36*
X334898Y319000D02*
X334102D01*
X333367Y318695D01*
X332804Y318133D01*
X332500Y317398D01*
Y316602D01*
X332804Y315867D01*
X333367Y315304D01*
X334102Y315000D01*
X334898D01*
X335633Y315304D01*
X336195Y315867D01*
X336500Y316602D01*
Y317398D01*
X336195Y318133D01*
X335633Y318695D01*
X334898Y319000D01*
D02*
G37*
G36*
X311537Y316579D02*
X310742D01*
X310007Y316274D01*
X309444Y315712D01*
X309140Y314977D01*
Y314181D01*
X309444Y313446D01*
X310007Y312883D01*
X310742Y312579D01*
X311537D01*
X312273Y312883D01*
X312835Y313446D01*
X313140Y314181D01*
Y314977D01*
X312835Y315712D01*
X312273Y316274D01*
X311537Y316579D01*
D02*
G37*
G36*
X298069Y314171D02*
X297273D01*
X296538Y313867D01*
X295976Y313304D01*
X295671Y312569D01*
Y311773D01*
X295976Y311038D01*
X296538Y310476D01*
X297273Y310171D01*
X298069D01*
X298804Y310476D01*
X299367Y311038D01*
X299671Y311773D01*
Y312569D01*
X299367Y313304D01*
X298804Y313867D01*
X298069Y314171D01*
D02*
G37*
G36*
X397398Y312500D02*
X396602D01*
X395867Y312195D01*
X395304Y311633D01*
X395000Y310898D01*
Y310102D01*
X395304Y309367D01*
X395867Y308804D01*
X396602Y308500D01*
X397398D01*
X398133Y308804D01*
X398695Y309367D01*
X399000Y310102D01*
Y310898D01*
X398695Y311633D01*
X398133Y312195D01*
X397398Y312500D01*
D02*
G37*
G36*
X370398Y309500D02*
X369602D01*
X368867Y309195D01*
X368304Y308633D01*
X368000Y307898D01*
Y307571D01*
X367500Y307237D01*
X367398Y307279D01*
X366602D01*
X365867Y306975D01*
X365304Y306412D01*
X365000Y305677D01*
Y304882D01*
X365304Y304147D01*
X365867Y303584D01*
X366602Y303279D01*
X367398D01*
X368133Y303584D01*
X368695Y304147D01*
X369000Y304882D01*
Y305208D01*
X369500Y305542D01*
X369602Y305500D01*
X370398D01*
X371133Y305804D01*
X371695Y306367D01*
X372000Y307102D01*
Y307898D01*
X371695Y308633D01*
X371133Y309195D01*
X370398Y309500D01*
D02*
G37*
G36*
X317398Y310500D02*
X316602D01*
X315867Y310195D01*
X315304Y309633D01*
X315000Y308898D01*
Y308102D01*
X315304Y307367D01*
X315867Y306804D01*
X316602Y306500D01*
X317398D01*
X318133Y306804D01*
X318695Y307367D01*
X319000Y308102D01*
Y308898D01*
X318695Y309633D01*
X318133Y310195D01*
X317398Y310500D01*
D02*
G37*
G36*
X412111Y307510D02*
X411315D01*
X410580Y307205D01*
X410018Y306643D01*
X409713Y305908D01*
Y305112D01*
X410018Y304377D01*
X410580Y303814D01*
X411315Y303510D01*
X412111D01*
X412846Y303814D01*
X413409Y304377D01*
X413713Y305112D01*
Y305908D01*
X413409Y306643D01*
X412846Y307205D01*
X412111Y307510D01*
D02*
G37*
G36*
X241376Y310492D02*
X240325D01*
X239310Y310220D01*
X238399Y309695D01*
X237656Y308951D01*
X237130Y308041D01*
X236858Y307026D01*
Y305974D01*
X237130Y304959D01*
X237656Y304049D01*
X238399Y303306D01*
X239310Y302780D01*
X240325Y302508D01*
X241376D01*
X242391Y302780D01*
X243302Y303306D01*
X244045Y304049D01*
X244571Y304959D01*
X244843Y305974D01*
Y307026D01*
X244571Y308041D01*
X244045Y308951D01*
X243302Y309695D01*
X242391Y310220D01*
X241376Y310492D01*
D02*
G37*
G36*
X351398Y308500D02*
X350602D01*
X349867Y308195D01*
X349305Y307633D01*
X349000Y306898D01*
Y306102D01*
X349058Y305962D01*
X349028Y305876D01*
X348708Y305500D01*
X348102D01*
X347367Y305195D01*
X346804Y304633D01*
X346500Y303898D01*
Y303102D01*
X346804Y302367D01*
X347367Y301804D01*
X348102Y301500D01*
X348898D01*
X349633Y301804D01*
X350196Y302367D01*
X350500Y303102D01*
Y303898D01*
X350442Y304038D01*
X350472Y304124D01*
X350792Y304500D01*
X351398D01*
X352133Y304804D01*
X352695Y305367D01*
X353000Y306102D01*
Y306898D01*
X352695Y307633D01*
X352133Y308195D01*
X351398Y308500D01*
D02*
G37*
G36*
X270907Y303009D02*
X270111D01*
X269376Y302704D01*
X268813Y302142D01*
X268509Y301407D01*
Y300611D01*
X268813Y299876D01*
X269376Y299313D01*
X270111Y299009D01*
X270907D01*
X271642Y299313D01*
X272204Y299876D01*
X272509Y300611D01*
Y301407D01*
X272204Y302142D01*
X271642Y302704D01*
X270907Y303009D01*
D02*
G37*
G36*
X355898Y303000D02*
X355102D01*
X354367Y302695D01*
X353804Y302133D01*
X353500Y301398D01*
Y300602D01*
X353804Y299867D01*
X354367Y299305D01*
X355102Y299000D01*
X355898D01*
X356633Y299305D01*
X357195Y299867D01*
X357500Y300602D01*
Y301398D01*
X357195Y302133D01*
X356633Y302695D01*
X355898Y303000D01*
D02*
G37*
G36*
X392398Y302500D02*
X391602D01*
X390867Y302196D01*
X390304Y301633D01*
X390000Y300898D01*
Y300102D01*
X390304Y299367D01*
X390867Y298804D01*
X391602Y298500D01*
X392398D01*
X393133Y298804D01*
X393695Y299367D01*
X394000Y300102D01*
Y300898D01*
X393695Y301633D01*
X393133Y302196D01*
X392398Y302500D01*
D02*
G37*
G36*
X318898Y303500D02*
X318102D01*
X317367Y303196D01*
X316805Y302633D01*
X316500Y301898D01*
Y301102D01*
X316805Y300367D01*
X317367Y299804D01*
X318102Y299500D01*
X318898D01*
X319633Y299804D01*
X320187Y299651D01*
X320304Y299367D01*
X320867Y298804D01*
X320882Y298798D01*
X320979Y298308D01*
X320805Y298133D01*
X320500Y297398D01*
Y296602D01*
X320805Y295867D01*
X321367Y295304D01*
X322102Y295000D01*
X322898D01*
X323633Y295304D01*
X324196Y295867D01*
X324500Y296602D01*
Y297398D01*
X324196Y298133D01*
X323633Y298695D01*
X323618Y298702D01*
X323520Y299192D01*
X323695Y299367D01*
X324000Y300102D01*
Y300898D01*
X323695Y301633D01*
X323133Y302196D01*
X322398Y302500D01*
X321602D01*
X320867Y302196D01*
X320313Y302349D01*
X320196Y302633D01*
X319633Y303196D01*
X318898Y303500D01*
D02*
G37*
G36*
X299398Y299000D02*
X298602D01*
X297867Y298695D01*
X297305Y298133D01*
X297000Y297398D01*
Y296602D01*
X297305Y295867D01*
X297867Y295304D01*
X298602Y295000D01*
X299398D01*
X300133Y295304D01*
X300695Y295867D01*
X301000Y296602D01*
Y297398D01*
X300695Y298133D01*
X300133Y298695D01*
X299398Y299000D01*
D02*
G37*
G36*
X416398Y298441D02*
X415602D01*
X414867Y298136D01*
X414304Y297574D01*
X414000Y296839D01*
Y296043D01*
X414304Y295308D01*
X414867Y294745D01*
X415602Y294441D01*
X416398D01*
X417133Y294745D01*
X417696Y295308D01*
X418000Y296043D01*
Y296839D01*
X417696Y297574D01*
X417133Y298136D01*
X416398Y298441D01*
D02*
G37*
G36*
X241376Y300492D02*
X240325D01*
X239310Y300220D01*
X238399Y299694D01*
X237656Y298951D01*
X237130Y298041D01*
X236858Y297026D01*
Y295974D01*
X237130Y294959D01*
X237656Y294049D01*
X238399Y293305D01*
X239310Y292780D01*
X240325Y292508D01*
X241376D01*
X242391Y292780D01*
X243302Y293305D01*
X244045Y294049D01*
X244571Y294959D01*
X244843Y295974D01*
Y297026D01*
X244571Y298041D01*
X244045Y298951D01*
X243302Y299694D01*
X242391Y300220D01*
X241376Y300492D01*
D02*
G37*
G36*
X396398Y294500D02*
X395602D01*
X394867Y294196D01*
X394304Y293633D01*
X394000Y292898D01*
Y292102D01*
X394304Y291367D01*
X394867Y290805D01*
X395602Y290500D01*
X396398D01*
X397133Y290805D01*
X397695Y291367D01*
X398000Y292102D01*
Y292898D01*
X397695Y293633D01*
X397133Y294196D01*
X396398Y294500D01*
D02*
G37*
G36*
X368898Y294000D02*
X368102D01*
X367367Y293695D01*
X366805Y293133D01*
X366500Y292398D01*
Y291602D01*
X366805Y290867D01*
X367367Y290304D01*
X368102Y290000D01*
X368898D01*
X369633Y290304D01*
X370196Y290867D01*
X370500Y291602D01*
Y292398D01*
X370196Y293133D01*
X369633Y293695D01*
X368898Y294000D01*
D02*
G37*
G36*
X241376Y290492D02*
X240325D01*
X239310Y290220D01*
X238399Y289694D01*
X237656Y288951D01*
X237130Y288041D01*
X236858Y287026D01*
Y285974D01*
X237130Y284959D01*
X237656Y284049D01*
X238399Y283306D01*
X239310Y282780D01*
X240325Y282508D01*
X241376D01*
X242391Y282780D01*
X243302Y283306D01*
X244045Y284049D01*
X244571Y284959D01*
X244843Y285974D01*
Y287026D01*
X244571Y288041D01*
X244045Y288951D01*
X243302Y289694D01*
X242391Y290220D01*
X241376Y290492D01*
D02*
G37*
G36*
X293898Y286500D02*
X293102D01*
X292367Y286195D01*
X291805Y285633D01*
X291500Y284898D01*
Y284102D01*
X291805Y283367D01*
X292367Y282804D01*
X293102Y282500D01*
X293898D01*
X294633Y282804D01*
X295196Y283367D01*
X295500Y284102D01*
Y284898D01*
X295196Y285633D01*
X294633Y286195D01*
X293898Y286500D01*
D02*
G37*
G36*
X367898Y284500D02*
X367102D01*
X366367Y284195D01*
X365805Y283633D01*
X365500Y282898D01*
Y282102D01*
X365805Y281367D01*
X366367Y280804D01*
X367102Y280500D01*
X367898D01*
X368633Y280804D01*
X369196Y281367D01*
X369500Y282102D01*
Y282898D01*
X369196Y283633D01*
X368633Y284195D01*
X367898Y284500D01*
D02*
G37*
G36*
X411060Y284179D02*
X410265D01*
X409529Y283874D01*
X408967Y283312D01*
X408662Y282576D01*
Y281781D01*
X408967Y281046D01*
X409529Y280483D01*
X410265Y280179D01*
X411060D01*
X411795Y280483D01*
X412358Y281046D01*
X412662Y281781D01*
Y282576D01*
X412358Y283312D01*
X411795Y283874D01*
X411060Y284179D01*
D02*
G37*
G36*
X349398Y284000D02*
X348602D01*
X347867Y283696D01*
X347305Y283133D01*
X347000Y282398D01*
Y281602D01*
X347305Y280867D01*
X347867Y280305D01*
X348602Y280000D01*
X349398D01*
X350133Y280305D01*
X350695Y280867D01*
X351000Y281602D01*
Y282398D01*
X350695Y283133D01*
X350133Y283696D01*
X349398Y284000D01*
D02*
G37*
G36*
X241376Y280492D02*
X240325D01*
X239310Y280220D01*
X238399Y279695D01*
X237656Y278951D01*
X237130Y278041D01*
X236858Y277026D01*
Y275974D01*
X237130Y274959D01*
X237656Y274049D01*
X238399Y273306D01*
X239310Y272780D01*
X240325Y272508D01*
X241376D01*
X242391Y272780D01*
X243302Y273306D01*
X244045Y274049D01*
X244571Y274959D01*
X244843Y275974D01*
Y277026D01*
X244571Y278041D01*
X244045Y278951D01*
X243302Y279695D01*
X242391Y280220D01*
X241376Y280492D01*
D02*
G37*
G36*
X350914Y276016D02*
X350118D01*
X349383Y275711D01*
X348820Y275149D01*
X348516Y274414D01*
Y273618D01*
X348820Y272883D01*
X349383Y272320D01*
X350118Y272016D01*
X350914D01*
X351649Y272320D01*
X352211Y272883D01*
X352516Y273618D01*
Y274414D01*
X352211Y275149D01*
X351649Y275711D01*
X350914Y276016D01*
D02*
G37*
G36*
X533898Y273000D02*
X533102D01*
X532367Y272695D01*
X531805Y272133D01*
X531500Y271398D01*
Y270602D01*
X531805Y269867D01*
X532367Y269304D01*
X533102Y269000D01*
X533898D01*
X534633Y269304D01*
X535195Y269867D01*
X535500Y270602D01*
Y271398D01*
X535195Y272133D01*
X534633Y272695D01*
X533898Y273000D01*
D02*
G37*
G36*
X405407Y272009D02*
X404611D01*
X403876Y271704D01*
X403313Y271142D01*
X403009Y270407D01*
Y269611D01*
X403313Y268876D01*
X403876Y268313D01*
X404611Y268009D01*
X405407D01*
X406142Y268313D01*
X406704Y268876D01*
X407009Y269611D01*
Y270407D01*
X406704Y271142D01*
X406142Y271704D01*
X405407Y272009D01*
D02*
G37*
G36*
X300898Y272000D02*
X300102D01*
X299367Y271695D01*
X298804Y271133D01*
X298500Y270398D01*
Y269602D01*
X298804Y268867D01*
X299367Y268304D01*
X300102Y268000D01*
X300898D01*
X301633Y268304D01*
X302196Y268867D01*
X302500Y269602D01*
Y270398D01*
X302196Y271133D01*
X301633Y271695D01*
X300898Y272000D01*
D02*
G37*
G36*
X305704Y267693D02*
X304909D01*
X304174Y267388D01*
X303611Y266826D01*
X303307Y266090D01*
Y265295D01*
X303611Y264560D01*
X304174Y263997D01*
X304909Y263693D01*
X305704D01*
X306439Y263997D01*
X307002Y264560D01*
X307307Y265295D01*
Y266090D01*
X307002Y266826D01*
X306439Y267388D01*
X305704Y267693D01*
D02*
G37*
G36*
X241376Y270492D02*
X240325D01*
X239310Y270220D01*
X238399Y269694D01*
X237656Y268951D01*
X237130Y268041D01*
X236858Y267026D01*
Y265974D01*
X237130Y264959D01*
X237656Y264049D01*
X238399Y263305D01*
X239310Y262780D01*
X240325Y262508D01*
X241376D01*
X242391Y262780D01*
X243302Y263305D01*
X244045Y264049D01*
X244571Y264959D01*
X244843Y265974D01*
Y267026D01*
X244571Y268041D01*
X244045Y268951D01*
X243302Y269694D01*
X242391Y270220D01*
X241376Y270492D01*
D02*
G37*
G36*
X343398Y263000D02*
X342602D01*
X341867Y262696D01*
X341304Y262133D01*
X341000Y261398D01*
Y260602D01*
X341304Y259867D01*
X341867Y259304D01*
X342602Y259000D01*
X343208D01*
X343528Y258624D01*
X343558Y258538D01*
X343500Y258398D01*
Y257602D01*
X343805Y256867D01*
X344367Y256305D01*
X345102Y256000D01*
X345898D01*
X346633Y256305D01*
X347196Y256867D01*
X347500Y257602D01*
Y258398D01*
X347196Y259133D01*
X346633Y259696D01*
X345898Y260000D01*
X345292D01*
X344972Y260376D01*
X344942Y260462D01*
X345000Y260602D01*
Y261398D01*
X344695Y262133D01*
X344133Y262696D01*
X343398Y263000D01*
D02*
G37*
G36*
X422398Y259000D02*
X421602D01*
X420867Y258696D01*
X420304Y258133D01*
X420000Y257398D01*
Y256602D01*
X420304Y255867D01*
X420867Y255305D01*
X421602Y255000D01*
X422398D01*
X423133Y255305D01*
X423696Y255867D01*
X424000Y256602D01*
Y257398D01*
X423696Y258133D01*
X423133Y258696D01*
X422398Y259000D01*
D02*
G37*
G36*
X241376Y260492D02*
X240325D01*
X239310Y260220D01*
X238399Y259695D01*
X237656Y258951D01*
X237130Y258041D01*
X236858Y257026D01*
Y255974D01*
X237130Y254959D01*
X237656Y254049D01*
X238399Y253306D01*
X239310Y252780D01*
X240325Y252508D01*
X241376D01*
X242391Y252780D01*
X243302Y253306D01*
X244045Y254049D01*
X244571Y254959D01*
X244843Y255974D01*
Y257026D01*
X244571Y258041D01*
X244045Y258951D01*
X243302Y259695D01*
X242391Y260220D01*
X241376Y260492D01*
D02*
G37*
G36*
X333898Y255500D02*
X333102D01*
X332367Y255195D01*
X331804Y254633D01*
X331500Y253898D01*
Y253102D01*
X331804Y252367D01*
X332367Y251804D01*
X333102Y251500D01*
X333898D01*
X334633Y251804D01*
X335195Y252367D01*
X335500Y253102D01*
Y253898D01*
X335195Y254633D01*
X334633Y255195D01*
X333898Y255500D01*
D02*
G37*
G36*
X282398Y250000D02*
X281602D01*
X280867Y249695D01*
X280305Y249133D01*
X280000Y248398D01*
Y247602D01*
X280305Y246867D01*
X280867Y246304D01*
X281602Y246000D01*
X282398D01*
X283133Y246304D01*
X283696Y246867D01*
X284000Y247602D01*
Y248398D01*
X283696Y249133D01*
X283133Y249695D01*
X282398Y250000D01*
D02*
G37*
G36*
X337898Y249500D02*
X337102D01*
X336367Y249196D01*
X335805Y248633D01*
X335500Y247898D01*
Y247102D01*
X335805Y246367D01*
X336367Y245805D01*
X337102Y245500D01*
X337898D01*
X338633Y245805D01*
X339195Y246367D01*
X339500Y247102D01*
Y247898D01*
X339195Y248633D01*
X338633Y249196D01*
X337898Y249500D01*
D02*
G37*
G36*
X241376Y250492D02*
X240325D01*
X239310Y250220D01*
X238399Y249694D01*
X237656Y248951D01*
X237130Y248041D01*
X236858Y247026D01*
Y245974D01*
X237130Y244959D01*
X237656Y244049D01*
X238399Y243305D01*
X239310Y242780D01*
X240325Y242508D01*
X241376D01*
X242391Y242780D01*
X243302Y243305D01*
X244045Y244049D01*
X244571Y244959D01*
X244843Y245974D01*
Y247026D01*
X244571Y248041D01*
X244045Y248951D01*
X243302Y249694D01*
X242391Y250220D01*
X241376Y250492D01*
D02*
G37*
G36*
X299407Y243509D02*
X298611D01*
X297876Y243204D01*
X297313Y242642D01*
X297009Y241907D01*
Y241111D01*
X297313Y240376D01*
X297876Y239813D01*
X298611Y239509D01*
X299407D01*
X300142Y239813D01*
X300704Y240376D01*
X301009Y241111D01*
Y241907D01*
X300704Y242642D01*
X300142Y243204D01*
X299407Y243509D01*
D02*
G37*
G36*
X273398Y238000D02*
X272602D01*
X271867Y237696D01*
X271304Y237133D01*
X271000Y236398D01*
Y235602D01*
X271304Y234867D01*
X271867Y234304D01*
X272602Y234000D01*
X273398D01*
X274133Y234304D01*
X274695Y234867D01*
X275000Y235602D01*
Y236398D01*
X274695Y237133D01*
X274133Y237696D01*
X273398Y238000D01*
D02*
G37*
G36*
X329398Y234500D02*
X328602D01*
X327867Y234195D01*
X327305Y233633D01*
X327167Y233301D01*
X327014Y233247D01*
X326597Y233231D01*
X326133Y233696D01*
X325398Y234000D01*
X324602D01*
X323867Y233696D01*
X323305Y233133D01*
X323000Y232398D01*
Y232201D01*
X322584Y231923D01*
X322398Y232000D01*
X321602D01*
X320867Y231696D01*
X320304Y231133D01*
X320000Y230398D01*
Y229602D01*
X320304Y228867D01*
X320867Y228305D01*
X321602Y228000D01*
X322398D01*
X323133Y228305D01*
X323695Y228867D01*
X324000Y229602D01*
Y229799D01*
X324416Y230077D01*
X324602Y230000D01*
X325398D01*
X326133Y230305D01*
X326695Y230867D01*
X326833Y231199D01*
X326986Y231253D01*
X327403Y231269D01*
X327867Y230804D01*
X328602Y230500D01*
X329398D01*
X330133Y230804D01*
X330696Y231367D01*
X331000Y232102D01*
Y232898D01*
X330696Y233633D01*
X330133Y234195D01*
X329398Y234500D01*
D02*
G37*
G36*
X241376Y240492D02*
X240325D01*
X239310Y240220D01*
X238399Y239694D01*
X237656Y238951D01*
X237130Y238041D01*
X236858Y237026D01*
Y235974D01*
X237130Y234959D01*
X237656Y234049D01*
X238399Y233306D01*
X239310Y232780D01*
X240325Y232508D01*
X241376D01*
X242391Y232780D01*
X243302Y233306D01*
X244045Y234049D01*
X244571Y234959D01*
X244843Y235974D01*
Y237026D01*
X244571Y238041D01*
X244045Y238951D01*
X243302Y239694D01*
X242391Y240220D01*
X241376Y240492D01*
D02*
G37*
G36*
X289416Y236018D02*
X288620D01*
X287885Y235713D01*
X287322Y235151D01*
X287018Y234416D01*
Y233620D01*
X287322Y232885D01*
X287885Y232322D01*
X288620Y232018D01*
X289416D01*
X290151Y232322D01*
X290713Y232885D01*
X291018Y233620D01*
Y234416D01*
X290713Y235151D01*
X290151Y235713D01*
X289416Y236018D01*
D02*
G37*
G36*
X314398Y235000D02*
X313602D01*
X312867Y234696D01*
X312304Y234133D01*
X312000Y233398D01*
Y232602D01*
X312304Y231867D01*
X312867Y231305D01*
X313602Y231000D01*
X314398D01*
X315133Y231305D01*
X315696Y231867D01*
X316000Y232602D01*
Y233398D01*
X315696Y234133D01*
X315133Y234696D01*
X314398Y235000D01*
D02*
G37*
G36*
X306898Y234000D02*
X306102D01*
X305367Y233696D01*
X304804Y233133D01*
X304500Y232398D01*
Y231602D01*
X304804Y230867D01*
X305367Y230305D01*
X306102Y230000D01*
X306898D01*
X307633Y230305D01*
X308195Y230867D01*
X308500Y231602D01*
Y232398D01*
X308195Y233133D01*
X307633Y233696D01*
X306898Y234000D01*
D02*
G37*
G36*
X533149Y238927D02*
X531851D01*
X530598Y238591D01*
X529475Y237943D01*
X528557Y237025D01*
X527909Y235902D01*
X527573Y234649D01*
Y233351D01*
X527909Y232098D01*
X528557Y230975D01*
X529475Y230057D01*
X530598Y229409D01*
X531157Y229259D01*
Y228741D01*
X530598Y228591D01*
X529475Y227943D01*
X528557Y227025D01*
X527909Y225902D01*
X527573Y224649D01*
Y223351D01*
X527909Y222098D01*
X528557Y220975D01*
X529475Y220057D01*
X530598Y219409D01*
X531851Y219073D01*
X533149D01*
X534402Y219409D01*
X535525Y220057D01*
X536443Y220975D01*
X537091Y222098D01*
X537427Y223351D01*
Y224649D01*
X537091Y225902D01*
X536443Y227025D01*
X535525Y227943D01*
X534402Y228591D01*
X533843Y228741D01*
Y229259D01*
X534402Y229409D01*
X535525Y230057D01*
X536443Y230975D01*
X537091Y232098D01*
X537427Y233351D01*
Y234649D01*
X537091Y235902D01*
X536443Y237025D01*
X535525Y237943D01*
X534402Y238591D01*
X533149Y238927D01*
D02*
G37*
G36*
X304398Y220595D02*
X303602D01*
X302867Y220290D01*
X302305Y219727D01*
X302000Y218992D01*
Y218197D01*
X302305Y217462D01*
X302867Y216899D01*
X303602Y216595D01*
X304398D01*
X305133Y216899D01*
X305696Y217462D01*
X306000Y218197D01*
Y218992D01*
X305696Y219727D01*
X305133Y220290D01*
X304398Y220595D01*
D02*
G37*
G36*
X366398Y210500D02*
X365602D01*
X364867Y210195D01*
X364304Y209633D01*
X364000Y208898D01*
Y208102D01*
X364304Y207367D01*
X364867Y206804D01*
X365602Y206500D01*
X366398D01*
X367133Y206804D01*
X367695Y207367D01*
X368000Y208102D01*
Y208898D01*
X367695Y209633D01*
X367133Y210195D01*
X366398Y210500D01*
D02*
G37*
G36*
X330398Y204500D02*
X329602D01*
X328867Y204195D01*
X328305Y203633D01*
X328000Y202898D01*
Y202102D01*
X328305Y201367D01*
X328867Y200804D01*
X329602Y200500D01*
X330398D01*
X331133Y200804D01*
X331696Y201367D01*
X332000Y202102D01*
Y202898D01*
X331696Y203633D01*
X331133Y204195D01*
X330398Y204500D01*
D02*
G37*
G36*
X246051Y204051D02*
X237949D01*
Y195949D01*
X246051D01*
Y204051D01*
D02*
G37*
G36*
X360898Y196000D02*
X360102D01*
X359367Y195695D01*
X358804Y195133D01*
X358500Y194398D01*
Y193602D01*
X358804Y192867D01*
X359367Y192305D01*
X360102Y192000D01*
X360898D01*
X361633Y192305D01*
X362195Y192867D01*
X362500Y193602D01*
Y194398D01*
X362195Y195133D01*
X361633Y195695D01*
X360898Y196000D01*
D02*
G37*
G36*
X305898Y191000D02*
X305102D01*
X304367Y190696D01*
X303804Y190133D01*
X303500Y189398D01*
Y188602D01*
X303804Y187867D01*
X304367Y187304D01*
X305102Y187000D01*
X305898D01*
X306633Y187304D01*
X307195Y187867D01*
X307500Y188602D01*
Y189398D01*
X307195Y190133D01*
X306633Y190696D01*
X305898Y191000D01*
D02*
G37*
G36*
X559898Y184000D02*
X559102D01*
X558367Y183695D01*
X557804Y183133D01*
X557500Y182398D01*
Y181602D01*
X557804Y180867D01*
X558367Y180305D01*
X559102Y180000D01*
X559898D01*
X560633Y180305D01*
X561196Y180867D01*
X561500Y181602D01*
Y182398D01*
X561196Y183133D01*
X560633Y183695D01*
X559898Y184000D01*
D02*
G37*
G36*
X541398D02*
X540602D01*
X539867Y183695D01*
X539304Y183133D01*
X539000Y182398D01*
Y181602D01*
X539304Y180867D01*
X539867Y180305D01*
X540602Y180000D01*
X541398D01*
X542133Y180305D01*
X542696Y180867D01*
X543000Y181602D01*
Y182398D01*
X542696Y183133D01*
X542133Y183695D01*
X541398Y184000D01*
D02*
G37*
G36*
X241533Y183051D02*
X240467D01*
X239436Y182775D01*
X238512Y182242D01*
X237758Y181488D01*
X237225Y180564D01*
X236949Y179533D01*
Y178467D01*
X237225Y177436D01*
X237758Y176513D01*
X238512Y175758D01*
X239436Y175225D01*
X240467Y174949D01*
X241533D01*
X242564Y175225D01*
X243488Y175758D01*
X244242Y176513D01*
X244775Y177436D01*
X245051Y178467D01*
Y179533D01*
X244775Y180564D01*
X244242Y181488D01*
X243488Y182242D01*
X242564Y182775D01*
X241533Y183051D01*
D02*
G37*
G36*
X486398Y169500D02*
X485602D01*
X484867Y169195D01*
X484305Y168633D01*
X484000Y167898D01*
Y167102D01*
X484305Y166367D01*
X484867Y165805D01*
X485602Y165500D01*
X486398D01*
X487133Y165805D01*
X487696Y166367D01*
X488000Y167102D01*
Y167898D01*
X487696Y168633D01*
X487133Y169195D01*
X486398Y169500D01*
D02*
G37*
G36*
X528898Y169000D02*
X528102D01*
X527367Y168695D01*
X526804Y168133D01*
X526500Y167398D01*
Y166602D01*
X526804Y165867D01*
X527367Y165305D01*
X528102Y165000D01*
X528898D01*
X529633Y165305D01*
X530196Y165867D01*
X530500Y166602D01*
Y167398D01*
X530196Y168133D01*
X529633Y168695D01*
X528898Y169000D01*
D02*
G37*
G36*
X245051Y173051D02*
X236949D01*
Y164949D01*
X245051D01*
Y173051D01*
D02*
G37*
G36*
X551898Y168500D02*
X551102D01*
X550367Y168195D01*
X549804Y167633D01*
X549500Y166898D01*
Y166102D01*
X549804Y165367D01*
X550367Y164804D01*
X551102Y164500D01*
X551898D01*
X552633Y164804D01*
X553195Y165367D01*
X553500Y166102D01*
Y166898D01*
X553195Y167633D01*
X552633Y168195D01*
X551898Y168500D01*
D02*
G37*
G36*
X481398Y160500D02*
X480602D01*
X479867Y160196D01*
X479305Y159633D01*
X479000Y158898D01*
Y158102D01*
X479305Y157367D01*
X479867Y156805D01*
X480602Y156500D01*
X481398D01*
X482133Y156805D01*
X482695Y157367D01*
X483000Y158102D01*
Y158898D01*
X482695Y159633D01*
X482133Y160196D01*
X481398Y160500D01*
D02*
G37*
G36*
X577741Y159883D02*
X576945D01*
X576210Y159578D01*
X575648Y159016D01*
X575343Y158281D01*
Y157485D01*
X575648Y156750D01*
X576210Y156187D01*
X576945Y155883D01*
X577741D01*
X578476Y156187D01*
X579039Y156750D01*
X579343Y157485D01*
Y158281D01*
X579039Y159016D01*
X578476Y159578D01*
X577741Y159883D01*
D02*
G37*
G36*
X542447Y155260D02*
X541651D01*
X540916Y154956D01*
X540354Y154393D01*
X540049Y153658D01*
Y152863D01*
X540354Y152128D01*
X540916Y151565D01*
X541651Y151260D01*
X542447D01*
X543182Y151565D01*
X543745Y152128D01*
X544049Y152863D01*
Y153658D01*
X543745Y154393D01*
X543182Y154956D01*
X542447Y155260D01*
D02*
G37*
G36*
X241533Y159051D02*
X240467D01*
X239436Y158775D01*
X238512Y158242D01*
X237758Y157487D01*
X237225Y156564D01*
X236949Y155533D01*
Y154467D01*
X237225Y153436D01*
X237758Y152513D01*
X238512Y151758D01*
X239436Y151225D01*
X240467Y150949D01*
X241533D01*
X242564Y151225D01*
X243488Y151758D01*
X244242Y152513D01*
X244775Y153436D01*
X245051Y154467D01*
Y155533D01*
X244775Y156564D01*
X244242Y157487D01*
X243488Y158242D01*
X242564Y158775D01*
X241533Y159051D01*
D02*
G37*
G36*
X245051Y149051D02*
X236949D01*
Y140949D01*
X245051D01*
Y149051D01*
D02*
G37*
G36*
X504898Y142000D02*
X504102D01*
X503367Y141695D01*
X502805Y141133D01*
X502500Y140398D01*
Y139602D01*
X502805Y138867D01*
X503367Y138304D01*
X504102Y138000D01*
X504898D01*
X505633Y138304D01*
X506195Y138867D01*
X506500Y139602D01*
Y140398D01*
X506195Y141133D01*
X505633Y141695D01*
X504898Y142000D01*
D02*
G37*
G36*
X367026Y141843D02*
X365974D01*
X364959Y141571D01*
X364049Y141045D01*
X363305Y140302D01*
X362780Y139391D01*
X362508Y138376D01*
Y137325D01*
X362780Y136310D01*
X363305Y135399D01*
X364049Y134656D01*
X364959Y134130D01*
X365974Y133858D01*
X367026D01*
X368041Y134130D01*
X368951Y134656D01*
X369694Y135399D01*
X370220Y136310D01*
X370492Y137325D01*
Y138376D01*
X370220Y139391D01*
X369694Y140302D01*
X368951Y141045D01*
X368041Y141571D01*
X367026Y141843D01*
D02*
G37*
G36*
X357026D02*
X355974D01*
X354959Y141571D01*
X354049Y141045D01*
X353306Y140302D01*
X352780Y139391D01*
X352508Y138376D01*
Y137325D01*
X352780Y136310D01*
X353306Y135399D01*
X354049Y134656D01*
X354959Y134130D01*
X355974Y133858D01*
X357026D01*
X358041Y134130D01*
X358951Y134656D01*
X359695Y135399D01*
X360220Y136310D01*
X360492Y137325D01*
Y138376D01*
X360220Y139391D01*
X359695Y140302D01*
X358951Y141045D01*
X358041Y141571D01*
X357026Y141843D01*
D02*
G37*
G36*
X347026D02*
X345974D01*
X344959Y141571D01*
X344049Y141045D01*
X343305Y140302D01*
X342780Y139391D01*
X342508Y138376D01*
Y137325D01*
X342780Y136310D01*
X343305Y135399D01*
X344049Y134656D01*
X344959Y134130D01*
X345974Y133858D01*
X347026D01*
X348041Y134130D01*
X348951Y134656D01*
X349694Y135399D01*
X350220Y136310D01*
X350492Y137325D01*
Y138376D01*
X350220Y139391D01*
X349694Y140302D01*
X348951Y141045D01*
X348041Y141571D01*
X347026Y141843D01*
D02*
G37*
G36*
X337026D02*
X335974D01*
X334959Y141571D01*
X334049Y141045D01*
X333306Y140302D01*
X332780Y139391D01*
X332508Y138376D01*
Y137325D01*
X332780Y136310D01*
X333306Y135399D01*
X334049Y134656D01*
X334959Y134130D01*
X335974Y133858D01*
X337026D01*
X338041Y134130D01*
X338951Y134656D01*
X339694Y135399D01*
X340220Y136310D01*
X340492Y137325D01*
Y138376D01*
X340220Y139391D01*
X339694Y140302D01*
X338951Y141045D01*
X338041Y141571D01*
X337026Y141843D01*
D02*
G37*
G36*
X327026D02*
X325974D01*
X324959Y141571D01*
X324049Y141045D01*
X323306Y140302D01*
X322780Y139391D01*
X322508Y138376D01*
Y137325D01*
X322780Y136310D01*
X323306Y135399D01*
X324049Y134656D01*
X324959Y134130D01*
X325974Y133858D01*
X327026D01*
X328041Y134130D01*
X328951Y134656D01*
X329695Y135399D01*
X330220Y136310D01*
X330492Y137325D01*
Y138376D01*
X330220Y139391D01*
X329695Y140302D01*
X328951Y141045D01*
X328041Y141571D01*
X327026Y141843D01*
D02*
G37*
G36*
X317026D02*
X315974D01*
X314959Y141571D01*
X314049Y141045D01*
X313305Y140302D01*
X312780Y139391D01*
X312508Y138376D01*
Y137325D01*
X312780Y136310D01*
X313305Y135399D01*
X314049Y134656D01*
X314959Y134130D01*
X315974Y133858D01*
X317026D01*
X318041Y134130D01*
X318951Y134656D01*
X319694Y135399D01*
X320220Y136310D01*
X320492Y137325D01*
Y138376D01*
X320220Y139391D01*
X319694Y140302D01*
X318951Y141045D01*
X318041Y141571D01*
X317026Y141843D01*
D02*
G37*
G36*
X307026D02*
X305974D01*
X304959Y141571D01*
X304049Y141045D01*
X303306Y140302D01*
X302780Y139391D01*
X302508Y138376D01*
Y137325D01*
X302780Y136310D01*
X303306Y135399D01*
X304049Y134656D01*
X304959Y134130D01*
X305974Y133858D01*
X307026D01*
X308041Y134130D01*
X308951Y134656D01*
X309695Y135399D01*
X310220Y136310D01*
X310492Y137325D01*
Y138376D01*
X310220Y139391D01*
X309695Y140302D01*
X308951Y141045D01*
X308041Y141571D01*
X307026Y141843D01*
D02*
G37*
G36*
X297026D02*
X295974D01*
X294959Y141571D01*
X294049Y141045D01*
X293305Y140302D01*
X292780Y139391D01*
X292508Y138376D01*
Y137325D01*
X292780Y136310D01*
X293305Y135399D01*
X294049Y134656D01*
X294959Y134130D01*
X295974Y133858D01*
X297026D01*
X298041Y134130D01*
X298951Y134656D01*
X299694Y135399D01*
X300220Y136310D01*
X300492Y137325D01*
Y138376D01*
X300220Y139391D01*
X299694Y140302D01*
X298951Y141045D01*
X298041Y141571D01*
X297026Y141843D01*
D02*
G37*
G36*
X504898Y137500D02*
X504102D01*
X503367Y137196D01*
X502805Y136633D01*
X502500Y135898D01*
Y135102D01*
X502805Y134367D01*
X503367Y133805D01*
X503499Y133750D01*
Y133250D01*
X503367Y133195D01*
X502805Y132633D01*
X502500Y131898D01*
Y131102D01*
X502805Y130367D01*
X503367Y129805D01*
X504102Y129500D01*
X504898D01*
X505633Y129805D01*
X506195Y130367D01*
X506500Y131102D01*
Y131898D01*
X506195Y132633D01*
X505633Y133195D01*
X505501Y133250D01*
Y133750D01*
X505633Y133805D01*
X506195Y134367D01*
X506500Y135102D01*
Y135898D01*
X506195Y136633D01*
X505633Y137196D01*
X504898Y137500D01*
D02*
G37*
G36*
Y129000D02*
X504102D01*
X503367Y128695D01*
X502805Y128133D01*
X502500Y127398D01*
Y126602D01*
X502805Y125867D01*
X503367Y125304D01*
X504102Y125000D01*
X504898D01*
X505633Y125304D01*
X506195Y125867D01*
X506500Y126602D01*
Y127398D01*
X506195Y128133D01*
X505633Y128695D01*
X504898Y129000D01*
D02*
G37*
G36*
X577898Y119000D02*
X577102D01*
X576367Y118695D01*
X575805Y118133D01*
X575500Y117398D01*
Y116602D01*
X575805Y115867D01*
X576367Y115305D01*
X577102Y115000D01*
X577898D01*
X578633Y115305D01*
X579195Y115867D01*
X579500Y116602D01*
Y117398D01*
X579195Y118133D01*
X578633Y118695D01*
X577898Y119000D01*
D02*
G37*
G36*
X241070Y121327D02*
X239930D01*
X238830Y121032D01*
X237843Y120462D01*
X237038Y119657D01*
X236468Y118670D01*
X236173Y117570D01*
Y116430D01*
X236468Y115330D01*
X237038Y114343D01*
X237843Y113538D01*
X238830Y112968D01*
X239930Y112673D01*
X241070D01*
X242170Y112968D01*
X243157Y113538D01*
X243962Y114343D01*
X244532Y115330D01*
X244827Y116430D01*
Y117570D01*
X244532Y118670D01*
X243962Y119657D01*
X243157Y120462D01*
X242170Y121032D01*
X241070Y121327D01*
D02*
G37*
G36*
X231070D02*
X229930D01*
X228830Y121032D01*
X227843Y120462D01*
X227038Y119657D01*
X226468Y118670D01*
X226173Y117570D01*
Y116430D01*
X226468Y115330D01*
X227038Y114343D01*
X227843Y113538D01*
X228830Y112968D01*
X229930Y112673D01*
X231070D01*
X232170Y112968D01*
X233157Y113538D01*
X233962Y114343D01*
X234532Y115330D01*
X234827Y116430D01*
Y117570D01*
X234532Y118670D01*
X233962Y119657D01*
X233157Y120462D01*
X232170Y121032D01*
X231070Y121327D01*
D02*
G37*
G36*
X224827D02*
X216173D01*
Y112673D01*
X224827D01*
Y121327D01*
D02*
G37*
G36*
X531898Y106000D02*
X531102D01*
X530367Y105695D01*
X529805Y105133D01*
X529500Y104398D01*
Y103602D01*
X529805Y102867D01*
X530367Y102304D01*
X531102Y102000D01*
X531898D01*
X532633Y102304D01*
X533195Y102867D01*
X533500Y103602D01*
Y104398D01*
X533195Y105133D01*
X532633Y105695D01*
X531898Y106000D01*
D02*
G37*
G36*
X481398D02*
X480602D01*
X479867Y105695D01*
X479305Y105133D01*
X479000Y104398D01*
Y103602D01*
X479305Y102867D01*
X479867Y102304D01*
X480602Y102000D01*
X481398D01*
X482133Y102304D01*
X482695Y102867D01*
X483000Y103602D01*
Y104398D01*
X482695Y105133D01*
X482133Y105695D01*
X481398Y106000D01*
D02*
G37*
G36*
X685259Y132500D02*
X682741D01*
X680253Y132106D01*
X677858Y131328D01*
X675614Y130184D01*
X673577Y128704D01*
X671796Y126923D01*
X670316Y124886D01*
X669172Y122642D01*
X668394Y120247D01*
X668000Y117759D01*
Y115241D01*
X668394Y112753D01*
X669172Y110358D01*
X670316Y108114D01*
X671796Y106077D01*
X673577Y104296D01*
X675614Y102816D01*
X677858Y101672D01*
X680253Y100894D01*
X682741Y100500D01*
X685259D01*
X687747Y100894D01*
X690142Y101672D01*
X692386Y102816D01*
X694423Y104296D01*
X696204Y106077D01*
X697684Y108114D01*
X698828Y110358D01*
X699606Y112753D01*
X700000Y115241D01*
Y117759D01*
X699606Y120247D01*
X698828Y122642D01*
X697684Y124886D01*
X696204Y126923D01*
X694423Y128704D01*
X692386Y130184D01*
X690142Y131328D01*
X687747Y132106D01*
X685259Y132500D01*
D02*
G37*
G36*
X633259Y132000D02*
X630741D01*
X628253Y131606D01*
X625858Y130828D01*
X623614Y129684D01*
X621577Y128204D01*
X619796Y126423D01*
X618316Y124386D01*
X617172Y122142D01*
X616394Y119747D01*
X616000Y117259D01*
Y114741D01*
X616394Y112253D01*
X617172Y109858D01*
X618316Y107614D01*
X619796Y105577D01*
X621577Y103796D01*
X623614Y102316D01*
X625858Y101172D01*
X628253Y100394D01*
X630741Y100000D01*
X633259D01*
X635747Y100394D01*
X638142Y101172D01*
X640386Y102316D01*
X642423Y103796D01*
X644204Y105577D01*
X645684Y107614D01*
X646828Y109858D01*
X647606Y112253D01*
X648000Y114741D01*
Y117259D01*
X647606Y119747D01*
X646828Y122142D01*
X645684Y124386D01*
X644204Y126423D01*
X642423Y128204D01*
X640386Y129684D01*
X638142Y130828D01*
X635747Y131606D01*
X633259Y132000D01*
D02*
G37*
%LPD*%
D140*
X240850Y316500D02*
D03*
X286500Y137850D02*
D03*
X276000Y377150D02*
D03*
X286000D02*
D03*
X296000D02*
D03*
D141*
X240850Y326500D02*
D03*
D143*
X242000Y210000D02*
D03*
D144*
X532500Y244000D02*
D03*
D146*
X276500Y137850D02*
D03*
D148*
X387000Y394000D02*
D03*
D149*
X417500Y281500D02*
D03*
X411925Y293500D02*
D03*
X334000Y217000D02*
D03*
X597000Y327500D02*
D03*
Y323500D02*
D03*
Y319500D02*
D03*
Y315000D02*
D03*
Y345500D02*
D03*
Y341500D02*
D03*
Y337500D02*
D03*
Y333000D02*
D03*
Y363500D02*
D03*
Y359500D02*
D03*
Y355500D02*
D03*
Y351000D02*
D03*
Y381000D02*
D03*
Y377000D02*
D03*
Y373000D02*
D03*
Y368500D02*
D03*
Y398000D02*
D03*
Y394000D02*
D03*
Y390000D02*
D03*
Y385500D02*
D03*
X586500Y386000D02*
D03*
Y390500D02*
D03*
Y394500D02*
D03*
Y398500D02*
D03*
Y369000D02*
D03*
Y373500D02*
D03*
Y377500D02*
D03*
Y381500D02*
D03*
Y351500D02*
D03*
Y356000D02*
D03*
Y360000D02*
D03*
Y364000D02*
D03*
Y333500D02*
D03*
Y338000D02*
D03*
Y342000D02*
D03*
Y346000D02*
D03*
Y315500D02*
D03*
Y320000D02*
D03*
Y324000D02*
D03*
Y328000D02*
D03*
X446500Y293000D02*
D03*
X502500Y328000D02*
D03*
Y324000D02*
D03*
Y320000D02*
D03*
Y315500D02*
D03*
X436500Y318000D02*
D03*
Y314000D02*
D03*
Y310000D02*
D03*
Y305500D02*
D03*
X388000Y287000D02*
D03*
X387000Y308500D02*
D03*
X404000Y256500D02*
D03*
X399500D02*
D03*
X394500D02*
D03*
X389000D02*
D03*
X425000Y281000D02*
D03*
X301500Y295000D02*
D03*
X606500Y315500D02*
D03*
X612000Y322000D02*
D03*
X544500Y288500D02*
D03*
X547000Y283000D02*
D03*
X552500D02*
D03*
X558000D02*
D03*
X562500Y288000D02*
D03*
X528500Y283000D02*
D03*
X439500Y220500D02*
D03*
X434500Y250000D02*
D03*
X339700Y243215D02*
D03*
X347284Y235475D02*
D03*
X289000Y210000D02*
D03*
X303000Y233500D02*
D03*
X294988Y240677D02*
D03*
X412000Y318500D02*
D03*
X408500Y326000D02*
D03*
X370169Y295020D02*
D03*
X635500Y310500D02*
D03*
X631500D02*
D03*
X464500D02*
D03*
X448500Y307500D02*
D03*
X453000D02*
D03*
X611500Y145500D02*
D03*
X592208Y122075D02*
D03*
X596313Y130313D02*
D03*
X601086Y138992D02*
D03*
X457500Y110000D02*
D03*
X697500Y246500D02*
D03*
X694000D02*
D03*
X690500D02*
D03*
X687000D02*
D03*
X697500Y268500D02*
D03*
X694000D02*
D03*
X690500D02*
D03*
X687000D02*
D03*
X697000Y361000D02*
D03*
X693500D02*
D03*
X690000D02*
D03*
X686500D02*
D03*
X697500Y383500D02*
D03*
X694000D02*
D03*
X690500D02*
D03*
X687000D02*
D03*
X603500Y403500D02*
D03*
Y407000D02*
D03*
Y410500D02*
D03*
Y414000D02*
D03*
X581000Y403000D02*
D03*
Y406500D02*
D03*
Y410000D02*
D03*
Y413500D02*
D03*
X517500Y403500D02*
D03*
Y407000D02*
D03*
Y410500D02*
D03*
Y414000D02*
D03*
X495500Y403000D02*
D03*
Y406500D02*
D03*
Y410000D02*
D03*
Y413500D02*
D03*
X430000Y413000D02*
D03*
X452500Y414000D02*
D03*
Y410000D02*
D03*
Y406500D02*
D03*
Y403000D02*
D03*
X430000Y409500D02*
D03*
Y406000D02*
D03*
Y402500D02*
D03*
X613500Y299500D02*
D03*
X606500Y311000D02*
D03*
X582000Y299500D02*
D03*
X575500Y311000D02*
D03*
X574500Y299500D02*
D03*
X538500Y310500D02*
D03*
X563500Y294500D02*
D03*
X544500D02*
D03*
X553000Y210500D02*
D03*
X548500D02*
D03*
X544000D02*
D03*
X594000Y201000D02*
D03*
X588500D02*
D03*
X582000D02*
D03*
X561500Y328500D02*
D03*
X558500Y332000D02*
D03*
X554500D02*
D03*
X542500Y326500D02*
D03*
Y322000D02*
D03*
X474000Y325500D02*
D03*
X469000D02*
D03*
X457000Y307500D02*
D03*
X461000D02*
D03*
X468500Y310500D02*
D03*
X472000D02*
D03*
X475500D02*
D03*
X522500Y299000D02*
D03*
X502000D02*
D03*
X490500Y311500D02*
D03*
X494500D02*
D03*
X498000D02*
D03*
X502000D02*
D03*
X515000D02*
D03*
X510500D02*
D03*
X529500D02*
D03*
X526000D02*
D03*
X522500D02*
D03*
X583000Y311000D02*
D03*
X579000D02*
D03*
X602500D02*
D03*
X599000D02*
D03*
X610000Y299500D02*
D03*
X555500Y304000D02*
D03*
X552500D02*
D03*
X555500Y306500D02*
D03*
X552500D02*
D03*
X564500Y309500D02*
D03*
Y313000D02*
D03*
X561500Y324500D02*
D03*
X542500Y318000D02*
D03*
Y314000D02*
D03*
Y310500D02*
D03*
X606000Y299500D02*
D03*
X602000D02*
D03*
X598000D02*
D03*
X585500D02*
D03*
X578500D02*
D03*
X565000Y298000D02*
D03*
X559500Y294500D02*
D03*
X555500D02*
D03*
X549000D02*
D03*
X542500Y298500D02*
D03*
X538500D02*
D03*
X515500Y299000D02*
D03*
X511000D02*
D03*
X498000D02*
D03*
X493500D02*
D03*
X489000D02*
D03*
X484500D02*
D03*
X480000D02*
D03*
X475000Y295000D02*
D03*
X470500D02*
D03*
X466000D02*
D03*
X460500Y293000D02*
D03*
X455500D02*
D03*
X451000D02*
D03*
X370000Y342000D02*
D03*
X504507Y110016D02*
D03*
X318016Y230016D02*
D03*
X458255Y160132D02*
D03*
X485000Y155000D02*
D03*
X587500Y157000D02*
D03*
X465475Y220975D02*
D03*
X514500Y219500D02*
D03*
X509000D02*
D03*
X514500Y225000D02*
D03*
Y122500D02*
D03*
X514618Y119760D02*
D03*
X514500Y116500D02*
D03*
X412000Y310500D02*
D03*
X379500Y323500D02*
D03*
X332336Y274519D02*
D03*
Y278519D02*
D03*
Y283019D02*
D03*
X503000Y225000D02*
D03*
Y230000D02*
D03*
Y235000D02*
D03*
Y249500D02*
D03*
Y244000D02*
D03*
Y239500D02*
D03*
X481000Y230000D02*
D03*
Y235000D02*
D03*
Y239500D02*
D03*
X486500Y235000D02*
D03*
Y230000D02*
D03*
Y239500D02*
D03*
X470000D02*
D03*
Y230000D02*
D03*
X464000Y244000D02*
D03*
X470000Y235000D02*
D03*
Y244000D02*
D03*
X464000Y230000D02*
D03*
Y235000D02*
D03*
Y239500D02*
D03*
X481000Y219500D02*
D03*
X470000D02*
D03*
X497500D02*
D03*
X464000Y225000D02*
D03*
X470000D02*
D03*
X492000Y219500D02*
D03*
X475500D02*
D03*
X486500D02*
D03*
X509000Y249500D02*
D03*
Y235000D02*
D03*
Y244000D02*
D03*
Y230000D02*
D03*
Y239500D02*
D03*
X514500Y244000D02*
D03*
Y239500D02*
D03*
Y249500D02*
D03*
X509000Y225000D02*
D03*
X514500Y230000D02*
D03*
Y235000D02*
D03*
X492000Y249500D02*
D03*
X497500D02*
D03*
X464000D02*
D03*
X470000D02*
D03*
X475500D02*
D03*
X481000D02*
D03*
X486500D02*
D03*
X475500Y244000D02*
D03*
X481000D02*
D03*
X486500D02*
D03*
X492000Y239500D02*
D03*
X497500D02*
D03*
X492000Y244000D02*
D03*
X497500D02*
D03*
X475500Y239500D02*
D03*
Y235000D02*
D03*
X492000D02*
D03*
X497500D02*
D03*
X503000Y219500D02*
D03*
X497500Y225000D02*
D03*
X481000D02*
D03*
X486500D02*
D03*
X475500Y230000D02*
D03*
X492000D02*
D03*
X497500D02*
D03*
X475500Y225000D02*
D03*
X492000D02*
D03*
D150*
X684500Y170000D02*
D03*
X219000Y399000D02*
D03*
D151*
X465984Y130823D02*
D03*
Y134760D02*
D03*
X469921Y130823D02*
D03*
Y134760D02*
D03*
X473858Y130823D02*
D03*
Y134760D02*
D03*
X572642Y130740D02*
D03*
Y134677D02*
D03*
X576579Y130740D02*
D03*
Y134677D02*
D03*
X580516Y130740D02*
D03*
Y134677D02*
D03*
M02*
