G04*
G04 #@! TF.GenerationSoftware,Altium Limited,Altium Designer,23.8.1 (32)*
G04*
G04 Layer_Color=65535*
%FSLAX25Y25*%
%MOIN*%
G70*
G04*
G04 #@! TF.SameCoordinates,93D85A25-96AA-4E13-9423-ABE69869F54E*
G04*
G04*
G04 #@! TF.FilePolarity,Positive*
G04*
G01*
G75*
%ADD10C,0.00984*%
%ADD11C,0.02362*%
%ADD12C,0.00787*%
%ADD13C,0.01004*%
%ADD14C,0.00394*%
%ADD15C,0.00500*%
%ADD16C,0.00600*%
%ADD17C,0.01000*%
%ADD18C,0.00300*%
%ADD19R,0.05906X0.00787*%
G36*
X307550Y291392D02*
X306550D01*
Y289892D01*
X307550D01*
Y291392D01*
D02*
G37*
G36*
X332450Y309108D02*
X333450D01*
Y307608D01*
X332450D01*
Y309108D01*
D02*
G37*
D10*
X377516Y321185D02*
G03*
X377516Y321185I-492J0D01*
G01*
X241146Y331736D02*
G03*
X241146Y331736I-492J0D01*
G01*
X444953Y235760D02*
G03*
X444953Y235760I-492J0D01*
G01*
X338043Y345240D02*
G03*
X338043Y345240I-492J0D01*
G01*
X631272Y315520D02*
G03*
X631272Y315520I-492J0D01*
G01*
X524425Y348480D02*
G03*
X524425Y348480I-492J0D01*
G01*
X441614Y398657D02*
G03*
X441614Y398657I-492J0D01*
G01*
X506992Y398870D02*
G03*
X506992Y398870I-492J0D01*
G01*
X682862Y372500D02*
G03*
X682862Y372500I-492J0D01*
G01*
X592492Y398870D02*
G03*
X592492Y398870I-492J0D01*
G01*
X683150Y257378D02*
G03*
X683150Y257378I-492J0D01*
G01*
X271756Y137654D02*
G03*
X271756Y137654I-492J0D01*
G01*
X371728Y377346D02*
G03*
X371728Y377346I-492J0D01*
G01*
X506744Y123500D02*
G03*
X506744Y123500I-492J0D01*
G01*
X361429Y275945D02*
G03*
X361429Y275945I-492J0D01*
G01*
X397492Y378646D02*
G03*
X397492Y378646I-492J0D01*
G01*
D11*
X387457Y317839D02*
G03*
X387457Y317839I-1181J0D01*
G01*
D12*
X304630Y187787D02*
G03*
X304630Y187787I-394J0D01*
G01*
X532894Y210821D02*
G03*
X532894Y210821I-394J0D01*
G01*
X382339Y281224D02*
Y321776D01*
X399661Y281224D02*
Y321776D01*
X382339D02*
X399661D01*
X382339Y281224D02*
X399661D01*
X357961Y169499D02*
Y178980D01*
X351039Y169499D02*
Y178980D01*
X404779Y110559D02*
X416221D01*
X404779Y119441D02*
X416221D01*
X522961Y328759D02*
Y338241D01*
X516039Y328759D02*
Y338241D01*
X473759Y107039D02*
X483241D01*
X473759Y113961D02*
X483241D01*
X343539Y169499D02*
Y178980D01*
X350461Y169499D02*
Y178980D01*
X404779Y119059D02*
X416221D01*
X404779Y127941D02*
X416221D01*
X405028Y129059D02*
X416470D01*
X405028Y137941D02*
X416470D01*
X405279Y138059D02*
X416721D01*
X405279Y146941D02*
X416721D01*
X405279Y147059D02*
X416721D01*
X405279Y155941D02*
X416721D01*
X418779Y119441D02*
X430221D01*
X418779Y110559D02*
X430221D01*
X418779Y128441D02*
X430221D01*
X418779Y119559D02*
X430221D01*
X418779Y137441D02*
X430221D01*
X418779Y128559D02*
X430221D01*
X419279Y155941D02*
X430721D01*
X419279Y147059D02*
X430721D01*
X419028Y146441D02*
X430470D01*
X419028Y137559D02*
X430470D01*
X214496Y128791D02*
X246504D01*
Y105209D02*
Y128791D01*
X214496Y105209D02*
X246504D01*
X214496D02*
Y128791D01*
X547759Y329461D02*
X557241D01*
X547759Y322539D02*
X557241D01*
X549999Y285039D02*
X559480D01*
X549999Y291961D02*
X559480D01*
X303759Y188461D02*
X313241D01*
X303759Y181539D02*
X313241D01*
X413902Y275728D02*
X414098D01*
X413902Y279272D02*
X414098D01*
X602626Y148493D02*
Y150437D01*
X607374Y148493D02*
Y150437D01*
X311334Y268964D02*
Y280036D01*
X318666Y268964D02*
Y280036D01*
X327346Y248039D02*
Y255961D01*
X320654Y248039D02*
Y255961D01*
X522720Y143449D02*
Y149551D01*
X521638Y143154D02*
X526362D01*
X521638Y149846D02*
X526362D01*
X201874Y332976D02*
X236126D01*
X201874Y230024D02*
Y332976D01*
Y230024D02*
X236126D01*
Y332976D01*
X335539Y169759D02*
Y179241D01*
X342461Y169759D02*
Y179241D01*
X250259Y196539D02*
X259741D01*
X250259Y203461D02*
X259741D01*
X535820Y128127D02*
Y139198D01*
X528489Y128127D02*
Y139198D01*
X226016Y215748D02*
X236016D01*
Y194252D02*
Y215748D01*
X226016Y194252D02*
X236016D01*
X226016D02*
Y215748D01*
X414728Y288902D02*
Y289098D01*
X418272Y288902D02*
Y289098D01*
X427228Y287902D02*
Y288098D01*
X430772Y287902D02*
Y288098D01*
X429488Y246193D02*
X440512D01*
X429488Y232807D02*
X440512D01*
X442453Y223850D02*
Y230150D01*
X436547Y223850D02*
Y230150D01*
X445284Y243146D02*
Y248854D01*
X455717Y243146D02*
Y248854D01*
X425461Y234499D02*
Y243980D01*
X418539Y234499D02*
Y243980D01*
X454961Y221999D02*
Y231480D01*
X448039Y221999D02*
Y231480D01*
X442146Y266216D02*
X447854D01*
X442146Y255784D02*
X447854D01*
X225016Y184748D02*
X235016D01*
Y163252D02*
Y184748D01*
X225016Y163252D02*
X235016D01*
X225016D02*
Y184748D01*
Y160748D02*
X235016D01*
Y139252D02*
Y160748D01*
X225016Y139252D02*
X235016D01*
X225016D02*
Y160748D01*
X466020Y285539D02*
X475501D01*
X466020Y292461D02*
X475501D01*
X345622Y347504D02*
X348378D01*
Y335496D02*
Y347504D01*
X345622Y335496D02*
X348378D01*
X345622D02*
Y347504D01*
X255106Y181658D02*
X255894D01*
X255106Y176342D02*
X255894D01*
X255142Y170158D02*
X255929D01*
X255142Y164842D02*
X255929D01*
X254642Y157158D02*
X255429D01*
X254642Y151842D02*
X255429D01*
X563555Y245697D02*
Y248020D01*
Y262980D02*
Y265303D01*
X540445D02*
X563555D01*
X540445Y245697D02*
Y248020D01*
Y262980D02*
Y265303D01*
Y245697D02*
X563555D01*
X569713Y211047D02*
X576602D01*
X569713Y216953D02*
X576602D01*
X584661Y217039D02*
X594339D01*
X584661Y223961D02*
X594339D01*
X575055Y217547D02*
X581945D01*
X575055Y223453D02*
X581945D01*
X586213Y224547D02*
X593102D01*
X586213Y230453D02*
X593102D01*
X574898D02*
X581787D01*
X574898Y224547D02*
X581787D01*
X569555Y205547D02*
X576445D01*
X569555Y211453D02*
X576445D01*
X540594Y241480D02*
Y243803D01*
Y224197D02*
Y226520D01*
Y224197D02*
X563705D01*
Y241480D02*
Y243803D01*
Y224197D02*
Y226520D01*
X540594Y243803D02*
X563705D01*
X564697Y232445D02*
X567020D01*
X581980D02*
X584303D01*
Y255555D01*
X564697D02*
X567020D01*
X581980D02*
X584303D01*
X564697Y232445D02*
Y255555D01*
X610504Y318748D02*
X627000D01*
Y302252D02*
Y302528D01*
Y318472D02*
Y318748D01*
X610504Y302252D02*
X627000D01*
X610504D02*
Y302528D01*
Y308472D02*
Y312528D01*
Y318472D02*
Y318748D01*
X443035Y113535D02*
X459965D01*
Y130465D01*
X443035D02*
X459965D01*
X443035Y113535D02*
Y130465D01*
X461850Y126689D02*
X462933D01*
X476909D02*
X477992D01*
X461850Y138894D02*
X462933D01*
X476909D02*
X477992D01*
X461850Y126689D02*
Y128067D01*
Y137516D02*
Y138894D01*
X477992Y126689D02*
Y128067D01*
Y137516D02*
Y138894D01*
X461993Y143626D02*
X463937D01*
X461993Y148374D02*
X463937D01*
X461492Y151626D02*
X463437D01*
X461492Y156374D02*
X463437D01*
X443185Y138646D02*
Y144354D01*
X453815Y138646D02*
Y144354D01*
X478461Y145259D02*
Y154741D01*
X471539Y145259D02*
Y154741D01*
X461047Y113835D02*
Y118165D01*
X466953Y113835D02*
Y118165D01*
X487956Y142831D02*
Y155659D01*
X497044Y142831D02*
Y155659D01*
X486957Y136000D02*
X490894D01*
X486957Y141000D02*
X490894D01*
X485202Y133961D02*
Y139759D01*
X479798Y133961D02*
Y139759D01*
X486831Y142216D02*
Y151894D01*
X478169Y142216D02*
Y151894D01*
X481551Y115146D02*
X482732D01*
X481551Y120854D02*
X482732D01*
X350768Y312752D02*
Y322248D01*
X359232Y312752D02*
Y322248D01*
X384268Y324752D02*
Y334248D01*
X392732Y324752D02*
Y334248D01*
X361268Y314193D02*
Y323689D01*
X369732Y314193D02*
Y323689D01*
X566539Y329259D02*
Y338741D01*
X573461Y329259D02*
Y338741D01*
X530039Y257499D02*
Y266980D01*
X536961Y257499D02*
Y266980D01*
X577259Y301539D02*
X586741D01*
X577259Y308461D02*
X586741D01*
X512999Y301539D02*
X522480D01*
X512999Y308461D02*
X522480D01*
X588539Y297520D02*
Y307001D01*
X595461Y297520D02*
Y307001D01*
X522499Y371539D02*
X531980D01*
X522499Y378461D02*
X531980D01*
X534520D02*
X544001D01*
X534520Y371539D02*
X544001D01*
X361779Y228441D02*
X373221D01*
X361779Y219559D02*
X373221D01*
X531256Y287350D02*
Y292350D01*
X525744Y287350D02*
Y292350D01*
X558914Y321202D02*
X564711D01*
X558914Y315798D02*
X564711D01*
X544601Y320702D02*
X550399D01*
X544601Y315298D02*
X550399D01*
X565414Y327702D02*
X571211D01*
X565414Y322298D02*
X571211D01*
X572756Y314508D02*
Y315492D01*
X567244Y314508D02*
Y315492D01*
X568601Y307702D02*
X574399D01*
X568601Y302298D02*
X574399D01*
X533601Y307702D02*
X539399D01*
X533601Y302298D02*
X539399D01*
X531256Y300965D02*
Y301949D01*
X525744Y300965D02*
Y301949D01*
X499499Y301539D02*
X508980D01*
X499499Y308461D02*
X508980D01*
X439259Y296039D02*
X448741D01*
X439259Y302961D02*
X448741D01*
X413803Y261925D02*
X414197D01*
X413803Y265075D02*
X414197D01*
X413803Y255425D02*
X414197D01*
X413803Y258575D02*
X414197D01*
X409259Y274461D02*
X418741D01*
X409259Y267539D02*
X418741D01*
X426759Y296039D02*
X436241D01*
X426759Y302961D02*
X436241D01*
X374259Y278461D02*
X383741D01*
X374259Y271539D02*
X383741D01*
X641567Y284071D02*
X651434D01*
X641567Y292929D02*
X651434D01*
X522346Y342819D02*
Y349905D01*
X515654Y342819D02*
Y349905D01*
X532004Y338736D02*
Y350744D01*
Y338736D02*
X534760D01*
Y350744D01*
X532004D02*
X534760D01*
X549358Y335076D02*
Y341966D01*
X542654Y335055D02*
Y341945D01*
X335846Y339457D02*
Y346543D01*
X329153Y339457D02*
Y346543D01*
X359534Y342858D02*
X366424D01*
X359555Y336154D02*
X366445D01*
X296453Y275350D02*
Y281650D01*
X290547Y275350D02*
Y281650D01*
X414547Y305350D02*
Y311650D01*
X420453Y305350D02*
Y311650D01*
X277752Y223630D02*
X287248D01*
X277752Y230370D02*
X287248D01*
X359370Y186774D02*
Y196270D01*
X352630Y186774D02*
Y196270D01*
X281252Y238130D02*
X290748D01*
X281252Y244870D02*
X290748D01*
X306653Y247539D02*
Y255461D01*
X313347Y247539D02*
Y255461D01*
X313653Y248039D02*
Y255961D01*
X320346Y248039D02*
Y255961D01*
X354850Y211453D02*
X361150D01*
X354850Y205547D02*
X361150D01*
X352252Y219370D02*
X361748D01*
X352252Y212630D02*
X361748D01*
X289953Y275350D02*
Y281650D01*
X284047Y275350D02*
Y281650D01*
X348774Y231870D02*
X358270D01*
X348774Y225130D02*
X358270D01*
X255106Y146158D02*
X255894D01*
X255106Y140842D02*
X255894D01*
X299654Y247539D02*
Y255461D01*
X306347Y247539D02*
Y255461D01*
X425768Y398697D02*
X438760D01*
X425768D02*
Y413854D01*
X456476Y398697D02*
Y413854D01*
X443484Y398697D02*
X456476D01*
X491146Y398909D02*
X504138D01*
X491146D02*
Y414067D01*
X521854Y398909D02*
Y414067D01*
X508862Y398909D02*
X521854D01*
X682409Y374862D02*
Y387854D01*
X697567D01*
X682409Y357146D02*
X697567D01*
X682409D02*
Y370138D01*
X576646Y398909D02*
X589638D01*
X576646D02*
Y414067D01*
X607354Y398909D02*
Y414067D01*
X594362Y398909D02*
X607354D01*
X682697Y259740D02*
Y272732D01*
X697854D01*
X682697Y242024D02*
X697854D01*
X682697D02*
Y255016D01*
X270024Y98874D02*
Y133126D01*
Y98874D02*
X372976D01*
Y133126D01*
X270024D02*
X372976D01*
X372476Y381874D02*
Y416126D01*
X269524D02*
X372476D01*
X269524Y381874D02*
Y416126D01*
Y381874D02*
X372476D01*
X477768Y323693D02*
Y333189D01*
X486232Y323693D02*
Y333189D01*
X464693Y307224D02*
X468433D01*
X469811Y298563D02*
Y306437D01*
Y298563D02*
X471189D01*
Y306437D01*
X469811D02*
X471189D01*
X647429Y305567D02*
Y315434D01*
X638571Y305567D02*
Y315434D01*
X640906Y331071D02*
X650772D01*
X640906Y339929D02*
X650772D01*
X508516Y112870D02*
X520720D01*
X508516Y126650D02*
X520720D01*
X274708Y304567D02*
X285780D01*
X274708Y297433D02*
X285780D01*
X507453Y114594D02*
Y120894D01*
X501547Y114594D02*
Y120894D01*
X528870Y115730D02*
Y125226D01*
X522130Y115730D02*
Y125226D01*
X479039Y310661D02*
Y320339D01*
X485961Y310661D02*
Y320339D01*
X528759Y362039D02*
X538241D01*
X528759Y368961D02*
X538241D01*
X568508Y126606D02*
X569591D01*
X583567D02*
X584650D01*
X568508Y138811D02*
X569591D01*
X583567D02*
X584650D01*
X568508Y126606D02*
Y127984D01*
Y137433D02*
Y138811D01*
X584650Y126606D02*
Y127984D01*
Y137433D02*
Y138811D01*
X383378Y398035D02*
Y406992D01*
Y381008D02*
Y389965D01*
X401035Y406992D02*
X410898D01*
X383378D02*
X392965D01*
X383378Y381008D02*
X392965D01*
X401035D02*
X410898D01*
Y406992D01*
X591760Y147257D02*
Y153163D01*
X599240Y147257D02*
Y153163D01*
X556815Y139146D02*
Y144854D01*
X546185Y139146D02*
Y144854D01*
X560126Y141528D02*
Y143472D01*
X564874Y141528D02*
Y143472D01*
X342759Y349539D02*
X352241D01*
X342759Y356461D02*
X352241D01*
X591043Y146303D02*
Y152602D01*
X583957Y146303D02*
Y152602D01*
X580961Y144259D02*
Y153741D01*
X574039Y144259D02*
Y153741D01*
X289933Y286464D02*
Y297536D01*
X297067Y286464D02*
Y297536D01*
X549035Y113870D02*
Y130799D01*
X565965D01*
Y113870D02*
Y130799D01*
X549035Y113870D02*
X565965D01*
X587910Y110146D02*
X589090D01*
X587910Y115854D02*
X589090D01*
X593532Y136500D02*
X597469D01*
X593532Y141500D02*
X597469D01*
X591702Y133961D02*
Y139759D01*
X586298Y133961D02*
Y139759D01*
X567547Y112323D02*
Y116654D01*
X573453Y112323D02*
Y116654D01*
D13*
X547110Y310311D02*
G03*
X547110Y310311I-502J0D01*
G01*
D14*
X462047Y125114D02*
G03*
X462047Y125114I-197J0D01*
G01*
X568705Y125031D02*
G03*
X568705Y125031I-197J0D01*
G01*
D15*
X338685Y233653D02*
Y236764D01*
X299315Y233653D02*
Y236764D01*
X338685Y197394D02*
Y200504D01*
X299315Y197394D02*
Y200504D01*
X335575Y236764D02*
X338685D01*
X299315D02*
X302425D01*
X335575Y197394D02*
X338685D01*
X299315D02*
X302425D01*
X521053Y213774D02*
X538573D01*
Y254226D01*
X521053D02*
X538573D01*
X521053Y213774D02*
Y254226D01*
D16*
X313400Y288750D02*
X326600D01*
X313400Y310250D02*
X326600D01*
D17*
X618000Y375332D02*
Y371333D01*
X619999D01*
X620666Y371999D01*
Y374665D01*
X619999Y375332D01*
X618000D01*
X621999Y371333D02*
Y371999D01*
X622665D01*
Y371333D01*
X621999D01*
X631995Y374665D02*
X631329Y375332D01*
X629996D01*
X629330Y374665D01*
Y373999D01*
X629996Y373332D01*
X631329D01*
X631995Y372666D01*
Y371999D01*
X631329Y371333D01*
X629996D01*
X629330Y371999D01*
X633995Y374665D02*
Y373999D01*
X633328D01*
X634661D01*
X633995D01*
Y371999D01*
X634661Y371333D01*
X637327Y373999D02*
X638660D01*
X639326Y373332D01*
Y371333D01*
X637327D01*
X636661Y371999D01*
X637327Y372666D01*
X639326D01*
X640659Y373999D02*
X641992Y371333D01*
X643325Y373999D01*
X644658Y371333D02*
X646657D01*
X647324Y371999D01*
X646657Y372666D01*
X645325D01*
X644658Y373332D01*
X645325Y373999D01*
X647324D01*
X648657Y371333D02*
Y375332D01*
Y372666D02*
X650656Y373999D01*
X648657Y372666D02*
X650656Y371333D01*
X652656D02*
X653988D01*
X653322D01*
Y373999D01*
X652656D01*
X655988D02*
Y371999D01*
X656654Y371333D01*
X658653D01*
Y370666D01*
X657987Y370000D01*
X657321D01*
X658653Y371333D02*
Y373999D01*
X618500Y383332D02*
Y379333D01*
X621166D01*
X622499D02*
Y379999D01*
X623165D01*
Y379333D01*
X622499D01*
X629830Y383332D02*
Y379333D01*
X631163Y380666D01*
X632495Y379333D01*
Y383332D01*
X634495Y379333D02*
X635828D01*
X636494Y379999D01*
Y381332D01*
X635828Y381999D01*
X634495D01*
X633828Y381332D01*
Y379999D01*
X634495Y379333D01*
X637827D02*
Y381999D01*
X639826D01*
X640493Y381332D01*
Y379333D01*
X643159Y378000D02*
X643825D01*
X644492Y378666D01*
Y381999D01*
X642492D01*
X641826Y381332D01*
Y379999D01*
X642492Y379333D01*
X644492D01*
X620666Y390999D02*
X619333D01*
X619999D01*
Y387666D01*
X619333Y387000D01*
X618666D01*
X618000Y387666D01*
X621999Y387000D02*
Y387666D01*
X622665D01*
Y387000D01*
X621999D01*
X629330Y390999D02*
Y387000D01*
X631329D01*
X631995Y387666D01*
Y390332D01*
X631329Y390999D01*
X629330D01*
X633995Y389666D02*
X635328D01*
X635994Y388999D01*
Y387000D01*
X633995D01*
X633328Y387666D01*
X633995Y388333D01*
X635994D01*
X639993Y390999D02*
Y387000D01*
X637993D01*
X637327Y387666D01*
Y388999D01*
X637993Y389666D01*
X639993D01*
X641992Y387000D02*
X643325D01*
X643992Y387666D01*
Y388999D01*
X643325Y389666D01*
X641992D01*
X641326Y388999D01*
Y387666D01*
X641992Y387000D01*
X645325D02*
X647324D01*
X647990Y387666D01*
X647324Y388333D01*
X645991D01*
X645325Y388999D01*
X645991Y389666D01*
X647990D01*
X671000Y235500D02*
Y239499D01*
X672999D01*
X673666Y238832D01*
Y237499D01*
X672999Y236833D01*
X671000D01*
X672333D02*
X673666Y235500D01*
X677665Y239499D02*
X674999D01*
Y237499D01*
X676332D01*
X674999D01*
Y235500D01*
X684996Y239499D02*
X683663D01*
X682996Y238832D01*
Y236166D01*
X683663Y235500D01*
X684996D01*
X685662Y236166D01*
Y238832D01*
X684996Y239499D01*
X686995D02*
Y236166D01*
X687661Y235500D01*
X688994D01*
X689661Y236166D01*
Y239499D01*
X690993D02*
X693659D01*
X692326D01*
Y235500D01*
X694992Y237499D02*
X697658D01*
X674500Y351000D02*
Y354999D01*
X676499D01*
X677166Y354332D01*
Y352999D01*
X676499Y352333D01*
X674500D01*
X675833D02*
X677166Y351000D01*
X681165Y354999D02*
X678499D01*
Y352999D01*
X679832D01*
X678499D01*
Y351000D01*
X688495Y354999D02*
X687163D01*
X686496Y354332D01*
Y351666D01*
X687163Y351000D01*
X688495D01*
X689162Y351666D01*
Y354332D01*
X688495Y354999D01*
X690495D02*
Y351666D01*
X691161Y351000D01*
X692494D01*
X693161Y351666D01*
Y354999D01*
X694493D02*
X697159D01*
X695826D01*
Y351000D01*
X698492Y352999D02*
X701158D01*
X699825Y354332D02*
Y351666D01*
X574000Y388500D02*
X570001D01*
Y390499D01*
X570668Y391166D01*
X572001D01*
X572667Y390499D01*
Y388500D01*
X574000Y392499D02*
X571334D01*
X570001Y393832D01*
X571334Y395164D01*
X574000D01*
X572001D01*
Y392499D01*
X574000Y399163D02*
Y396497D01*
X571334Y399163D01*
X570668D01*
X570001Y398497D01*
Y397164D01*
X570668Y396497D01*
X570001Y406494D02*
Y405161D01*
X570668Y404495D01*
X573334D01*
X574000Y405161D01*
Y406494D01*
X573334Y407161D01*
X570668D01*
X570001Y406494D01*
Y408494D02*
X573334D01*
X574000Y409160D01*
Y410493D01*
X573334Y411159D01*
X570001D01*
Y412492D02*
Y415158D01*
Y413825D01*
X574000D01*
X488500Y389500D02*
X484501D01*
Y391499D01*
X485168Y392166D01*
X486501D01*
X487167Y391499D01*
Y389500D01*
X488500Y393499D02*
X485834D01*
X484501Y394832D01*
X485834Y396164D01*
X488500D01*
X486501D01*
Y393499D01*
X488500Y397497D02*
Y398830D01*
Y398164D01*
X484501D01*
X485168Y397497D01*
X484501Y406828D02*
Y405495D01*
X485168Y404828D01*
X487834D01*
X488500Y405495D01*
Y406828D01*
X487834Y407494D01*
X485168D01*
X484501Y406828D01*
Y408827D02*
X487834D01*
X488500Y409494D01*
Y410826D01*
X487834Y411493D01*
X484501D01*
Y412826D02*
Y415492D01*
Y414159D01*
X488500D01*
X418501Y388500D02*
X422500D01*
Y390499D01*
X421834Y391166D01*
X419168D01*
X418501Y390499D01*
Y388500D01*
Y392499D02*
X422500D01*
Y394498D01*
X421834Y395164D01*
X419168D01*
X418501Y394498D01*
Y392499D01*
X419168Y399163D02*
X418501Y398497D01*
Y397164D01*
X419168Y396497D01*
X419834D01*
X420501Y397164D01*
Y398497D01*
X421167Y399163D01*
X421834D01*
X422500Y398497D01*
Y397164D01*
X421834Y396497D01*
X418501Y406494D02*
Y405161D01*
X419168Y404495D01*
X421834D01*
X422500Y405161D01*
Y406494D01*
X421834Y407161D01*
X419168D01*
X418501Y406494D01*
Y408494D02*
X421834D01*
X422500Y409160D01*
Y410493D01*
X421834Y411159D01*
X418501D01*
Y412492D02*
Y415158D01*
Y413825D01*
X422500D01*
X377500Y376499D02*
Y372500D01*
X379499D01*
X380166Y373166D01*
Y375832D01*
X379499Y376499D01*
X377500D01*
X381499D02*
Y372500D01*
X383498D01*
X384165Y373166D01*
Y375832D01*
X383498Y376499D01*
X381499D01*
X388163Y375832D02*
X387497Y376499D01*
X386164D01*
X385497Y375832D01*
Y375166D01*
X386164Y374499D01*
X387497D01*
X388163Y373833D01*
Y373166D01*
X387497Y372500D01*
X386164D01*
X385497Y373166D01*
X393495Y376499D02*
X396161D01*
X394828D01*
Y372500D01*
X397494Y376499D02*
X400159Y372500D01*
Y376499D02*
X397494Y372500D01*
X405491D02*
Y376499D01*
X407490D01*
X408157Y375832D01*
Y374499D01*
X407490Y373833D01*
X405491D01*
X409490Y376499D02*
Y372500D01*
X410823Y373833D01*
X412155Y372500D01*
Y376499D01*
X413488Y372500D02*
Y376499D01*
X415488D01*
X416154Y375832D01*
Y374499D01*
X415488Y373833D01*
X413488D01*
X414821D02*
X416154Y372500D01*
X617000Y398499D02*
X622332D01*
X619666Y401164D02*
Y395833D01*
X638326Y402497D02*
X632995D01*
Y394500D01*
X638326D01*
X632995Y398499D02*
X635661D01*
X640992Y394500D02*
Y402497D01*
X643658Y399832D01*
X646324Y402497D01*
Y394500D01*
X654321Y401164D02*
X652988Y402497D01*
X650322D01*
X648990Y401164D01*
Y395833D01*
X650322Y394500D01*
X652988D01*
X654321Y395833D01*
Y398499D01*
X651655D01*
X664985Y399832D02*
X667650Y394500D01*
X670316Y399832D01*
X672982Y394500D02*
X675648D01*
X674315D01*
Y402497D01*
X672982Y401164D01*
X679646Y394500D02*
Y395833D01*
X680979D01*
Y394500D01*
X679646D01*
X686311Y401164D02*
X687644Y402497D01*
X690310D01*
X691643Y401164D01*
Y395833D01*
X690310Y394500D01*
X687644D01*
X686311Y395833D01*
Y401164D01*
X617500Y413997D02*
Y406000D01*
X621499D01*
X622832Y407333D01*
Y412665D01*
X621499Y413997D01*
X617500D01*
X625497D02*
X630829D01*
X628163D01*
Y406000D01*
X638826Y412665D02*
X637494Y413997D01*
X634828D01*
X633495Y412665D01*
Y407333D01*
X634828Y406000D01*
X637494D01*
X638826Y407333D01*
X641492Y406000D02*
Y413997D01*
X645491D01*
X646824Y412665D01*
Y409999D01*
X645491Y408666D01*
X641492D01*
X657487Y406000D02*
Y413997D01*
X661486D01*
X662819Y412665D01*
Y409999D01*
X661486Y408666D01*
X657487D01*
X666817Y406000D02*
X669483D01*
X670816Y407333D01*
Y409999D01*
X669483Y411332D01*
X666817D01*
X665485Y409999D01*
Y407333D01*
X666817Y406000D01*
X673482Y411332D02*
Y407333D01*
X674815Y406000D01*
X676148Y407333D01*
X677481Y406000D01*
X678814Y407333D01*
Y411332D01*
X685478Y406000D02*
X682812D01*
X681479Y407333D01*
Y409999D01*
X682812Y411332D01*
X685478D01*
X686811Y409999D01*
Y408666D01*
X681479D01*
X689477Y411332D02*
Y406000D01*
Y408666D01*
X690810Y409999D01*
X692142Y411332D01*
X693475D01*
X682499Y195998D02*
X681499Y196998D01*
X679500D01*
X678500Y195998D01*
Y192000D01*
X679500Y191000D01*
X681499D01*
X682499Y192000D01*
Y193999D01*
X680499D01*
X684498Y191000D02*
Y196998D01*
X688497Y191000D01*
Y196998D01*
X690496D02*
Y191000D01*
X693495D01*
X694495Y192000D01*
Y195998D01*
X693495Y196998D01*
X690496D01*
X675500Y138999D02*
X679499D01*
X677499Y140998D02*
Y137000D01*
X685497Y141998D02*
X681498D01*
Y138999D01*
X683497Y139999D01*
X684497D01*
X685497Y138999D01*
Y137000D01*
X684497Y136000D01*
X682498D01*
X681498Y137000D01*
X687496Y141998D02*
Y137999D01*
X689496Y136000D01*
X691495Y137999D01*
Y141998D01*
X621000Y137499D02*
X624999D01*
X622999Y139498D02*
Y135500D01*
X626998Y134500D02*
X628997D01*
X627998D01*
Y140498D01*
X626998Y139498D01*
X635995Y134500D02*
X631996D01*
X635995Y138499D01*
Y139498D01*
X634996Y140498D01*
X632996D01*
X631996Y139498D01*
X637994Y140498D02*
Y136499D01*
X639994Y134500D01*
X641993Y136499D01*
Y140498D01*
X240999Y401498D02*
X239999Y402498D01*
X238000D01*
X237000Y401498D01*
Y397500D01*
X238000Y396500D01*
X239999D01*
X240999Y397500D01*
Y399499D01*
X238999D01*
X242998Y396500D02*
Y402498D01*
X246997Y396500D01*
Y402498D01*
X248996D02*
Y396500D01*
X251995D01*
X252995Y397500D01*
Y401498D01*
X251995Y402498D01*
X248996D01*
X236000Y363499D02*
X239999D01*
X237999Y365498D02*
Y361500D01*
X241998Y365498D02*
X242998Y366498D01*
X244997D01*
X245997Y365498D01*
Y364499D01*
X244997Y363499D01*
X243997D01*
X244997D01*
X245997Y362499D01*
Y361500D01*
X244997Y360500D01*
X242998D01*
X241998Y361500D01*
X247996Y360500D02*
Y361500D01*
X248996D01*
Y360500D01*
X247996D01*
X252994Y366498D02*
X256993D01*
Y365498D01*
X252994Y361500D01*
Y360500D01*
X258993Y366498D02*
Y362499D01*
X260992Y360500D01*
X262991Y362499D01*
Y366498D01*
X275168Y145166D02*
X274501Y144499D01*
Y143166D01*
X275168Y142500D01*
X277834D01*
X278500Y143166D01*
Y144499D01*
X277834Y145166D01*
X276501D01*
Y143833D01*
X278500Y146499D02*
X274501D01*
X278500Y149164D01*
X274501D01*
Y150497D02*
X278500D01*
Y152497D01*
X277834Y153163D01*
X275168D01*
X274501Y152497D01*
Y150497D01*
X285168Y145666D02*
X284501Y144999D01*
Y143667D01*
X285168Y143000D01*
X287834D01*
X288500Y143667D01*
Y144999D01*
X287834Y145666D01*
X286501D01*
Y144333D01*
X288500Y146999D02*
X284501D01*
X288500Y149664D01*
X284501D01*
Y150997D02*
X288500D01*
Y152997D01*
X287834Y153663D01*
X285168D01*
X284501Y152997D01*
Y150997D01*
X295275Y145202D02*
X294609Y144535D01*
Y143202D01*
X295275Y142536D01*
X295942D01*
X296608Y143202D01*
Y144535D01*
X297275Y145202D01*
X297941D01*
X298608Y144535D01*
Y143202D01*
X297941Y142536D01*
X294609Y146535D02*
Y149200D01*
Y147868D01*
X298608D01*
Y150533D02*
X295942D01*
X294609Y151866D01*
X295942Y153199D01*
X298608D01*
X296608D01*
Y150533D01*
X298608Y154532D02*
X294609D01*
Y156532D01*
X295275Y157198D01*
X296608D01*
X297275Y156532D01*
Y154532D01*
Y155865D02*
X298608Y157198D01*
X294609Y158531D02*
Y161197D01*
Y159864D01*
X298608D01*
X308500Y143000D02*
X304501D01*
Y144999D01*
X305168Y145666D01*
X306501D01*
X307167Y144999D01*
Y143000D01*
X304501Y146999D02*
X308500D01*
X307167Y148332D01*
X308500Y149664D01*
X304501D01*
Y150997D02*
X308500D01*
Y152997D01*
X307834Y153663D01*
X305168D01*
X304501Y152997D01*
Y150997D01*
X308500Y154996D02*
X304501D01*
X308500Y157662D01*
X304501D01*
X318500Y143000D02*
X314501D01*
Y144999D01*
X315168Y145666D01*
X316501D01*
X317167Y144999D01*
Y143000D01*
Y144333D02*
X318500Y145666D01*
X315168Y149664D02*
X314501Y148998D01*
Y147665D01*
X315168Y146999D01*
X315834D01*
X316501Y147665D01*
Y148998D01*
X317167Y149664D01*
X317834D01*
X318500Y148998D01*
Y147665D01*
X317834Y146999D01*
X314501Y150997D02*
Y153663D01*
Y152330D01*
X318500D01*
X324501Y143000D02*
X328500D01*
Y144999D01*
X327834Y145666D01*
X325168D01*
X324501Y144999D01*
Y143000D01*
X328500Y146999D02*
X324501D01*
Y148998D01*
X325168Y149664D01*
X326501D01*
X327167Y148998D01*
Y146999D01*
Y148332D02*
X328500Y149664D01*
X324501Y150997D02*
X328500D01*
Y152997D01*
X327834Y153663D01*
X325168D01*
X324501Y152997D01*
Y150997D01*
Y154996D02*
X325168D01*
X326501Y156329D01*
X325168Y157662D01*
X324501D01*
X326501Y156329D02*
X328500D01*
X338500Y143000D02*
X334501D01*
X335834Y144333D01*
X334501Y145666D01*
X338500D01*
X334501Y146999D02*
Y148332D01*
Y147665D01*
X338500D01*
Y146999D01*
Y148332D01*
X335168Y152997D02*
X334501Y152330D01*
Y150997D01*
X335168Y150331D01*
X335834D01*
X336501Y150997D01*
Y152330D01*
X337167Y152997D01*
X337834D01*
X338500Y152330D01*
Y150997D01*
X337834Y150331D01*
X334501Y156329D02*
Y154996D01*
X335168Y154330D01*
X337834D01*
X338500Y154996D01*
Y156329D01*
X337834Y156995D01*
X335168D01*
X334501Y156329D01*
X345668Y146166D02*
X345001Y145499D01*
Y144167D01*
X345668Y143500D01*
X346334D01*
X347001Y144167D01*
Y145499D01*
X347667Y146166D01*
X348334D01*
X349000Y145499D01*
Y144167D01*
X348334Y143500D01*
X345668Y150164D02*
X345001Y149498D01*
Y148165D01*
X345668Y147499D01*
X348334D01*
X349000Y148165D01*
Y149498D01*
X348334Y150164D01*
X345001Y151497D02*
X349000D01*
X347667D01*
X345001Y154163D01*
X347001Y152164D01*
X349000Y154163D01*
X355168Y145666D02*
X354501Y144999D01*
Y143667D01*
X355168Y143000D01*
X357834D01*
X358500Y143667D01*
Y144999D01*
X357834Y145666D01*
X355168Y149664D02*
X354501Y148998D01*
Y147665D01*
X355168Y146999D01*
X355834D01*
X356501Y147665D01*
Y148998D01*
X357167Y149664D01*
X357834D01*
X358500Y148998D01*
Y147665D01*
X357834Y146999D01*
X368500Y143000D02*
X364501D01*
X365834Y144333D01*
X364501Y145666D01*
X368500D01*
X364501Y148998D02*
Y147665D01*
X365168Y146999D01*
X367834D01*
X368500Y147665D01*
Y148998D01*
X367834Y149664D01*
X365168D01*
X364501Y148998D01*
X365168Y153663D02*
X364501Y152997D01*
Y151664D01*
X365168Y150997D01*
X365834D01*
X366501Y151664D01*
Y152997D01*
X367167Y153663D01*
X367834D01*
X368500Y152997D01*
Y151664D01*
X367834Y150997D01*
X364501Y154996D02*
Y156329D01*
Y155663D01*
X368500D01*
Y154996D01*
Y156329D01*
X246000Y235999D02*
X248666D01*
X247333Y237332D02*
Y234666D01*
X249999Y237332D02*
X250665Y237999D01*
X251998D01*
X252664Y237332D01*
Y236666D01*
X251998Y235999D01*
X251332D01*
X251998D01*
X252664Y235333D01*
Y234666D01*
X251998Y234000D01*
X250665D01*
X249999Y234666D01*
X253997Y234000D02*
Y234666D01*
X254664D01*
Y234000D01*
X253997D01*
X257330Y237999D02*
X259996D01*
Y237332D01*
X257330Y234666D01*
Y234000D01*
X261328Y237999D02*
Y235333D01*
X262661Y234000D01*
X263994Y235333D01*
Y237999D01*
X245000Y246499D02*
X247666D01*
X246333Y247832D02*
Y245166D01*
X248999Y247832D02*
X249665Y248499D01*
X250998D01*
X251664Y247832D01*
Y247166D01*
X250998Y246499D01*
X250332D01*
X250998D01*
X251664Y245833D01*
Y245166D01*
X250998Y244500D01*
X249665D01*
X248999Y245166D01*
X252997Y244500D02*
Y245166D01*
X253664D01*
Y244500D01*
X252997D01*
X256330Y247832D02*
X256996Y248499D01*
X258329D01*
X258996Y247832D01*
Y247166D01*
X258329Y246499D01*
X257663D01*
X258329D01*
X258996Y245833D01*
Y245166D01*
X258329Y244500D01*
X256996D01*
X256330Y245166D01*
X260328Y248499D02*
Y245833D01*
X261661Y244500D01*
X262994Y245833D01*
Y248499D01*
X245500Y256499D02*
X248166D01*
X246833Y257832D02*
Y255166D01*
X252165Y258499D02*
X249499D01*
Y256499D01*
X250832Y257166D01*
X251498D01*
X252165Y256499D01*
Y255166D01*
X251498Y254500D01*
X250165D01*
X249499Y255166D01*
X253497Y258499D02*
Y255833D01*
X254830Y254500D01*
X256163Y255833D01*
Y258499D01*
X246000Y266499D02*
X248666D01*
X247333Y267832D02*
Y265166D01*
X249999Y264500D02*
X251332D01*
X250665D01*
Y268499D01*
X249999Y267832D01*
X255997Y264500D02*
X253331D01*
X255997Y267166D01*
Y267832D01*
X255330Y268499D01*
X253997D01*
X253331Y267832D01*
X257330Y268499D02*
Y265833D01*
X258663Y264500D01*
X259996Y265833D01*
Y268499D01*
X249166Y277832D02*
X248499Y278499D01*
X247166D01*
X246500Y277832D01*
Y277166D01*
X247166Y276499D01*
X248499D01*
X249166Y275833D01*
Y275166D01*
X248499Y274500D01*
X247166D01*
X246500Y275166D01*
X250499Y278499D02*
Y274500D01*
X251832Y275833D01*
X253165Y274500D01*
Y278499D01*
X254497D02*
Y274500D01*
X256497D01*
X257163Y275166D01*
Y277832D01*
X256497Y278499D01*
X254497D01*
X258496D02*
X259829D01*
X259163D01*
Y274500D01*
X258496D01*
X259829D01*
X263828Y278499D02*
X262495D01*
X261828Y277832D01*
Y275166D01*
X262495Y274500D01*
X263828D01*
X264494Y275166D01*
Y277832D01*
X263828Y278499D01*
X249166Y287832D02*
X248499Y288499D01*
X247166D01*
X246500Y287832D01*
Y287166D01*
X247166Y286499D01*
X248499D01*
X249166Y285833D01*
Y285166D01*
X248499Y284500D01*
X247166D01*
X246500Y285166D01*
X250499Y288499D02*
Y284500D01*
X251832Y285833D01*
X253165Y284500D01*
Y288499D01*
X257163Y287832D02*
X256497Y288499D01*
X255164D01*
X254497Y287832D01*
Y285166D01*
X255164Y284500D01*
X256497D01*
X257163Y285166D01*
X258496Y288499D02*
Y284500D01*
X261162D01*
X262495Y288499D02*
Y284500D01*
Y285833D01*
X265161Y288499D01*
X263161Y286499D01*
X265161Y284500D01*
X247000Y294500D02*
Y298499D01*
X248999D01*
X249666Y297832D01*
Y296499D01*
X248999Y295833D01*
X247000D01*
X248333D02*
X249666Y294500D01*
X253664Y297832D02*
X252998Y298499D01*
X251665D01*
X250999Y297832D01*
Y297166D01*
X251665Y296499D01*
X252998D01*
X253664Y295833D01*
Y295166D01*
X252998Y294500D01*
X251665D01*
X250999Y295166D01*
X254997Y298499D02*
X257663D01*
X256330D01*
Y294500D01*
X245500Y308499D02*
Y305166D01*
X246166Y304500D01*
X247499D01*
X248166Y305166D01*
Y308499D01*
X249499Y304500D02*
Y307166D01*
X250832Y308499D01*
X252165Y307166D01*
Y304500D01*
Y306499D01*
X249499D01*
X253497Y304500D02*
Y308499D01*
X255497D01*
X256163Y307832D01*
Y306499D01*
X255497Y305833D01*
X253497D01*
X254830D02*
X256163Y304500D01*
X257496Y308499D02*
X260162D01*
X258829D01*
Y304500D01*
X265494Y308499D02*
X268159D01*
X266827D01*
Y304500D01*
X269492Y308499D02*
X272158Y304500D01*
Y308499D02*
X269492Y304500D01*
X248166Y317332D02*
X247499Y317999D01*
X246166D01*
X245500Y317332D01*
Y314666D01*
X246166Y314000D01*
X247499D01*
X248166Y314666D01*
Y315999D01*
X246833D01*
X249499Y314000D02*
Y317999D01*
X252165Y314000D01*
Y317999D01*
X253497D02*
Y314000D01*
X255497D01*
X256163Y314666D01*
Y317332D01*
X255497Y317999D01*
X253497D01*
X248166Y327332D02*
X247499Y327999D01*
X246166D01*
X245500Y327332D01*
Y324666D01*
X246166Y324000D01*
X247499D01*
X248166Y324666D01*
Y325999D01*
X246833D01*
X249499Y324000D02*
Y327999D01*
X252165Y324000D01*
Y327999D01*
X253497D02*
Y324000D01*
X255497D01*
X256163Y324666D01*
Y327332D01*
X255497Y327999D01*
X253497D01*
X274168Y364166D02*
X273501Y363499D01*
Y362166D01*
X274168Y361500D01*
X276834D01*
X277500Y362166D01*
Y363499D01*
X276834Y364166D01*
X275501D01*
Y362833D01*
X277500Y365499D02*
X273501D01*
X277500Y368164D01*
X273501D01*
Y369497D02*
X277500D01*
Y371497D01*
X276834Y372163D01*
X274168D01*
X273501Y371497D01*
Y369497D01*
X284168Y364166D02*
X283501Y363499D01*
Y362166D01*
X284168Y361500D01*
X286834D01*
X287500Y362166D01*
Y363499D01*
X286834Y364166D01*
X285501D01*
Y362833D01*
X287500Y365499D02*
X283501D01*
X287500Y368164D01*
X283501D01*
Y369497D02*
X287500D01*
Y371497D01*
X286834Y372163D01*
X284168D01*
X283501Y371497D01*
Y369497D01*
X294668Y363666D02*
X294001Y362999D01*
Y361666D01*
X294668Y361000D01*
X297334D01*
X298000Y361666D01*
Y362999D01*
X297334Y363666D01*
X296001D01*
Y362333D01*
X298000Y364999D02*
X294001D01*
X298000Y367665D01*
X294001D01*
Y368997D02*
X298000D01*
Y370997D01*
X297334Y371663D01*
X294668D01*
X294001Y370997D01*
Y368997D01*
X307334Y356666D02*
X304668D01*
X304001Y355999D01*
Y354666D01*
X304668Y354000D01*
X307334D01*
X308000Y354666D01*
Y355999D01*
X306667Y355333D02*
X308000Y356666D01*
Y355999D02*
X307334Y356666D01*
X304001Y359998D02*
Y358665D01*
X304668Y357999D01*
X307334D01*
X308000Y358665D01*
Y359998D01*
X307334Y360665D01*
X304668D01*
X304001Y359998D01*
Y361997D02*
X307334D01*
X308000Y362664D01*
Y363997D01*
X307334Y364663D01*
X304001D01*
Y365996D02*
Y368662D01*
Y367329D01*
X308000D01*
X304001Y369995D02*
X308000D01*
Y371994D01*
X307334Y372661D01*
X306667D01*
X306001Y371994D01*
Y369995D01*
Y371994D01*
X305334Y372661D01*
X304668D01*
X304001Y371994D01*
Y369995D01*
X313541Y358833D02*
X316207D01*
X317540Y360166D01*
X316207Y361498D01*
X313541D01*
Y362831D02*
Y364164D01*
Y363498D01*
X317540D01*
Y362831D01*
Y364164D01*
Y366164D02*
X313541D01*
X317540Y368829D01*
X313541D01*
X317540Y370162D02*
X313541D01*
X317540Y372828D01*
X313541D01*
X323501Y359000D02*
X326167D01*
X327500Y360333D01*
X326167Y361666D01*
X323501D01*
Y362999D02*
Y364332D01*
Y363665D01*
X327500D01*
Y362999D01*
Y364332D01*
Y366331D02*
X323501D01*
X327500Y368997D01*
X323501D01*
X327500Y370330D02*
X323501D01*
Y372329D01*
X324168Y372995D01*
X325501D01*
X326167Y372329D01*
Y370330D01*
X334001Y365000D02*
X338000D01*
Y366999D01*
X337334Y367666D01*
X334668D01*
X334001Y366999D01*
Y365000D01*
Y368999D02*
Y371665D01*
X334668D01*
X337334Y368999D01*
X338000D01*
X348000Y361500D02*
X344001D01*
Y363499D01*
X344668Y364166D01*
X346001D01*
X346667Y363499D01*
Y361500D01*
Y362833D02*
X348000Y364166D01*
X344668Y368164D02*
X344001Y367498D01*
Y366165D01*
X344668Y365499D01*
X345334D01*
X346001Y366165D01*
Y367498D01*
X346667Y368164D01*
X347334D01*
X348000Y367498D01*
Y366165D01*
X347334Y365499D01*
X344001Y369497D02*
Y372163D01*
Y370830D01*
X348000D01*
X353501Y361166D02*
Y358500D01*
X355501D01*
Y359833D01*
Y358500D01*
X357500D01*
X356834Y365164D02*
X354168D01*
X353501Y364498D01*
Y363165D01*
X354168Y362499D01*
X356834D01*
X357500Y363165D01*
Y364498D01*
X356167Y363832D02*
X357500Y365164D01*
Y364498D02*
X356834Y365164D01*
X353501Y366497D02*
X356834D01*
X357500Y367164D01*
Y368497D01*
X356834Y369163D01*
X353501D01*
Y370496D02*
X357500D01*
Y372496D01*
X356834Y373162D01*
X354168D01*
X353501Y372496D01*
Y370496D01*
X364001Y358500D02*
X368000D01*
X366667Y359833D01*
X368000Y361166D01*
X364001D01*
X364668Y365164D02*
X364001Y364498D01*
Y363165D01*
X364668Y362499D01*
X367334D01*
X368000Y363165D01*
Y364498D01*
X367334Y365164D01*
X364001Y366497D02*
X368000D01*
Y369163D01*
X364001Y370496D02*
X368000D01*
X366667D01*
X364001Y373162D01*
X366001Y371163D01*
X368000Y373162D01*
X513000Y152500D02*
Y156499D01*
X514999D01*
X515666Y155832D01*
Y154499D01*
X514999Y153833D01*
X513000D01*
X516999Y156499D02*
Y152500D01*
X518332Y153833D01*
X519664Y152500D01*
Y156499D01*
X520997Y152500D02*
Y156499D01*
X522997D01*
X523663Y155832D01*
Y154499D01*
X522997Y153833D01*
X520997D01*
X522330D02*
X523663Y152500D01*
X530994Y156499D02*
X529661D01*
X528995Y155832D01*
Y153166D01*
X529661Y152500D01*
X530994D01*
X531661Y153166D01*
Y155832D01*
X530994Y156499D01*
X532994Y152500D02*
Y156499D01*
X535659Y152500D01*
Y156499D01*
X528500Y358999D02*
Y355000D01*
X530499D01*
X531166Y355666D01*
Y356333D01*
X530499Y356999D01*
X528500D01*
X530499D01*
X531166Y357666D01*
Y358332D01*
X530499Y358999D01*
X528500D01*
X532499D02*
Y358332D01*
X533832Y356999D01*
X535164Y358332D01*
Y358999D01*
X533832Y356999D02*
Y355000D01*
X536497D02*
Y358999D01*
X538497D01*
X539163Y358332D01*
Y356999D01*
X538497Y356333D01*
X536497D01*
X538000Y381000D02*
X539333D01*
X538666D01*
Y384999D01*
X538000Y384332D01*
X543998Y381000D02*
X541332D01*
X543998Y383666D01*
Y384332D01*
X543332Y384999D01*
X541999D01*
X541332Y384332D01*
X545331Y381000D02*
Y381666D01*
X545997D01*
Y381000D01*
X545331D01*
X548663Y384332D02*
X549330Y384999D01*
X550663D01*
X551329Y384332D01*
Y381666D01*
X550663Y381000D01*
X549330D01*
X548663Y381666D01*
Y384332D01*
X552662Y384999D02*
Y382333D01*
X553995Y381000D01*
X555328Y382333D01*
Y384999D01*
X515500Y384332D02*
X516166Y384999D01*
X517499D01*
X518166Y384332D01*
Y383666D01*
X517499Y382999D01*
X516833D01*
X517499D01*
X518166Y382333D01*
Y381666D01*
X517499Y381000D01*
X516166D01*
X515500Y381666D01*
X519499Y381000D02*
Y381666D01*
X520165D01*
Y381000D01*
X519499D01*
X522831Y384999D02*
X525497D01*
Y384332D01*
X522831Y381666D01*
Y381000D01*
X526830Y384999D02*
Y382333D01*
X528163Y381000D01*
X529495Y382333D01*
Y384999D01*
D18*
X309100Y313124D02*
X312432Y309791D01*
X309100D02*
X312432Y313124D01*
X309100Y311457D02*
X312432D01*
X310766Y309791D02*
Y313124D01*
D19*
X324500Y286343D02*
D03*
M02*
