G04*
G04 #@! TF.GenerationSoftware,Altium Limited,Altium Designer,23.8.1 (32)*
G04*
G04 Layer_Color=16711935*
%FSLAX25Y25*%
%MOIN*%
G70*
G04*
G04 #@! TF.SameCoordinates,9FE1DFA8-D547-43E1-8EB2-FABD993C7150*
G04*
G04*
G04 #@! TF.FilePolarity,Positive*
G04*
G01*
G75*
%ADD12C,0.00787*%
%ADD14C,0.00394*%
%ADD15C,0.00500*%
%ADD18C,0.00300*%
%ADD156C,0.00000*%
%ADD157C,0.00100*%
D12*
X532150Y235784D02*
G03*
X532150Y235784I-394J0D01*
G01*
X304630Y187787D02*
G03*
X304630Y187787I-394J0D01*
G01*
X499693Y261354D02*
Y282850D01*
X510205D01*
Y261354D02*
Y282850D01*
X499693Y261354D02*
X510205D01*
X578154Y252831D02*
X584846D01*
X578154Y244169D02*
Y252831D01*
Y244169D02*
X584846D01*
Y252831D01*
X570653Y260831D02*
X577347D01*
X570653Y252169D02*
Y260831D01*
Y252169D02*
X577347D01*
Y260831D01*
X560653Y252169D02*
X567346D01*
Y260831D01*
X560653D02*
X567346D01*
X560653Y252169D02*
Y260831D01*
X475209Y247925D02*
Y251075D01*
Y247925D02*
X481311D01*
Y251075D01*
X475209D02*
X481311D01*
X410949Y272575D02*
X417051D01*
Y269425D02*
Y272575D01*
X410949Y269425D02*
X417051D01*
X410949D02*
Y272575D01*
X352925Y177291D02*
X356075D01*
X352925Y171189D02*
Y177291D01*
Y171189D02*
X356075D01*
Y177291D01*
X396437Y164039D02*
Y168961D01*
X388563D02*
X396437D01*
X388563Y164039D02*
Y168961D01*
Y164039D02*
X396437D01*
X517925Y336551D02*
X521075D01*
X517925Y330449D02*
Y336551D01*
Y330449D02*
X521075D01*
Y336551D01*
X474051Y161425D02*
Y164575D01*
X467949D02*
X474051D01*
X467949Y161425D02*
Y164575D01*
Y161425D02*
X474051D01*
X345425Y171189D02*
X348575D01*
Y177291D01*
X345425D02*
X348575D01*
X345425Y171189D02*
Y177291D01*
X396437Y172539D02*
Y177461D01*
X388563D02*
X396437D01*
X388563Y172539D02*
Y177461D01*
Y172539D02*
X396437D01*
X396686Y182539D02*
Y187461D01*
X388812D02*
X396686D01*
X388812Y182539D02*
Y187461D01*
Y182539D02*
X396686D01*
X396937Y191539D02*
Y196461D01*
X389063D02*
X396937D01*
X389063Y191539D02*
Y196461D01*
Y191539D02*
X396937D01*
Y200539D02*
Y205461D01*
X389063D02*
X396937D01*
X389063Y200539D02*
Y205461D01*
Y200539D02*
X396937D01*
X402563Y164039D02*
Y168961D01*
Y164039D02*
X410437D01*
Y168961D01*
X402563D02*
X410437D01*
X402563Y173039D02*
Y177961D01*
Y173039D02*
X410437D01*
Y177961D01*
X402563D02*
X410437D01*
X402563Y182039D02*
Y186961D01*
Y182039D02*
X410437D01*
Y186961D01*
X402563D02*
X410437D01*
X403063Y200539D02*
Y205461D01*
Y200539D02*
X410937D01*
Y205461D01*
X403063D02*
X410937D01*
X402812Y191039D02*
Y195961D01*
Y191039D02*
X410686D01*
Y195961D01*
X402812D02*
X410686D01*
X214496Y128791D02*
X246504D01*
Y105209D02*
Y128791D01*
X214496Y105209D02*
X246504D01*
X214496D02*
Y128791D01*
X549449Y324425D02*
Y327575D01*
Y324425D02*
X555551D01*
Y327575D01*
X549449D02*
X555551D01*
X557791Y286925D02*
Y290075D01*
X551689D02*
X557791D01*
X551689Y286925D02*
Y290075D01*
Y286925D02*
X557791D01*
X305449Y183425D02*
X311551D01*
X305449D02*
Y186575D01*
X311551D01*
Y183425D02*
Y186575D01*
X410653Y275728D02*
Y279272D01*
Y275728D02*
X417346D01*
Y279272D01*
X410653D02*
X417346D01*
X599075Y198815D02*
Y205114D01*
X595925Y198815D02*
X599075D01*
X595925D02*
Y205114D01*
X599075D01*
X313327Y271350D02*
X316673D01*
Y277650D01*
X313327D02*
X316673D01*
X313327Y271350D02*
Y277650D01*
X322425Y248850D02*
Y255150D01*
X325575D01*
Y248850D02*
Y255150D01*
X322425Y248850D02*
X325575D01*
X510004Y195653D02*
Y202346D01*
Y195653D02*
X522996D01*
Y202346D01*
X510004D02*
X522996D01*
X337425Y171449D02*
X340575D01*
Y177551D01*
X337425D02*
X340575D01*
X337425Y171449D02*
Y177551D01*
X258051Y198425D02*
Y201575D01*
X251949D02*
X258051D01*
X251949Y198425D02*
Y201575D01*
Y198425D02*
X258051D01*
X522981Y189312D02*
X526328D01*
X522981Y183013D02*
Y189312D01*
Y183013D02*
X526328D01*
Y189312D01*
X414728Y292347D02*
X418272D01*
X414728Y285653D02*
Y292347D01*
Y285653D02*
X418272D01*
Y292347D01*
X427228Y291347D02*
X430772D01*
X427228Y284653D02*
Y291347D01*
Y284653D02*
X430772D01*
Y291347D01*
X467850Y258791D02*
X474150D01*
X467850D02*
Y270209D01*
X474150D01*
Y258791D02*
Y270209D01*
X470272Y243154D02*
Y249847D01*
X466728Y243154D02*
X470272D01*
X466728D02*
Y249847D01*
X470272D01*
X481284Y264405D02*
Y277594D01*
X491716D01*
Y264405D02*
Y277594D01*
X481284Y264405D02*
X491716D01*
X447449Y258925D02*
X453551D01*
X447449D02*
Y262075D01*
X453551D01*
Y258925D02*
Y262075D01*
X465406Y282716D02*
X478594D01*
Y272284D02*
Y282716D01*
X465406Y272284D02*
X478594D01*
X465406D02*
Y282716D01*
X473811Y287425D02*
Y290575D01*
X467709D02*
X473811D01*
X467709Y287425D02*
Y290575D01*
Y287425D02*
X473811D01*
X343555Y347504D02*
X350445D01*
Y335496D02*
Y347504D01*
X343555Y335496D02*
X350445D01*
X343555D02*
Y347504D01*
X535697Y246445D02*
X555303D01*
Y269555D01*
X535697D02*
X555303D01*
X535697Y246445D02*
Y269555D01*
X610504Y318748D02*
X627000D01*
Y302252D02*
Y318748D01*
X610504Y302252D02*
X627000D01*
X610504D02*
Y318748D01*
X435535Y166035D02*
X452465D01*
Y182965D01*
X435535D02*
X452465D01*
X435535Y166035D02*
Y182965D01*
X458614Y196925D02*
Y200075D01*
X452315D02*
X458614D01*
X452315Y196925D02*
Y200075D01*
Y196925D02*
X458614D01*
X458114Y204925D02*
Y208075D01*
X451815D02*
X458114D01*
X451815Y204925D02*
Y208075D01*
Y204925D02*
X458114D01*
X435685Y200890D02*
X446315D01*
X435685Y187110D02*
Y200890D01*
Y187110D02*
X446315D01*
Y200890D01*
X465925Y205551D02*
X469075D01*
X465925Y199449D02*
Y205551D01*
Y199449D02*
X469075D01*
Y205551D01*
X482539Y197808D02*
X487461D01*
Y205682D01*
X482539D02*
X487461D01*
X482539Y197808D02*
Y205682D01*
X479358Y189917D02*
Y192083D01*
Y189917D02*
X483492D01*
Y192083D01*
X479358D02*
X483492D01*
X474016Y191328D02*
X475984D01*
X474016Y187391D02*
Y191328D01*
Y187391D02*
X475984D01*
Y191328D01*
X472539Y203492D02*
X477461D01*
X472539Y195618D02*
Y203492D01*
Y195618D02*
X477461D01*
Y203492D01*
X470311Y167646D02*
Y173354D01*
Y167646D02*
X478972D01*
Y173354D01*
X470311D02*
X478972D01*
X352539Y313563D02*
X357461D01*
Y321437D01*
X352539D02*
X357461D01*
X352539Y313563D02*
Y321437D01*
X386039Y325563D02*
X390961D01*
Y333437D01*
X386039D02*
X390961D01*
X386039Y325563D02*
Y333437D01*
X363039Y315004D02*
X367961D01*
Y322878D01*
X363039D02*
X367961D01*
X363039Y315004D02*
Y322878D01*
X568425Y330949D02*
X571575D01*
Y337051D01*
X568425D02*
X571575D01*
X568425Y330949D02*
Y337051D01*
X531925Y273689D02*
X535075D01*
Y279791D01*
X531925D02*
X535075D01*
X531925Y273689D02*
Y279791D01*
X585051Y303425D02*
Y306575D01*
X578949D02*
X585051D01*
X578949Y303425D02*
Y306575D01*
Y303425D02*
X585051D01*
X520791D02*
Y306575D01*
X514689D02*
X520791D01*
X514689Y303425D02*
Y306575D01*
Y303425D02*
X520791D01*
X590425Y299209D02*
X593575D01*
Y305311D01*
X590425D02*
X593575D01*
X590425Y299209D02*
Y305311D01*
X530291Y373425D02*
Y376575D01*
X524189D02*
X530291D01*
X524189Y373425D02*
Y376575D01*
Y373425D02*
X530291D01*
X536209D02*
Y376575D01*
Y373425D02*
X542311D01*
Y376575D01*
X536209D02*
X542311D01*
X363563Y221539D02*
Y226461D01*
Y221539D02*
X371437D01*
Y226461D01*
X363563D02*
X371437D01*
X527150Y287350D02*
X529850D01*
Y292350D01*
X527150D02*
X529850D01*
X527150Y287350D02*
Y292350D01*
X559844Y317516D02*
Y319484D01*
Y317516D02*
X563781D01*
Y319484D01*
X559844D02*
X563781D01*
X545532Y317016D02*
Y318984D01*
Y317016D02*
X549469D01*
Y318984D01*
X545532D02*
X549469D01*
X566344Y324016D02*
Y325984D01*
Y324016D02*
X570281D01*
Y325984D01*
X566344D02*
X570281D01*
X567244Y310669D02*
X572756D01*
Y319331D01*
X567244D02*
X572756D01*
X567244Y310669D02*
Y319331D01*
X569531Y304016D02*
Y305984D01*
Y304016D02*
X573468D01*
Y305984D01*
X569531D02*
X573468D01*
X534531Y304016D02*
Y305984D01*
Y304016D02*
X538469D01*
Y305984D01*
X534531D02*
X538469D01*
X525744Y297126D02*
X531256D01*
Y305787D01*
X525744D02*
X531256D01*
X525744Y297126D02*
Y305787D01*
X507291Y303425D02*
Y306575D01*
X501189D02*
X507291D01*
X501189Y303425D02*
Y306575D01*
Y303425D02*
X507291D01*
X447051Y297925D02*
Y301075D01*
X440949D02*
X447051D01*
X440949Y297925D02*
Y301075D01*
Y297925D02*
X447051D01*
X434551D02*
Y301075D01*
X428449D02*
X434551D01*
X428449Y297925D02*
Y301075D01*
Y297925D02*
X434551D01*
X375949Y273425D02*
Y276575D01*
Y273425D02*
X382051D01*
Y276575D01*
X375949D02*
X382051D01*
X642563Y290961D02*
X650437D01*
Y286039D02*
Y290961D01*
X642563Y286039D02*
X650437D01*
X642563D02*
Y290961D01*
X517031Y342819D02*
X520968D01*
Y349905D01*
X517031D02*
X520968D01*
X517031Y342819D02*
Y349905D01*
X529937Y338736D02*
Y350744D01*
Y338736D02*
X536827D01*
Y350744D01*
X529937D02*
X536827D01*
X544130Y335055D02*
X547870D01*
Y341945D01*
X544130D02*
X547870D01*
X544130Y335055D02*
Y341945D01*
X330532Y339457D02*
X334469D01*
Y346543D01*
X330532D02*
X334469D01*
X330532Y339457D02*
Y346543D01*
X366445Y337630D02*
Y341370D01*
X359555D02*
X366445D01*
X359555Y337630D02*
Y341370D01*
Y337630D02*
X366445D01*
X291728Y275153D02*
X295272D01*
Y281846D01*
X291728D02*
X295272D01*
X291728Y275153D02*
Y281846D01*
X415728Y311846D02*
X419272D01*
X415728Y305153D02*
Y311846D01*
Y305153D02*
X419272D01*
Y311846D01*
X285650Y225425D02*
Y228575D01*
X279350D02*
X285650D01*
X279350Y225425D02*
Y228575D01*
Y225425D02*
X285650D01*
X354425Y194671D02*
X357575D01*
X354425Y188372D02*
Y194671D01*
Y188372D02*
X357575D01*
Y194671D01*
X289150Y239925D02*
Y243075D01*
X282850D02*
X289150D01*
X282850Y239925D02*
Y243075D01*
Y239925D02*
X289150D01*
X308425Y248350D02*
X311575D01*
Y254650D01*
X308425D02*
X311575D01*
X308425Y248350D02*
Y254650D01*
X315425Y248850D02*
X318575D01*
Y255150D01*
X315425D02*
X318575D01*
X315425Y248850D02*
Y255150D01*
X361347Y206728D02*
Y210272D01*
X354654D02*
X361347D01*
X354654Y206728D02*
Y210272D01*
Y206728D02*
X361347D01*
X353850Y214425D02*
Y217575D01*
Y214425D02*
X360150D01*
Y217575D01*
X353850D02*
X360150D01*
X285228Y275153D02*
X288772D01*
Y281846D01*
X285228D02*
X288772D01*
X285228Y275153D02*
Y281846D01*
X350372Y226925D02*
Y230075D01*
Y226925D02*
X356671D01*
Y230075D01*
X350372D02*
X356671D01*
X301425Y248350D02*
X304575D01*
Y254650D01*
X301425D02*
X304575D01*
X301425Y248350D02*
Y254650D01*
X426949Y416768D02*
X455295D01*
X453878Y416512D02*
Y454504D01*
X428366D02*
X453878D01*
X428366Y416512D02*
Y454504D01*
Y416512D02*
X453878D01*
X492327Y416980D02*
X520673D01*
X519256Y416724D02*
Y454716D01*
X493744D02*
X519256D01*
X493744Y416724D02*
Y454716D01*
Y416724D02*
X519256D01*
X700480Y358327D02*
Y386673D01*
X700224Y359744D02*
X738216D01*
Y385256D01*
X700224D02*
X738216D01*
X700224Y359744D02*
Y385256D01*
X577827Y416980D02*
X606173D01*
X604756Y416724D02*
Y454716D01*
X579244D02*
X604756D01*
X579244Y416724D02*
Y454716D01*
Y416724D02*
X604756D01*
X700768Y238205D02*
Y266551D01*
X700512Y239622D02*
X738504D01*
Y265134D01*
X700512D02*
X738504D01*
X700512Y239622D02*
Y265134D01*
X479539Y324504D02*
X484461D01*
Y332378D01*
X479539D02*
X484461D01*
X479539Y324504D02*
Y332378D01*
X640539Y314437D02*
X645461D01*
X640539Y306563D02*
Y314437D01*
Y306563D02*
X645461D01*
Y314437D01*
X649776Y333039D02*
Y337961D01*
X641902D02*
X649776D01*
X641902Y333039D02*
Y337961D01*
Y333039D02*
X649776D01*
X501016Y166157D02*
Y178362D01*
Y166157D02*
X513221D01*
Y178362D01*
X501016D02*
X513221D01*
X277095Y299425D02*
Y302575D01*
Y299425D02*
X283394D01*
Y302575D01*
X277095D02*
X283394D01*
X495228Y166898D02*
X498772D01*
Y173591D01*
X495228D02*
X498772D01*
X495228Y166898D02*
Y173591D01*
X516425Y176128D02*
X519575D01*
X516425Y169829D02*
Y176128D01*
Y169829D02*
X519575D01*
Y176128D01*
X480925Y312350D02*
X484075D01*
Y318650D01*
X480925D02*
X484075D01*
X480925Y312350D02*
Y318650D01*
X536551Y363925D02*
Y367075D01*
X530449D02*
X536551D01*
X530449Y363925D02*
Y367075D01*
Y363925D02*
X536551D01*
X586327Y199659D02*
Y205761D01*
X589673D01*
Y199659D02*
Y205761D01*
X586327Y199659D02*
X589673D01*
X549315Y187610D02*
Y201390D01*
X538685Y187610D02*
X549315D01*
X538685D02*
Y201390D01*
X549315D01*
X556575Y191850D02*
Y198150D01*
X553425Y191850D02*
X556575D01*
X553425D02*
Y198150D01*
X556575D01*
X350551Y351425D02*
Y354575D01*
X344449D02*
X350551D01*
X344449Y351425D02*
Y354575D01*
Y351425D02*
X350551D01*
X581870Y198705D02*
Y205201D01*
X578130Y198705D02*
X581870D01*
X578130D02*
Y205201D01*
X581870D01*
X568425Y204551D02*
X571575D01*
X568425Y198449D02*
Y204551D01*
Y198449D02*
X571575D01*
Y204551D01*
X295075Y288850D02*
Y295150D01*
X291925Y288850D02*
X295075D01*
X291925D02*
Y295150D01*
X295075D01*
X541535Y166370D02*
Y183299D01*
X558465D01*
Y166370D02*
Y183299D01*
X541535Y166370D02*
X558465D01*
X576528Y165146D02*
Y170854D01*
Y165146D02*
X585189D01*
Y170854D01*
X576528D02*
X585189D01*
X585933Y190417D02*
Y192583D01*
Y190417D02*
X590067D01*
Y192583D01*
X585933D02*
X590067D01*
X580516Y191328D02*
X582484D01*
X580516Y187391D02*
Y191328D01*
Y187391D02*
X582484D01*
Y191328D01*
D14*
X385921Y318311D02*
G03*
X385921Y318311I-1969J0D01*
G01*
X460059Y182929D02*
G03*
X460059Y182929I-1969J0D01*
G01*
X566716Y182846D02*
G03*
X566716Y182846I-1969J0D01*
G01*
X360739Y280670D02*
G03*
X360739Y280670I-787J0D01*
G01*
X380410Y281146D02*
X401590D01*
X380410Y321854D02*
X401590D01*
Y281146D02*
Y321854D01*
X380410Y281146D02*
Y321854D01*
X543130Y234055D02*
X546870D01*
X543130Y240945D02*
X546870D01*
X543130Y234055D02*
Y240945D01*
X546870Y234055D02*
Y240945D01*
X383740Y375508D02*
Y401492D01*
X411260Y375508D02*
Y401492D01*
X383740Y375508D02*
X411260D01*
X383740Y401492D02*
X411260D01*
X548087Y309189D02*
X550095Y311197D01*
X548087Y299386D02*
Y311197D01*
Y299386D02*
X559898D01*
Y311197D01*
X548087D02*
X559898D01*
X557516Y240370D02*
X564405D01*
X557516Y236630D02*
X564405D01*
X557516D02*
Y240370D01*
X564405Y236630D02*
Y240370D01*
X226016Y215748D02*
X236016D01*
Y194252D02*
Y215748D01*
X226016Y194252D02*
X236016D01*
X226016D02*
Y215748D01*
X225016Y184748D02*
X235016D01*
Y163252D02*
Y184748D01*
X225016Y163252D02*
X235016D01*
X225016D02*
Y184748D01*
Y160748D02*
X235016D01*
Y139252D02*
Y160748D01*
X225016Y139252D02*
X235016D01*
X225016D02*
Y160748D01*
X251169Y176146D02*
Y181854D01*
X259831Y176146D02*
Y181854D01*
X251169D02*
X259831D01*
X251169Y176146D02*
X259831D01*
X266610Y170055D02*
Y176945D01*
X270390Y170055D02*
Y176945D01*
X266610Y170055D02*
X270390D01*
X266610Y176945D02*
X270390D01*
X251205Y164646D02*
Y170354D01*
X259866Y164646D02*
Y170354D01*
X251205D02*
X259866D01*
X251205Y164646D02*
X259866D01*
X250705Y151646D02*
Y157354D01*
X259366Y151646D02*
Y157354D01*
X250705D02*
X259366D01*
X250705Y151646D02*
X259366D01*
X454547Y179386D02*
X470295D01*
X454547Y191197D02*
X470295D01*
X454547Y179386D02*
Y191197D01*
X470295Y179386D02*
Y191197D01*
X452957Y161807D02*
X460043D01*
X452957Y175193D02*
X460043D01*
X452957Y161807D02*
Y175193D01*
X460043Y161807D02*
Y175193D01*
X479795Y174917D02*
Y177083D01*
X475661Y174917D02*
Y177083D01*
Y174917D02*
X479795D01*
X475661Y177083D02*
X479795D01*
X478795Y181417D02*
Y183583D01*
X474661Y181417D02*
Y183583D01*
Y181417D02*
X478795D01*
X474661Y183583D02*
X478795D01*
X587370Y236055D02*
Y242945D01*
X583630Y236055D02*
Y242945D01*
X587370D01*
X583630Y236055D02*
X587370D01*
X566583Y301398D02*
Y305532D01*
X564417Y301398D02*
Y305532D01*
X566583D01*
X564417Y301398D02*
X566583D01*
X543583Y301433D02*
Y305567D01*
X541417Y301433D02*
Y305567D01*
X543583D01*
X541417Y301433D02*
X543583D01*
X398594Y265370D02*
X405484D01*
X398594Y261630D02*
X405484D01*
X398594D02*
Y265370D01*
X405484Y261630D02*
Y265370D01*
X410653D02*
X417346D01*
X410653Y261630D02*
X417346D01*
X410653D02*
Y265370D01*
X417346Y261630D02*
Y265370D01*
X410653Y258870D02*
X417346D01*
X410653Y255130D02*
X417346D01*
X410653D02*
Y258870D01*
X417346Y255130D02*
Y258870D01*
X354555Y203870D02*
X361445D01*
X354555Y200130D02*
X361445D01*
X354555D02*
Y203870D01*
X361445Y200130D02*
Y203870D01*
X279055Y221870D02*
X285945D01*
X279055Y218130D02*
X285945D01*
X279055D02*
Y221870D01*
X285945Y218130D02*
Y221870D01*
X267110Y145055D02*
Y151945D01*
X270890Y145055D02*
Y151945D01*
X267110Y145055D02*
X270890D01*
X267110Y151945D02*
X270890D01*
X251169Y140646D02*
Y146354D01*
X259831Y140646D02*
Y146354D01*
X251169D02*
X259831D01*
X251169Y140646D02*
X259831D01*
X482055Y303130D02*
Y306870D01*
X488945Y303130D02*
Y306870D01*
X482055D02*
X488945D01*
X482055Y303130D02*
X488945D01*
X301130Y318445D02*
X304870D01*
X301130Y311555D02*
X304870D01*
Y318445D01*
X301130Y311555D02*
Y318445D01*
X397870Y270055D02*
Y276945D01*
X394130Y270055D02*
Y276945D01*
X397870D01*
X394130Y270055D02*
X397870D01*
X398870Y326055D02*
Y332945D01*
X395130Y326055D02*
Y332945D01*
X398870D01*
X395130Y326055D02*
X398870D01*
X405870Y325898D02*
Y332787D01*
X402130Y325898D02*
Y332787D01*
X405870D01*
X402130Y325898D02*
X405870D01*
X468409Y320370D02*
X475299D01*
X468409Y316630D02*
X475299D01*
X468409D02*
Y320370D01*
X475299Y316630D02*
Y320370D01*
X453555Y298130D02*
X460445D01*
X453555Y301870D02*
X460445D01*
Y298130D02*
Y301870D01*
X453555Y298130D02*
Y301870D01*
X391370Y270055D02*
Y276945D01*
X387630Y270055D02*
Y276945D01*
X391370D01*
X387630Y270055D02*
X391370D01*
X561205Y179303D02*
X576953D01*
X561205Y191114D02*
X576953D01*
X561205Y179303D02*
Y191114D01*
X576953Y179303D02*
Y191114D01*
X352079Y278701D02*
Y291299D01*
X361921D01*
Y278701D02*
Y291299D01*
X352079Y278701D02*
X361921D01*
X585193Y181543D02*
Y183709D01*
X581059Y181543D02*
Y183709D01*
Y181543D02*
X585193D01*
X581059Y183709D02*
X585193D01*
X581067Y173417D02*
Y175583D01*
X576933Y173417D02*
Y175583D01*
Y173417D02*
X581067D01*
X576933Y175583D02*
X581067D01*
X559457Y158307D02*
X566543D01*
X559457Y171693D02*
X566543D01*
X559457Y158307D02*
Y171693D01*
X566543Y158307D02*
Y171693D01*
D15*
X534535Y238138D02*
Y267862D01*
X516465Y238138D02*
X534535D01*
X516465D02*
Y267862D01*
X534535D01*
X338685Y197394D02*
Y236764D01*
X299315Y197394D02*
Y236764D01*
X338685D01*
X299315Y197394D02*
X338685D01*
D18*
X314150Y308615D02*
X317482Y305283D01*
X314150D02*
X317482Y308615D01*
X314150Y306949D02*
X317482D01*
X315816Y305283D02*
Y308615D01*
D156*
X318800Y309750D02*
G03*
X321200Y309750I1200J0D01*
G01*
D157*
X313900Y307808D02*
Y308908D01*
X309950D02*
X313900D01*
X309950Y307808D02*
Y308908D01*
Y307808D02*
X313900D01*
Y305840D02*
Y306940D01*
X309950D02*
X313900D01*
X309950Y305840D02*
Y306940D01*
Y305840D02*
X313900D01*
Y303871D02*
Y304971D01*
X309950D02*
X313900D01*
X309950Y303871D02*
Y304971D01*
Y303871D02*
X313900D01*
Y301903D02*
Y303003D01*
X309950D02*
X313900D01*
X309950Y301903D02*
Y303003D01*
Y301903D02*
X313900D01*
Y299934D02*
Y301034D01*
X309950D02*
X313900D01*
X309950Y299934D02*
Y301034D01*
Y299934D02*
X313900D01*
Y297966D02*
Y299066D01*
X309950D02*
X313900D01*
X309950Y297966D02*
Y299066D01*
Y297966D02*
X313900D01*
Y295997D02*
Y297097D01*
X309950D02*
X313900D01*
X309950Y295997D02*
Y297097D01*
Y295997D02*
X313900D01*
Y294029D02*
Y295129D01*
X309950D02*
X313900D01*
X309950Y294029D02*
Y295129D01*
Y294029D02*
X313900D01*
Y292060D02*
Y293160D01*
X309950D02*
X313900D01*
X309950Y292060D02*
Y293160D01*
Y292060D02*
X313900D01*
Y290092D02*
Y291192D01*
X309950D02*
X313900D01*
X309950Y290092D02*
Y291192D01*
Y290092D02*
X313900D01*
X326100D02*
Y291192D01*
Y290092D02*
X330050D01*
Y291192D01*
X326100D02*
X330050D01*
X326100Y292060D02*
Y293160D01*
Y292060D02*
X330050D01*
Y293160D01*
X326100D02*
X330050D01*
X326100Y294029D02*
Y295129D01*
Y294029D02*
X330050D01*
Y295129D01*
X326100D02*
X330050D01*
X326100Y295997D02*
Y297097D01*
Y295997D02*
X330050D01*
Y297097D01*
X326100D02*
X330050D01*
X326100Y297966D02*
Y299066D01*
Y297966D02*
X330050D01*
Y299066D01*
X326100D02*
X330050D01*
X326100Y299934D02*
Y301034D01*
Y299934D02*
X330050D01*
Y301034D01*
X326100D02*
X330050D01*
X326100Y301903D02*
Y303003D01*
Y301903D02*
X330050D01*
Y303003D01*
X326100D02*
X330050D01*
X326100Y303871D02*
Y304971D01*
Y303871D02*
X330050D01*
Y304971D01*
X326100D02*
X330050D01*
X326100Y305840D02*
Y306940D01*
Y305840D02*
X330050D01*
Y306940D01*
X326100D02*
X330050D01*
X326100Y307808D02*
Y308908D01*
Y307808D02*
X330050D01*
Y308908D01*
X326100D02*
X330050D01*
X313900Y289250D02*
X326100D01*
Y309750D01*
X313900D02*
X326100D01*
X313900Y289250D02*
Y309750D01*
M02*
