G04*
G04 #@! TF.GenerationSoftware,Altium Limited,Altium Designer,23.8.1 (32)*
G04*
G04 Layer_Physical_Order=3*
G04 Layer_Color=16440176*
%FSLAX25Y25*%
%MOIN*%
G70*
G04*
G04 #@! TF.SameCoordinates,93D85A25-96AA-4E13-9423-ABE69869F54E*
G04*
G04*
G04 #@! TF.FilePolarity,Positive*
G04*
G01*
G75*
%ADD140C,0.05984*%
%ADD149C,0.02000*%
G36*
X702000Y98500D02*
X200000D01*
Y417000D01*
X702000D01*
Y98500D01*
D02*
G37*
%LPC*%
G36*
X603898Y416000D02*
X603102D01*
X602367Y415695D01*
X601804Y415133D01*
X601500Y414398D01*
Y413602D01*
X601804Y412867D01*
X602095Y412577D01*
X602328Y412250D01*
X602095Y411923D01*
X601804Y411633D01*
X601500Y410898D01*
Y410102D01*
X601804Y409367D01*
X602095Y409077D01*
X602328Y408750D01*
X602095Y408423D01*
X601804Y408133D01*
X601500Y407398D01*
Y406602D01*
X601804Y405867D01*
X602095Y405577D01*
X602328Y405250D01*
X602095Y404923D01*
X601804Y404633D01*
X601500Y403898D01*
Y403102D01*
X601804Y402367D01*
X602367Y401804D01*
X603102Y401500D01*
X603898D01*
X604633Y401804D01*
X605196Y402367D01*
X605500Y403102D01*
Y403898D01*
X605196Y404633D01*
X604905Y404923D01*
X604672Y405250D01*
X604905Y405577D01*
X605196Y405867D01*
X605500Y406602D01*
Y407398D01*
X605196Y408133D01*
X604905Y408423D01*
X604672Y408750D01*
X604905Y409077D01*
X605196Y409367D01*
X605500Y410102D01*
Y410898D01*
X605196Y411633D01*
X604905Y411923D01*
X604672Y412250D01*
X604905Y412577D01*
X605196Y412867D01*
X605500Y413602D01*
Y414398D01*
X605196Y415133D01*
X604633Y415695D01*
X603898Y416000D01*
D02*
G37*
G36*
X517898D02*
X517102D01*
X516367Y415695D01*
X515804Y415133D01*
X515500Y414398D01*
Y413602D01*
X515804Y412867D01*
X516095Y412577D01*
X516328Y412250D01*
X516095Y411923D01*
X515804Y411633D01*
X515500Y410898D01*
Y410102D01*
X515804Y409367D01*
X516095Y409077D01*
X516328Y408750D01*
X516095Y408423D01*
X515804Y408133D01*
X515500Y407398D01*
Y406602D01*
X515804Y405867D01*
X516095Y405577D01*
X516328Y405250D01*
X516095Y404923D01*
X515804Y404633D01*
X515500Y403898D01*
Y403102D01*
X515804Y402367D01*
X516367Y401804D01*
X517102Y401500D01*
X517898D01*
X518633Y401804D01*
X519196Y402367D01*
X519500Y403102D01*
Y403898D01*
X519196Y404633D01*
X518905Y404923D01*
X518672Y405250D01*
X518905Y405577D01*
X519196Y405867D01*
X519500Y406602D01*
Y407398D01*
X519196Y408133D01*
X518905Y408423D01*
X518672Y408750D01*
X518905Y409077D01*
X519196Y409367D01*
X519500Y410102D01*
Y410898D01*
X519196Y411633D01*
X518905Y411923D01*
X518672Y412250D01*
X518905Y412577D01*
X519196Y412867D01*
X519500Y413602D01*
Y414398D01*
X519196Y415133D01*
X518633Y415695D01*
X517898Y416000D01*
D02*
G37*
G36*
X581398Y415500D02*
X580602D01*
X579867Y415196D01*
X579305Y414633D01*
X579000Y413898D01*
Y413102D01*
X579305Y412367D01*
X579595Y412077D01*
X579828Y411750D01*
X579595Y411423D01*
X579305Y411133D01*
X579000Y410398D01*
Y409602D01*
X579305Y408867D01*
X579595Y408577D01*
X579828Y408250D01*
X579595Y407923D01*
X579305Y407633D01*
X579000Y406898D01*
Y406102D01*
X579305Y405367D01*
X579595Y405077D01*
X579828Y404750D01*
X579595Y404423D01*
X579305Y404133D01*
X579000Y403398D01*
Y402602D01*
X579305Y401867D01*
X579867Y401304D01*
X580602Y401000D01*
X581398D01*
X582133Y401304D01*
X582695Y401867D01*
X583000Y402602D01*
Y403398D01*
X582695Y404133D01*
X582405Y404423D01*
X582172Y404750D01*
X582405Y405077D01*
X582695Y405367D01*
X583000Y406102D01*
Y406898D01*
X582695Y407633D01*
X582405Y407923D01*
X582172Y408250D01*
X582405Y408577D01*
X582695Y408867D01*
X583000Y409602D01*
Y410398D01*
X582695Y411133D01*
X582405Y411423D01*
X582172Y411750D01*
X582405Y412077D01*
X582695Y412367D01*
X583000Y413102D01*
Y413898D01*
X582695Y414633D01*
X582133Y415196D01*
X581398Y415500D01*
D02*
G37*
G36*
X495898D02*
X495102D01*
X494367Y415196D01*
X493805Y414633D01*
X493500Y413898D01*
Y413102D01*
X493805Y412367D01*
X494095Y412077D01*
X494328Y411750D01*
X494095Y411423D01*
X493805Y411133D01*
X493500Y410398D01*
Y409602D01*
X493805Y408867D01*
X494095Y408577D01*
X494328Y408250D01*
X494095Y407923D01*
X493805Y407633D01*
X493500Y406898D01*
Y406102D01*
X493805Y405367D01*
X494095Y405077D01*
X494328Y404750D01*
X494095Y404423D01*
X493805Y404133D01*
X493500Y403398D01*
Y402602D01*
X493805Y401867D01*
X494367Y401304D01*
X495102Y401000D01*
X495898D01*
X496633Y401304D01*
X497195Y401867D01*
X497500Y402602D01*
Y403398D01*
X497195Y404133D01*
X496905Y404423D01*
X496672Y404750D01*
X496905Y405077D01*
X497195Y405367D01*
X497500Y406102D01*
Y406898D01*
X497195Y407633D01*
X496905Y407923D01*
X496672Y408250D01*
X496905Y408577D01*
X497195Y408867D01*
X497500Y409602D01*
Y410398D01*
X497195Y411133D01*
X496905Y411423D01*
X496672Y411750D01*
X496905Y412077D01*
X497195Y412367D01*
X497500Y413102D01*
Y413898D01*
X497195Y414633D01*
X496633Y415196D01*
X495898Y415500D01*
D02*
G37*
G36*
X452898Y416000D02*
X452102D01*
X451367Y415695D01*
X450805Y415133D01*
X450500Y414398D01*
Y413602D01*
X450805Y412867D01*
X451367Y412304D01*
X451499Y412250D01*
Y411750D01*
X451367Y411695D01*
X450805Y411133D01*
X450500Y410398D01*
Y409602D01*
X450805Y408867D01*
X451095Y408577D01*
X451328Y408250D01*
X451095Y407923D01*
X450805Y407633D01*
X450500Y406898D01*
Y406102D01*
X450805Y405367D01*
X451095Y405077D01*
X451328Y404750D01*
X451095Y404423D01*
X450805Y404133D01*
X450500Y403398D01*
Y402602D01*
X450805Y401867D01*
X451367Y401304D01*
X452102Y401000D01*
X452898D01*
X453633Y401304D01*
X454195Y401867D01*
X454500Y402602D01*
Y403398D01*
X454195Y404133D01*
X453905Y404423D01*
X453672Y404750D01*
X453905Y405077D01*
X454195Y405367D01*
X454500Y406102D01*
Y406898D01*
X454195Y407633D01*
X453905Y407923D01*
X453672Y408250D01*
X453905Y408577D01*
X454195Y408867D01*
X454500Y409602D01*
Y410398D01*
X454195Y411133D01*
X453633Y411695D01*
X453501Y411750D01*
Y412250D01*
X453633Y412304D01*
X454195Y412867D01*
X454500Y413602D01*
Y414398D01*
X454195Y415133D01*
X453633Y415695D01*
X452898Y416000D01*
D02*
G37*
G36*
X397456Y407461D02*
X396544D01*
X395664Y407225D01*
X394875Y406769D01*
X394231Y406125D01*
X393775Y405336D01*
X393539Y404456D01*
Y403544D01*
X393775Y402664D01*
X394231Y401875D01*
X394875Y401231D01*
X395664Y400775D01*
X396544Y400539D01*
X397456D01*
X398336Y400775D01*
X399125Y401231D01*
X399769Y401875D01*
X400225Y402664D01*
X400461Y403544D01*
Y404456D01*
X400225Y405336D01*
X399769Y406125D01*
X399125Y406769D01*
X398336Y407225D01*
X397456Y407461D01*
D02*
G37*
G36*
X430398Y415000D02*
X429602D01*
X428867Y414696D01*
X428304Y414133D01*
X428000Y413398D01*
Y412602D01*
X428304Y411867D01*
X428595Y411577D01*
X428828Y411250D01*
X428595Y410923D01*
X428304Y410633D01*
X428000Y409898D01*
Y409102D01*
X428304Y408367D01*
X428595Y408077D01*
X428828Y407750D01*
X428595Y407423D01*
X428304Y407133D01*
X428000Y406398D01*
Y405602D01*
X428304Y404867D01*
X428595Y404577D01*
X428828Y404250D01*
X428595Y403923D01*
X428304Y403633D01*
X428000Y402898D01*
Y402102D01*
X428304Y401367D01*
X428867Y400805D01*
X429602Y400500D01*
X430398D01*
X431133Y400805D01*
X431696Y401367D01*
X432000Y402102D01*
Y402898D01*
X431696Y403633D01*
X431405Y403923D01*
X431172Y404250D01*
X431405Y404577D01*
X431696Y404867D01*
X432000Y405602D01*
Y406398D01*
X431696Y407133D01*
X431405Y407423D01*
X431172Y407750D01*
X431405Y408077D01*
X431696Y408367D01*
X432000Y409102D01*
Y409898D01*
X431696Y410633D01*
X431405Y410923D01*
X431172Y411250D01*
X431405Y411577D01*
X431696Y411867D01*
X432000Y412602D01*
Y413398D01*
X431696Y414133D01*
X431133Y414696D01*
X430398Y415000D01*
D02*
G37*
G36*
X387456Y397461D02*
X386544D01*
X385664Y397225D01*
X384875Y396769D01*
X384231Y396125D01*
X383775Y395336D01*
X383539Y394456D01*
Y393544D01*
X383775Y392664D01*
X384231Y391875D01*
X384875Y391231D01*
X385664Y390775D01*
X386544Y390539D01*
X387456D01*
X388336Y390775D01*
X389125Y391231D01*
X389769Y391875D01*
X390225Y392664D01*
X390461Y393544D01*
Y394456D01*
X390225Y395336D01*
X389769Y396125D01*
X389125Y396769D01*
X388336Y397225D01*
X387456Y397461D01*
D02*
G37*
G36*
X586898Y400500D02*
X586102D01*
X585367Y400196D01*
X584804Y399633D01*
X584500Y398898D01*
Y398102D01*
X584804Y397367D01*
X585367Y396804D01*
X585499Y396750D01*
Y396250D01*
X585367Y396196D01*
X584804Y395633D01*
X584500Y394898D01*
Y394102D01*
X584804Y393367D01*
X585367Y392805D01*
X585499Y392750D01*
Y392250D01*
X585367Y392196D01*
X584804Y391633D01*
X584500Y390898D01*
Y390102D01*
X584804Y389367D01*
X585367Y388805D01*
X586102Y388500D01*
X586898D01*
X587633Y388805D01*
X588196Y389367D01*
X588500Y390102D01*
Y390898D01*
X588196Y391633D01*
X587633Y392196D01*
X587501Y392250D01*
Y392750D01*
X587633Y392805D01*
X588196Y393367D01*
X588500Y394102D01*
Y394898D01*
X588196Y395633D01*
X587633Y396196D01*
X587501Y396250D01*
Y396750D01*
X587633Y396804D01*
X588196Y397367D01*
X588500Y398102D01*
Y398898D01*
X588196Y399633D01*
X587633Y400196D01*
X586898Y400500D01*
D02*
G37*
G36*
X597398Y400000D02*
X596602D01*
X595867Y399695D01*
X595304Y399133D01*
X595000Y398398D01*
Y397602D01*
X595304Y396867D01*
X595867Y396304D01*
X595999Y396250D01*
Y395750D01*
X595867Y395695D01*
X595304Y395133D01*
X595000Y394398D01*
Y393602D01*
X595304Y392867D01*
X595867Y392304D01*
X595999Y392250D01*
Y391750D01*
X595867Y391695D01*
X595304Y391133D01*
X595000Y390398D01*
Y389602D01*
X595304Y388867D01*
X595867Y388304D01*
X596602Y388000D01*
X597398D01*
X598133Y388304D01*
X598696Y388867D01*
X599000Y389602D01*
Y390398D01*
X598696Y391133D01*
X598133Y391695D01*
X598001Y391750D01*
Y392250D01*
X598133Y392304D01*
X598696Y392867D01*
X599000Y393602D01*
Y394398D01*
X598696Y395133D01*
X598133Y395695D01*
X598001Y395750D01*
Y396250D01*
X598133Y396304D01*
X598696Y396867D01*
X599000Y397602D01*
Y398398D01*
X598696Y399133D01*
X598133Y399695D01*
X597398Y400000D01*
D02*
G37*
G36*
X697898Y385500D02*
X697102D01*
X696367Y385195D01*
X696077Y384905D01*
X695750Y384672D01*
X695423Y384905D01*
X695133Y385195D01*
X694398Y385500D01*
X693602D01*
X692867Y385195D01*
X692577Y384905D01*
X692250Y384672D01*
X691923Y384905D01*
X691633Y385195D01*
X690898Y385500D01*
X690102D01*
X689367Y385195D01*
X689077Y384905D01*
X688750Y384672D01*
X688423Y384905D01*
X688133Y385195D01*
X687398Y385500D01*
X686602D01*
X685867Y385195D01*
X685304Y384633D01*
X685000Y383898D01*
Y383102D01*
X685304Y382367D01*
X685867Y381804D01*
X686602Y381500D01*
X687398D01*
X688133Y381804D01*
X688423Y382095D01*
X688750Y382328D01*
X689077Y382095D01*
X689367Y381804D01*
X690102Y381500D01*
X690898D01*
X691633Y381804D01*
X691923Y382095D01*
X692250Y382328D01*
X692577Y382095D01*
X692867Y381804D01*
X693602Y381500D01*
X694398D01*
X695133Y381804D01*
X695423Y382095D01*
X695750Y382328D01*
X696077Y382095D01*
X696367Y381804D01*
X697102Y381500D01*
X697898D01*
X698633Y381804D01*
X699195Y382367D01*
X699500Y383102D01*
Y383898D01*
X699195Y384633D01*
X698633Y385195D01*
X697898Y385500D01*
D02*
G37*
G36*
X586898Y388000D02*
X586102D01*
X585367Y387696D01*
X584804Y387133D01*
X584500Y386398D01*
Y385602D01*
X584804Y384867D01*
X585367Y384304D01*
X586102Y384000D01*
X586898D01*
X587633Y384304D01*
X588196Y384867D01*
X588500Y385602D01*
Y386398D01*
X588196Y387133D01*
X587633Y387696D01*
X586898Y388000D01*
D02*
G37*
G36*
X597398Y387500D02*
X596602D01*
X595867Y387195D01*
X595304Y386633D01*
X595000Y385898D01*
Y385102D01*
X595304Y384367D01*
X595867Y383804D01*
X596602Y383500D01*
X597398D01*
X598133Y383804D01*
X598696Y384367D01*
X599000Y385102D01*
Y385898D01*
X598696Y386633D01*
X598133Y387195D01*
X597398Y387500D01*
D02*
G37*
G36*
X220259Y415000D02*
X217741D01*
X215253Y414606D01*
X212858Y413828D01*
X210614Y412684D01*
X208577Y411204D01*
X206796Y409423D01*
X205316Y407386D01*
X204172Y405142D01*
X203394Y402747D01*
X203000Y400259D01*
Y397741D01*
X203394Y395253D01*
X204172Y392858D01*
X205316Y390614D01*
X206796Y388577D01*
X208577Y386796D01*
X210614Y385316D01*
X212858Y384172D01*
X215253Y383394D01*
X217741Y383000D01*
X220259D01*
X222747Y383394D01*
X225142Y384172D01*
X227386Y385316D01*
X229423Y386796D01*
X231204Y388577D01*
X232684Y390614D01*
X233828Y392858D01*
X234606Y395253D01*
X235000Y397741D01*
Y400259D01*
X234606Y402747D01*
X233828Y405142D01*
X232684Y407386D01*
X231204Y409423D01*
X229423Y411204D01*
X227386Y412684D01*
X225142Y413828D01*
X222747Y414606D01*
X220259Y415000D01*
D02*
G37*
G36*
X400461Y387461D02*
X393539D01*
Y380539D01*
X400461D01*
Y387461D01*
D02*
G37*
G36*
X356526Y381142D02*
X355474D01*
X354459Y380870D01*
X353549Y380344D01*
X352805Y379601D01*
X352280Y378690D01*
X352008Y377675D01*
Y376624D01*
X352280Y375609D01*
X352805Y374698D01*
X353549Y373955D01*
X354459Y373429D01*
X355474Y373157D01*
X356526D01*
X357541Y373429D01*
X358451Y373955D01*
X359194Y374698D01*
X359720Y375609D01*
X359992Y376624D01*
Y377675D01*
X359720Y378690D01*
X359194Y379601D01*
X358451Y380344D01*
X357541Y380870D01*
X356526Y381142D01*
D02*
G37*
G36*
X346526D02*
X345474D01*
X344459Y380870D01*
X343549Y380344D01*
X342806Y379601D01*
X342280Y378690D01*
X342008Y377675D01*
Y376624D01*
X342280Y375609D01*
X342806Y374698D01*
X343549Y373955D01*
X344459Y373429D01*
X345474Y373157D01*
X346526D01*
X347541Y373429D01*
X348451Y373955D01*
X349195Y374698D01*
X349720Y375609D01*
X349992Y376624D01*
Y377675D01*
X349720Y378690D01*
X349195Y379601D01*
X348451Y380344D01*
X347541Y380870D01*
X346526Y381142D01*
D02*
G37*
G36*
X336526D02*
X335474D01*
X334459Y380870D01*
X333549Y380344D01*
X332805Y379601D01*
X332280Y378690D01*
X332008Y377675D01*
Y376624D01*
X332280Y375609D01*
X332805Y374698D01*
X333549Y373955D01*
X334459Y373429D01*
X335474Y373157D01*
X336526D01*
X337541Y373429D01*
X338451Y373955D01*
X339194Y374698D01*
X339720Y375609D01*
X339992Y376624D01*
Y377675D01*
X339720Y378690D01*
X339194Y379601D01*
X338451Y380344D01*
X337541Y380870D01*
X336526Y381142D01*
D02*
G37*
G36*
X326526D02*
X325474D01*
X324459Y380870D01*
X323549Y380344D01*
X322806Y379601D01*
X322280Y378690D01*
X322008Y377675D01*
Y376624D01*
X322280Y375609D01*
X322806Y374698D01*
X323549Y373955D01*
X324459Y373429D01*
X325474Y373157D01*
X326526D01*
X327541Y373429D01*
X328451Y373955D01*
X329194Y374698D01*
X329720Y375609D01*
X329992Y376624D01*
Y377675D01*
X329720Y378690D01*
X329194Y379601D01*
X328451Y380344D01*
X327541Y380870D01*
X326526Y381142D01*
D02*
G37*
G36*
X316526D02*
X315474D01*
X314459Y380870D01*
X313549Y380344D01*
X312806Y379601D01*
X312280Y378690D01*
X312008Y377675D01*
Y376624D01*
X312280Y375609D01*
X312806Y374698D01*
X313549Y373955D01*
X314459Y373429D01*
X315474Y373157D01*
X316526D01*
X317541Y373429D01*
X318451Y373955D01*
X319195Y374698D01*
X319720Y375609D01*
X319992Y376624D01*
Y377675D01*
X319720Y378690D01*
X319195Y379601D01*
X318451Y380344D01*
X317541Y380870D01*
X316526Y381142D01*
D02*
G37*
G36*
X306526D02*
X305474D01*
X304459Y380870D01*
X303549Y380344D01*
X302805Y379601D01*
X302280Y378690D01*
X302008Y377675D01*
Y376624D01*
X302280Y375609D01*
X302805Y374698D01*
X303549Y373955D01*
X304459Y373429D01*
X305474Y373157D01*
X306526D01*
X307541Y373429D01*
X308451Y373955D01*
X309194Y374698D01*
X309720Y375609D01*
X309992Y376624D01*
Y377675D01*
X309720Y378690D01*
X309194Y379601D01*
X308451Y380344D01*
X307541Y380870D01*
X306526Y381142D01*
D02*
G37*
G36*
X296526D02*
X295474D01*
X294459Y380870D01*
X293549Y380344D01*
X292806Y379601D01*
X292280Y378690D01*
X292008Y377675D01*
Y376624D01*
X292280Y375609D01*
X292806Y374698D01*
X293549Y373955D01*
X294459Y373429D01*
X295474Y373157D01*
X296526D01*
X297541Y373429D01*
X298451Y373955D01*
X299195Y374698D01*
X299720Y375609D01*
X299992Y376624D01*
Y377675D01*
X299720Y378690D01*
X299195Y379601D01*
X298451Y380344D01*
X297541Y380870D01*
X296526Y381142D01*
D02*
G37*
G36*
X286526D02*
X285474D01*
X284459Y380870D01*
X283549Y380344D01*
X282805Y379601D01*
X282280Y378690D01*
X282008Y377675D01*
Y376624D01*
X282280Y375609D01*
X282805Y374698D01*
X283549Y373955D01*
X284459Y373429D01*
X285474Y373157D01*
X286526D01*
X287541Y373429D01*
X288451Y373955D01*
X289194Y374698D01*
X289720Y375609D01*
X289992Y376624D01*
Y377675D01*
X289720Y378690D01*
X289194Y379601D01*
X288451Y380344D01*
X287541Y380870D01*
X286526Y381142D01*
D02*
G37*
G36*
X276526D02*
X275474D01*
X274459Y380870D01*
X273549Y380344D01*
X272806Y379601D01*
X272280Y378690D01*
X272008Y377675D01*
Y376624D01*
X272280Y375609D01*
X272806Y374698D01*
X273549Y373955D01*
X274459Y373429D01*
X275474Y373157D01*
X276526D01*
X277541Y373429D01*
X278451Y373955D01*
X279194Y374698D01*
X279720Y375609D01*
X279992Y376624D01*
Y377675D01*
X279720Y378690D01*
X279194Y379601D01*
X278451Y380344D01*
X277541Y380870D01*
X276526Y381142D01*
D02*
G37*
G36*
X367496Y381190D02*
X364504D01*
X363530Y380997D01*
X362704Y380445D01*
X362153Y379620D01*
X361959Y378645D01*
Y375653D01*
X362153Y374679D01*
X362704Y373854D01*
X363530Y373302D01*
X364504Y373109D01*
X367496D01*
X368470Y373302D01*
X369296Y373854D01*
X369847Y374679D01*
X370041Y375653D01*
Y378645D01*
X369847Y379620D01*
X369296Y380445D01*
X368470Y380997D01*
X367496Y381190D01*
D02*
G37*
G36*
X552398Y377000D02*
X551602D01*
X550867Y376695D01*
X550305Y376133D01*
X550000Y375398D01*
Y374602D01*
X550305Y373867D01*
X550867Y373305D01*
X551602Y373000D01*
X552398D01*
X553133Y373305D01*
X553695Y373867D01*
X554000Y374602D01*
Y375398D01*
X553695Y376133D01*
X553133Y376695D01*
X552398Y377000D01*
D02*
G37*
G36*
X586898Y383500D02*
X586102D01*
X585367Y383195D01*
X584804Y382633D01*
X584500Y381898D01*
Y381102D01*
X584804Y380367D01*
X585367Y379804D01*
X585499Y379750D01*
Y379250D01*
X585367Y379195D01*
X584804Y378633D01*
X584500Y377898D01*
Y377102D01*
X584804Y376367D01*
X585367Y375804D01*
X585499Y375750D01*
Y375250D01*
X585367Y375196D01*
X584804Y374633D01*
X584500Y373898D01*
Y373102D01*
X584804Y372367D01*
X585367Y371804D01*
X586102Y371500D01*
X586898D01*
X587633Y371804D01*
X588196Y372367D01*
X588500Y373102D01*
Y373898D01*
X588196Y374633D01*
X587633Y375196D01*
X587501Y375250D01*
Y375750D01*
X587633Y375804D01*
X588196Y376367D01*
X588500Y377102D01*
Y377898D01*
X588196Y378633D01*
X587633Y379195D01*
X587501Y379250D01*
Y379750D01*
X587633Y379804D01*
X588196Y380367D01*
X588500Y381102D01*
Y381898D01*
X588196Y382633D01*
X587633Y383195D01*
X586898Y383500D01*
D02*
G37*
G36*
X597398Y383000D02*
X596602D01*
X595867Y382696D01*
X595304Y382133D01*
X595000Y381398D01*
Y380602D01*
X595304Y379867D01*
X595867Y379305D01*
X595999Y379250D01*
Y378750D01*
X595867Y378696D01*
X595304Y378133D01*
X595000Y377398D01*
Y376602D01*
X595304Y375867D01*
X595867Y375305D01*
X595999Y375250D01*
Y374750D01*
X595867Y374695D01*
X595304Y374133D01*
X595000Y373398D01*
Y372602D01*
X595304Y371867D01*
X595867Y371304D01*
X596602Y371000D01*
X597398D01*
X598133Y371304D01*
X598696Y371867D01*
X599000Y372602D01*
Y373398D01*
X598696Y374133D01*
X598133Y374695D01*
X598001Y374750D01*
Y375250D01*
X598133Y375305D01*
X598696Y375867D01*
X599000Y376602D01*
Y377398D01*
X598696Y378133D01*
X598133Y378696D01*
X598001Y378750D01*
Y379250D01*
X598133Y379305D01*
X598696Y379867D01*
X599000Y380602D01*
Y381398D01*
X598696Y382133D01*
X598133Y382696D01*
X597398Y383000D01*
D02*
G37*
G36*
X586898Y371000D02*
X586102D01*
X585367Y370695D01*
X584804Y370133D01*
X584500Y369398D01*
Y368602D01*
X584804Y367867D01*
X585367Y367304D01*
X586102Y367000D01*
X586898D01*
X587633Y367304D01*
X588196Y367867D01*
X588500Y368602D01*
Y369398D01*
X588196Y370133D01*
X587633Y370695D01*
X586898Y371000D01*
D02*
G37*
G36*
X597398Y370500D02*
X596602D01*
X595867Y370196D01*
X595304Y369633D01*
X595000Y368898D01*
Y368102D01*
X595304Y367367D01*
X595867Y366805D01*
X596602Y366500D01*
X597398D01*
X598133Y366805D01*
X598696Y367367D01*
X599000Y368102D01*
Y368898D01*
X598696Y369633D01*
X598133Y370196D01*
X597398Y370500D01*
D02*
G37*
G36*
X514898Y366500D02*
X514102D01*
X513367Y366196D01*
X512805Y365633D01*
X512500Y364898D01*
Y364102D01*
X512805Y363367D01*
X513367Y362805D01*
X514102Y362500D01*
X514898D01*
X515633Y362805D01*
X516195Y363367D01*
X516500Y364102D01*
Y364898D01*
X516195Y365633D01*
X515633Y366196D01*
X514898Y366500D01*
D02*
G37*
G36*
X697398Y363000D02*
X696602D01*
X695867Y362696D01*
X695577Y362405D01*
X695250Y362172D01*
X694923Y362405D01*
X694633Y362696D01*
X693898Y363000D01*
X693102D01*
X692367Y362696D01*
X692077Y362405D01*
X691750Y362172D01*
X691423Y362405D01*
X691133Y362696D01*
X690398Y363000D01*
X689602D01*
X688867Y362696D01*
X688577Y362405D01*
X688250Y362172D01*
X687923Y362405D01*
X687633Y362696D01*
X686898Y363000D01*
X686102D01*
X685367Y362696D01*
X684804Y362133D01*
X684500Y361398D01*
Y360602D01*
X684804Y359867D01*
X685367Y359304D01*
X686102Y359000D01*
X686898D01*
X687633Y359304D01*
X687923Y359595D01*
X688250Y359828D01*
X688577Y359595D01*
X688867Y359304D01*
X689602Y359000D01*
X690398D01*
X691133Y359304D01*
X691423Y359595D01*
X691750Y359828D01*
X692077Y359595D01*
X692367Y359304D01*
X693102Y359000D01*
X693898D01*
X694633Y359304D01*
X694923Y359595D01*
X695250Y359828D01*
X695577Y359595D01*
X695867Y359304D01*
X696602Y359000D01*
X697398D01*
X698133Y359304D01*
X698696Y359867D01*
X699000Y360602D01*
Y361398D01*
X698696Y362133D01*
X698133Y362696D01*
X697398Y363000D01*
D02*
G37*
G36*
X586898Y366000D02*
X586102D01*
X585367Y365696D01*
X584804Y365133D01*
X584500Y364398D01*
Y363602D01*
X584804Y362867D01*
X585367Y362304D01*
X585499Y362250D01*
Y361750D01*
X585367Y361696D01*
X584804Y361133D01*
X584500Y360398D01*
Y359602D01*
X584804Y358867D01*
X585367Y358305D01*
X585499Y358250D01*
Y357750D01*
X585367Y357696D01*
X584804Y357133D01*
X584500Y356398D01*
Y355602D01*
X584804Y354867D01*
X585367Y354305D01*
X586102Y354000D01*
X586898D01*
X587633Y354305D01*
X588196Y354867D01*
X588500Y355602D01*
Y356398D01*
X588196Y357133D01*
X587633Y357696D01*
X587501Y357750D01*
Y358250D01*
X587633Y358305D01*
X588196Y358867D01*
X588500Y359602D01*
Y360398D01*
X588196Y361133D01*
X587633Y361696D01*
X587501Y361750D01*
Y362250D01*
X587633Y362304D01*
X588196Y362867D01*
X588500Y363602D01*
Y364398D01*
X588196Y365133D01*
X587633Y365696D01*
X586898Y366000D01*
D02*
G37*
G36*
X597398Y365500D02*
X596602D01*
X595867Y365195D01*
X595304Y364633D01*
X595000Y363898D01*
Y363102D01*
X595304Y362367D01*
X595867Y361805D01*
X595999Y361750D01*
Y361250D01*
X595867Y361195D01*
X595304Y360633D01*
X595000Y359898D01*
Y359102D01*
X595304Y358367D01*
X595867Y357804D01*
X595999Y357750D01*
Y357250D01*
X595867Y357195D01*
X595304Y356633D01*
X595000Y355898D01*
Y355102D01*
X595304Y354367D01*
X595867Y353804D01*
X596602Y353500D01*
X597398D01*
X598133Y353804D01*
X598696Y354367D01*
X599000Y355102D01*
Y355898D01*
X598696Y356633D01*
X598133Y357195D01*
X598001Y357250D01*
Y357750D01*
X598133Y357804D01*
X598696Y358367D01*
X599000Y359102D01*
Y359898D01*
X598696Y360633D01*
X598133Y361195D01*
X598001Y361250D01*
Y361750D01*
X598133Y361805D01*
X598696Y362367D01*
X599000Y363102D01*
Y363898D01*
X598696Y364633D01*
X598133Y365195D01*
X597398Y365500D01*
D02*
G37*
G36*
X586898Y353500D02*
X586102D01*
X585367Y353196D01*
X584804Y352633D01*
X584500Y351898D01*
Y351102D01*
X584804Y350367D01*
X585367Y349804D01*
X586102Y349500D01*
X586898D01*
X587633Y349804D01*
X588196Y350367D01*
X588500Y351102D01*
Y351898D01*
X588196Y352633D01*
X587633Y353196D01*
X586898Y353500D01*
D02*
G37*
G36*
X597398Y353000D02*
X596602D01*
X595867Y352695D01*
X595304Y352133D01*
X595000Y351398D01*
Y350602D01*
X595304Y349867D01*
X595867Y349305D01*
X596602Y349000D01*
X597398D01*
X598133Y349305D01*
X598696Y349867D01*
X599000Y350602D01*
Y351398D01*
X598696Y352133D01*
X598133Y352695D01*
X597398Y353000D01*
D02*
G37*
G36*
X544487Y350716D02*
X543692D01*
X542957Y350412D01*
X542394Y349849D01*
X542090Y349114D01*
Y348319D01*
X542394Y347584D01*
X542957Y347021D01*
X543692Y346716D01*
X544487D01*
X545223Y347021D01*
X545785Y347584D01*
X546090Y348319D01*
Y349114D01*
X545785Y349849D01*
X545223Y350412D01*
X544487Y350716D01*
D02*
G37*
G36*
X219759Y378500D02*
X217241D01*
X214753Y378106D01*
X212358Y377328D01*
X210114Y376184D01*
X208077Y374704D01*
X206296Y372923D01*
X204816Y370886D01*
X203672Y368642D01*
X202894Y366247D01*
X202500Y363759D01*
Y361241D01*
X202894Y358753D01*
X203672Y356358D01*
X204816Y354114D01*
X206296Y352077D01*
X208077Y350296D01*
X210114Y348816D01*
X212358Y347672D01*
X214753Y346894D01*
X217241Y346500D01*
X219759D01*
X222247Y346894D01*
X224642Y347672D01*
X226886Y348816D01*
X228923Y350296D01*
X230704Y352077D01*
X232184Y354114D01*
X233328Y356358D01*
X234106Y358753D01*
X234500Y361241D01*
Y363759D01*
X234106Y366247D01*
X233328Y368642D01*
X232184Y370886D01*
X230704Y372923D01*
X228923Y374704D01*
X226886Y376184D01*
X224642Y377328D01*
X222247Y378106D01*
X219759Y378500D01*
D02*
G37*
G36*
X533898Y347000D02*
X533102D01*
X532367Y346695D01*
X531805Y346133D01*
X531500Y345398D01*
Y344602D01*
X531805Y343867D01*
X532367Y343304D01*
X533102Y343000D01*
X533898D01*
X534633Y343304D01*
X535195Y343867D01*
X535500Y344602D01*
Y345398D01*
X535195Y346133D01*
X534633Y346695D01*
X533898Y347000D01*
D02*
G37*
G36*
X370398Y344000D02*
X369602D01*
X368867Y343695D01*
X368304Y343133D01*
X368000Y342398D01*
Y341602D01*
X368304Y340867D01*
X368867Y340304D01*
X369602Y340000D01*
X370398D01*
X371133Y340304D01*
X371695Y340867D01*
X372000Y341602D01*
Y342398D01*
X371695Y343133D01*
X371133Y343695D01*
X370398Y344000D01*
D02*
G37*
G36*
X586898Y348000D02*
X586102D01*
X585367Y347695D01*
X584804Y347133D01*
X584500Y346398D01*
Y345602D01*
X584804Y344867D01*
X585367Y344304D01*
X585499Y344250D01*
Y343750D01*
X585367Y343695D01*
X584804Y343133D01*
X584500Y342398D01*
Y341602D01*
X584804Y340867D01*
X585367Y340304D01*
X585499Y340250D01*
Y339750D01*
X585367Y339696D01*
X584804Y339133D01*
X584500Y338398D01*
Y337602D01*
X584804Y336867D01*
X585367Y336304D01*
X586102Y336000D01*
X586898D01*
X587633Y336304D01*
X588196Y336867D01*
X588500Y337602D01*
Y338398D01*
X588196Y339133D01*
X587633Y339696D01*
X587501Y339750D01*
Y340250D01*
X587633Y340304D01*
X588196Y340867D01*
X588500Y341602D01*
Y342398D01*
X588196Y343133D01*
X587633Y343695D01*
X587501Y343750D01*
Y344250D01*
X587633Y344304D01*
X588196Y344867D01*
X588500Y345602D01*
Y346398D01*
X588196Y347133D01*
X587633Y347695D01*
X586898Y348000D01*
D02*
G37*
G36*
X597398Y347500D02*
X596602D01*
X595867Y347196D01*
X595304Y346633D01*
X595000Y345898D01*
Y345102D01*
X595304Y344367D01*
X595867Y343805D01*
X595999Y343750D01*
Y343250D01*
X595867Y343196D01*
X595304Y342633D01*
X595000Y341898D01*
Y341102D01*
X595304Y340367D01*
X595867Y339805D01*
X595999Y339750D01*
Y339250D01*
X595867Y339195D01*
X595304Y338633D01*
X595000Y337898D01*
Y337102D01*
X595304Y336367D01*
X595867Y335805D01*
X596602Y335500D01*
X597398D01*
X598133Y335805D01*
X598696Y336367D01*
X599000Y337102D01*
Y337898D01*
X598696Y338633D01*
X598133Y339195D01*
X598001Y339250D01*
Y339750D01*
X598133Y339805D01*
X598696Y340367D01*
X599000Y341102D01*
Y341898D01*
X598696Y342633D01*
X598133Y343196D01*
X598001Y343250D01*
Y343750D01*
X598133Y343805D01*
X598696Y344367D01*
X599000Y345102D01*
Y345898D01*
X598696Y346633D01*
X598133Y347196D01*
X597398Y347500D01*
D02*
G37*
G36*
X373398Y337500D02*
X372602D01*
X371867Y337195D01*
X371304Y336633D01*
X371000Y335898D01*
Y335102D01*
X371304Y334367D01*
X371867Y333804D01*
X372602Y333500D01*
X373398D01*
X374133Y333804D01*
X374695Y334367D01*
X375000Y335102D01*
Y335898D01*
X374695Y336633D01*
X374133Y337195D01*
X373398Y337500D01*
D02*
G37*
G36*
X558898Y334000D02*
X558102D01*
X557367Y333696D01*
X556805Y333133D01*
X556750Y333001D01*
X556250D01*
X556195Y333133D01*
X555633Y333696D01*
X554898Y334000D01*
X554102D01*
X553367Y333696D01*
X552805Y333133D01*
X552500Y332398D01*
Y331602D01*
X552805Y330867D01*
X553367Y330305D01*
X554102Y330000D01*
X554898D01*
X555633Y330305D01*
X556195Y330867D01*
X556250Y330999D01*
X556750D01*
X556805Y330867D01*
X557367Y330305D01*
X558102Y330000D01*
X558898D01*
X559633Y330305D01*
X560195Y330867D01*
X560500Y331602D01*
Y332398D01*
X560195Y333133D01*
X559633Y333696D01*
X558898Y334000D01*
D02*
G37*
G36*
X586898Y335500D02*
X586102D01*
X585367Y335195D01*
X584804Y334633D01*
X584500Y333898D01*
Y333102D01*
X584804Y332367D01*
X585367Y331804D01*
X586102Y331500D01*
X586898D01*
X587633Y331804D01*
X588196Y332367D01*
X588500Y333102D01*
Y333898D01*
X588196Y334633D01*
X587633Y335195D01*
X586898Y335500D01*
D02*
G37*
G36*
X597398Y335000D02*
X596602D01*
X595867Y334696D01*
X595304Y334133D01*
X595000Y333398D01*
Y332602D01*
X595304Y331867D01*
X595867Y331305D01*
X596602Y331000D01*
X597398D01*
X598133Y331305D01*
X598696Y331867D01*
X599000Y332602D01*
Y333398D01*
X598696Y334133D01*
X598133Y334696D01*
X597398Y335000D01*
D02*
G37*
G36*
X473898Y333500D02*
X473102D01*
X472367Y333195D01*
X471805Y332633D01*
X471500Y331898D01*
Y331102D01*
X471805Y330367D01*
X472367Y329804D01*
X473102Y329500D01*
X473898D01*
X474633Y329804D01*
X475196Y330367D01*
X475500Y331102D01*
Y331898D01*
X475196Y332633D01*
X474633Y333195D01*
X473898Y333500D01*
D02*
G37*
G36*
X542898Y328500D02*
X542102D01*
X541367Y328196D01*
X540804Y327633D01*
X540500Y326898D01*
Y326102D01*
X540804Y325367D01*
X541367Y324804D01*
X542102Y324500D01*
X542898D01*
X543633Y324804D01*
X544196Y325367D01*
X544500Y326102D01*
Y326898D01*
X544196Y327633D01*
X543633Y328196D01*
X542898Y328500D01*
D02*
G37*
G36*
X408898Y328000D02*
X408102D01*
X407367Y327695D01*
X406805Y327133D01*
X406500Y326398D01*
Y325602D01*
X406805Y324867D01*
X407367Y324305D01*
X408102Y324000D01*
X408898D01*
X409633Y324305D01*
X410195Y324867D01*
X410500Y325602D01*
Y326398D01*
X410195Y327133D01*
X409633Y327695D01*
X408898Y328000D01*
D02*
G37*
G36*
X474398Y327500D02*
X473602D01*
X472867Y327196D01*
X472304Y326633D01*
X472000Y325898D01*
Y325102D01*
X472304Y324367D01*
X472867Y323804D01*
X473602Y323500D01*
X474398D01*
X475133Y323804D01*
X475696Y324367D01*
X476000Y325102D01*
Y325898D01*
X475696Y326633D01*
X475133Y327196D01*
X474398Y327500D01*
D02*
G37*
G36*
X469398D02*
X468602D01*
X467867Y327196D01*
X467305Y326633D01*
X467000Y325898D01*
Y325102D01*
X467305Y324367D01*
X467867Y323804D01*
X468602Y323500D01*
X469398D01*
X470133Y323804D01*
X470695Y324367D01*
X471000Y325102D01*
Y325898D01*
X470695Y326633D01*
X470133Y327196D01*
X469398Y327500D01*
D02*
G37*
G36*
X561898Y330500D02*
X561102D01*
X560367Y330195D01*
X559804Y329633D01*
X559500Y328898D01*
Y328102D01*
X559804Y327367D01*
X560367Y326804D01*
X560499Y326750D01*
Y326250D01*
X560367Y326196D01*
X559804Y325633D01*
X559500Y324898D01*
Y324102D01*
X559804Y323367D01*
X560367Y322804D01*
X561102Y322500D01*
X561898D01*
X562633Y322804D01*
X563196Y323367D01*
X563500Y324102D01*
Y324898D01*
X563196Y325633D01*
X562633Y326196D01*
X562501Y326250D01*
Y326750D01*
X562633Y326804D01*
X563196Y327367D01*
X563500Y328102D01*
Y328898D01*
X563196Y329633D01*
X562633Y330195D01*
X561898Y330500D01*
D02*
G37*
G36*
X242347Y330541D02*
X239354D01*
X238381Y330347D01*
X237555Y329796D01*
X237003Y328970D01*
X236809Y327996D01*
Y325004D01*
X237003Y324030D01*
X237555Y323204D01*
X238381Y322653D01*
X239354Y322459D01*
X242347D01*
X243320Y322653D01*
X244146Y323204D01*
X244698Y324030D01*
X244892Y325004D01*
Y327996D01*
X244698Y328970D01*
X244146Y329796D01*
X243320Y330347D01*
X242347Y330541D01*
D02*
G37*
G36*
X379898Y325500D02*
X379102D01*
X378367Y325196D01*
X377804Y324633D01*
X377500Y323898D01*
Y323102D01*
X377804Y322367D01*
X378367Y321804D01*
X379102Y321500D01*
X379898D01*
X380633Y321804D01*
X381195Y322367D01*
X381500Y323102D01*
Y323898D01*
X381195Y324633D01*
X380633Y325196D01*
X379898Y325500D01*
D02*
G37*
G36*
X519898Y324500D02*
X519102D01*
X518367Y324196D01*
X517804Y323633D01*
X517500Y322898D01*
Y322102D01*
X517804Y321367D01*
X518367Y320805D01*
X519102Y320500D01*
X519898D01*
X520633Y320805D01*
X521196Y321367D01*
X521500Y322102D01*
Y322898D01*
X521196Y323633D01*
X520633Y324196D01*
X519898Y324500D01*
D02*
G37*
G36*
X612398Y324000D02*
X611602D01*
X610867Y323695D01*
X610304Y323133D01*
X610000Y322398D01*
Y321602D01*
X610304Y320867D01*
X610867Y320304D01*
X611602Y320000D01*
X612398D01*
X613133Y320304D01*
X613695Y320867D01*
X614000Y321602D01*
Y322398D01*
X613695Y323133D01*
X613133Y323695D01*
X612398Y324000D01*
D02*
G37*
G36*
X586898Y330000D02*
X586102D01*
X585367Y329696D01*
X584804Y329133D01*
X584500Y328398D01*
Y327602D01*
X584804Y326867D01*
X585367Y326305D01*
X585499Y326250D01*
Y325750D01*
X585367Y325695D01*
X584804Y325133D01*
X584500Y324398D01*
Y323602D01*
X584804Y322867D01*
X585367Y322305D01*
X585499Y322250D01*
Y321750D01*
X585367Y321695D01*
X584804Y321133D01*
X584500Y320398D01*
Y319602D01*
X584804Y318867D01*
X585367Y318304D01*
X586102Y318000D01*
X586898D01*
X587633Y318304D01*
X588196Y318867D01*
X588500Y319602D01*
Y320398D01*
X588196Y321133D01*
X587633Y321695D01*
X587501Y321750D01*
Y322250D01*
X587633Y322305D01*
X588196Y322867D01*
X588500Y323602D01*
Y324398D01*
X588196Y325133D01*
X587633Y325695D01*
X587501Y325750D01*
Y326250D01*
X587633Y326305D01*
X588196Y326867D01*
X588500Y327602D01*
Y328398D01*
X588196Y329133D01*
X587633Y329696D01*
X586898Y330000D01*
D02*
G37*
G36*
X502898D02*
X502102D01*
X501367Y329696D01*
X500805Y329133D01*
X500500Y328398D01*
Y327602D01*
X500805Y326867D01*
X501367Y326305D01*
X501499Y326250D01*
Y325750D01*
X501367Y325695D01*
X500805Y325133D01*
X500500Y324398D01*
Y323602D01*
X500805Y322867D01*
X501367Y322305D01*
X501499Y322250D01*
Y321750D01*
X501367Y321695D01*
X500805Y321133D01*
X500500Y320398D01*
Y319602D01*
X500805Y318867D01*
X501367Y318304D01*
X502102Y318000D01*
X502898D01*
X503633Y318304D01*
X504195Y318867D01*
X504500Y319602D01*
Y320398D01*
X504195Y321133D01*
X503633Y321695D01*
X503501Y321750D01*
Y322250D01*
X503633Y322305D01*
X504195Y322867D01*
X504500Y323602D01*
Y324398D01*
X504195Y325133D01*
X503633Y325695D01*
X503501Y325750D01*
Y326250D01*
X503633Y326305D01*
X504195Y326867D01*
X504500Y327602D01*
Y328398D01*
X504195Y329133D01*
X503633Y329696D01*
X502898Y330000D01*
D02*
G37*
G36*
X597398Y329500D02*
X596602D01*
X595867Y329195D01*
X595304Y328633D01*
X595000Y327898D01*
Y327102D01*
X595304Y326367D01*
X595867Y325804D01*
X595999Y325750D01*
Y325250D01*
X595867Y325196D01*
X595304Y324633D01*
X595000Y323898D01*
Y323102D01*
X595304Y322367D01*
X595867Y321804D01*
X595999Y321750D01*
Y321250D01*
X595867Y321196D01*
X595304Y320633D01*
X595000Y319898D01*
Y319102D01*
X595304Y318367D01*
X595867Y317805D01*
X596602Y317500D01*
X597398D01*
X598133Y317805D01*
X598696Y318367D01*
X599000Y319102D01*
Y319898D01*
X598696Y320633D01*
X598133Y321196D01*
X598001Y321250D01*
Y321750D01*
X598133Y321804D01*
X598696Y322367D01*
X599000Y323102D01*
Y323898D01*
X598696Y324633D01*
X598133Y325196D01*
X598001Y325250D01*
Y325750D01*
X598133Y325804D01*
X598696Y326367D01*
X599000Y327102D01*
Y327898D01*
X598696Y328633D01*
X598133Y329195D01*
X597398Y329500D01*
D02*
G37*
G36*
X412398Y320500D02*
X411602D01*
X410867Y320196D01*
X410304Y319633D01*
X410000Y318898D01*
Y318102D01*
X410304Y317367D01*
X410867Y316805D01*
X411602Y316500D01*
X412398D01*
X413133Y316805D01*
X413695Y317367D01*
X414000Y318102D01*
Y318898D01*
X413695Y319633D01*
X413133Y320196D01*
X412398Y320500D01*
D02*
G37*
G36*
X334898Y319000D02*
X334102D01*
X333367Y318695D01*
X332804Y318133D01*
X332500Y317398D01*
Y316602D01*
X332804Y315867D01*
X333367Y315304D01*
X334102Y315000D01*
X334898D01*
X335633Y315304D01*
X336195Y315867D01*
X336500Y316602D01*
Y317398D01*
X336195Y318133D01*
X335633Y318695D01*
X334898Y319000D01*
D02*
G37*
G36*
X606898Y317500D02*
X606102D01*
X605367Y317196D01*
X604805Y316633D01*
X604500Y315898D01*
Y315102D01*
X604805Y314367D01*
X605367Y313805D01*
X606102Y313500D01*
X606898D01*
X607633Y313805D01*
X608195Y314367D01*
X608500Y315102D01*
Y315898D01*
X608195Y316633D01*
X607633Y317196D01*
X606898Y317500D01*
D02*
G37*
G36*
X586898D02*
X586102D01*
X585367Y317196D01*
X584804Y316633D01*
X584500Y315898D01*
Y315102D01*
X584804Y314367D01*
X585367Y313805D01*
X586102Y313500D01*
X586898D01*
X587633Y313805D01*
X588196Y314367D01*
X588500Y315102D01*
Y315898D01*
X588196Y316633D01*
X587633Y317196D01*
X586898Y317500D01*
D02*
G37*
G36*
X529898Y313500D02*
X529102D01*
X528367Y313195D01*
X528077Y312905D01*
X527750Y312672D01*
X527423Y312905D01*
X527133Y313195D01*
X526398Y313500D01*
X525602D01*
X524867Y313195D01*
X524577Y312905D01*
X524250Y312672D01*
X523923Y312905D01*
X523633Y313195D01*
X522898Y313500D01*
X522102D01*
X521367Y313195D01*
X520805Y312633D01*
X520500Y311898D01*
Y311102D01*
X520805Y310367D01*
X521367Y309805D01*
X522102Y309500D01*
X522898D01*
X523633Y309805D01*
X523923Y310095D01*
X524250Y310328D01*
X524577Y310095D01*
X524867Y309805D01*
X525602Y309500D01*
X526398D01*
X527133Y309805D01*
X527423Y310095D01*
X527750Y310328D01*
X528077Y310095D01*
X528367Y309805D01*
X529102Y309500D01*
X529898D01*
X530633Y309805D01*
X531195Y310367D01*
X531500Y311102D01*
Y311898D01*
X531195Y312633D01*
X530633Y313195D01*
X529898Y313500D01*
D02*
G37*
G36*
X311537Y316579D02*
X310742D01*
X310007Y316274D01*
X309444Y315712D01*
X309140Y314977D01*
Y314181D01*
X309444Y313446D01*
X310007Y312883D01*
X310742Y312579D01*
X311537D01*
X312273Y312883D01*
X312835Y313446D01*
X313140Y314181D01*
Y314977D01*
X312835Y315712D01*
X312273Y316274D01*
X311537Y316579D01*
D02*
G37*
G36*
X241376Y320492D02*
X240325D01*
X239310Y320220D01*
X238399Y319694D01*
X237656Y318951D01*
X237130Y318041D01*
X236858Y317026D01*
Y315974D01*
X237130Y314959D01*
X237656Y314049D01*
X238399Y313305D01*
X239310Y312780D01*
X240325Y312508D01*
X241376D01*
X242391Y312780D01*
X243302Y313305D01*
X244045Y314049D01*
X244571Y314959D01*
X244843Y315974D01*
Y317026D01*
X244571Y318041D01*
X244045Y318951D01*
X243302Y319694D01*
X242391Y320220D01*
X241376Y320492D01*
D02*
G37*
G36*
X502898Y317500D02*
X502102D01*
X501367Y317196D01*
X500805Y316633D01*
X500500Y315898D01*
Y315102D01*
X500805Y314367D01*
X501269Y313903D01*
X501253Y313486D01*
X501199Y313333D01*
X500867Y313195D01*
X500305Y312633D01*
X500250Y312501D01*
X499750D01*
X499695Y312633D01*
X499133Y313195D01*
X498398Y313500D01*
X497602D01*
X496867Y313195D01*
X496577Y312905D01*
X496250Y312672D01*
X495923Y312905D01*
X495633Y313195D01*
X494898Y313500D01*
X494102D01*
X493367Y313195D01*
X492804Y312633D01*
X492750Y312501D01*
X492250D01*
X492196Y312633D01*
X491633Y313195D01*
X490898Y313500D01*
X490102D01*
X489367Y313195D01*
X488804Y312633D01*
X488500Y311898D01*
Y311102D01*
X488804Y310367D01*
X489367Y309805D01*
X490102Y309500D01*
X490898D01*
X491633Y309805D01*
X492196Y310367D01*
X492250Y310499D01*
X492750D01*
X492804Y310367D01*
X493367Y309805D01*
X494102Y309500D01*
X494898D01*
X495633Y309805D01*
X495923Y310095D01*
X496250Y310328D01*
X496577Y310095D01*
X496867Y309805D01*
X497602Y309500D01*
X498398D01*
X499133Y309805D01*
X499695Y310367D01*
X499750Y310499D01*
X500250D01*
X500305Y310367D01*
X500867Y309805D01*
X501602Y309500D01*
X502398D01*
X503133Y309805D01*
X503695Y310367D01*
X504000Y311102D01*
Y311898D01*
X503695Y312633D01*
X503231Y313097D01*
X503247Y313514D01*
X503301Y313667D01*
X503633Y313805D01*
X504195Y314367D01*
X504500Y315102D01*
Y315898D01*
X504195Y316633D01*
X503633Y317196D01*
X502898Y317500D01*
D02*
G37*
G36*
X583398Y313000D02*
X582602D01*
X581867Y312696D01*
X581305Y312133D01*
X581250Y312001D01*
X580750D01*
X580695Y312133D01*
X580133Y312696D01*
X579398Y313000D01*
X578602D01*
X577867Y312696D01*
X577577Y312405D01*
X577250Y312172D01*
X576923Y312405D01*
X576633Y312696D01*
X575898Y313000D01*
X575102D01*
X574367Y312696D01*
X573805Y312133D01*
X573500Y311398D01*
Y310602D01*
X573805Y309867D01*
X574367Y309304D01*
X575102Y309000D01*
X575898D01*
X576633Y309304D01*
X576923Y309595D01*
X577250Y309828D01*
X577577Y309595D01*
X577867Y309304D01*
X578602Y309000D01*
X579398D01*
X580133Y309304D01*
X580695Y309867D01*
X580750Y309999D01*
X581250D01*
X581305Y309867D01*
X581867Y309304D01*
X582602Y309000D01*
X583398D01*
X584133Y309304D01*
X584695Y309867D01*
X585000Y310602D01*
Y311398D01*
X584695Y312133D01*
X584133Y312696D01*
X583398Y313000D01*
D02*
G37*
G36*
X475898Y312500D02*
X475102D01*
X474367Y312195D01*
X474077Y311905D01*
X473750Y311672D01*
X473423Y311905D01*
X473133Y312195D01*
X472398Y312500D01*
X471602D01*
X470867Y312195D01*
X470577Y311905D01*
X470250Y311672D01*
X469923Y311905D01*
X469633Y312195D01*
X468898Y312500D01*
X468102D01*
X467367Y312195D01*
X466805Y311633D01*
X466750Y311501D01*
X466250D01*
X466195Y311633D01*
X465633Y312195D01*
X464898Y312500D01*
X464102D01*
X463367Y312195D01*
X462805Y311633D01*
X462500Y310898D01*
Y310102D01*
X462805Y309367D01*
X463367Y308804D01*
X464102Y308500D01*
X464898D01*
X465633Y308804D01*
X466195Y309367D01*
X466250Y309499D01*
X466750D01*
X466805Y309367D01*
X467367Y308804D01*
X468102Y308500D01*
X468898D01*
X469633Y308804D01*
X469923Y309095D01*
X470250Y309328D01*
X470577Y309095D01*
X470867Y308804D01*
X471602Y308500D01*
X472398D01*
X473133Y308804D01*
X473423Y309095D01*
X473750Y309328D01*
X474077Y309095D01*
X474367Y308804D01*
X475102Y308500D01*
X475898D01*
X476633Y308804D01*
X477196Y309367D01*
X477500Y310102D01*
Y310898D01*
X477196Y311633D01*
X476633Y312195D01*
X475898Y312500D01*
D02*
G37*
G36*
X635898D02*
X635102D01*
X634367Y312195D01*
X633805Y311633D01*
X633750Y311501D01*
X633250D01*
X633195Y311633D01*
X632633Y312195D01*
X631898Y312500D01*
X631102D01*
X630367Y312195D01*
X629805Y311633D01*
X629500Y310898D01*
Y310102D01*
X629805Y309367D01*
X630367Y308804D01*
X631102Y308500D01*
X631898D01*
X632633Y308804D01*
X633195Y309367D01*
X633250Y309499D01*
X633750D01*
X633805Y309367D01*
X634367Y308804D01*
X635102Y308500D01*
X635898D01*
X636633Y308804D01*
X637195Y309367D01*
X637500Y310102D01*
Y310898D01*
X637195Y311633D01*
X636633Y312195D01*
X635898Y312500D01*
D02*
G37*
G36*
X542898Y324000D02*
X542102D01*
X541367Y323695D01*
X540804Y323133D01*
X540500Y322398D01*
Y321602D01*
X540804Y320867D01*
X541367Y320304D01*
X541499Y320250D01*
Y319750D01*
X541367Y319695D01*
X540804Y319133D01*
X540500Y318398D01*
Y317602D01*
X540804Y316867D01*
X541367Y316304D01*
X541499Y316250D01*
Y315750D01*
X541367Y315696D01*
X540804Y315133D01*
X540500Y314398D01*
Y313602D01*
X540804Y312867D01*
X541095Y312577D01*
X541328Y312250D01*
X541095Y311923D01*
X540804Y311633D01*
X540750Y311501D01*
X540250D01*
X540196Y311633D01*
X539633Y312195D01*
X538898Y312500D01*
X538102D01*
X537367Y312195D01*
X536804Y311633D01*
X536500Y310898D01*
Y310102D01*
X536804Y309367D01*
X537367Y308804D01*
X538102Y308500D01*
X538898D01*
X539633Y308804D01*
X540196Y309367D01*
X540250Y309499D01*
X540750D01*
X540804Y309367D01*
X541367Y308804D01*
X542102Y308500D01*
X542898D01*
X543633Y308804D01*
X544196Y309367D01*
X544500Y310102D01*
Y310898D01*
X544196Y311633D01*
X543905Y311923D01*
X543672Y312250D01*
X543905Y312577D01*
X544196Y312867D01*
X544500Y313602D01*
Y314398D01*
X544196Y315133D01*
X543633Y315696D01*
X543501Y315750D01*
Y316250D01*
X543633Y316304D01*
X544196Y316867D01*
X544500Y317602D01*
Y318398D01*
X544196Y319133D01*
X543633Y319695D01*
X543501Y319750D01*
Y320250D01*
X543633Y320304D01*
X544196Y320867D01*
X544500Y321602D01*
Y322398D01*
X544196Y323133D01*
X543633Y323695D01*
X542898Y324000D01*
D02*
G37*
G36*
X515398Y313500D02*
X514602D01*
X513867Y313195D01*
X513305Y312633D01*
X513000Y311898D01*
Y311102D01*
X513305Y310367D01*
X513867Y309805D01*
X514602Y309500D01*
X515398D01*
X516133Y309805D01*
X516695Y310367D01*
X517000Y311102D01*
Y311898D01*
X516695Y312633D01*
X516133Y313195D01*
X515398Y313500D01*
D02*
G37*
G36*
X510898D02*
X510102D01*
X509367Y313195D01*
X508805Y312633D01*
X508500Y311898D01*
Y311102D01*
X508805Y310367D01*
X509367Y309805D01*
X510102Y309500D01*
X510898D01*
X511633Y309805D01*
X512195Y310367D01*
X512500Y311102D01*
Y311898D01*
X512195Y312633D01*
X511633Y313195D01*
X510898Y313500D01*
D02*
G37*
G36*
X597398Y317000D02*
X596602D01*
X595867Y316695D01*
X595304Y316133D01*
X595000Y315398D01*
Y314602D01*
X595304Y313867D01*
X595867Y313304D01*
X596602Y313000D01*
X597398D01*
X597512Y313047D01*
X597795Y312623D01*
X597304Y312133D01*
X597000Y311398D01*
Y310602D01*
X597304Y309867D01*
X597867Y309304D01*
X598602Y309000D01*
X599398D01*
X600133Y309304D01*
X600423Y309595D01*
X600750Y309828D01*
X601077Y309595D01*
X601367Y309304D01*
X602102Y309000D01*
X602898D01*
X603633Y309304D01*
X604195Y309867D01*
X604250Y309999D01*
X604750D01*
X604805Y309867D01*
X605367Y309304D01*
X606102Y309000D01*
X606898D01*
X607633Y309304D01*
X608195Y309867D01*
X608500Y310602D01*
Y311398D01*
X608195Y312133D01*
X607633Y312696D01*
X606898Y313000D01*
X606102D01*
X605367Y312696D01*
X604805Y312133D01*
X604750Y312001D01*
X604250D01*
X604195Y312133D01*
X603633Y312696D01*
X602898Y313000D01*
X602102D01*
X601367Y312696D01*
X601077Y312405D01*
X600750Y312172D01*
X600423Y312405D01*
X600133Y312696D01*
X599398Y313000D01*
X598602D01*
X598488Y312953D01*
X598205Y313377D01*
X598696Y313867D01*
X599000Y314602D01*
Y315398D01*
X598696Y316133D01*
X598133Y316695D01*
X597398Y317000D01*
D02*
G37*
G36*
X461398Y309500D02*
X460602D01*
X459867Y309195D01*
X459305Y308633D01*
X459250Y308501D01*
X458750D01*
X458696Y308633D01*
X458133Y309195D01*
X457398Y309500D01*
X456602D01*
X455867Y309195D01*
X455304Y308633D01*
X455250Y308501D01*
X454750D01*
X454696Y308633D01*
X454133Y309195D01*
X453398Y309500D01*
X452602D01*
X451867Y309195D01*
X451304Y308633D01*
X451000Y307898D01*
Y307102D01*
X451304Y306367D01*
X451867Y305804D01*
X452602Y305500D01*
X453398D01*
X454133Y305804D01*
X454696Y306367D01*
X454750Y306499D01*
X455250D01*
X455304Y306367D01*
X455867Y305804D01*
X456602Y305500D01*
X457398D01*
X458133Y305804D01*
X458696Y306367D01*
X458750Y306499D01*
X459250D01*
X459305Y306367D01*
X459867Y305804D01*
X460602Y305500D01*
X461398D01*
X462133Y305804D01*
X462696Y306367D01*
X463000Y307102D01*
Y307898D01*
X462696Y308633D01*
X462133Y309195D01*
X461398Y309500D01*
D02*
G37*
G36*
X412398Y312500D02*
X411602D01*
X410867Y312195D01*
X410304Y311633D01*
X410000Y310898D01*
Y310102D01*
X410304Y309367D01*
X410867Y308804D01*
X411602Y308500D01*
X412398D01*
X413133Y308804D01*
X413695Y309367D01*
X414000Y310102D01*
Y310898D01*
X413695Y311633D01*
X413133Y312195D01*
X412398Y312500D01*
D02*
G37*
G36*
X397398D02*
X396602D01*
X395867Y312195D01*
X395304Y311633D01*
X395000Y310898D01*
Y310102D01*
X395304Y309367D01*
X395867Y308804D01*
X396602Y308500D01*
X397398D01*
X398133Y308804D01*
X398695Y309367D01*
X399000Y310102D01*
Y310898D01*
X398695Y311633D01*
X398133Y312195D01*
X397398Y312500D01*
D02*
G37*
G36*
X436898Y320000D02*
X436102D01*
X435367Y319695D01*
X434804Y319133D01*
X434500Y318398D01*
Y317602D01*
X434804Y316867D01*
X435367Y316304D01*
X435499Y316250D01*
Y315750D01*
X435367Y315696D01*
X434804Y315133D01*
X434500Y314398D01*
Y313602D01*
X434804Y312867D01*
X435367Y312304D01*
X435499Y312250D01*
Y311750D01*
X435367Y311696D01*
X434804Y311133D01*
X434500Y310398D01*
Y309602D01*
X434804Y308867D01*
X435367Y308305D01*
X436102Y308000D01*
X436898D01*
X437633Y308305D01*
X438196Y308867D01*
X438500Y309602D01*
Y310398D01*
X438196Y311133D01*
X437633Y311696D01*
X437501Y311750D01*
Y312250D01*
X437633Y312304D01*
X438196Y312867D01*
X438500Y313602D01*
Y314398D01*
X438196Y315133D01*
X437633Y315696D01*
X437501Y315750D01*
Y316250D01*
X437633Y316304D01*
X438196Y316867D01*
X438500Y317602D01*
Y318398D01*
X438196Y319133D01*
X437633Y319695D01*
X436898Y320000D01*
D02*
G37*
G36*
X555898Y308500D02*
X555102D01*
X554367Y308195D01*
X554000Y307828D01*
X553633Y308195D01*
X552898Y308500D01*
X552102D01*
X551367Y308195D01*
X550805Y307633D01*
X550500Y306898D01*
Y306102D01*
X550805Y305367D01*
X550922Y305250D01*
X550805Y305133D01*
X550500Y304398D01*
Y303602D01*
X550805Y302867D01*
X551367Y302305D01*
X552102Y302000D01*
X552898D01*
X553633Y302305D01*
X554000Y302672D01*
X554367Y302305D01*
X555102Y302000D01*
X555898D01*
X556633Y302305D01*
X557196Y302867D01*
X557500Y303602D01*
Y304398D01*
X557196Y305133D01*
X557078Y305250D01*
X557196Y305367D01*
X557500Y306102D01*
Y306898D01*
X557196Y307633D01*
X556633Y308195D01*
X555898Y308500D01*
D02*
G37*
G36*
X564898Y315000D02*
X564102D01*
X563367Y314696D01*
X562805Y314133D01*
X562500Y313398D01*
Y312602D01*
X562805Y311867D01*
X563095Y311577D01*
X563328Y311250D01*
X563095Y310923D01*
X562805Y310633D01*
X562500Y309898D01*
Y309102D01*
X562805Y308367D01*
X563367Y307804D01*
X564102Y307500D01*
X564898D01*
X565633Y307804D01*
X566195Y308367D01*
X566500Y309102D01*
Y309898D01*
X566195Y310633D01*
X565905Y310923D01*
X565672Y311250D01*
X565905Y311577D01*
X566195Y311867D01*
X566500Y312602D01*
Y313398D01*
X566195Y314133D01*
X565633Y314696D01*
X564898Y315000D01*
D02*
G37*
G36*
X370398Y309500D02*
X369602D01*
X368867Y309195D01*
X368304Y308633D01*
X368000Y307898D01*
Y307571D01*
X367500Y307237D01*
X367398Y307279D01*
X366602D01*
X365867Y306975D01*
X365304Y306412D01*
X365000Y305677D01*
Y304882D01*
X365304Y304147D01*
X365867Y303584D01*
X366602Y303279D01*
X367398D01*
X368133Y303584D01*
X368695Y304147D01*
X369000Y304882D01*
Y305208D01*
X369500Y305542D01*
X369602Y305500D01*
X370398D01*
X371133Y305804D01*
X371695Y306367D01*
X372000Y307102D01*
Y307898D01*
X371695Y308633D01*
X371133Y309195D01*
X370398Y309500D01*
D02*
G37*
G36*
X387398Y310500D02*
X386602D01*
X385867Y310195D01*
X385304Y309633D01*
X385000Y308898D01*
Y308102D01*
X385304Y307367D01*
X385867Y306804D01*
X386602Y306500D01*
X387398D01*
X388133Y306804D01*
X388696Y307367D01*
X389000Y308102D01*
Y308898D01*
X388696Y309633D01*
X388133Y310195D01*
X387398Y310500D01*
D02*
G37*
G36*
X317398D02*
X316602D01*
X315867Y310195D01*
X315304Y309633D01*
X315000Y308898D01*
Y308102D01*
X315304Y307367D01*
X315867Y306804D01*
X316602Y306500D01*
X317398D01*
X318133Y306804D01*
X318695Y307367D01*
X319000Y308102D01*
Y308898D01*
X318695Y309633D01*
X318133Y310195D01*
X317398Y310500D01*
D02*
G37*
G36*
X448898Y309500D02*
X448102D01*
X447367Y309195D01*
X446805Y308633D01*
X446500Y307898D01*
Y307102D01*
X446805Y306367D01*
X447367Y305804D01*
X448102Y305500D01*
X448898D01*
X449633Y305804D01*
X450196Y306367D01*
X450500Y307102D01*
Y307898D01*
X450196Y308633D01*
X449633Y309195D01*
X448898Y309500D01*
D02*
G37*
G36*
X412111Y307510D02*
X411315D01*
X410580Y307205D01*
X410018Y306643D01*
X409713Y305908D01*
Y305112D01*
X410018Y304377D01*
X410580Y303814D01*
X411315Y303510D01*
X412111D01*
X412846Y303814D01*
X413409Y304377D01*
X413713Y305112D01*
Y305908D01*
X413409Y306643D01*
X412846Y307205D01*
X412111Y307510D01*
D02*
G37*
G36*
X436898Y307500D02*
X436102D01*
X435367Y307195D01*
X434804Y306633D01*
X434500Y305898D01*
Y305102D01*
X434804Y304367D01*
X435367Y303804D01*
X436102Y303500D01*
X436898D01*
X437633Y303804D01*
X438196Y304367D01*
X438500Y305102D01*
Y305898D01*
X438196Y306633D01*
X437633Y307195D01*
X436898Y307500D01*
D02*
G37*
G36*
X241376Y310492D02*
X240325D01*
X239310Y310220D01*
X238399Y309695D01*
X237656Y308951D01*
X237130Y308041D01*
X236858Y307026D01*
Y305974D01*
X237130Y304959D01*
X237656Y304049D01*
X238399Y303306D01*
X239310Y302780D01*
X240325Y302508D01*
X241376D01*
X242391Y302780D01*
X243302Y303306D01*
X244045Y304049D01*
X244571Y304959D01*
X244843Y305974D01*
Y307026D01*
X244571Y308041D01*
X244045Y308951D01*
X243302Y309695D01*
X242391Y310220D01*
X241376Y310492D01*
D02*
G37*
G36*
X351398Y308500D02*
X350602D01*
X349867Y308195D01*
X349305Y307633D01*
X349000Y306898D01*
Y306102D01*
X349058Y305962D01*
X349028Y305876D01*
X348708Y305500D01*
X348102D01*
X347367Y305195D01*
X346804Y304633D01*
X346500Y303898D01*
Y303102D01*
X346804Y302367D01*
X347367Y301804D01*
X348102Y301500D01*
X348898D01*
X349633Y301804D01*
X350196Y302367D01*
X350500Y303102D01*
Y303898D01*
X350442Y304038D01*
X350472Y304124D01*
X350792Y304500D01*
X351398D01*
X352133Y304804D01*
X352695Y305367D01*
X353000Y306102D01*
Y306898D01*
X352695Y307633D01*
X352133Y308195D01*
X351398Y308500D01*
D02*
G37*
G36*
X613898Y301500D02*
X613102D01*
X612367Y301196D01*
X612077Y300905D01*
X611750Y300672D01*
X611423Y300905D01*
X611133Y301196D01*
X610398Y301500D01*
X609602D01*
X608867Y301196D01*
X608305Y300633D01*
X608250Y300501D01*
X607750D01*
X607695Y300633D01*
X607133Y301196D01*
X606398Y301500D01*
X605602D01*
X604867Y301196D01*
X604305Y300633D01*
X604250Y300501D01*
X603750D01*
X603695Y300633D01*
X603133Y301196D01*
X602398Y301500D01*
X601602D01*
X600867Y301196D01*
X600305Y300633D01*
X600250Y300501D01*
X599750D01*
X599695Y300633D01*
X599133Y301196D01*
X598398Y301500D01*
X597602D01*
X596867Y301196D01*
X596305Y300633D01*
X596000Y299898D01*
Y299102D01*
X596305Y298367D01*
X596867Y297804D01*
X597602Y297500D01*
X598398D01*
X599133Y297804D01*
X599695Y298367D01*
X599750Y298499D01*
X600250D01*
X600305Y298367D01*
X600867Y297804D01*
X601602Y297500D01*
X602398D01*
X603133Y297804D01*
X603695Y298367D01*
X603750Y298499D01*
X604250D01*
X604305Y298367D01*
X604867Y297804D01*
X605602Y297500D01*
X606398D01*
X607133Y297804D01*
X607695Y298367D01*
X607750Y298499D01*
X608250D01*
X608305Y298367D01*
X608867Y297804D01*
X609602Y297500D01*
X610398D01*
X611133Y297804D01*
X611423Y298095D01*
X611750Y298328D01*
X612077Y298095D01*
X612367Y297804D01*
X613102Y297500D01*
X613898D01*
X614633Y297804D01*
X615196Y298367D01*
X615500Y299102D01*
Y299898D01*
X615196Y300633D01*
X614633Y301196D01*
X613898Y301500D01*
D02*
G37*
G36*
X585898D02*
X585102D01*
X584367Y301196D01*
X584077Y300905D01*
X583750Y300672D01*
X583423Y300905D01*
X583133Y301196D01*
X582398Y301500D01*
X581602D01*
X580867Y301196D01*
X580577Y300905D01*
X580250Y300672D01*
X579923Y300905D01*
X579633Y301196D01*
X578898Y301500D01*
X578102D01*
X577367Y301196D01*
X576804Y300633D01*
X576750Y300501D01*
X576250D01*
X576195Y300633D01*
X575633Y301196D01*
X574898Y301500D01*
X574102D01*
X573367Y301196D01*
X572804Y300633D01*
X572500Y299898D01*
Y299102D01*
X572804Y298367D01*
X573367Y297804D01*
X574102Y297500D01*
X574898D01*
X575633Y297804D01*
X576195Y298367D01*
X576250Y298499D01*
X576750D01*
X576804Y298367D01*
X577367Y297804D01*
X578102Y297500D01*
X578898D01*
X579633Y297804D01*
X579923Y298095D01*
X580250Y298328D01*
X580577Y298095D01*
X580867Y297804D01*
X581602Y297500D01*
X582398D01*
X583133Y297804D01*
X583423Y298095D01*
X583750Y298328D01*
X584077Y298095D01*
X584367Y297804D01*
X585102Y297500D01*
X585898D01*
X586633Y297804D01*
X587195Y298367D01*
X587500Y299102D01*
Y299898D01*
X587195Y300633D01*
X586633Y301196D01*
X585898Y301500D01*
D02*
G37*
G36*
X502398Y301000D02*
X501602D01*
X500867Y300695D01*
X500305Y300133D01*
X500250Y300001D01*
X499750D01*
X499695Y300133D01*
X499133Y300695D01*
X498398Y301000D01*
X497602D01*
X496867Y300695D01*
X496305Y300133D01*
X496000Y299398D01*
Y298602D01*
X496305Y297867D01*
X496867Y297305D01*
X497602Y297000D01*
X498398D01*
X499133Y297305D01*
X499695Y297867D01*
X499750Y297999D01*
X500250D01*
X500305Y297867D01*
X500867Y297305D01*
X501602Y297000D01*
X502398D01*
X503133Y297305D01*
X503695Y297867D01*
X504000Y298602D01*
Y299398D01*
X503695Y300133D01*
X503133Y300695D01*
X502398Y301000D01*
D02*
G37*
G36*
X542898Y300500D02*
X542102D01*
X541367Y300196D01*
X540804Y299633D01*
X540750Y299501D01*
X540250D01*
X540196Y299633D01*
X539633Y300196D01*
X538898Y300500D01*
X538102D01*
X537367Y300196D01*
X536804Y299633D01*
X536500Y298898D01*
Y298102D01*
X536804Y297367D01*
X537367Y296804D01*
X538102Y296500D01*
X538898D01*
X539633Y296804D01*
X540196Y297367D01*
X540250Y297499D01*
X540750D01*
X540804Y297367D01*
X541367Y296804D01*
X542102Y296500D01*
X542898D01*
X543012Y296547D01*
X543295Y296123D01*
X542804Y295633D01*
X542500Y294898D01*
Y294102D01*
X542804Y293367D01*
X543367Y292805D01*
X544102Y292500D01*
X544898D01*
X545633Y292805D01*
X546196Y293367D01*
X546500Y294102D01*
Y294898D01*
X546196Y295633D01*
X545633Y296196D01*
X544898Y296500D01*
X544102D01*
X543988Y296453D01*
X543705Y296877D01*
X544196Y297367D01*
X544500Y298102D01*
Y298898D01*
X544196Y299633D01*
X543633Y300196D01*
X542898Y300500D01*
D02*
G37*
G36*
X355898Y303000D02*
X355102D01*
X354367Y302695D01*
X353804Y302133D01*
X353500Y301398D01*
Y300602D01*
X353804Y299867D01*
X354367Y299305D01*
X355102Y299000D01*
X355898D01*
X356633Y299305D01*
X357195Y299867D01*
X357500Y300602D01*
Y301398D01*
X357195Y302133D01*
X356633Y302695D01*
X355898Y303000D01*
D02*
G37*
G36*
X392398Y302500D02*
X391602D01*
X390867Y302196D01*
X390304Y301633D01*
X390000Y300898D01*
Y300102D01*
X390304Y299367D01*
X390867Y298804D01*
X391602Y298500D01*
X392398D01*
X393133Y298804D01*
X393695Y299367D01*
X394000Y300102D01*
Y300898D01*
X393695Y301633D01*
X393133Y302196D01*
X392398Y302500D01*
D02*
G37*
G36*
X522898Y301000D02*
X522102D01*
X521367Y300695D01*
X520805Y300133D01*
X520500Y299398D01*
Y298602D01*
X520805Y297867D01*
X521367Y297305D01*
X522102Y297000D01*
X522898D01*
X523633Y297305D01*
X524195Y297867D01*
X524500Y298602D01*
Y299398D01*
X524195Y300133D01*
X523633Y300695D01*
X522898Y301000D01*
D02*
G37*
G36*
X515898D02*
X515102D01*
X514367Y300695D01*
X513804Y300133D01*
X513500Y299398D01*
Y298602D01*
X513804Y297867D01*
X514367Y297305D01*
X515102Y297000D01*
X515898D01*
X516633Y297305D01*
X517196Y297867D01*
X517500Y298602D01*
Y299398D01*
X517196Y300133D01*
X516633Y300695D01*
X515898Y301000D01*
D02*
G37*
G36*
X511398D02*
X510602D01*
X509867Y300695D01*
X509305Y300133D01*
X509000Y299398D01*
Y298602D01*
X509305Y297867D01*
X509867Y297305D01*
X510602Y297000D01*
X511398D01*
X512133Y297305D01*
X512696Y297867D01*
X513000Y298602D01*
Y299398D01*
X512696Y300133D01*
X512133Y300695D01*
X511398Y301000D01*
D02*
G37*
G36*
X493898D02*
X493102D01*
X492367Y300695D01*
X491805Y300133D01*
X491500Y299398D01*
Y298602D01*
X491805Y297867D01*
X492367Y297305D01*
X493102Y297000D01*
X493898D01*
X494633Y297305D01*
X495195Y297867D01*
X495500Y298602D01*
Y299398D01*
X495195Y300133D01*
X494633Y300695D01*
X493898Y301000D01*
D02*
G37*
G36*
X489398D02*
X488602D01*
X487867Y300695D01*
X487304Y300133D01*
X487000Y299398D01*
Y298602D01*
X487304Y297867D01*
X487867Y297305D01*
X488602Y297000D01*
X489398D01*
X490133Y297305D01*
X490695Y297867D01*
X491000Y298602D01*
Y299398D01*
X490695Y300133D01*
X490133Y300695D01*
X489398Y301000D01*
D02*
G37*
G36*
X484898D02*
X484102D01*
X483367Y300695D01*
X482804Y300133D01*
X482500Y299398D01*
Y298602D01*
X482804Y297867D01*
X483367Y297305D01*
X484102Y297000D01*
X484898D01*
X485633Y297305D01*
X486196Y297867D01*
X486500Y298602D01*
Y299398D01*
X486196Y300133D01*
X485633Y300695D01*
X484898Y301000D01*
D02*
G37*
G36*
X480398D02*
X479602D01*
X478867Y300695D01*
X478304Y300133D01*
X478000Y299398D01*
Y298602D01*
X478304Y297867D01*
X478867Y297305D01*
X479602Y297000D01*
X480398D01*
X481133Y297305D01*
X481696Y297867D01*
X482000Y298602D01*
Y299398D01*
X481696Y300133D01*
X481133Y300695D01*
X480398Y301000D01*
D02*
G37*
G36*
X565398Y300000D02*
X564602D01*
X563867Y299695D01*
X563305Y299133D01*
X563000Y298398D01*
Y297602D01*
X563249Y297000D01*
X563147Y296654D01*
X563005Y296460D01*
X562367Y296196D01*
X561804Y295633D01*
X561750Y295501D01*
X561250D01*
X561196Y295633D01*
X560633Y296196D01*
X559898Y296500D01*
X559102D01*
X558367Y296196D01*
X557804Y295633D01*
X557750Y295501D01*
X557250D01*
X557196Y295633D01*
X556633Y296196D01*
X555898Y296500D01*
X555102D01*
X554367Y296196D01*
X553804Y295633D01*
X553500Y294898D01*
Y294102D01*
X553804Y293367D01*
X554367Y292805D01*
X555102Y292500D01*
X555898D01*
X556633Y292805D01*
X557196Y293367D01*
X557250Y293499D01*
X557750D01*
X557804Y293367D01*
X558367Y292805D01*
X559102Y292500D01*
X559898D01*
X560633Y292805D01*
X561196Y293367D01*
X561250Y293499D01*
X561750D01*
X561804Y293367D01*
X562367Y292805D01*
X563102Y292500D01*
X563898D01*
X564633Y292805D01*
X565196Y293367D01*
X565500Y294102D01*
Y294898D01*
X565251Y295500D01*
X565353Y295847D01*
X565495Y296040D01*
X566133Y296304D01*
X566695Y296867D01*
X567000Y297602D01*
Y298398D01*
X566695Y299133D01*
X566133Y299695D01*
X565398Y300000D01*
D02*
G37*
G36*
X318898Y303500D02*
X318102D01*
X317367Y303196D01*
X316805Y302633D01*
X316500Y301898D01*
Y301102D01*
X316805Y300367D01*
X317367Y299804D01*
X318102Y299500D01*
X318898D01*
X319633Y299804D01*
X320187Y299651D01*
X320304Y299367D01*
X320867Y298804D01*
X320882Y298798D01*
X320979Y298308D01*
X320805Y298133D01*
X320500Y297398D01*
Y296602D01*
X320805Y295867D01*
X321367Y295304D01*
X322102Y295000D01*
X322898D01*
X323633Y295304D01*
X324196Y295867D01*
X324500Y296602D01*
Y297398D01*
X324196Y298133D01*
X323633Y298695D01*
X323618Y298702D01*
X323520Y299192D01*
X323695Y299367D01*
X324000Y300102D01*
Y300898D01*
X323695Y301633D01*
X323133Y302196D01*
X322398Y302500D01*
X321602D01*
X320867Y302196D01*
X320313Y302349D01*
X320196Y302633D01*
X319633Y303196D01*
X318898Y303500D01*
D02*
G37*
G36*
X416398Y298441D02*
X415602D01*
X414867Y298136D01*
X414304Y297574D01*
X414000Y296839D01*
Y296043D01*
X414304Y295308D01*
X414867Y294745D01*
X415602Y294441D01*
X416398D01*
X417133Y294745D01*
X417696Y295308D01*
X418000Y296043D01*
Y296839D01*
X417696Y297574D01*
X417133Y298136D01*
X416398Y298441D01*
D02*
G37*
G36*
X475398Y297000D02*
X474602D01*
X473867Y296695D01*
X473305Y296133D01*
X473000Y295398D01*
Y294602D01*
X473305Y293867D01*
X473867Y293304D01*
X474602Y293000D01*
X475398D01*
X476133Y293304D01*
X476695Y293867D01*
X477000Y294602D01*
Y295398D01*
X476695Y296133D01*
X476133Y296695D01*
X475398Y297000D01*
D02*
G37*
G36*
X470898D02*
X470102D01*
X469367Y296695D01*
X468805Y296133D01*
X468500Y295398D01*
Y294602D01*
X468805Y293867D01*
X469367Y293304D01*
X470102Y293000D01*
X470898D01*
X471633Y293304D01*
X472195Y293867D01*
X472500Y294602D01*
Y295398D01*
X472195Y296133D01*
X471633Y296695D01*
X470898Y297000D01*
D02*
G37*
G36*
X466398D02*
X465602D01*
X464867Y296695D01*
X464304Y296133D01*
X464000Y295398D01*
Y294602D01*
X464304Y293867D01*
X464867Y293304D01*
X465602Y293000D01*
X466398D01*
X467133Y293304D01*
X467696Y293867D01*
X468000Y294602D01*
Y295398D01*
X467696Y296133D01*
X467133Y296695D01*
X466398Y297000D01*
D02*
G37*
G36*
X301898D02*
X301102D01*
X300367Y296695D01*
X299804Y296133D01*
X299500Y295398D01*
Y294602D01*
X299804Y293867D01*
X300367Y293304D01*
X301102Y293000D01*
X301898D01*
X302633Y293304D01*
X303196Y293867D01*
X303500Y294602D01*
Y295398D01*
X303196Y296133D01*
X302633Y296695D01*
X301898Y297000D01*
D02*
G37*
G36*
X241376Y300492D02*
X240325D01*
X239310Y300220D01*
X238399Y299694D01*
X237656Y298951D01*
X237130Y298041D01*
X236858Y297026D01*
Y295974D01*
X237130Y294959D01*
X237656Y294049D01*
X238399Y293305D01*
X239310Y292780D01*
X240325Y292508D01*
X241376D01*
X242391Y292780D01*
X243302Y293305D01*
X244045Y294049D01*
X244571Y294959D01*
X244843Y295974D01*
Y297026D01*
X244571Y298041D01*
X244045Y298951D01*
X243302Y299694D01*
X242391Y300220D01*
X241376Y300492D01*
D02*
G37*
G36*
X549398Y296500D02*
X548602D01*
X547867Y296196D01*
X547304Y295633D01*
X547000Y294898D01*
Y294102D01*
X547304Y293367D01*
X547867Y292805D01*
X548602Y292500D01*
X549398D01*
X550133Y292805D01*
X550696Y293367D01*
X551000Y294102D01*
Y294898D01*
X550696Y295633D01*
X550133Y296196D01*
X549398Y296500D01*
D02*
G37*
G36*
X412323Y295500D02*
X411527D01*
X410792Y295196D01*
X410230Y294633D01*
X409925Y293898D01*
Y293102D01*
X410230Y292367D01*
X410792Y291805D01*
X411527Y291500D01*
X412323D01*
X413058Y291805D01*
X413621Y292367D01*
X413925Y293102D01*
Y293898D01*
X413621Y294633D01*
X413058Y295196D01*
X412323Y295500D01*
D02*
G37*
G36*
X460898Y295000D02*
X460102D01*
X459367Y294695D01*
X458805Y294133D01*
X458500Y293398D01*
Y292602D01*
X458805Y291867D01*
X459367Y291304D01*
X460102Y291000D01*
X460898D01*
X461633Y291304D01*
X462195Y291867D01*
X462500Y292602D01*
Y293398D01*
X462195Y294133D01*
X461633Y294695D01*
X460898Y295000D01*
D02*
G37*
G36*
X455898D02*
X455102D01*
X454367Y294695D01*
X453804Y294133D01*
X453500Y293398D01*
Y292602D01*
X453804Y291867D01*
X454367Y291304D01*
X455102Y291000D01*
X455898D01*
X456633Y291304D01*
X457196Y291867D01*
X457500Y292602D01*
Y293398D01*
X457196Y294133D01*
X456633Y294695D01*
X455898Y295000D01*
D02*
G37*
G36*
X451398D02*
X450602D01*
X449867Y294695D01*
X449304Y294133D01*
X449000Y293398D01*
Y292602D01*
X449304Y291867D01*
X449867Y291304D01*
X450602Y291000D01*
X451398D01*
X452133Y291304D01*
X452696Y291867D01*
X453000Y292602D01*
Y293398D01*
X452696Y294133D01*
X452133Y294695D01*
X451398Y295000D01*
D02*
G37*
G36*
X446898D02*
X446102D01*
X445367Y294695D01*
X444804Y294133D01*
X444500Y293398D01*
Y292602D01*
X444804Y291867D01*
X445367Y291304D01*
X446102Y291000D01*
X446898D01*
X447633Y291304D01*
X448196Y291867D01*
X448500Y292602D01*
Y293398D01*
X448196Y294133D01*
X447633Y294695D01*
X446898Y295000D01*
D02*
G37*
G36*
X396398Y294500D02*
X395602D01*
X394867Y294196D01*
X394304Y293633D01*
X394000Y292898D01*
Y292102D01*
X394304Y291367D01*
X394867Y290805D01*
X395602Y290500D01*
X396398D01*
X397133Y290805D01*
X397695Y291367D01*
X398000Y292102D01*
Y292898D01*
X397695Y293633D01*
X397133Y294196D01*
X396398Y294500D01*
D02*
G37*
G36*
X370566Y297020D02*
X369771D01*
X369036Y296716D01*
X368473Y296153D01*
X368169Y295418D01*
Y294622D01*
X368235Y294462D01*
X367917Y293923D01*
X367367Y293695D01*
X366805Y293133D01*
X366500Y292398D01*
Y291602D01*
X366805Y290867D01*
X367367Y290304D01*
X368102Y290000D01*
X368898D01*
X369633Y290304D01*
X370196Y290867D01*
X370500Y291602D01*
Y292398D01*
X370434Y292558D01*
X370752Y293097D01*
X371302Y293324D01*
X371864Y293887D01*
X372169Y294622D01*
Y295418D01*
X371864Y296153D01*
X371302Y296716D01*
X370566Y297020D01*
D02*
G37*
G36*
X544898Y290500D02*
X544102D01*
X543367Y290195D01*
X542804Y289633D01*
X542500Y288898D01*
Y288102D01*
X542804Y287367D01*
X543367Y286805D01*
X544102Y286500D01*
X544898D01*
X545633Y286805D01*
X546196Y287367D01*
X546500Y288102D01*
Y288898D01*
X546196Y289633D01*
X545633Y290195D01*
X544898Y290500D01*
D02*
G37*
G36*
X562898Y290000D02*
X562102D01*
X561367Y289696D01*
X560805Y289133D01*
X560500Y288398D01*
Y287602D01*
X560805Y286867D01*
X561367Y286304D01*
X562102Y286000D01*
X562898D01*
X563633Y286304D01*
X564195Y286867D01*
X564500Y287602D01*
Y288398D01*
X564195Y289133D01*
X563633Y289696D01*
X562898Y290000D01*
D02*
G37*
G36*
X388398Y289000D02*
X387602D01*
X386867Y288696D01*
X386304Y288133D01*
X386000Y287398D01*
Y286602D01*
X386304Y285867D01*
X386867Y285304D01*
X387602Y285000D01*
X388398D01*
X389133Y285304D01*
X389696Y285867D01*
X390000Y286602D01*
Y287398D01*
X389696Y288133D01*
X389133Y288696D01*
X388398Y289000D01*
D02*
G37*
G36*
X241376Y290492D02*
X240325D01*
X239310Y290220D01*
X238399Y289694D01*
X237656Y288951D01*
X237130Y288041D01*
X236858Y287026D01*
Y285974D01*
X237130Y284959D01*
X237656Y284049D01*
X238399Y283306D01*
X239310Y282780D01*
X240325Y282508D01*
X241376D01*
X242391Y282780D01*
X243302Y283306D01*
X244045Y284049D01*
X244571Y284959D01*
X244843Y285974D01*
Y287026D01*
X244571Y288041D01*
X244045Y288951D01*
X243302Y289694D01*
X242391Y290220D01*
X241376Y290492D01*
D02*
G37*
G36*
X332734Y285019D02*
X331938D01*
X331203Y284715D01*
X330641Y284152D01*
X330336Y283417D01*
Y282622D01*
X330641Y281887D01*
X331203Y281324D01*
X331938Y281019D01*
X332734D01*
X333469Y281324D01*
X334032Y281887D01*
X334336Y282622D01*
Y283417D01*
X334032Y284152D01*
X333469Y284715D01*
X332734Y285019D01*
D02*
G37*
G36*
X558398Y285000D02*
X557602D01*
X556867Y284696D01*
X556305Y284133D01*
X556000Y283398D01*
Y282602D01*
X556305Y281867D01*
X556867Y281305D01*
X557602Y281000D01*
X558398D01*
X559133Y281305D01*
X559695Y281867D01*
X560000Y282602D01*
Y283398D01*
X559695Y284133D01*
X559133Y284696D01*
X558398Y285000D01*
D02*
G37*
G36*
X552898D02*
X552102D01*
X551367Y284696D01*
X550805Y284133D01*
X550500Y283398D01*
Y282602D01*
X550805Y281867D01*
X551367Y281305D01*
X552102Y281000D01*
X552898D01*
X553633Y281305D01*
X554195Y281867D01*
X554500Y282602D01*
Y283398D01*
X554195Y284133D01*
X553633Y284696D01*
X552898Y285000D01*
D02*
G37*
G36*
X547398D02*
X546602D01*
X545867Y284696D01*
X545304Y284133D01*
X545000Y283398D01*
Y282602D01*
X545304Y281867D01*
X545867Y281305D01*
X546602Y281000D01*
X547398D01*
X548133Y281305D01*
X548696Y281867D01*
X549000Y282602D01*
Y283398D01*
X548696Y284133D01*
X548133Y284696D01*
X547398Y285000D01*
D02*
G37*
G36*
X528898D02*
X528102D01*
X527367Y284696D01*
X526804Y284133D01*
X526500Y283398D01*
Y282602D01*
X526804Y281867D01*
X527367Y281305D01*
X528102Y281000D01*
X528898D01*
X529633Y281305D01*
X530196Y281867D01*
X530500Y282602D01*
Y283398D01*
X530196Y284133D01*
X529633Y284696D01*
X528898Y285000D01*
D02*
G37*
G36*
X367898Y284500D02*
X367102D01*
X366367Y284195D01*
X365805Y283633D01*
X365500Y282898D01*
Y282102D01*
X365805Y281367D01*
X366367Y280804D01*
X367102Y280500D01*
X367898D01*
X368633Y280804D01*
X369196Y281367D01*
X369500Y282102D01*
Y282898D01*
X369196Y283633D01*
X368633Y284195D01*
X367898Y284500D01*
D02*
G37*
G36*
X411060Y284179D02*
X410265D01*
X409529Y283874D01*
X408967Y283312D01*
X408662Y282576D01*
Y281781D01*
X408967Y281046D01*
X409529Y280483D01*
X410265Y280179D01*
X411060D01*
X411795Y280483D01*
X412358Y281046D01*
X412662Y281781D01*
Y282576D01*
X412358Y283312D01*
X411795Y283874D01*
X411060Y284179D01*
D02*
G37*
G36*
X417898Y283500D02*
X417102D01*
X416367Y283195D01*
X415804Y282633D01*
X415500Y281898D01*
Y281102D01*
X415804Y280367D01*
X416367Y279804D01*
X417102Y279500D01*
X417898D01*
X418633Y279804D01*
X419196Y280367D01*
X419500Y281102D01*
Y281898D01*
X419196Y282633D01*
X418633Y283195D01*
X417898Y283500D01*
D02*
G37*
G36*
X425398Y283000D02*
X424602D01*
X423867Y282696D01*
X423305Y282133D01*
X423000Y281398D01*
Y280602D01*
X423305Y279867D01*
X423867Y279305D01*
X424602Y279000D01*
X425398D01*
X426133Y279305D01*
X426695Y279867D01*
X427000Y280602D01*
Y281398D01*
X426695Y282133D01*
X426133Y282696D01*
X425398Y283000D01*
D02*
G37*
G36*
X332734Y280519D02*
X331938D01*
X331203Y280215D01*
X330641Y279652D01*
X330336Y278917D01*
Y278122D01*
X330641Y277386D01*
X331203Y276824D01*
X331335Y276769D01*
Y276269D01*
X331203Y276215D01*
X330641Y275652D01*
X330336Y274917D01*
Y274122D01*
X330641Y273387D01*
X331203Y272824D01*
X331938Y272519D01*
X332734D01*
X333469Y272824D01*
X334032Y273387D01*
X334336Y274122D01*
Y274917D01*
X334032Y275652D01*
X333469Y276215D01*
X333338Y276269D01*
Y276769D01*
X333469Y276824D01*
X334032Y277386D01*
X334336Y278122D01*
Y278917D01*
X334032Y279652D01*
X333469Y280215D01*
X332734Y280519D01*
D02*
G37*
G36*
X241376Y280492D02*
X240325D01*
X239310Y280220D01*
X238399Y279695D01*
X237656Y278951D01*
X237130Y278041D01*
X236858Y277026D01*
Y275974D01*
X237130Y274959D01*
X237656Y274049D01*
X238399Y273306D01*
X239310Y272780D01*
X240325Y272508D01*
X241376D01*
X242391Y272780D01*
X243302Y273306D01*
X244045Y274049D01*
X244571Y274959D01*
X244843Y275974D01*
Y277026D01*
X244571Y278041D01*
X244045Y278951D01*
X243302Y279695D01*
X242391Y280220D01*
X241376Y280492D01*
D02*
G37*
G36*
X350914Y276016D02*
X350118D01*
X349383Y275711D01*
X348820Y275149D01*
X348516Y274414D01*
Y273618D01*
X348820Y272883D01*
X349383Y272320D01*
X350118Y272016D01*
X350914D01*
X351649Y272320D01*
X352211Y272883D01*
X352516Y273618D01*
Y274414D01*
X352211Y275149D01*
X351649Y275711D01*
X350914Y276016D01*
D02*
G37*
G36*
X697898Y270500D02*
X697102D01*
X696367Y270196D01*
X696077Y269905D01*
X695750Y269672D01*
X695423Y269905D01*
X695133Y270196D01*
X694398Y270500D01*
X693602D01*
X692867Y270196D01*
X692577Y269905D01*
X692250Y269672D01*
X691923Y269905D01*
X691633Y270196D01*
X690898Y270500D01*
X690102D01*
X689367Y270196D01*
X689077Y269905D01*
X688750Y269672D01*
X688423Y269905D01*
X688133Y270196D01*
X687398Y270500D01*
X686602D01*
X685867Y270196D01*
X685304Y269633D01*
X685000Y268898D01*
Y268102D01*
X685304Y267367D01*
X685867Y266805D01*
X686602Y266500D01*
X687398D01*
X688133Y266805D01*
X688423Y267095D01*
X688750Y267328D01*
X689077Y267095D01*
X689367Y266805D01*
X690102Y266500D01*
X690898D01*
X691633Y266805D01*
X691923Y267095D01*
X692250Y267328D01*
X692577Y267095D01*
X692867Y266805D01*
X693602Y266500D01*
X694398D01*
X695133Y266805D01*
X695423Y267095D01*
X695750Y267328D01*
X696077Y267095D01*
X696367Y266805D01*
X697102Y266500D01*
X697898D01*
X698633Y266805D01*
X699195Y267367D01*
X699500Y268102D01*
Y268898D01*
X699195Y269633D01*
X698633Y270196D01*
X697898Y270500D01*
D02*
G37*
G36*
X533898Y273000D02*
X533102D01*
X532367Y272695D01*
X531805Y272133D01*
X531500Y271398D01*
Y270602D01*
X531805Y269867D01*
X532367Y269304D01*
X533102Y269000D01*
X533898D01*
X534633Y269304D01*
X535195Y269867D01*
X535500Y270602D01*
Y271398D01*
X535195Y272133D01*
X534633Y272695D01*
X533898Y273000D01*
D02*
G37*
G36*
X405407Y272009D02*
X404611D01*
X403876Y271704D01*
X403313Y271142D01*
X403009Y270407D01*
Y269611D01*
X403313Y268876D01*
X403876Y268313D01*
X404611Y268009D01*
X405407D01*
X406142Y268313D01*
X406704Y268876D01*
X407009Y269611D01*
Y270407D01*
X406704Y271142D01*
X406142Y271704D01*
X405407Y272009D01*
D02*
G37*
G36*
X300898Y272000D02*
X300102D01*
X299367Y271695D01*
X298804Y271133D01*
X298500Y270398D01*
Y269602D01*
X298804Y268867D01*
X299367Y268304D01*
X300102Y268000D01*
X300898D01*
X301633Y268304D01*
X302196Y268867D01*
X302500Y269602D01*
Y270398D01*
X302196Y271133D01*
X301633Y271695D01*
X300898Y272000D01*
D02*
G37*
G36*
X305704Y267693D02*
X304909D01*
X304174Y267388D01*
X303611Y266826D01*
X303307Y266090D01*
Y265295D01*
X303611Y264560D01*
X304174Y263997D01*
X304909Y263693D01*
X305704D01*
X306439Y263997D01*
X307002Y264560D01*
X307307Y265295D01*
Y266090D01*
X307002Y266826D01*
X306439Y267388D01*
X305704Y267693D01*
D02*
G37*
G36*
X241376Y270492D02*
X240325D01*
X239310Y270220D01*
X238399Y269694D01*
X237656Y268951D01*
X237130Y268041D01*
X236858Y267026D01*
Y265974D01*
X237130Y264959D01*
X237656Y264049D01*
X238399Y263305D01*
X239310Y262780D01*
X240325Y262508D01*
X241376D01*
X242391Y262780D01*
X243302Y263305D01*
X244045Y264049D01*
X244571Y264959D01*
X244843Y265974D01*
Y267026D01*
X244571Y268041D01*
X244045Y268951D01*
X243302Y269694D01*
X242391Y270220D01*
X241376Y270492D01*
D02*
G37*
G36*
X343398Y263000D02*
X342602D01*
X341867Y262696D01*
X341304Y262133D01*
X341000Y261398D01*
Y260602D01*
X341304Y259867D01*
X341867Y259304D01*
X342602Y259000D01*
X343208D01*
X343528Y258624D01*
X343558Y258538D01*
X343500Y258398D01*
Y257602D01*
X343805Y256867D01*
X344367Y256305D01*
X345102Y256000D01*
X345898D01*
X346633Y256305D01*
X347196Y256867D01*
X347500Y257602D01*
Y258398D01*
X347196Y259133D01*
X346633Y259696D01*
X345898Y260000D01*
X345292D01*
X344972Y260376D01*
X344942Y260462D01*
X345000Y260602D01*
Y261398D01*
X344695Y262133D01*
X344133Y262696D01*
X343398Y263000D01*
D02*
G37*
G36*
X422398Y259000D02*
X421602D01*
X420867Y258696D01*
X420304Y258133D01*
X420000Y257398D01*
Y256602D01*
X420304Y255867D01*
X420867Y255305D01*
X421602Y255000D01*
X422398D01*
X423133Y255305D01*
X423696Y255867D01*
X424000Y256602D01*
Y257398D01*
X423696Y258133D01*
X423133Y258696D01*
X422398Y259000D01*
D02*
G37*
G36*
X404398Y258500D02*
X403602D01*
X402867Y258195D01*
X402305Y257633D01*
X402000Y256898D01*
Y256102D01*
X402305Y255367D01*
X402867Y254804D01*
X403602Y254500D01*
X404398D01*
X405133Y254804D01*
X405695Y255367D01*
X406000Y256102D01*
Y256898D01*
X405695Y257633D01*
X405133Y258195D01*
X404398Y258500D01*
D02*
G37*
G36*
X399898D02*
X399102D01*
X398367Y258195D01*
X397804Y257633D01*
X397500Y256898D01*
Y256102D01*
X397804Y255367D01*
X398367Y254804D01*
X399102Y254500D01*
X399898D01*
X400633Y254804D01*
X401195Y255367D01*
X401500Y256102D01*
Y256898D01*
X401195Y257633D01*
X400633Y258195D01*
X399898Y258500D01*
D02*
G37*
G36*
X394898D02*
X394102D01*
X393367Y258195D01*
X392805Y257633D01*
X392500Y256898D01*
Y256102D01*
X392805Y255367D01*
X393367Y254804D01*
X394102Y254500D01*
X394898D01*
X395633Y254804D01*
X396196Y255367D01*
X396500Y256102D01*
Y256898D01*
X396196Y257633D01*
X395633Y258195D01*
X394898Y258500D01*
D02*
G37*
G36*
X389398D02*
X388602D01*
X387867Y258195D01*
X387304Y257633D01*
X387000Y256898D01*
Y256102D01*
X387304Y255367D01*
X387867Y254804D01*
X388602Y254500D01*
X389398D01*
X390133Y254804D01*
X390696Y255367D01*
X391000Y256102D01*
Y256898D01*
X390696Y257633D01*
X390133Y258195D01*
X389398Y258500D01*
D02*
G37*
G36*
X241376Y260492D02*
X240325D01*
X239310Y260220D01*
X238399Y259695D01*
X237656Y258951D01*
X237130Y258041D01*
X236858Y257026D01*
Y255974D01*
X237130Y254959D01*
X237656Y254049D01*
X238399Y253306D01*
X239310Y252780D01*
X240325Y252508D01*
X241376D01*
X242391Y252780D01*
X243302Y253306D01*
X244045Y254049D01*
X244571Y254959D01*
X244843Y255974D01*
Y257026D01*
X244571Y258041D01*
X244045Y258951D01*
X243302Y259695D01*
X242391Y260220D01*
X241376Y260492D01*
D02*
G37*
G36*
X333898Y255500D02*
X333102D01*
X332367Y255195D01*
X331804Y254633D01*
X331500Y253898D01*
Y253102D01*
X331804Y252367D01*
X332367Y251804D01*
X333102Y251500D01*
X333898D01*
X334633Y251804D01*
X335195Y252367D01*
X335500Y253102D01*
Y253898D01*
X335195Y254633D01*
X334633Y255195D01*
X333898Y255500D01*
D02*
G37*
G36*
X434898Y252000D02*
X434102D01*
X433367Y251695D01*
X432804Y251133D01*
X432500Y250398D01*
Y249602D01*
X432804Y248867D01*
X433367Y248305D01*
X434102Y248000D01*
X434898D01*
X435633Y248305D01*
X436196Y248867D01*
X436500Y249602D01*
Y250398D01*
X436196Y251133D01*
X435633Y251695D01*
X434898Y252000D01*
D02*
G37*
G36*
X697898Y248500D02*
X697102D01*
X696367Y248196D01*
X696077Y247905D01*
X695750Y247672D01*
X695423Y247905D01*
X695133Y248196D01*
X694398Y248500D01*
X693602D01*
X692867Y248196D01*
X692577Y247905D01*
X692250Y247672D01*
X691923Y247905D01*
X691633Y248196D01*
X690898Y248500D01*
X690102D01*
X689367Y248196D01*
X689077Y247905D01*
X688750Y247672D01*
X688423Y247905D01*
X688133Y248196D01*
X687398Y248500D01*
X686602D01*
X685867Y248196D01*
X685304Y247633D01*
X685000Y246898D01*
Y246102D01*
X685304Y245367D01*
X685867Y244805D01*
X686602Y244500D01*
X687398D01*
X688133Y244805D01*
X688423Y245095D01*
X688750Y245328D01*
X689077Y245095D01*
X689367Y244805D01*
X690102Y244500D01*
X690898D01*
X691633Y244805D01*
X691923Y245095D01*
X692250Y245328D01*
X692577Y245095D01*
X692867Y244805D01*
X693602Y244500D01*
X694398D01*
X695133Y244805D01*
X695423Y245095D01*
X695750Y245328D01*
X696077Y245095D01*
X696367Y244805D01*
X697102Y244500D01*
X697898D01*
X698633Y244805D01*
X699195Y245367D01*
X699500Y246102D01*
Y246898D01*
X699195Y247633D01*
X698633Y248196D01*
X697898Y248500D01*
D02*
G37*
G36*
X514898Y251500D02*
X514102D01*
X513367Y251196D01*
X512805Y250633D01*
X512500Y249898D01*
Y249102D01*
X512805Y248367D01*
X513367Y247804D01*
X514102Y247500D01*
X514898D01*
X515633Y247804D01*
X516195Y248367D01*
X516500Y249102D01*
Y249898D01*
X516195Y250633D01*
X515633Y251196D01*
X514898Y251500D01*
D02*
G37*
G36*
X509398D02*
X508602D01*
X507867Y251196D01*
X507304Y250633D01*
X507000Y249898D01*
Y249102D01*
X507304Y248367D01*
X507867Y247804D01*
X508602Y247500D01*
X509398D01*
X510133Y247804D01*
X510696Y248367D01*
X511000Y249102D01*
Y249898D01*
X510696Y250633D01*
X510133Y251196D01*
X509398Y251500D01*
D02*
G37*
G36*
X503398D02*
X502602D01*
X501867Y251196D01*
X501304Y250633D01*
X501000Y249898D01*
Y249102D01*
X501304Y248367D01*
X501867Y247804D01*
X502602Y247500D01*
X503398D01*
X504133Y247804D01*
X504696Y248367D01*
X505000Y249102D01*
Y249898D01*
X504696Y250633D01*
X504133Y251196D01*
X503398Y251500D01*
D02*
G37*
G36*
X497898D02*
X497102D01*
X496367Y251196D01*
X495805Y250633D01*
X495500Y249898D01*
Y249102D01*
X495805Y248367D01*
X496367Y247804D01*
X497102Y247500D01*
X497898D01*
X498633Y247804D01*
X499195Y248367D01*
X499500Y249102D01*
Y249898D01*
X499195Y250633D01*
X498633Y251196D01*
X497898Y251500D01*
D02*
G37*
G36*
X492398D02*
X491602D01*
X490867Y251196D01*
X490305Y250633D01*
X490000Y249898D01*
Y249102D01*
X490305Y248367D01*
X490867Y247804D01*
X491602Y247500D01*
X492398D01*
X493133Y247804D01*
X493695Y248367D01*
X494000Y249102D01*
Y249898D01*
X493695Y250633D01*
X493133Y251196D01*
X492398Y251500D01*
D02*
G37*
G36*
X486898D02*
X486102D01*
X485367Y251196D01*
X484804Y250633D01*
X484500Y249898D01*
Y249102D01*
X484804Y248367D01*
X485367Y247804D01*
X486102Y247500D01*
X486898D01*
X487633Y247804D01*
X488196Y248367D01*
X488500Y249102D01*
Y249898D01*
X488196Y250633D01*
X487633Y251196D01*
X486898Y251500D01*
D02*
G37*
G36*
X481398D02*
X480602D01*
X479867Y251196D01*
X479305Y250633D01*
X479000Y249898D01*
Y249102D01*
X479305Y248367D01*
X479867Y247804D01*
X480602Y247500D01*
X481398D01*
X482133Y247804D01*
X482695Y248367D01*
X483000Y249102D01*
Y249898D01*
X482695Y250633D01*
X482133Y251196D01*
X481398Y251500D01*
D02*
G37*
G36*
X475898D02*
X475102D01*
X474367Y251196D01*
X473805Y250633D01*
X473500Y249898D01*
Y249102D01*
X473805Y248367D01*
X474367Y247804D01*
X475102Y247500D01*
X475898D01*
X476633Y247804D01*
X477196Y248367D01*
X477500Y249102D01*
Y249898D01*
X477196Y250633D01*
X476633Y251196D01*
X475898Y251500D01*
D02*
G37*
G36*
X470398D02*
X469602D01*
X468867Y251196D01*
X468304Y250633D01*
X468000Y249898D01*
Y249102D01*
X468304Y248367D01*
X468867Y247804D01*
X469602Y247500D01*
X470398D01*
X471133Y247804D01*
X471696Y248367D01*
X472000Y249102D01*
Y249898D01*
X471696Y250633D01*
X471133Y251196D01*
X470398Y251500D01*
D02*
G37*
G36*
X464398D02*
X463602D01*
X462867Y251196D01*
X462304Y250633D01*
X462000Y249898D01*
Y249102D01*
X462304Y248367D01*
X462867Y247804D01*
X463602Y247500D01*
X464398D01*
X465133Y247804D01*
X465695Y248367D01*
X466000Y249102D01*
Y249898D01*
X465695Y250633D01*
X465133Y251196D01*
X464398Y251500D01*
D02*
G37*
G36*
X282398Y250000D02*
X281602D01*
X280867Y249695D01*
X280305Y249133D01*
X280000Y248398D01*
Y247602D01*
X280305Y246867D01*
X280867Y246304D01*
X281602Y246000D01*
X282398D01*
X283133Y246304D01*
X283696Y246867D01*
X284000Y247602D01*
Y248398D01*
X283696Y249133D01*
X283133Y249695D01*
X282398Y250000D01*
D02*
G37*
G36*
X337898Y249500D02*
X337102D01*
X336367Y249196D01*
X335805Y248633D01*
X335500Y247898D01*
Y247102D01*
X335805Y246367D01*
X336367Y245805D01*
X337102Y245500D01*
X337898D01*
X338633Y245805D01*
X339195Y246367D01*
X339500Y247102D01*
Y247898D01*
X339195Y248633D01*
X338633Y249196D01*
X337898Y249500D01*
D02*
G37*
G36*
X514898Y246000D02*
X514102D01*
X513367Y245695D01*
X512805Y245133D01*
X512500Y244398D01*
Y243602D01*
X512805Y242867D01*
X513367Y242304D01*
X514102Y242000D01*
X514898D01*
X515633Y242304D01*
X516195Y242867D01*
X516500Y243602D01*
Y244398D01*
X516195Y245133D01*
X515633Y245695D01*
X514898Y246000D01*
D02*
G37*
G36*
X509398D02*
X508602D01*
X507867Y245695D01*
X507304Y245133D01*
X507000Y244398D01*
Y243602D01*
X507304Y242867D01*
X507867Y242304D01*
X508602Y242000D01*
X509398D01*
X510133Y242304D01*
X510696Y242867D01*
X511000Y243602D01*
Y244398D01*
X510696Y245133D01*
X510133Y245695D01*
X509398Y246000D01*
D02*
G37*
G36*
X503398D02*
X502602D01*
X501867Y245695D01*
X501304Y245133D01*
X501000Y244398D01*
Y243602D01*
X501304Y242867D01*
X501867Y242304D01*
X502602Y242000D01*
X503398D01*
X504133Y242304D01*
X504696Y242867D01*
X505000Y243602D01*
Y244398D01*
X504696Y245133D01*
X504133Y245695D01*
X503398Y246000D01*
D02*
G37*
G36*
X497898D02*
X497102D01*
X496367Y245695D01*
X495805Y245133D01*
X495500Y244398D01*
Y243602D01*
X495805Y242867D01*
X496367Y242304D01*
X497102Y242000D01*
X497898D01*
X498633Y242304D01*
X499195Y242867D01*
X499500Y243602D01*
Y244398D01*
X499195Y245133D01*
X498633Y245695D01*
X497898Y246000D01*
D02*
G37*
G36*
X492398D02*
X491602D01*
X490867Y245695D01*
X490305Y245133D01*
X490000Y244398D01*
Y243602D01*
X490305Y242867D01*
X490867Y242304D01*
X491602Y242000D01*
X492398D01*
X493133Y242304D01*
X493695Y242867D01*
X494000Y243602D01*
Y244398D01*
X493695Y245133D01*
X493133Y245695D01*
X492398Y246000D01*
D02*
G37*
G36*
X486898D02*
X486102D01*
X485367Y245695D01*
X484804Y245133D01*
X484500Y244398D01*
Y243602D01*
X484804Y242867D01*
X485367Y242304D01*
X486102Y242000D01*
X486898D01*
X487633Y242304D01*
X488196Y242867D01*
X488500Y243602D01*
Y244398D01*
X488196Y245133D01*
X487633Y245695D01*
X486898Y246000D01*
D02*
G37*
G36*
X481398D02*
X480602D01*
X479867Y245695D01*
X479305Y245133D01*
X479000Y244398D01*
Y243602D01*
X479305Y242867D01*
X479867Y242304D01*
X480602Y242000D01*
X481398D01*
X482133Y242304D01*
X482695Y242867D01*
X483000Y243602D01*
Y244398D01*
X482695Y245133D01*
X482133Y245695D01*
X481398Y246000D01*
D02*
G37*
G36*
X475898D02*
X475102D01*
X474367Y245695D01*
X473805Y245133D01*
X473500Y244398D01*
Y243602D01*
X473805Y242867D01*
X474367Y242304D01*
X475102Y242000D01*
X475898D01*
X476633Y242304D01*
X477196Y242867D01*
X477500Y243602D01*
Y244398D01*
X477196Y245133D01*
X476633Y245695D01*
X475898Y246000D01*
D02*
G37*
G36*
X470398D02*
X469602D01*
X468867Y245695D01*
X468304Y245133D01*
X468000Y244398D01*
Y243602D01*
X468304Y242867D01*
X468867Y242304D01*
X469602Y242000D01*
X470398D01*
X471133Y242304D01*
X471696Y242867D01*
X472000Y243602D01*
Y244398D01*
X471696Y245133D01*
X471133Y245695D01*
X470398Y246000D01*
D02*
G37*
G36*
X464398D02*
X463602D01*
X462867Y245695D01*
X462304Y245133D01*
X462000Y244398D01*
Y243602D01*
X462304Y242867D01*
X462867Y242304D01*
X463602Y242000D01*
X464398D01*
X465133Y242304D01*
X465695Y242867D01*
X466000Y243602D01*
Y244398D01*
X465695Y245133D01*
X465133Y245695D01*
X464398Y246000D01*
D02*
G37*
G36*
X340097Y245216D02*
X339302D01*
X338567Y244911D01*
X338004Y244348D01*
X337700Y243613D01*
Y242818D01*
X338004Y242083D01*
X338567Y241520D01*
X339302Y241215D01*
X340097D01*
X340833Y241520D01*
X341395Y242083D01*
X341700Y242818D01*
Y243613D01*
X341395Y244348D01*
X340833Y244911D01*
X340097Y245216D01*
D02*
G37*
G36*
X295386Y242677D02*
X294590D01*
X293855Y242373D01*
X293292Y241810D01*
X292988Y241075D01*
Y240280D01*
X293292Y239545D01*
X293855Y238982D01*
X294590Y238677D01*
X295386D01*
X296121Y238982D01*
X296683Y239545D01*
X296988Y240280D01*
Y241075D01*
X296683Y241810D01*
X296121Y242373D01*
X295386Y242677D01*
D02*
G37*
G36*
X514898Y241500D02*
X514102D01*
X513367Y241196D01*
X512805Y240633D01*
X512500Y239898D01*
Y239102D01*
X512805Y238367D01*
X513367Y237805D01*
X514102Y237500D01*
X514898D01*
X515633Y237805D01*
X516195Y238367D01*
X516500Y239102D01*
Y239898D01*
X516195Y240633D01*
X515633Y241196D01*
X514898Y241500D01*
D02*
G37*
G36*
X509398D02*
X508602D01*
X507867Y241196D01*
X507304Y240633D01*
X507000Y239898D01*
Y239102D01*
X507304Y238367D01*
X507867Y237805D01*
X508602Y237500D01*
X509398D01*
X510133Y237805D01*
X510696Y238367D01*
X511000Y239102D01*
Y239898D01*
X510696Y240633D01*
X510133Y241196D01*
X509398Y241500D01*
D02*
G37*
G36*
X503398D02*
X502602D01*
X501867Y241196D01*
X501304Y240633D01*
X501000Y239898D01*
Y239102D01*
X501304Y238367D01*
X501867Y237805D01*
X502602Y237500D01*
X503398D01*
X504133Y237805D01*
X504696Y238367D01*
X505000Y239102D01*
Y239898D01*
X504696Y240633D01*
X504133Y241196D01*
X503398Y241500D01*
D02*
G37*
G36*
X497898D02*
X497102D01*
X496367Y241196D01*
X495805Y240633D01*
X495500Y239898D01*
Y239102D01*
X495805Y238367D01*
X496367Y237805D01*
X497102Y237500D01*
X497898D01*
X498633Y237805D01*
X499195Y238367D01*
X499500Y239102D01*
Y239898D01*
X499195Y240633D01*
X498633Y241196D01*
X497898Y241500D01*
D02*
G37*
G36*
X492398D02*
X491602D01*
X490867Y241196D01*
X490305Y240633D01*
X490000Y239898D01*
Y239102D01*
X490305Y238367D01*
X490867Y237805D01*
X491602Y237500D01*
X492398D01*
X493133Y237805D01*
X493695Y238367D01*
X494000Y239102D01*
Y239898D01*
X493695Y240633D01*
X493133Y241196D01*
X492398Y241500D01*
D02*
G37*
G36*
X486898D02*
X486102D01*
X485367Y241196D01*
X484804Y240633D01*
X484500Y239898D01*
Y239102D01*
X484804Y238367D01*
X485367Y237805D01*
X486102Y237500D01*
X486898D01*
X487633Y237805D01*
X488196Y238367D01*
X488500Y239102D01*
Y239898D01*
X488196Y240633D01*
X487633Y241196D01*
X486898Y241500D01*
D02*
G37*
G36*
X481398D02*
X480602D01*
X479867Y241196D01*
X479305Y240633D01*
X479000Y239898D01*
Y239102D01*
X479305Y238367D01*
X479867Y237805D01*
X480602Y237500D01*
X481398D01*
X482133Y237805D01*
X482695Y238367D01*
X483000Y239102D01*
Y239898D01*
X482695Y240633D01*
X482133Y241196D01*
X481398Y241500D01*
D02*
G37*
G36*
X475898D02*
X475102D01*
X474367Y241196D01*
X473805Y240633D01*
X473500Y239898D01*
Y239102D01*
X473805Y238367D01*
X474367Y237805D01*
X475102Y237500D01*
X475898D01*
X476633Y237805D01*
X477196Y238367D01*
X477500Y239102D01*
Y239898D01*
X477196Y240633D01*
X476633Y241196D01*
X475898Y241500D01*
D02*
G37*
G36*
X470398D02*
X469602D01*
X468867Y241196D01*
X468304Y240633D01*
X468000Y239898D01*
Y239102D01*
X468304Y238367D01*
X468867Y237805D01*
X469602Y237500D01*
X470398D01*
X471133Y237805D01*
X471696Y238367D01*
X472000Y239102D01*
Y239898D01*
X471696Y240633D01*
X471133Y241196D01*
X470398Y241500D01*
D02*
G37*
G36*
X464398D02*
X463602D01*
X462867Y241196D01*
X462304Y240633D01*
X462000Y239898D01*
Y239102D01*
X462304Y238367D01*
X462867Y237805D01*
X463602Y237500D01*
X464398D01*
X465133Y237805D01*
X465695Y238367D01*
X466000Y239102D01*
Y239898D01*
X465695Y240633D01*
X465133Y241196D01*
X464398Y241500D01*
D02*
G37*
G36*
X273398Y238000D02*
X272602D01*
X271867Y237696D01*
X271304Y237133D01*
X271000Y236398D01*
Y235602D01*
X271304Y234867D01*
X271867Y234304D01*
X272602Y234000D01*
X273398D01*
X274133Y234304D01*
X274695Y234867D01*
X275000Y235602D01*
Y236398D01*
X274695Y237133D01*
X274133Y237696D01*
X273398Y238000D01*
D02*
G37*
G36*
X347681Y237475D02*
X346886D01*
X346151Y237171D01*
X345588Y236608D01*
X345284Y235873D01*
Y235077D01*
X345588Y234342D01*
X346151Y233780D01*
X346886Y233475D01*
X347681D01*
X348417Y233780D01*
X348979Y234342D01*
X349284Y235077D01*
Y235873D01*
X348979Y236608D01*
X348417Y237171D01*
X347681Y237475D01*
D02*
G37*
G36*
X329398Y234500D02*
X328602D01*
X327867Y234195D01*
X327305Y233633D01*
X327167Y233301D01*
X327014Y233247D01*
X326597Y233231D01*
X326133Y233696D01*
X325398Y234000D01*
X324602D01*
X323867Y233696D01*
X323305Y233133D01*
X323000Y232398D01*
Y232201D01*
X322584Y231923D01*
X322398Y232000D01*
X321602D01*
X320867Y231696D01*
X320304Y231133D01*
X320261Y231028D01*
X319761D01*
X319711Y231149D01*
X319149Y231711D01*
X318414Y232016D01*
X317618D01*
X316883Y231711D01*
X316320Y231149D01*
X316016Y230414D01*
Y229618D01*
X316320Y228883D01*
X316883Y228320D01*
X317618Y228016D01*
X318414D01*
X319149Y228320D01*
X319711Y228883D01*
X319755Y228988D01*
X320255D01*
X320304Y228867D01*
X320867Y228305D01*
X321602Y228000D01*
X322398D01*
X323133Y228305D01*
X323695Y228867D01*
X324000Y229602D01*
Y229799D01*
X324416Y230077D01*
X324602Y230000D01*
X325398D01*
X326133Y230305D01*
X326695Y230867D01*
X326833Y231199D01*
X326986Y231253D01*
X327403Y231269D01*
X327867Y230804D01*
X328602Y230500D01*
X329398D01*
X330133Y230804D01*
X330696Y231367D01*
X331000Y232102D01*
Y232898D01*
X330696Y233633D01*
X330133Y234195D01*
X329398Y234500D01*
D02*
G37*
G36*
X514898Y237000D02*
X514102D01*
X513367Y236696D01*
X512805Y236133D01*
X512500Y235398D01*
Y234602D01*
X512805Y233867D01*
X513367Y233305D01*
X514102Y233000D01*
X514898D01*
X515633Y233305D01*
X516195Y233867D01*
X516500Y234602D01*
Y235398D01*
X516195Y236133D01*
X515633Y236696D01*
X514898Y237000D01*
D02*
G37*
G36*
X509398D02*
X508602D01*
X507867Y236696D01*
X507304Y236133D01*
X507000Y235398D01*
Y234602D01*
X507304Y233867D01*
X507867Y233305D01*
X508602Y233000D01*
X509398D01*
X510133Y233305D01*
X510696Y233867D01*
X511000Y234602D01*
Y235398D01*
X510696Y236133D01*
X510133Y236696D01*
X509398Y237000D01*
D02*
G37*
G36*
X503398D02*
X502602D01*
X501867Y236696D01*
X501304Y236133D01*
X501000Y235398D01*
Y234602D01*
X501304Y233867D01*
X501867Y233305D01*
X502602Y233000D01*
X503398D01*
X504133Y233305D01*
X504696Y233867D01*
X505000Y234602D01*
Y235398D01*
X504696Y236133D01*
X504133Y236696D01*
X503398Y237000D01*
D02*
G37*
G36*
X497898D02*
X497102D01*
X496367Y236696D01*
X495805Y236133D01*
X495500Y235398D01*
Y234602D01*
X495805Y233867D01*
X496367Y233305D01*
X497102Y233000D01*
X497898D01*
X498633Y233305D01*
X499195Y233867D01*
X499500Y234602D01*
Y235398D01*
X499195Y236133D01*
X498633Y236696D01*
X497898Y237000D01*
D02*
G37*
G36*
X492398D02*
X491602D01*
X490867Y236696D01*
X490305Y236133D01*
X490000Y235398D01*
Y234602D01*
X490305Y233867D01*
X490867Y233305D01*
X491602Y233000D01*
X492398D01*
X493133Y233305D01*
X493695Y233867D01*
X494000Y234602D01*
Y235398D01*
X493695Y236133D01*
X493133Y236696D01*
X492398Y237000D01*
D02*
G37*
G36*
X486898D02*
X486102D01*
X485367Y236696D01*
X484804Y236133D01*
X484500Y235398D01*
Y234602D01*
X484804Y233867D01*
X485367Y233305D01*
X486102Y233000D01*
X486898D01*
X487633Y233305D01*
X488196Y233867D01*
X488500Y234602D01*
Y235398D01*
X488196Y236133D01*
X487633Y236696D01*
X486898Y237000D01*
D02*
G37*
G36*
X481398D02*
X480602D01*
X479867Y236696D01*
X479305Y236133D01*
X479000Y235398D01*
Y234602D01*
X479305Y233867D01*
X479867Y233305D01*
X480602Y233000D01*
X481398D01*
X482133Y233305D01*
X482695Y233867D01*
X483000Y234602D01*
Y235398D01*
X482695Y236133D01*
X482133Y236696D01*
X481398Y237000D01*
D02*
G37*
G36*
X475898D02*
X475102D01*
X474367Y236696D01*
X473805Y236133D01*
X473500Y235398D01*
Y234602D01*
X473805Y233867D01*
X474367Y233305D01*
X475102Y233000D01*
X475898D01*
X476633Y233305D01*
X477196Y233867D01*
X477500Y234602D01*
Y235398D01*
X477196Y236133D01*
X476633Y236696D01*
X475898Y237000D01*
D02*
G37*
G36*
X470398D02*
X469602D01*
X468867Y236696D01*
X468304Y236133D01*
X468000Y235398D01*
Y234602D01*
X468304Y233867D01*
X468867Y233305D01*
X469602Y233000D01*
X470398D01*
X471133Y233305D01*
X471696Y233867D01*
X472000Y234602D01*
Y235398D01*
X471696Y236133D01*
X471133Y236696D01*
X470398Y237000D01*
D02*
G37*
G36*
X464398D02*
X463602D01*
X462867Y236696D01*
X462304Y236133D01*
X462000Y235398D01*
Y234602D01*
X462304Y233867D01*
X462867Y233305D01*
X463602Y233000D01*
X464398D01*
X465133Y233305D01*
X465695Y233867D01*
X466000Y234602D01*
Y235398D01*
X465695Y236133D01*
X465133Y236696D01*
X464398Y237000D01*
D02*
G37*
G36*
X241376Y240492D02*
X240325D01*
X239310Y240220D01*
X238399Y239694D01*
X237656Y238951D01*
X237130Y238041D01*
X236858Y237026D01*
Y235974D01*
X237130Y234959D01*
X237656Y234049D01*
X238399Y233306D01*
X239310Y232780D01*
X240325Y232508D01*
X241376D01*
X242391Y232780D01*
X243302Y233306D01*
X244045Y234049D01*
X244571Y234959D01*
X244843Y235974D01*
Y237026D01*
X244571Y238041D01*
X244045Y238951D01*
X243302Y239694D01*
X242391Y240220D01*
X241376Y240492D01*
D02*
G37*
G36*
X314398Y235000D02*
X313602D01*
X312867Y234696D01*
X312304Y234133D01*
X312000Y233398D01*
Y232602D01*
X312304Y231867D01*
X312867Y231305D01*
X313602Y231000D01*
X314398D01*
X315133Y231305D01*
X315696Y231867D01*
X316000Y232602D01*
Y233398D01*
X315696Y234133D01*
X315133Y234696D01*
X314398Y235000D01*
D02*
G37*
G36*
X303398Y235500D02*
X302602D01*
X301867Y235195D01*
X301305Y234633D01*
X301000Y233898D01*
Y233102D01*
X301305Y232367D01*
X301867Y231804D01*
X302602Y231500D01*
X303398D01*
X304000Y231749D01*
X304346Y231647D01*
X304540Y231505D01*
X304804Y230867D01*
X305367Y230305D01*
X306102Y230000D01*
X306898D01*
X307633Y230305D01*
X308195Y230867D01*
X308500Y231602D01*
Y232398D01*
X308195Y233133D01*
X307633Y233696D01*
X306898Y234000D01*
X306102D01*
X305500Y233751D01*
X305153Y233853D01*
X304960Y233995D01*
X304696Y234633D01*
X304133Y235195D01*
X303398Y235500D01*
D02*
G37*
G36*
X514898Y232000D02*
X514102D01*
X513367Y231696D01*
X512805Y231133D01*
X512500Y230398D01*
Y229602D01*
X512805Y228867D01*
X513367Y228305D01*
X514102Y228000D01*
X514898D01*
X515633Y228305D01*
X516195Y228867D01*
X516500Y229602D01*
Y230398D01*
X516195Y231133D01*
X515633Y231696D01*
X514898Y232000D01*
D02*
G37*
G36*
X509398D02*
X508602D01*
X507867Y231696D01*
X507304Y231133D01*
X507000Y230398D01*
Y229602D01*
X507304Y228867D01*
X507867Y228305D01*
X508602Y228000D01*
X509398D01*
X510133Y228305D01*
X510696Y228867D01*
X511000Y229602D01*
Y230398D01*
X510696Y231133D01*
X510133Y231696D01*
X509398Y232000D01*
D02*
G37*
G36*
X503398D02*
X502602D01*
X501867Y231696D01*
X501304Y231133D01*
X501000Y230398D01*
Y229602D01*
X501304Y228867D01*
X501867Y228305D01*
X502602Y228000D01*
X503398D01*
X504133Y228305D01*
X504696Y228867D01*
X505000Y229602D01*
Y230398D01*
X504696Y231133D01*
X504133Y231696D01*
X503398Y232000D01*
D02*
G37*
G36*
X497898D02*
X497102D01*
X496367Y231696D01*
X495805Y231133D01*
X495500Y230398D01*
Y229602D01*
X495805Y228867D01*
X496367Y228305D01*
X497102Y228000D01*
X497898D01*
X498633Y228305D01*
X499195Y228867D01*
X499500Y229602D01*
Y230398D01*
X499195Y231133D01*
X498633Y231696D01*
X497898Y232000D01*
D02*
G37*
G36*
X492398D02*
X491602D01*
X490867Y231696D01*
X490305Y231133D01*
X490000Y230398D01*
Y229602D01*
X490305Y228867D01*
X490867Y228305D01*
X491602Y228000D01*
X492398D01*
X493133Y228305D01*
X493695Y228867D01*
X494000Y229602D01*
Y230398D01*
X493695Y231133D01*
X493133Y231696D01*
X492398Y232000D01*
D02*
G37*
G36*
X486898D02*
X486102D01*
X485367Y231696D01*
X484804Y231133D01*
X484500Y230398D01*
Y229602D01*
X484804Y228867D01*
X485367Y228305D01*
X486102Y228000D01*
X486898D01*
X487633Y228305D01*
X488196Y228867D01*
X488500Y229602D01*
Y230398D01*
X488196Y231133D01*
X487633Y231696D01*
X486898Y232000D01*
D02*
G37*
G36*
X481398D02*
X480602D01*
X479867Y231696D01*
X479305Y231133D01*
X479000Y230398D01*
Y229602D01*
X479305Y228867D01*
X479867Y228305D01*
X480602Y228000D01*
X481398D01*
X482133Y228305D01*
X482695Y228867D01*
X483000Y229602D01*
Y230398D01*
X482695Y231133D01*
X482133Y231696D01*
X481398Y232000D01*
D02*
G37*
G36*
X475898D02*
X475102D01*
X474367Y231696D01*
X473805Y231133D01*
X473500Y230398D01*
Y229602D01*
X473805Y228867D01*
X474367Y228305D01*
X475102Y228000D01*
X475898D01*
X476633Y228305D01*
X477196Y228867D01*
X477500Y229602D01*
Y230398D01*
X477196Y231133D01*
X476633Y231696D01*
X475898Y232000D01*
D02*
G37*
G36*
X470398D02*
X469602D01*
X468867Y231696D01*
X468304Y231133D01*
X468000Y230398D01*
Y229602D01*
X468304Y228867D01*
X468867Y228305D01*
X469602Y228000D01*
X470398D01*
X471133Y228305D01*
X471696Y228867D01*
X472000Y229602D01*
Y230398D01*
X471696Y231133D01*
X471133Y231696D01*
X470398Y232000D01*
D02*
G37*
G36*
X464398D02*
X463602D01*
X462867Y231696D01*
X462304Y231133D01*
X462000Y230398D01*
Y229602D01*
X462304Y228867D01*
X462867Y228305D01*
X463602Y228000D01*
X464398D01*
X465133Y228305D01*
X465695Y228867D01*
X466000Y229602D01*
Y230398D01*
X465695Y231133D01*
X465133Y231696D01*
X464398Y232000D01*
D02*
G37*
G36*
X514898Y227000D02*
X514102D01*
X513367Y226695D01*
X512805Y226133D01*
X512500Y225398D01*
Y224602D01*
X512805Y223867D01*
X513367Y223305D01*
X514102Y223000D01*
X514898D01*
X515633Y223305D01*
X516195Y223867D01*
X516500Y224602D01*
Y225398D01*
X516195Y226133D01*
X515633Y226695D01*
X514898Y227000D01*
D02*
G37*
G36*
X509398D02*
X508602D01*
X507867Y226695D01*
X507304Y226133D01*
X507000Y225398D01*
Y224602D01*
X507304Y223867D01*
X507867Y223305D01*
X508602Y223000D01*
X509398D01*
X510133Y223305D01*
X510696Y223867D01*
X511000Y224602D01*
Y225398D01*
X510696Y226133D01*
X510133Y226695D01*
X509398Y227000D01*
D02*
G37*
G36*
X503398D02*
X502602D01*
X501867Y226695D01*
X501304Y226133D01*
X501000Y225398D01*
Y224602D01*
X501304Y223867D01*
X501867Y223305D01*
X502602Y223000D01*
X503398D01*
X504133Y223305D01*
X504696Y223867D01*
X505000Y224602D01*
Y225398D01*
X504696Y226133D01*
X504133Y226695D01*
X503398Y227000D01*
D02*
G37*
G36*
X497898D02*
X497102D01*
X496367Y226695D01*
X495805Y226133D01*
X495500Y225398D01*
Y224602D01*
X495805Y223867D01*
X496367Y223305D01*
X497102Y223000D01*
X497898D01*
X498633Y223305D01*
X499195Y223867D01*
X499500Y224602D01*
Y225398D01*
X499195Y226133D01*
X498633Y226695D01*
X497898Y227000D01*
D02*
G37*
G36*
X492398D02*
X491602D01*
X490867Y226695D01*
X490305Y226133D01*
X490000Y225398D01*
Y224602D01*
X490305Y223867D01*
X490867Y223305D01*
X491602Y223000D01*
X492398D01*
X493133Y223305D01*
X493695Y223867D01*
X494000Y224602D01*
Y225398D01*
X493695Y226133D01*
X493133Y226695D01*
X492398Y227000D01*
D02*
G37*
G36*
X486898D02*
X486102D01*
X485367Y226695D01*
X484804Y226133D01*
X484500Y225398D01*
Y224602D01*
X484804Y223867D01*
X485367Y223305D01*
X486102Y223000D01*
X486898D01*
X487633Y223305D01*
X488196Y223867D01*
X488500Y224602D01*
Y225398D01*
X488196Y226133D01*
X487633Y226695D01*
X486898Y227000D01*
D02*
G37*
G36*
X481398D02*
X480602D01*
X479867Y226695D01*
X479305Y226133D01*
X479000Y225398D01*
Y224602D01*
X479305Y223867D01*
X479867Y223305D01*
X480602Y223000D01*
X481398D01*
X482133Y223305D01*
X482695Y223867D01*
X483000Y224602D01*
Y225398D01*
X482695Y226133D01*
X482133Y226695D01*
X481398Y227000D01*
D02*
G37*
G36*
X475898D02*
X475102D01*
X474367Y226695D01*
X473805Y226133D01*
X473500Y225398D01*
Y224602D01*
X473805Y223867D01*
X474367Y223305D01*
X475102Y223000D01*
X475898D01*
X476633Y223305D01*
X477196Y223867D01*
X477500Y224602D01*
Y225398D01*
X477196Y226133D01*
X476633Y226695D01*
X475898Y227000D01*
D02*
G37*
G36*
X470398D02*
X469602D01*
X468867Y226695D01*
X468304Y226133D01*
X468000Y225398D01*
Y224602D01*
X468304Y223867D01*
X468867Y223305D01*
X469602Y223000D01*
X470398D01*
X471133Y223305D01*
X471696Y223867D01*
X472000Y224602D01*
Y225398D01*
X471696Y226133D01*
X471133Y226695D01*
X470398Y227000D01*
D02*
G37*
G36*
X533149Y248927D02*
X531851D01*
X530598Y248591D01*
X529475Y247943D01*
X528557Y247025D01*
X527909Y245902D01*
X527573Y244649D01*
Y243351D01*
X527909Y242098D01*
X528557Y240975D01*
X529475Y240057D01*
X530598Y239409D01*
X531157Y239259D01*
Y238741D01*
X530598Y238591D01*
X529475Y237943D01*
X528557Y237025D01*
X527909Y235902D01*
X527573Y234649D01*
Y233351D01*
X527909Y232098D01*
X528557Y230975D01*
X529475Y230057D01*
X530598Y229409D01*
X531157Y229259D01*
Y228741D01*
X530598Y228591D01*
X529475Y227943D01*
X528557Y227025D01*
X527909Y225902D01*
X527573Y224649D01*
Y223351D01*
X527909Y222098D01*
X528557Y220975D01*
X529475Y220057D01*
X530598Y219409D01*
X531851Y219073D01*
X533149D01*
X534402Y219409D01*
X535525Y220057D01*
X536443Y220975D01*
X537091Y222098D01*
X537427Y223351D01*
Y224649D01*
X537091Y225902D01*
X536443Y227025D01*
X535525Y227943D01*
X534402Y228591D01*
X533843Y228741D01*
Y229259D01*
X534402Y229409D01*
X535525Y230057D01*
X536443Y230975D01*
X537091Y232098D01*
X537427Y233351D01*
Y234649D01*
X537091Y235902D01*
X536443Y237025D01*
X535525Y237943D01*
X534402Y238591D01*
X533843Y238741D01*
Y239259D01*
X534402Y239409D01*
X535525Y240057D01*
X536443Y240975D01*
X537091Y242098D01*
X537427Y243351D01*
Y244649D01*
X537091Y245902D01*
X536443Y247025D01*
X535525Y247943D01*
X534402Y248591D01*
X533149Y248927D01*
D02*
G37*
G36*
X464398Y227000D02*
X463602D01*
X462867Y226695D01*
X462304Y226133D01*
X462000Y225398D01*
Y224602D01*
X462304Y223867D01*
X462867Y223305D01*
X463602Y223000D01*
X463965D01*
X464172Y222500D01*
X463779Y222108D01*
X463475Y221373D01*
Y220577D01*
X463779Y219842D01*
X464342Y219279D01*
X465077Y218975D01*
X465873D01*
X466608Y219279D01*
X467170Y219842D01*
X467475Y220577D01*
Y221373D01*
X467170Y222108D01*
X466608Y222670D01*
X465873Y222975D01*
X465510D01*
X465303Y223475D01*
X465695Y223867D01*
X466000Y224602D01*
Y225398D01*
X465695Y226133D01*
X465133Y226695D01*
X464398Y227000D01*
D02*
G37*
G36*
X439898Y222500D02*
X439102D01*
X438367Y222196D01*
X437805Y221633D01*
X437500Y220898D01*
Y220102D01*
X437805Y219367D01*
X438367Y218805D01*
X439102Y218500D01*
X439898D01*
X440633Y218805D01*
X441195Y219367D01*
X441500Y220102D01*
Y220898D01*
X441195Y221633D01*
X440633Y222196D01*
X439898Y222500D01*
D02*
G37*
G36*
X514898Y221500D02*
X514102D01*
X513367Y221196D01*
X512805Y220633D01*
X512500Y219898D01*
Y219102D01*
X512805Y218367D01*
X513367Y217805D01*
X514102Y217500D01*
X514898D01*
X515633Y217805D01*
X516195Y218367D01*
X516500Y219102D01*
Y219898D01*
X516195Y220633D01*
X515633Y221196D01*
X514898Y221500D01*
D02*
G37*
G36*
X509398D02*
X508602D01*
X507867Y221196D01*
X507304Y220633D01*
X507000Y219898D01*
Y219102D01*
X507304Y218367D01*
X507867Y217805D01*
X508602Y217500D01*
X509398D01*
X510133Y217805D01*
X510696Y218367D01*
X511000Y219102D01*
Y219898D01*
X510696Y220633D01*
X510133Y221196D01*
X509398Y221500D01*
D02*
G37*
G36*
X503398D02*
X502602D01*
X501867Y221196D01*
X501304Y220633D01*
X501000Y219898D01*
Y219102D01*
X501304Y218367D01*
X501867Y217805D01*
X502602Y217500D01*
X503398D01*
X504133Y217805D01*
X504696Y218367D01*
X505000Y219102D01*
Y219898D01*
X504696Y220633D01*
X504133Y221196D01*
X503398Y221500D01*
D02*
G37*
G36*
X497898D02*
X497102D01*
X496367Y221196D01*
X495805Y220633D01*
X495500Y219898D01*
Y219102D01*
X495805Y218367D01*
X496367Y217805D01*
X497102Y217500D01*
X497898D01*
X498633Y217805D01*
X499195Y218367D01*
X499500Y219102D01*
Y219898D01*
X499195Y220633D01*
X498633Y221196D01*
X497898Y221500D01*
D02*
G37*
G36*
X492398D02*
X491602D01*
X490867Y221196D01*
X490305Y220633D01*
X490000Y219898D01*
Y219102D01*
X490305Y218367D01*
X490867Y217805D01*
X491602Y217500D01*
X492398D01*
X493133Y217805D01*
X493695Y218367D01*
X494000Y219102D01*
Y219898D01*
X493695Y220633D01*
X493133Y221196D01*
X492398Y221500D01*
D02*
G37*
G36*
X486898D02*
X486102D01*
X485367Y221196D01*
X484804Y220633D01*
X484500Y219898D01*
Y219102D01*
X484804Y218367D01*
X485367Y217805D01*
X486102Y217500D01*
X486898D01*
X487633Y217805D01*
X488196Y218367D01*
X488500Y219102D01*
Y219898D01*
X488196Y220633D01*
X487633Y221196D01*
X486898Y221500D01*
D02*
G37*
G36*
X481398D02*
X480602D01*
X479867Y221196D01*
X479305Y220633D01*
X479000Y219898D01*
Y219102D01*
X479305Y218367D01*
X479867Y217805D01*
X480602Y217500D01*
X481398D01*
X482133Y217805D01*
X482695Y218367D01*
X483000Y219102D01*
Y219898D01*
X482695Y220633D01*
X482133Y221196D01*
X481398Y221500D01*
D02*
G37*
G36*
X475898D02*
X475102D01*
X474367Y221196D01*
X473805Y220633D01*
X473500Y219898D01*
Y219102D01*
X473805Y218367D01*
X474367Y217805D01*
X475102Y217500D01*
X475898D01*
X476633Y217805D01*
X477196Y218367D01*
X477500Y219102D01*
Y219898D01*
X477196Y220633D01*
X476633Y221196D01*
X475898Y221500D01*
D02*
G37*
G36*
X470398D02*
X469602D01*
X468867Y221196D01*
X468304Y220633D01*
X468000Y219898D01*
Y219102D01*
X468304Y218367D01*
X468867Y217805D01*
X469602Y217500D01*
X470398D01*
X471133Y217805D01*
X471696Y218367D01*
X472000Y219102D01*
Y219898D01*
X471696Y220633D01*
X471133Y221196D01*
X470398Y221500D01*
D02*
G37*
G36*
X304398Y220595D02*
X303602D01*
X302867Y220290D01*
X302305Y219727D01*
X302000Y218992D01*
Y218197D01*
X302305Y217462D01*
X302867Y216899D01*
X303602Y216595D01*
X304398D01*
X305133Y216899D01*
X305696Y217462D01*
X306000Y218197D01*
Y218992D01*
X305696Y219727D01*
X305133Y220290D01*
X304398Y220595D01*
D02*
G37*
G36*
X334398Y219000D02*
X333602D01*
X332867Y218695D01*
X332305Y218133D01*
X332000Y217398D01*
Y216602D01*
X332305Y215867D01*
X332867Y215304D01*
X333602Y215000D01*
X334398D01*
X335133Y215304D01*
X335696Y215867D01*
X336000Y216602D01*
Y217398D01*
X335696Y218133D01*
X335133Y218695D01*
X334398Y219000D01*
D02*
G37*
G36*
X553398Y212500D02*
X552602D01*
X551867Y212195D01*
X551304Y211633D01*
X551000Y210898D01*
Y210102D01*
X551304Y209367D01*
X551867Y208804D01*
X552602Y208500D01*
X553398D01*
X554133Y208804D01*
X554696Y209367D01*
X555000Y210102D01*
Y210898D01*
X554696Y211633D01*
X554133Y212195D01*
X553398Y212500D01*
D02*
G37*
G36*
X548898D02*
X548102D01*
X547367Y212195D01*
X546805Y211633D01*
X546500Y210898D01*
Y210102D01*
X546805Y209367D01*
X547367Y208804D01*
X548102Y208500D01*
X548898D01*
X549633Y208804D01*
X550196Y209367D01*
X550500Y210102D01*
Y210898D01*
X550196Y211633D01*
X549633Y212195D01*
X548898Y212500D01*
D02*
G37*
G36*
X544398D02*
X543602D01*
X542867Y212195D01*
X542305Y211633D01*
X542000Y210898D01*
Y210102D01*
X542305Y209367D01*
X542867Y208804D01*
X543602Y208500D01*
X544398D01*
X545133Y208804D01*
X545695Y209367D01*
X546000Y210102D01*
Y210898D01*
X545695Y211633D01*
X545133Y212195D01*
X544398Y212500D01*
D02*
G37*
G36*
X289398Y212000D02*
X288602D01*
X287867Y211696D01*
X287304Y211133D01*
X287000Y210398D01*
Y209602D01*
X287304Y208867D01*
X287867Y208305D01*
X288602Y208000D01*
X289398D01*
X290133Y208305D01*
X290696Y208867D01*
X291000Y209602D01*
Y210398D01*
X290696Y211133D01*
X290133Y211696D01*
X289398Y212000D01*
D02*
G37*
G36*
X366398Y210500D02*
X365602D01*
X364867Y210195D01*
X364304Y209633D01*
X364000Y208898D01*
Y208102D01*
X364304Y207367D01*
X364867Y206804D01*
X365602Y206500D01*
X366398D01*
X367133Y206804D01*
X367695Y207367D01*
X368000Y208102D01*
Y208898D01*
X367695Y209633D01*
X367133Y210195D01*
X366398Y210500D01*
D02*
G37*
G36*
X242533Y214051D02*
X241467D01*
X240436Y213775D01*
X239512Y213242D01*
X238758Y212488D01*
X238225Y211564D01*
X237949Y210533D01*
Y209467D01*
X238225Y208436D01*
X238758Y207512D01*
X239512Y206758D01*
X240436Y206225D01*
X241467Y205949D01*
X242533D01*
X243564Y206225D01*
X244488Y206758D01*
X245242Y207512D01*
X245775Y208436D01*
X246051Y209467D01*
Y210533D01*
X245775Y211564D01*
X245242Y212488D01*
X244488Y213242D01*
X243564Y213775D01*
X242533Y214051D01*
D02*
G37*
G36*
X330398Y204500D02*
X329602D01*
X328867Y204195D01*
X328305Y203633D01*
X328000Y202898D01*
Y202102D01*
X328305Y201367D01*
X328867Y200804D01*
X329602Y200500D01*
X330398D01*
X331133Y200804D01*
X331696Y201367D01*
X332000Y202102D01*
Y202898D01*
X331696Y203633D01*
X331133Y204195D01*
X330398Y204500D01*
D02*
G37*
G36*
X594398Y203000D02*
X593602D01*
X592867Y202695D01*
X592305Y202133D01*
X592000Y201398D01*
Y200602D01*
X592305Y199867D01*
X592867Y199304D01*
X593602Y199000D01*
X594398D01*
X595133Y199304D01*
X595695Y199867D01*
X596000Y200602D01*
Y201398D01*
X595695Y202133D01*
X595133Y202695D01*
X594398Y203000D01*
D02*
G37*
G36*
X588898D02*
X588102D01*
X587367Y202695D01*
X586804Y202133D01*
X586500Y201398D01*
Y200602D01*
X586804Y199867D01*
X587367Y199304D01*
X588102Y199000D01*
X588898D01*
X589633Y199304D01*
X590196Y199867D01*
X590500Y200602D01*
Y201398D01*
X590196Y202133D01*
X589633Y202695D01*
X588898Y203000D01*
D02*
G37*
G36*
X582398D02*
X581602D01*
X580867Y202695D01*
X580304Y202133D01*
X580000Y201398D01*
Y200602D01*
X580304Y199867D01*
X580867Y199304D01*
X581602Y199000D01*
X582398D01*
X583133Y199304D01*
X583696Y199867D01*
X584000Y200602D01*
Y201398D01*
X583696Y202133D01*
X583133Y202695D01*
X582398Y203000D01*
D02*
G37*
G36*
X246051Y204051D02*
X237949D01*
Y195949D01*
X246051D01*
Y204051D01*
D02*
G37*
G36*
X360898Y196000D02*
X360102D01*
X359367Y195695D01*
X358804Y195133D01*
X358500Y194398D01*
Y193602D01*
X358804Y192867D01*
X359367Y192305D01*
X360102Y192000D01*
X360898D01*
X361633Y192305D01*
X362195Y192867D01*
X362500Y193602D01*
Y194398D01*
X362195Y195133D01*
X361633Y195695D01*
X360898Y196000D01*
D02*
G37*
G36*
X305898Y191000D02*
X305102D01*
X304367Y190696D01*
X303804Y190133D01*
X303500Y189398D01*
Y188602D01*
X303804Y187867D01*
X304367Y187304D01*
X305102Y187000D01*
X305898D01*
X306633Y187304D01*
X307195Y187867D01*
X307500Y188602D01*
Y189398D01*
X307195Y190133D01*
X306633Y190696D01*
X305898Y191000D01*
D02*
G37*
G36*
X559898Y184000D02*
X559102D01*
X558367Y183695D01*
X557804Y183133D01*
X557500Y182398D01*
Y181602D01*
X557804Y180867D01*
X558367Y180305D01*
X559102Y180000D01*
X559898D01*
X560633Y180305D01*
X561196Y180867D01*
X561500Y181602D01*
Y182398D01*
X561196Y183133D01*
X560633Y183695D01*
X559898Y184000D01*
D02*
G37*
G36*
X541398D02*
X540602D01*
X539867Y183695D01*
X539304Y183133D01*
X539000Y182398D01*
Y181602D01*
X539304Y180867D01*
X539867Y180305D01*
X540602Y180000D01*
X541398D01*
X542133Y180305D01*
X542696Y180867D01*
X543000Y181602D01*
Y182398D01*
X542696Y183133D01*
X542133Y183695D01*
X541398Y184000D01*
D02*
G37*
G36*
X241533Y183051D02*
X240467D01*
X239436Y182775D01*
X238512Y182242D01*
X237758Y181488D01*
X237225Y180564D01*
X236949Y179533D01*
Y178467D01*
X237225Y177436D01*
X237758Y176513D01*
X238512Y175758D01*
X239436Y175225D01*
X240467Y174949D01*
X241533D01*
X242564Y175225D01*
X243488Y175758D01*
X244242Y176513D01*
X244775Y177436D01*
X245051Y178467D01*
Y179533D01*
X244775Y180564D01*
X244242Y181488D01*
X243488Y182242D01*
X242564Y182775D01*
X241533Y183051D01*
D02*
G37*
G36*
X486398Y169500D02*
X485602D01*
X484867Y169195D01*
X484305Y168633D01*
X484000Y167898D01*
Y167102D01*
X484305Y166367D01*
X484867Y165805D01*
X485602Y165500D01*
X486398D01*
X487133Y165805D01*
X487696Y166367D01*
X488000Y167102D01*
Y167898D01*
X487696Y168633D01*
X487133Y169195D01*
X486398Y169500D01*
D02*
G37*
G36*
X528898Y169000D02*
X528102D01*
X527367Y168695D01*
X526804Y168133D01*
X526500Y167398D01*
Y166602D01*
X526804Y165867D01*
X527367Y165305D01*
X528102Y165000D01*
X528898D01*
X529633Y165305D01*
X530196Y165867D01*
X530500Y166602D01*
Y167398D01*
X530196Y168133D01*
X529633Y168695D01*
X528898Y169000D01*
D02*
G37*
G36*
X245051Y173051D02*
X236949D01*
Y164949D01*
X245051D01*
Y173051D01*
D02*
G37*
G36*
X551898Y168500D02*
X551102D01*
X550367Y168195D01*
X549804Y167633D01*
X549500Y166898D01*
Y166102D01*
X549804Y165367D01*
X550367Y164804D01*
X551102Y164500D01*
X551898D01*
X552633Y164804D01*
X553195Y165367D01*
X553500Y166102D01*
Y166898D01*
X553195Y167633D01*
X552633Y168195D01*
X551898Y168500D01*
D02*
G37*
G36*
X458653Y162132D02*
X457857D01*
X457122Y161827D01*
X456560Y161264D01*
X456255Y160529D01*
Y159734D01*
X456560Y158999D01*
X457122Y158436D01*
X457857Y158132D01*
X458653D01*
X459388Y158436D01*
X459951Y158999D01*
X460255Y159734D01*
Y160529D01*
X459951Y161264D01*
X459388Y161827D01*
X458653Y162132D01*
D02*
G37*
G36*
X481398Y160500D02*
X480602D01*
X479867Y160196D01*
X479305Y159633D01*
X479000Y158898D01*
Y158102D01*
X479305Y157367D01*
X479867Y156805D01*
X480602Y156500D01*
X481398D01*
X482133Y156805D01*
X482695Y157367D01*
X483000Y158102D01*
Y158898D01*
X482695Y159633D01*
X482133Y160196D01*
X481398Y160500D01*
D02*
G37*
G36*
X577741Y159883D02*
X576945D01*
X576210Y159578D01*
X575648Y159016D01*
X575343Y158281D01*
Y157485D01*
X575648Y156750D01*
X576210Y156187D01*
X576945Y155883D01*
X577741D01*
X578476Y156187D01*
X579039Y156750D01*
X579343Y157485D01*
Y158281D01*
X579039Y159016D01*
X578476Y159578D01*
X577741Y159883D01*
D02*
G37*
G36*
X587898Y159000D02*
X587102D01*
X586367Y158695D01*
X585805Y158133D01*
X585500Y157398D01*
Y156602D01*
X585805Y155867D01*
X586367Y155305D01*
X587102Y155000D01*
X587898D01*
X588633Y155305D01*
X589195Y155867D01*
X589500Y156602D01*
Y157398D01*
X589195Y158133D01*
X588633Y158695D01*
X587898Y159000D01*
D02*
G37*
G36*
X685759Y186000D02*
X683241D01*
X680753Y185606D01*
X678358Y184828D01*
X676114Y183684D01*
X674077Y182204D01*
X672296Y180423D01*
X670816Y178386D01*
X669672Y176142D01*
X668894Y173747D01*
X668500Y171259D01*
Y168741D01*
X668894Y166253D01*
X669672Y163858D01*
X670816Y161614D01*
X672296Y159577D01*
X674077Y157796D01*
X676114Y156316D01*
X678358Y155172D01*
X680753Y154394D01*
X683241Y154000D01*
X685759D01*
X688247Y154394D01*
X690642Y155172D01*
X692886Y156316D01*
X694923Y157796D01*
X696704Y159577D01*
X698184Y161614D01*
X699328Y163858D01*
X700106Y166253D01*
X700500Y168741D01*
Y171259D01*
X700106Y173747D01*
X699328Y176142D01*
X698184Y178386D01*
X696704Y180423D01*
X694923Y182204D01*
X692886Y183684D01*
X690642Y184828D01*
X688247Y185606D01*
X685759Y186000D01*
D02*
G37*
G36*
X485398Y157000D02*
X484602D01*
X483867Y156695D01*
X483305Y156133D01*
X483000Y155398D01*
Y154602D01*
X483305Y153867D01*
X483867Y153305D01*
X484602Y153000D01*
X485398D01*
X486133Y153305D01*
X486695Y153867D01*
X487000Y154602D01*
Y155398D01*
X486695Y156133D01*
X486133Y156695D01*
X485398Y157000D01*
D02*
G37*
G36*
X542447Y155260D02*
X541651D01*
X540916Y154956D01*
X540354Y154393D01*
X540049Y153658D01*
Y152863D01*
X540354Y152128D01*
X540916Y151565D01*
X541651Y151260D01*
X542447D01*
X543182Y151565D01*
X543745Y152128D01*
X544049Y152863D01*
Y153658D01*
X543745Y154393D01*
X543182Y154956D01*
X542447Y155260D01*
D02*
G37*
G36*
X241533Y159051D02*
X240467D01*
X239436Y158775D01*
X238512Y158242D01*
X237758Y157487D01*
X237225Y156564D01*
X236949Y155533D01*
Y154467D01*
X237225Y153436D01*
X237758Y152513D01*
X238512Y151758D01*
X239436Y151225D01*
X240467Y150949D01*
X241533D01*
X242564Y151225D01*
X243488Y151758D01*
X244242Y152513D01*
X244775Y153436D01*
X245051Y154467D01*
Y155533D01*
X244775Y156564D01*
X244242Y157487D01*
X243488Y158242D01*
X242564Y158775D01*
X241533Y159051D01*
D02*
G37*
G36*
X611898Y147500D02*
X611102D01*
X610367Y147195D01*
X609804Y146633D01*
X609500Y145898D01*
Y145102D01*
X609804Y144367D01*
X610367Y143805D01*
X611102Y143500D01*
X611898D01*
X612633Y143805D01*
X613196Y144367D01*
X613500Y145102D01*
Y145898D01*
X613196Y146633D01*
X612633Y147195D01*
X611898Y147500D01*
D02*
G37*
G36*
X245051Y149051D02*
X236949D01*
Y140949D01*
X245051D01*
Y149051D01*
D02*
G37*
G36*
X601484Y140992D02*
X600689D01*
X599953Y140688D01*
X599391Y140125D01*
X599086Y139390D01*
Y138594D01*
X599391Y137859D01*
X599953Y137297D01*
X600689Y136992D01*
X601484D01*
X602219Y137297D01*
X602782Y137859D01*
X603086Y138594D01*
Y139390D01*
X602782Y140125D01*
X602219Y140688D01*
X601484Y140992D01*
D02*
G37*
G36*
X474253Y136744D02*
X473464D01*
X472734Y136442D01*
X472176Y135884D01*
X472140Y135796D01*
X471640D01*
X471603Y135884D01*
X471045Y136442D01*
X470316Y136744D01*
X469527D01*
X468797Y136442D01*
X468239Y135884D01*
X468203Y135796D01*
X467703D01*
X467666Y135884D01*
X467108Y136442D01*
X466379Y136744D01*
X465590D01*
X464860Y136442D01*
X464302Y135884D01*
X464000Y135154D01*
Y134365D01*
X464302Y133636D01*
X464860Y133078D01*
X464948Y133041D01*
Y132541D01*
X464860Y132505D01*
X464302Y131947D01*
X464000Y131218D01*
Y130428D01*
X464302Y129699D01*
X464860Y129141D01*
X465590Y128839D01*
X466379D01*
X467108Y129141D01*
X467666Y129699D01*
X467703Y129787D01*
X468203D01*
X468239Y129699D01*
X468797Y129141D01*
X469527Y128839D01*
X470316D01*
X471045Y129141D01*
X471603Y129699D01*
X471640Y129787D01*
X472140D01*
X472176Y129699D01*
X472734Y129141D01*
X473464Y128839D01*
X474253D01*
X474982Y129141D01*
X475540Y129699D01*
X475843Y130428D01*
Y131218D01*
X475540Y131947D01*
X474982Y132505D01*
X474895Y132541D01*
Y133041D01*
X474982Y133078D01*
X475540Y133636D01*
X475843Y134365D01*
Y135154D01*
X475540Y135884D01*
X474982Y136442D01*
X474253Y136744D01*
D02*
G37*
G36*
X580910Y136661D02*
X580121D01*
X579392Y136359D01*
X578834Y135801D01*
X578797Y135713D01*
X578297D01*
X578261Y135801D01*
X577703Y136359D01*
X576973Y136661D01*
X576184D01*
X575455Y136359D01*
X574897Y135801D01*
X574860Y135713D01*
X574360D01*
X574324Y135801D01*
X573766Y136359D01*
X573036Y136661D01*
X572247D01*
X571518Y136359D01*
X570960Y135801D01*
X570657Y135072D01*
Y134283D01*
X570960Y133553D01*
X571518Y132995D01*
X571605Y132959D01*
Y132459D01*
X571518Y132422D01*
X570960Y131864D01*
X570657Y131135D01*
Y130345D01*
X570960Y129616D01*
X571518Y129058D01*
X572247Y128756D01*
X573036D01*
X573766Y129058D01*
X574324Y129616D01*
X574360Y129704D01*
X574860D01*
X574897Y129616D01*
X575455Y129058D01*
X576184Y128756D01*
X576973D01*
X577703Y129058D01*
X578261Y129616D01*
X578297Y129704D01*
X578797D01*
X578834Y129616D01*
X579392Y129058D01*
X580121Y128756D01*
X580910D01*
X581640Y129058D01*
X582198Y129616D01*
X582500Y130345D01*
Y131135D01*
X582198Y131864D01*
X581640Y132422D01*
X581552Y132459D01*
Y132959D01*
X581640Y132995D01*
X582198Y133553D01*
X582500Y134283D01*
Y135072D01*
X582198Y135801D01*
X581640Y136359D01*
X580910Y136661D01*
D02*
G37*
G36*
X367026Y141843D02*
X365974D01*
X364959Y141571D01*
X364049Y141045D01*
X363305Y140302D01*
X362780Y139391D01*
X362508Y138376D01*
Y137325D01*
X362780Y136310D01*
X363305Y135399D01*
X364049Y134656D01*
X364959Y134130D01*
X365974Y133858D01*
X367026D01*
X368041Y134130D01*
X368951Y134656D01*
X369694Y135399D01*
X370220Y136310D01*
X370492Y137325D01*
Y138376D01*
X370220Y139391D01*
X369694Y140302D01*
X368951Y141045D01*
X368041Y141571D01*
X367026Y141843D01*
D02*
G37*
G36*
X357026D02*
X355974D01*
X354959Y141571D01*
X354049Y141045D01*
X353306Y140302D01*
X352780Y139391D01*
X352508Y138376D01*
Y137325D01*
X352780Y136310D01*
X353306Y135399D01*
X354049Y134656D01*
X354959Y134130D01*
X355974Y133858D01*
X357026D01*
X358041Y134130D01*
X358951Y134656D01*
X359695Y135399D01*
X360220Y136310D01*
X360492Y137325D01*
Y138376D01*
X360220Y139391D01*
X359695Y140302D01*
X358951Y141045D01*
X358041Y141571D01*
X357026Y141843D01*
D02*
G37*
G36*
X347026D02*
X345974D01*
X344959Y141571D01*
X344049Y141045D01*
X343305Y140302D01*
X342780Y139391D01*
X342508Y138376D01*
Y137325D01*
X342780Y136310D01*
X343305Y135399D01*
X344049Y134656D01*
X344959Y134130D01*
X345974Y133858D01*
X347026D01*
X348041Y134130D01*
X348951Y134656D01*
X349694Y135399D01*
X350220Y136310D01*
X350492Y137325D01*
Y138376D01*
X350220Y139391D01*
X349694Y140302D01*
X348951Y141045D01*
X348041Y141571D01*
X347026Y141843D01*
D02*
G37*
G36*
X337026D02*
X335974D01*
X334959Y141571D01*
X334049Y141045D01*
X333306Y140302D01*
X332780Y139391D01*
X332508Y138376D01*
Y137325D01*
X332780Y136310D01*
X333306Y135399D01*
X334049Y134656D01*
X334959Y134130D01*
X335974Y133858D01*
X337026D01*
X338041Y134130D01*
X338951Y134656D01*
X339694Y135399D01*
X340220Y136310D01*
X340492Y137325D01*
Y138376D01*
X340220Y139391D01*
X339694Y140302D01*
X338951Y141045D01*
X338041Y141571D01*
X337026Y141843D01*
D02*
G37*
G36*
X327026D02*
X325974D01*
X324959Y141571D01*
X324049Y141045D01*
X323306Y140302D01*
X322780Y139391D01*
X322508Y138376D01*
Y137325D01*
X322780Y136310D01*
X323306Y135399D01*
X324049Y134656D01*
X324959Y134130D01*
X325974Y133858D01*
X327026D01*
X328041Y134130D01*
X328951Y134656D01*
X329695Y135399D01*
X330220Y136310D01*
X330492Y137325D01*
Y138376D01*
X330220Y139391D01*
X329695Y140302D01*
X328951Y141045D01*
X328041Y141571D01*
X327026Y141843D01*
D02*
G37*
G36*
X317026D02*
X315974D01*
X314959Y141571D01*
X314049Y141045D01*
X313305Y140302D01*
X312780Y139391D01*
X312508Y138376D01*
Y137325D01*
X312780Y136310D01*
X313305Y135399D01*
X314049Y134656D01*
X314959Y134130D01*
X315974Y133858D01*
X317026D01*
X318041Y134130D01*
X318951Y134656D01*
X319694Y135399D01*
X320220Y136310D01*
X320492Y137325D01*
Y138376D01*
X320220Y139391D01*
X319694Y140302D01*
X318951Y141045D01*
X318041Y141571D01*
X317026Y141843D01*
D02*
G37*
G36*
X307026D02*
X305974D01*
X304959Y141571D01*
X304049Y141045D01*
X303306Y140302D01*
X302780Y139391D01*
X302508Y138376D01*
Y137325D01*
X302780Y136310D01*
X303306Y135399D01*
X304049Y134656D01*
X304959Y134130D01*
X305974Y133858D01*
X307026D01*
X308041Y134130D01*
X308951Y134656D01*
X309695Y135399D01*
X310220Y136310D01*
X310492Y137325D01*
Y138376D01*
X310220Y139391D01*
X309695Y140302D01*
X308951Y141045D01*
X308041Y141571D01*
X307026Y141843D01*
D02*
G37*
G36*
X297026D02*
X295974D01*
X294959Y141571D01*
X294049Y141045D01*
X293305Y140302D01*
X292780Y139391D01*
X292508Y138376D01*
Y137325D01*
X292780Y136310D01*
X293305Y135399D01*
X294049Y134656D01*
X294959Y134130D01*
X295974Y133858D01*
X297026D01*
X298041Y134130D01*
X298951Y134656D01*
X299694Y135399D01*
X300220Y136310D01*
X300492Y137325D01*
Y138376D01*
X300220Y139391D01*
X299694Y140302D01*
X298951Y141045D01*
X298041Y141571D01*
X297026Y141843D01*
D02*
G37*
G36*
X287026D02*
X285974D01*
X284959Y141571D01*
X284049Y141045D01*
X283306Y140302D01*
X282780Y139391D01*
X282508Y138376D01*
Y137325D01*
X282780Y136310D01*
X283306Y135399D01*
X284049Y134656D01*
X284959Y134130D01*
X285974Y133858D01*
X287026D01*
X288041Y134130D01*
X288951Y134656D01*
X289694Y135399D01*
X290220Y136310D01*
X290492Y137325D01*
Y138376D01*
X290220Y139391D01*
X289694Y140302D01*
X288951Y141045D01*
X288041Y141571D01*
X287026Y141843D01*
D02*
G37*
G36*
X277996Y141892D02*
X275004D01*
X274030Y141698D01*
X273204Y141146D01*
X272653Y140321D01*
X272459Y139347D01*
Y136354D01*
X272653Y135380D01*
X273204Y134555D01*
X274030Y134003D01*
X275004Y133809D01*
X277996D01*
X278970Y134003D01*
X279796Y134555D01*
X280347Y135380D01*
X280541Y136354D01*
Y139347D01*
X280347Y140321D01*
X279796Y141146D01*
X278970Y141698D01*
X277996Y141892D01*
D02*
G37*
G36*
X596711Y132313D02*
X595915D01*
X595180Y132009D01*
X594618Y131446D01*
X594313Y130711D01*
Y129915D01*
X594618Y129180D01*
X595180Y128618D01*
X595915Y128313D01*
X596711D01*
X597446Y128618D01*
X598008Y129180D01*
X598313Y129915D01*
Y130711D01*
X598008Y131446D01*
X597446Y132009D01*
X596711Y132313D01*
D02*
G37*
G36*
X592605Y124075D02*
X591810D01*
X591075Y123770D01*
X590512Y123208D01*
X590208Y122473D01*
Y121677D01*
X590512Y120942D01*
X591075Y120379D01*
X591810Y120075D01*
X592605D01*
X593341Y120379D01*
X593903Y120942D01*
X594208Y121677D01*
Y122473D01*
X593903Y123208D01*
X593341Y123770D01*
X592605Y124075D01*
D02*
G37*
G36*
X577898Y119000D02*
X577102D01*
X576367Y118695D01*
X575805Y118133D01*
X575500Y117398D01*
Y116602D01*
X575805Y115867D01*
X576367Y115305D01*
X577102Y115000D01*
X577898D01*
X578633Y115305D01*
X579195Y115867D01*
X579500Y116602D01*
Y117398D01*
X579195Y118133D01*
X578633Y118695D01*
X577898Y119000D01*
D02*
G37*
G36*
X514898Y124500D02*
X514102D01*
X513367Y124196D01*
X512805Y123633D01*
X512500Y122898D01*
Y122102D01*
X512805Y121367D01*
X513101Y121071D01*
X512923Y120893D01*
X512618Y120158D01*
Y119362D01*
X512923Y118627D01*
X513361Y118189D01*
X512805Y117633D01*
X512500Y116898D01*
Y116102D01*
X512805Y115367D01*
X513367Y114804D01*
X514102Y114500D01*
X514898D01*
X515633Y114804D01*
X516195Y115367D01*
X516500Y116102D01*
Y116898D01*
X516195Y117633D01*
X515758Y118071D01*
X516314Y118627D01*
X516618Y119362D01*
Y120158D01*
X516314Y120893D01*
X516017Y121189D01*
X516195Y121367D01*
X516500Y122102D01*
Y122898D01*
X516195Y123633D01*
X515633Y124196D01*
X514898Y124500D01*
D02*
G37*
G36*
X241070Y121327D02*
X239930D01*
X238830Y121032D01*
X237843Y120462D01*
X237038Y119657D01*
X236468Y118670D01*
X236173Y117570D01*
Y116430D01*
X236468Y115330D01*
X237038Y114343D01*
X237843Y113538D01*
X238830Y112968D01*
X239930Y112673D01*
X241070D01*
X242170Y112968D01*
X243157Y113538D01*
X243962Y114343D01*
X244532Y115330D01*
X244827Y116430D01*
Y117570D01*
X244532Y118670D01*
X243962Y119657D01*
X243157Y120462D01*
X242170Y121032D01*
X241070Y121327D01*
D02*
G37*
G36*
X231070D02*
X229930D01*
X228830Y121032D01*
X227843Y120462D01*
X227038Y119657D01*
X226468Y118670D01*
X226173Y117570D01*
Y116430D01*
X226468Y115330D01*
X227038Y114343D01*
X227843Y113538D01*
X228830Y112968D01*
X229930Y112673D01*
X231070D01*
X232170Y112968D01*
X233157Y113538D01*
X233962Y114343D01*
X234532Y115330D01*
X234827Y116430D01*
Y117570D01*
X234532Y118670D01*
X233962Y119657D01*
X233157Y120462D01*
X232170Y121032D01*
X231070Y121327D01*
D02*
G37*
G36*
X224827D02*
X216173D01*
Y112673D01*
X224827D01*
Y121327D01*
D02*
G37*
G36*
X504905Y112016D02*
X504109D01*
X503374Y111712D01*
X502812Y111149D01*
X502507Y110414D01*
Y109618D01*
X502812Y108883D01*
X503374Y108320D01*
X504109Y108016D01*
X504905D01*
X505640Y108320D01*
X506203Y108883D01*
X506507Y109618D01*
Y110414D01*
X506203Y111149D01*
X505640Y111712D01*
X504905Y112016D01*
D02*
G37*
G36*
X457898Y112000D02*
X457102D01*
X456367Y111696D01*
X455804Y111133D01*
X455500Y110398D01*
Y109602D01*
X455804Y108867D01*
X456367Y108305D01*
X457102Y108000D01*
X457898D01*
X458633Y108305D01*
X459196Y108867D01*
X459500Y109602D01*
Y110398D01*
X459196Y111133D01*
X458633Y111696D01*
X457898Y112000D01*
D02*
G37*
G36*
X531898Y106000D02*
X531102D01*
X530367Y105695D01*
X529805Y105133D01*
X529500Y104398D01*
Y103602D01*
X529805Y102867D01*
X530367Y102304D01*
X531102Y102000D01*
X531898D01*
X532633Y102304D01*
X533195Y102867D01*
X533500Y103602D01*
Y104398D01*
X533195Y105133D01*
X532633Y105695D01*
X531898Y106000D01*
D02*
G37*
G36*
X481398D02*
X480602D01*
X479867Y105695D01*
X479305Y105133D01*
X479000Y104398D01*
Y103602D01*
X479305Y102867D01*
X479867Y102304D01*
X480602Y102000D01*
X481398D01*
X482133Y102304D01*
X482695Y102867D01*
X483000Y103602D01*
Y104398D01*
X482695Y105133D01*
X482133Y105695D01*
X481398Y106000D01*
D02*
G37*
G36*
X685259Y132500D02*
X682741D01*
X680253Y132106D01*
X677858Y131328D01*
X675614Y130184D01*
X673577Y128704D01*
X671796Y126923D01*
X670316Y124886D01*
X669172Y122642D01*
X668394Y120247D01*
X668000Y117759D01*
Y115241D01*
X668394Y112753D01*
X669172Y110358D01*
X670316Y108114D01*
X671796Y106077D01*
X673577Y104296D01*
X675614Y102816D01*
X677858Y101672D01*
X680253Y100894D01*
X682741Y100500D01*
X685259D01*
X687747Y100894D01*
X690142Y101672D01*
X692386Y102816D01*
X694423Y104296D01*
X696204Y106077D01*
X697684Y108114D01*
X698828Y110358D01*
X699606Y112753D01*
X700000Y115241D01*
Y117759D01*
X699606Y120247D01*
X698828Y122642D01*
X697684Y124886D01*
X696204Y126923D01*
X694423Y128704D01*
X692386Y130184D01*
X690142Y131328D01*
X687747Y132106D01*
X685259Y132500D01*
D02*
G37*
G36*
X633259Y132000D02*
X630741D01*
X628253Y131606D01*
X625858Y130828D01*
X623614Y129684D01*
X621577Y128204D01*
X619796Y126423D01*
X618316Y124386D01*
X617172Y122142D01*
X616394Y119747D01*
X616000Y117259D01*
Y114741D01*
X616394Y112253D01*
X617172Y109858D01*
X618316Y107614D01*
X619796Y105577D01*
X621577Y103796D01*
X623614Y102316D01*
X625858Y101172D01*
X628253Y100394D01*
X630741Y100000D01*
X633259D01*
X635747Y100394D01*
X638142Y101172D01*
X640386Y102316D01*
X642423Y103796D01*
X644204Y105577D01*
X645684Y107614D01*
X646828Y109858D01*
X647606Y112253D01*
X648000Y114741D01*
Y117259D01*
X647606Y119747D01*
X646828Y122142D01*
X645684Y124386D01*
X644204Y126423D01*
X642423Y128204D01*
X640386Y129684D01*
X638142Y130828D01*
X635747Y131606D01*
X633259Y132000D01*
D02*
G37*
%LPD*%
D140*
X240850Y246500D02*
D03*
D149*
X299000Y297000D02*
D03*
X504500Y127000D02*
D03*
Y131500D02*
D03*
Y135500D02*
D03*
Y140000D02*
D03*
X329000Y345517D02*
D03*
X289018Y234018D02*
D03*
X349000Y282000D02*
D03*
X270509Y301009D02*
D03*
X293500Y284500D02*
D03*
X299009Y241509D02*
D03*
X297671Y312171D02*
D03*
M02*
