G04*
G04 #@! TF.GenerationSoftware,Altium Limited,Altium Designer,23.8.1 (32)*
G04*
G04 Layer_Physical_Order=2*
G04 Layer_Color=36540*
%FSLAX25Y25*%
%MOIN*%
G70*
G04*
G04 #@! TF.SameCoordinates,9FE1DFA8-D547-43E1-8EB2-FABD993C7150*
G04*
G04*
G04 #@! TF.FilePolarity,Positive*
G04*
G01*
G75*
%ADD125R,0.06181X0.06181*%
%ADD145C,0.04921*%
%ADD147C,0.05984*%
G04:AMPARAMS|DCode=148|XSize=59.84mil|YSize=59.84mil|CornerRadius=14.96mil|HoleSize=0mil|Usage=FLASHONLY|Rotation=270.000|XOffset=0mil|YOffset=0mil|HoleType=Round|Shape=RoundedRectangle|*
%AMROUNDEDRECTD148*
21,1,0.05984,0.02992,0,0,270.0*
21,1,0.02992,0.05984,0,0,270.0*
1,1,0.02992,-0.01496,-0.01496*
1,1,0.02992,-0.01496,0.01496*
1,1,0.02992,0.01496,0.01496*
1,1,0.02992,0.01496,-0.01496*
%
%ADD148ROUNDEDRECTD148*%
%ADD150C,0.06102*%
G04:AMPARAMS|DCode=151|XSize=59.84mil|YSize=59.84mil|CornerRadius=14.96mil|HoleSize=0mil|Usage=FLASHONLY|Rotation=0.000|XOffset=0mil|YOffset=0mil|HoleType=Round|Shape=RoundedRectangle|*
%AMROUNDEDRECTD151*
21,1,0.05984,0.02992,0,0,0.0*
21,1,0.02992,0.05984,0,0,0.0*
1,1,0.02992,0.01496,-0.01496*
1,1,0.02992,-0.01496,-0.01496*
1,1,0.02992,-0.01496,0.01496*
1,1,0.02992,0.01496,0.01496*
%
%ADD151ROUNDEDRECTD151*%
%ADD152C,0.02000*%
%ADD153C,0.30000*%
%ADD154C,0.01968*%
G36*
X702000Y98500D02*
X200000D01*
Y417000D01*
X702000D01*
Y98500D01*
D02*
G37*
%LPC*%
G36*
X397818Y401961D02*
X396907D01*
X396026Y401725D01*
X395237Y401269D01*
X394593Y400625D01*
X394137Y399836D01*
X393902Y398956D01*
Y398044D01*
X394137Y397164D01*
X394593Y396375D01*
X395237Y395731D01*
X396026Y395275D01*
X396907Y395039D01*
X397818D01*
X398698Y395275D01*
X399487Y395731D01*
X400131Y396375D01*
X400587Y397164D01*
X400823Y398044D01*
Y398956D01*
X400587Y399836D01*
X400131Y400625D01*
X399487Y401269D01*
X398698Y401725D01*
X397818Y401961D01*
D02*
G37*
G36*
X400823Y381961D02*
X393902D01*
Y375039D01*
X400823D01*
Y381961D01*
D02*
G37*
G36*
X482398Y378500D02*
X481602D01*
X480867Y378196D01*
X480304Y377633D01*
X480000Y376898D01*
Y376102D01*
X480304Y375367D01*
X480867Y374804D01*
X481602Y374500D01*
X482398D01*
X483133Y374804D01*
X483696Y375367D01*
X484000Y376102D01*
Y376898D01*
X483696Y377633D01*
X483133Y378196D01*
X482398Y378500D01*
D02*
G37*
G36*
X356526Y381142D02*
X355474D01*
X354459Y380870D01*
X353549Y380344D01*
X352805Y379601D01*
X352280Y378690D01*
X352008Y377675D01*
Y376624D01*
X352280Y375609D01*
X352805Y374698D01*
X353549Y373955D01*
X354459Y373429D01*
X355474Y373157D01*
X356526D01*
X357541Y373429D01*
X358451Y373955D01*
X359194Y374698D01*
X359720Y375609D01*
X359992Y376624D01*
Y377675D01*
X359720Y378690D01*
X359194Y379601D01*
X358451Y380344D01*
X357541Y380870D01*
X356526Y381142D01*
D02*
G37*
G36*
X346526D02*
X345474D01*
X344459Y380870D01*
X343549Y380344D01*
X342806Y379601D01*
X342280Y378690D01*
X342008Y377675D01*
Y376624D01*
X342280Y375609D01*
X342806Y374698D01*
X343549Y373955D01*
X344459Y373429D01*
X345474Y373157D01*
X346526D01*
X347541Y373429D01*
X348451Y373955D01*
X349195Y374698D01*
X349720Y375609D01*
X349992Y376624D01*
Y377675D01*
X349720Y378690D01*
X349195Y379601D01*
X348451Y380344D01*
X347541Y380870D01*
X346526Y381142D01*
D02*
G37*
G36*
X336526D02*
X335474D01*
X334459Y380870D01*
X333549Y380344D01*
X332805Y379601D01*
X332280Y378690D01*
X332008Y377675D01*
Y376624D01*
X332280Y375609D01*
X332805Y374698D01*
X333549Y373955D01*
X334459Y373429D01*
X335474Y373157D01*
X336526D01*
X337541Y373429D01*
X338451Y373955D01*
X339194Y374698D01*
X339720Y375609D01*
X339992Y376624D01*
Y377675D01*
X339720Y378690D01*
X339194Y379601D01*
X338451Y380344D01*
X337541Y380870D01*
X336526Y381142D01*
D02*
G37*
G36*
X326526D02*
X325474D01*
X324459Y380870D01*
X323549Y380344D01*
X322806Y379601D01*
X322280Y378690D01*
X322008Y377675D01*
Y376624D01*
X322280Y375609D01*
X322806Y374698D01*
X323549Y373955D01*
X324459Y373429D01*
X325474Y373157D01*
X326526D01*
X327541Y373429D01*
X328451Y373955D01*
X329194Y374698D01*
X329720Y375609D01*
X329992Y376624D01*
Y377675D01*
X329720Y378690D01*
X329194Y379601D01*
X328451Y380344D01*
X327541Y380870D01*
X326526Y381142D01*
D02*
G37*
G36*
X316526D02*
X315474D01*
X314459Y380870D01*
X313549Y380344D01*
X312806Y379601D01*
X312280Y378690D01*
X312008Y377675D01*
Y376624D01*
X312280Y375609D01*
X312806Y374698D01*
X313549Y373955D01*
X314459Y373429D01*
X315474Y373157D01*
X316526D01*
X317541Y373429D01*
X318451Y373955D01*
X319195Y374698D01*
X319720Y375609D01*
X319992Y376624D01*
Y377675D01*
X319720Y378690D01*
X319195Y379601D01*
X318451Y380344D01*
X317541Y380870D01*
X316526Y381142D01*
D02*
G37*
G36*
X306526D02*
X305474D01*
X304459Y380870D01*
X303549Y380344D01*
X302805Y379601D01*
X302280Y378690D01*
X302008Y377675D01*
Y376624D01*
X302280Y375609D01*
X302805Y374698D01*
X303549Y373955D01*
X304459Y373429D01*
X305474Y373157D01*
X306526D01*
X307541Y373429D01*
X308451Y373955D01*
X309194Y374698D01*
X309720Y375609D01*
X309992Y376624D01*
Y377675D01*
X309720Y378690D01*
X309194Y379601D01*
X308451Y380344D01*
X307541Y380870D01*
X306526Y381142D01*
D02*
G37*
G36*
X296526D02*
X295474D01*
X294459Y380870D01*
X293549Y380344D01*
X292806Y379601D01*
X292280Y378690D01*
X292008Y377675D01*
Y376624D01*
X292280Y375609D01*
X292806Y374698D01*
X293549Y373955D01*
X294459Y373429D01*
X295474Y373157D01*
X296526D01*
X297541Y373429D01*
X298451Y373955D01*
X299195Y374698D01*
X299720Y375609D01*
X299992Y376624D01*
Y377675D01*
X299720Y378690D01*
X299195Y379601D01*
X298451Y380344D01*
X297541Y380870D01*
X296526Y381142D01*
D02*
G37*
G36*
X286526D02*
X285474D01*
X284459Y380870D01*
X283549Y380344D01*
X282805Y379601D01*
X282280Y378690D01*
X282008Y377675D01*
Y376624D01*
X282280Y375609D01*
X282805Y374698D01*
X283549Y373955D01*
X284459Y373429D01*
X285474Y373157D01*
X286526D01*
X287541Y373429D01*
X288451Y373955D01*
X289194Y374698D01*
X289720Y375609D01*
X289992Y376624D01*
Y377675D01*
X289720Y378690D01*
X289194Y379601D01*
X288451Y380344D01*
X287541Y380870D01*
X286526Y381142D01*
D02*
G37*
G36*
X367496Y381190D02*
X364504D01*
X363530Y380997D01*
X362704Y380445D01*
X362153Y379620D01*
X361959Y378645D01*
Y375653D01*
X362153Y374679D01*
X362704Y373854D01*
X363530Y373302D01*
X364504Y373109D01*
X367496D01*
X368470Y373302D01*
X369296Y373854D01*
X369847Y374679D01*
X370041Y375653D01*
Y378645D01*
X369847Y379620D01*
X369296Y380445D01*
X368470Y380997D01*
X367496Y381190D01*
D02*
G37*
G36*
X552398Y377000D02*
X551602D01*
X550867Y376695D01*
X550305Y376133D01*
X550000Y375398D01*
Y374602D01*
X550305Y373867D01*
X550867Y373305D01*
X551602Y373000D01*
X552398D01*
X553133Y373305D01*
X553695Y373867D01*
X554000Y374602D01*
Y375398D01*
X553695Y376133D01*
X553133Y376695D01*
X552398Y377000D01*
D02*
G37*
G36*
X514398Y370000D02*
X513602D01*
X512867Y369695D01*
X512304Y369133D01*
X512000Y368398D01*
Y367602D01*
X512304Y366867D01*
X512867Y366304D01*
X513602Y366000D01*
X514398D01*
X515133Y366304D01*
X515695Y366867D01*
X516000Y367602D01*
Y368398D01*
X515695Y369133D01*
X515133Y369695D01*
X514398Y370000D01*
D02*
G37*
G36*
X542898Y367500D02*
X542102D01*
X541367Y367196D01*
X540804Y366633D01*
X540500Y365898D01*
Y365102D01*
X540804Y364367D01*
X541367Y363805D01*
X542102Y363500D01*
X542898D01*
X543633Y363805D01*
X544196Y364367D01*
X544500Y365102D01*
Y365898D01*
X544196Y366633D01*
X543633Y367196D01*
X542898Y367500D01*
D02*
G37*
G36*
X544487Y350716D02*
X543692D01*
X542957Y350412D01*
X542394Y349849D01*
X542090Y349114D01*
Y348319D01*
X542394Y347584D01*
X542957Y347021D01*
X543692Y346716D01*
X544487D01*
X545223Y347021D01*
X545785Y347584D01*
X546090Y348319D01*
Y349114D01*
X545785Y349849D01*
X545223Y350412D01*
X544487Y350716D01*
D02*
G37*
G36*
X219759Y378500D02*
X217241D01*
X214753Y378106D01*
X212358Y377328D01*
X210114Y376184D01*
X208077Y374704D01*
X206296Y372923D01*
X204816Y370886D01*
X203672Y368642D01*
X202894Y366247D01*
X202500Y363759D01*
Y361241D01*
X202894Y358753D01*
X203672Y356358D01*
X204816Y354114D01*
X206296Y352077D01*
X208077Y350296D01*
X210114Y348816D01*
X212358Y347672D01*
X214753Y346894D01*
X217241Y346500D01*
X219759D01*
X222247Y346894D01*
X224642Y347672D01*
X226886Y348816D01*
X228923Y350296D01*
X230704Y352077D01*
X232184Y354114D01*
X233328Y356358D01*
X234106Y358753D01*
X234500Y361241D01*
Y363759D01*
X234106Y366247D01*
X233328Y368642D01*
X232184Y370886D01*
X230704Y372923D01*
X228923Y374704D01*
X226886Y376184D01*
X224642Y377328D01*
X222247Y378106D01*
X219759Y378500D01*
D02*
G37*
G36*
X329398Y347517D02*
X328602D01*
X327867Y347212D01*
X327305Y346650D01*
X327000Y345914D01*
Y345119D01*
X327305Y344384D01*
X327867Y343821D01*
X328602Y343517D01*
X329398D01*
X330133Y343821D01*
X330696Y344384D01*
X331000Y345119D01*
Y345914D01*
X330696Y346650D01*
X330133Y347212D01*
X329398Y347517D01*
D02*
G37*
G36*
X533898Y347000D02*
X533102D01*
X532367Y346695D01*
X531805Y346133D01*
X531500Y345398D01*
Y344602D01*
X531805Y343867D01*
X532367Y343304D01*
X533102Y343000D01*
X533898D01*
X534633Y343304D01*
X535195Y343867D01*
X535500Y344602D01*
Y345398D01*
X535195Y346133D01*
X534633Y346695D01*
X533898Y347000D01*
D02*
G37*
G36*
X482398Y339500D02*
X481602D01*
X480867Y339195D01*
X480304Y338633D01*
X480000Y337898D01*
Y337102D01*
X480304Y336367D01*
X480867Y335805D01*
X481602Y335500D01*
X482398D01*
X483133Y335805D01*
X483696Y336367D01*
X484000Y337102D01*
Y337898D01*
X483696Y338633D01*
X483133Y339195D01*
X482398Y339500D01*
D02*
G37*
G36*
X373398Y337500D02*
X372602D01*
X371867Y337195D01*
X371304Y336633D01*
X371000Y335898D01*
Y335102D01*
X371304Y334367D01*
X371867Y333804D01*
X372602Y333500D01*
X373398D01*
X374133Y333804D01*
X374695Y334367D01*
X375000Y335102D01*
Y335898D01*
X374695Y336633D01*
X374133Y337195D01*
X373398Y337500D01*
D02*
G37*
G36*
X519898Y324500D02*
X519102D01*
X518367Y324196D01*
X517804Y323633D01*
X517500Y322898D01*
Y322102D01*
X517804Y321367D01*
X518367Y320805D01*
X519102Y320500D01*
X519898D01*
X520633Y320805D01*
X521196Y321367D01*
X521500Y322102D01*
Y322898D01*
X521196Y323633D01*
X520633Y324196D01*
X519898Y324500D01*
D02*
G37*
G36*
X334898Y319000D02*
X334102D01*
X333367Y318695D01*
X332804Y318133D01*
X332500Y317398D01*
Y316602D01*
X332804Y315867D01*
X333367Y315304D01*
X334102Y315000D01*
X334898D01*
X335633Y315304D01*
X336195Y315867D01*
X336500Y316602D01*
Y317398D01*
X336195Y318133D01*
X335633Y318695D01*
X334898Y319000D01*
D02*
G37*
G36*
X311537Y316579D02*
X310742D01*
X310007Y316274D01*
X309444Y315712D01*
X309140Y314977D01*
Y314181D01*
X309444Y313446D01*
X310007Y312883D01*
X310742Y312579D01*
X311537D01*
X312273Y312883D01*
X312835Y313446D01*
X313140Y314181D01*
Y314977D01*
X312835Y315712D01*
X312273Y316274D01*
X311537Y316579D01*
D02*
G37*
G36*
X298069Y314171D02*
X297273D01*
X296538Y313867D01*
X295976Y313304D01*
X295671Y312569D01*
Y311773D01*
X295976Y311038D01*
X296538Y310476D01*
X297273Y310171D01*
X298069D01*
X298804Y310476D01*
X299367Y311038D01*
X299671Y311773D01*
Y312569D01*
X299367Y313304D01*
X298804Y313867D01*
X298069Y314171D01*
D02*
G37*
G36*
X397398Y312500D02*
X396602D01*
X395867Y312195D01*
X395304Y311633D01*
X395000Y310898D01*
Y310102D01*
X395304Y309367D01*
X395867Y308804D01*
X396602Y308500D01*
X397398D01*
X398133Y308804D01*
X398695Y309367D01*
X399000Y310102D01*
Y310898D01*
X398695Y311633D01*
X398133Y312195D01*
X397398Y312500D01*
D02*
G37*
G36*
X370398Y309500D02*
X369602D01*
X368867Y309195D01*
X368304Y308633D01*
X368000Y307898D01*
Y307571D01*
X367500Y307237D01*
X367398Y307279D01*
X366602D01*
X365867Y306975D01*
X365304Y306412D01*
X365000Y305677D01*
Y304882D01*
X365304Y304147D01*
X365867Y303584D01*
X366602Y303279D01*
X367398D01*
X368133Y303584D01*
X368695Y304147D01*
X369000Y304882D01*
Y305208D01*
X369500Y305542D01*
X369602Y305500D01*
X370398D01*
X371133Y305804D01*
X371695Y306367D01*
X372000Y307102D01*
Y307898D01*
X371695Y308633D01*
X371133Y309195D01*
X370398Y309500D01*
D02*
G37*
G36*
X317398Y310500D02*
X316602D01*
X315867Y310195D01*
X315304Y309633D01*
X315000Y308898D01*
Y308102D01*
X315304Y307367D01*
X315867Y306804D01*
X316602Y306500D01*
X317398D01*
X318133Y306804D01*
X318695Y307367D01*
X319000Y308102D01*
Y308898D01*
X318695Y309633D01*
X318133Y310195D01*
X317398Y310500D01*
D02*
G37*
G36*
X412111Y307510D02*
X411315D01*
X410580Y307205D01*
X410018Y306643D01*
X409713Y305908D01*
Y305112D01*
X410018Y304377D01*
X410580Y303814D01*
X411315Y303510D01*
X412111D01*
X412846Y303814D01*
X413409Y304377D01*
X413713Y305112D01*
Y305908D01*
X413409Y306643D01*
X412846Y307205D01*
X412111Y307510D01*
D02*
G37*
G36*
X241376Y310492D02*
X240325D01*
X239310Y310220D01*
X238399Y309695D01*
X237656Y308951D01*
X237130Y308041D01*
X236858Y307026D01*
Y305974D01*
X237130Y304959D01*
X237656Y304049D01*
X238399Y303306D01*
X239310Y302780D01*
X240325Y302508D01*
X241376D01*
X242391Y302780D01*
X243302Y303306D01*
X244045Y304049D01*
X244571Y304959D01*
X244843Y305974D01*
Y307026D01*
X244571Y308041D01*
X244045Y308951D01*
X243302Y309695D01*
X242391Y310220D01*
X241376Y310492D01*
D02*
G37*
G36*
X351398Y308500D02*
X350602D01*
X349867Y308195D01*
X349305Y307633D01*
X349000Y306898D01*
Y306102D01*
X349058Y305962D01*
X349028Y305876D01*
X348708Y305500D01*
X348102D01*
X347367Y305195D01*
X346804Y304633D01*
X346500Y303898D01*
Y303102D01*
X346804Y302367D01*
X347367Y301804D01*
X348102Y301500D01*
X348898D01*
X349633Y301804D01*
X350196Y302367D01*
X350500Y303102D01*
Y303898D01*
X350442Y304038D01*
X350472Y304124D01*
X350792Y304500D01*
X351398D01*
X352133Y304804D01*
X352695Y305367D01*
X353000Y306102D01*
Y306898D01*
X352695Y307633D01*
X352133Y308195D01*
X351398Y308500D01*
D02*
G37*
G36*
X270907Y303009D02*
X270111D01*
X269376Y302704D01*
X268813Y302142D01*
X268509Y301407D01*
Y300611D01*
X268813Y299876D01*
X269376Y299313D01*
X270111Y299009D01*
X270907D01*
X271642Y299313D01*
X272204Y299876D01*
X272509Y300611D01*
Y301407D01*
X272204Y302142D01*
X271642Y302704D01*
X270907Y303009D01*
D02*
G37*
G36*
X355898Y303000D02*
X355102D01*
X354367Y302695D01*
X353804Y302133D01*
X353500Y301398D01*
Y300602D01*
X353804Y299867D01*
X354367Y299305D01*
X355102Y299000D01*
X355898D01*
X356633Y299305D01*
X357195Y299867D01*
X357500Y300602D01*
Y301398D01*
X357195Y302133D01*
X356633Y302695D01*
X355898Y303000D01*
D02*
G37*
G36*
X392398Y302500D02*
X391602D01*
X390867Y302196D01*
X390304Y301633D01*
X390000Y300898D01*
Y300102D01*
X390304Y299367D01*
X390867Y298804D01*
X391602Y298500D01*
X392398D01*
X393133Y298804D01*
X393695Y299367D01*
X394000Y300102D01*
Y300898D01*
X393695Y301633D01*
X393133Y302196D01*
X392398Y302500D01*
D02*
G37*
G36*
X318898Y303500D02*
X318102D01*
X317367Y303196D01*
X316805Y302633D01*
X316500Y301898D01*
Y301102D01*
X316805Y300367D01*
X317367Y299804D01*
X318102Y299500D01*
X318898D01*
X319633Y299804D01*
X320187Y299651D01*
X320304Y299367D01*
X320867Y298804D01*
X320882Y298798D01*
X320979Y298308D01*
X320805Y298133D01*
X320500Y297398D01*
Y296602D01*
X320805Y295867D01*
X321367Y295304D01*
X322102Y295000D01*
X322898D01*
X323633Y295304D01*
X324196Y295867D01*
X324500Y296602D01*
Y297398D01*
X324196Y298133D01*
X323633Y298695D01*
X323618Y298702D01*
X323520Y299192D01*
X323695Y299367D01*
X324000Y300102D01*
Y300898D01*
X323695Y301633D01*
X323133Y302196D01*
X322398Y302500D01*
X321602D01*
X320867Y302196D01*
X320313Y302349D01*
X320196Y302633D01*
X319633Y303196D01*
X318898Y303500D01*
D02*
G37*
G36*
X299398Y299000D02*
X298602D01*
X297867Y298695D01*
X297305Y298133D01*
X297000Y297398D01*
Y296602D01*
X297305Y295867D01*
X297867Y295304D01*
X298602Y295000D01*
X299398D01*
X300133Y295304D01*
X300695Y295867D01*
X301000Y296602D01*
Y297398D01*
X300695Y298133D01*
X300133Y298695D01*
X299398Y299000D01*
D02*
G37*
G36*
X416398Y298441D02*
X415602D01*
X414867Y298136D01*
X414304Y297574D01*
X414000Y296839D01*
Y296043D01*
X414304Y295308D01*
X414867Y294745D01*
X415602Y294441D01*
X416398D01*
X417133Y294745D01*
X417696Y295308D01*
X418000Y296043D01*
Y296839D01*
X417696Y297574D01*
X417133Y298136D01*
X416398Y298441D01*
D02*
G37*
G36*
X241376Y300492D02*
X240325D01*
X239310Y300220D01*
X238399Y299694D01*
X237656Y298951D01*
X237130Y298041D01*
X236858Y297026D01*
Y295974D01*
X237130Y294959D01*
X237656Y294049D01*
X238399Y293305D01*
X239310Y292780D01*
X240325Y292508D01*
X241376D01*
X242391Y292780D01*
X243302Y293305D01*
X244045Y294049D01*
X244571Y294959D01*
X244843Y295974D01*
Y297026D01*
X244571Y298041D01*
X244045Y298951D01*
X243302Y299694D01*
X242391Y300220D01*
X241376Y300492D01*
D02*
G37*
G36*
X396398Y294500D02*
X395602D01*
X394867Y294196D01*
X394304Y293633D01*
X394000Y292898D01*
Y292102D01*
X394304Y291367D01*
X394867Y290805D01*
X395602Y290500D01*
X396398D01*
X397133Y290805D01*
X397695Y291367D01*
X398000Y292102D01*
Y292898D01*
X397695Y293633D01*
X397133Y294196D01*
X396398Y294500D01*
D02*
G37*
G36*
X368898Y294000D02*
X368102D01*
X367367Y293695D01*
X366805Y293133D01*
X366500Y292398D01*
Y291602D01*
X366805Y290867D01*
X367367Y290304D01*
X368102Y290000D01*
X368898D01*
X369633Y290304D01*
X370196Y290867D01*
X370500Y291602D01*
Y292398D01*
X370196Y293133D01*
X369633Y293695D01*
X368898Y294000D01*
D02*
G37*
G36*
X533898Y287500D02*
X533102D01*
X532367Y287195D01*
X531805Y286633D01*
X531500Y285898D01*
Y285102D01*
X531805Y284367D01*
X532367Y283804D01*
X533102Y283500D01*
X533898D01*
X534633Y283804D01*
X535195Y284367D01*
X535500Y285102D01*
Y285898D01*
X535195Y286633D01*
X534633Y287195D01*
X533898Y287500D01*
D02*
G37*
G36*
X241376Y290492D02*
X240325D01*
X239310Y290220D01*
X238399Y289694D01*
X237656Y288951D01*
X237130Y288041D01*
X236858Y287026D01*
Y285974D01*
X237130Y284959D01*
X237656Y284049D01*
X238399Y283306D01*
X239310Y282780D01*
X240325Y282508D01*
X241376D01*
X242391Y282780D01*
X243302Y283306D01*
X244045Y284049D01*
X244571Y284959D01*
X244843Y285974D01*
Y287026D01*
X244571Y288041D01*
X244045Y288951D01*
X243302Y289694D01*
X242391Y290220D01*
X241376Y290492D01*
D02*
G37*
G36*
X293898Y286500D02*
X293102D01*
X292367Y286195D01*
X291805Y285633D01*
X291500Y284898D01*
Y284102D01*
X291805Y283367D01*
X292367Y282804D01*
X293102Y282500D01*
X293898D01*
X294633Y282804D01*
X295196Y283367D01*
X295500Y284102D01*
Y284898D01*
X295196Y285633D01*
X294633Y286195D01*
X293898Y286500D01*
D02*
G37*
G36*
X367898Y284500D02*
X367102D01*
X366367Y284195D01*
X365805Y283633D01*
X365500Y282898D01*
Y282102D01*
X365805Y281367D01*
X366367Y280804D01*
X367102Y280500D01*
X367898D01*
X368633Y280804D01*
X369196Y281367D01*
X369500Y282102D01*
Y282898D01*
X369196Y283633D01*
X368633Y284195D01*
X367898Y284500D01*
D02*
G37*
G36*
X411060Y284179D02*
X410265D01*
X409529Y283874D01*
X408967Y283312D01*
X408662Y282576D01*
Y281781D01*
X408967Y281046D01*
X409529Y280483D01*
X410265Y280179D01*
X411060D01*
X411795Y280483D01*
X412358Y281046D01*
X412662Y281781D01*
Y282576D01*
X412358Y283312D01*
X411795Y283874D01*
X411060Y284179D01*
D02*
G37*
G36*
X349398Y284000D02*
X348602D01*
X347867Y283696D01*
X347305Y283133D01*
X347000Y282398D01*
Y281602D01*
X347305Y280867D01*
X347867Y280305D01*
X348602Y280000D01*
X349398D01*
X350133Y280305D01*
X350695Y280867D01*
X351000Y281602D01*
Y282398D01*
X350695Y283133D01*
X350133Y283696D01*
X349398Y284000D01*
D02*
G37*
G36*
X505487Y281193D02*
X504410D01*
X503370Y280914D01*
X502437Y280376D01*
X501676Y279614D01*
X501137Y278681D01*
X500858Y277641D01*
Y276564D01*
X501137Y275523D01*
X501676Y274591D01*
X502437Y273829D01*
X503370Y273291D01*
X504410Y273012D01*
X505487D01*
X506528Y273291D01*
X507460Y273829D01*
X508222Y274591D01*
X508761Y275523D01*
X509039Y276564D01*
Y277641D01*
X508761Y278681D01*
X508222Y279614D01*
X507460Y280376D01*
X506528Y280914D01*
X505487Y281193D01*
D02*
G37*
G36*
X241376Y280492D02*
X240325D01*
X239310Y280220D01*
X238399Y279695D01*
X237656Y278951D01*
X237130Y278041D01*
X236858Y277026D01*
Y275974D01*
X237130Y274959D01*
X237656Y274049D01*
X238399Y273306D01*
X239310Y272780D01*
X240325Y272508D01*
X241376D01*
X242391Y272780D01*
X243302Y273306D01*
X244045Y274049D01*
X244571Y274959D01*
X244843Y275974D01*
Y277026D01*
X244571Y278041D01*
X244045Y278951D01*
X243302Y279695D01*
X242391Y280220D01*
X241376Y280492D01*
D02*
G37*
G36*
X350914Y276016D02*
X350118D01*
X349383Y275711D01*
X348820Y275149D01*
X348516Y274414D01*
Y273618D01*
X348820Y272883D01*
X349383Y272320D01*
X350118Y272016D01*
X350914D01*
X351649Y272320D01*
X352211Y272883D01*
X352516Y273618D01*
Y274414D01*
X352211Y275149D01*
X351649Y275711D01*
X350914Y276016D01*
D02*
G37*
G36*
X405407Y272009D02*
X404611D01*
X403876Y271704D01*
X403313Y271142D01*
X403009Y270407D01*
Y269611D01*
X403313Y268876D01*
X403876Y268313D01*
X404611Y268009D01*
X405407D01*
X406142Y268313D01*
X406704Y268876D01*
X407009Y269611D01*
Y270407D01*
X406704Y271142D01*
X406142Y271704D01*
X405407Y272009D01*
D02*
G37*
G36*
X300898Y272000D02*
X300102D01*
X299367Y271695D01*
X298804Y271133D01*
X298500Y270398D01*
Y269602D01*
X298804Y268867D01*
X299367Y268304D01*
X300102Y268000D01*
X300898D01*
X301633Y268304D01*
X302196Y268867D01*
X302500Y269602D01*
Y270398D01*
X302196Y271133D01*
X301633Y271695D01*
X300898Y272000D01*
D02*
G37*
G36*
X305704Y267693D02*
X304909D01*
X304174Y267388D01*
X303611Y266826D01*
X303307Y266090D01*
Y265295D01*
X303611Y264560D01*
X304174Y263997D01*
X304909Y263693D01*
X305704D01*
X306439Y263997D01*
X307002Y264560D01*
X307307Y265295D01*
Y266090D01*
X307002Y266826D01*
X306439Y267388D01*
X305704Y267693D01*
D02*
G37*
G36*
X241376Y270492D02*
X240325D01*
X239310Y270220D01*
X238399Y269694D01*
X237656Y268951D01*
X237130Y268041D01*
X236858Y267026D01*
Y265974D01*
X237130Y264959D01*
X237656Y264049D01*
X238399Y263305D01*
X239310Y262780D01*
X240325Y262508D01*
X241376D01*
X242391Y262780D01*
X243302Y263305D01*
X244045Y264049D01*
X244571Y264959D01*
X244843Y265974D01*
Y267026D01*
X244571Y268041D01*
X244045Y268951D01*
X243302Y269694D01*
X242391Y270220D01*
X241376Y270492D01*
D02*
G37*
G36*
X343398Y263000D02*
X342602D01*
X341867Y262696D01*
X341304Y262133D01*
X341000Y261398D01*
Y260602D01*
X341304Y259867D01*
X341867Y259304D01*
X342602Y259000D01*
X343208D01*
X343528Y258624D01*
X343558Y258538D01*
X343500Y258398D01*
Y257602D01*
X343805Y256867D01*
X344367Y256305D01*
X345102Y256000D01*
X345898D01*
X346633Y256305D01*
X347196Y256867D01*
X347500Y257602D01*
Y258398D01*
X347196Y259133D01*
X346633Y259696D01*
X345898Y260000D01*
X345292D01*
X344972Y260376D01*
X344942Y260462D01*
X345000Y260602D01*
Y261398D01*
X344695Y262133D01*
X344133Y262696D01*
X343398Y263000D01*
D02*
G37*
G36*
X422398Y259000D02*
X421602D01*
X420867Y258696D01*
X420304Y258133D01*
X420000Y257398D01*
Y256602D01*
X420304Y255867D01*
X420867Y255305D01*
X421602Y255000D01*
X422398D01*
X423133Y255305D01*
X423696Y255867D01*
X424000Y256602D01*
Y257398D01*
X423696Y258133D01*
X423133Y258696D01*
X422398Y259000D01*
D02*
G37*
G36*
X475898Y257046D02*
X475102D01*
X474367Y256742D01*
X473805Y256179D01*
X473500Y255444D01*
Y254648D01*
X473805Y253913D01*
X474367Y253351D01*
X475102Y253046D01*
X475898D01*
X476633Y253351D01*
X477196Y253913D01*
X477500Y254648D01*
Y255444D01*
X477196Y256179D01*
X476633Y256742D01*
X475898Y257046D01*
D02*
G37*
G36*
X241376Y260492D02*
X240325D01*
X239310Y260220D01*
X238399Y259695D01*
X237656Y258951D01*
X237130Y258041D01*
X236858Y257026D01*
Y255974D01*
X237130Y254959D01*
X237656Y254049D01*
X238399Y253306D01*
X239310Y252780D01*
X240325Y252508D01*
X241376D01*
X242391Y252780D01*
X243302Y253306D01*
X244045Y254049D01*
X244571Y254959D01*
X244843Y255974D01*
Y257026D01*
X244571Y258041D01*
X244045Y258951D01*
X243302Y259695D01*
X242391Y260220D01*
X241376Y260492D01*
D02*
G37*
G36*
X333898Y255500D02*
X333102D01*
X332367Y255195D01*
X331804Y254633D01*
X331500Y253898D01*
Y253102D01*
X331804Y252367D01*
X332367Y251804D01*
X333102Y251500D01*
X333898D01*
X334633Y251804D01*
X335195Y252367D01*
X335500Y253102D01*
Y253898D01*
X335195Y254633D01*
X334633Y255195D01*
X333898Y255500D01*
D02*
G37*
G36*
X486398Y251500D02*
X485602D01*
X484867Y251196D01*
X484305Y250633D01*
X484000Y249898D01*
Y249102D01*
X484305Y248367D01*
X484867Y247804D01*
X485602Y247500D01*
X486398D01*
X487133Y247804D01*
X487696Y248367D01*
X488000Y249102D01*
Y249898D01*
X487696Y250633D01*
X487133Y251196D01*
X486398Y251500D01*
D02*
G37*
G36*
X282398Y250000D02*
X281602D01*
X280867Y249695D01*
X280305Y249133D01*
X280000Y248398D01*
Y247602D01*
X280305Y246867D01*
X280867Y246304D01*
X281602Y246000D01*
X282398D01*
X283133Y246304D01*
X283696Y246867D01*
X284000Y247602D01*
Y248398D01*
X283696Y249133D01*
X283133Y249695D01*
X282398Y250000D01*
D02*
G37*
G36*
X337898Y249500D02*
X337102D01*
X336367Y249196D01*
X335805Y248633D01*
X335500Y247898D01*
Y247102D01*
X335805Y246367D01*
X336367Y245805D01*
X337102Y245500D01*
X337898D01*
X338633Y245805D01*
X339195Y246367D01*
X339500Y247102D01*
Y247898D01*
X339195Y248633D01*
X338633Y249196D01*
X337898Y249500D01*
D02*
G37*
G36*
X241376Y250492D02*
X240325D01*
X239310Y250220D01*
X238399Y249694D01*
X237656Y248951D01*
X237130Y248041D01*
X236858Y247026D01*
Y245974D01*
X237130Y244959D01*
X237656Y244049D01*
X238399Y243305D01*
X239310Y242780D01*
X240325Y242508D01*
X241376D01*
X242391Y242780D01*
X243302Y243305D01*
X244045Y244049D01*
X244571Y244959D01*
X244843Y245974D01*
Y247026D01*
X244571Y248041D01*
X244045Y248951D01*
X243302Y249694D01*
X242391Y250220D01*
X241376Y250492D01*
D02*
G37*
G36*
X299407Y243509D02*
X298611D01*
X297876Y243204D01*
X297313Y242642D01*
X297009Y241907D01*
Y241111D01*
X297313Y240376D01*
X297876Y239813D01*
X298611Y239509D01*
X299407D01*
X300142Y239813D01*
X300704Y240376D01*
X301009Y241111D01*
Y241907D01*
X300704Y242642D01*
X300142Y243204D01*
X299407Y243509D01*
D02*
G37*
G36*
X273398Y238000D02*
X272602D01*
X271867Y237696D01*
X271304Y237133D01*
X271000Y236398D01*
Y235602D01*
X271304Y234867D01*
X271867Y234304D01*
X272602Y234000D01*
X273398D01*
X274133Y234304D01*
X274695Y234867D01*
X275000Y235602D01*
Y236398D01*
X274695Y237133D01*
X274133Y237696D01*
X273398Y238000D01*
D02*
G37*
G36*
X329398Y234500D02*
X328602D01*
X327867Y234195D01*
X327305Y233633D01*
X327167Y233301D01*
X327014Y233247D01*
X326597Y233231D01*
X326133Y233696D01*
X325398Y234000D01*
X324602D01*
X323867Y233696D01*
X323305Y233133D01*
X323000Y232398D01*
Y232201D01*
X322584Y231923D01*
X322398Y232000D01*
X321602D01*
X320867Y231696D01*
X320304Y231133D01*
X320000Y230398D01*
Y229602D01*
X320304Y228867D01*
X320867Y228305D01*
X321602Y228000D01*
X322398D01*
X323133Y228305D01*
X323695Y228867D01*
X324000Y229602D01*
Y229799D01*
X324416Y230077D01*
X324602Y230000D01*
X325398D01*
X326133Y230305D01*
X326695Y230867D01*
X326833Y231199D01*
X326986Y231253D01*
X327403Y231269D01*
X327867Y230804D01*
X328602Y230500D01*
X329398D01*
X330133Y230804D01*
X330696Y231367D01*
X331000Y232102D01*
Y232898D01*
X330696Y233633D01*
X330133Y234195D01*
X329398Y234500D01*
D02*
G37*
G36*
X241376Y240492D02*
X240325D01*
X239310Y240220D01*
X238399Y239694D01*
X237656Y238951D01*
X237130Y238041D01*
X236858Y237026D01*
Y235974D01*
X237130Y234959D01*
X237656Y234049D01*
X238399Y233306D01*
X239310Y232780D01*
X240325Y232508D01*
X241376D01*
X242391Y232780D01*
X243302Y233306D01*
X244045Y234049D01*
X244571Y234959D01*
X244843Y235974D01*
Y237026D01*
X244571Y238041D01*
X244045Y238951D01*
X243302Y239694D01*
X242391Y240220D01*
X241376Y240492D01*
D02*
G37*
G36*
X289416Y236018D02*
X288620D01*
X287885Y235713D01*
X287322Y235151D01*
X287018Y234416D01*
Y233620D01*
X287322Y232885D01*
X287885Y232322D01*
X288620Y232018D01*
X289416D01*
X290151Y232322D01*
X290713Y232885D01*
X291018Y233620D01*
Y234416D01*
X290713Y235151D01*
X290151Y235713D01*
X289416Y236018D01*
D02*
G37*
G36*
X314398Y235000D02*
X313602D01*
X312867Y234696D01*
X312304Y234133D01*
X312000Y233398D01*
Y232602D01*
X312304Y231867D01*
X312867Y231305D01*
X313602Y231000D01*
X314398D01*
X315133Y231305D01*
X315696Y231867D01*
X316000Y232602D01*
Y233398D01*
X315696Y234133D01*
X315133Y234696D01*
X314398Y235000D01*
D02*
G37*
G36*
X306898Y234000D02*
X306102D01*
X305367Y233696D01*
X304804Y233133D01*
X304500Y232398D01*
Y231602D01*
X304804Y230867D01*
X305367Y230305D01*
X306102Y230000D01*
X306898D01*
X307633Y230305D01*
X308195Y230867D01*
X308500Y231602D01*
Y232398D01*
X308195Y233133D01*
X307633Y233696D01*
X306898Y234000D01*
D02*
G37*
G36*
X304398Y220595D02*
X303602D01*
X302867Y220290D01*
X302305Y219727D01*
X302000Y218992D01*
Y218197D01*
X302305Y217462D01*
X302867Y216899D01*
X303602Y216595D01*
X304398D01*
X305133Y216899D01*
X305696Y217462D01*
X306000Y218197D01*
Y218992D01*
X305696Y219727D01*
X305133Y220290D01*
X304398Y220595D01*
D02*
G37*
G36*
X523898Y219000D02*
X523102D01*
X522367Y218695D01*
X521805Y218133D01*
X521500Y217398D01*
Y216602D01*
X521805Y215867D01*
X522367Y215304D01*
X523102Y215000D01*
X523898D01*
X524633Y215304D01*
X525196Y215867D01*
X525500Y216602D01*
Y217398D01*
X525196Y218133D01*
X524633Y218695D01*
X523898Y219000D01*
D02*
G37*
G36*
X441398Y217500D02*
X440602D01*
X439867Y217196D01*
X439304Y216633D01*
X439000Y215898D01*
Y215102D01*
X439304Y214367D01*
X439867Y213805D01*
X440602Y213500D01*
X441398D01*
X442133Y213805D01*
X442696Y214367D01*
X443000Y215102D01*
Y215898D01*
X442696Y216633D01*
X442133Y217196D01*
X441398Y217500D01*
D02*
G37*
G36*
X485898Y217000D02*
X485102D01*
X484367Y216695D01*
X483805Y216133D01*
X483500Y215398D01*
Y214602D01*
X483805Y213867D01*
X484367Y213304D01*
X485102Y213000D01*
X485898D01*
X486633Y213304D01*
X487195Y213867D01*
X487500Y214602D01*
Y215398D01*
X487195Y216133D01*
X486633Y216695D01*
X485898Y217000D01*
D02*
G37*
G36*
X543398Y216500D02*
X542602D01*
X541867Y216196D01*
X541304Y215633D01*
X541000Y214898D01*
Y214102D01*
X541304Y213367D01*
X541867Y212805D01*
X542602Y212500D01*
X543398D01*
X544133Y212805D01*
X544696Y213367D01*
X545000Y214102D01*
Y214898D01*
X544696Y215633D01*
X544133Y216196D01*
X543398Y216500D01*
D02*
G37*
G36*
X473898Y213000D02*
X473102D01*
X472367Y212696D01*
X471805Y212133D01*
X471500Y211398D01*
Y210602D01*
X471805Y209867D01*
X472367Y209304D01*
X473102Y209000D01*
X473898D01*
X474633Y209304D01*
X475196Y209867D01*
X475500Y210602D01*
Y211398D01*
X475196Y212133D01*
X474633Y212696D01*
X473898Y213000D01*
D02*
G37*
G36*
X570241Y212383D02*
X569446D01*
X568710Y212078D01*
X568148Y211516D01*
X567843Y210781D01*
Y209985D01*
X568148Y209250D01*
X568710Y208687D01*
X569446Y208383D01*
X570241D01*
X570976Y208687D01*
X571539Y209250D01*
X571843Y209985D01*
Y210781D01*
X571539Y211516D01*
X570976Y212078D01*
X570241Y212383D01*
D02*
G37*
G36*
X366398Y210500D02*
X365602D01*
X364867Y210195D01*
X364304Y209633D01*
X364000Y208898D01*
Y208102D01*
X364304Y207367D01*
X364867Y206804D01*
X365602Y206500D01*
X366398D01*
X367133Y206804D01*
X367695Y207367D01*
X368000Y208102D01*
Y208898D01*
X367695Y209633D01*
X367133Y210195D01*
X366398Y210500D01*
D02*
G37*
G36*
X330398Y204500D02*
X329602D01*
X328867Y204195D01*
X328305Y203633D01*
X328000Y202898D01*
Y202102D01*
X328305Y201367D01*
X328867Y200804D01*
X329602Y200500D01*
X330398D01*
X331133Y200804D01*
X331696Y201367D01*
X332000Y202102D01*
Y202898D01*
X331696Y203633D01*
X331133Y204195D01*
X330398Y204500D01*
D02*
G37*
G36*
X246051Y204051D02*
X237949D01*
Y195949D01*
X246051D01*
Y204051D01*
D02*
G37*
G36*
X534398Y199000D02*
X533602D01*
X532867Y198696D01*
X532304Y198133D01*
X532000Y197398D01*
Y196602D01*
X532304Y195867D01*
X532867Y195305D01*
X533602Y195000D01*
X534398D01*
X535133Y195305D01*
X535696Y195867D01*
X536000Y196602D01*
Y197398D01*
X535696Y198133D01*
X535133Y198696D01*
X534398Y199000D01*
D02*
G37*
G36*
X360898Y196000D02*
X360102D01*
X359367Y195695D01*
X358804Y195133D01*
X358500Y194398D01*
Y193602D01*
X358804Y192867D01*
X359367Y192305D01*
X360102Y192000D01*
X360898D01*
X361633Y192305D01*
X362195Y192867D01*
X362500Y193602D01*
Y194398D01*
X362195Y195133D01*
X361633Y195695D01*
X360898Y196000D01*
D02*
G37*
G36*
X497398Y194500D02*
X496602D01*
X495867Y194195D01*
X495304Y193633D01*
X495000Y192898D01*
Y192102D01*
X495304Y191367D01*
X495867Y190805D01*
X496602Y190500D01*
X497398D01*
X498133Y190805D01*
X498696Y191367D01*
X499000Y192102D01*
Y192898D01*
X498696Y193633D01*
X498133Y194195D01*
X497398Y194500D01*
D02*
G37*
G36*
X305898Y191000D02*
X305102D01*
X304367Y190696D01*
X303804Y190133D01*
X303500Y189398D01*
Y188602D01*
X303804Y187867D01*
X304367Y187304D01*
X305102Y187000D01*
X305898D01*
X306633Y187304D01*
X307195Y187867D01*
X307500Y188602D01*
Y189398D01*
X307195Y190133D01*
X306633Y190696D01*
X305898Y191000D01*
D02*
G37*
G36*
X497398Y190000D02*
X496602D01*
X495867Y189696D01*
X495304Y189133D01*
X495000Y188398D01*
Y187602D01*
X495304Y186867D01*
X495867Y186304D01*
X495999Y186250D01*
Y185750D01*
X495867Y185696D01*
X495304Y185133D01*
X495000Y184398D01*
Y183602D01*
X495304Y182867D01*
X495867Y182305D01*
X496602Y182000D01*
X497398D01*
X498133Y182305D01*
X498696Y182867D01*
X499000Y183602D01*
Y184398D01*
X498696Y185133D01*
X498133Y185696D01*
X498001Y185750D01*
Y186250D01*
X498133Y186304D01*
X498696Y186867D01*
X499000Y187602D01*
Y188398D01*
X498696Y189133D01*
X498133Y189696D01*
X497398Y190000D01*
D02*
G37*
G36*
Y181500D02*
X496602D01*
X495867Y181195D01*
X495304Y180633D01*
X495000Y179898D01*
Y179102D01*
X495304Y178367D01*
X495867Y177805D01*
X496602Y177500D01*
X497398D01*
X498133Y177805D01*
X498696Y178367D01*
X499000Y179102D01*
Y179898D01*
X498696Y180633D01*
X498133Y181195D01*
X497398Y181500D01*
D02*
G37*
G36*
X241533Y183051D02*
X240467D01*
X239436Y182775D01*
X238512Y182242D01*
X237758Y181488D01*
X237225Y180564D01*
X236949Y179533D01*
Y178467D01*
X237225Y177436D01*
X237758Y176513D01*
X238512Y175758D01*
X239436Y175225D01*
X240467Y174949D01*
X241533D01*
X242564Y175225D01*
X243488Y175758D01*
X244242Y176513D01*
X244775Y177436D01*
X245051Y178467D01*
Y179533D01*
X244775Y180564D01*
X244242Y181488D01*
X243488Y182242D01*
X242564Y182775D01*
X241533Y183051D01*
D02*
G37*
G36*
X570398Y170500D02*
X569602D01*
X568867Y170195D01*
X568304Y169633D01*
X568000Y168898D01*
Y168102D01*
X568304Y167367D01*
X568867Y166805D01*
X569602Y166500D01*
X570398D01*
X571133Y166805D01*
X571696Y167367D01*
X572000Y168102D01*
Y168898D01*
X571696Y169633D01*
X571133Y170195D01*
X570398Y170500D01*
D02*
G37*
G36*
X245051Y173051D02*
X236949D01*
Y164949D01*
X245051D01*
Y173051D01*
D02*
G37*
G36*
X473898Y158500D02*
X473102D01*
X472367Y158195D01*
X471805Y157633D01*
X471500Y156898D01*
Y156102D01*
X471805Y155367D01*
X472367Y154805D01*
X473102Y154500D01*
X473898D01*
X474633Y154805D01*
X475196Y155367D01*
X475500Y156102D01*
Y156898D01*
X475196Y157633D01*
X474633Y158195D01*
X473898Y158500D01*
D02*
G37*
G36*
X241533Y159051D02*
X240467D01*
X239436Y158775D01*
X238512Y158242D01*
X237758Y157487D01*
X237225Y156564D01*
X236949Y155533D01*
Y154467D01*
X237225Y153436D01*
X237758Y152513D01*
X238512Y151758D01*
X239436Y151225D01*
X240467Y150949D01*
X241533D01*
X242564Y151225D01*
X243488Y151758D01*
X244242Y152513D01*
X244775Y153436D01*
X245051Y154467D01*
Y155533D01*
X244775Y156564D01*
X244242Y157487D01*
X243488Y158242D01*
X242564Y158775D01*
X241533Y159051D01*
D02*
G37*
G36*
X245051Y149051D02*
X236949D01*
Y140949D01*
X245051D01*
Y149051D01*
D02*
G37*
G36*
X367026Y141843D02*
X365974D01*
X364959Y141571D01*
X364049Y141045D01*
X363305Y140302D01*
X362780Y139391D01*
X362508Y138376D01*
Y137325D01*
X362780Y136310D01*
X363305Y135399D01*
X364049Y134656D01*
X364959Y134130D01*
X365974Y133858D01*
X367026D01*
X368041Y134130D01*
X368951Y134656D01*
X369694Y135399D01*
X370220Y136310D01*
X370492Y137325D01*
Y138376D01*
X370220Y139391D01*
X369694Y140302D01*
X368951Y141045D01*
X368041Y141571D01*
X367026Y141843D01*
D02*
G37*
G36*
X357026D02*
X355974D01*
X354959Y141571D01*
X354049Y141045D01*
X353306Y140302D01*
X352780Y139391D01*
X352508Y138376D01*
Y137325D01*
X352780Y136310D01*
X353306Y135399D01*
X354049Y134656D01*
X354959Y134130D01*
X355974Y133858D01*
X357026D01*
X358041Y134130D01*
X358951Y134656D01*
X359695Y135399D01*
X360220Y136310D01*
X360492Y137325D01*
Y138376D01*
X360220Y139391D01*
X359695Y140302D01*
X358951Y141045D01*
X358041Y141571D01*
X357026Y141843D01*
D02*
G37*
G36*
X347026D02*
X345974D01*
X344959Y141571D01*
X344049Y141045D01*
X343305Y140302D01*
X342780Y139391D01*
X342508Y138376D01*
Y137325D01*
X342780Y136310D01*
X343305Y135399D01*
X344049Y134656D01*
X344959Y134130D01*
X345974Y133858D01*
X347026D01*
X348041Y134130D01*
X348951Y134656D01*
X349694Y135399D01*
X350220Y136310D01*
X350492Y137325D01*
Y138376D01*
X350220Y139391D01*
X349694Y140302D01*
X348951Y141045D01*
X348041Y141571D01*
X347026Y141843D01*
D02*
G37*
G36*
X337026D02*
X335974D01*
X334959Y141571D01*
X334049Y141045D01*
X333306Y140302D01*
X332780Y139391D01*
X332508Y138376D01*
Y137325D01*
X332780Y136310D01*
X333306Y135399D01*
X334049Y134656D01*
X334959Y134130D01*
X335974Y133858D01*
X337026D01*
X338041Y134130D01*
X338951Y134656D01*
X339694Y135399D01*
X340220Y136310D01*
X340492Y137325D01*
Y138376D01*
X340220Y139391D01*
X339694Y140302D01*
X338951Y141045D01*
X338041Y141571D01*
X337026Y141843D01*
D02*
G37*
G36*
X327026D02*
X325974D01*
X324959Y141571D01*
X324049Y141045D01*
X323306Y140302D01*
X322780Y139391D01*
X322508Y138376D01*
Y137325D01*
X322780Y136310D01*
X323306Y135399D01*
X324049Y134656D01*
X324959Y134130D01*
X325974Y133858D01*
X327026D01*
X328041Y134130D01*
X328951Y134656D01*
X329695Y135399D01*
X330220Y136310D01*
X330492Y137325D01*
Y138376D01*
X330220Y139391D01*
X329695Y140302D01*
X328951Y141045D01*
X328041Y141571D01*
X327026Y141843D01*
D02*
G37*
G36*
X317026D02*
X315974D01*
X314959Y141571D01*
X314049Y141045D01*
X313305Y140302D01*
X312780Y139391D01*
X312508Y138376D01*
Y137325D01*
X312780Y136310D01*
X313305Y135399D01*
X314049Y134656D01*
X314959Y134130D01*
X315974Y133858D01*
X317026D01*
X318041Y134130D01*
X318951Y134656D01*
X319694Y135399D01*
X320220Y136310D01*
X320492Y137325D01*
Y138376D01*
X320220Y139391D01*
X319694Y140302D01*
X318951Y141045D01*
X318041Y141571D01*
X317026Y141843D01*
D02*
G37*
G36*
X307026D02*
X305974D01*
X304959Y141571D01*
X304049Y141045D01*
X303306Y140302D01*
X302780Y139391D01*
X302508Y138376D01*
Y137325D01*
X302780Y136310D01*
X303306Y135399D01*
X304049Y134656D01*
X304959Y134130D01*
X305974Y133858D01*
X307026D01*
X308041Y134130D01*
X308951Y134656D01*
X309695Y135399D01*
X310220Y136310D01*
X310492Y137325D01*
Y138376D01*
X310220Y139391D01*
X309695Y140302D01*
X308951Y141045D01*
X308041Y141571D01*
X307026Y141843D01*
D02*
G37*
G36*
X297026D02*
X295974D01*
X294959Y141571D01*
X294049Y141045D01*
X293305Y140302D01*
X292780Y139391D01*
X292508Y138376D01*
Y137325D01*
X292780Y136310D01*
X293305Y135399D01*
X294049Y134656D01*
X294959Y134130D01*
X295974Y133858D01*
X297026D01*
X298041Y134130D01*
X298951Y134656D01*
X299694Y135399D01*
X300220Y136310D01*
X300492Y137325D01*
Y138376D01*
X300220Y139391D01*
X299694Y140302D01*
X298951Y141045D01*
X298041Y141571D01*
X297026Y141843D01*
D02*
G37*
G36*
X241070Y121327D02*
X239930D01*
X238830Y121032D01*
X237843Y120462D01*
X237038Y119657D01*
X236468Y118670D01*
X236173Y117570D01*
Y116430D01*
X236468Y115330D01*
X237038Y114343D01*
X237843Y113538D01*
X238830Y112968D01*
X239930Y112673D01*
X241070D01*
X242170Y112968D01*
X243157Y113538D01*
X243962Y114343D01*
X244532Y115330D01*
X244827Y116430D01*
Y117570D01*
X244532Y118670D01*
X243962Y119657D01*
X243157Y120462D01*
X242170Y121032D01*
X241070Y121327D01*
D02*
G37*
G36*
X231070D02*
X229930D01*
X228830Y121032D01*
X227843Y120462D01*
X227038Y119657D01*
X226468Y118670D01*
X226173Y117570D01*
Y116430D01*
X226468Y115330D01*
X227038Y114343D01*
X227843Y113538D01*
X228830Y112968D01*
X229930Y112673D01*
X231070D01*
X232170Y112968D01*
X233157Y113538D01*
X233962Y114343D01*
X234532Y115330D01*
X234827Y116430D01*
Y117570D01*
X234532Y118670D01*
X233962Y119657D01*
X233157Y120462D01*
X232170Y121032D01*
X231070Y121327D01*
D02*
G37*
G36*
X224827D02*
X216173D01*
Y112673D01*
X224827D01*
Y121327D01*
D02*
G37*
G36*
X685259Y132000D02*
X682741D01*
X680253Y131606D01*
X677858Y130828D01*
X675614Y129684D01*
X673577Y128204D01*
X671796Y126423D01*
X670316Y124386D01*
X669172Y122142D01*
X668394Y119747D01*
X668000Y117259D01*
Y114741D01*
X668394Y112253D01*
X669172Y109858D01*
X670316Y107614D01*
X671796Y105577D01*
X673577Y103796D01*
X675614Y102316D01*
X677858Y101172D01*
X680253Y100394D01*
X682741Y100000D01*
X685259D01*
X687747Y100394D01*
X690142Y101172D01*
X692386Y102316D01*
X694423Y103796D01*
X696204Y105577D01*
X697684Y107614D01*
X698828Y109858D01*
X699606Y112253D01*
X700000Y114741D01*
Y117259D01*
X699606Y119747D01*
X698828Y122142D01*
X697684Y124386D01*
X696204Y126423D01*
X694423Y128204D01*
X692386Y129684D01*
X690142Y130828D01*
X687747Y131606D01*
X685259Y132000D01*
D02*
G37*
G36*
X633759Y131500D02*
X631241D01*
X628753Y131106D01*
X626358Y130328D01*
X624114Y129184D01*
X622077Y127704D01*
X620296Y125923D01*
X618816Y123886D01*
X617672Y121642D01*
X616894Y119247D01*
X616500Y116759D01*
Y114241D01*
X616894Y111753D01*
X617672Y109358D01*
X618816Y107114D01*
X620296Y105077D01*
X622077Y103296D01*
X624114Y101816D01*
X626358Y100672D01*
X628753Y99894D01*
X631241Y99500D01*
X633759D01*
X636247Y99894D01*
X638642Y100672D01*
X640886Y101816D01*
X642923Y103296D01*
X644704Y105077D01*
X646184Y107114D01*
X647328Y109358D01*
X648106Y111753D01*
X648500Y114241D01*
Y116759D01*
X648106Y119247D01*
X647328Y121642D01*
X646184Y123886D01*
X644704Y125923D01*
X642923Y127704D01*
X640886Y129184D01*
X638642Y130328D01*
X636247Y131106D01*
X633759Y131500D01*
D02*
G37*
G36*
X579259D02*
X576741D01*
X574253Y131106D01*
X571858Y130328D01*
X569614Y129184D01*
X567577Y127704D01*
X565796Y125923D01*
X564316Y123886D01*
X563172Y121642D01*
X562394Y119247D01*
X562000Y116759D01*
Y114241D01*
X562394Y111753D01*
X563172Y109358D01*
X564316Y107114D01*
X565796Y105077D01*
X567577Y103296D01*
X569614Y101816D01*
X571858Y100672D01*
X574253Y99894D01*
X576741Y99500D01*
X579259D01*
X581747Y99894D01*
X584142Y100672D01*
X586386Y101816D01*
X588423Y103296D01*
X590204Y105077D01*
X591684Y107114D01*
X592828Y109358D01*
X593606Y111753D01*
X594000Y114241D01*
Y116759D01*
X593606Y119247D01*
X592828Y121642D01*
X591684Y123886D01*
X590204Y125923D01*
X588423Y127704D01*
X586386Y129184D01*
X584142Y130328D01*
X581747Y131106D01*
X579259Y131500D01*
D02*
G37*
%LPD*%
D125*
X504949Y267102D02*
D03*
D145*
X387362Y388500D02*
D03*
D147*
X240850Y316500D02*
D03*
X286500Y137850D02*
D03*
X276000Y377150D02*
D03*
D148*
X240850Y326500D02*
D03*
D150*
X242000Y210000D02*
D03*
D151*
X276500Y137850D02*
D03*
D152*
X387000Y308500D02*
D03*
X482000Y285000D02*
D03*
X486500D02*
D03*
X491000D02*
D03*
X495000D02*
D03*
X488938Y311575D02*
D03*
X435000Y284000D02*
D03*
Y292000D02*
D03*
Y288000D02*
D03*
X459000Y280000D02*
D03*
Y284000D02*
D03*
Y276000D02*
D03*
X376500Y260500D02*
D03*
Y264500D02*
D03*
Y268500D02*
D03*
X430500Y256500D02*
D03*
X426500D02*
D03*
X421500Y244500D02*
D03*
X429500D02*
D03*
X425500D02*
D03*
X400000D02*
D03*
X395500D02*
D03*
X391500D02*
D03*
X413000D02*
D03*
X417000D02*
D03*
X409000D02*
D03*
X404500D02*
D03*
X430500Y307000D02*
D03*
X426500D02*
D03*
X574025Y232488D02*
D03*
X551000Y230000D02*
D03*
X547500D02*
D03*
X543500D02*
D03*
X588000Y232500D02*
D03*
X561000Y267000D02*
D03*
X489000Y319000D02*
D03*
X522500Y272000D02*
D03*
X512500Y265000D02*
D03*
Y260500D02*
D03*
Y255500D02*
D03*
Y250500D02*
D03*
Y245500D02*
D03*
Y240500D02*
D03*
X524000Y261500D02*
D03*
Y258500D02*
D03*
X527000Y283000D02*
D03*
X524000Y255500D02*
D03*
Y252500D02*
D03*
Y249500D02*
D03*
Y246500D02*
D03*
Y243500D02*
D03*
Y240500D02*
D03*
X522500Y311500D02*
D03*
Y299000D02*
D03*
X515500D02*
D03*
X515000Y311500D02*
D03*
X450500Y186000D02*
D03*
X445000Y206500D02*
D03*
X488000Y191000D02*
D03*
X483000Y182500D02*
D03*
X484500Y176000D02*
D03*
Y170500D02*
D03*
X456500Y159000D02*
D03*
X526500Y311500D02*
D03*
X576000Y344500D02*
D03*
Y340500D02*
D03*
Y336500D02*
D03*
Y333000D02*
D03*
Y327500D02*
D03*
Y323500D02*
D03*
Y319500D02*
D03*
Y316000D02*
D03*
X489000Y332500D02*
D03*
X488500Y349500D02*
D03*
Y345500D02*
D03*
Y341500D02*
D03*
Y337000D02*
D03*
X475500D02*
D03*
Y341500D02*
D03*
Y345500D02*
D03*
Y349500D02*
D03*
X489000Y323500D02*
D03*
Y327500D02*
D03*
X511500Y333000D02*
D03*
Y337500D02*
D03*
Y341500D02*
D03*
Y345500D02*
D03*
X502000Y333000D02*
D03*
Y337500D02*
D03*
Y341500D02*
D03*
Y345500D02*
D03*
X511500Y315500D02*
D03*
Y320000D02*
D03*
Y324000D02*
D03*
Y328000D02*
D03*
X543000Y260500D02*
D03*
X548000D02*
D03*
Y256000D02*
D03*
X543000D02*
D03*
X679000Y257500D02*
D03*
X675000D02*
D03*
X671000D02*
D03*
X619500Y321000D02*
D03*
X623500D02*
D03*
X627500D02*
D03*
X661500Y342000D02*
D03*
X665500D02*
D03*
X669500D02*
D03*
X661500Y329500D02*
D03*
X665500D02*
D03*
X669500D02*
D03*
X661500Y282500D02*
D03*
X665500D02*
D03*
X669500D02*
D03*
X661500Y294000D02*
D03*
X665500D02*
D03*
X669500D02*
D03*
X593500Y233000D02*
D03*
Y238500D02*
D03*
X558000Y278500D02*
D03*
X563000D02*
D03*
X547000D02*
D03*
X552500D02*
D03*
X576500Y265500D02*
D03*
X580978Y265538D02*
D03*
X560500Y273500D02*
D03*
X555000D02*
D03*
X549500D02*
D03*
X585500Y265500D02*
D03*
Y270000D02*
D03*
Y274000D02*
D03*
Y278000D02*
D03*
X598000Y247000D02*
D03*
Y251500D02*
D03*
Y255500D02*
D03*
Y259500D02*
D03*
Y264500D02*
D03*
Y269000D02*
D03*
Y273000D02*
D03*
Y277000D02*
D03*
Y281500D02*
D03*
Y286000D02*
D03*
Y290000D02*
D03*
Y294000D02*
D03*
X585500Y281500D02*
D03*
Y286000D02*
D03*
Y290000D02*
D03*
Y294000D02*
D03*
X546000Y332000D02*
D03*
X550500D02*
D03*
X560500Y283000D02*
D03*
X584000Y232500D02*
D03*
X579500D02*
D03*
X540000Y230000D02*
D03*
X671000Y247000D02*
D03*
X675000D02*
D03*
X679000D02*
D03*
X446000Y360000D02*
D03*
Y356000D02*
D03*
Y352000D02*
D03*
X436500Y360000D02*
D03*
Y356000D02*
D03*
Y352000D02*
D03*
X638000Y293500D02*
D03*
Y289500D02*
D03*
Y285500D02*
D03*
X649000Y350000D02*
D03*
Y346000D02*
D03*
Y342000D02*
D03*
X637000Y350000D02*
D03*
Y346000D02*
D03*
Y342000D02*
D03*
X677500Y377500D02*
D03*
X673500D02*
D03*
X669500D02*
D03*
X677500Y368000D02*
D03*
X673500D02*
D03*
X669500D02*
D03*
X637000Y320000D02*
D03*
Y324000D02*
D03*
Y328000D02*
D03*
X649500Y318500D02*
D03*
Y322500D02*
D03*
Y326500D02*
D03*
X649000Y296000D02*
D03*
Y300000D02*
D03*
Y304000D02*
D03*
X630000Y299500D02*
D03*
X634000D02*
D03*
X638000D02*
D03*
X617500D02*
D03*
X621500D02*
D03*
X625500D02*
D03*
X615000Y321000D02*
D03*
X606500D02*
D03*
X586500Y312000D02*
D03*
X475000Y295000D02*
D03*
Y327000D02*
D03*
Y332000D02*
D03*
X538500Y298500D02*
D03*
X542500Y326500D02*
D03*
Y318000D02*
D03*
Y322000D02*
D03*
X580000Y209500D02*
D03*
X460000Y268000D02*
D03*
X574500Y298000D02*
D03*
X564500Y313000D02*
D03*
X527000Y261500D02*
D03*
Y258500D02*
D03*
Y255500D02*
D03*
Y252500D02*
D03*
Y249500D02*
D03*
Y246500D02*
D03*
Y243500D02*
D03*
Y240500D02*
D03*
X436000Y318500D02*
D03*
Y314500D02*
D03*
Y310500D02*
D03*
X435500Y307000D02*
D03*
X446500Y293000D02*
D03*
X446000Y307500D02*
D03*
X451000Y293000D02*
D03*
X455500D02*
D03*
X450500Y307500D02*
D03*
X460500Y293000D02*
D03*
X458500Y307500D02*
D03*
X454500D02*
D03*
X417500Y281500D02*
D03*
X411925Y293500D02*
D03*
X334000Y217000D02*
D03*
X597000Y327500D02*
D03*
Y323500D02*
D03*
Y319500D02*
D03*
Y315000D02*
D03*
Y345500D02*
D03*
Y341500D02*
D03*
Y337500D02*
D03*
Y333000D02*
D03*
Y363500D02*
D03*
Y359500D02*
D03*
Y355500D02*
D03*
Y351000D02*
D03*
Y381000D02*
D03*
Y377000D02*
D03*
Y373000D02*
D03*
Y368500D02*
D03*
Y398000D02*
D03*
Y394000D02*
D03*
Y390000D02*
D03*
Y385500D02*
D03*
X586500Y386000D02*
D03*
Y390500D02*
D03*
Y394500D02*
D03*
Y398500D02*
D03*
Y369000D02*
D03*
Y373500D02*
D03*
Y377500D02*
D03*
Y381500D02*
D03*
Y351500D02*
D03*
Y356000D02*
D03*
Y360000D02*
D03*
Y364000D02*
D03*
Y333500D02*
D03*
Y338000D02*
D03*
Y342000D02*
D03*
Y346000D02*
D03*
Y316500D02*
D03*
Y320000D02*
D03*
Y324000D02*
D03*
Y328000D02*
D03*
X502000D02*
D03*
Y324000D02*
D03*
Y320000D02*
D03*
Y315500D02*
D03*
X388000Y287000D02*
D03*
X404000Y256500D02*
D03*
X399500D02*
D03*
X395500D02*
D03*
X391500D02*
D03*
X301500Y295000D02*
D03*
X606500Y315500D02*
D03*
X610500Y321000D02*
D03*
X544500Y288500D02*
D03*
Y283000D02*
D03*
X550000D02*
D03*
X555500D02*
D03*
X563500Y288500D02*
D03*
X523000Y283000D02*
D03*
X339700Y243215D02*
D03*
X347284Y235475D02*
D03*
X289000Y210000D02*
D03*
X303000Y233500D02*
D03*
X294988Y240677D02*
D03*
X412000Y318500D02*
D03*
X408500Y326000D02*
D03*
X370169Y295020D02*
D03*
X635500Y310500D02*
D03*
X631500D02*
D03*
X464500D02*
D03*
X604000Y198000D02*
D03*
X584708Y174575D02*
D03*
X588813Y182813D02*
D03*
X593586Y191492D02*
D03*
X697500Y241500D02*
D03*
X694000D02*
D03*
X690500D02*
D03*
X687000D02*
D03*
X697500Y263500D02*
D03*
X694000D02*
D03*
X690500D02*
D03*
X687000D02*
D03*
X697000Y361000D02*
D03*
X693500D02*
D03*
X690000D02*
D03*
X686500D02*
D03*
X697500Y383500D02*
D03*
X694000D02*
D03*
X690500D02*
D03*
X687000D02*
D03*
X603500Y403500D02*
D03*
Y407000D02*
D03*
Y410500D02*
D03*
Y414000D02*
D03*
X581000Y403000D02*
D03*
Y406500D02*
D03*
Y410000D02*
D03*
Y413500D02*
D03*
X517500Y403500D02*
D03*
Y407000D02*
D03*
Y410500D02*
D03*
Y414000D02*
D03*
X495500Y403000D02*
D03*
Y406500D02*
D03*
Y410000D02*
D03*
Y413500D02*
D03*
X430000Y413000D02*
D03*
X452500Y414000D02*
D03*
Y410000D02*
D03*
Y406500D02*
D03*
Y403000D02*
D03*
X430000Y409500D02*
D03*
Y406000D02*
D03*
Y402500D02*
D03*
X613500Y299500D02*
D03*
X606500Y311000D02*
D03*
X582000Y298000D02*
D03*
X575500Y312000D02*
D03*
X538500Y310500D02*
D03*
X563500Y294500D02*
D03*
X544500D02*
D03*
X561500Y328500D02*
D03*
X558500Y332000D02*
D03*
X554500D02*
D03*
X468500Y310500D02*
D03*
X472000D02*
D03*
X475500D02*
D03*
X502000Y299000D02*
D03*
X489000Y315000D02*
D03*
X494500Y311500D02*
D03*
X498000D02*
D03*
X502000D02*
D03*
X510500D02*
D03*
X529500D02*
D03*
X583000Y312000D02*
D03*
X579000D02*
D03*
X601500Y311000D02*
D03*
X597000D02*
D03*
X610000Y299500D02*
D03*
X555500Y304000D02*
D03*
X552500D02*
D03*
X555500Y306500D02*
D03*
X552500D02*
D03*
X564500Y309500D02*
D03*
X561500Y324500D02*
D03*
X542500Y314000D02*
D03*
Y310500D02*
D03*
X606000Y299500D02*
D03*
X602000D02*
D03*
X598000D02*
D03*
X585500Y298000D02*
D03*
X578500D02*
D03*
X565000D02*
D03*
X559500Y294500D02*
D03*
X555500D02*
D03*
X549000D02*
D03*
X542500Y298500D02*
D03*
X511000Y299000D02*
D03*
X498000D02*
D03*
X493500D02*
D03*
X489000D02*
D03*
X470500Y295000D02*
D03*
X466000D02*
D03*
X370000Y342000D02*
D03*
X497007Y162516D02*
D03*
X318016Y230016D02*
D03*
X477500Y207500D02*
D03*
X507000Y175000D02*
D03*
X507118Y172260D02*
D03*
X507000Y169000D02*
D03*
X412000Y310500D02*
D03*
X379500Y323500D02*
D03*
X332336Y274519D02*
D03*
Y278519D02*
D03*
Y283019D02*
D03*
D153*
X683228Y172228D02*
D03*
X219000Y399000D02*
D03*
D154*
X458484Y183323D02*
D03*
Y187260D02*
D03*
X462421Y183323D02*
D03*
Y187260D02*
D03*
X466358Y183323D02*
D03*
Y187260D02*
D03*
X565142Y183240D02*
D03*
Y187177D02*
D03*
X569079Y183240D02*
D03*
Y187177D02*
D03*
X573016Y183240D02*
D03*
Y187177D02*
D03*
M02*
